G04 #@! TF.GenerationSoftware,KiCad,Pcbnew,5.1.9+dfsg1-1*
G04 #@! TF.CreationDate,2022-06-11T22:33:11-07:00*
G04 #@! TF.ProjectId,keygame-batpack,6b657967-616d-4652-9d62-61747061636b,rev?*
G04 #@! TF.SameCoordinates,Original*
G04 #@! TF.FileFunction,Copper,L2,Bot*
G04 #@! TF.FilePolarity,Positive*
%FSLAX46Y46*%
G04 Gerber Fmt 4.6, Leading zero omitted, Abs format (unit mm)*
G04 Created by KiCad (PCBNEW 5.1.9+dfsg1-1) date 2022-06-11 22:33:11*
%MOMM*%
%LPD*%
G01*
G04 APERTURE LIST*
G04 #@! TA.AperFunction,ComponentPad*
%ADD10C,0.800000*%
G04 #@! TD*
G04 #@! TA.AperFunction,ComponentPad*
%ADD11C,6.400000*%
G04 #@! TD*
G04 #@! TA.AperFunction,ComponentPad*
%ADD12R,1.700000X1.700000*%
G04 #@! TD*
G04 #@! TA.AperFunction,ComponentPad*
%ADD13O,1.700000X1.700000*%
G04 #@! TD*
G04 #@! TA.AperFunction,ComponentPad*
%ADD14C,1.755000*%
G04 #@! TD*
G04 #@! TA.AperFunction,ComponentPad*
%ADD15C,3.000000*%
G04 #@! TD*
G04 #@! TA.AperFunction,SMDPad,CuDef*
%ADD16R,4.000000X8.000000*%
G04 #@! TD*
G04 #@! TA.AperFunction,SMDPad,CuDef*
%ADD17R,8.000000X1.000000*%
G04 #@! TD*
G04 #@! TA.AperFunction,SMDPad,CuDef*
%ADD18R,5.000000X3.000000*%
G04 #@! TD*
G04 #@! TA.AperFunction,ComponentPad*
%ADD19C,2.000000*%
G04 #@! TD*
G04 #@! TA.AperFunction,ComponentPad*
%ADD20C,1.700000*%
G04 #@! TD*
G04 #@! TA.AperFunction,ComponentPad*
%ADD21R,2.400000X2.400000*%
G04 #@! TD*
G04 #@! TA.AperFunction,ComponentPad*
%ADD22O,2.400000X2.400000*%
G04 #@! TD*
G04 #@! TA.AperFunction,ViaPad*
%ADD23C,0.800000*%
G04 #@! TD*
G04 #@! TA.AperFunction,Conductor*
%ADD24C,1.000000*%
G04 #@! TD*
G04 #@! TA.AperFunction,Conductor*
%ADD25C,0.254000*%
G04 #@! TD*
G04 #@! TA.AperFunction,Conductor*
%ADD26C,0.350000*%
G04 #@! TD*
G04 APERTURE END LIST*
D10*
G04 #@! TO.P,H1,1*
G04 #@! TO.N,GND*
X126137056Y-57962944D03*
X124440000Y-57260000D03*
X122742944Y-57962944D03*
X122040000Y-59660000D03*
X122742944Y-61357056D03*
X124440000Y-62060000D03*
X126137056Y-61357056D03*
X126840000Y-59660000D03*
D11*
X124440000Y-59660000D03*
G04 #@! TD*
G04 #@! TO.P,H2,1*
G04 #@! TO.N,GND*
X170440000Y-59660000D03*
D10*
X172840000Y-59660000D03*
X172137056Y-61357056D03*
X170440000Y-62060000D03*
X168742944Y-61357056D03*
X168040000Y-59660000D03*
X168742944Y-57962944D03*
X170440000Y-57260000D03*
X172137056Y-57962944D03*
G04 #@! TD*
G04 #@! TO.P,H3,1*
G04 #@! TO.N,GND*
X126137056Y-131962944D03*
X124440000Y-131260000D03*
X122742944Y-131962944D03*
X122040000Y-133660000D03*
X122742944Y-135357056D03*
X124440000Y-136060000D03*
X126137056Y-135357056D03*
X126840000Y-133660000D03*
D11*
X124440000Y-133660000D03*
G04 #@! TD*
G04 #@! TO.P,H4,1*
G04 #@! TO.N,GND*
X170440000Y-133660000D03*
D10*
X172840000Y-133660000D03*
X172137056Y-135357056D03*
X170440000Y-136060000D03*
X168742944Y-135357056D03*
X168040000Y-133660000D03*
X168742944Y-131962944D03*
X170440000Y-131260000D03*
X172137056Y-131962944D03*
G04 #@! TD*
D12*
G04 #@! TO.P,J1,1*
G04 #@! TO.N,/SCK*
X138940000Y-59660000D03*
D13*
G04 #@! TO.P,J1,2*
G04 #@! TO.N,/MOSI*
X141480000Y-59660000D03*
G04 #@! TO.P,J1,3*
G04 #@! TO.N,/SCREEN_RST*
X144020000Y-59660000D03*
G04 #@! TO.P,J1,4*
G04 #@! TO.N,/SCREEN_DC*
X146560000Y-59660000D03*
G04 #@! TO.P,J1,5*
G04 #@! TO.N,/SCREEN_CS*
X149100000Y-59660000D03*
G04 #@! TO.P,J1,6*
G04 #@! TO.N,/BUTTON_MISO*
X151640000Y-59660000D03*
G04 #@! TO.P,J1,7*
G04 #@! TO.N,/BUTTON_CLK*
X154180000Y-59660000D03*
G04 #@! TO.P,J1,8*
G04 #@! TO.N,/BUTTON_LATCH*
X156720000Y-59660000D03*
G04 #@! TD*
D12*
G04 #@! TO.P,J2,1*
G04 #@! TO.N,+3V3*
X124440000Y-69660000D03*
D13*
G04 #@! TO.P,J2,2*
G04 #@! TO.N,GND*
X124440000Y-72200000D03*
G04 #@! TO.P,J2,3*
G04 #@! TO.N,+5V*
X124440000Y-74740000D03*
G04 #@! TO.P,J2,4*
G04 #@! TO.N,GND*
X124440000Y-77280000D03*
G04 #@! TO.P,J2,5*
X124440000Y-79820000D03*
G04 #@! TO.P,J2,6*
X124440000Y-82360000D03*
G04 #@! TO.P,J2,7*
X124440000Y-84900000D03*
G04 #@! TO.P,J2,8*
X124440000Y-87440000D03*
G04 #@! TD*
D14*
G04 #@! TO.P,BT1,1*
G04 #@! TO.N,Net-(BT1-Pad1)*
X150210000Y-83140000D03*
G04 #@! TO.P,BT1,2*
G04 #@! TO.N,GND*
X136620000Y-83140000D03*
G04 #@! TD*
D15*
G04 #@! TO.P,J3,1*
G04 #@! TO.N,GND*
X162030000Y-67560000D03*
G04 #@! TO.P,J3,2*
G04 #@! TO.N,Net-(J3-Pad2)*
X162030000Y-74440000D03*
G04 #@! TO.P,J3,3*
G04 #@! TO.N,Net-(D1-Pad1)*
X130970000Y-74440000D03*
G04 #@! TO.P,J3,4*
G04 #@! TO.N,GND*
X130970000Y-67560000D03*
G04 #@! TD*
D16*
G04 #@! TO.P,REF\u002A\u002A,*
G04 #@! TO.N,*
X138440000Y-133160000D03*
D17*
X138440000Y-135160000D03*
X138440000Y-131160000D03*
D18*
X131940000Y-133160000D03*
X144940000Y-133160000D03*
G04 #@! TD*
D19*
G04 #@! TO.P,F1,1*
G04 #@! TO.N,Net-(D1-Pad2)*
X170020000Y-107240000D03*
G04 #@! TO.P,F1,2*
G04 #@! TO.N,GND*
X164940000Y-107230000D03*
G04 #@! TD*
G04 #@! TO.P,SW1,*
G04 #@! TO.N,*
X168050000Y-77000000D03*
X168050000Y-65000000D03*
X174050000Y-65000000D03*
X174050000Y-77000000D03*
D20*
G04 #@! TO.P,SW1,1*
G04 #@! TO.N,Net-(SW1-Pad1)*
X169800000Y-75000000D03*
G04 #@! TO.P,SW1,2*
G04 #@! TO.N,Net-(BT1-Pad1)*
X169800000Y-71000000D03*
G04 #@! TO.P,SW1,3*
G04 #@! TO.N,Net-(D1-Pad1)*
X169800000Y-67000000D03*
G04 #@! TD*
D21*
G04 #@! TO.P,D1,1*
G04 #@! TO.N,Net-(D1-Pad1)*
X170020000Y-86400000D03*
D22*
G04 #@! TO.P,D1,2*
G04 #@! TO.N,Net-(D1-Pad2)*
X170020000Y-101640000D03*
G04 #@! TD*
D23*
G04 #@! TO.N,GND*
X154700000Y-95410000D03*
G04 #@! TD*
D24*
G04 #@! TO.N,Net-(BT1-Pad1)*
X157660000Y-83140000D02*
X150210000Y-83140000D01*
X169800000Y-71000000D02*
X157660000Y-83140000D01*
G04 #@! TD*
D25*
G04 #@! TO.N,GND*
X171199192Y-55440578D02*
X171934389Y-55641705D01*
X172622351Y-55969846D01*
X173241331Y-56414628D01*
X173771761Y-56961988D01*
X174196884Y-57594639D01*
X174503251Y-58292561D01*
X174682499Y-59039183D01*
X174730001Y-59686044D01*
X174730001Y-63511954D01*
X174526912Y-63427832D01*
X174211033Y-63365000D01*
X173888967Y-63365000D01*
X173573088Y-63427832D01*
X173275537Y-63551082D01*
X173007748Y-63730013D01*
X172780013Y-63957748D01*
X172601082Y-64225537D01*
X172477832Y-64523088D01*
X172415000Y-64838967D01*
X172415000Y-65161033D01*
X172477832Y-65476912D01*
X172601082Y-65774463D01*
X172780013Y-66042252D01*
X173007748Y-66269987D01*
X173275537Y-66448918D01*
X173573088Y-66572168D01*
X173888967Y-66635000D01*
X174211033Y-66635000D01*
X174526912Y-66572168D01*
X174730001Y-66488046D01*
X174730001Y-75511954D01*
X174526912Y-75427832D01*
X174211033Y-75365000D01*
X173888967Y-75365000D01*
X173573088Y-75427832D01*
X173275537Y-75551082D01*
X173007748Y-75730013D01*
X172780013Y-75957748D01*
X172601082Y-76225537D01*
X172477832Y-76523088D01*
X172415000Y-76838967D01*
X172415000Y-77161033D01*
X172477832Y-77476912D01*
X172601082Y-77774463D01*
X172780013Y-78042252D01*
X173007748Y-78269987D01*
X173275537Y-78448918D01*
X173573088Y-78572168D01*
X173888967Y-78635000D01*
X174211033Y-78635000D01*
X174526912Y-78572168D01*
X174730001Y-78488046D01*
X174730000Y-133628382D01*
X174659422Y-134419193D01*
X174458295Y-135154389D01*
X174130152Y-135842355D01*
X173685374Y-136461328D01*
X173138012Y-136991761D01*
X172505362Y-137416883D01*
X171807439Y-137723251D01*
X171060819Y-137902499D01*
X170413970Y-137950000D01*
X124471618Y-137950000D01*
X123680807Y-137879422D01*
X122945611Y-137678295D01*
X122257645Y-137350152D01*
X121638672Y-136905374D01*
X121111020Y-136360881D01*
X121918724Y-136360881D01*
X122278912Y-136850548D01*
X122942882Y-137210849D01*
X123664385Y-137434694D01*
X124415695Y-137513480D01*
X125167938Y-137444178D01*
X125892208Y-137229452D01*
X126560670Y-136877555D01*
X126601088Y-136850548D01*
X126961276Y-136360881D01*
X124440000Y-133839605D01*
X121918724Y-136360881D01*
X121111020Y-136360881D01*
X121108239Y-136358012D01*
X120683117Y-135725362D01*
X120376749Y-135027439D01*
X120197501Y-134280819D01*
X120150127Y-133635695D01*
X120586520Y-133635695D01*
X120655822Y-134387938D01*
X120870548Y-135112208D01*
X121222445Y-135780670D01*
X121249452Y-135821088D01*
X121739119Y-136181276D01*
X124260395Y-133660000D01*
X124619605Y-133660000D01*
X127140881Y-136181276D01*
X127630548Y-135821088D01*
X127990849Y-135157118D01*
X128214694Y-134435615D01*
X128293480Y-133684305D01*
X128224178Y-132932062D01*
X128009452Y-132207792D01*
X127721080Y-131660000D01*
X128801928Y-131660000D01*
X128801928Y-134660000D01*
X128814188Y-134784482D01*
X128850498Y-134904180D01*
X128909463Y-135014494D01*
X128988815Y-135111185D01*
X129085506Y-135190537D01*
X129195820Y-135249502D01*
X129315518Y-135285812D01*
X129440000Y-135298072D01*
X133801928Y-135298072D01*
X133801928Y-135660000D01*
X133814188Y-135784482D01*
X133850498Y-135904180D01*
X133909463Y-136014494D01*
X133988815Y-136111185D01*
X134085506Y-136190537D01*
X134195820Y-136249502D01*
X134315518Y-136285812D01*
X134440000Y-136298072D01*
X135801928Y-136298072D01*
X135801928Y-137160000D01*
X135814188Y-137284482D01*
X135850498Y-137404180D01*
X135909463Y-137514494D01*
X135988815Y-137611185D01*
X136085506Y-137690537D01*
X136195820Y-137749502D01*
X136315518Y-137785812D01*
X136440000Y-137798072D01*
X140440000Y-137798072D01*
X140564482Y-137785812D01*
X140684180Y-137749502D01*
X140794494Y-137690537D01*
X140891185Y-137611185D01*
X140970537Y-137514494D01*
X141029502Y-137404180D01*
X141065812Y-137284482D01*
X141078072Y-137160000D01*
X141078072Y-136360881D01*
X167918724Y-136360881D01*
X168278912Y-136850548D01*
X168942882Y-137210849D01*
X169664385Y-137434694D01*
X170415695Y-137513480D01*
X171167938Y-137444178D01*
X171892208Y-137229452D01*
X172560670Y-136877555D01*
X172601088Y-136850548D01*
X172961276Y-136360881D01*
X170440000Y-133839605D01*
X167918724Y-136360881D01*
X141078072Y-136360881D01*
X141078072Y-136298072D01*
X142440000Y-136298072D01*
X142564482Y-136285812D01*
X142684180Y-136249502D01*
X142794494Y-136190537D01*
X142891185Y-136111185D01*
X142970537Y-136014494D01*
X143029502Y-135904180D01*
X143065812Y-135784482D01*
X143078072Y-135660000D01*
X143078072Y-135298072D01*
X147440000Y-135298072D01*
X147564482Y-135285812D01*
X147684180Y-135249502D01*
X147794494Y-135190537D01*
X147891185Y-135111185D01*
X147970537Y-135014494D01*
X148029502Y-134904180D01*
X148065812Y-134784482D01*
X148078072Y-134660000D01*
X148078072Y-133635695D01*
X166586520Y-133635695D01*
X166655822Y-134387938D01*
X166870548Y-135112208D01*
X167222445Y-135780670D01*
X167249452Y-135821088D01*
X167739119Y-136181276D01*
X170260395Y-133660000D01*
X170619605Y-133660000D01*
X173140881Y-136181276D01*
X173630548Y-135821088D01*
X173990849Y-135157118D01*
X174214694Y-134435615D01*
X174293480Y-133684305D01*
X174224178Y-132932062D01*
X174009452Y-132207792D01*
X173657555Y-131539330D01*
X173630548Y-131498912D01*
X173140881Y-131138724D01*
X170619605Y-133660000D01*
X170260395Y-133660000D01*
X167739119Y-131138724D01*
X167249452Y-131498912D01*
X166889151Y-132162882D01*
X166665306Y-132884385D01*
X166586520Y-133635695D01*
X148078072Y-133635695D01*
X148078072Y-131660000D01*
X148065812Y-131535518D01*
X148029502Y-131415820D01*
X147970537Y-131305506D01*
X147891185Y-131208815D01*
X147794494Y-131129463D01*
X147684180Y-131070498D01*
X147564482Y-131034188D01*
X147440000Y-131021928D01*
X143078072Y-131021928D01*
X143078072Y-130959119D01*
X167918724Y-130959119D01*
X170440000Y-133480395D01*
X172961276Y-130959119D01*
X172601088Y-130469452D01*
X171937118Y-130109151D01*
X171215615Y-129885306D01*
X170464305Y-129806520D01*
X169712062Y-129875822D01*
X168987792Y-130090548D01*
X168319330Y-130442445D01*
X168278912Y-130469452D01*
X167918724Y-130959119D01*
X143078072Y-130959119D01*
X143078072Y-130660000D01*
X143065812Y-130535518D01*
X143029502Y-130415820D01*
X142970537Y-130305506D01*
X142891185Y-130208815D01*
X142794494Y-130129463D01*
X142684180Y-130070498D01*
X142564482Y-130034188D01*
X142440000Y-130021928D01*
X141078072Y-130021928D01*
X141078072Y-129160000D01*
X141065812Y-129035518D01*
X141029502Y-128915820D01*
X140970537Y-128805506D01*
X140891185Y-128708815D01*
X140794494Y-128629463D01*
X140684180Y-128570498D01*
X140564482Y-128534188D01*
X140440000Y-128521928D01*
X136440000Y-128521928D01*
X136315518Y-128534188D01*
X136195820Y-128570498D01*
X136085506Y-128629463D01*
X135988815Y-128708815D01*
X135909463Y-128805506D01*
X135850498Y-128915820D01*
X135814188Y-129035518D01*
X135801928Y-129160000D01*
X135801928Y-130021928D01*
X134440000Y-130021928D01*
X134315518Y-130034188D01*
X134195820Y-130070498D01*
X134085506Y-130129463D01*
X133988815Y-130208815D01*
X133909463Y-130305506D01*
X133850498Y-130415820D01*
X133814188Y-130535518D01*
X133801928Y-130660000D01*
X133801928Y-131021928D01*
X129440000Y-131021928D01*
X129315518Y-131034188D01*
X129195820Y-131070498D01*
X129085506Y-131129463D01*
X128988815Y-131208815D01*
X128909463Y-131305506D01*
X128850498Y-131415820D01*
X128814188Y-131535518D01*
X128801928Y-131660000D01*
X127721080Y-131660000D01*
X127657555Y-131539330D01*
X127630548Y-131498912D01*
X127140881Y-131138724D01*
X124619605Y-133660000D01*
X124260395Y-133660000D01*
X121739119Y-131138724D01*
X121249452Y-131498912D01*
X120889151Y-132162882D01*
X120665306Y-132884385D01*
X120586520Y-133635695D01*
X120150127Y-133635695D01*
X120150000Y-133633970D01*
X120150000Y-130959119D01*
X121918724Y-130959119D01*
X124440000Y-133480395D01*
X126961276Y-130959119D01*
X126601088Y-130469452D01*
X125937118Y-130109151D01*
X125215615Y-129885306D01*
X124464305Y-129806520D01*
X123712062Y-129875822D01*
X122987792Y-130090548D01*
X122319330Y-130442445D01*
X122278912Y-130469452D01*
X121918724Y-130959119D01*
X120150000Y-130959119D01*
X120150000Y-109044592D01*
X140895263Y-109044592D01*
X140895263Y-109575408D01*
X140998820Y-110096026D01*
X141201955Y-110586437D01*
X141496861Y-111027795D01*
X141872205Y-111403139D01*
X142313563Y-111698045D01*
X142803974Y-111901180D01*
X143324592Y-112004737D01*
X143855408Y-112004737D01*
X144376026Y-111901180D01*
X144866437Y-111698045D01*
X145307795Y-111403139D01*
X145683139Y-111027795D01*
X145978045Y-110586437D01*
X146181180Y-110096026D01*
X146284737Y-109575408D01*
X146284737Y-109044592D01*
X146181180Y-108523974D01*
X146115502Y-108365413D01*
X163984192Y-108365413D01*
X164079956Y-108629814D01*
X164369571Y-108770704D01*
X164681108Y-108852384D01*
X165002595Y-108871718D01*
X165321675Y-108827961D01*
X165626088Y-108722795D01*
X165800044Y-108629814D01*
X165895808Y-108365413D01*
X164940000Y-107409605D01*
X163984192Y-108365413D01*
X146115502Y-108365413D01*
X145978045Y-108033563D01*
X145683139Y-107592205D01*
X145383529Y-107292595D01*
X163298282Y-107292595D01*
X163342039Y-107611675D01*
X163447205Y-107916088D01*
X163540186Y-108090044D01*
X163804587Y-108185808D01*
X164760395Y-107230000D01*
X165119605Y-107230000D01*
X166075413Y-108185808D01*
X166339814Y-108090044D01*
X166480704Y-107800429D01*
X166562384Y-107488892D01*
X166581718Y-107167405D01*
X166569591Y-107078967D01*
X168385000Y-107078967D01*
X168385000Y-107401033D01*
X168447832Y-107716912D01*
X168571082Y-108014463D01*
X168750013Y-108282252D01*
X168977748Y-108509987D01*
X169245537Y-108688918D01*
X169543088Y-108812168D01*
X169858967Y-108875000D01*
X170181033Y-108875000D01*
X170496912Y-108812168D01*
X170794463Y-108688918D01*
X171062252Y-108509987D01*
X171289987Y-108282252D01*
X171468918Y-108014463D01*
X171592168Y-107716912D01*
X171655000Y-107401033D01*
X171655000Y-107078967D01*
X171592168Y-106763088D01*
X171468918Y-106465537D01*
X171289987Y-106197748D01*
X171062252Y-105970013D01*
X170794463Y-105791082D01*
X170496912Y-105667832D01*
X170181033Y-105605000D01*
X169858967Y-105605000D01*
X169543088Y-105667832D01*
X169245537Y-105791082D01*
X168977748Y-105970013D01*
X168750013Y-106197748D01*
X168571082Y-106465537D01*
X168447832Y-106763088D01*
X168385000Y-107078967D01*
X166569591Y-107078967D01*
X166537961Y-106848325D01*
X166432795Y-106543912D01*
X166339814Y-106369956D01*
X166075413Y-106274192D01*
X165119605Y-107230000D01*
X164760395Y-107230000D01*
X163804587Y-106274192D01*
X163540186Y-106369956D01*
X163399296Y-106659571D01*
X163317616Y-106971108D01*
X163298282Y-107292595D01*
X145383529Y-107292595D01*
X145307795Y-107216861D01*
X144866437Y-106921955D01*
X144376026Y-106718820D01*
X143855408Y-106615263D01*
X143324592Y-106615263D01*
X142803974Y-106718820D01*
X142313563Y-106921955D01*
X141872205Y-107216861D01*
X141496861Y-107592205D01*
X141201955Y-108033563D01*
X140998820Y-108523974D01*
X140895263Y-109044592D01*
X120150000Y-109044592D01*
X120150000Y-106094587D01*
X163984192Y-106094587D01*
X164940000Y-107050395D01*
X165895808Y-106094587D01*
X165800044Y-105830186D01*
X165510429Y-105689296D01*
X165198892Y-105607616D01*
X164877405Y-105588282D01*
X164558325Y-105632039D01*
X164253912Y-105737205D01*
X164079956Y-105830186D01*
X163984192Y-106094587D01*
X120150000Y-106094587D01*
X120150000Y-101459268D01*
X168185000Y-101459268D01*
X168185000Y-101820732D01*
X168255518Y-102175250D01*
X168393844Y-102509199D01*
X168594662Y-102809744D01*
X168850256Y-103065338D01*
X169150801Y-103266156D01*
X169484750Y-103404482D01*
X169839268Y-103475000D01*
X170200732Y-103475000D01*
X170555250Y-103404482D01*
X170889199Y-103266156D01*
X171189744Y-103065338D01*
X171445338Y-102809744D01*
X171646156Y-102509199D01*
X171784482Y-102175250D01*
X171855000Y-101820732D01*
X171855000Y-101459268D01*
X171784482Y-101104750D01*
X171646156Y-100770801D01*
X171445338Y-100470256D01*
X171189744Y-100214662D01*
X170889199Y-100013844D01*
X170555250Y-99875518D01*
X170200732Y-99805000D01*
X169839268Y-99805000D01*
X169484750Y-99875518D01*
X169150801Y-100013844D01*
X168850256Y-100214662D01*
X168594662Y-100470256D01*
X168393844Y-100770801D01*
X168255518Y-101104750D01*
X168185000Y-101459268D01*
X120150000Y-101459268D01*
X120150000Y-87796890D01*
X122998524Y-87796890D01*
X123043175Y-87944099D01*
X123168359Y-88206920D01*
X123342412Y-88440269D01*
X123558645Y-88635178D01*
X123808748Y-88784157D01*
X124083109Y-88881481D01*
X124313000Y-88760814D01*
X124313000Y-87567000D01*
X124567000Y-87567000D01*
X124567000Y-88760814D01*
X124796891Y-88881481D01*
X125071252Y-88784157D01*
X125321355Y-88635178D01*
X125537588Y-88440269D01*
X125711641Y-88206920D01*
X125836825Y-87944099D01*
X125881476Y-87796890D01*
X125760155Y-87567000D01*
X124567000Y-87567000D01*
X124313000Y-87567000D01*
X123119845Y-87567000D01*
X122998524Y-87796890D01*
X120150000Y-87796890D01*
X120150000Y-85256890D01*
X122998524Y-85256890D01*
X123043175Y-85404099D01*
X123168359Y-85666920D01*
X123342412Y-85900269D01*
X123558645Y-86095178D01*
X123684255Y-86170000D01*
X123558645Y-86244822D01*
X123342412Y-86439731D01*
X123168359Y-86673080D01*
X123043175Y-86935901D01*
X122998524Y-87083110D01*
X123119845Y-87313000D01*
X124313000Y-87313000D01*
X124313000Y-85027000D01*
X124567000Y-85027000D01*
X124567000Y-87313000D01*
X125760155Y-87313000D01*
X125881476Y-87083110D01*
X125836825Y-86935901D01*
X125711641Y-86673080D01*
X125537588Y-86439731D01*
X125321355Y-86244822D01*
X125195745Y-86170000D01*
X125321355Y-86095178D01*
X125537588Y-85900269D01*
X125711641Y-85666920D01*
X125836825Y-85404099D01*
X125881476Y-85256890D01*
X125851454Y-85200000D01*
X168181928Y-85200000D01*
X168181928Y-87600000D01*
X168194188Y-87724482D01*
X168230498Y-87844180D01*
X168289463Y-87954494D01*
X168368815Y-88051185D01*
X168465506Y-88130537D01*
X168575820Y-88189502D01*
X168695518Y-88225812D01*
X168820000Y-88238072D01*
X171220000Y-88238072D01*
X171344482Y-88225812D01*
X171464180Y-88189502D01*
X171574494Y-88130537D01*
X171671185Y-88051185D01*
X171750537Y-87954494D01*
X171809502Y-87844180D01*
X171845812Y-87724482D01*
X171858072Y-87600000D01*
X171858072Y-85200000D01*
X171845812Y-85075518D01*
X171809502Y-84955820D01*
X171750537Y-84845506D01*
X171671185Y-84748815D01*
X171574494Y-84669463D01*
X171464180Y-84610498D01*
X171344482Y-84574188D01*
X171220000Y-84561928D01*
X168820000Y-84561928D01*
X168695518Y-84574188D01*
X168575820Y-84610498D01*
X168465506Y-84669463D01*
X168368815Y-84748815D01*
X168289463Y-84845506D01*
X168230498Y-84955820D01*
X168194188Y-85075518D01*
X168181928Y-85200000D01*
X125851454Y-85200000D01*
X125760155Y-85027000D01*
X124567000Y-85027000D01*
X124313000Y-85027000D01*
X123119845Y-85027000D01*
X122998524Y-85256890D01*
X120150000Y-85256890D01*
X120150000Y-82716890D01*
X122998524Y-82716890D01*
X123043175Y-82864099D01*
X123168359Y-83126920D01*
X123342412Y-83360269D01*
X123558645Y-83555178D01*
X123684255Y-83630000D01*
X123558645Y-83704822D01*
X123342412Y-83899731D01*
X123168359Y-84133080D01*
X123043175Y-84395901D01*
X122998524Y-84543110D01*
X123119845Y-84773000D01*
X124313000Y-84773000D01*
X124313000Y-82487000D01*
X124567000Y-82487000D01*
X124567000Y-84773000D01*
X125760155Y-84773000D01*
X125881476Y-84543110D01*
X125836825Y-84395901D01*
X125737812Y-84188024D01*
X135751581Y-84188024D01*
X135832543Y-84439907D01*
X136101274Y-84568555D01*
X136389938Y-84642304D01*
X136687444Y-84658321D01*
X136982358Y-84615989D01*
X137263346Y-84516936D01*
X137407457Y-84439907D01*
X137488419Y-84188024D01*
X136620000Y-83319605D01*
X135751581Y-84188024D01*
X125737812Y-84188024D01*
X125711641Y-84133080D01*
X125537588Y-83899731D01*
X125321355Y-83704822D01*
X125195745Y-83630000D01*
X125321355Y-83555178D01*
X125537588Y-83360269D01*
X125651578Y-83207444D01*
X135101679Y-83207444D01*
X135144011Y-83502358D01*
X135243064Y-83783346D01*
X135320093Y-83927457D01*
X135571976Y-84008419D01*
X136440395Y-83140000D01*
X136799605Y-83140000D01*
X137668024Y-84008419D01*
X137919907Y-83927457D01*
X138048555Y-83658726D01*
X138122304Y-83370062D01*
X138138321Y-83072556D01*
X138126620Y-82991032D01*
X148697500Y-82991032D01*
X148697500Y-83288968D01*
X148755625Y-83581180D01*
X148869640Y-83856437D01*
X149035165Y-84104162D01*
X149245838Y-84314835D01*
X149493563Y-84480360D01*
X149768820Y-84594375D01*
X150061032Y-84652500D01*
X150358968Y-84652500D01*
X150651180Y-84594375D01*
X150926437Y-84480360D01*
X151174162Y-84314835D01*
X151213997Y-84275000D01*
X157604249Y-84275000D01*
X157660000Y-84280491D01*
X157715751Y-84275000D01*
X157715752Y-84275000D01*
X157882499Y-84258577D01*
X158096447Y-84193676D01*
X158293623Y-84088284D01*
X158466449Y-83946449D01*
X158501996Y-83903135D01*
X165566165Y-76838967D01*
X166415000Y-76838967D01*
X166415000Y-77161033D01*
X166477832Y-77476912D01*
X166601082Y-77774463D01*
X166780013Y-78042252D01*
X167007748Y-78269987D01*
X167275537Y-78448918D01*
X167573088Y-78572168D01*
X167888967Y-78635000D01*
X168211033Y-78635000D01*
X168526912Y-78572168D01*
X168824463Y-78448918D01*
X169092252Y-78269987D01*
X169319987Y-78042252D01*
X169498918Y-77774463D01*
X169622168Y-77476912D01*
X169685000Y-77161033D01*
X169685000Y-76838967D01*
X169622168Y-76523088D01*
X169602140Y-76474736D01*
X169653740Y-76485000D01*
X169946260Y-76485000D01*
X170233158Y-76427932D01*
X170503411Y-76315990D01*
X170746632Y-76153475D01*
X170953475Y-75946632D01*
X171115990Y-75703411D01*
X171227932Y-75433158D01*
X171285000Y-75146260D01*
X171285000Y-74853740D01*
X171227932Y-74566842D01*
X171115990Y-74296589D01*
X170953475Y-74053368D01*
X170746632Y-73846525D01*
X170503411Y-73684010D01*
X170233158Y-73572068D01*
X169946260Y-73515000D01*
X169653740Y-73515000D01*
X169366842Y-73572068D01*
X169096589Y-73684010D01*
X168853368Y-73846525D01*
X168646525Y-74053368D01*
X168484010Y-74296589D01*
X168372068Y-74566842D01*
X168315000Y-74853740D01*
X168315000Y-75146260D01*
X168364586Y-75395543D01*
X168211033Y-75365000D01*
X167888967Y-75365000D01*
X167573088Y-75427832D01*
X167275537Y-75551082D01*
X167007748Y-75730013D01*
X166780013Y-75957748D01*
X166601082Y-76225537D01*
X166477832Y-76523088D01*
X166415000Y-76838967D01*
X165566165Y-76838967D01*
X169920133Y-72485000D01*
X169946260Y-72485000D01*
X170233158Y-72427932D01*
X170503411Y-72315990D01*
X170746632Y-72153475D01*
X170953475Y-71946632D01*
X171115990Y-71703411D01*
X171227932Y-71433158D01*
X171285000Y-71146260D01*
X171285000Y-70853740D01*
X171227932Y-70566842D01*
X171115990Y-70296589D01*
X170953475Y-70053368D01*
X170746632Y-69846525D01*
X170503411Y-69684010D01*
X170233158Y-69572068D01*
X169946260Y-69515000D01*
X169653740Y-69515000D01*
X169366842Y-69572068D01*
X169096589Y-69684010D01*
X168853368Y-69846525D01*
X168646525Y-70053368D01*
X168484010Y-70296589D01*
X168372068Y-70566842D01*
X168315000Y-70853740D01*
X168315000Y-70879867D01*
X164048192Y-75146675D01*
X164082953Y-75062756D01*
X164165000Y-74650279D01*
X164165000Y-74229721D01*
X164082953Y-73817244D01*
X163922012Y-73428698D01*
X163688363Y-73079017D01*
X163390983Y-72781637D01*
X163041302Y-72547988D01*
X162652756Y-72387047D01*
X162240279Y-72305000D01*
X161819721Y-72305000D01*
X161407244Y-72387047D01*
X161018698Y-72547988D01*
X160669017Y-72781637D01*
X160371637Y-73079017D01*
X160137988Y-73428698D01*
X159977047Y-73817244D01*
X159895000Y-74229721D01*
X159895000Y-74650279D01*
X159977047Y-75062756D01*
X160137988Y-75451302D01*
X160371637Y-75800983D01*
X160669017Y-76098363D01*
X161018698Y-76332012D01*
X161407244Y-76492953D01*
X161819721Y-76575000D01*
X162240279Y-76575000D01*
X162652756Y-76492953D01*
X162736676Y-76458192D01*
X157189869Y-82005000D01*
X151213997Y-82005000D01*
X151174162Y-81965165D01*
X150926437Y-81799640D01*
X150651180Y-81685625D01*
X150358968Y-81627500D01*
X150061032Y-81627500D01*
X149768820Y-81685625D01*
X149493563Y-81799640D01*
X149245838Y-81965165D01*
X149035165Y-82175838D01*
X148869640Y-82423563D01*
X148755625Y-82698820D01*
X148697500Y-82991032D01*
X138126620Y-82991032D01*
X138095989Y-82777642D01*
X137996936Y-82496654D01*
X137919907Y-82352543D01*
X137668024Y-82271581D01*
X136799605Y-83140000D01*
X136440395Y-83140000D01*
X135571976Y-82271581D01*
X135320093Y-82352543D01*
X135191445Y-82621274D01*
X135117696Y-82909938D01*
X135101679Y-83207444D01*
X125651578Y-83207444D01*
X125711641Y-83126920D01*
X125836825Y-82864099D01*
X125881476Y-82716890D01*
X125760155Y-82487000D01*
X124567000Y-82487000D01*
X124313000Y-82487000D01*
X123119845Y-82487000D01*
X122998524Y-82716890D01*
X120150000Y-82716890D01*
X120150000Y-80176890D01*
X122998524Y-80176890D01*
X123043175Y-80324099D01*
X123168359Y-80586920D01*
X123342412Y-80820269D01*
X123558645Y-81015178D01*
X123684255Y-81090000D01*
X123558645Y-81164822D01*
X123342412Y-81359731D01*
X123168359Y-81593080D01*
X123043175Y-81855901D01*
X122998524Y-82003110D01*
X123119845Y-82233000D01*
X124313000Y-82233000D01*
X124313000Y-79947000D01*
X124567000Y-79947000D01*
X124567000Y-82233000D01*
X125760155Y-82233000D01*
X125834578Y-82091976D01*
X135751581Y-82091976D01*
X136620000Y-82960395D01*
X137488419Y-82091976D01*
X137407457Y-81840093D01*
X137138726Y-81711445D01*
X136850062Y-81637696D01*
X136552556Y-81621679D01*
X136257642Y-81664011D01*
X135976654Y-81763064D01*
X135832543Y-81840093D01*
X135751581Y-82091976D01*
X125834578Y-82091976D01*
X125881476Y-82003110D01*
X125836825Y-81855901D01*
X125711641Y-81593080D01*
X125537588Y-81359731D01*
X125321355Y-81164822D01*
X125195745Y-81090000D01*
X125321355Y-81015178D01*
X125537588Y-80820269D01*
X125711641Y-80586920D01*
X125836825Y-80324099D01*
X125881476Y-80176890D01*
X125760155Y-79947000D01*
X124567000Y-79947000D01*
X124313000Y-79947000D01*
X123119845Y-79947000D01*
X122998524Y-80176890D01*
X120150000Y-80176890D01*
X120150000Y-77636890D01*
X122998524Y-77636890D01*
X123043175Y-77784099D01*
X123168359Y-78046920D01*
X123342412Y-78280269D01*
X123558645Y-78475178D01*
X123684255Y-78550000D01*
X123558645Y-78624822D01*
X123342412Y-78819731D01*
X123168359Y-79053080D01*
X123043175Y-79315901D01*
X122998524Y-79463110D01*
X123119845Y-79693000D01*
X124313000Y-79693000D01*
X124313000Y-77407000D01*
X124567000Y-77407000D01*
X124567000Y-79693000D01*
X125760155Y-79693000D01*
X125881476Y-79463110D01*
X125836825Y-79315901D01*
X125711641Y-79053080D01*
X125537588Y-78819731D01*
X125321355Y-78624822D01*
X125195745Y-78550000D01*
X125321355Y-78475178D01*
X125537588Y-78280269D01*
X125711641Y-78046920D01*
X125836825Y-77784099D01*
X125881476Y-77636890D01*
X125760155Y-77407000D01*
X124567000Y-77407000D01*
X124313000Y-77407000D01*
X123119845Y-77407000D01*
X122998524Y-77636890D01*
X120150000Y-77636890D01*
X120150000Y-74593740D01*
X122955000Y-74593740D01*
X122955000Y-74886260D01*
X123012068Y-75173158D01*
X123124010Y-75443411D01*
X123286525Y-75686632D01*
X123493368Y-75893475D01*
X123675534Y-76015195D01*
X123558645Y-76084822D01*
X123342412Y-76279731D01*
X123168359Y-76513080D01*
X123043175Y-76775901D01*
X122998524Y-76923110D01*
X123119845Y-77153000D01*
X124313000Y-77153000D01*
X124313000Y-77133000D01*
X124567000Y-77133000D01*
X124567000Y-77153000D01*
X125760155Y-77153000D01*
X125881476Y-76923110D01*
X125836825Y-76775901D01*
X125711641Y-76513080D01*
X125537588Y-76279731D01*
X125321355Y-76084822D01*
X125204466Y-76015195D01*
X125386632Y-75893475D01*
X125593475Y-75686632D01*
X125755990Y-75443411D01*
X125867932Y-75173158D01*
X125925000Y-74886260D01*
X125925000Y-74593740D01*
X125867932Y-74306842D01*
X125835988Y-74229721D01*
X128835000Y-74229721D01*
X128835000Y-74650279D01*
X128917047Y-75062756D01*
X129077988Y-75451302D01*
X129311637Y-75800983D01*
X129609017Y-76098363D01*
X129958698Y-76332012D01*
X130347244Y-76492953D01*
X130759721Y-76575000D01*
X131180279Y-76575000D01*
X131592756Y-76492953D01*
X131981302Y-76332012D01*
X132330983Y-76098363D01*
X132628363Y-75800983D01*
X132862012Y-75451302D01*
X133022953Y-75062756D01*
X133105000Y-74650279D01*
X133105000Y-74229721D01*
X133022953Y-73817244D01*
X132862012Y-73428698D01*
X132628363Y-73079017D01*
X132330983Y-72781637D01*
X131981302Y-72547988D01*
X131592756Y-72387047D01*
X131180279Y-72305000D01*
X130759721Y-72305000D01*
X130347244Y-72387047D01*
X129958698Y-72547988D01*
X129609017Y-72781637D01*
X129311637Y-73079017D01*
X129077988Y-73428698D01*
X128917047Y-73817244D01*
X128835000Y-74229721D01*
X125835988Y-74229721D01*
X125755990Y-74036589D01*
X125593475Y-73793368D01*
X125386632Y-73586525D01*
X125204466Y-73464805D01*
X125321355Y-73395178D01*
X125537588Y-73200269D01*
X125711641Y-72966920D01*
X125836825Y-72704099D01*
X125881476Y-72556890D01*
X125760155Y-72327000D01*
X124567000Y-72327000D01*
X124567000Y-72347000D01*
X124313000Y-72347000D01*
X124313000Y-72327000D01*
X123119845Y-72327000D01*
X122998524Y-72556890D01*
X123043175Y-72704099D01*
X123168359Y-72966920D01*
X123342412Y-73200269D01*
X123558645Y-73395178D01*
X123675534Y-73464805D01*
X123493368Y-73586525D01*
X123286525Y-73793368D01*
X123124010Y-74036589D01*
X123012068Y-74306842D01*
X122955000Y-74593740D01*
X120150000Y-74593740D01*
X120150000Y-68810000D01*
X122951928Y-68810000D01*
X122951928Y-70510000D01*
X122964188Y-70634482D01*
X123000498Y-70754180D01*
X123059463Y-70864494D01*
X123138815Y-70961185D01*
X123235506Y-71040537D01*
X123345820Y-71099502D01*
X123426466Y-71123966D01*
X123342412Y-71199731D01*
X123168359Y-71433080D01*
X123043175Y-71695901D01*
X122998524Y-71843110D01*
X123119845Y-72073000D01*
X124313000Y-72073000D01*
X124313000Y-72053000D01*
X124567000Y-72053000D01*
X124567000Y-72073000D01*
X125760155Y-72073000D01*
X125881476Y-71843110D01*
X125836825Y-71695901D01*
X125711641Y-71433080D01*
X125537588Y-71199731D01*
X125453534Y-71123966D01*
X125534180Y-71099502D01*
X125644494Y-71040537D01*
X125741185Y-70961185D01*
X125820537Y-70864494D01*
X125879502Y-70754180D01*
X125915812Y-70634482D01*
X125928072Y-70510000D01*
X125928072Y-69051653D01*
X129657952Y-69051653D01*
X129813962Y-69367214D01*
X130188745Y-69558020D01*
X130593551Y-69672044D01*
X131012824Y-69704902D01*
X131430451Y-69655334D01*
X131830383Y-69525243D01*
X132126038Y-69367214D01*
X132282048Y-69051653D01*
X160717952Y-69051653D01*
X160873962Y-69367214D01*
X161248745Y-69558020D01*
X161653551Y-69672044D01*
X162072824Y-69704902D01*
X162490451Y-69655334D01*
X162890383Y-69525243D01*
X163186038Y-69367214D01*
X163342048Y-69051653D01*
X162030000Y-67739605D01*
X160717952Y-69051653D01*
X132282048Y-69051653D01*
X130970000Y-67739605D01*
X129657952Y-69051653D01*
X125928072Y-69051653D01*
X125928072Y-68810000D01*
X125915812Y-68685518D01*
X125879502Y-68565820D01*
X125820537Y-68455506D01*
X125741185Y-68358815D01*
X125644494Y-68279463D01*
X125534180Y-68220498D01*
X125414482Y-68184188D01*
X125290000Y-68171928D01*
X123590000Y-68171928D01*
X123465518Y-68184188D01*
X123345820Y-68220498D01*
X123235506Y-68279463D01*
X123138815Y-68358815D01*
X123059463Y-68455506D01*
X123000498Y-68565820D01*
X122964188Y-68685518D01*
X122951928Y-68810000D01*
X120150000Y-68810000D01*
X120150000Y-67602824D01*
X128825098Y-67602824D01*
X128874666Y-68020451D01*
X129004757Y-68420383D01*
X129162786Y-68716038D01*
X129478347Y-68872048D01*
X130790395Y-67560000D01*
X131149605Y-67560000D01*
X132461653Y-68872048D01*
X132777214Y-68716038D01*
X132968020Y-68341255D01*
X133082044Y-67936449D01*
X133108189Y-67602824D01*
X159885098Y-67602824D01*
X159934666Y-68020451D01*
X160064757Y-68420383D01*
X160222786Y-68716038D01*
X160538347Y-68872048D01*
X161850395Y-67560000D01*
X162209605Y-67560000D01*
X163521653Y-68872048D01*
X163837214Y-68716038D01*
X164028020Y-68341255D01*
X164142044Y-67936449D01*
X164174902Y-67517176D01*
X164125334Y-67099549D01*
X163995243Y-66699617D01*
X163837214Y-66403962D01*
X163521653Y-66247952D01*
X162209605Y-67560000D01*
X161850395Y-67560000D01*
X160538347Y-66247952D01*
X160222786Y-66403962D01*
X160031980Y-66778745D01*
X159917956Y-67183551D01*
X159885098Y-67602824D01*
X133108189Y-67602824D01*
X133114902Y-67517176D01*
X133065334Y-67099549D01*
X132935243Y-66699617D01*
X132777214Y-66403962D01*
X132461653Y-66247952D01*
X131149605Y-67560000D01*
X130790395Y-67560000D01*
X129478347Y-66247952D01*
X129162786Y-66403962D01*
X128971980Y-66778745D01*
X128857956Y-67183551D01*
X128825098Y-67602824D01*
X120150000Y-67602824D01*
X120150000Y-66068347D01*
X129657952Y-66068347D01*
X130970000Y-67380395D01*
X132282048Y-66068347D01*
X160717952Y-66068347D01*
X162030000Y-67380395D01*
X163342048Y-66068347D01*
X163186038Y-65752786D01*
X162811255Y-65561980D01*
X162406449Y-65447956D01*
X161987176Y-65415098D01*
X161569549Y-65464666D01*
X161169617Y-65594757D01*
X160873962Y-65752786D01*
X160717952Y-66068347D01*
X132282048Y-66068347D01*
X132126038Y-65752786D01*
X131751255Y-65561980D01*
X131346449Y-65447956D01*
X130927176Y-65415098D01*
X130509549Y-65464666D01*
X130109617Y-65594757D01*
X129813962Y-65752786D01*
X129657952Y-66068347D01*
X120150000Y-66068347D01*
X120150000Y-64838967D01*
X166415000Y-64838967D01*
X166415000Y-65161033D01*
X166477832Y-65476912D01*
X166601082Y-65774463D01*
X166780013Y-66042252D01*
X167007748Y-66269987D01*
X167275537Y-66448918D01*
X167573088Y-66572168D01*
X167888967Y-66635000D01*
X168211033Y-66635000D01*
X168364586Y-66604457D01*
X168315000Y-66853740D01*
X168315000Y-67146260D01*
X168372068Y-67433158D01*
X168484010Y-67703411D01*
X168646525Y-67946632D01*
X168853368Y-68153475D01*
X169096589Y-68315990D01*
X169366842Y-68427932D01*
X169653740Y-68485000D01*
X169946260Y-68485000D01*
X170233158Y-68427932D01*
X170503411Y-68315990D01*
X170746632Y-68153475D01*
X170953475Y-67946632D01*
X171115990Y-67703411D01*
X171227932Y-67433158D01*
X171285000Y-67146260D01*
X171285000Y-66853740D01*
X171227932Y-66566842D01*
X171115990Y-66296589D01*
X170953475Y-66053368D01*
X170746632Y-65846525D01*
X170503411Y-65684010D01*
X170233158Y-65572068D01*
X169946260Y-65515000D01*
X169653740Y-65515000D01*
X169602140Y-65525264D01*
X169622168Y-65476912D01*
X169685000Y-65161033D01*
X169685000Y-64838967D01*
X169622168Y-64523088D01*
X169498918Y-64225537D01*
X169319987Y-63957748D01*
X169092252Y-63730013D01*
X168824463Y-63551082D01*
X168526912Y-63427832D01*
X168211033Y-63365000D01*
X167888967Y-63365000D01*
X167573088Y-63427832D01*
X167275537Y-63551082D01*
X167007748Y-63730013D01*
X166780013Y-63957748D01*
X166601082Y-64225537D01*
X166477832Y-64523088D01*
X166415000Y-64838967D01*
X120150000Y-64838967D01*
X120150000Y-62360881D01*
X121918724Y-62360881D01*
X122278912Y-62850548D01*
X122942882Y-63210849D01*
X123664385Y-63434694D01*
X124415695Y-63513480D01*
X125167938Y-63444178D01*
X125892208Y-63229452D01*
X126560670Y-62877555D01*
X126601088Y-62850548D01*
X126961276Y-62360881D01*
X167918724Y-62360881D01*
X168278912Y-62850548D01*
X168942882Y-63210849D01*
X169664385Y-63434694D01*
X170415695Y-63513480D01*
X171167938Y-63444178D01*
X171892208Y-63229452D01*
X172560670Y-62877555D01*
X172601088Y-62850548D01*
X172961276Y-62360881D01*
X170440000Y-59839605D01*
X167918724Y-62360881D01*
X126961276Y-62360881D01*
X124440000Y-59839605D01*
X121918724Y-62360881D01*
X120150000Y-62360881D01*
X120150000Y-59691618D01*
X120154991Y-59635695D01*
X120586520Y-59635695D01*
X120655822Y-60387938D01*
X120870548Y-61112208D01*
X121222445Y-61780670D01*
X121249452Y-61821088D01*
X121739119Y-62181276D01*
X124260395Y-59660000D01*
X124619605Y-59660000D01*
X127140881Y-62181276D01*
X127630548Y-61821088D01*
X127990849Y-61157118D01*
X128214694Y-60435615D01*
X128293480Y-59684305D01*
X128224178Y-58932062D01*
X128187990Y-58810000D01*
X137451928Y-58810000D01*
X137451928Y-60510000D01*
X137464188Y-60634482D01*
X137500498Y-60754180D01*
X137559463Y-60864494D01*
X137638815Y-60961185D01*
X137735506Y-61040537D01*
X137845820Y-61099502D01*
X137965518Y-61135812D01*
X138090000Y-61148072D01*
X139790000Y-61148072D01*
X139914482Y-61135812D01*
X140034180Y-61099502D01*
X140144494Y-61040537D01*
X140241185Y-60961185D01*
X140320537Y-60864494D01*
X140379502Y-60754180D01*
X140401513Y-60681620D01*
X140533368Y-60813475D01*
X140776589Y-60975990D01*
X141046842Y-61087932D01*
X141333740Y-61145000D01*
X141626260Y-61145000D01*
X141913158Y-61087932D01*
X142183411Y-60975990D01*
X142426632Y-60813475D01*
X142633475Y-60606632D01*
X142750000Y-60432240D01*
X142866525Y-60606632D01*
X143073368Y-60813475D01*
X143316589Y-60975990D01*
X143586842Y-61087932D01*
X143873740Y-61145000D01*
X144166260Y-61145000D01*
X144453158Y-61087932D01*
X144723411Y-60975990D01*
X144966632Y-60813475D01*
X145173475Y-60606632D01*
X145290000Y-60432240D01*
X145406525Y-60606632D01*
X145613368Y-60813475D01*
X145856589Y-60975990D01*
X146126842Y-61087932D01*
X146413740Y-61145000D01*
X146706260Y-61145000D01*
X146993158Y-61087932D01*
X147263411Y-60975990D01*
X147506632Y-60813475D01*
X147713475Y-60606632D01*
X147830000Y-60432240D01*
X147946525Y-60606632D01*
X148153368Y-60813475D01*
X148396589Y-60975990D01*
X148666842Y-61087932D01*
X148953740Y-61145000D01*
X149246260Y-61145000D01*
X149533158Y-61087932D01*
X149803411Y-60975990D01*
X150046632Y-60813475D01*
X150253475Y-60606632D01*
X150370000Y-60432240D01*
X150486525Y-60606632D01*
X150693368Y-60813475D01*
X150936589Y-60975990D01*
X151206842Y-61087932D01*
X151493740Y-61145000D01*
X151786260Y-61145000D01*
X152073158Y-61087932D01*
X152343411Y-60975990D01*
X152586632Y-60813475D01*
X152793475Y-60606632D01*
X152910000Y-60432240D01*
X153026525Y-60606632D01*
X153233368Y-60813475D01*
X153476589Y-60975990D01*
X153746842Y-61087932D01*
X154033740Y-61145000D01*
X154326260Y-61145000D01*
X154613158Y-61087932D01*
X154883411Y-60975990D01*
X155126632Y-60813475D01*
X155333475Y-60606632D01*
X155450000Y-60432240D01*
X155566525Y-60606632D01*
X155773368Y-60813475D01*
X156016589Y-60975990D01*
X156286842Y-61087932D01*
X156573740Y-61145000D01*
X156866260Y-61145000D01*
X157153158Y-61087932D01*
X157423411Y-60975990D01*
X157666632Y-60813475D01*
X157873475Y-60606632D01*
X158035990Y-60363411D01*
X158147932Y-60093158D01*
X158205000Y-59806260D01*
X158205000Y-59635695D01*
X166586520Y-59635695D01*
X166655822Y-60387938D01*
X166870548Y-61112208D01*
X167222445Y-61780670D01*
X167249452Y-61821088D01*
X167739119Y-62181276D01*
X170260395Y-59660000D01*
X170619605Y-59660000D01*
X173140881Y-62181276D01*
X173630548Y-61821088D01*
X173990849Y-61157118D01*
X174214694Y-60435615D01*
X174293480Y-59684305D01*
X174224178Y-58932062D01*
X174009452Y-58207792D01*
X173657555Y-57539330D01*
X173630548Y-57498912D01*
X173140881Y-57138724D01*
X170619605Y-59660000D01*
X170260395Y-59660000D01*
X167739119Y-57138724D01*
X167249452Y-57498912D01*
X166889151Y-58162882D01*
X166665306Y-58884385D01*
X166586520Y-59635695D01*
X158205000Y-59635695D01*
X158205000Y-59513740D01*
X158147932Y-59226842D01*
X158035990Y-58956589D01*
X157873475Y-58713368D01*
X157666632Y-58506525D01*
X157423411Y-58344010D01*
X157153158Y-58232068D01*
X156866260Y-58175000D01*
X156573740Y-58175000D01*
X156286842Y-58232068D01*
X156016589Y-58344010D01*
X155773368Y-58506525D01*
X155566525Y-58713368D01*
X155450000Y-58887760D01*
X155333475Y-58713368D01*
X155126632Y-58506525D01*
X154883411Y-58344010D01*
X154613158Y-58232068D01*
X154326260Y-58175000D01*
X154033740Y-58175000D01*
X153746842Y-58232068D01*
X153476589Y-58344010D01*
X153233368Y-58506525D01*
X153026525Y-58713368D01*
X152910000Y-58887760D01*
X152793475Y-58713368D01*
X152586632Y-58506525D01*
X152343411Y-58344010D01*
X152073158Y-58232068D01*
X151786260Y-58175000D01*
X151493740Y-58175000D01*
X151206842Y-58232068D01*
X150936589Y-58344010D01*
X150693368Y-58506525D01*
X150486525Y-58713368D01*
X150370000Y-58887760D01*
X150253475Y-58713368D01*
X150046632Y-58506525D01*
X149803411Y-58344010D01*
X149533158Y-58232068D01*
X149246260Y-58175000D01*
X148953740Y-58175000D01*
X148666842Y-58232068D01*
X148396589Y-58344010D01*
X148153368Y-58506525D01*
X147946525Y-58713368D01*
X147830000Y-58887760D01*
X147713475Y-58713368D01*
X147506632Y-58506525D01*
X147263411Y-58344010D01*
X146993158Y-58232068D01*
X146706260Y-58175000D01*
X146413740Y-58175000D01*
X146126842Y-58232068D01*
X145856589Y-58344010D01*
X145613368Y-58506525D01*
X145406525Y-58713368D01*
X145290000Y-58887760D01*
X145173475Y-58713368D01*
X144966632Y-58506525D01*
X144723411Y-58344010D01*
X144453158Y-58232068D01*
X144166260Y-58175000D01*
X143873740Y-58175000D01*
X143586842Y-58232068D01*
X143316589Y-58344010D01*
X143073368Y-58506525D01*
X142866525Y-58713368D01*
X142750000Y-58887760D01*
X142633475Y-58713368D01*
X142426632Y-58506525D01*
X142183411Y-58344010D01*
X141913158Y-58232068D01*
X141626260Y-58175000D01*
X141333740Y-58175000D01*
X141046842Y-58232068D01*
X140776589Y-58344010D01*
X140533368Y-58506525D01*
X140401513Y-58638380D01*
X140379502Y-58565820D01*
X140320537Y-58455506D01*
X140241185Y-58358815D01*
X140144494Y-58279463D01*
X140034180Y-58220498D01*
X139914482Y-58184188D01*
X139790000Y-58171928D01*
X138090000Y-58171928D01*
X137965518Y-58184188D01*
X137845820Y-58220498D01*
X137735506Y-58279463D01*
X137638815Y-58358815D01*
X137559463Y-58455506D01*
X137500498Y-58565820D01*
X137464188Y-58685518D01*
X137451928Y-58810000D01*
X128187990Y-58810000D01*
X128009452Y-58207792D01*
X127657555Y-57539330D01*
X127630548Y-57498912D01*
X127140881Y-57138724D01*
X124619605Y-59660000D01*
X124260395Y-59660000D01*
X121739119Y-57138724D01*
X121249452Y-57498912D01*
X120889151Y-58162882D01*
X120665306Y-58884385D01*
X120586520Y-59635695D01*
X120154991Y-59635695D01*
X120220578Y-58900808D01*
X120421705Y-58165611D01*
X120749846Y-57477649D01*
X121122447Y-56959119D01*
X121918724Y-56959119D01*
X124440000Y-59480395D01*
X126961276Y-56959119D01*
X167918724Y-56959119D01*
X170440000Y-59480395D01*
X172961276Y-56959119D01*
X172601088Y-56469452D01*
X171937118Y-56109151D01*
X171215615Y-55885306D01*
X170464305Y-55806520D01*
X169712062Y-55875822D01*
X168987792Y-56090548D01*
X168319330Y-56442445D01*
X168278912Y-56469452D01*
X167918724Y-56959119D01*
X126961276Y-56959119D01*
X126601088Y-56469452D01*
X125937118Y-56109151D01*
X125215615Y-55885306D01*
X124464305Y-55806520D01*
X123712062Y-55875822D01*
X122987792Y-56090548D01*
X122319330Y-56442445D01*
X122278912Y-56469452D01*
X121918724Y-56959119D01*
X121122447Y-56959119D01*
X121194628Y-56858669D01*
X121741988Y-56328239D01*
X122374639Y-55903116D01*
X123072561Y-55596749D01*
X123819183Y-55417501D01*
X124466030Y-55370000D01*
X170408382Y-55370000D01*
X171199192Y-55440578D01*
G04 #@! TA.AperFunction,Conductor*
D26*
G36*
X171199192Y-55440578D02*
G01*
X171934389Y-55641705D01*
X172622351Y-55969846D01*
X173241331Y-56414628D01*
X173771761Y-56961988D01*
X174196884Y-57594639D01*
X174503251Y-58292561D01*
X174682499Y-59039183D01*
X174730001Y-59686044D01*
X174730001Y-63511954D01*
X174526912Y-63427832D01*
X174211033Y-63365000D01*
X173888967Y-63365000D01*
X173573088Y-63427832D01*
X173275537Y-63551082D01*
X173007748Y-63730013D01*
X172780013Y-63957748D01*
X172601082Y-64225537D01*
X172477832Y-64523088D01*
X172415000Y-64838967D01*
X172415000Y-65161033D01*
X172477832Y-65476912D01*
X172601082Y-65774463D01*
X172780013Y-66042252D01*
X173007748Y-66269987D01*
X173275537Y-66448918D01*
X173573088Y-66572168D01*
X173888967Y-66635000D01*
X174211033Y-66635000D01*
X174526912Y-66572168D01*
X174730001Y-66488046D01*
X174730001Y-75511954D01*
X174526912Y-75427832D01*
X174211033Y-75365000D01*
X173888967Y-75365000D01*
X173573088Y-75427832D01*
X173275537Y-75551082D01*
X173007748Y-75730013D01*
X172780013Y-75957748D01*
X172601082Y-76225537D01*
X172477832Y-76523088D01*
X172415000Y-76838967D01*
X172415000Y-77161033D01*
X172477832Y-77476912D01*
X172601082Y-77774463D01*
X172780013Y-78042252D01*
X173007748Y-78269987D01*
X173275537Y-78448918D01*
X173573088Y-78572168D01*
X173888967Y-78635000D01*
X174211033Y-78635000D01*
X174526912Y-78572168D01*
X174730001Y-78488046D01*
X174730000Y-133628382D01*
X174659422Y-134419193D01*
X174458295Y-135154389D01*
X174130152Y-135842355D01*
X173685374Y-136461328D01*
X173138012Y-136991761D01*
X172505362Y-137416883D01*
X171807439Y-137723251D01*
X171060819Y-137902499D01*
X170413970Y-137950000D01*
X124471618Y-137950000D01*
X123680807Y-137879422D01*
X122945611Y-137678295D01*
X122257645Y-137350152D01*
X121638672Y-136905374D01*
X121111020Y-136360881D01*
X121918724Y-136360881D01*
X122278912Y-136850548D01*
X122942882Y-137210849D01*
X123664385Y-137434694D01*
X124415695Y-137513480D01*
X125167938Y-137444178D01*
X125892208Y-137229452D01*
X126560670Y-136877555D01*
X126601088Y-136850548D01*
X126961276Y-136360881D01*
X124440000Y-133839605D01*
X121918724Y-136360881D01*
X121111020Y-136360881D01*
X121108239Y-136358012D01*
X120683117Y-135725362D01*
X120376749Y-135027439D01*
X120197501Y-134280819D01*
X120150127Y-133635695D01*
X120586520Y-133635695D01*
X120655822Y-134387938D01*
X120870548Y-135112208D01*
X121222445Y-135780670D01*
X121249452Y-135821088D01*
X121739119Y-136181276D01*
X124260395Y-133660000D01*
X124619605Y-133660000D01*
X127140881Y-136181276D01*
X127630548Y-135821088D01*
X127990849Y-135157118D01*
X128214694Y-134435615D01*
X128293480Y-133684305D01*
X128224178Y-132932062D01*
X128009452Y-132207792D01*
X127721080Y-131660000D01*
X128801928Y-131660000D01*
X128801928Y-134660000D01*
X128814188Y-134784482D01*
X128850498Y-134904180D01*
X128909463Y-135014494D01*
X128988815Y-135111185D01*
X129085506Y-135190537D01*
X129195820Y-135249502D01*
X129315518Y-135285812D01*
X129440000Y-135298072D01*
X133801928Y-135298072D01*
X133801928Y-135660000D01*
X133814188Y-135784482D01*
X133850498Y-135904180D01*
X133909463Y-136014494D01*
X133988815Y-136111185D01*
X134085506Y-136190537D01*
X134195820Y-136249502D01*
X134315518Y-136285812D01*
X134440000Y-136298072D01*
X135801928Y-136298072D01*
X135801928Y-137160000D01*
X135814188Y-137284482D01*
X135850498Y-137404180D01*
X135909463Y-137514494D01*
X135988815Y-137611185D01*
X136085506Y-137690537D01*
X136195820Y-137749502D01*
X136315518Y-137785812D01*
X136440000Y-137798072D01*
X140440000Y-137798072D01*
X140564482Y-137785812D01*
X140684180Y-137749502D01*
X140794494Y-137690537D01*
X140891185Y-137611185D01*
X140970537Y-137514494D01*
X141029502Y-137404180D01*
X141065812Y-137284482D01*
X141078072Y-137160000D01*
X141078072Y-136360881D01*
X167918724Y-136360881D01*
X168278912Y-136850548D01*
X168942882Y-137210849D01*
X169664385Y-137434694D01*
X170415695Y-137513480D01*
X171167938Y-137444178D01*
X171892208Y-137229452D01*
X172560670Y-136877555D01*
X172601088Y-136850548D01*
X172961276Y-136360881D01*
X170440000Y-133839605D01*
X167918724Y-136360881D01*
X141078072Y-136360881D01*
X141078072Y-136298072D01*
X142440000Y-136298072D01*
X142564482Y-136285812D01*
X142684180Y-136249502D01*
X142794494Y-136190537D01*
X142891185Y-136111185D01*
X142970537Y-136014494D01*
X143029502Y-135904180D01*
X143065812Y-135784482D01*
X143078072Y-135660000D01*
X143078072Y-135298072D01*
X147440000Y-135298072D01*
X147564482Y-135285812D01*
X147684180Y-135249502D01*
X147794494Y-135190537D01*
X147891185Y-135111185D01*
X147970537Y-135014494D01*
X148029502Y-134904180D01*
X148065812Y-134784482D01*
X148078072Y-134660000D01*
X148078072Y-133635695D01*
X166586520Y-133635695D01*
X166655822Y-134387938D01*
X166870548Y-135112208D01*
X167222445Y-135780670D01*
X167249452Y-135821088D01*
X167739119Y-136181276D01*
X170260395Y-133660000D01*
X170619605Y-133660000D01*
X173140881Y-136181276D01*
X173630548Y-135821088D01*
X173990849Y-135157118D01*
X174214694Y-134435615D01*
X174293480Y-133684305D01*
X174224178Y-132932062D01*
X174009452Y-132207792D01*
X173657555Y-131539330D01*
X173630548Y-131498912D01*
X173140881Y-131138724D01*
X170619605Y-133660000D01*
X170260395Y-133660000D01*
X167739119Y-131138724D01*
X167249452Y-131498912D01*
X166889151Y-132162882D01*
X166665306Y-132884385D01*
X166586520Y-133635695D01*
X148078072Y-133635695D01*
X148078072Y-131660000D01*
X148065812Y-131535518D01*
X148029502Y-131415820D01*
X147970537Y-131305506D01*
X147891185Y-131208815D01*
X147794494Y-131129463D01*
X147684180Y-131070498D01*
X147564482Y-131034188D01*
X147440000Y-131021928D01*
X143078072Y-131021928D01*
X143078072Y-130959119D01*
X167918724Y-130959119D01*
X170440000Y-133480395D01*
X172961276Y-130959119D01*
X172601088Y-130469452D01*
X171937118Y-130109151D01*
X171215615Y-129885306D01*
X170464305Y-129806520D01*
X169712062Y-129875822D01*
X168987792Y-130090548D01*
X168319330Y-130442445D01*
X168278912Y-130469452D01*
X167918724Y-130959119D01*
X143078072Y-130959119D01*
X143078072Y-130660000D01*
X143065812Y-130535518D01*
X143029502Y-130415820D01*
X142970537Y-130305506D01*
X142891185Y-130208815D01*
X142794494Y-130129463D01*
X142684180Y-130070498D01*
X142564482Y-130034188D01*
X142440000Y-130021928D01*
X141078072Y-130021928D01*
X141078072Y-129160000D01*
X141065812Y-129035518D01*
X141029502Y-128915820D01*
X140970537Y-128805506D01*
X140891185Y-128708815D01*
X140794494Y-128629463D01*
X140684180Y-128570498D01*
X140564482Y-128534188D01*
X140440000Y-128521928D01*
X136440000Y-128521928D01*
X136315518Y-128534188D01*
X136195820Y-128570498D01*
X136085506Y-128629463D01*
X135988815Y-128708815D01*
X135909463Y-128805506D01*
X135850498Y-128915820D01*
X135814188Y-129035518D01*
X135801928Y-129160000D01*
X135801928Y-130021928D01*
X134440000Y-130021928D01*
X134315518Y-130034188D01*
X134195820Y-130070498D01*
X134085506Y-130129463D01*
X133988815Y-130208815D01*
X133909463Y-130305506D01*
X133850498Y-130415820D01*
X133814188Y-130535518D01*
X133801928Y-130660000D01*
X133801928Y-131021928D01*
X129440000Y-131021928D01*
X129315518Y-131034188D01*
X129195820Y-131070498D01*
X129085506Y-131129463D01*
X128988815Y-131208815D01*
X128909463Y-131305506D01*
X128850498Y-131415820D01*
X128814188Y-131535518D01*
X128801928Y-131660000D01*
X127721080Y-131660000D01*
X127657555Y-131539330D01*
X127630548Y-131498912D01*
X127140881Y-131138724D01*
X124619605Y-133660000D01*
X124260395Y-133660000D01*
X121739119Y-131138724D01*
X121249452Y-131498912D01*
X120889151Y-132162882D01*
X120665306Y-132884385D01*
X120586520Y-133635695D01*
X120150127Y-133635695D01*
X120150000Y-133633970D01*
X120150000Y-130959119D01*
X121918724Y-130959119D01*
X124440000Y-133480395D01*
X126961276Y-130959119D01*
X126601088Y-130469452D01*
X125937118Y-130109151D01*
X125215615Y-129885306D01*
X124464305Y-129806520D01*
X123712062Y-129875822D01*
X122987792Y-130090548D01*
X122319330Y-130442445D01*
X122278912Y-130469452D01*
X121918724Y-130959119D01*
X120150000Y-130959119D01*
X120150000Y-109044592D01*
X140895263Y-109044592D01*
X140895263Y-109575408D01*
X140998820Y-110096026D01*
X141201955Y-110586437D01*
X141496861Y-111027795D01*
X141872205Y-111403139D01*
X142313563Y-111698045D01*
X142803974Y-111901180D01*
X143324592Y-112004737D01*
X143855408Y-112004737D01*
X144376026Y-111901180D01*
X144866437Y-111698045D01*
X145307795Y-111403139D01*
X145683139Y-111027795D01*
X145978045Y-110586437D01*
X146181180Y-110096026D01*
X146284737Y-109575408D01*
X146284737Y-109044592D01*
X146181180Y-108523974D01*
X146115502Y-108365413D01*
X163984192Y-108365413D01*
X164079956Y-108629814D01*
X164369571Y-108770704D01*
X164681108Y-108852384D01*
X165002595Y-108871718D01*
X165321675Y-108827961D01*
X165626088Y-108722795D01*
X165800044Y-108629814D01*
X165895808Y-108365413D01*
X164940000Y-107409605D01*
X163984192Y-108365413D01*
X146115502Y-108365413D01*
X145978045Y-108033563D01*
X145683139Y-107592205D01*
X145383529Y-107292595D01*
X163298282Y-107292595D01*
X163342039Y-107611675D01*
X163447205Y-107916088D01*
X163540186Y-108090044D01*
X163804587Y-108185808D01*
X164760395Y-107230000D01*
X165119605Y-107230000D01*
X166075413Y-108185808D01*
X166339814Y-108090044D01*
X166480704Y-107800429D01*
X166562384Y-107488892D01*
X166581718Y-107167405D01*
X166569591Y-107078967D01*
X168385000Y-107078967D01*
X168385000Y-107401033D01*
X168447832Y-107716912D01*
X168571082Y-108014463D01*
X168750013Y-108282252D01*
X168977748Y-108509987D01*
X169245537Y-108688918D01*
X169543088Y-108812168D01*
X169858967Y-108875000D01*
X170181033Y-108875000D01*
X170496912Y-108812168D01*
X170794463Y-108688918D01*
X171062252Y-108509987D01*
X171289987Y-108282252D01*
X171468918Y-108014463D01*
X171592168Y-107716912D01*
X171655000Y-107401033D01*
X171655000Y-107078967D01*
X171592168Y-106763088D01*
X171468918Y-106465537D01*
X171289987Y-106197748D01*
X171062252Y-105970013D01*
X170794463Y-105791082D01*
X170496912Y-105667832D01*
X170181033Y-105605000D01*
X169858967Y-105605000D01*
X169543088Y-105667832D01*
X169245537Y-105791082D01*
X168977748Y-105970013D01*
X168750013Y-106197748D01*
X168571082Y-106465537D01*
X168447832Y-106763088D01*
X168385000Y-107078967D01*
X166569591Y-107078967D01*
X166537961Y-106848325D01*
X166432795Y-106543912D01*
X166339814Y-106369956D01*
X166075413Y-106274192D01*
X165119605Y-107230000D01*
X164760395Y-107230000D01*
X163804587Y-106274192D01*
X163540186Y-106369956D01*
X163399296Y-106659571D01*
X163317616Y-106971108D01*
X163298282Y-107292595D01*
X145383529Y-107292595D01*
X145307795Y-107216861D01*
X144866437Y-106921955D01*
X144376026Y-106718820D01*
X143855408Y-106615263D01*
X143324592Y-106615263D01*
X142803974Y-106718820D01*
X142313563Y-106921955D01*
X141872205Y-107216861D01*
X141496861Y-107592205D01*
X141201955Y-108033563D01*
X140998820Y-108523974D01*
X140895263Y-109044592D01*
X120150000Y-109044592D01*
X120150000Y-106094587D01*
X163984192Y-106094587D01*
X164940000Y-107050395D01*
X165895808Y-106094587D01*
X165800044Y-105830186D01*
X165510429Y-105689296D01*
X165198892Y-105607616D01*
X164877405Y-105588282D01*
X164558325Y-105632039D01*
X164253912Y-105737205D01*
X164079956Y-105830186D01*
X163984192Y-106094587D01*
X120150000Y-106094587D01*
X120150000Y-101459268D01*
X168185000Y-101459268D01*
X168185000Y-101820732D01*
X168255518Y-102175250D01*
X168393844Y-102509199D01*
X168594662Y-102809744D01*
X168850256Y-103065338D01*
X169150801Y-103266156D01*
X169484750Y-103404482D01*
X169839268Y-103475000D01*
X170200732Y-103475000D01*
X170555250Y-103404482D01*
X170889199Y-103266156D01*
X171189744Y-103065338D01*
X171445338Y-102809744D01*
X171646156Y-102509199D01*
X171784482Y-102175250D01*
X171855000Y-101820732D01*
X171855000Y-101459268D01*
X171784482Y-101104750D01*
X171646156Y-100770801D01*
X171445338Y-100470256D01*
X171189744Y-100214662D01*
X170889199Y-100013844D01*
X170555250Y-99875518D01*
X170200732Y-99805000D01*
X169839268Y-99805000D01*
X169484750Y-99875518D01*
X169150801Y-100013844D01*
X168850256Y-100214662D01*
X168594662Y-100470256D01*
X168393844Y-100770801D01*
X168255518Y-101104750D01*
X168185000Y-101459268D01*
X120150000Y-101459268D01*
X120150000Y-87796890D01*
X122998524Y-87796890D01*
X123043175Y-87944099D01*
X123168359Y-88206920D01*
X123342412Y-88440269D01*
X123558645Y-88635178D01*
X123808748Y-88784157D01*
X124083109Y-88881481D01*
X124313000Y-88760814D01*
X124313000Y-87567000D01*
X124567000Y-87567000D01*
X124567000Y-88760814D01*
X124796891Y-88881481D01*
X125071252Y-88784157D01*
X125321355Y-88635178D01*
X125537588Y-88440269D01*
X125711641Y-88206920D01*
X125836825Y-87944099D01*
X125881476Y-87796890D01*
X125760155Y-87567000D01*
X124567000Y-87567000D01*
X124313000Y-87567000D01*
X123119845Y-87567000D01*
X122998524Y-87796890D01*
X120150000Y-87796890D01*
X120150000Y-85256890D01*
X122998524Y-85256890D01*
X123043175Y-85404099D01*
X123168359Y-85666920D01*
X123342412Y-85900269D01*
X123558645Y-86095178D01*
X123684255Y-86170000D01*
X123558645Y-86244822D01*
X123342412Y-86439731D01*
X123168359Y-86673080D01*
X123043175Y-86935901D01*
X122998524Y-87083110D01*
X123119845Y-87313000D01*
X124313000Y-87313000D01*
X124313000Y-85027000D01*
X124567000Y-85027000D01*
X124567000Y-87313000D01*
X125760155Y-87313000D01*
X125881476Y-87083110D01*
X125836825Y-86935901D01*
X125711641Y-86673080D01*
X125537588Y-86439731D01*
X125321355Y-86244822D01*
X125195745Y-86170000D01*
X125321355Y-86095178D01*
X125537588Y-85900269D01*
X125711641Y-85666920D01*
X125836825Y-85404099D01*
X125881476Y-85256890D01*
X125851454Y-85200000D01*
X168181928Y-85200000D01*
X168181928Y-87600000D01*
X168194188Y-87724482D01*
X168230498Y-87844180D01*
X168289463Y-87954494D01*
X168368815Y-88051185D01*
X168465506Y-88130537D01*
X168575820Y-88189502D01*
X168695518Y-88225812D01*
X168820000Y-88238072D01*
X171220000Y-88238072D01*
X171344482Y-88225812D01*
X171464180Y-88189502D01*
X171574494Y-88130537D01*
X171671185Y-88051185D01*
X171750537Y-87954494D01*
X171809502Y-87844180D01*
X171845812Y-87724482D01*
X171858072Y-87600000D01*
X171858072Y-85200000D01*
X171845812Y-85075518D01*
X171809502Y-84955820D01*
X171750537Y-84845506D01*
X171671185Y-84748815D01*
X171574494Y-84669463D01*
X171464180Y-84610498D01*
X171344482Y-84574188D01*
X171220000Y-84561928D01*
X168820000Y-84561928D01*
X168695518Y-84574188D01*
X168575820Y-84610498D01*
X168465506Y-84669463D01*
X168368815Y-84748815D01*
X168289463Y-84845506D01*
X168230498Y-84955820D01*
X168194188Y-85075518D01*
X168181928Y-85200000D01*
X125851454Y-85200000D01*
X125760155Y-85027000D01*
X124567000Y-85027000D01*
X124313000Y-85027000D01*
X123119845Y-85027000D01*
X122998524Y-85256890D01*
X120150000Y-85256890D01*
X120150000Y-82716890D01*
X122998524Y-82716890D01*
X123043175Y-82864099D01*
X123168359Y-83126920D01*
X123342412Y-83360269D01*
X123558645Y-83555178D01*
X123684255Y-83630000D01*
X123558645Y-83704822D01*
X123342412Y-83899731D01*
X123168359Y-84133080D01*
X123043175Y-84395901D01*
X122998524Y-84543110D01*
X123119845Y-84773000D01*
X124313000Y-84773000D01*
X124313000Y-82487000D01*
X124567000Y-82487000D01*
X124567000Y-84773000D01*
X125760155Y-84773000D01*
X125881476Y-84543110D01*
X125836825Y-84395901D01*
X125737812Y-84188024D01*
X135751581Y-84188024D01*
X135832543Y-84439907D01*
X136101274Y-84568555D01*
X136389938Y-84642304D01*
X136687444Y-84658321D01*
X136982358Y-84615989D01*
X137263346Y-84516936D01*
X137407457Y-84439907D01*
X137488419Y-84188024D01*
X136620000Y-83319605D01*
X135751581Y-84188024D01*
X125737812Y-84188024D01*
X125711641Y-84133080D01*
X125537588Y-83899731D01*
X125321355Y-83704822D01*
X125195745Y-83630000D01*
X125321355Y-83555178D01*
X125537588Y-83360269D01*
X125651578Y-83207444D01*
X135101679Y-83207444D01*
X135144011Y-83502358D01*
X135243064Y-83783346D01*
X135320093Y-83927457D01*
X135571976Y-84008419D01*
X136440395Y-83140000D01*
X136799605Y-83140000D01*
X137668024Y-84008419D01*
X137919907Y-83927457D01*
X138048555Y-83658726D01*
X138122304Y-83370062D01*
X138138321Y-83072556D01*
X138126620Y-82991032D01*
X148697500Y-82991032D01*
X148697500Y-83288968D01*
X148755625Y-83581180D01*
X148869640Y-83856437D01*
X149035165Y-84104162D01*
X149245838Y-84314835D01*
X149493563Y-84480360D01*
X149768820Y-84594375D01*
X150061032Y-84652500D01*
X150358968Y-84652500D01*
X150651180Y-84594375D01*
X150926437Y-84480360D01*
X151174162Y-84314835D01*
X151213997Y-84275000D01*
X157604249Y-84275000D01*
X157660000Y-84280491D01*
X157715751Y-84275000D01*
X157715752Y-84275000D01*
X157882499Y-84258577D01*
X158096447Y-84193676D01*
X158293623Y-84088284D01*
X158466449Y-83946449D01*
X158501996Y-83903135D01*
X165566165Y-76838967D01*
X166415000Y-76838967D01*
X166415000Y-77161033D01*
X166477832Y-77476912D01*
X166601082Y-77774463D01*
X166780013Y-78042252D01*
X167007748Y-78269987D01*
X167275537Y-78448918D01*
X167573088Y-78572168D01*
X167888967Y-78635000D01*
X168211033Y-78635000D01*
X168526912Y-78572168D01*
X168824463Y-78448918D01*
X169092252Y-78269987D01*
X169319987Y-78042252D01*
X169498918Y-77774463D01*
X169622168Y-77476912D01*
X169685000Y-77161033D01*
X169685000Y-76838967D01*
X169622168Y-76523088D01*
X169602140Y-76474736D01*
X169653740Y-76485000D01*
X169946260Y-76485000D01*
X170233158Y-76427932D01*
X170503411Y-76315990D01*
X170746632Y-76153475D01*
X170953475Y-75946632D01*
X171115990Y-75703411D01*
X171227932Y-75433158D01*
X171285000Y-75146260D01*
X171285000Y-74853740D01*
X171227932Y-74566842D01*
X171115990Y-74296589D01*
X170953475Y-74053368D01*
X170746632Y-73846525D01*
X170503411Y-73684010D01*
X170233158Y-73572068D01*
X169946260Y-73515000D01*
X169653740Y-73515000D01*
X169366842Y-73572068D01*
X169096589Y-73684010D01*
X168853368Y-73846525D01*
X168646525Y-74053368D01*
X168484010Y-74296589D01*
X168372068Y-74566842D01*
X168315000Y-74853740D01*
X168315000Y-75146260D01*
X168364586Y-75395543D01*
X168211033Y-75365000D01*
X167888967Y-75365000D01*
X167573088Y-75427832D01*
X167275537Y-75551082D01*
X167007748Y-75730013D01*
X166780013Y-75957748D01*
X166601082Y-76225537D01*
X166477832Y-76523088D01*
X166415000Y-76838967D01*
X165566165Y-76838967D01*
X169920133Y-72485000D01*
X169946260Y-72485000D01*
X170233158Y-72427932D01*
X170503411Y-72315990D01*
X170746632Y-72153475D01*
X170953475Y-71946632D01*
X171115990Y-71703411D01*
X171227932Y-71433158D01*
X171285000Y-71146260D01*
X171285000Y-70853740D01*
X171227932Y-70566842D01*
X171115990Y-70296589D01*
X170953475Y-70053368D01*
X170746632Y-69846525D01*
X170503411Y-69684010D01*
X170233158Y-69572068D01*
X169946260Y-69515000D01*
X169653740Y-69515000D01*
X169366842Y-69572068D01*
X169096589Y-69684010D01*
X168853368Y-69846525D01*
X168646525Y-70053368D01*
X168484010Y-70296589D01*
X168372068Y-70566842D01*
X168315000Y-70853740D01*
X168315000Y-70879867D01*
X164048192Y-75146675D01*
X164082953Y-75062756D01*
X164165000Y-74650279D01*
X164165000Y-74229721D01*
X164082953Y-73817244D01*
X163922012Y-73428698D01*
X163688363Y-73079017D01*
X163390983Y-72781637D01*
X163041302Y-72547988D01*
X162652756Y-72387047D01*
X162240279Y-72305000D01*
X161819721Y-72305000D01*
X161407244Y-72387047D01*
X161018698Y-72547988D01*
X160669017Y-72781637D01*
X160371637Y-73079017D01*
X160137988Y-73428698D01*
X159977047Y-73817244D01*
X159895000Y-74229721D01*
X159895000Y-74650279D01*
X159977047Y-75062756D01*
X160137988Y-75451302D01*
X160371637Y-75800983D01*
X160669017Y-76098363D01*
X161018698Y-76332012D01*
X161407244Y-76492953D01*
X161819721Y-76575000D01*
X162240279Y-76575000D01*
X162652756Y-76492953D01*
X162736676Y-76458192D01*
X157189869Y-82005000D01*
X151213997Y-82005000D01*
X151174162Y-81965165D01*
X150926437Y-81799640D01*
X150651180Y-81685625D01*
X150358968Y-81627500D01*
X150061032Y-81627500D01*
X149768820Y-81685625D01*
X149493563Y-81799640D01*
X149245838Y-81965165D01*
X149035165Y-82175838D01*
X148869640Y-82423563D01*
X148755625Y-82698820D01*
X148697500Y-82991032D01*
X138126620Y-82991032D01*
X138095989Y-82777642D01*
X137996936Y-82496654D01*
X137919907Y-82352543D01*
X137668024Y-82271581D01*
X136799605Y-83140000D01*
X136440395Y-83140000D01*
X135571976Y-82271581D01*
X135320093Y-82352543D01*
X135191445Y-82621274D01*
X135117696Y-82909938D01*
X135101679Y-83207444D01*
X125651578Y-83207444D01*
X125711641Y-83126920D01*
X125836825Y-82864099D01*
X125881476Y-82716890D01*
X125760155Y-82487000D01*
X124567000Y-82487000D01*
X124313000Y-82487000D01*
X123119845Y-82487000D01*
X122998524Y-82716890D01*
X120150000Y-82716890D01*
X120150000Y-80176890D01*
X122998524Y-80176890D01*
X123043175Y-80324099D01*
X123168359Y-80586920D01*
X123342412Y-80820269D01*
X123558645Y-81015178D01*
X123684255Y-81090000D01*
X123558645Y-81164822D01*
X123342412Y-81359731D01*
X123168359Y-81593080D01*
X123043175Y-81855901D01*
X122998524Y-82003110D01*
X123119845Y-82233000D01*
X124313000Y-82233000D01*
X124313000Y-79947000D01*
X124567000Y-79947000D01*
X124567000Y-82233000D01*
X125760155Y-82233000D01*
X125834578Y-82091976D01*
X135751581Y-82091976D01*
X136620000Y-82960395D01*
X137488419Y-82091976D01*
X137407457Y-81840093D01*
X137138726Y-81711445D01*
X136850062Y-81637696D01*
X136552556Y-81621679D01*
X136257642Y-81664011D01*
X135976654Y-81763064D01*
X135832543Y-81840093D01*
X135751581Y-82091976D01*
X125834578Y-82091976D01*
X125881476Y-82003110D01*
X125836825Y-81855901D01*
X125711641Y-81593080D01*
X125537588Y-81359731D01*
X125321355Y-81164822D01*
X125195745Y-81090000D01*
X125321355Y-81015178D01*
X125537588Y-80820269D01*
X125711641Y-80586920D01*
X125836825Y-80324099D01*
X125881476Y-80176890D01*
X125760155Y-79947000D01*
X124567000Y-79947000D01*
X124313000Y-79947000D01*
X123119845Y-79947000D01*
X122998524Y-80176890D01*
X120150000Y-80176890D01*
X120150000Y-77636890D01*
X122998524Y-77636890D01*
X123043175Y-77784099D01*
X123168359Y-78046920D01*
X123342412Y-78280269D01*
X123558645Y-78475178D01*
X123684255Y-78550000D01*
X123558645Y-78624822D01*
X123342412Y-78819731D01*
X123168359Y-79053080D01*
X123043175Y-79315901D01*
X122998524Y-79463110D01*
X123119845Y-79693000D01*
X124313000Y-79693000D01*
X124313000Y-77407000D01*
X124567000Y-77407000D01*
X124567000Y-79693000D01*
X125760155Y-79693000D01*
X125881476Y-79463110D01*
X125836825Y-79315901D01*
X125711641Y-79053080D01*
X125537588Y-78819731D01*
X125321355Y-78624822D01*
X125195745Y-78550000D01*
X125321355Y-78475178D01*
X125537588Y-78280269D01*
X125711641Y-78046920D01*
X125836825Y-77784099D01*
X125881476Y-77636890D01*
X125760155Y-77407000D01*
X124567000Y-77407000D01*
X124313000Y-77407000D01*
X123119845Y-77407000D01*
X122998524Y-77636890D01*
X120150000Y-77636890D01*
X120150000Y-74593740D01*
X122955000Y-74593740D01*
X122955000Y-74886260D01*
X123012068Y-75173158D01*
X123124010Y-75443411D01*
X123286525Y-75686632D01*
X123493368Y-75893475D01*
X123675534Y-76015195D01*
X123558645Y-76084822D01*
X123342412Y-76279731D01*
X123168359Y-76513080D01*
X123043175Y-76775901D01*
X122998524Y-76923110D01*
X123119845Y-77153000D01*
X124313000Y-77153000D01*
X124313000Y-77133000D01*
X124567000Y-77133000D01*
X124567000Y-77153000D01*
X125760155Y-77153000D01*
X125881476Y-76923110D01*
X125836825Y-76775901D01*
X125711641Y-76513080D01*
X125537588Y-76279731D01*
X125321355Y-76084822D01*
X125204466Y-76015195D01*
X125386632Y-75893475D01*
X125593475Y-75686632D01*
X125755990Y-75443411D01*
X125867932Y-75173158D01*
X125925000Y-74886260D01*
X125925000Y-74593740D01*
X125867932Y-74306842D01*
X125835988Y-74229721D01*
X128835000Y-74229721D01*
X128835000Y-74650279D01*
X128917047Y-75062756D01*
X129077988Y-75451302D01*
X129311637Y-75800983D01*
X129609017Y-76098363D01*
X129958698Y-76332012D01*
X130347244Y-76492953D01*
X130759721Y-76575000D01*
X131180279Y-76575000D01*
X131592756Y-76492953D01*
X131981302Y-76332012D01*
X132330983Y-76098363D01*
X132628363Y-75800983D01*
X132862012Y-75451302D01*
X133022953Y-75062756D01*
X133105000Y-74650279D01*
X133105000Y-74229721D01*
X133022953Y-73817244D01*
X132862012Y-73428698D01*
X132628363Y-73079017D01*
X132330983Y-72781637D01*
X131981302Y-72547988D01*
X131592756Y-72387047D01*
X131180279Y-72305000D01*
X130759721Y-72305000D01*
X130347244Y-72387047D01*
X129958698Y-72547988D01*
X129609017Y-72781637D01*
X129311637Y-73079017D01*
X129077988Y-73428698D01*
X128917047Y-73817244D01*
X128835000Y-74229721D01*
X125835988Y-74229721D01*
X125755990Y-74036589D01*
X125593475Y-73793368D01*
X125386632Y-73586525D01*
X125204466Y-73464805D01*
X125321355Y-73395178D01*
X125537588Y-73200269D01*
X125711641Y-72966920D01*
X125836825Y-72704099D01*
X125881476Y-72556890D01*
X125760155Y-72327000D01*
X124567000Y-72327000D01*
X124567000Y-72347000D01*
X124313000Y-72347000D01*
X124313000Y-72327000D01*
X123119845Y-72327000D01*
X122998524Y-72556890D01*
X123043175Y-72704099D01*
X123168359Y-72966920D01*
X123342412Y-73200269D01*
X123558645Y-73395178D01*
X123675534Y-73464805D01*
X123493368Y-73586525D01*
X123286525Y-73793368D01*
X123124010Y-74036589D01*
X123012068Y-74306842D01*
X122955000Y-74593740D01*
X120150000Y-74593740D01*
X120150000Y-68810000D01*
X122951928Y-68810000D01*
X122951928Y-70510000D01*
X122964188Y-70634482D01*
X123000498Y-70754180D01*
X123059463Y-70864494D01*
X123138815Y-70961185D01*
X123235506Y-71040537D01*
X123345820Y-71099502D01*
X123426466Y-71123966D01*
X123342412Y-71199731D01*
X123168359Y-71433080D01*
X123043175Y-71695901D01*
X122998524Y-71843110D01*
X123119845Y-72073000D01*
X124313000Y-72073000D01*
X124313000Y-72053000D01*
X124567000Y-72053000D01*
X124567000Y-72073000D01*
X125760155Y-72073000D01*
X125881476Y-71843110D01*
X125836825Y-71695901D01*
X125711641Y-71433080D01*
X125537588Y-71199731D01*
X125453534Y-71123966D01*
X125534180Y-71099502D01*
X125644494Y-71040537D01*
X125741185Y-70961185D01*
X125820537Y-70864494D01*
X125879502Y-70754180D01*
X125915812Y-70634482D01*
X125928072Y-70510000D01*
X125928072Y-69051653D01*
X129657952Y-69051653D01*
X129813962Y-69367214D01*
X130188745Y-69558020D01*
X130593551Y-69672044D01*
X131012824Y-69704902D01*
X131430451Y-69655334D01*
X131830383Y-69525243D01*
X132126038Y-69367214D01*
X132282048Y-69051653D01*
X160717952Y-69051653D01*
X160873962Y-69367214D01*
X161248745Y-69558020D01*
X161653551Y-69672044D01*
X162072824Y-69704902D01*
X162490451Y-69655334D01*
X162890383Y-69525243D01*
X163186038Y-69367214D01*
X163342048Y-69051653D01*
X162030000Y-67739605D01*
X160717952Y-69051653D01*
X132282048Y-69051653D01*
X130970000Y-67739605D01*
X129657952Y-69051653D01*
X125928072Y-69051653D01*
X125928072Y-68810000D01*
X125915812Y-68685518D01*
X125879502Y-68565820D01*
X125820537Y-68455506D01*
X125741185Y-68358815D01*
X125644494Y-68279463D01*
X125534180Y-68220498D01*
X125414482Y-68184188D01*
X125290000Y-68171928D01*
X123590000Y-68171928D01*
X123465518Y-68184188D01*
X123345820Y-68220498D01*
X123235506Y-68279463D01*
X123138815Y-68358815D01*
X123059463Y-68455506D01*
X123000498Y-68565820D01*
X122964188Y-68685518D01*
X122951928Y-68810000D01*
X120150000Y-68810000D01*
X120150000Y-67602824D01*
X128825098Y-67602824D01*
X128874666Y-68020451D01*
X129004757Y-68420383D01*
X129162786Y-68716038D01*
X129478347Y-68872048D01*
X130790395Y-67560000D01*
X131149605Y-67560000D01*
X132461653Y-68872048D01*
X132777214Y-68716038D01*
X132968020Y-68341255D01*
X133082044Y-67936449D01*
X133108189Y-67602824D01*
X159885098Y-67602824D01*
X159934666Y-68020451D01*
X160064757Y-68420383D01*
X160222786Y-68716038D01*
X160538347Y-68872048D01*
X161850395Y-67560000D01*
X162209605Y-67560000D01*
X163521653Y-68872048D01*
X163837214Y-68716038D01*
X164028020Y-68341255D01*
X164142044Y-67936449D01*
X164174902Y-67517176D01*
X164125334Y-67099549D01*
X163995243Y-66699617D01*
X163837214Y-66403962D01*
X163521653Y-66247952D01*
X162209605Y-67560000D01*
X161850395Y-67560000D01*
X160538347Y-66247952D01*
X160222786Y-66403962D01*
X160031980Y-66778745D01*
X159917956Y-67183551D01*
X159885098Y-67602824D01*
X133108189Y-67602824D01*
X133114902Y-67517176D01*
X133065334Y-67099549D01*
X132935243Y-66699617D01*
X132777214Y-66403962D01*
X132461653Y-66247952D01*
X131149605Y-67560000D01*
X130790395Y-67560000D01*
X129478347Y-66247952D01*
X129162786Y-66403962D01*
X128971980Y-66778745D01*
X128857956Y-67183551D01*
X128825098Y-67602824D01*
X120150000Y-67602824D01*
X120150000Y-66068347D01*
X129657952Y-66068347D01*
X130970000Y-67380395D01*
X132282048Y-66068347D01*
X160717952Y-66068347D01*
X162030000Y-67380395D01*
X163342048Y-66068347D01*
X163186038Y-65752786D01*
X162811255Y-65561980D01*
X162406449Y-65447956D01*
X161987176Y-65415098D01*
X161569549Y-65464666D01*
X161169617Y-65594757D01*
X160873962Y-65752786D01*
X160717952Y-66068347D01*
X132282048Y-66068347D01*
X132126038Y-65752786D01*
X131751255Y-65561980D01*
X131346449Y-65447956D01*
X130927176Y-65415098D01*
X130509549Y-65464666D01*
X130109617Y-65594757D01*
X129813962Y-65752786D01*
X129657952Y-66068347D01*
X120150000Y-66068347D01*
X120150000Y-64838967D01*
X166415000Y-64838967D01*
X166415000Y-65161033D01*
X166477832Y-65476912D01*
X166601082Y-65774463D01*
X166780013Y-66042252D01*
X167007748Y-66269987D01*
X167275537Y-66448918D01*
X167573088Y-66572168D01*
X167888967Y-66635000D01*
X168211033Y-66635000D01*
X168364586Y-66604457D01*
X168315000Y-66853740D01*
X168315000Y-67146260D01*
X168372068Y-67433158D01*
X168484010Y-67703411D01*
X168646525Y-67946632D01*
X168853368Y-68153475D01*
X169096589Y-68315990D01*
X169366842Y-68427932D01*
X169653740Y-68485000D01*
X169946260Y-68485000D01*
X170233158Y-68427932D01*
X170503411Y-68315990D01*
X170746632Y-68153475D01*
X170953475Y-67946632D01*
X171115990Y-67703411D01*
X171227932Y-67433158D01*
X171285000Y-67146260D01*
X171285000Y-66853740D01*
X171227932Y-66566842D01*
X171115990Y-66296589D01*
X170953475Y-66053368D01*
X170746632Y-65846525D01*
X170503411Y-65684010D01*
X170233158Y-65572068D01*
X169946260Y-65515000D01*
X169653740Y-65515000D01*
X169602140Y-65525264D01*
X169622168Y-65476912D01*
X169685000Y-65161033D01*
X169685000Y-64838967D01*
X169622168Y-64523088D01*
X169498918Y-64225537D01*
X169319987Y-63957748D01*
X169092252Y-63730013D01*
X168824463Y-63551082D01*
X168526912Y-63427832D01*
X168211033Y-63365000D01*
X167888967Y-63365000D01*
X167573088Y-63427832D01*
X167275537Y-63551082D01*
X167007748Y-63730013D01*
X166780013Y-63957748D01*
X166601082Y-64225537D01*
X166477832Y-64523088D01*
X166415000Y-64838967D01*
X120150000Y-64838967D01*
X120150000Y-62360881D01*
X121918724Y-62360881D01*
X122278912Y-62850548D01*
X122942882Y-63210849D01*
X123664385Y-63434694D01*
X124415695Y-63513480D01*
X125167938Y-63444178D01*
X125892208Y-63229452D01*
X126560670Y-62877555D01*
X126601088Y-62850548D01*
X126961276Y-62360881D01*
X167918724Y-62360881D01*
X168278912Y-62850548D01*
X168942882Y-63210849D01*
X169664385Y-63434694D01*
X170415695Y-63513480D01*
X171167938Y-63444178D01*
X171892208Y-63229452D01*
X172560670Y-62877555D01*
X172601088Y-62850548D01*
X172961276Y-62360881D01*
X170440000Y-59839605D01*
X167918724Y-62360881D01*
X126961276Y-62360881D01*
X124440000Y-59839605D01*
X121918724Y-62360881D01*
X120150000Y-62360881D01*
X120150000Y-59691618D01*
X120154991Y-59635695D01*
X120586520Y-59635695D01*
X120655822Y-60387938D01*
X120870548Y-61112208D01*
X121222445Y-61780670D01*
X121249452Y-61821088D01*
X121739119Y-62181276D01*
X124260395Y-59660000D01*
X124619605Y-59660000D01*
X127140881Y-62181276D01*
X127630548Y-61821088D01*
X127990849Y-61157118D01*
X128214694Y-60435615D01*
X128293480Y-59684305D01*
X128224178Y-58932062D01*
X128187990Y-58810000D01*
X137451928Y-58810000D01*
X137451928Y-60510000D01*
X137464188Y-60634482D01*
X137500498Y-60754180D01*
X137559463Y-60864494D01*
X137638815Y-60961185D01*
X137735506Y-61040537D01*
X137845820Y-61099502D01*
X137965518Y-61135812D01*
X138090000Y-61148072D01*
X139790000Y-61148072D01*
X139914482Y-61135812D01*
X140034180Y-61099502D01*
X140144494Y-61040537D01*
X140241185Y-60961185D01*
X140320537Y-60864494D01*
X140379502Y-60754180D01*
X140401513Y-60681620D01*
X140533368Y-60813475D01*
X140776589Y-60975990D01*
X141046842Y-61087932D01*
X141333740Y-61145000D01*
X141626260Y-61145000D01*
X141913158Y-61087932D01*
X142183411Y-60975990D01*
X142426632Y-60813475D01*
X142633475Y-60606632D01*
X142750000Y-60432240D01*
X142866525Y-60606632D01*
X143073368Y-60813475D01*
X143316589Y-60975990D01*
X143586842Y-61087932D01*
X143873740Y-61145000D01*
X144166260Y-61145000D01*
X144453158Y-61087932D01*
X144723411Y-60975990D01*
X144966632Y-60813475D01*
X145173475Y-60606632D01*
X145290000Y-60432240D01*
X145406525Y-60606632D01*
X145613368Y-60813475D01*
X145856589Y-60975990D01*
X146126842Y-61087932D01*
X146413740Y-61145000D01*
X146706260Y-61145000D01*
X146993158Y-61087932D01*
X147263411Y-60975990D01*
X147506632Y-60813475D01*
X147713475Y-60606632D01*
X147830000Y-60432240D01*
X147946525Y-60606632D01*
X148153368Y-60813475D01*
X148396589Y-60975990D01*
X148666842Y-61087932D01*
X148953740Y-61145000D01*
X149246260Y-61145000D01*
X149533158Y-61087932D01*
X149803411Y-60975990D01*
X150046632Y-60813475D01*
X150253475Y-60606632D01*
X150370000Y-60432240D01*
X150486525Y-60606632D01*
X150693368Y-60813475D01*
X150936589Y-60975990D01*
X151206842Y-61087932D01*
X151493740Y-61145000D01*
X151786260Y-61145000D01*
X152073158Y-61087932D01*
X152343411Y-60975990D01*
X152586632Y-60813475D01*
X152793475Y-60606632D01*
X152910000Y-60432240D01*
X153026525Y-60606632D01*
X153233368Y-60813475D01*
X153476589Y-60975990D01*
X153746842Y-61087932D01*
X154033740Y-61145000D01*
X154326260Y-61145000D01*
X154613158Y-61087932D01*
X154883411Y-60975990D01*
X155126632Y-60813475D01*
X155333475Y-60606632D01*
X155450000Y-60432240D01*
X155566525Y-60606632D01*
X155773368Y-60813475D01*
X156016589Y-60975990D01*
X156286842Y-61087932D01*
X156573740Y-61145000D01*
X156866260Y-61145000D01*
X157153158Y-61087932D01*
X157423411Y-60975990D01*
X157666632Y-60813475D01*
X157873475Y-60606632D01*
X158035990Y-60363411D01*
X158147932Y-60093158D01*
X158205000Y-59806260D01*
X158205000Y-59635695D01*
X166586520Y-59635695D01*
X166655822Y-60387938D01*
X166870548Y-61112208D01*
X167222445Y-61780670D01*
X167249452Y-61821088D01*
X167739119Y-62181276D01*
X170260395Y-59660000D01*
X170619605Y-59660000D01*
X173140881Y-62181276D01*
X173630548Y-61821088D01*
X173990849Y-61157118D01*
X174214694Y-60435615D01*
X174293480Y-59684305D01*
X174224178Y-58932062D01*
X174009452Y-58207792D01*
X173657555Y-57539330D01*
X173630548Y-57498912D01*
X173140881Y-57138724D01*
X170619605Y-59660000D01*
X170260395Y-59660000D01*
X167739119Y-57138724D01*
X167249452Y-57498912D01*
X166889151Y-58162882D01*
X166665306Y-58884385D01*
X166586520Y-59635695D01*
X158205000Y-59635695D01*
X158205000Y-59513740D01*
X158147932Y-59226842D01*
X158035990Y-58956589D01*
X157873475Y-58713368D01*
X157666632Y-58506525D01*
X157423411Y-58344010D01*
X157153158Y-58232068D01*
X156866260Y-58175000D01*
X156573740Y-58175000D01*
X156286842Y-58232068D01*
X156016589Y-58344010D01*
X155773368Y-58506525D01*
X155566525Y-58713368D01*
X155450000Y-58887760D01*
X155333475Y-58713368D01*
X155126632Y-58506525D01*
X154883411Y-58344010D01*
X154613158Y-58232068D01*
X154326260Y-58175000D01*
X154033740Y-58175000D01*
X153746842Y-58232068D01*
X153476589Y-58344010D01*
X153233368Y-58506525D01*
X153026525Y-58713368D01*
X152910000Y-58887760D01*
X152793475Y-58713368D01*
X152586632Y-58506525D01*
X152343411Y-58344010D01*
X152073158Y-58232068D01*
X151786260Y-58175000D01*
X151493740Y-58175000D01*
X151206842Y-58232068D01*
X150936589Y-58344010D01*
X150693368Y-58506525D01*
X150486525Y-58713368D01*
X150370000Y-58887760D01*
X150253475Y-58713368D01*
X150046632Y-58506525D01*
X149803411Y-58344010D01*
X149533158Y-58232068D01*
X149246260Y-58175000D01*
X148953740Y-58175000D01*
X148666842Y-58232068D01*
X148396589Y-58344010D01*
X148153368Y-58506525D01*
X147946525Y-58713368D01*
X147830000Y-58887760D01*
X147713475Y-58713368D01*
X147506632Y-58506525D01*
X147263411Y-58344010D01*
X146993158Y-58232068D01*
X146706260Y-58175000D01*
X146413740Y-58175000D01*
X146126842Y-58232068D01*
X145856589Y-58344010D01*
X145613368Y-58506525D01*
X145406525Y-58713368D01*
X145290000Y-58887760D01*
X145173475Y-58713368D01*
X144966632Y-58506525D01*
X144723411Y-58344010D01*
X144453158Y-58232068D01*
X144166260Y-58175000D01*
X143873740Y-58175000D01*
X143586842Y-58232068D01*
X143316589Y-58344010D01*
X143073368Y-58506525D01*
X142866525Y-58713368D01*
X142750000Y-58887760D01*
X142633475Y-58713368D01*
X142426632Y-58506525D01*
X142183411Y-58344010D01*
X141913158Y-58232068D01*
X141626260Y-58175000D01*
X141333740Y-58175000D01*
X141046842Y-58232068D01*
X140776589Y-58344010D01*
X140533368Y-58506525D01*
X140401513Y-58638380D01*
X140379502Y-58565820D01*
X140320537Y-58455506D01*
X140241185Y-58358815D01*
X140144494Y-58279463D01*
X140034180Y-58220498D01*
X139914482Y-58184188D01*
X139790000Y-58171928D01*
X138090000Y-58171928D01*
X137965518Y-58184188D01*
X137845820Y-58220498D01*
X137735506Y-58279463D01*
X137638815Y-58358815D01*
X137559463Y-58455506D01*
X137500498Y-58565820D01*
X137464188Y-58685518D01*
X137451928Y-58810000D01*
X128187990Y-58810000D01*
X128009452Y-58207792D01*
X127657555Y-57539330D01*
X127630548Y-57498912D01*
X127140881Y-57138724D01*
X124619605Y-59660000D01*
X124260395Y-59660000D01*
X121739119Y-57138724D01*
X121249452Y-57498912D01*
X120889151Y-58162882D01*
X120665306Y-58884385D01*
X120586520Y-59635695D01*
X120154991Y-59635695D01*
X120220578Y-58900808D01*
X120421705Y-58165611D01*
X120749846Y-57477649D01*
X121122447Y-56959119D01*
X121918724Y-56959119D01*
X124440000Y-59480395D01*
X126961276Y-56959119D01*
X167918724Y-56959119D01*
X170440000Y-59480395D01*
X172961276Y-56959119D01*
X172601088Y-56469452D01*
X171937118Y-56109151D01*
X171215615Y-55885306D01*
X170464305Y-55806520D01*
X169712062Y-55875822D01*
X168987792Y-56090548D01*
X168319330Y-56442445D01*
X168278912Y-56469452D01*
X167918724Y-56959119D01*
X126961276Y-56959119D01*
X126601088Y-56469452D01*
X125937118Y-56109151D01*
X125215615Y-55885306D01*
X124464305Y-55806520D01*
X123712062Y-55875822D01*
X122987792Y-56090548D01*
X122319330Y-56442445D01*
X122278912Y-56469452D01*
X121918724Y-56959119D01*
X121122447Y-56959119D01*
X121194628Y-56858669D01*
X121741988Y-56328239D01*
X122374639Y-55903116D01*
X123072561Y-55596749D01*
X123819183Y-55417501D01*
X124466030Y-55370000D01*
X170408382Y-55370000D01*
X171199192Y-55440578D01*
G37*
G04 #@! TD.AperFunction*
G04 #@! TD*
M02*
