G04 #@! TF.GenerationSoftware,KiCad,Pcbnew,5.1.9+dfsg1-1*
G04 #@! TF.CreationDate,2022-06-11T22:33:11-07:00*
G04 #@! TF.ProjectId,keygame-batpack,6b657967-616d-4652-9d62-61747061636b,rev?*
G04 #@! TF.SameCoordinates,Original*
G04 #@! TF.FileFunction,Soldermask,Top*
G04 #@! TF.FilePolarity,Negative*
%FSLAX46Y46*%
G04 Gerber Fmt 4.6, Leading zero omitted, Abs format (unit mm)*
G04 Created by KiCad (PCBNEW 5.1.9+dfsg1-1) date 2022-06-11 22:33:11*
%MOMM*%
%LPD*%
G01*
G04 APERTURE LIST*
%ADD10C,0.902000*%
%ADD11C,6.502000*%
%ADD12O,1.802000X1.802000*%
%ADD13C,1.857000*%
%ADD14C,3.662000*%
%ADD15C,3.102000*%
%ADD16C,0.350000*%
%ADD17C,2.102000*%
%ADD18C,1.802000*%
%ADD19O,2.502000X2.502000*%
G04 APERTURE END LIST*
D10*
G04 #@! TO.C,H1*
X126137056Y-57962944D03*
X124440000Y-57260000D03*
X122742944Y-57962944D03*
X122040000Y-59660000D03*
X122742944Y-61357056D03*
X124440000Y-62060000D03*
X126137056Y-61357056D03*
X126840000Y-59660000D03*
D11*
X124440000Y-59660000D03*
G04 #@! TD*
G04 #@! TO.C,H2*
X170440000Y-59660000D03*
D10*
X172840000Y-59660000D03*
X172137056Y-61357056D03*
X170440000Y-62060000D03*
X168742944Y-61357056D03*
X168040000Y-59660000D03*
X168742944Y-57962944D03*
X170440000Y-57260000D03*
X172137056Y-57962944D03*
G04 #@! TD*
G04 #@! TO.C,H3*
X126137056Y-131962944D03*
X124440000Y-131260000D03*
X122742944Y-131962944D03*
X122040000Y-133660000D03*
X122742944Y-135357056D03*
X124440000Y-136060000D03*
X126137056Y-135357056D03*
X126840000Y-133660000D03*
D11*
X124440000Y-133660000D03*
G04 #@! TD*
G04 #@! TO.C,H4*
X170440000Y-133660000D03*
D10*
X172840000Y-133660000D03*
X172137056Y-135357056D03*
X170440000Y-136060000D03*
X168742944Y-135357056D03*
X168040000Y-133660000D03*
X168742944Y-131962944D03*
X170440000Y-131260000D03*
X172137056Y-131962944D03*
G04 #@! TD*
G04 #@! TO.C,J1*
G36*
G01*
X139790000Y-60561000D02*
X138090000Y-60561000D01*
G75*
G02*
X138039000Y-60510000I0J51000D01*
G01*
X138039000Y-58810000D01*
G75*
G02*
X138090000Y-58759000I51000J0D01*
G01*
X139790000Y-58759000D01*
G75*
G02*
X139841000Y-58810000I0J-51000D01*
G01*
X139841000Y-60510000D01*
G75*
G02*
X139790000Y-60561000I-51000J0D01*
G01*
G37*
D12*
X141480000Y-59660000D03*
X144020000Y-59660000D03*
X146560000Y-59660000D03*
X149100000Y-59660000D03*
X151640000Y-59660000D03*
X154180000Y-59660000D03*
X156720000Y-59660000D03*
G04 #@! TD*
G04 #@! TO.C,J2*
G36*
G01*
X123539000Y-70510000D02*
X123539000Y-68810000D01*
G75*
G02*
X123590000Y-68759000I51000J0D01*
G01*
X125290000Y-68759000D01*
G75*
G02*
X125341000Y-68810000I0J-51000D01*
G01*
X125341000Y-70510000D01*
G75*
G02*
X125290000Y-70561000I-51000J0D01*
G01*
X123590000Y-70561000D01*
G75*
G02*
X123539000Y-70510000I0J51000D01*
G01*
G37*
X124440000Y-72200000D03*
X124440000Y-74740000D03*
X124440000Y-77280000D03*
X124440000Y-79820000D03*
X124440000Y-82360000D03*
X124440000Y-84900000D03*
X124440000Y-87440000D03*
G04 #@! TD*
D13*
G04 #@! TO.C,BT1*
X150210000Y-83140000D03*
X136620000Y-83140000D03*
D14*
X143580000Y-109300000D03*
G04 #@! TD*
D15*
G04 #@! TO.C,J3*
X162030000Y-67560000D03*
X162030000Y-74440000D03*
X130970000Y-74440000D03*
X130970000Y-67560000D03*
G04 #@! TD*
D16*
G04 #@! TO.C,JP1*
G36*
X168749950Y-112239980D02*
G01*
X168759517Y-112242882D01*
X168768334Y-112247595D01*
X168776062Y-112253938D01*
X168782405Y-112261666D01*
X168787118Y-112270483D01*
X168790020Y-112280050D01*
X168791000Y-112290000D01*
X168791000Y-112389000D01*
X169090000Y-112389000D01*
X169099950Y-112389980D01*
X169109517Y-112392882D01*
X169118334Y-112397595D01*
X169126062Y-112403938D01*
X169132405Y-112411666D01*
X169137118Y-112420483D01*
X169140020Y-112430050D01*
X169141000Y-112440000D01*
X169141000Y-112840000D01*
X169140020Y-112849950D01*
X169137118Y-112859517D01*
X169132405Y-112868334D01*
X169126062Y-112876062D01*
X169118334Y-112882405D01*
X169109517Y-112887118D01*
X169099950Y-112890020D01*
X169090000Y-112891000D01*
X168791000Y-112891000D01*
X168791000Y-113189000D01*
X169090000Y-113189000D01*
X169099950Y-113189980D01*
X169109517Y-113192882D01*
X169118334Y-113197595D01*
X169126062Y-113203938D01*
X169132405Y-113211666D01*
X169137118Y-113220483D01*
X169140020Y-113230050D01*
X169141000Y-113240000D01*
X169141000Y-113640000D01*
X169140020Y-113649950D01*
X169137118Y-113659517D01*
X169132405Y-113668334D01*
X169126062Y-113676062D01*
X169118334Y-113682405D01*
X169109517Y-113687118D01*
X169099950Y-113690020D01*
X169090000Y-113691000D01*
X168791000Y-113691000D01*
X168791000Y-113790000D01*
X168790020Y-113799950D01*
X168787118Y-113809517D01*
X168782405Y-113818334D01*
X168776062Y-113826062D01*
X168768334Y-113832405D01*
X168759517Y-113837118D01*
X168749950Y-113840020D01*
X168740000Y-113841000D01*
X168190000Y-113841000D01*
X168183888Y-113840398D01*
X168165466Y-113840398D01*
X168160467Y-113840152D01*
X168111636Y-113835342D01*
X168106686Y-113834608D01*
X168058561Y-113825036D01*
X168053705Y-113823820D01*
X168006750Y-113809576D01*
X168002039Y-113807890D01*
X167956706Y-113789113D01*
X167952180Y-113786973D01*
X167908907Y-113763842D01*
X167904616Y-113761269D01*
X167863817Y-113734009D01*
X167859796Y-113731027D01*
X167821867Y-113699899D01*
X167818159Y-113696538D01*
X167783462Y-113661841D01*
X167780101Y-113658133D01*
X167748973Y-113620204D01*
X167745991Y-113616183D01*
X167718731Y-113575384D01*
X167716158Y-113571093D01*
X167693027Y-113527820D01*
X167690887Y-113523294D01*
X167672110Y-113477961D01*
X167670424Y-113473250D01*
X167656180Y-113426295D01*
X167654964Y-113421439D01*
X167645392Y-113373314D01*
X167644658Y-113368364D01*
X167639848Y-113319533D01*
X167639602Y-113314534D01*
X167639602Y-113296112D01*
X167639000Y-113290000D01*
X167639000Y-112790000D01*
X167639602Y-112783888D01*
X167639602Y-112765466D01*
X167639848Y-112760467D01*
X167644658Y-112711636D01*
X167645392Y-112706686D01*
X167654964Y-112658561D01*
X167656180Y-112653705D01*
X167670424Y-112606750D01*
X167672110Y-112602039D01*
X167690887Y-112556706D01*
X167693027Y-112552180D01*
X167716158Y-112508907D01*
X167718731Y-112504616D01*
X167745991Y-112463817D01*
X167748973Y-112459796D01*
X167780101Y-112421867D01*
X167783462Y-112418159D01*
X167818159Y-112383462D01*
X167821867Y-112380101D01*
X167859796Y-112348973D01*
X167863817Y-112345991D01*
X167904616Y-112318731D01*
X167908907Y-112316158D01*
X167952180Y-112293027D01*
X167956706Y-112290887D01*
X168002039Y-112272110D01*
X168006750Y-112270424D01*
X168053705Y-112256180D01*
X168058561Y-112254964D01*
X168106686Y-112245392D01*
X168111636Y-112244658D01*
X168160467Y-112239848D01*
X168165466Y-112239602D01*
X168183888Y-112239602D01*
X168190000Y-112239000D01*
X168740000Y-112239000D01*
X168749950Y-112239980D01*
G37*
G36*
X170796112Y-112239602D02*
G01*
X170814534Y-112239602D01*
X170819533Y-112239848D01*
X170868364Y-112244658D01*
X170873314Y-112245392D01*
X170921439Y-112254964D01*
X170926295Y-112256180D01*
X170973250Y-112270424D01*
X170977961Y-112272110D01*
X171023294Y-112290887D01*
X171027820Y-112293027D01*
X171071093Y-112316158D01*
X171075384Y-112318731D01*
X171116183Y-112345991D01*
X171120204Y-112348973D01*
X171158133Y-112380101D01*
X171161841Y-112383462D01*
X171196538Y-112418159D01*
X171199899Y-112421867D01*
X171231027Y-112459796D01*
X171234009Y-112463817D01*
X171261269Y-112504616D01*
X171263842Y-112508907D01*
X171286973Y-112552180D01*
X171289113Y-112556706D01*
X171307890Y-112602039D01*
X171309576Y-112606750D01*
X171323820Y-112653705D01*
X171325036Y-112658561D01*
X171334608Y-112706686D01*
X171335342Y-112711636D01*
X171340152Y-112760467D01*
X171340398Y-112765466D01*
X171340398Y-112783888D01*
X171341000Y-112790000D01*
X171341000Y-113290000D01*
X171340398Y-113296112D01*
X171340398Y-113314534D01*
X171340152Y-113319533D01*
X171335342Y-113368364D01*
X171334608Y-113373314D01*
X171325036Y-113421439D01*
X171323820Y-113426295D01*
X171309576Y-113473250D01*
X171307890Y-113477961D01*
X171289113Y-113523294D01*
X171286973Y-113527820D01*
X171263842Y-113571093D01*
X171261269Y-113575384D01*
X171234009Y-113616183D01*
X171231027Y-113620204D01*
X171199899Y-113658133D01*
X171196538Y-113661841D01*
X171161841Y-113696538D01*
X171158133Y-113699899D01*
X171120204Y-113731027D01*
X171116183Y-113734009D01*
X171075384Y-113761269D01*
X171071093Y-113763842D01*
X171027820Y-113786973D01*
X171023294Y-113789113D01*
X170977961Y-113807890D01*
X170973250Y-113809576D01*
X170926295Y-113823820D01*
X170921439Y-113825036D01*
X170873314Y-113834608D01*
X170868364Y-113835342D01*
X170819533Y-113840152D01*
X170814534Y-113840398D01*
X170796112Y-113840398D01*
X170790000Y-113841000D01*
X170240000Y-113841000D01*
X170230050Y-113840020D01*
X170220483Y-113837118D01*
X170211666Y-113832405D01*
X170203938Y-113826062D01*
X170197595Y-113818334D01*
X170192882Y-113809517D01*
X170189980Y-113799950D01*
X170189000Y-113790000D01*
X170189000Y-112290000D01*
X170189980Y-112280050D01*
X170192882Y-112270483D01*
X170197595Y-112261666D01*
X170203938Y-112253938D01*
X170211666Y-112247595D01*
X170220483Y-112242882D01*
X170230050Y-112239980D01*
X170240000Y-112239000D01*
X170790000Y-112239000D01*
X170796112Y-112239602D01*
G37*
G36*
G01*
X168939000Y-113790000D02*
X168939000Y-112290000D01*
G75*
G02*
X168990000Y-112239000I51000J0D01*
G01*
X169990000Y-112239000D01*
G75*
G02*
X170041000Y-112290000I0J-51000D01*
G01*
X170041000Y-113790000D01*
G75*
G02*
X169990000Y-113841000I-51000J0D01*
G01*
X168990000Y-113841000D01*
G75*
G02*
X168939000Y-113790000I0J51000D01*
G01*
G37*
G04 #@! TD*
D17*
G04 #@! TO.C,F1*
X170020000Y-107240000D03*
X164940000Y-107230000D03*
G04 #@! TD*
G04 #@! TO.C,SW1*
X168050000Y-77000000D03*
X168050000Y-65000000D03*
X174050000Y-65000000D03*
X174050000Y-77000000D03*
D18*
X169800000Y-75000000D03*
X169800000Y-71000000D03*
X169800000Y-67000000D03*
G04 #@! TD*
G04 #@! TO.C,D1*
G36*
G01*
X168820000Y-85149000D02*
X171220000Y-85149000D01*
G75*
G02*
X171271000Y-85200000I0J-51000D01*
G01*
X171271000Y-87600000D01*
G75*
G02*
X171220000Y-87651000I-51000J0D01*
G01*
X168820000Y-87651000D01*
G75*
G02*
X168769000Y-87600000I0J51000D01*
G01*
X168769000Y-85200000D01*
G75*
G02*
X168820000Y-85149000I51000J0D01*
G01*
G37*
D19*
X170020000Y-101640000D03*
G04 #@! TD*
D16*
G36*
X170105195Y-112237236D02*
G01*
X170118933Y-112244579D01*
X170142008Y-112251579D01*
X170165999Y-112253942D01*
X170189990Y-112251579D01*
X170213253Y-112244522D01*
X170215201Y-112244976D01*
X170215782Y-112246890D01*
X170214777Y-112248200D01*
X170212782Y-112249266D01*
X170205359Y-112255359D01*
X170199266Y-112262782D01*
X170194739Y-112271252D01*
X170191950Y-112280445D01*
X170191000Y-112290094D01*
X170191000Y-113789906D01*
X170191950Y-113799555D01*
X170194739Y-113808748D01*
X170199266Y-113817218D01*
X170205359Y-113824641D01*
X170212782Y-113830734D01*
X170218707Y-113833900D01*
X170219763Y-113835598D01*
X170218820Y-113837362D01*
X170217184Y-113837578D01*
X170215567Y-113837088D01*
X170215382Y-113837022D01*
X170201703Y-113831356D01*
X170178053Y-113826651D01*
X170153946Y-113826651D01*
X170130296Y-113831355D01*
X170108022Y-113840581D01*
X170104906Y-113842663D01*
X170103795Y-113843000D01*
X170041000Y-113843000D01*
X170039268Y-113842000D01*
X170039000Y-113841000D01*
X170039000Y-112239000D01*
X170040000Y-112237268D01*
X170041000Y-112237000D01*
X170104252Y-112237000D01*
X170105195Y-112237236D01*
G37*
G36*
X168940732Y-113690000D02*
G01*
X168941000Y-113691000D01*
X168941000Y-113841000D01*
X168940000Y-113842732D01*
X168939000Y-113843000D01*
X168875748Y-113843000D01*
X168874805Y-113842764D01*
X168861067Y-113835421D01*
X168837992Y-113828421D01*
X168814001Y-113826058D01*
X168790010Y-113828421D01*
X168766746Y-113835478D01*
X168764798Y-113835024D01*
X168764217Y-113833110D01*
X168765222Y-113831800D01*
X168767218Y-113830733D01*
X168774641Y-113824641D01*
X168780734Y-113817218D01*
X168785261Y-113808748D01*
X168788050Y-113799555D01*
X168789000Y-113789906D01*
X168789000Y-113691000D01*
X168790000Y-113689268D01*
X168791000Y-113689000D01*
X168939000Y-113689000D01*
X168940732Y-113690000D01*
G37*
G36*
X168940732Y-112890000D02*
G01*
X168941000Y-112891000D01*
X168941000Y-113189000D01*
X168940000Y-113190732D01*
X168939000Y-113191000D01*
X168791000Y-113191000D01*
X168789268Y-113190000D01*
X168789000Y-113189000D01*
X168789000Y-112891000D01*
X168790000Y-112889268D01*
X168791000Y-112889000D01*
X168939000Y-112889000D01*
X168940732Y-112890000D01*
G37*
G36*
X168940732Y-112238000D02*
G01*
X168941000Y-112239000D01*
X168941000Y-112389000D01*
X168940000Y-112390732D01*
X168939000Y-112391000D01*
X168791000Y-112391000D01*
X168789268Y-112390000D01*
X168789000Y-112389000D01*
X168789000Y-112290094D01*
X168788050Y-112280445D01*
X168785261Y-112271252D01*
X168780734Y-112262782D01*
X168774641Y-112255359D01*
X168767218Y-112249266D01*
X168761293Y-112246100D01*
X168760237Y-112244402D01*
X168761180Y-112242638D01*
X168762816Y-112242422D01*
X168764433Y-112242912D01*
X168764618Y-112242978D01*
X168778297Y-112248644D01*
X168801947Y-112253349D01*
X168826054Y-112253349D01*
X168849704Y-112248645D01*
X168871978Y-112239419D01*
X168875094Y-112237337D01*
X168876205Y-112237000D01*
X168939000Y-112237000D01*
X168940732Y-112238000D01*
G37*
M02*
