G04 #@! TF.GenerationSoftware,KiCad,Pcbnew,5.1.9+dfsg1-1*
G04 #@! TF.CreationDate,2022-06-11T22:33:11-07:00*
G04 #@! TF.ProjectId,keygame-batpack,6b657967-616d-4652-9d62-61747061636b,rev?*
G04 #@! TF.SameCoordinates,Original*
G04 #@! TF.FileFunction,Soldermask,Bot*
G04 #@! TF.FilePolarity,Negative*
%FSLAX46Y46*%
G04 Gerber Fmt 4.6, Leading zero omitted, Abs format (unit mm)*
G04 Created by KiCad (PCBNEW 5.1.9+dfsg1-1) date 2022-06-11 22:33:11*
%MOMM*%
%LPD*%
G01*
G04 APERTURE LIST*
%ADD10C,0.902000*%
%ADD11C,6.502000*%
%ADD12O,1.802000X1.802000*%
%ADD13C,1.857000*%
%ADD14C,3.662000*%
%ADD15C,3.102000*%
%ADD16C,2.102000*%
%ADD17C,1.802000*%
%ADD18O,2.502000X2.502000*%
G04 APERTURE END LIST*
D10*
G04 #@! TO.C,H1*
X126137056Y-57962944D03*
X124440000Y-57260000D03*
X122742944Y-57962944D03*
X122040000Y-59660000D03*
X122742944Y-61357056D03*
X124440000Y-62060000D03*
X126137056Y-61357056D03*
X126840000Y-59660000D03*
D11*
X124440000Y-59660000D03*
G04 #@! TD*
G04 #@! TO.C,H2*
X170440000Y-59660000D03*
D10*
X172840000Y-59660000D03*
X172137056Y-61357056D03*
X170440000Y-62060000D03*
X168742944Y-61357056D03*
X168040000Y-59660000D03*
X168742944Y-57962944D03*
X170440000Y-57260000D03*
X172137056Y-57962944D03*
G04 #@! TD*
G04 #@! TO.C,H3*
X126137056Y-131962944D03*
X124440000Y-131260000D03*
X122742944Y-131962944D03*
X122040000Y-133660000D03*
X122742944Y-135357056D03*
X124440000Y-136060000D03*
X126137056Y-135357056D03*
X126840000Y-133660000D03*
D11*
X124440000Y-133660000D03*
G04 #@! TD*
G04 #@! TO.C,H4*
X170440000Y-133660000D03*
D10*
X172840000Y-133660000D03*
X172137056Y-135357056D03*
X170440000Y-136060000D03*
X168742944Y-135357056D03*
X168040000Y-133660000D03*
X168742944Y-131962944D03*
X170440000Y-131260000D03*
X172137056Y-131962944D03*
G04 #@! TD*
G04 #@! TO.C,J1*
G36*
G01*
X139790000Y-60561000D02*
X138090000Y-60561000D01*
G75*
G02*
X138039000Y-60510000I0J51000D01*
G01*
X138039000Y-58810000D01*
G75*
G02*
X138090000Y-58759000I51000J0D01*
G01*
X139790000Y-58759000D01*
G75*
G02*
X139841000Y-58810000I0J-51000D01*
G01*
X139841000Y-60510000D01*
G75*
G02*
X139790000Y-60561000I-51000J0D01*
G01*
G37*
D12*
X141480000Y-59660000D03*
X144020000Y-59660000D03*
X146560000Y-59660000D03*
X149100000Y-59660000D03*
X151640000Y-59660000D03*
X154180000Y-59660000D03*
X156720000Y-59660000D03*
G04 #@! TD*
G04 #@! TO.C,J2*
G36*
G01*
X123539000Y-70510000D02*
X123539000Y-68810000D01*
G75*
G02*
X123590000Y-68759000I51000J0D01*
G01*
X125290000Y-68759000D01*
G75*
G02*
X125341000Y-68810000I0J-51000D01*
G01*
X125341000Y-70510000D01*
G75*
G02*
X125290000Y-70561000I-51000J0D01*
G01*
X123590000Y-70561000D01*
G75*
G02*
X123539000Y-70510000I0J51000D01*
G01*
G37*
X124440000Y-72200000D03*
X124440000Y-74740000D03*
X124440000Y-77280000D03*
X124440000Y-79820000D03*
X124440000Y-82360000D03*
X124440000Y-84900000D03*
X124440000Y-87440000D03*
G04 #@! TD*
D13*
G04 #@! TO.C,BT1*
X150210000Y-83140000D03*
X136620000Y-83140000D03*
D14*
X143580000Y-109300000D03*
G04 #@! TD*
D15*
G04 #@! TO.C,J3*
X162030000Y-67560000D03*
X162030000Y-74440000D03*
X130970000Y-74440000D03*
X130970000Y-67560000D03*
G04 #@! TD*
D16*
G04 #@! TO.C,F1*
X170020000Y-107240000D03*
X164940000Y-107230000D03*
G04 #@! TD*
G04 #@! TO.C,SW1*
X168050000Y-77000000D03*
X168050000Y-65000000D03*
X174050000Y-65000000D03*
X174050000Y-77000000D03*
D17*
X169800000Y-75000000D03*
X169800000Y-71000000D03*
X169800000Y-67000000D03*
G04 #@! TD*
G04 #@! TO.C,D1*
G36*
G01*
X168820000Y-85149000D02*
X171220000Y-85149000D01*
G75*
G02*
X171271000Y-85200000I0J-51000D01*
G01*
X171271000Y-87600000D01*
G75*
G02*
X171220000Y-87651000I-51000J0D01*
G01*
X168820000Y-87651000D01*
G75*
G02*
X168769000Y-87600000I0J51000D01*
G01*
X168769000Y-85200000D01*
G75*
G02*
X168820000Y-85149000I51000J0D01*
G01*
G37*
D18*
X170020000Y-101640000D03*
G04 #@! TD*
M02*
