G04 #@! TF.GenerationSoftware,KiCad,Pcbnew,5.1.9+dfsg1-1*
G04 #@! TF.CreationDate,2022-06-11T22:33:11-07:00*
G04 #@! TF.ProjectId,keygame-batpack,6b657967-616d-4652-9d62-61747061636b,rev?*
G04 #@! TF.SameCoordinates,Original*
G04 #@! TF.FileFunction,Copper,L1,Top*
G04 #@! TF.FilePolarity,Positive*
%FSLAX46Y46*%
G04 Gerber Fmt 4.6, Leading zero omitted, Abs format (unit mm)*
G04 Created by KiCad (PCBNEW 5.1.9+dfsg1-1) date 2022-06-11 22:33:11*
%MOMM*%
%LPD*%
G01*
G04 APERTURE LIST*
G04 #@! TA.AperFunction,ComponentPad*
%ADD10C,0.800000*%
G04 #@! TD*
G04 #@! TA.AperFunction,ComponentPad*
%ADD11C,6.400000*%
G04 #@! TD*
G04 #@! TA.AperFunction,ComponentPad*
%ADD12R,1.700000X1.700000*%
G04 #@! TD*
G04 #@! TA.AperFunction,ComponentPad*
%ADD13O,1.700000X1.700000*%
G04 #@! TD*
G04 #@! TA.AperFunction,ComponentPad*
%ADD14C,1.755000*%
G04 #@! TD*
G04 #@! TA.AperFunction,ComponentPad*
%ADD15C,3.000000*%
G04 #@! TD*
G04 #@! TA.AperFunction,SMDPad,CuDef*
%ADD16C,0.350000*%
G04 #@! TD*
G04 #@! TA.AperFunction,SMDPad,CuDef*
%ADD17R,1.000000X1.500000*%
G04 #@! TD*
G04 #@! TA.AperFunction,ComponentPad*
%ADD18C,2.000000*%
G04 #@! TD*
G04 #@! TA.AperFunction,ComponentPad*
%ADD19C,1.700000*%
G04 #@! TD*
G04 #@! TA.AperFunction,ComponentPad*
%ADD20R,2.400000X2.400000*%
G04 #@! TD*
G04 #@! TA.AperFunction,ComponentPad*
%ADD21O,2.400000X2.400000*%
G04 #@! TD*
G04 #@! TA.AperFunction,ViaPad*
%ADD22C,0.800000*%
G04 #@! TD*
G04 #@! TA.AperFunction,Conductor*
%ADD23C,1.000000*%
G04 #@! TD*
G04 #@! TA.AperFunction,Conductor*
%ADD24C,0.500000*%
G04 #@! TD*
G04 #@! TA.AperFunction,Conductor*
%ADD25C,0.250000*%
G04 #@! TD*
G04 #@! TA.AperFunction,Conductor*
%ADD26C,0.254000*%
G04 #@! TD*
G04 #@! TA.AperFunction,Conductor*
%ADD27C,0.350000*%
G04 #@! TD*
G04 APERTURE END LIST*
D10*
G04 #@! TO.P,H1,1*
G04 #@! TO.N,GND*
X126137056Y-57962944D03*
X124440000Y-57260000D03*
X122742944Y-57962944D03*
X122040000Y-59660000D03*
X122742944Y-61357056D03*
X124440000Y-62060000D03*
X126137056Y-61357056D03*
X126840000Y-59660000D03*
D11*
X124440000Y-59660000D03*
G04 #@! TD*
G04 #@! TO.P,H2,1*
G04 #@! TO.N,GND*
X170440000Y-59660000D03*
D10*
X172840000Y-59660000D03*
X172137056Y-61357056D03*
X170440000Y-62060000D03*
X168742944Y-61357056D03*
X168040000Y-59660000D03*
X168742944Y-57962944D03*
X170440000Y-57260000D03*
X172137056Y-57962944D03*
G04 #@! TD*
G04 #@! TO.P,H3,1*
G04 #@! TO.N,GND*
X126137056Y-131962944D03*
X124440000Y-131260000D03*
X122742944Y-131962944D03*
X122040000Y-133660000D03*
X122742944Y-135357056D03*
X124440000Y-136060000D03*
X126137056Y-135357056D03*
X126840000Y-133660000D03*
D11*
X124440000Y-133660000D03*
G04 #@! TD*
G04 #@! TO.P,H4,1*
G04 #@! TO.N,GND*
X170440000Y-133660000D03*
D10*
X172840000Y-133660000D03*
X172137056Y-135357056D03*
X170440000Y-136060000D03*
X168742944Y-135357056D03*
X168040000Y-133660000D03*
X168742944Y-131962944D03*
X170440000Y-131260000D03*
X172137056Y-131962944D03*
G04 #@! TD*
D12*
G04 #@! TO.P,J1,1*
G04 #@! TO.N,/SCK*
X138940000Y-59660000D03*
D13*
G04 #@! TO.P,J1,2*
G04 #@! TO.N,/MOSI*
X141480000Y-59660000D03*
G04 #@! TO.P,J1,3*
G04 #@! TO.N,/SCREEN_RST*
X144020000Y-59660000D03*
G04 #@! TO.P,J1,4*
G04 #@! TO.N,/SCREEN_DC*
X146560000Y-59660000D03*
G04 #@! TO.P,J1,5*
G04 #@! TO.N,/SCREEN_CS*
X149100000Y-59660000D03*
G04 #@! TO.P,J1,6*
G04 #@! TO.N,/BUTTON_MISO*
X151640000Y-59660000D03*
G04 #@! TO.P,J1,7*
G04 #@! TO.N,/BUTTON_CLK*
X154180000Y-59660000D03*
G04 #@! TO.P,J1,8*
G04 #@! TO.N,/BUTTON_LATCH*
X156720000Y-59660000D03*
G04 #@! TD*
D12*
G04 #@! TO.P,J2,1*
G04 #@! TO.N,+3V3*
X124440000Y-69660000D03*
D13*
G04 #@! TO.P,J2,2*
G04 #@! TO.N,GND*
X124440000Y-72200000D03*
G04 #@! TO.P,J2,3*
G04 #@! TO.N,+5V*
X124440000Y-74740000D03*
G04 #@! TO.P,J2,4*
G04 #@! TO.N,GND*
X124440000Y-77280000D03*
G04 #@! TO.P,J2,5*
X124440000Y-79820000D03*
G04 #@! TO.P,J2,6*
X124440000Y-82360000D03*
G04 #@! TO.P,J2,7*
X124440000Y-84900000D03*
G04 #@! TO.P,J2,8*
X124440000Y-87440000D03*
G04 #@! TD*
D14*
G04 #@! TO.P,BT1,1*
G04 #@! TO.N,Net-(BT1-Pad1)*
X150210000Y-83140000D03*
G04 #@! TO.P,BT1,2*
G04 #@! TO.N,GND*
X136620000Y-83140000D03*
G04 #@! TD*
D15*
G04 #@! TO.P,J3,1*
G04 #@! TO.N,GND*
X162030000Y-67560000D03*
G04 #@! TO.P,J3,2*
G04 #@! TO.N,Net-(J3-Pad2)*
X162030000Y-74440000D03*
G04 #@! TO.P,J3,3*
G04 #@! TO.N,Net-(D1-Pad1)*
X130970000Y-74440000D03*
G04 #@! TO.P,J3,4*
G04 #@! TO.N,GND*
X130970000Y-67560000D03*
G04 #@! TD*
G04 #@! TA.AperFunction,SMDPad,CuDef*
D16*
G04 #@! TO.P,JP1,1*
G04 #@! TO.N,+3V3*
G36*
X168740000Y-112440000D02*
G01*
X169090000Y-112440000D01*
X169090000Y-112840000D01*
X168740000Y-112840000D01*
X168740000Y-113240000D01*
X169090000Y-113240000D01*
X169090000Y-113640000D01*
X168740000Y-113640000D01*
X168740000Y-113790000D01*
X168190000Y-113790000D01*
X168190000Y-113789398D01*
X168165466Y-113789398D01*
X168116635Y-113784588D01*
X168068510Y-113775016D01*
X168021555Y-113760772D01*
X167976222Y-113741995D01*
X167932949Y-113718864D01*
X167892150Y-113691604D01*
X167854221Y-113660476D01*
X167819524Y-113625779D01*
X167788396Y-113587850D01*
X167761136Y-113547051D01*
X167738005Y-113503778D01*
X167719228Y-113458445D01*
X167704984Y-113411490D01*
X167695412Y-113363365D01*
X167690602Y-113314534D01*
X167690602Y-113290000D01*
X167690000Y-113290000D01*
X167690000Y-112790000D01*
X167690602Y-112790000D01*
X167690602Y-112765466D01*
X167695412Y-112716635D01*
X167704984Y-112668510D01*
X167719228Y-112621555D01*
X167738005Y-112576222D01*
X167761136Y-112532949D01*
X167788396Y-112492150D01*
X167819524Y-112454221D01*
X167854221Y-112419524D01*
X167892150Y-112388396D01*
X167932949Y-112361136D01*
X167976222Y-112338005D01*
X168021555Y-112319228D01*
X168068510Y-112304984D01*
X168116635Y-112295412D01*
X168165466Y-112290602D01*
X168190000Y-112290602D01*
X168190000Y-112290000D01*
X168740000Y-112290000D01*
X168740000Y-112440000D01*
G37*
G04 #@! TD.AperFunction*
G04 #@! TA.AperFunction,SMDPad,CuDef*
G04 #@! TO.P,JP1,3*
G04 #@! TO.N,+5V*
G36*
X170790000Y-112290602D02*
G01*
X170814534Y-112290602D01*
X170863365Y-112295412D01*
X170911490Y-112304984D01*
X170958445Y-112319228D01*
X171003778Y-112338005D01*
X171047051Y-112361136D01*
X171087850Y-112388396D01*
X171125779Y-112419524D01*
X171160476Y-112454221D01*
X171191604Y-112492150D01*
X171218864Y-112532949D01*
X171241995Y-112576222D01*
X171260772Y-112621555D01*
X171275016Y-112668510D01*
X171284588Y-112716635D01*
X171289398Y-112765466D01*
X171289398Y-112790000D01*
X171290000Y-112790000D01*
X171290000Y-113290000D01*
X171289398Y-113290000D01*
X171289398Y-113314534D01*
X171284588Y-113363365D01*
X171275016Y-113411490D01*
X171260772Y-113458445D01*
X171241995Y-113503778D01*
X171218864Y-113547051D01*
X171191604Y-113587850D01*
X171160476Y-113625779D01*
X171125779Y-113660476D01*
X171087850Y-113691604D01*
X171047051Y-113718864D01*
X171003778Y-113741995D01*
X170958445Y-113760772D01*
X170911490Y-113775016D01*
X170863365Y-113784588D01*
X170814534Y-113789398D01*
X170790000Y-113789398D01*
X170790000Y-113790000D01*
X170240000Y-113790000D01*
X170240000Y-112290000D01*
X170790000Y-112290000D01*
X170790000Y-112290602D01*
G37*
G04 #@! TD.AperFunction*
D17*
G04 #@! TO.P,JP1,2*
G04 #@! TO.N,Net-(J3-Pad2)*
X169490000Y-113040000D03*
G04 #@! TD*
D18*
G04 #@! TO.P,F1,1*
G04 #@! TO.N,Net-(D1-Pad2)*
X170020000Y-107240000D03*
G04 #@! TO.P,F1,2*
G04 #@! TO.N,GND*
X164940000Y-107230000D03*
G04 #@! TD*
G04 #@! TO.P,SW1,*
G04 #@! TO.N,*
X168050000Y-77000000D03*
X168050000Y-65000000D03*
X174050000Y-65000000D03*
X174050000Y-77000000D03*
D19*
G04 #@! TO.P,SW1,1*
G04 #@! TO.N,Net-(SW1-Pad1)*
X169800000Y-75000000D03*
G04 #@! TO.P,SW1,2*
G04 #@! TO.N,Net-(BT1-Pad1)*
X169800000Y-71000000D03*
G04 #@! TO.P,SW1,3*
G04 #@! TO.N,Net-(D1-Pad1)*
X169800000Y-67000000D03*
G04 #@! TD*
D20*
G04 #@! TO.P,D1,1*
G04 #@! TO.N,Net-(D1-Pad1)*
X170020000Y-86400000D03*
D21*
G04 #@! TO.P,D1,2*
G04 #@! TO.N,Net-(D1-Pad2)*
X170020000Y-101640000D03*
G04 #@! TD*
D22*
G04 #@! TO.N,GND*
X154700000Y-95410000D03*
G04 #@! TD*
D23*
G04 #@! TO.N,+3V3*
X132910010Y-99160000D02*
X130250010Y-96500000D01*
X130250010Y-96500000D02*
X130250010Y-78750010D01*
X124440000Y-69831998D02*
X124440000Y-69660000D01*
X127000000Y-70370000D02*
X126290000Y-69660000D01*
X126290000Y-69660000D02*
X124440000Y-69660000D01*
X127000000Y-75500000D02*
X127000000Y-70370000D01*
X130250010Y-78750010D02*
X127000000Y-75500000D01*
X168190000Y-113040000D02*
X159030000Y-113040000D01*
X145150000Y-99160000D02*
X132910010Y-99160000D01*
X159030000Y-113040000D02*
X145150000Y-99160000D01*
G04 #@! TO.N,+5V*
X129000000Y-79300000D02*
X129000000Y-97750000D01*
X129000000Y-97750000D02*
X131910000Y-100660000D01*
X124440000Y-74740000D02*
X129000000Y-79300000D01*
X170590001Y-114540001D02*
X170790000Y-114340002D01*
X158762221Y-114540001D02*
X170590001Y-114540001D01*
X144882220Y-100660000D02*
X158762221Y-114540001D01*
X170790000Y-114340002D02*
X170790000Y-113040000D01*
X131910000Y-100660000D02*
X144882220Y-100660000D01*
G04 #@! TO.N,Net-(D1-Pad1)*
X164610001Y-72189999D02*
X169800000Y-67000000D01*
X133220001Y-72189999D02*
X164610001Y-72189999D01*
X130970000Y-74440000D02*
X133220001Y-72189999D01*
X171400001Y-68600001D02*
X169800000Y-67000000D01*
X171400001Y-79899999D02*
X171400001Y-68600001D01*
X170020000Y-81280000D02*
X171400001Y-79899999D01*
X170020000Y-86400000D02*
X170020000Y-81280000D01*
G04 #@! TO.N,Net-(D1-Pad2)*
X170020000Y-101640000D02*
X170020000Y-107240000D01*
D24*
G04 #@! TO.N,Net-(J3-Pad2)*
X169560010Y-112442886D02*
X169560010Y-113250000D01*
D25*
X169460000Y-113250000D02*
X169460000Y-112519654D01*
X169460000Y-112519654D02*
X169120346Y-112180000D01*
X169460000Y-111989324D02*
X169460000Y-112000000D01*
X169460000Y-112000000D02*
X169200173Y-112259827D01*
X169200173Y-112259827D02*
X169280173Y-112339827D01*
X169280173Y-112339827D02*
X169325173Y-112384827D01*
X169460000Y-113250000D02*
X169460000Y-112770000D01*
X169460000Y-112770000D02*
X169834990Y-112395010D01*
X169834990Y-112364314D02*
X169460000Y-111989324D01*
X169834990Y-112395010D02*
X169834990Y-112364314D01*
X169460000Y-111989324D02*
X169639324Y-111989324D01*
X169460000Y-112250000D02*
X169334990Y-112124990D01*
X169460000Y-113250000D02*
X169460000Y-112250000D01*
X169334990Y-112124990D02*
X169065336Y-112124990D01*
X169065336Y-111915336D02*
X168740000Y-111590000D01*
X169065336Y-112124990D02*
X169065336Y-111915336D01*
X169460000Y-113250000D02*
X169460000Y-112630000D01*
X169520000Y-112570000D02*
X169520000Y-111590000D01*
X169460000Y-112630000D02*
X169520000Y-112570000D01*
X169520000Y-111590000D02*
X169520000Y-111670000D01*
X169520000Y-111670000D02*
X169860000Y-112010000D01*
X169860000Y-112010000D02*
X169860000Y-112210000D01*
D23*
X169490000Y-111779324D02*
X169590000Y-111879324D01*
X169490000Y-111680000D02*
X169490000Y-111779324D01*
X167530000Y-109720000D02*
X169490000Y-111680000D01*
X167530000Y-103290000D02*
X167530000Y-109720000D01*
X162030000Y-97790000D02*
X167530000Y-103290000D01*
X162030000Y-74440000D02*
X162030000Y-97790000D01*
G04 #@! TD*
D26*
G04 #@! TO.N,GND*
X171199192Y-55440578D02*
X171934389Y-55641705D01*
X172622351Y-55969846D01*
X173241331Y-56414628D01*
X173771761Y-56961988D01*
X174196884Y-57594639D01*
X174503251Y-58292561D01*
X174682499Y-59039183D01*
X174730001Y-59686044D01*
X174730001Y-63511954D01*
X174526912Y-63427832D01*
X174211033Y-63365000D01*
X173888967Y-63365000D01*
X173573088Y-63427832D01*
X173275537Y-63551082D01*
X173007748Y-63730013D01*
X172780013Y-63957748D01*
X172601082Y-64225537D01*
X172477832Y-64523088D01*
X172415000Y-64838967D01*
X172415000Y-65161033D01*
X172477832Y-65476912D01*
X172601082Y-65774463D01*
X172780013Y-66042252D01*
X173007748Y-66269987D01*
X173275537Y-66448918D01*
X173573088Y-66572168D01*
X173888967Y-66635000D01*
X174211033Y-66635000D01*
X174526912Y-66572168D01*
X174730001Y-66488046D01*
X174730001Y-75511954D01*
X174526912Y-75427832D01*
X174211033Y-75365000D01*
X173888967Y-75365000D01*
X173573088Y-75427832D01*
X173275537Y-75551082D01*
X173007748Y-75730013D01*
X172780013Y-75957748D01*
X172601082Y-76225537D01*
X172535001Y-76385070D01*
X172535001Y-68655752D01*
X172540492Y-68600000D01*
X172518578Y-68377501D01*
X172488838Y-68279463D01*
X172453677Y-68163554D01*
X172348285Y-67966378D01*
X172206450Y-67793552D01*
X172163141Y-67758010D01*
X171285000Y-66879869D01*
X171285000Y-66853740D01*
X171227932Y-66566842D01*
X171115990Y-66296589D01*
X170953475Y-66053368D01*
X170746632Y-65846525D01*
X170503411Y-65684010D01*
X170233158Y-65572068D01*
X169946260Y-65515000D01*
X169653740Y-65515000D01*
X169602140Y-65525264D01*
X169622168Y-65476912D01*
X169685000Y-65161033D01*
X169685000Y-64838967D01*
X169622168Y-64523088D01*
X169498918Y-64225537D01*
X169319987Y-63957748D01*
X169092252Y-63730013D01*
X168824463Y-63551082D01*
X168526912Y-63427832D01*
X168211033Y-63365000D01*
X167888967Y-63365000D01*
X167573088Y-63427832D01*
X167275537Y-63551082D01*
X167007748Y-63730013D01*
X166780013Y-63957748D01*
X166601082Y-64225537D01*
X166477832Y-64523088D01*
X166415000Y-64838967D01*
X166415000Y-65161033D01*
X166477832Y-65476912D01*
X166601082Y-65774463D01*
X166780013Y-66042252D01*
X167007748Y-66269987D01*
X167275537Y-66448918D01*
X167573088Y-66572168D01*
X167888967Y-66635000D01*
X168211033Y-66635000D01*
X168364586Y-66604457D01*
X168315000Y-66853740D01*
X168315000Y-66879868D01*
X164139870Y-71054999D01*
X133275752Y-71054999D01*
X133220001Y-71049508D01*
X133164249Y-71054999D01*
X132997502Y-71071422D01*
X132783554Y-71136323D01*
X132586378Y-71241715D01*
X132413552Y-71383550D01*
X132378012Y-71426856D01*
X131446845Y-72358023D01*
X131180279Y-72305000D01*
X130759721Y-72305000D01*
X130347244Y-72387047D01*
X129958698Y-72547988D01*
X129609017Y-72781637D01*
X129311637Y-73079017D01*
X129077988Y-73428698D01*
X128917047Y-73817244D01*
X128835000Y-74229721D01*
X128835000Y-74650279D01*
X128917047Y-75062756D01*
X129077988Y-75451302D01*
X129311637Y-75800983D01*
X129609017Y-76098363D01*
X129958698Y-76332012D01*
X130347244Y-76492953D01*
X130759721Y-76575000D01*
X131180279Y-76575000D01*
X131592756Y-76492953D01*
X131981302Y-76332012D01*
X132330983Y-76098363D01*
X132628363Y-75800983D01*
X132862012Y-75451302D01*
X133022953Y-75062756D01*
X133105000Y-74650279D01*
X133105000Y-74229721D01*
X133051977Y-73963155D01*
X133690133Y-73324999D01*
X160207277Y-73324999D01*
X160137988Y-73428698D01*
X159977047Y-73817244D01*
X159895000Y-74229721D01*
X159895000Y-74650279D01*
X159977047Y-75062756D01*
X160137988Y-75451302D01*
X160371637Y-75800983D01*
X160669017Y-76098363D01*
X160895000Y-76249360D01*
X160895001Y-97734238D01*
X160889509Y-97790000D01*
X160911423Y-98012498D01*
X160976324Y-98226446D01*
X160976325Y-98226447D01*
X161081717Y-98423623D01*
X161223552Y-98596449D01*
X161266860Y-98631991D01*
X166395000Y-103760133D01*
X166395000Y-106473203D01*
X166339814Y-106369956D01*
X166075413Y-106274192D01*
X165119605Y-107230000D01*
X166075413Y-108185808D01*
X166339814Y-108090044D01*
X166395001Y-107976602D01*
X166395001Y-109664239D01*
X166389509Y-109720000D01*
X166411423Y-109942498D01*
X166476324Y-110156446D01*
X166512089Y-110223357D01*
X166581717Y-110353623D01*
X166723552Y-110526449D01*
X166766860Y-110561991D01*
X167897519Y-111692652D01*
X167800681Y-111722027D01*
X167710125Y-111759536D01*
X167599808Y-111818502D01*
X167518309Y-111872958D01*
X167479266Y-111905000D01*
X159500132Y-111905000D01*
X155960545Y-108365413D01*
X163984192Y-108365413D01*
X164079956Y-108629814D01*
X164369571Y-108770704D01*
X164681108Y-108852384D01*
X165002595Y-108871718D01*
X165321675Y-108827961D01*
X165626088Y-108722795D01*
X165800044Y-108629814D01*
X165895808Y-108365413D01*
X164940000Y-107409605D01*
X163984192Y-108365413D01*
X155960545Y-108365413D01*
X154887727Y-107292595D01*
X163298282Y-107292595D01*
X163342039Y-107611675D01*
X163447205Y-107916088D01*
X163540186Y-108090044D01*
X163804587Y-108185808D01*
X164760395Y-107230000D01*
X163804587Y-106274192D01*
X163540186Y-106369956D01*
X163399296Y-106659571D01*
X163317616Y-106971108D01*
X163298282Y-107292595D01*
X154887727Y-107292595D01*
X153689719Y-106094587D01*
X163984192Y-106094587D01*
X164940000Y-107050395D01*
X165895808Y-106094587D01*
X165800044Y-105830186D01*
X165510429Y-105689296D01*
X165198892Y-105607616D01*
X164877405Y-105588282D01*
X164558325Y-105632039D01*
X164253912Y-105737205D01*
X164079956Y-105830186D01*
X163984192Y-106094587D01*
X153689719Y-106094587D01*
X145991996Y-98396865D01*
X145956449Y-98353551D01*
X145783623Y-98211716D01*
X145586447Y-98106324D01*
X145372499Y-98041423D01*
X145205752Y-98025000D01*
X145205751Y-98025000D01*
X145150000Y-98019509D01*
X145094249Y-98025000D01*
X133380142Y-98025000D01*
X131385010Y-96029869D01*
X131385010Y-84188024D01*
X135751581Y-84188024D01*
X135832543Y-84439907D01*
X136101274Y-84568555D01*
X136389938Y-84642304D01*
X136687444Y-84658321D01*
X136982358Y-84615989D01*
X137263346Y-84516936D01*
X137407457Y-84439907D01*
X137488419Y-84188024D01*
X136620000Y-83319605D01*
X135751581Y-84188024D01*
X131385010Y-84188024D01*
X131385010Y-83207444D01*
X135101679Y-83207444D01*
X135144011Y-83502358D01*
X135243064Y-83783346D01*
X135320093Y-83927457D01*
X135571976Y-84008419D01*
X136440395Y-83140000D01*
X136799605Y-83140000D01*
X137668024Y-84008419D01*
X137919907Y-83927457D01*
X138048555Y-83658726D01*
X138122304Y-83370062D01*
X138138321Y-83072556D01*
X138126620Y-82991032D01*
X148697500Y-82991032D01*
X148697500Y-83288968D01*
X148755625Y-83581180D01*
X148869640Y-83856437D01*
X149035165Y-84104162D01*
X149245838Y-84314835D01*
X149493563Y-84480360D01*
X149768820Y-84594375D01*
X150061032Y-84652500D01*
X150358968Y-84652500D01*
X150651180Y-84594375D01*
X150926437Y-84480360D01*
X151174162Y-84314835D01*
X151384835Y-84104162D01*
X151550360Y-83856437D01*
X151664375Y-83581180D01*
X151722500Y-83288968D01*
X151722500Y-82991032D01*
X151664375Y-82698820D01*
X151550360Y-82423563D01*
X151384835Y-82175838D01*
X151174162Y-81965165D01*
X150926437Y-81799640D01*
X150651180Y-81685625D01*
X150358968Y-81627500D01*
X150061032Y-81627500D01*
X149768820Y-81685625D01*
X149493563Y-81799640D01*
X149245838Y-81965165D01*
X149035165Y-82175838D01*
X148869640Y-82423563D01*
X148755625Y-82698820D01*
X148697500Y-82991032D01*
X138126620Y-82991032D01*
X138095989Y-82777642D01*
X137996936Y-82496654D01*
X137919907Y-82352543D01*
X137668024Y-82271581D01*
X136799605Y-83140000D01*
X136440395Y-83140000D01*
X135571976Y-82271581D01*
X135320093Y-82352543D01*
X135191445Y-82621274D01*
X135117696Y-82909938D01*
X135101679Y-83207444D01*
X131385010Y-83207444D01*
X131385010Y-82091976D01*
X135751581Y-82091976D01*
X136620000Y-82960395D01*
X137488419Y-82091976D01*
X137407457Y-81840093D01*
X137138726Y-81711445D01*
X136850062Y-81637696D01*
X136552556Y-81621679D01*
X136257642Y-81664011D01*
X135976654Y-81763064D01*
X135832543Y-81840093D01*
X135751581Y-82091976D01*
X131385010Y-82091976D01*
X131385010Y-78805753D01*
X131390500Y-78750009D01*
X131385010Y-78694265D01*
X131385010Y-78694258D01*
X131368587Y-78527511D01*
X131303686Y-78313563D01*
X131198294Y-78116387D01*
X131056459Y-77943561D01*
X131013151Y-77908019D01*
X128135000Y-75029869D01*
X128135000Y-70425752D01*
X128140491Y-70370000D01*
X128118577Y-70147501D01*
X128053676Y-69933553D01*
X127948284Y-69736377D01*
X127885603Y-69660000D01*
X127806449Y-69563551D01*
X127763140Y-69528008D01*
X127286785Y-69051653D01*
X129657952Y-69051653D01*
X129813962Y-69367214D01*
X130188745Y-69558020D01*
X130593551Y-69672044D01*
X131012824Y-69704902D01*
X131430451Y-69655334D01*
X131830383Y-69525243D01*
X132126038Y-69367214D01*
X132282048Y-69051653D01*
X160717952Y-69051653D01*
X160873962Y-69367214D01*
X161248745Y-69558020D01*
X161653551Y-69672044D01*
X162072824Y-69704902D01*
X162490451Y-69655334D01*
X162890383Y-69525243D01*
X163186038Y-69367214D01*
X163342048Y-69051653D01*
X162030000Y-67739605D01*
X160717952Y-69051653D01*
X132282048Y-69051653D01*
X130970000Y-67739605D01*
X129657952Y-69051653D01*
X127286785Y-69051653D01*
X127131995Y-68896864D01*
X127096449Y-68853551D01*
X126923623Y-68711716D01*
X126726447Y-68606324D01*
X126512499Y-68541423D01*
X126345752Y-68525000D01*
X126345751Y-68525000D01*
X126290000Y-68519509D01*
X126234249Y-68525000D01*
X125857683Y-68525000D01*
X125820537Y-68455506D01*
X125741185Y-68358815D01*
X125644494Y-68279463D01*
X125534180Y-68220498D01*
X125414482Y-68184188D01*
X125290000Y-68171928D01*
X123590000Y-68171928D01*
X123465518Y-68184188D01*
X123345820Y-68220498D01*
X123235506Y-68279463D01*
X123138815Y-68358815D01*
X123059463Y-68455506D01*
X123000498Y-68565820D01*
X122964188Y-68685518D01*
X122951928Y-68810000D01*
X122951928Y-70510000D01*
X122964188Y-70634482D01*
X123000498Y-70754180D01*
X123059463Y-70864494D01*
X123138815Y-70961185D01*
X123235506Y-71040537D01*
X123345820Y-71099502D01*
X123426466Y-71123966D01*
X123342412Y-71199731D01*
X123168359Y-71433080D01*
X123043175Y-71695901D01*
X122998524Y-71843110D01*
X123119845Y-72073000D01*
X124313000Y-72073000D01*
X124313000Y-72053000D01*
X124567000Y-72053000D01*
X124567000Y-72073000D01*
X124587000Y-72073000D01*
X124587000Y-72327000D01*
X124567000Y-72327000D01*
X124567000Y-72347000D01*
X124313000Y-72347000D01*
X124313000Y-72327000D01*
X123119845Y-72327000D01*
X122998524Y-72556890D01*
X123043175Y-72704099D01*
X123168359Y-72966920D01*
X123342412Y-73200269D01*
X123558645Y-73395178D01*
X123675534Y-73464805D01*
X123493368Y-73586525D01*
X123286525Y-73793368D01*
X123124010Y-74036589D01*
X123012068Y-74306842D01*
X122955000Y-74593740D01*
X122955000Y-74886260D01*
X123012068Y-75173158D01*
X123124010Y-75443411D01*
X123286525Y-75686632D01*
X123493368Y-75893475D01*
X123675534Y-76015195D01*
X123558645Y-76084822D01*
X123342412Y-76279731D01*
X123168359Y-76513080D01*
X123043175Y-76775901D01*
X122998524Y-76923110D01*
X123119845Y-77153000D01*
X124313000Y-77153000D01*
X124313000Y-77133000D01*
X124567000Y-77133000D01*
X124567000Y-77153000D01*
X124587000Y-77153000D01*
X124587000Y-77407000D01*
X124567000Y-77407000D01*
X124567000Y-79693000D01*
X125760155Y-79693000D01*
X125881476Y-79463110D01*
X125836825Y-79315901D01*
X125711641Y-79053080D01*
X125537588Y-78819731D01*
X125321355Y-78624822D01*
X125195745Y-78550000D01*
X125321355Y-78475178D01*
X125537588Y-78280269D01*
X125711641Y-78046920D01*
X125836825Y-77784099D01*
X125846633Y-77751764D01*
X127865000Y-79770132D01*
X127865001Y-97694238D01*
X127859509Y-97750000D01*
X127881423Y-97972498D01*
X127946324Y-98186446D01*
X127967705Y-98226447D01*
X128051717Y-98383623D01*
X128193552Y-98556449D01*
X128236860Y-98591991D01*
X131068009Y-101423141D01*
X131103551Y-101466449D01*
X131276377Y-101608284D01*
X131473553Y-101713676D01*
X131687501Y-101778577D01*
X131854248Y-101795000D01*
X131854257Y-101795000D01*
X131909999Y-101800490D01*
X131965741Y-101795000D01*
X144412089Y-101795000D01*
X157920234Y-115303147D01*
X157955772Y-115346450D01*
X157999075Y-115381988D01*
X157999077Y-115381990D01*
X158128598Y-115488285D01*
X158325774Y-115593677D01*
X158539722Y-115658578D01*
X158762221Y-115680492D01*
X158817973Y-115675001D01*
X170534250Y-115675001D01*
X170590001Y-115680492D01*
X170645752Y-115675001D01*
X170645753Y-115675001D01*
X170812500Y-115658578D01*
X171026448Y-115593677D01*
X171223624Y-115488285D01*
X171396450Y-115346450D01*
X171431997Y-115303136D01*
X171553135Y-115181998D01*
X171596449Y-115146451D01*
X171738284Y-114973625D01*
X171843676Y-114776449D01*
X171908577Y-114562501D01*
X171925000Y-114395754D01*
X171925000Y-114395744D01*
X171930490Y-114340003D01*
X171925000Y-114284261D01*
X171925000Y-113345751D01*
X171925664Y-113339009D01*
X171925664Y-113314450D01*
X171928072Y-113290000D01*
X171928072Y-112790000D01*
X171925664Y-112765550D01*
X171925664Y-112740991D01*
X171913404Y-112616510D01*
X171894282Y-112520377D01*
X171857973Y-112400681D01*
X171820464Y-112310125D01*
X171761498Y-112199808D01*
X171707042Y-112118309D01*
X171627690Y-112021618D01*
X171558382Y-111952310D01*
X171461691Y-111872958D01*
X171380192Y-111818502D01*
X171269875Y-111759536D01*
X171179319Y-111722027D01*
X171059623Y-111685718D01*
X170963490Y-111666596D01*
X170839009Y-111654336D01*
X170814450Y-111654336D01*
X170790000Y-111651928D01*
X170707090Y-111651928D01*
X170643675Y-111442877D01*
X170552260Y-111271850D01*
X170543676Y-111243553D01*
X170438284Y-111046377D01*
X170331989Y-110916856D01*
X170331987Y-110916854D01*
X170296449Y-110873551D01*
X170253146Y-110838013D01*
X168665000Y-109249869D01*
X168665000Y-108155021D01*
X168750013Y-108282252D01*
X168977748Y-108509987D01*
X169245537Y-108688918D01*
X169543088Y-108812168D01*
X169858967Y-108875000D01*
X170181033Y-108875000D01*
X170496912Y-108812168D01*
X170794463Y-108688918D01*
X171062252Y-108509987D01*
X171289987Y-108282252D01*
X171468918Y-108014463D01*
X171592168Y-107716912D01*
X171655000Y-107401033D01*
X171655000Y-107078967D01*
X171592168Y-106763088D01*
X171468918Y-106465537D01*
X171289987Y-106197748D01*
X171155000Y-106062761D01*
X171155000Y-103088553D01*
X171189744Y-103065338D01*
X171445338Y-102809744D01*
X171646156Y-102509199D01*
X171784482Y-102175250D01*
X171855000Y-101820732D01*
X171855000Y-101459268D01*
X171784482Y-101104750D01*
X171646156Y-100770801D01*
X171445338Y-100470256D01*
X171189744Y-100214662D01*
X170889199Y-100013844D01*
X170555250Y-99875518D01*
X170200732Y-99805000D01*
X169839268Y-99805000D01*
X169484750Y-99875518D01*
X169150801Y-100013844D01*
X168850256Y-100214662D01*
X168594662Y-100470256D01*
X168393844Y-100770801D01*
X168255518Y-101104750D01*
X168185000Y-101459268D01*
X168185000Y-101820732D01*
X168255518Y-102175250D01*
X168393844Y-102509199D01*
X168594662Y-102809744D01*
X168850256Y-103065338D01*
X168885000Y-103088553D01*
X168885001Y-106062760D01*
X168750013Y-106197748D01*
X168665000Y-106324979D01*
X168665000Y-103345752D01*
X168670491Y-103290000D01*
X168648577Y-103067501D01*
X168583676Y-102853553D01*
X168478284Y-102656377D01*
X168371989Y-102526856D01*
X168371987Y-102526854D01*
X168336449Y-102483551D01*
X168293146Y-102448013D01*
X163165000Y-97319869D01*
X163165000Y-76249360D01*
X163390983Y-76098363D01*
X163688363Y-75800983D01*
X163922012Y-75451302D01*
X164082953Y-75062756D01*
X164165000Y-74650279D01*
X164165000Y-74229721D01*
X164082953Y-73817244D01*
X163922012Y-73428698D01*
X163852723Y-73324999D01*
X164554250Y-73324999D01*
X164610001Y-73330490D01*
X164665752Y-73324999D01*
X164665753Y-73324999D01*
X164832500Y-73308576D01*
X165046448Y-73243675D01*
X165243624Y-73138283D01*
X165416450Y-72996448D01*
X165451997Y-72953134D01*
X169800000Y-68605132D01*
X170265002Y-69070134D01*
X170265002Y-69585258D01*
X170233158Y-69572068D01*
X169946260Y-69515000D01*
X169653740Y-69515000D01*
X169366842Y-69572068D01*
X169096589Y-69684010D01*
X168853368Y-69846525D01*
X168646525Y-70053368D01*
X168484010Y-70296589D01*
X168372068Y-70566842D01*
X168315000Y-70853740D01*
X168315000Y-71146260D01*
X168372068Y-71433158D01*
X168484010Y-71703411D01*
X168646525Y-71946632D01*
X168853368Y-72153475D01*
X169096589Y-72315990D01*
X169366842Y-72427932D01*
X169653740Y-72485000D01*
X169946260Y-72485000D01*
X170233158Y-72427932D01*
X170265002Y-72414742D01*
X170265002Y-73585258D01*
X170233158Y-73572068D01*
X169946260Y-73515000D01*
X169653740Y-73515000D01*
X169366842Y-73572068D01*
X169096589Y-73684010D01*
X168853368Y-73846525D01*
X168646525Y-74053368D01*
X168484010Y-74296589D01*
X168372068Y-74566842D01*
X168315000Y-74853740D01*
X168315000Y-75146260D01*
X168364586Y-75395543D01*
X168211033Y-75365000D01*
X167888967Y-75365000D01*
X167573088Y-75427832D01*
X167275537Y-75551082D01*
X167007748Y-75730013D01*
X166780013Y-75957748D01*
X166601082Y-76225537D01*
X166477832Y-76523088D01*
X166415000Y-76838967D01*
X166415000Y-77161033D01*
X166477832Y-77476912D01*
X166601082Y-77774463D01*
X166780013Y-78042252D01*
X167007748Y-78269987D01*
X167275537Y-78448918D01*
X167573088Y-78572168D01*
X167888967Y-78635000D01*
X168211033Y-78635000D01*
X168526912Y-78572168D01*
X168824463Y-78448918D01*
X169092252Y-78269987D01*
X169319987Y-78042252D01*
X169498918Y-77774463D01*
X169622168Y-77476912D01*
X169685000Y-77161033D01*
X169685000Y-76838967D01*
X169622168Y-76523088D01*
X169602140Y-76474736D01*
X169653740Y-76485000D01*
X169946260Y-76485000D01*
X170233158Y-76427932D01*
X170265001Y-76414742D01*
X170265001Y-79429867D01*
X169256860Y-80438009D01*
X169213552Y-80473551D01*
X169071717Y-80646377D01*
X169039609Y-80706448D01*
X168966324Y-80843554D01*
X168901423Y-81057502D01*
X168879509Y-81280000D01*
X168885001Y-81335761D01*
X168885000Y-84561928D01*
X168820000Y-84561928D01*
X168695518Y-84574188D01*
X168575820Y-84610498D01*
X168465506Y-84669463D01*
X168368815Y-84748815D01*
X168289463Y-84845506D01*
X168230498Y-84955820D01*
X168194188Y-85075518D01*
X168181928Y-85200000D01*
X168181928Y-87600000D01*
X168194188Y-87724482D01*
X168230498Y-87844180D01*
X168289463Y-87954494D01*
X168368815Y-88051185D01*
X168465506Y-88130537D01*
X168575820Y-88189502D01*
X168695518Y-88225812D01*
X168820000Y-88238072D01*
X171220000Y-88238072D01*
X171344482Y-88225812D01*
X171464180Y-88189502D01*
X171574494Y-88130537D01*
X171671185Y-88051185D01*
X171750537Y-87954494D01*
X171809502Y-87844180D01*
X171845812Y-87724482D01*
X171858072Y-87600000D01*
X171858072Y-85200000D01*
X171845812Y-85075518D01*
X171809502Y-84955820D01*
X171750537Y-84845506D01*
X171671185Y-84748815D01*
X171574494Y-84669463D01*
X171464180Y-84610498D01*
X171344482Y-84574188D01*
X171220000Y-84561928D01*
X171155000Y-84561928D01*
X171155000Y-81750131D01*
X172163141Y-80741991D01*
X172206450Y-80706448D01*
X172348285Y-80533622D01*
X172453677Y-80336446D01*
X172518578Y-80122498D01*
X172535001Y-79955751D01*
X172535001Y-79955750D01*
X172540492Y-79900000D01*
X172535001Y-79844248D01*
X172535001Y-77614930D01*
X172601082Y-77774463D01*
X172780013Y-78042252D01*
X173007748Y-78269987D01*
X173275537Y-78448918D01*
X173573088Y-78572168D01*
X173888967Y-78635000D01*
X174211033Y-78635000D01*
X174526912Y-78572168D01*
X174730001Y-78488046D01*
X174730000Y-133628382D01*
X174659422Y-134419193D01*
X174458295Y-135154389D01*
X174130152Y-135842355D01*
X173685374Y-136461328D01*
X173138012Y-136991761D01*
X172505362Y-137416883D01*
X171807439Y-137723251D01*
X171060819Y-137902499D01*
X170413970Y-137950000D01*
X124471618Y-137950000D01*
X123680807Y-137879422D01*
X122945611Y-137678295D01*
X122257645Y-137350152D01*
X121638672Y-136905374D01*
X121111020Y-136360881D01*
X121918724Y-136360881D01*
X122278912Y-136850548D01*
X122942882Y-137210849D01*
X123664385Y-137434694D01*
X124415695Y-137513480D01*
X125167938Y-137444178D01*
X125892208Y-137229452D01*
X126560670Y-136877555D01*
X126601088Y-136850548D01*
X126961276Y-136360881D01*
X167918724Y-136360881D01*
X168278912Y-136850548D01*
X168942882Y-137210849D01*
X169664385Y-137434694D01*
X170415695Y-137513480D01*
X171167938Y-137444178D01*
X171892208Y-137229452D01*
X172560670Y-136877555D01*
X172601088Y-136850548D01*
X172961276Y-136360881D01*
X170440000Y-133839605D01*
X167918724Y-136360881D01*
X126961276Y-136360881D01*
X124440000Y-133839605D01*
X121918724Y-136360881D01*
X121111020Y-136360881D01*
X121108239Y-136358012D01*
X120683117Y-135725362D01*
X120376749Y-135027439D01*
X120197501Y-134280819D01*
X120150127Y-133635695D01*
X120586520Y-133635695D01*
X120655822Y-134387938D01*
X120870548Y-135112208D01*
X121222445Y-135780670D01*
X121249452Y-135821088D01*
X121739119Y-136181276D01*
X124260395Y-133660000D01*
X124619605Y-133660000D01*
X127140881Y-136181276D01*
X127630548Y-135821088D01*
X127990849Y-135157118D01*
X128214694Y-134435615D01*
X128293480Y-133684305D01*
X128289002Y-133635695D01*
X166586520Y-133635695D01*
X166655822Y-134387938D01*
X166870548Y-135112208D01*
X167222445Y-135780670D01*
X167249452Y-135821088D01*
X167739119Y-136181276D01*
X170260395Y-133660000D01*
X170619605Y-133660000D01*
X173140881Y-136181276D01*
X173630548Y-135821088D01*
X173990849Y-135157118D01*
X174214694Y-134435615D01*
X174293480Y-133684305D01*
X174224178Y-132932062D01*
X174009452Y-132207792D01*
X173657555Y-131539330D01*
X173630548Y-131498912D01*
X173140881Y-131138724D01*
X170619605Y-133660000D01*
X170260395Y-133660000D01*
X167739119Y-131138724D01*
X167249452Y-131498912D01*
X166889151Y-132162882D01*
X166665306Y-132884385D01*
X166586520Y-133635695D01*
X128289002Y-133635695D01*
X128224178Y-132932062D01*
X128009452Y-132207792D01*
X127657555Y-131539330D01*
X127630548Y-131498912D01*
X127140881Y-131138724D01*
X124619605Y-133660000D01*
X124260395Y-133660000D01*
X121739119Y-131138724D01*
X121249452Y-131498912D01*
X120889151Y-132162882D01*
X120665306Y-132884385D01*
X120586520Y-133635695D01*
X120150127Y-133635695D01*
X120150000Y-133633970D01*
X120150000Y-130959119D01*
X121918724Y-130959119D01*
X124440000Y-133480395D01*
X126961276Y-130959119D01*
X167918724Y-130959119D01*
X170440000Y-133480395D01*
X172961276Y-130959119D01*
X172601088Y-130469452D01*
X171937118Y-130109151D01*
X171215615Y-129885306D01*
X170464305Y-129806520D01*
X169712062Y-129875822D01*
X168987792Y-130090548D01*
X168319330Y-130442445D01*
X168278912Y-130469452D01*
X167918724Y-130959119D01*
X126961276Y-130959119D01*
X126601088Y-130469452D01*
X125937118Y-130109151D01*
X125215615Y-129885306D01*
X124464305Y-129806520D01*
X123712062Y-129875822D01*
X122987792Y-130090548D01*
X122319330Y-130442445D01*
X122278912Y-130469452D01*
X121918724Y-130959119D01*
X120150000Y-130959119D01*
X120150000Y-109044592D01*
X140895263Y-109044592D01*
X140895263Y-109575408D01*
X140998820Y-110096026D01*
X141201955Y-110586437D01*
X141496861Y-111027795D01*
X141872205Y-111403139D01*
X142313563Y-111698045D01*
X142803974Y-111901180D01*
X143324592Y-112004737D01*
X143855408Y-112004737D01*
X144376026Y-111901180D01*
X144866437Y-111698045D01*
X145307795Y-111403139D01*
X145683139Y-111027795D01*
X145978045Y-110586437D01*
X146181180Y-110096026D01*
X146284737Y-109575408D01*
X146284737Y-109044592D01*
X146181180Y-108523974D01*
X145978045Y-108033563D01*
X145683139Y-107592205D01*
X145307795Y-107216861D01*
X144866437Y-106921955D01*
X144376026Y-106718820D01*
X143855408Y-106615263D01*
X143324592Y-106615263D01*
X142803974Y-106718820D01*
X142313563Y-106921955D01*
X141872205Y-107216861D01*
X141496861Y-107592205D01*
X141201955Y-108033563D01*
X140998820Y-108523974D01*
X140895263Y-109044592D01*
X120150000Y-109044592D01*
X120150000Y-87796890D01*
X122998524Y-87796890D01*
X123043175Y-87944099D01*
X123168359Y-88206920D01*
X123342412Y-88440269D01*
X123558645Y-88635178D01*
X123808748Y-88784157D01*
X124083109Y-88881481D01*
X124313000Y-88760814D01*
X124313000Y-87567000D01*
X124567000Y-87567000D01*
X124567000Y-88760814D01*
X124796891Y-88881481D01*
X125071252Y-88784157D01*
X125321355Y-88635178D01*
X125537588Y-88440269D01*
X125711641Y-88206920D01*
X125836825Y-87944099D01*
X125881476Y-87796890D01*
X125760155Y-87567000D01*
X124567000Y-87567000D01*
X124313000Y-87567000D01*
X123119845Y-87567000D01*
X122998524Y-87796890D01*
X120150000Y-87796890D01*
X120150000Y-85256890D01*
X122998524Y-85256890D01*
X123043175Y-85404099D01*
X123168359Y-85666920D01*
X123342412Y-85900269D01*
X123558645Y-86095178D01*
X123684255Y-86170000D01*
X123558645Y-86244822D01*
X123342412Y-86439731D01*
X123168359Y-86673080D01*
X123043175Y-86935901D01*
X122998524Y-87083110D01*
X123119845Y-87313000D01*
X124313000Y-87313000D01*
X124313000Y-85027000D01*
X124567000Y-85027000D01*
X124567000Y-87313000D01*
X125760155Y-87313000D01*
X125881476Y-87083110D01*
X125836825Y-86935901D01*
X125711641Y-86673080D01*
X125537588Y-86439731D01*
X125321355Y-86244822D01*
X125195745Y-86170000D01*
X125321355Y-86095178D01*
X125537588Y-85900269D01*
X125711641Y-85666920D01*
X125836825Y-85404099D01*
X125881476Y-85256890D01*
X125760155Y-85027000D01*
X124567000Y-85027000D01*
X124313000Y-85027000D01*
X123119845Y-85027000D01*
X122998524Y-85256890D01*
X120150000Y-85256890D01*
X120150000Y-82716890D01*
X122998524Y-82716890D01*
X123043175Y-82864099D01*
X123168359Y-83126920D01*
X123342412Y-83360269D01*
X123558645Y-83555178D01*
X123684255Y-83630000D01*
X123558645Y-83704822D01*
X123342412Y-83899731D01*
X123168359Y-84133080D01*
X123043175Y-84395901D01*
X122998524Y-84543110D01*
X123119845Y-84773000D01*
X124313000Y-84773000D01*
X124313000Y-82487000D01*
X124567000Y-82487000D01*
X124567000Y-84773000D01*
X125760155Y-84773000D01*
X125881476Y-84543110D01*
X125836825Y-84395901D01*
X125711641Y-84133080D01*
X125537588Y-83899731D01*
X125321355Y-83704822D01*
X125195745Y-83630000D01*
X125321355Y-83555178D01*
X125537588Y-83360269D01*
X125711641Y-83126920D01*
X125836825Y-82864099D01*
X125881476Y-82716890D01*
X125760155Y-82487000D01*
X124567000Y-82487000D01*
X124313000Y-82487000D01*
X123119845Y-82487000D01*
X122998524Y-82716890D01*
X120150000Y-82716890D01*
X120150000Y-80176890D01*
X122998524Y-80176890D01*
X123043175Y-80324099D01*
X123168359Y-80586920D01*
X123342412Y-80820269D01*
X123558645Y-81015178D01*
X123684255Y-81090000D01*
X123558645Y-81164822D01*
X123342412Y-81359731D01*
X123168359Y-81593080D01*
X123043175Y-81855901D01*
X122998524Y-82003110D01*
X123119845Y-82233000D01*
X124313000Y-82233000D01*
X124313000Y-79947000D01*
X124567000Y-79947000D01*
X124567000Y-82233000D01*
X125760155Y-82233000D01*
X125881476Y-82003110D01*
X125836825Y-81855901D01*
X125711641Y-81593080D01*
X125537588Y-81359731D01*
X125321355Y-81164822D01*
X125195745Y-81090000D01*
X125321355Y-81015178D01*
X125537588Y-80820269D01*
X125711641Y-80586920D01*
X125836825Y-80324099D01*
X125881476Y-80176890D01*
X125760155Y-79947000D01*
X124567000Y-79947000D01*
X124313000Y-79947000D01*
X123119845Y-79947000D01*
X122998524Y-80176890D01*
X120150000Y-80176890D01*
X120150000Y-77636890D01*
X122998524Y-77636890D01*
X123043175Y-77784099D01*
X123168359Y-78046920D01*
X123342412Y-78280269D01*
X123558645Y-78475178D01*
X123684255Y-78550000D01*
X123558645Y-78624822D01*
X123342412Y-78819731D01*
X123168359Y-79053080D01*
X123043175Y-79315901D01*
X122998524Y-79463110D01*
X123119845Y-79693000D01*
X124313000Y-79693000D01*
X124313000Y-77407000D01*
X123119845Y-77407000D01*
X122998524Y-77636890D01*
X120150000Y-77636890D01*
X120150000Y-67602824D01*
X128825098Y-67602824D01*
X128874666Y-68020451D01*
X129004757Y-68420383D01*
X129162786Y-68716038D01*
X129478347Y-68872048D01*
X130790395Y-67560000D01*
X131149605Y-67560000D01*
X132461653Y-68872048D01*
X132777214Y-68716038D01*
X132968020Y-68341255D01*
X133082044Y-67936449D01*
X133108189Y-67602824D01*
X159885098Y-67602824D01*
X159934666Y-68020451D01*
X160064757Y-68420383D01*
X160222786Y-68716038D01*
X160538347Y-68872048D01*
X161850395Y-67560000D01*
X162209605Y-67560000D01*
X163521653Y-68872048D01*
X163837214Y-68716038D01*
X164028020Y-68341255D01*
X164142044Y-67936449D01*
X164174902Y-67517176D01*
X164125334Y-67099549D01*
X163995243Y-66699617D01*
X163837214Y-66403962D01*
X163521653Y-66247952D01*
X162209605Y-67560000D01*
X161850395Y-67560000D01*
X160538347Y-66247952D01*
X160222786Y-66403962D01*
X160031980Y-66778745D01*
X159917956Y-67183551D01*
X159885098Y-67602824D01*
X133108189Y-67602824D01*
X133114902Y-67517176D01*
X133065334Y-67099549D01*
X132935243Y-66699617D01*
X132777214Y-66403962D01*
X132461653Y-66247952D01*
X131149605Y-67560000D01*
X130790395Y-67560000D01*
X129478347Y-66247952D01*
X129162786Y-66403962D01*
X128971980Y-66778745D01*
X128857956Y-67183551D01*
X128825098Y-67602824D01*
X120150000Y-67602824D01*
X120150000Y-66068347D01*
X129657952Y-66068347D01*
X130970000Y-67380395D01*
X132282048Y-66068347D01*
X160717952Y-66068347D01*
X162030000Y-67380395D01*
X163342048Y-66068347D01*
X163186038Y-65752786D01*
X162811255Y-65561980D01*
X162406449Y-65447956D01*
X161987176Y-65415098D01*
X161569549Y-65464666D01*
X161169617Y-65594757D01*
X160873962Y-65752786D01*
X160717952Y-66068347D01*
X132282048Y-66068347D01*
X132126038Y-65752786D01*
X131751255Y-65561980D01*
X131346449Y-65447956D01*
X130927176Y-65415098D01*
X130509549Y-65464666D01*
X130109617Y-65594757D01*
X129813962Y-65752786D01*
X129657952Y-66068347D01*
X120150000Y-66068347D01*
X120150000Y-62360881D01*
X121918724Y-62360881D01*
X122278912Y-62850548D01*
X122942882Y-63210849D01*
X123664385Y-63434694D01*
X124415695Y-63513480D01*
X125167938Y-63444178D01*
X125892208Y-63229452D01*
X126560670Y-62877555D01*
X126601088Y-62850548D01*
X126961276Y-62360881D01*
X167918724Y-62360881D01*
X168278912Y-62850548D01*
X168942882Y-63210849D01*
X169664385Y-63434694D01*
X170415695Y-63513480D01*
X171167938Y-63444178D01*
X171892208Y-63229452D01*
X172560670Y-62877555D01*
X172601088Y-62850548D01*
X172961276Y-62360881D01*
X170440000Y-59839605D01*
X167918724Y-62360881D01*
X126961276Y-62360881D01*
X124440000Y-59839605D01*
X121918724Y-62360881D01*
X120150000Y-62360881D01*
X120150000Y-59691618D01*
X120154991Y-59635695D01*
X120586520Y-59635695D01*
X120655822Y-60387938D01*
X120870548Y-61112208D01*
X121222445Y-61780670D01*
X121249452Y-61821088D01*
X121739119Y-62181276D01*
X124260395Y-59660000D01*
X124619605Y-59660000D01*
X127140881Y-62181276D01*
X127630548Y-61821088D01*
X127990849Y-61157118D01*
X128214694Y-60435615D01*
X128293480Y-59684305D01*
X128224178Y-58932062D01*
X128187990Y-58810000D01*
X137451928Y-58810000D01*
X137451928Y-60510000D01*
X137464188Y-60634482D01*
X137500498Y-60754180D01*
X137559463Y-60864494D01*
X137638815Y-60961185D01*
X137735506Y-61040537D01*
X137845820Y-61099502D01*
X137965518Y-61135812D01*
X138090000Y-61148072D01*
X139790000Y-61148072D01*
X139914482Y-61135812D01*
X140034180Y-61099502D01*
X140144494Y-61040537D01*
X140241185Y-60961185D01*
X140320537Y-60864494D01*
X140379502Y-60754180D01*
X140401513Y-60681620D01*
X140533368Y-60813475D01*
X140776589Y-60975990D01*
X141046842Y-61087932D01*
X141333740Y-61145000D01*
X141626260Y-61145000D01*
X141913158Y-61087932D01*
X142183411Y-60975990D01*
X142426632Y-60813475D01*
X142633475Y-60606632D01*
X142750000Y-60432240D01*
X142866525Y-60606632D01*
X143073368Y-60813475D01*
X143316589Y-60975990D01*
X143586842Y-61087932D01*
X143873740Y-61145000D01*
X144166260Y-61145000D01*
X144453158Y-61087932D01*
X144723411Y-60975990D01*
X144966632Y-60813475D01*
X145173475Y-60606632D01*
X145290000Y-60432240D01*
X145406525Y-60606632D01*
X145613368Y-60813475D01*
X145856589Y-60975990D01*
X146126842Y-61087932D01*
X146413740Y-61145000D01*
X146706260Y-61145000D01*
X146993158Y-61087932D01*
X147263411Y-60975990D01*
X147506632Y-60813475D01*
X147713475Y-60606632D01*
X147830000Y-60432240D01*
X147946525Y-60606632D01*
X148153368Y-60813475D01*
X148396589Y-60975990D01*
X148666842Y-61087932D01*
X148953740Y-61145000D01*
X149246260Y-61145000D01*
X149533158Y-61087932D01*
X149803411Y-60975990D01*
X150046632Y-60813475D01*
X150253475Y-60606632D01*
X150370000Y-60432240D01*
X150486525Y-60606632D01*
X150693368Y-60813475D01*
X150936589Y-60975990D01*
X151206842Y-61087932D01*
X151493740Y-61145000D01*
X151786260Y-61145000D01*
X152073158Y-61087932D01*
X152343411Y-60975990D01*
X152586632Y-60813475D01*
X152793475Y-60606632D01*
X152910000Y-60432240D01*
X153026525Y-60606632D01*
X153233368Y-60813475D01*
X153476589Y-60975990D01*
X153746842Y-61087932D01*
X154033740Y-61145000D01*
X154326260Y-61145000D01*
X154613158Y-61087932D01*
X154883411Y-60975990D01*
X155126632Y-60813475D01*
X155333475Y-60606632D01*
X155450000Y-60432240D01*
X155566525Y-60606632D01*
X155773368Y-60813475D01*
X156016589Y-60975990D01*
X156286842Y-61087932D01*
X156573740Y-61145000D01*
X156866260Y-61145000D01*
X157153158Y-61087932D01*
X157423411Y-60975990D01*
X157666632Y-60813475D01*
X157873475Y-60606632D01*
X158035990Y-60363411D01*
X158147932Y-60093158D01*
X158205000Y-59806260D01*
X158205000Y-59635695D01*
X166586520Y-59635695D01*
X166655822Y-60387938D01*
X166870548Y-61112208D01*
X167222445Y-61780670D01*
X167249452Y-61821088D01*
X167739119Y-62181276D01*
X170260395Y-59660000D01*
X170619605Y-59660000D01*
X173140881Y-62181276D01*
X173630548Y-61821088D01*
X173990849Y-61157118D01*
X174214694Y-60435615D01*
X174293480Y-59684305D01*
X174224178Y-58932062D01*
X174009452Y-58207792D01*
X173657555Y-57539330D01*
X173630548Y-57498912D01*
X173140881Y-57138724D01*
X170619605Y-59660000D01*
X170260395Y-59660000D01*
X167739119Y-57138724D01*
X167249452Y-57498912D01*
X166889151Y-58162882D01*
X166665306Y-58884385D01*
X166586520Y-59635695D01*
X158205000Y-59635695D01*
X158205000Y-59513740D01*
X158147932Y-59226842D01*
X158035990Y-58956589D01*
X157873475Y-58713368D01*
X157666632Y-58506525D01*
X157423411Y-58344010D01*
X157153158Y-58232068D01*
X156866260Y-58175000D01*
X156573740Y-58175000D01*
X156286842Y-58232068D01*
X156016589Y-58344010D01*
X155773368Y-58506525D01*
X155566525Y-58713368D01*
X155450000Y-58887760D01*
X155333475Y-58713368D01*
X155126632Y-58506525D01*
X154883411Y-58344010D01*
X154613158Y-58232068D01*
X154326260Y-58175000D01*
X154033740Y-58175000D01*
X153746842Y-58232068D01*
X153476589Y-58344010D01*
X153233368Y-58506525D01*
X153026525Y-58713368D01*
X152910000Y-58887760D01*
X152793475Y-58713368D01*
X152586632Y-58506525D01*
X152343411Y-58344010D01*
X152073158Y-58232068D01*
X151786260Y-58175000D01*
X151493740Y-58175000D01*
X151206842Y-58232068D01*
X150936589Y-58344010D01*
X150693368Y-58506525D01*
X150486525Y-58713368D01*
X150370000Y-58887760D01*
X150253475Y-58713368D01*
X150046632Y-58506525D01*
X149803411Y-58344010D01*
X149533158Y-58232068D01*
X149246260Y-58175000D01*
X148953740Y-58175000D01*
X148666842Y-58232068D01*
X148396589Y-58344010D01*
X148153368Y-58506525D01*
X147946525Y-58713368D01*
X147830000Y-58887760D01*
X147713475Y-58713368D01*
X147506632Y-58506525D01*
X147263411Y-58344010D01*
X146993158Y-58232068D01*
X146706260Y-58175000D01*
X146413740Y-58175000D01*
X146126842Y-58232068D01*
X145856589Y-58344010D01*
X145613368Y-58506525D01*
X145406525Y-58713368D01*
X145290000Y-58887760D01*
X145173475Y-58713368D01*
X144966632Y-58506525D01*
X144723411Y-58344010D01*
X144453158Y-58232068D01*
X144166260Y-58175000D01*
X143873740Y-58175000D01*
X143586842Y-58232068D01*
X143316589Y-58344010D01*
X143073368Y-58506525D01*
X142866525Y-58713368D01*
X142750000Y-58887760D01*
X142633475Y-58713368D01*
X142426632Y-58506525D01*
X142183411Y-58344010D01*
X141913158Y-58232068D01*
X141626260Y-58175000D01*
X141333740Y-58175000D01*
X141046842Y-58232068D01*
X140776589Y-58344010D01*
X140533368Y-58506525D01*
X140401513Y-58638380D01*
X140379502Y-58565820D01*
X140320537Y-58455506D01*
X140241185Y-58358815D01*
X140144494Y-58279463D01*
X140034180Y-58220498D01*
X139914482Y-58184188D01*
X139790000Y-58171928D01*
X138090000Y-58171928D01*
X137965518Y-58184188D01*
X137845820Y-58220498D01*
X137735506Y-58279463D01*
X137638815Y-58358815D01*
X137559463Y-58455506D01*
X137500498Y-58565820D01*
X137464188Y-58685518D01*
X137451928Y-58810000D01*
X128187990Y-58810000D01*
X128009452Y-58207792D01*
X127657555Y-57539330D01*
X127630548Y-57498912D01*
X127140881Y-57138724D01*
X124619605Y-59660000D01*
X124260395Y-59660000D01*
X121739119Y-57138724D01*
X121249452Y-57498912D01*
X120889151Y-58162882D01*
X120665306Y-58884385D01*
X120586520Y-59635695D01*
X120154991Y-59635695D01*
X120220578Y-58900808D01*
X120421705Y-58165611D01*
X120749846Y-57477649D01*
X121122447Y-56959119D01*
X121918724Y-56959119D01*
X124440000Y-59480395D01*
X126961276Y-56959119D01*
X167918724Y-56959119D01*
X170440000Y-59480395D01*
X172961276Y-56959119D01*
X172601088Y-56469452D01*
X171937118Y-56109151D01*
X171215615Y-55885306D01*
X170464305Y-55806520D01*
X169712062Y-55875822D01*
X168987792Y-56090548D01*
X168319330Y-56442445D01*
X168278912Y-56469452D01*
X167918724Y-56959119D01*
X126961276Y-56959119D01*
X126601088Y-56469452D01*
X125937118Y-56109151D01*
X125215615Y-55885306D01*
X124464305Y-55806520D01*
X123712062Y-55875822D01*
X122987792Y-56090548D01*
X122319330Y-56442445D01*
X122278912Y-56469452D01*
X121918724Y-56959119D01*
X121122447Y-56959119D01*
X121194628Y-56858669D01*
X121741988Y-56328239D01*
X122374639Y-55903116D01*
X123072561Y-55596749D01*
X123819183Y-55417501D01*
X124466030Y-55370000D01*
X170408382Y-55370000D01*
X171199192Y-55440578D01*
G04 #@! TA.AperFunction,Conductor*
D27*
G36*
X171199192Y-55440578D02*
G01*
X171934389Y-55641705D01*
X172622351Y-55969846D01*
X173241331Y-56414628D01*
X173771761Y-56961988D01*
X174196884Y-57594639D01*
X174503251Y-58292561D01*
X174682499Y-59039183D01*
X174730001Y-59686044D01*
X174730001Y-63511954D01*
X174526912Y-63427832D01*
X174211033Y-63365000D01*
X173888967Y-63365000D01*
X173573088Y-63427832D01*
X173275537Y-63551082D01*
X173007748Y-63730013D01*
X172780013Y-63957748D01*
X172601082Y-64225537D01*
X172477832Y-64523088D01*
X172415000Y-64838967D01*
X172415000Y-65161033D01*
X172477832Y-65476912D01*
X172601082Y-65774463D01*
X172780013Y-66042252D01*
X173007748Y-66269987D01*
X173275537Y-66448918D01*
X173573088Y-66572168D01*
X173888967Y-66635000D01*
X174211033Y-66635000D01*
X174526912Y-66572168D01*
X174730001Y-66488046D01*
X174730001Y-75511954D01*
X174526912Y-75427832D01*
X174211033Y-75365000D01*
X173888967Y-75365000D01*
X173573088Y-75427832D01*
X173275537Y-75551082D01*
X173007748Y-75730013D01*
X172780013Y-75957748D01*
X172601082Y-76225537D01*
X172535001Y-76385070D01*
X172535001Y-68655752D01*
X172540492Y-68600000D01*
X172518578Y-68377501D01*
X172488838Y-68279463D01*
X172453677Y-68163554D01*
X172348285Y-67966378D01*
X172206450Y-67793552D01*
X172163141Y-67758010D01*
X171285000Y-66879869D01*
X171285000Y-66853740D01*
X171227932Y-66566842D01*
X171115990Y-66296589D01*
X170953475Y-66053368D01*
X170746632Y-65846525D01*
X170503411Y-65684010D01*
X170233158Y-65572068D01*
X169946260Y-65515000D01*
X169653740Y-65515000D01*
X169602140Y-65525264D01*
X169622168Y-65476912D01*
X169685000Y-65161033D01*
X169685000Y-64838967D01*
X169622168Y-64523088D01*
X169498918Y-64225537D01*
X169319987Y-63957748D01*
X169092252Y-63730013D01*
X168824463Y-63551082D01*
X168526912Y-63427832D01*
X168211033Y-63365000D01*
X167888967Y-63365000D01*
X167573088Y-63427832D01*
X167275537Y-63551082D01*
X167007748Y-63730013D01*
X166780013Y-63957748D01*
X166601082Y-64225537D01*
X166477832Y-64523088D01*
X166415000Y-64838967D01*
X166415000Y-65161033D01*
X166477832Y-65476912D01*
X166601082Y-65774463D01*
X166780013Y-66042252D01*
X167007748Y-66269987D01*
X167275537Y-66448918D01*
X167573088Y-66572168D01*
X167888967Y-66635000D01*
X168211033Y-66635000D01*
X168364586Y-66604457D01*
X168315000Y-66853740D01*
X168315000Y-66879868D01*
X164139870Y-71054999D01*
X133275752Y-71054999D01*
X133220001Y-71049508D01*
X133164249Y-71054999D01*
X132997502Y-71071422D01*
X132783554Y-71136323D01*
X132586378Y-71241715D01*
X132413552Y-71383550D01*
X132378012Y-71426856D01*
X131446845Y-72358023D01*
X131180279Y-72305000D01*
X130759721Y-72305000D01*
X130347244Y-72387047D01*
X129958698Y-72547988D01*
X129609017Y-72781637D01*
X129311637Y-73079017D01*
X129077988Y-73428698D01*
X128917047Y-73817244D01*
X128835000Y-74229721D01*
X128835000Y-74650279D01*
X128917047Y-75062756D01*
X129077988Y-75451302D01*
X129311637Y-75800983D01*
X129609017Y-76098363D01*
X129958698Y-76332012D01*
X130347244Y-76492953D01*
X130759721Y-76575000D01*
X131180279Y-76575000D01*
X131592756Y-76492953D01*
X131981302Y-76332012D01*
X132330983Y-76098363D01*
X132628363Y-75800983D01*
X132862012Y-75451302D01*
X133022953Y-75062756D01*
X133105000Y-74650279D01*
X133105000Y-74229721D01*
X133051977Y-73963155D01*
X133690133Y-73324999D01*
X160207277Y-73324999D01*
X160137988Y-73428698D01*
X159977047Y-73817244D01*
X159895000Y-74229721D01*
X159895000Y-74650279D01*
X159977047Y-75062756D01*
X160137988Y-75451302D01*
X160371637Y-75800983D01*
X160669017Y-76098363D01*
X160895000Y-76249360D01*
X160895001Y-97734238D01*
X160889509Y-97790000D01*
X160911423Y-98012498D01*
X160976324Y-98226446D01*
X160976325Y-98226447D01*
X161081717Y-98423623D01*
X161223552Y-98596449D01*
X161266860Y-98631991D01*
X166395000Y-103760133D01*
X166395000Y-106473203D01*
X166339814Y-106369956D01*
X166075413Y-106274192D01*
X165119605Y-107230000D01*
X166075413Y-108185808D01*
X166339814Y-108090044D01*
X166395001Y-107976602D01*
X166395001Y-109664239D01*
X166389509Y-109720000D01*
X166411423Y-109942498D01*
X166476324Y-110156446D01*
X166512089Y-110223357D01*
X166581717Y-110353623D01*
X166723552Y-110526449D01*
X166766860Y-110561991D01*
X167897519Y-111692652D01*
X167800681Y-111722027D01*
X167710125Y-111759536D01*
X167599808Y-111818502D01*
X167518309Y-111872958D01*
X167479266Y-111905000D01*
X159500132Y-111905000D01*
X155960545Y-108365413D01*
X163984192Y-108365413D01*
X164079956Y-108629814D01*
X164369571Y-108770704D01*
X164681108Y-108852384D01*
X165002595Y-108871718D01*
X165321675Y-108827961D01*
X165626088Y-108722795D01*
X165800044Y-108629814D01*
X165895808Y-108365413D01*
X164940000Y-107409605D01*
X163984192Y-108365413D01*
X155960545Y-108365413D01*
X154887727Y-107292595D01*
X163298282Y-107292595D01*
X163342039Y-107611675D01*
X163447205Y-107916088D01*
X163540186Y-108090044D01*
X163804587Y-108185808D01*
X164760395Y-107230000D01*
X163804587Y-106274192D01*
X163540186Y-106369956D01*
X163399296Y-106659571D01*
X163317616Y-106971108D01*
X163298282Y-107292595D01*
X154887727Y-107292595D01*
X153689719Y-106094587D01*
X163984192Y-106094587D01*
X164940000Y-107050395D01*
X165895808Y-106094587D01*
X165800044Y-105830186D01*
X165510429Y-105689296D01*
X165198892Y-105607616D01*
X164877405Y-105588282D01*
X164558325Y-105632039D01*
X164253912Y-105737205D01*
X164079956Y-105830186D01*
X163984192Y-106094587D01*
X153689719Y-106094587D01*
X145991996Y-98396865D01*
X145956449Y-98353551D01*
X145783623Y-98211716D01*
X145586447Y-98106324D01*
X145372499Y-98041423D01*
X145205752Y-98025000D01*
X145205751Y-98025000D01*
X145150000Y-98019509D01*
X145094249Y-98025000D01*
X133380142Y-98025000D01*
X131385010Y-96029869D01*
X131385010Y-84188024D01*
X135751581Y-84188024D01*
X135832543Y-84439907D01*
X136101274Y-84568555D01*
X136389938Y-84642304D01*
X136687444Y-84658321D01*
X136982358Y-84615989D01*
X137263346Y-84516936D01*
X137407457Y-84439907D01*
X137488419Y-84188024D01*
X136620000Y-83319605D01*
X135751581Y-84188024D01*
X131385010Y-84188024D01*
X131385010Y-83207444D01*
X135101679Y-83207444D01*
X135144011Y-83502358D01*
X135243064Y-83783346D01*
X135320093Y-83927457D01*
X135571976Y-84008419D01*
X136440395Y-83140000D01*
X136799605Y-83140000D01*
X137668024Y-84008419D01*
X137919907Y-83927457D01*
X138048555Y-83658726D01*
X138122304Y-83370062D01*
X138138321Y-83072556D01*
X138126620Y-82991032D01*
X148697500Y-82991032D01*
X148697500Y-83288968D01*
X148755625Y-83581180D01*
X148869640Y-83856437D01*
X149035165Y-84104162D01*
X149245838Y-84314835D01*
X149493563Y-84480360D01*
X149768820Y-84594375D01*
X150061032Y-84652500D01*
X150358968Y-84652500D01*
X150651180Y-84594375D01*
X150926437Y-84480360D01*
X151174162Y-84314835D01*
X151384835Y-84104162D01*
X151550360Y-83856437D01*
X151664375Y-83581180D01*
X151722500Y-83288968D01*
X151722500Y-82991032D01*
X151664375Y-82698820D01*
X151550360Y-82423563D01*
X151384835Y-82175838D01*
X151174162Y-81965165D01*
X150926437Y-81799640D01*
X150651180Y-81685625D01*
X150358968Y-81627500D01*
X150061032Y-81627500D01*
X149768820Y-81685625D01*
X149493563Y-81799640D01*
X149245838Y-81965165D01*
X149035165Y-82175838D01*
X148869640Y-82423563D01*
X148755625Y-82698820D01*
X148697500Y-82991032D01*
X138126620Y-82991032D01*
X138095989Y-82777642D01*
X137996936Y-82496654D01*
X137919907Y-82352543D01*
X137668024Y-82271581D01*
X136799605Y-83140000D01*
X136440395Y-83140000D01*
X135571976Y-82271581D01*
X135320093Y-82352543D01*
X135191445Y-82621274D01*
X135117696Y-82909938D01*
X135101679Y-83207444D01*
X131385010Y-83207444D01*
X131385010Y-82091976D01*
X135751581Y-82091976D01*
X136620000Y-82960395D01*
X137488419Y-82091976D01*
X137407457Y-81840093D01*
X137138726Y-81711445D01*
X136850062Y-81637696D01*
X136552556Y-81621679D01*
X136257642Y-81664011D01*
X135976654Y-81763064D01*
X135832543Y-81840093D01*
X135751581Y-82091976D01*
X131385010Y-82091976D01*
X131385010Y-78805753D01*
X131390500Y-78750009D01*
X131385010Y-78694265D01*
X131385010Y-78694258D01*
X131368587Y-78527511D01*
X131303686Y-78313563D01*
X131198294Y-78116387D01*
X131056459Y-77943561D01*
X131013151Y-77908019D01*
X128135000Y-75029869D01*
X128135000Y-70425752D01*
X128140491Y-70370000D01*
X128118577Y-70147501D01*
X128053676Y-69933553D01*
X127948284Y-69736377D01*
X127885603Y-69660000D01*
X127806449Y-69563551D01*
X127763140Y-69528008D01*
X127286785Y-69051653D01*
X129657952Y-69051653D01*
X129813962Y-69367214D01*
X130188745Y-69558020D01*
X130593551Y-69672044D01*
X131012824Y-69704902D01*
X131430451Y-69655334D01*
X131830383Y-69525243D01*
X132126038Y-69367214D01*
X132282048Y-69051653D01*
X160717952Y-69051653D01*
X160873962Y-69367214D01*
X161248745Y-69558020D01*
X161653551Y-69672044D01*
X162072824Y-69704902D01*
X162490451Y-69655334D01*
X162890383Y-69525243D01*
X163186038Y-69367214D01*
X163342048Y-69051653D01*
X162030000Y-67739605D01*
X160717952Y-69051653D01*
X132282048Y-69051653D01*
X130970000Y-67739605D01*
X129657952Y-69051653D01*
X127286785Y-69051653D01*
X127131995Y-68896864D01*
X127096449Y-68853551D01*
X126923623Y-68711716D01*
X126726447Y-68606324D01*
X126512499Y-68541423D01*
X126345752Y-68525000D01*
X126345751Y-68525000D01*
X126290000Y-68519509D01*
X126234249Y-68525000D01*
X125857683Y-68525000D01*
X125820537Y-68455506D01*
X125741185Y-68358815D01*
X125644494Y-68279463D01*
X125534180Y-68220498D01*
X125414482Y-68184188D01*
X125290000Y-68171928D01*
X123590000Y-68171928D01*
X123465518Y-68184188D01*
X123345820Y-68220498D01*
X123235506Y-68279463D01*
X123138815Y-68358815D01*
X123059463Y-68455506D01*
X123000498Y-68565820D01*
X122964188Y-68685518D01*
X122951928Y-68810000D01*
X122951928Y-70510000D01*
X122964188Y-70634482D01*
X123000498Y-70754180D01*
X123059463Y-70864494D01*
X123138815Y-70961185D01*
X123235506Y-71040537D01*
X123345820Y-71099502D01*
X123426466Y-71123966D01*
X123342412Y-71199731D01*
X123168359Y-71433080D01*
X123043175Y-71695901D01*
X122998524Y-71843110D01*
X123119845Y-72073000D01*
X124313000Y-72073000D01*
X124313000Y-72053000D01*
X124567000Y-72053000D01*
X124567000Y-72073000D01*
X124587000Y-72073000D01*
X124587000Y-72327000D01*
X124567000Y-72327000D01*
X124567000Y-72347000D01*
X124313000Y-72347000D01*
X124313000Y-72327000D01*
X123119845Y-72327000D01*
X122998524Y-72556890D01*
X123043175Y-72704099D01*
X123168359Y-72966920D01*
X123342412Y-73200269D01*
X123558645Y-73395178D01*
X123675534Y-73464805D01*
X123493368Y-73586525D01*
X123286525Y-73793368D01*
X123124010Y-74036589D01*
X123012068Y-74306842D01*
X122955000Y-74593740D01*
X122955000Y-74886260D01*
X123012068Y-75173158D01*
X123124010Y-75443411D01*
X123286525Y-75686632D01*
X123493368Y-75893475D01*
X123675534Y-76015195D01*
X123558645Y-76084822D01*
X123342412Y-76279731D01*
X123168359Y-76513080D01*
X123043175Y-76775901D01*
X122998524Y-76923110D01*
X123119845Y-77153000D01*
X124313000Y-77153000D01*
X124313000Y-77133000D01*
X124567000Y-77133000D01*
X124567000Y-77153000D01*
X124587000Y-77153000D01*
X124587000Y-77407000D01*
X124567000Y-77407000D01*
X124567000Y-79693000D01*
X125760155Y-79693000D01*
X125881476Y-79463110D01*
X125836825Y-79315901D01*
X125711641Y-79053080D01*
X125537588Y-78819731D01*
X125321355Y-78624822D01*
X125195745Y-78550000D01*
X125321355Y-78475178D01*
X125537588Y-78280269D01*
X125711641Y-78046920D01*
X125836825Y-77784099D01*
X125846633Y-77751764D01*
X127865000Y-79770132D01*
X127865001Y-97694238D01*
X127859509Y-97750000D01*
X127881423Y-97972498D01*
X127946324Y-98186446D01*
X127967705Y-98226447D01*
X128051717Y-98383623D01*
X128193552Y-98556449D01*
X128236860Y-98591991D01*
X131068009Y-101423141D01*
X131103551Y-101466449D01*
X131276377Y-101608284D01*
X131473553Y-101713676D01*
X131687501Y-101778577D01*
X131854248Y-101795000D01*
X131854257Y-101795000D01*
X131909999Y-101800490D01*
X131965741Y-101795000D01*
X144412089Y-101795000D01*
X157920234Y-115303147D01*
X157955772Y-115346450D01*
X157999075Y-115381988D01*
X157999077Y-115381990D01*
X158128598Y-115488285D01*
X158325774Y-115593677D01*
X158539722Y-115658578D01*
X158762221Y-115680492D01*
X158817973Y-115675001D01*
X170534250Y-115675001D01*
X170590001Y-115680492D01*
X170645752Y-115675001D01*
X170645753Y-115675001D01*
X170812500Y-115658578D01*
X171026448Y-115593677D01*
X171223624Y-115488285D01*
X171396450Y-115346450D01*
X171431997Y-115303136D01*
X171553135Y-115181998D01*
X171596449Y-115146451D01*
X171738284Y-114973625D01*
X171843676Y-114776449D01*
X171908577Y-114562501D01*
X171925000Y-114395754D01*
X171925000Y-114395744D01*
X171930490Y-114340003D01*
X171925000Y-114284261D01*
X171925000Y-113345751D01*
X171925664Y-113339009D01*
X171925664Y-113314450D01*
X171928072Y-113290000D01*
X171928072Y-112790000D01*
X171925664Y-112765550D01*
X171925664Y-112740991D01*
X171913404Y-112616510D01*
X171894282Y-112520377D01*
X171857973Y-112400681D01*
X171820464Y-112310125D01*
X171761498Y-112199808D01*
X171707042Y-112118309D01*
X171627690Y-112021618D01*
X171558382Y-111952310D01*
X171461691Y-111872958D01*
X171380192Y-111818502D01*
X171269875Y-111759536D01*
X171179319Y-111722027D01*
X171059623Y-111685718D01*
X170963490Y-111666596D01*
X170839009Y-111654336D01*
X170814450Y-111654336D01*
X170790000Y-111651928D01*
X170707090Y-111651928D01*
X170643675Y-111442877D01*
X170552260Y-111271850D01*
X170543676Y-111243553D01*
X170438284Y-111046377D01*
X170331989Y-110916856D01*
X170331987Y-110916854D01*
X170296449Y-110873551D01*
X170253146Y-110838013D01*
X168665000Y-109249869D01*
X168665000Y-108155021D01*
X168750013Y-108282252D01*
X168977748Y-108509987D01*
X169245537Y-108688918D01*
X169543088Y-108812168D01*
X169858967Y-108875000D01*
X170181033Y-108875000D01*
X170496912Y-108812168D01*
X170794463Y-108688918D01*
X171062252Y-108509987D01*
X171289987Y-108282252D01*
X171468918Y-108014463D01*
X171592168Y-107716912D01*
X171655000Y-107401033D01*
X171655000Y-107078967D01*
X171592168Y-106763088D01*
X171468918Y-106465537D01*
X171289987Y-106197748D01*
X171155000Y-106062761D01*
X171155000Y-103088553D01*
X171189744Y-103065338D01*
X171445338Y-102809744D01*
X171646156Y-102509199D01*
X171784482Y-102175250D01*
X171855000Y-101820732D01*
X171855000Y-101459268D01*
X171784482Y-101104750D01*
X171646156Y-100770801D01*
X171445338Y-100470256D01*
X171189744Y-100214662D01*
X170889199Y-100013844D01*
X170555250Y-99875518D01*
X170200732Y-99805000D01*
X169839268Y-99805000D01*
X169484750Y-99875518D01*
X169150801Y-100013844D01*
X168850256Y-100214662D01*
X168594662Y-100470256D01*
X168393844Y-100770801D01*
X168255518Y-101104750D01*
X168185000Y-101459268D01*
X168185000Y-101820732D01*
X168255518Y-102175250D01*
X168393844Y-102509199D01*
X168594662Y-102809744D01*
X168850256Y-103065338D01*
X168885000Y-103088553D01*
X168885001Y-106062760D01*
X168750013Y-106197748D01*
X168665000Y-106324979D01*
X168665000Y-103345752D01*
X168670491Y-103290000D01*
X168648577Y-103067501D01*
X168583676Y-102853553D01*
X168478284Y-102656377D01*
X168371989Y-102526856D01*
X168371987Y-102526854D01*
X168336449Y-102483551D01*
X168293146Y-102448013D01*
X163165000Y-97319869D01*
X163165000Y-76249360D01*
X163390983Y-76098363D01*
X163688363Y-75800983D01*
X163922012Y-75451302D01*
X164082953Y-75062756D01*
X164165000Y-74650279D01*
X164165000Y-74229721D01*
X164082953Y-73817244D01*
X163922012Y-73428698D01*
X163852723Y-73324999D01*
X164554250Y-73324999D01*
X164610001Y-73330490D01*
X164665752Y-73324999D01*
X164665753Y-73324999D01*
X164832500Y-73308576D01*
X165046448Y-73243675D01*
X165243624Y-73138283D01*
X165416450Y-72996448D01*
X165451997Y-72953134D01*
X169800000Y-68605132D01*
X170265002Y-69070134D01*
X170265002Y-69585258D01*
X170233158Y-69572068D01*
X169946260Y-69515000D01*
X169653740Y-69515000D01*
X169366842Y-69572068D01*
X169096589Y-69684010D01*
X168853368Y-69846525D01*
X168646525Y-70053368D01*
X168484010Y-70296589D01*
X168372068Y-70566842D01*
X168315000Y-70853740D01*
X168315000Y-71146260D01*
X168372068Y-71433158D01*
X168484010Y-71703411D01*
X168646525Y-71946632D01*
X168853368Y-72153475D01*
X169096589Y-72315990D01*
X169366842Y-72427932D01*
X169653740Y-72485000D01*
X169946260Y-72485000D01*
X170233158Y-72427932D01*
X170265002Y-72414742D01*
X170265002Y-73585258D01*
X170233158Y-73572068D01*
X169946260Y-73515000D01*
X169653740Y-73515000D01*
X169366842Y-73572068D01*
X169096589Y-73684010D01*
X168853368Y-73846525D01*
X168646525Y-74053368D01*
X168484010Y-74296589D01*
X168372068Y-74566842D01*
X168315000Y-74853740D01*
X168315000Y-75146260D01*
X168364586Y-75395543D01*
X168211033Y-75365000D01*
X167888967Y-75365000D01*
X167573088Y-75427832D01*
X167275537Y-75551082D01*
X167007748Y-75730013D01*
X166780013Y-75957748D01*
X166601082Y-76225537D01*
X166477832Y-76523088D01*
X166415000Y-76838967D01*
X166415000Y-77161033D01*
X166477832Y-77476912D01*
X166601082Y-77774463D01*
X166780013Y-78042252D01*
X167007748Y-78269987D01*
X167275537Y-78448918D01*
X167573088Y-78572168D01*
X167888967Y-78635000D01*
X168211033Y-78635000D01*
X168526912Y-78572168D01*
X168824463Y-78448918D01*
X169092252Y-78269987D01*
X169319987Y-78042252D01*
X169498918Y-77774463D01*
X169622168Y-77476912D01*
X169685000Y-77161033D01*
X169685000Y-76838967D01*
X169622168Y-76523088D01*
X169602140Y-76474736D01*
X169653740Y-76485000D01*
X169946260Y-76485000D01*
X170233158Y-76427932D01*
X170265001Y-76414742D01*
X170265001Y-79429867D01*
X169256860Y-80438009D01*
X169213552Y-80473551D01*
X169071717Y-80646377D01*
X169039609Y-80706448D01*
X168966324Y-80843554D01*
X168901423Y-81057502D01*
X168879509Y-81280000D01*
X168885001Y-81335761D01*
X168885000Y-84561928D01*
X168820000Y-84561928D01*
X168695518Y-84574188D01*
X168575820Y-84610498D01*
X168465506Y-84669463D01*
X168368815Y-84748815D01*
X168289463Y-84845506D01*
X168230498Y-84955820D01*
X168194188Y-85075518D01*
X168181928Y-85200000D01*
X168181928Y-87600000D01*
X168194188Y-87724482D01*
X168230498Y-87844180D01*
X168289463Y-87954494D01*
X168368815Y-88051185D01*
X168465506Y-88130537D01*
X168575820Y-88189502D01*
X168695518Y-88225812D01*
X168820000Y-88238072D01*
X171220000Y-88238072D01*
X171344482Y-88225812D01*
X171464180Y-88189502D01*
X171574494Y-88130537D01*
X171671185Y-88051185D01*
X171750537Y-87954494D01*
X171809502Y-87844180D01*
X171845812Y-87724482D01*
X171858072Y-87600000D01*
X171858072Y-85200000D01*
X171845812Y-85075518D01*
X171809502Y-84955820D01*
X171750537Y-84845506D01*
X171671185Y-84748815D01*
X171574494Y-84669463D01*
X171464180Y-84610498D01*
X171344482Y-84574188D01*
X171220000Y-84561928D01*
X171155000Y-84561928D01*
X171155000Y-81750131D01*
X172163141Y-80741991D01*
X172206450Y-80706448D01*
X172348285Y-80533622D01*
X172453677Y-80336446D01*
X172518578Y-80122498D01*
X172535001Y-79955751D01*
X172535001Y-79955750D01*
X172540492Y-79900000D01*
X172535001Y-79844248D01*
X172535001Y-77614930D01*
X172601082Y-77774463D01*
X172780013Y-78042252D01*
X173007748Y-78269987D01*
X173275537Y-78448918D01*
X173573088Y-78572168D01*
X173888967Y-78635000D01*
X174211033Y-78635000D01*
X174526912Y-78572168D01*
X174730001Y-78488046D01*
X174730000Y-133628382D01*
X174659422Y-134419193D01*
X174458295Y-135154389D01*
X174130152Y-135842355D01*
X173685374Y-136461328D01*
X173138012Y-136991761D01*
X172505362Y-137416883D01*
X171807439Y-137723251D01*
X171060819Y-137902499D01*
X170413970Y-137950000D01*
X124471618Y-137950000D01*
X123680807Y-137879422D01*
X122945611Y-137678295D01*
X122257645Y-137350152D01*
X121638672Y-136905374D01*
X121111020Y-136360881D01*
X121918724Y-136360881D01*
X122278912Y-136850548D01*
X122942882Y-137210849D01*
X123664385Y-137434694D01*
X124415695Y-137513480D01*
X125167938Y-137444178D01*
X125892208Y-137229452D01*
X126560670Y-136877555D01*
X126601088Y-136850548D01*
X126961276Y-136360881D01*
X167918724Y-136360881D01*
X168278912Y-136850548D01*
X168942882Y-137210849D01*
X169664385Y-137434694D01*
X170415695Y-137513480D01*
X171167938Y-137444178D01*
X171892208Y-137229452D01*
X172560670Y-136877555D01*
X172601088Y-136850548D01*
X172961276Y-136360881D01*
X170440000Y-133839605D01*
X167918724Y-136360881D01*
X126961276Y-136360881D01*
X124440000Y-133839605D01*
X121918724Y-136360881D01*
X121111020Y-136360881D01*
X121108239Y-136358012D01*
X120683117Y-135725362D01*
X120376749Y-135027439D01*
X120197501Y-134280819D01*
X120150127Y-133635695D01*
X120586520Y-133635695D01*
X120655822Y-134387938D01*
X120870548Y-135112208D01*
X121222445Y-135780670D01*
X121249452Y-135821088D01*
X121739119Y-136181276D01*
X124260395Y-133660000D01*
X124619605Y-133660000D01*
X127140881Y-136181276D01*
X127630548Y-135821088D01*
X127990849Y-135157118D01*
X128214694Y-134435615D01*
X128293480Y-133684305D01*
X128289002Y-133635695D01*
X166586520Y-133635695D01*
X166655822Y-134387938D01*
X166870548Y-135112208D01*
X167222445Y-135780670D01*
X167249452Y-135821088D01*
X167739119Y-136181276D01*
X170260395Y-133660000D01*
X170619605Y-133660000D01*
X173140881Y-136181276D01*
X173630548Y-135821088D01*
X173990849Y-135157118D01*
X174214694Y-134435615D01*
X174293480Y-133684305D01*
X174224178Y-132932062D01*
X174009452Y-132207792D01*
X173657555Y-131539330D01*
X173630548Y-131498912D01*
X173140881Y-131138724D01*
X170619605Y-133660000D01*
X170260395Y-133660000D01*
X167739119Y-131138724D01*
X167249452Y-131498912D01*
X166889151Y-132162882D01*
X166665306Y-132884385D01*
X166586520Y-133635695D01*
X128289002Y-133635695D01*
X128224178Y-132932062D01*
X128009452Y-132207792D01*
X127657555Y-131539330D01*
X127630548Y-131498912D01*
X127140881Y-131138724D01*
X124619605Y-133660000D01*
X124260395Y-133660000D01*
X121739119Y-131138724D01*
X121249452Y-131498912D01*
X120889151Y-132162882D01*
X120665306Y-132884385D01*
X120586520Y-133635695D01*
X120150127Y-133635695D01*
X120150000Y-133633970D01*
X120150000Y-130959119D01*
X121918724Y-130959119D01*
X124440000Y-133480395D01*
X126961276Y-130959119D01*
X167918724Y-130959119D01*
X170440000Y-133480395D01*
X172961276Y-130959119D01*
X172601088Y-130469452D01*
X171937118Y-130109151D01*
X171215615Y-129885306D01*
X170464305Y-129806520D01*
X169712062Y-129875822D01*
X168987792Y-130090548D01*
X168319330Y-130442445D01*
X168278912Y-130469452D01*
X167918724Y-130959119D01*
X126961276Y-130959119D01*
X126601088Y-130469452D01*
X125937118Y-130109151D01*
X125215615Y-129885306D01*
X124464305Y-129806520D01*
X123712062Y-129875822D01*
X122987792Y-130090548D01*
X122319330Y-130442445D01*
X122278912Y-130469452D01*
X121918724Y-130959119D01*
X120150000Y-130959119D01*
X120150000Y-109044592D01*
X140895263Y-109044592D01*
X140895263Y-109575408D01*
X140998820Y-110096026D01*
X141201955Y-110586437D01*
X141496861Y-111027795D01*
X141872205Y-111403139D01*
X142313563Y-111698045D01*
X142803974Y-111901180D01*
X143324592Y-112004737D01*
X143855408Y-112004737D01*
X144376026Y-111901180D01*
X144866437Y-111698045D01*
X145307795Y-111403139D01*
X145683139Y-111027795D01*
X145978045Y-110586437D01*
X146181180Y-110096026D01*
X146284737Y-109575408D01*
X146284737Y-109044592D01*
X146181180Y-108523974D01*
X145978045Y-108033563D01*
X145683139Y-107592205D01*
X145307795Y-107216861D01*
X144866437Y-106921955D01*
X144376026Y-106718820D01*
X143855408Y-106615263D01*
X143324592Y-106615263D01*
X142803974Y-106718820D01*
X142313563Y-106921955D01*
X141872205Y-107216861D01*
X141496861Y-107592205D01*
X141201955Y-108033563D01*
X140998820Y-108523974D01*
X140895263Y-109044592D01*
X120150000Y-109044592D01*
X120150000Y-87796890D01*
X122998524Y-87796890D01*
X123043175Y-87944099D01*
X123168359Y-88206920D01*
X123342412Y-88440269D01*
X123558645Y-88635178D01*
X123808748Y-88784157D01*
X124083109Y-88881481D01*
X124313000Y-88760814D01*
X124313000Y-87567000D01*
X124567000Y-87567000D01*
X124567000Y-88760814D01*
X124796891Y-88881481D01*
X125071252Y-88784157D01*
X125321355Y-88635178D01*
X125537588Y-88440269D01*
X125711641Y-88206920D01*
X125836825Y-87944099D01*
X125881476Y-87796890D01*
X125760155Y-87567000D01*
X124567000Y-87567000D01*
X124313000Y-87567000D01*
X123119845Y-87567000D01*
X122998524Y-87796890D01*
X120150000Y-87796890D01*
X120150000Y-85256890D01*
X122998524Y-85256890D01*
X123043175Y-85404099D01*
X123168359Y-85666920D01*
X123342412Y-85900269D01*
X123558645Y-86095178D01*
X123684255Y-86170000D01*
X123558645Y-86244822D01*
X123342412Y-86439731D01*
X123168359Y-86673080D01*
X123043175Y-86935901D01*
X122998524Y-87083110D01*
X123119845Y-87313000D01*
X124313000Y-87313000D01*
X124313000Y-85027000D01*
X124567000Y-85027000D01*
X124567000Y-87313000D01*
X125760155Y-87313000D01*
X125881476Y-87083110D01*
X125836825Y-86935901D01*
X125711641Y-86673080D01*
X125537588Y-86439731D01*
X125321355Y-86244822D01*
X125195745Y-86170000D01*
X125321355Y-86095178D01*
X125537588Y-85900269D01*
X125711641Y-85666920D01*
X125836825Y-85404099D01*
X125881476Y-85256890D01*
X125760155Y-85027000D01*
X124567000Y-85027000D01*
X124313000Y-85027000D01*
X123119845Y-85027000D01*
X122998524Y-85256890D01*
X120150000Y-85256890D01*
X120150000Y-82716890D01*
X122998524Y-82716890D01*
X123043175Y-82864099D01*
X123168359Y-83126920D01*
X123342412Y-83360269D01*
X123558645Y-83555178D01*
X123684255Y-83630000D01*
X123558645Y-83704822D01*
X123342412Y-83899731D01*
X123168359Y-84133080D01*
X123043175Y-84395901D01*
X122998524Y-84543110D01*
X123119845Y-84773000D01*
X124313000Y-84773000D01*
X124313000Y-82487000D01*
X124567000Y-82487000D01*
X124567000Y-84773000D01*
X125760155Y-84773000D01*
X125881476Y-84543110D01*
X125836825Y-84395901D01*
X125711641Y-84133080D01*
X125537588Y-83899731D01*
X125321355Y-83704822D01*
X125195745Y-83630000D01*
X125321355Y-83555178D01*
X125537588Y-83360269D01*
X125711641Y-83126920D01*
X125836825Y-82864099D01*
X125881476Y-82716890D01*
X125760155Y-82487000D01*
X124567000Y-82487000D01*
X124313000Y-82487000D01*
X123119845Y-82487000D01*
X122998524Y-82716890D01*
X120150000Y-82716890D01*
X120150000Y-80176890D01*
X122998524Y-80176890D01*
X123043175Y-80324099D01*
X123168359Y-80586920D01*
X123342412Y-80820269D01*
X123558645Y-81015178D01*
X123684255Y-81090000D01*
X123558645Y-81164822D01*
X123342412Y-81359731D01*
X123168359Y-81593080D01*
X123043175Y-81855901D01*
X122998524Y-82003110D01*
X123119845Y-82233000D01*
X124313000Y-82233000D01*
X124313000Y-79947000D01*
X124567000Y-79947000D01*
X124567000Y-82233000D01*
X125760155Y-82233000D01*
X125881476Y-82003110D01*
X125836825Y-81855901D01*
X125711641Y-81593080D01*
X125537588Y-81359731D01*
X125321355Y-81164822D01*
X125195745Y-81090000D01*
X125321355Y-81015178D01*
X125537588Y-80820269D01*
X125711641Y-80586920D01*
X125836825Y-80324099D01*
X125881476Y-80176890D01*
X125760155Y-79947000D01*
X124567000Y-79947000D01*
X124313000Y-79947000D01*
X123119845Y-79947000D01*
X122998524Y-80176890D01*
X120150000Y-80176890D01*
X120150000Y-77636890D01*
X122998524Y-77636890D01*
X123043175Y-77784099D01*
X123168359Y-78046920D01*
X123342412Y-78280269D01*
X123558645Y-78475178D01*
X123684255Y-78550000D01*
X123558645Y-78624822D01*
X123342412Y-78819731D01*
X123168359Y-79053080D01*
X123043175Y-79315901D01*
X122998524Y-79463110D01*
X123119845Y-79693000D01*
X124313000Y-79693000D01*
X124313000Y-77407000D01*
X123119845Y-77407000D01*
X122998524Y-77636890D01*
X120150000Y-77636890D01*
X120150000Y-67602824D01*
X128825098Y-67602824D01*
X128874666Y-68020451D01*
X129004757Y-68420383D01*
X129162786Y-68716038D01*
X129478347Y-68872048D01*
X130790395Y-67560000D01*
X131149605Y-67560000D01*
X132461653Y-68872048D01*
X132777214Y-68716038D01*
X132968020Y-68341255D01*
X133082044Y-67936449D01*
X133108189Y-67602824D01*
X159885098Y-67602824D01*
X159934666Y-68020451D01*
X160064757Y-68420383D01*
X160222786Y-68716038D01*
X160538347Y-68872048D01*
X161850395Y-67560000D01*
X162209605Y-67560000D01*
X163521653Y-68872048D01*
X163837214Y-68716038D01*
X164028020Y-68341255D01*
X164142044Y-67936449D01*
X164174902Y-67517176D01*
X164125334Y-67099549D01*
X163995243Y-66699617D01*
X163837214Y-66403962D01*
X163521653Y-66247952D01*
X162209605Y-67560000D01*
X161850395Y-67560000D01*
X160538347Y-66247952D01*
X160222786Y-66403962D01*
X160031980Y-66778745D01*
X159917956Y-67183551D01*
X159885098Y-67602824D01*
X133108189Y-67602824D01*
X133114902Y-67517176D01*
X133065334Y-67099549D01*
X132935243Y-66699617D01*
X132777214Y-66403962D01*
X132461653Y-66247952D01*
X131149605Y-67560000D01*
X130790395Y-67560000D01*
X129478347Y-66247952D01*
X129162786Y-66403962D01*
X128971980Y-66778745D01*
X128857956Y-67183551D01*
X128825098Y-67602824D01*
X120150000Y-67602824D01*
X120150000Y-66068347D01*
X129657952Y-66068347D01*
X130970000Y-67380395D01*
X132282048Y-66068347D01*
X160717952Y-66068347D01*
X162030000Y-67380395D01*
X163342048Y-66068347D01*
X163186038Y-65752786D01*
X162811255Y-65561980D01*
X162406449Y-65447956D01*
X161987176Y-65415098D01*
X161569549Y-65464666D01*
X161169617Y-65594757D01*
X160873962Y-65752786D01*
X160717952Y-66068347D01*
X132282048Y-66068347D01*
X132126038Y-65752786D01*
X131751255Y-65561980D01*
X131346449Y-65447956D01*
X130927176Y-65415098D01*
X130509549Y-65464666D01*
X130109617Y-65594757D01*
X129813962Y-65752786D01*
X129657952Y-66068347D01*
X120150000Y-66068347D01*
X120150000Y-62360881D01*
X121918724Y-62360881D01*
X122278912Y-62850548D01*
X122942882Y-63210849D01*
X123664385Y-63434694D01*
X124415695Y-63513480D01*
X125167938Y-63444178D01*
X125892208Y-63229452D01*
X126560670Y-62877555D01*
X126601088Y-62850548D01*
X126961276Y-62360881D01*
X167918724Y-62360881D01*
X168278912Y-62850548D01*
X168942882Y-63210849D01*
X169664385Y-63434694D01*
X170415695Y-63513480D01*
X171167938Y-63444178D01*
X171892208Y-63229452D01*
X172560670Y-62877555D01*
X172601088Y-62850548D01*
X172961276Y-62360881D01*
X170440000Y-59839605D01*
X167918724Y-62360881D01*
X126961276Y-62360881D01*
X124440000Y-59839605D01*
X121918724Y-62360881D01*
X120150000Y-62360881D01*
X120150000Y-59691618D01*
X120154991Y-59635695D01*
X120586520Y-59635695D01*
X120655822Y-60387938D01*
X120870548Y-61112208D01*
X121222445Y-61780670D01*
X121249452Y-61821088D01*
X121739119Y-62181276D01*
X124260395Y-59660000D01*
X124619605Y-59660000D01*
X127140881Y-62181276D01*
X127630548Y-61821088D01*
X127990849Y-61157118D01*
X128214694Y-60435615D01*
X128293480Y-59684305D01*
X128224178Y-58932062D01*
X128187990Y-58810000D01*
X137451928Y-58810000D01*
X137451928Y-60510000D01*
X137464188Y-60634482D01*
X137500498Y-60754180D01*
X137559463Y-60864494D01*
X137638815Y-60961185D01*
X137735506Y-61040537D01*
X137845820Y-61099502D01*
X137965518Y-61135812D01*
X138090000Y-61148072D01*
X139790000Y-61148072D01*
X139914482Y-61135812D01*
X140034180Y-61099502D01*
X140144494Y-61040537D01*
X140241185Y-60961185D01*
X140320537Y-60864494D01*
X140379502Y-60754180D01*
X140401513Y-60681620D01*
X140533368Y-60813475D01*
X140776589Y-60975990D01*
X141046842Y-61087932D01*
X141333740Y-61145000D01*
X141626260Y-61145000D01*
X141913158Y-61087932D01*
X142183411Y-60975990D01*
X142426632Y-60813475D01*
X142633475Y-60606632D01*
X142750000Y-60432240D01*
X142866525Y-60606632D01*
X143073368Y-60813475D01*
X143316589Y-60975990D01*
X143586842Y-61087932D01*
X143873740Y-61145000D01*
X144166260Y-61145000D01*
X144453158Y-61087932D01*
X144723411Y-60975990D01*
X144966632Y-60813475D01*
X145173475Y-60606632D01*
X145290000Y-60432240D01*
X145406525Y-60606632D01*
X145613368Y-60813475D01*
X145856589Y-60975990D01*
X146126842Y-61087932D01*
X146413740Y-61145000D01*
X146706260Y-61145000D01*
X146993158Y-61087932D01*
X147263411Y-60975990D01*
X147506632Y-60813475D01*
X147713475Y-60606632D01*
X147830000Y-60432240D01*
X147946525Y-60606632D01*
X148153368Y-60813475D01*
X148396589Y-60975990D01*
X148666842Y-61087932D01*
X148953740Y-61145000D01*
X149246260Y-61145000D01*
X149533158Y-61087932D01*
X149803411Y-60975990D01*
X150046632Y-60813475D01*
X150253475Y-60606632D01*
X150370000Y-60432240D01*
X150486525Y-60606632D01*
X150693368Y-60813475D01*
X150936589Y-60975990D01*
X151206842Y-61087932D01*
X151493740Y-61145000D01*
X151786260Y-61145000D01*
X152073158Y-61087932D01*
X152343411Y-60975990D01*
X152586632Y-60813475D01*
X152793475Y-60606632D01*
X152910000Y-60432240D01*
X153026525Y-60606632D01*
X153233368Y-60813475D01*
X153476589Y-60975990D01*
X153746842Y-61087932D01*
X154033740Y-61145000D01*
X154326260Y-61145000D01*
X154613158Y-61087932D01*
X154883411Y-60975990D01*
X155126632Y-60813475D01*
X155333475Y-60606632D01*
X155450000Y-60432240D01*
X155566525Y-60606632D01*
X155773368Y-60813475D01*
X156016589Y-60975990D01*
X156286842Y-61087932D01*
X156573740Y-61145000D01*
X156866260Y-61145000D01*
X157153158Y-61087932D01*
X157423411Y-60975990D01*
X157666632Y-60813475D01*
X157873475Y-60606632D01*
X158035990Y-60363411D01*
X158147932Y-60093158D01*
X158205000Y-59806260D01*
X158205000Y-59635695D01*
X166586520Y-59635695D01*
X166655822Y-60387938D01*
X166870548Y-61112208D01*
X167222445Y-61780670D01*
X167249452Y-61821088D01*
X167739119Y-62181276D01*
X170260395Y-59660000D01*
X170619605Y-59660000D01*
X173140881Y-62181276D01*
X173630548Y-61821088D01*
X173990849Y-61157118D01*
X174214694Y-60435615D01*
X174293480Y-59684305D01*
X174224178Y-58932062D01*
X174009452Y-58207792D01*
X173657555Y-57539330D01*
X173630548Y-57498912D01*
X173140881Y-57138724D01*
X170619605Y-59660000D01*
X170260395Y-59660000D01*
X167739119Y-57138724D01*
X167249452Y-57498912D01*
X166889151Y-58162882D01*
X166665306Y-58884385D01*
X166586520Y-59635695D01*
X158205000Y-59635695D01*
X158205000Y-59513740D01*
X158147932Y-59226842D01*
X158035990Y-58956589D01*
X157873475Y-58713368D01*
X157666632Y-58506525D01*
X157423411Y-58344010D01*
X157153158Y-58232068D01*
X156866260Y-58175000D01*
X156573740Y-58175000D01*
X156286842Y-58232068D01*
X156016589Y-58344010D01*
X155773368Y-58506525D01*
X155566525Y-58713368D01*
X155450000Y-58887760D01*
X155333475Y-58713368D01*
X155126632Y-58506525D01*
X154883411Y-58344010D01*
X154613158Y-58232068D01*
X154326260Y-58175000D01*
X154033740Y-58175000D01*
X153746842Y-58232068D01*
X153476589Y-58344010D01*
X153233368Y-58506525D01*
X153026525Y-58713368D01*
X152910000Y-58887760D01*
X152793475Y-58713368D01*
X152586632Y-58506525D01*
X152343411Y-58344010D01*
X152073158Y-58232068D01*
X151786260Y-58175000D01*
X151493740Y-58175000D01*
X151206842Y-58232068D01*
X150936589Y-58344010D01*
X150693368Y-58506525D01*
X150486525Y-58713368D01*
X150370000Y-58887760D01*
X150253475Y-58713368D01*
X150046632Y-58506525D01*
X149803411Y-58344010D01*
X149533158Y-58232068D01*
X149246260Y-58175000D01*
X148953740Y-58175000D01*
X148666842Y-58232068D01*
X148396589Y-58344010D01*
X148153368Y-58506525D01*
X147946525Y-58713368D01*
X147830000Y-58887760D01*
X147713475Y-58713368D01*
X147506632Y-58506525D01*
X147263411Y-58344010D01*
X146993158Y-58232068D01*
X146706260Y-58175000D01*
X146413740Y-58175000D01*
X146126842Y-58232068D01*
X145856589Y-58344010D01*
X145613368Y-58506525D01*
X145406525Y-58713368D01*
X145290000Y-58887760D01*
X145173475Y-58713368D01*
X144966632Y-58506525D01*
X144723411Y-58344010D01*
X144453158Y-58232068D01*
X144166260Y-58175000D01*
X143873740Y-58175000D01*
X143586842Y-58232068D01*
X143316589Y-58344010D01*
X143073368Y-58506525D01*
X142866525Y-58713368D01*
X142750000Y-58887760D01*
X142633475Y-58713368D01*
X142426632Y-58506525D01*
X142183411Y-58344010D01*
X141913158Y-58232068D01*
X141626260Y-58175000D01*
X141333740Y-58175000D01*
X141046842Y-58232068D01*
X140776589Y-58344010D01*
X140533368Y-58506525D01*
X140401513Y-58638380D01*
X140379502Y-58565820D01*
X140320537Y-58455506D01*
X140241185Y-58358815D01*
X140144494Y-58279463D01*
X140034180Y-58220498D01*
X139914482Y-58184188D01*
X139790000Y-58171928D01*
X138090000Y-58171928D01*
X137965518Y-58184188D01*
X137845820Y-58220498D01*
X137735506Y-58279463D01*
X137638815Y-58358815D01*
X137559463Y-58455506D01*
X137500498Y-58565820D01*
X137464188Y-58685518D01*
X137451928Y-58810000D01*
X128187990Y-58810000D01*
X128009452Y-58207792D01*
X127657555Y-57539330D01*
X127630548Y-57498912D01*
X127140881Y-57138724D01*
X124619605Y-59660000D01*
X124260395Y-59660000D01*
X121739119Y-57138724D01*
X121249452Y-57498912D01*
X120889151Y-58162882D01*
X120665306Y-58884385D01*
X120586520Y-59635695D01*
X120154991Y-59635695D01*
X120220578Y-58900808D01*
X120421705Y-58165611D01*
X120749846Y-57477649D01*
X121122447Y-56959119D01*
X121918724Y-56959119D01*
X124440000Y-59480395D01*
X126961276Y-56959119D01*
X167918724Y-56959119D01*
X170440000Y-59480395D01*
X172961276Y-56959119D01*
X172601088Y-56469452D01*
X171937118Y-56109151D01*
X171215615Y-55885306D01*
X170464305Y-55806520D01*
X169712062Y-55875822D01*
X168987792Y-56090548D01*
X168319330Y-56442445D01*
X168278912Y-56469452D01*
X167918724Y-56959119D01*
X126961276Y-56959119D01*
X126601088Y-56469452D01*
X125937118Y-56109151D01*
X125215615Y-55885306D01*
X124464305Y-55806520D01*
X123712062Y-55875822D01*
X122987792Y-56090548D01*
X122319330Y-56442445D01*
X122278912Y-56469452D01*
X121918724Y-56959119D01*
X121122447Y-56959119D01*
X121194628Y-56858669D01*
X121741988Y-56328239D01*
X122374639Y-55903116D01*
X123072561Y-55596749D01*
X123819183Y-55417501D01*
X124466030Y-55370000D01*
X170408382Y-55370000D01*
X171199192Y-55440578D01*
G37*
G04 #@! TD.AperFunction*
G04 #@! TD*
M02*
