G04 #@! TF.GenerationSoftware,KiCad,Pcbnew,5.1.9+dfsg1-1*
G04 #@! TF.CreationDate,2022-06-11T22:33:11-07:00*
G04 #@! TF.ProjectId,keygame-batpack,6b657967-616d-4652-9d62-61747061636b,rev?*
G04 #@! TF.SameCoordinates,Original*
G04 #@! TF.FileFunction,Legend,Top*
G04 #@! TF.FilePolarity,Positive*
%FSLAX46Y46*%
G04 Gerber Fmt 4.6, Leading zero omitted, Abs format (unit mm)*
G04 Created by KiCad (PCBNEW 5.1.9+dfsg1-1) date 2022-06-11 22:33:11*
%MOMM*%
%LPD*%
G01*
G04 APERTURE LIST*
%ADD10C,0.500000*%
%ADD11C,0.250000*%
%ADD12C,0.187500*%
%ADD13C,0.200000*%
%ADD14C,0.120000*%
%ADD15C,0.127000*%
%ADD16C,0.150000*%
%ADD17C,0.010000*%
G04 APERTURE END LIST*
D10*
X172540000Y-115060000D02*
X171040000Y-114560000D01*
X171040000Y-116060000D02*
X172540000Y-115060000D01*
X171040000Y-114560000D02*
X171040000Y-116060000D01*
X166540000Y-115060000D02*
X168040000Y-114560000D01*
X168040000Y-116060000D02*
X166540000Y-115060000D01*
X168040000Y-114560000D02*
X168040000Y-116060000D01*
X173040000Y-117560000D02*
X171040000Y-114560000D01*
X166040000Y-117560000D02*
X168040000Y-114560000D01*
D11*
X173877142Y-126584285D02*
X173948571Y-126441428D01*
X173948571Y-126203333D01*
X173877142Y-126108095D01*
X173805714Y-126060476D01*
X173662857Y-126012857D01*
X173520000Y-126012857D01*
X173377142Y-126060476D01*
X173305714Y-126108095D01*
X173234285Y-126203333D01*
X173162857Y-126393809D01*
X173091428Y-126489047D01*
X173020000Y-126536666D01*
X172877142Y-126584285D01*
X172734285Y-126584285D01*
X172591428Y-126536666D01*
X172520000Y-126489047D01*
X172448571Y-126393809D01*
X172448571Y-126155714D01*
X172520000Y-126012857D01*
X173162857Y-125584285D02*
X173162857Y-125250952D01*
X173948571Y-125108095D02*
X173948571Y-125584285D01*
X172448571Y-125584285D01*
X172448571Y-125108095D01*
X172448571Y-124822380D02*
X172448571Y-124250952D01*
X173948571Y-124536666D02*
X172448571Y-124536666D01*
X172448571Y-122679523D02*
X172448571Y-123155714D01*
X173162857Y-123203333D01*
X173091428Y-123155714D01*
X173020000Y-123060476D01*
X173020000Y-122822380D01*
X173091428Y-122727142D01*
X173162857Y-122679523D01*
X173305714Y-122631904D01*
X173662857Y-122631904D01*
X173805714Y-122679523D01*
X173877142Y-122727142D01*
X173948571Y-122822380D01*
X173948571Y-123060476D01*
X173877142Y-123155714D01*
X173805714Y-123203333D01*
X172448571Y-122346190D02*
X173948571Y-122012857D01*
X172448571Y-121679523D01*
X172448571Y-120393809D02*
X172448571Y-120203333D01*
X172520000Y-120108095D01*
X172662857Y-120012857D01*
X172948571Y-119965238D01*
X173448571Y-119965238D01*
X173734285Y-120012857D01*
X173877142Y-120108095D01*
X173948571Y-120203333D01*
X173948571Y-120393809D01*
X173877142Y-120489047D01*
X173734285Y-120584285D01*
X173448571Y-120631904D01*
X172948571Y-120631904D01*
X172662857Y-120584285D01*
X172520000Y-120489047D01*
X172448571Y-120393809D01*
X172448571Y-119536666D02*
X173662857Y-119536666D01*
X173805714Y-119489047D01*
X173877142Y-119441428D01*
X173948571Y-119346190D01*
X173948571Y-119155714D01*
X173877142Y-119060476D01*
X173805714Y-119012857D01*
X173662857Y-118965238D01*
X172448571Y-118965238D01*
X172448571Y-118631904D02*
X172448571Y-118060476D01*
X173948571Y-118346190D02*
X172448571Y-118346190D01*
X166617142Y-127290476D02*
X166688571Y-127147619D01*
X166688571Y-126909523D01*
X166617142Y-126814285D01*
X166545714Y-126766666D01*
X166402857Y-126719047D01*
X166260000Y-126719047D01*
X166117142Y-126766666D01*
X166045714Y-126814285D01*
X165974285Y-126909523D01*
X165902857Y-127100000D01*
X165831428Y-127195238D01*
X165760000Y-127242857D01*
X165617142Y-127290476D01*
X165474285Y-127290476D01*
X165331428Y-127242857D01*
X165260000Y-127195238D01*
X165188571Y-127100000D01*
X165188571Y-126861904D01*
X165260000Y-126719047D01*
X165902857Y-126290476D02*
X165902857Y-125957142D01*
X166688571Y-125814285D02*
X166688571Y-126290476D01*
X165188571Y-126290476D01*
X165188571Y-125814285D01*
X165188571Y-125528571D02*
X165188571Y-124957142D01*
X166688571Y-125242857D02*
X165188571Y-125242857D01*
X165188571Y-123957142D02*
X165188571Y-123338095D01*
X165760000Y-123671428D01*
X165760000Y-123528571D01*
X165831428Y-123433333D01*
X165902857Y-123385714D01*
X166045714Y-123338095D01*
X166402857Y-123338095D01*
X166545714Y-123385714D01*
X166617142Y-123433333D01*
X166688571Y-123528571D01*
X166688571Y-123814285D01*
X166617142Y-123909523D01*
X166545714Y-123957142D01*
X165188571Y-123052380D02*
X166688571Y-122719047D01*
X165188571Y-122385714D01*
X165188571Y-122147619D02*
X165188571Y-121528571D01*
X165760000Y-121861904D01*
X165760000Y-121719047D01*
X165831428Y-121623809D01*
X165902857Y-121576190D01*
X166045714Y-121528571D01*
X166402857Y-121528571D01*
X166545714Y-121576190D01*
X166617142Y-121623809D01*
X166688571Y-121719047D01*
X166688571Y-122004761D01*
X166617142Y-122100000D01*
X166545714Y-122147619D01*
X165188571Y-120147619D02*
X165188571Y-119957142D01*
X165260000Y-119861904D01*
X165402857Y-119766666D01*
X165688571Y-119719047D01*
X166188571Y-119719047D01*
X166474285Y-119766666D01*
X166617142Y-119861904D01*
X166688571Y-119957142D01*
X166688571Y-120147619D01*
X166617142Y-120242857D01*
X166474285Y-120338095D01*
X166188571Y-120385714D01*
X165688571Y-120385714D01*
X165402857Y-120338095D01*
X165260000Y-120242857D01*
X165188571Y-120147619D01*
X165188571Y-119290476D02*
X166402857Y-119290476D01*
X166545714Y-119242857D01*
X166617142Y-119195238D01*
X166688571Y-119100000D01*
X166688571Y-118909523D01*
X166617142Y-118814285D01*
X166545714Y-118766666D01*
X166402857Y-118719047D01*
X165188571Y-118719047D01*
X165188571Y-118385714D02*
X165188571Y-117814285D01*
X166688571Y-118100000D02*
X165188571Y-118100000D01*
D12*
X121048565Y-74470596D02*
X120796027Y-74723134D01*
X121023312Y-75000926D01*
X121023312Y-74950418D01*
X121048565Y-74874657D01*
X121174834Y-74748388D01*
X121250596Y-74723134D01*
X121301104Y-74723134D01*
X121376865Y-74748388D01*
X121503134Y-74874657D01*
X121528388Y-74950418D01*
X121528388Y-75000926D01*
X121503134Y-75076687D01*
X121376865Y-75202956D01*
X121301104Y-75228210D01*
X121250596Y-75228210D01*
X121225342Y-74293819D02*
X121932449Y-74647373D01*
X121578895Y-73940266D01*
X120770773Y-87298895D02*
X120695012Y-87324149D01*
X120619251Y-87399911D01*
X120568743Y-87500926D01*
X120568743Y-87601941D01*
X120593997Y-87677703D01*
X120669758Y-87803972D01*
X120745520Y-87879733D01*
X120871789Y-87955495D01*
X120947550Y-87980748D01*
X121048565Y-87980748D01*
X121149581Y-87930241D01*
X121200088Y-87879733D01*
X121250596Y-87778718D01*
X121250596Y-87728210D01*
X121073819Y-87551434D01*
X120972804Y-87652449D01*
X121528388Y-87551434D02*
X120998058Y-87021104D01*
X121831434Y-87248388D01*
X121301104Y-86718058D01*
X122083972Y-86995850D02*
X121553642Y-86465520D01*
X121679911Y-86339251D01*
X121780926Y-86288743D01*
X121881941Y-86288743D01*
X121957703Y-86313997D01*
X122083972Y-86389758D01*
X122159733Y-86465520D01*
X122235495Y-86591789D01*
X122260748Y-86667550D01*
X122260748Y-86768565D01*
X122210241Y-86869581D01*
X122083972Y-86995850D01*
X120770773Y-84798895D02*
X120695012Y-84824149D01*
X120619251Y-84899911D01*
X120568743Y-85000926D01*
X120568743Y-85101941D01*
X120593997Y-85177703D01*
X120669758Y-85303972D01*
X120745520Y-85379733D01*
X120871789Y-85455495D01*
X120947550Y-85480748D01*
X121048565Y-85480748D01*
X121149581Y-85430241D01*
X121200088Y-85379733D01*
X121250596Y-85278718D01*
X121250596Y-85228210D01*
X121073819Y-85051434D01*
X120972804Y-85152449D01*
X121528388Y-85051434D02*
X120998058Y-84521104D01*
X121831434Y-84748388D01*
X121301104Y-84218058D01*
X122083972Y-84495850D02*
X121553642Y-83965520D01*
X121679911Y-83839251D01*
X121780926Y-83788743D01*
X121881941Y-83788743D01*
X121957703Y-83813997D01*
X122083972Y-83889758D01*
X122159733Y-83965520D01*
X122235495Y-84091789D01*
X122260748Y-84167550D01*
X122260748Y-84268565D01*
X122210241Y-84369581D01*
X122083972Y-84495850D01*
X120770773Y-82298895D02*
X120695012Y-82324149D01*
X120619251Y-82399911D01*
X120568743Y-82500926D01*
X120568743Y-82601941D01*
X120593997Y-82677703D01*
X120669758Y-82803972D01*
X120745520Y-82879733D01*
X120871789Y-82955495D01*
X120947550Y-82980748D01*
X121048565Y-82980748D01*
X121149581Y-82930241D01*
X121200088Y-82879733D01*
X121250596Y-82778718D01*
X121250596Y-82728210D01*
X121073819Y-82551434D01*
X120972804Y-82652449D01*
X121528388Y-82551434D02*
X120998058Y-82021104D01*
X121831434Y-82248388D01*
X121301104Y-81718058D01*
X122083972Y-81995850D02*
X121553642Y-81465520D01*
X121679911Y-81339251D01*
X121780926Y-81288743D01*
X121881941Y-81288743D01*
X121957703Y-81313997D01*
X122083972Y-81389758D01*
X122159733Y-81465520D01*
X122235495Y-81591789D01*
X122260748Y-81667550D01*
X122260748Y-81768565D01*
X122210241Y-81869581D01*
X122083972Y-81995850D01*
X120770773Y-79798895D02*
X120695012Y-79824149D01*
X120619251Y-79899911D01*
X120568743Y-80000926D01*
X120568743Y-80101941D01*
X120593997Y-80177703D01*
X120669758Y-80303972D01*
X120745520Y-80379733D01*
X120871789Y-80455495D01*
X120947550Y-80480748D01*
X121048565Y-80480748D01*
X121149581Y-80430241D01*
X121200088Y-80379733D01*
X121250596Y-80278718D01*
X121250596Y-80228210D01*
X121073819Y-80051434D01*
X120972804Y-80152449D01*
X121528388Y-80051434D02*
X120998058Y-79521104D01*
X121831434Y-79748388D01*
X121301104Y-79218058D01*
X122083972Y-79495850D02*
X121553642Y-78965520D01*
X121679911Y-78839251D01*
X121780926Y-78788743D01*
X121881941Y-78788743D01*
X121957703Y-78813997D01*
X122083972Y-78889758D01*
X122159733Y-78965520D01*
X122235495Y-79091789D01*
X122260748Y-79167550D01*
X122260748Y-79268565D01*
X122210241Y-79369581D01*
X122083972Y-79495850D01*
X120770773Y-77298895D02*
X120695012Y-77324149D01*
X120619251Y-77399911D01*
X120568743Y-77500926D01*
X120568743Y-77601941D01*
X120593997Y-77677703D01*
X120669758Y-77803972D01*
X120745520Y-77879733D01*
X120871789Y-77955495D01*
X120947550Y-77980748D01*
X121048565Y-77980748D01*
X121149581Y-77930241D01*
X121200088Y-77879733D01*
X121250596Y-77778718D01*
X121250596Y-77728210D01*
X121073819Y-77551434D01*
X120972804Y-77652449D01*
X121528388Y-77551434D02*
X120998058Y-77021104D01*
X121831434Y-77248388D01*
X121301104Y-76718058D01*
X122083972Y-76995850D02*
X121553642Y-76465520D01*
X121679911Y-76339251D01*
X121780926Y-76288743D01*
X121881941Y-76288743D01*
X121957703Y-76313997D01*
X122083972Y-76389758D01*
X122159733Y-76465520D01*
X122235495Y-76591789D01*
X122260748Y-76667550D01*
X122260748Y-76768565D01*
X122210241Y-76869581D01*
X122083972Y-76995850D01*
X120770773Y-72298895D02*
X120695012Y-72324149D01*
X120619251Y-72399911D01*
X120568743Y-72500926D01*
X120568743Y-72601941D01*
X120593997Y-72677703D01*
X120669758Y-72803972D01*
X120745520Y-72879733D01*
X120871789Y-72955495D01*
X120947550Y-72980748D01*
X121048565Y-72980748D01*
X121149581Y-72930241D01*
X121200088Y-72879733D01*
X121250596Y-72778718D01*
X121250596Y-72728210D01*
X121073819Y-72551434D01*
X120972804Y-72652449D01*
X121528388Y-72551434D02*
X120998058Y-72021104D01*
X121831434Y-72248388D01*
X121301104Y-71718058D01*
X122083972Y-71995850D02*
X121553642Y-71465520D01*
X121679911Y-71339251D01*
X121780926Y-71288743D01*
X121881941Y-71288743D01*
X121957703Y-71313997D01*
X122083972Y-71389758D01*
X122159733Y-71465520D01*
X122235495Y-71591789D01*
X122260748Y-71667550D01*
X122260748Y-71768565D01*
X122210241Y-71869581D01*
X122083972Y-71995850D01*
X120492981Y-70026180D02*
X120821281Y-69697880D01*
X120846535Y-70076687D01*
X120922296Y-70000926D01*
X120998058Y-69975672D01*
X121048565Y-69975672D01*
X121124327Y-70000926D01*
X121250596Y-70127195D01*
X121275850Y-70202956D01*
X121275850Y-70253464D01*
X121250596Y-70329226D01*
X121099073Y-70480748D01*
X121023312Y-70506002D01*
X120972804Y-70506002D01*
X120972804Y-69546357D02*
X121679911Y-69899911D01*
X121326357Y-69192804D01*
X121452626Y-69066535D02*
X121780926Y-68738235D01*
X121806180Y-69117043D01*
X121881941Y-69041281D01*
X121957703Y-69016027D01*
X122008210Y-69016027D01*
X122083972Y-69041281D01*
X122210241Y-69167550D01*
X122235495Y-69243312D01*
X122235495Y-69293819D01*
X122210241Y-69369581D01*
X122058718Y-69521104D01*
X121982956Y-69546357D01*
X121932449Y-69546357D01*
D11*
X121452380Y-127077380D02*
X121452380Y-127886904D01*
X121500000Y-127982142D01*
X121547619Y-128029761D01*
X121642857Y-128077380D01*
X121833333Y-128077380D01*
X121928571Y-128029761D01*
X121976190Y-127982142D01*
X122023809Y-127886904D01*
X122023809Y-127077380D01*
X122452380Y-128029761D02*
X122547619Y-128077380D01*
X122738095Y-128077380D01*
X122833333Y-128029761D01*
X122880952Y-127934523D01*
X122880952Y-127886904D01*
X122833333Y-127791666D01*
X122738095Y-127744047D01*
X122595238Y-127744047D01*
X122500000Y-127696428D01*
X122452380Y-127601190D01*
X122452380Y-127553571D01*
X122500000Y-127458333D01*
X122595238Y-127410714D01*
X122738095Y-127410714D01*
X122833333Y-127458333D01*
X123690476Y-128029761D02*
X123595238Y-128077380D01*
X123404761Y-128077380D01*
X123309523Y-128029761D01*
X123261904Y-127934523D01*
X123261904Y-127553571D01*
X123309523Y-127458333D01*
X123404761Y-127410714D01*
X123595238Y-127410714D01*
X123690476Y-127458333D01*
X123738095Y-127553571D01*
X123738095Y-127648809D01*
X123261904Y-127744047D01*
X124928571Y-128077380D02*
X124928571Y-127077380D01*
X125261904Y-127791666D01*
X125595238Y-127077380D01*
X125595238Y-128077380D01*
X125976190Y-127077380D02*
X126595238Y-127077380D01*
X126261904Y-127458333D01*
X126404761Y-127458333D01*
X126500000Y-127505952D01*
X126547619Y-127553571D01*
X126595238Y-127648809D01*
X126595238Y-127886904D01*
X126547619Y-127982142D01*
X126500000Y-128029761D01*
X126404761Y-128077380D01*
X126119047Y-128077380D01*
X126023809Y-128029761D01*
X125976190Y-127982142D01*
X121619047Y-129779761D02*
X121761904Y-129827380D01*
X122000000Y-129827380D01*
X122095238Y-129779761D01*
X122142857Y-129732142D01*
X122190476Y-129636904D01*
X122190476Y-129541666D01*
X122142857Y-129446428D01*
X122095238Y-129398809D01*
X122000000Y-129351190D01*
X121809523Y-129303571D01*
X121714285Y-129255952D01*
X121666666Y-129208333D01*
X121619047Y-129113095D01*
X121619047Y-129017857D01*
X121666666Y-128922619D01*
X121714285Y-128875000D01*
X121809523Y-128827380D01*
X122047619Y-128827380D01*
X122190476Y-128875000D01*
X123047619Y-129779761D02*
X122952380Y-129827380D01*
X122761904Y-129827380D01*
X122666666Y-129779761D01*
X122619047Y-129732142D01*
X122571428Y-129636904D01*
X122571428Y-129351190D01*
X122619047Y-129255952D01*
X122666666Y-129208333D01*
X122761904Y-129160714D01*
X122952380Y-129160714D01*
X123047619Y-129208333D01*
X123476190Y-129827380D02*
X123476190Y-129160714D01*
X123476190Y-129351190D02*
X123523809Y-129255952D01*
X123571428Y-129208333D01*
X123666666Y-129160714D01*
X123761904Y-129160714D01*
X124476190Y-129779761D02*
X124380952Y-129827380D01*
X124190476Y-129827380D01*
X124095238Y-129779761D01*
X124047619Y-129684523D01*
X124047619Y-129303571D01*
X124095238Y-129208333D01*
X124190476Y-129160714D01*
X124380952Y-129160714D01*
X124476190Y-129208333D01*
X124523809Y-129303571D01*
X124523809Y-129398809D01*
X124047619Y-129494047D01*
X124857142Y-129160714D02*
X125047619Y-129827380D01*
X125238095Y-129351190D01*
X125428571Y-129827380D01*
X125619047Y-129160714D01*
X125952380Y-129779761D02*
X126047619Y-129827380D01*
X126238095Y-129827380D01*
X126333333Y-129779761D01*
X126380952Y-129684523D01*
X126380952Y-129636904D01*
X126333333Y-129541666D01*
X126238095Y-129494047D01*
X126095238Y-129494047D01*
X126000000Y-129446428D01*
X125952380Y-129351190D01*
X125952380Y-129303571D01*
X126000000Y-129208333D01*
X126095238Y-129160714D01*
X126238095Y-129160714D01*
X126333333Y-129208333D01*
D12*
X156871789Y-57708033D02*
X156619251Y-57960571D01*
X156088920Y-57430241D01*
X156871789Y-57404987D02*
X157124327Y-57152449D01*
X156972804Y-57607018D02*
X156619251Y-56899911D01*
X157326357Y-57253464D01*
X156897043Y-56622119D02*
X157200088Y-56319073D01*
X157578895Y-57000926D02*
X157048565Y-56470596D01*
X158159733Y-56319073D02*
X158159733Y-56369581D01*
X158109226Y-56470596D01*
X158058718Y-56521104D01*
X157957703Y-56571611D01*
X157856687Y-56571611D01*
X157780926Y-56546357D01*
X157654657Y-56470596D01*
X157578895Y-56394834D01*
X157503134Y-56268565D01*
X157477880Y-56192804D01*
X157477880Y-56091789D01*
X157528388Y-55990773D01*
X157578895Y-55940266D01*
X157679911Y-55889758D01*
X157730418Y-55889758D01*
X158437525Y-56142296D02*
X157907195Y-55611966D01*
X158159733Y-55864504D02*
X158462779Y-55561459D01*
X158740571Y-55839251D02*
X158210241Y-55308920D01*
X151246535Y-58133287D02*
X150716205Y-57602956D01*
X151271789Y-57804987D01*
X151069758Y-57249403D01*
X151600088Y-57779733D01*
X151852626Y-57527195D02*
X151322296Y-56996865D01*
X152054657Y-57274657D02*
X152155672Y-57224149D01*
X152281941Y-57097880D01*
X152307195Y-57022119D01*
X152307195Y-56971611D01*
X152281941Y-56895850D01*
X152231434Y-56845342D01*
X152155672Y-56820088D01*
X152105165Y-56820088D01*
X152029403Y-56845342D01*
X151903134Y-56921104D01*
X151827373Y-56946357D01*
X151776865Y-56946357D01*
X151701104Y-56921104D01*
X151650596Y-56870596D01*
X151625342Y-56794834D01*
X151625342Y-56744327D01*
X151650596Y-56668565D01*
X151776865Y-56542296D01*
X151877880Y-56491789D01*
X152180926Y-56138235D02*
X152281941Y-56037220D01*
X152357703Y-56011966D01*
X152458718Y-56011966D01*
X152584987Y-56087728D01*
X152761764Y-56264504D01*
X152837525Y-56390773D01*
X152837525Y-56491789D01*
X152812271Y-56567550D01*
X152711256Y-56668565D01*
X152635495Y-56693819D01*
X152534479Y-56693819D01*
X152408210Y-56618058D01*
X152231434Y-56441281D01*
X152155672Y-56315012D01*
X152155672Y-56213997D01*
X152180926Y-56138235D01*
X154513730Y-57765076D02*
X154513730Y-57815583D01*
X154463223Y-57916599D01*
X154412715Y-57967106D01*
X154311700Y-58017614D01*
X154210685Y-58017614D01*
X154134923Y-57992360D01*
X154008654Y-57916599D01*
X153932893Y-57840837D01*
X153857131Y-57714568D01*
X153831877Y-57638807D01*
X153831877Y-57537791D01*
X153882385Y-57436776D01*
X153932893Y-57386269D01*
X154033908Y-57335761D01*
X154084416Y-57335761D01*
X155044061Y-57335761D02*
X154791522Y-57588299D01*
X154261192Y-57057969D01*
X155220837Y-57158984D02*
X154690507Y-56628654D01*
X155523883Y-56855938D02*
X154993553Y-56780177D01*
X154993553Y-56325608D02*
X154993553Y-56931700D01*
X149141015Y-57337791D02*
X149141015Y-57388299D01*
X149090507Y-57489314D01*
X149040000Y-57539822D01*
X148938984Y-57590330D01*
X148837969Y-57590330D01*
X148762208Y-57565076D01*
X148635938Y-57489314D01*
X148560177Y-57413553D01*
X148484416Y-57287284D01*
X148459162Y-57211522D01*
X148459162Y-57110507D01*
X148509669Y-57009492D01*
X148560177Y-56958984D01*
X148661192Y-56908477D01*
X148711700Y-56908477D01*
X149368299Y-57161015D02*
X149469314Y-57110507D01*
X149595583Y-56984238D01*
X149620837Y-56908477D01*
X149620837Y-56857969D01*
X149595583Y-56782208D01*
X149545076Y-56731700D01*
X149469314Y-56706446D01*
X149418807Y-56706446D01*
X149343045Y-56731700D01*
X149216776Y-56807461D01*
X149141015Y-56832715D01*
X149090507Y-56832715D01*
X149014746Y-56807461D01*
X148964238Y-56756954D01*
X148938984Y-56681192D01*
X148938984Y-56630685D01*
X148964238Y-56554923D01*
X149090507Y-56428654D01*
X149191522Y-56378147D01*
X146275850Y-57703972D02*
X145745520Y-57173642D01*
X145871789Y-57047373D01*
X145972804Y-56996865D01*
X146073819Y-56996865D01*
X146149581Y-57022119D01*
X146275850Y-57097880D01*
X146351611Y-57173642D01*
X146427373Y-57299911D01*
X146452626Y-57375672D01*
X146452626Y-57476687D01*
X146402119Y-57577703D01*
X146275850Y-57703972D01*
X147058718Y-56820088D02*
X147058718Y-56870596D01*
X147008210Y-56971611D01*
X146957703Y-57022119D01*
X146856687Y-57072626D01*
X146755672Y-57072626D01*
X146679911Y-57047373D01*
X146553642Y-56971611D01*
X146477880Y-56895850D01*
X146402119Y-56769581D01*
X146376865Y-56693819D01*
X146376865Y-56592804D01*
X146427373Y-56491789D01*
X146477880Y-56441281D01*
X146578895Y-56390773D01*
X146629403Y-56390773D01*
X143789492Y-57590330D02*
X143360177Y-57514568D01*
X143486446Y-57893375D02*
X142956116Y-57363045D01*
X143158147Y-57161015D01*
X143233908Y-57135761D01*
X143284416Y-57135761D01*
X143360177Y-57161015D01*
X143435938Y-57236776D01*
X143461192Y-57312538D01*
X143461192Y-57363045D01*
X143435938Y-57438807D01*
X143233908Y-57640837D01*
X143966269Y-57363045D02*
X144067284Y-57312538D01*
X144193553Y-57186269D01*
X144218807Y-57110507D01*
X144218807Y-57059999D01*
X144193553Y-56984238D01*
X144143045Y-56933730D01*
X144067284Y-56908477D01*
X144016776Y-56908477D01*
X143941015Y-56933730D01*
X143814746Y-57009492D01*
X143738984Y-57034746D01*
X143688477Y-57034746D01*
X143612715Y-57009492D01*
X143562208Y-56958984D01*
X143536954Y-56883223D01*
X143536954Y-56832715D01*
X143562208Y-56756954D01*
X143688477Y-56630685D01*
X143789492Y-56580177D01*
X143915761Y-56403400D02*
X144218807Y-56100355D01*
X144597614Y-56782208D02*
X144067284Y-56251877D01*
X140846535Y-58133287D02*
X140316205Y-57602956D01*
X140871789Y-57804987D01*
X140669758Y-57249403D01*
X141200088Y-57779733D01*
X141023312Y-56895850D02*
X141124327Y-56794834D01*
X141200088Y-56769581D01*
X141301104Y-56769581D01*
X141427373Y-56845342D01*
X141604149Y-57022119D01*
X141679911Y-57148388D01*
X141679911Y-57249403D01*
X141654657Y-57325165D01*
X141553642Y-57426180D01*
X141477880Y-57451434D01*
X141376865Y-57451434D01*
X141250596Y-57375672D01*
X141073819Y-57198895D01*
X140998058Y-57072626D01*
X140998058Y-56971611D01*
X141023312Y-56895850D01*
X141957703Y-56971611D02*
X142058718Y-56921104D01*
X142184987Y-56794834D01*
X142210241Y-56719073D01*
X142210241Y-56668565D01*
X142184987Y-56592804D01*
X142134479Y-56542296D01*
X142058718Y-56517043D01*
X142008210Y-56517043D01*
X141932449Y-56542296D01*
X141806180Y-56618058D01*
X141730418Y-56643312D01*
X141679911Y-56643312D01*
X141604149Y-56618058D01*
X141553642Y-56567550D01*
X141528388Y-56491789D01*
X141528388Y-56441281D01*
X141553642Y-56365520D01*
X141679911Y-56239251D01*
X141780926Y-56188743D01*
X142513287Y-56466535D02*
X141982956Y-55936205D01*
X138913730Y-57765076D02*
X138913730Y-57815583D01*
X138863223Y-57916599D01*
X138812715Y-57967106D01*
X138711700Y-58017614D01*
X138610685Y-58017614D01*
X138534923Y-57992360D01*
X138408654Y-57916599D01*
X138332893Y-57840837D01*
X138257131Y-57714568D01*
X138231877Y-57638807D01*
X138231877Y-57537791D01*
X138282385Y-57436776D01*
X138332893Y-57386269D01*
X138433908Y-57335761D01*
X138484416Y-57335761D01*
X139444061Y-57335761D02*
X139191522Y-57588299D01*
X138661192Y-57057969D01*
X139620837Y-57158984D02*
X139090507Y-56628654D01*
X139923883Y-56855938D02*
X139393553Y-56780177D01*
X139393553Y-56325608D02*
X139393553Y-56931700D01*
X142904285Y-55763571D02*
X143011428Y-55799285D01*
X143190000Y-55799285D01*
X143261428Y-55763571D01*
X143297142Y-55727857D01*
X143332857Y-55656428D01*
X143332857Y-55585000D01*
X143297142Y-55513571D01*
X143261428Y-55477857D01*
X143190000Y-55442142D01*
X143047142Y-55406428D01*
X142975714Y-55370714D01*
X142940000Y-55335000D01*
X142904285Y-55263571D01*
X142904285Y-55192142D01*
X142940000Y-55120714D01*
X142975714Y-55085000D01*
X143047142Y-55049285D01*
X143225714Y-55049285D01*
X143332857Y-55085000D01*
X144082857Y-55727857D02*
X144047142Y-55763571D01*
X143940000Y-55799285D01*
X143868571Y-55799285D01*
X143761428Y-55763571D01*
X143690000Y-55692142D01*
X143654285Y-55620714D01*
X143618571Y-55477857D01*
X143618571Y-55370714D01*
X143654285Y-55227857D01*
X143690000Y-55156428D01*
X143761428Y-55085000D01*
X143868571Y-55049285D01*
X143940000Y-55049285D01*
X144047142Y-55085000D01*
X144082857Y-55120714D01*
X144832857Y-55799285D02*
X144582857Y-55442142D01*
X144404285Y-55799285D02*
X144404285Y-55049285D01*
X144690000Y-55049285D01*
X144761428Y-55085000D01*
X144797142Y-55120714D01*
X144832857Y-55192142D01*
X144832857Y-55299285D01*
X144797142Y-55370714D01*
X144761428Y-55406428D01*
X144690000Y-55442142D01*
X144404285Y-55442142D01*
X145154285Y-55406428D02*
X145404285Y-55406428D01*
X145511428Y-55799285D02*
X145154285Y-55799285D01*
X145154285Y-55049285D01*
X145511428Y-55049285D01*
X145832857Y-55406428D02*
X146082857Y-55406428D01*
X146190000Y-55799285D02*
X145832857Y-55799285D01*
X145832857Y-55049285D01*
X146190000Y-55049285D01*
X146511428Y-55799285D02*
X146511428Y-55049285D01*
X146940000Y-55799285D01*
X146940000Y-55049285D01*
X152386428Y-55406428D02*
X152493571Y-55442142D01*
X152529285Y-55477857D01*
X152565000Y-55549285D01*
X152565000Y-55656428D01*
X152529285Y-55727857D01*
X152493571Y-55763571D01*
X152422142Y-55799285D01*
X152136428Y-55799285D01*
X152136428Y-55049285D01*
X152386428Y-55049285D01*
X152457857Y-55085000D01*
X152493571Y-55120714D01*
X152529285Y-55192142D01*
X152529285Y-55263571D01*
X152493571Y-55335000D01*
X152457857Y-55370714D01*
X152386428Y-55406428D01*
X152136428Y-55406428D01*
X152886428Y-55049285D02*
X152886428Y-55656428D01*
X152922142Y-55727857D01*
X152957857Y-55763571D01*
X153029285Y-55799285D01*
X153172142Y-55799285D01*
X153243571Y-55763571D01*
X153279285Y-55727857D01*
X153315000Y-55656428D01*
X153315000Y-55049285D01*
X153565000Y-55049285D02*
X153993571Y-55049285D01*
X153779285Y-55799285D02*
X153779285Y-55049285D01*
X154136428Y-55049285D02*
X154565000Y-55049285D01*
X154350714Y-55799285D02*
X154350714Y-55049285D01*
X154957857Y-55049285D02*
X155100714Y-55049285D01*
X155172142Y-55085000D01*
X155243571Y-55156428D01*
X155279285Y-55299285D01*
X155279285Y-55549285D01*
X155243571Y-55692142D01*
X155172142Y-55763571D01*
X155100714Y-55799285D01*
X154957857Y-55799285D01*
X154886428Y-55763571D01*
X154815000Y-55692142D01*
X154779285Y-55549285D01*
X154779285Y-55299285D01*
X154815000Y-55156428D01*
X154886428Y-55085000D01*
X154957857Y-55049285D01*
X155600714Y-55799285D02*
X155600714Y-55049285D01*
X156029285Y-55799285D01*
X156029285Y-55049285D01*
X156350714Y-55763571D02*
X156457857Y-55799285D01*
X156636428Y-55799285D01*
X156707857Y-55763571D01*
X156743571Y-55727857D01*
X156779285Y-55656428D01*
X156779285Y-55585000D01*
X156743571Y-55513571D01*
X156707857Y-55477857D01*
X156636428Y-55442142D01*
X156493571Y-55406428D01*
X156422142Y-55370714D01*
X156386428Y-55335000D01*
X156350714Y-55263571D01*
X156350714Y-55192142D01*
X156386428Y-55120714D01*
X156422142Y-55085000D01*
X156493571Y-55049285D01*
X156672142Y-55049285D01*
X156779285Y-55085000D01*
D13*
X150440000Y-60860000D02*
X150440000Y-55060000D01*
D14*
G04 #@! TO.C,J1*
X137610000Y-60990000D02*
X137610000Y-59660000D01*
X138940000Y-60990000D02*
X137610000Y-60990000D01*
X140210000Y-60990000D02*
X140210000Y-58330000D01*
X140210000Y-58330000D02*
X158050000Y-58330000D01*
X140210000Y-60990000D02*
X158050000Y-60990000D01*
X158050000Y-60990000D02*
X158050000Y-58330000D01*
G04 #@! TO.C,J2*
X123110000Y-68330000D02*
X124440000Y-68330000D01*
X123110000Y-69660000D02*
X123110000Y-68330000D01*
X123110000Y-70930000D02*
X125770000Y-70930000D01*
X125770000Y-70930000D02*
X125770000Y-88770000D01*
X123110000Y-70930000D02*
X123110000Y-88770000D01*
X123110000Y-88770000D02*
X125770000Y-88770000D01*
D15*
G04 #@! TO.C,BT1*
X137160000Y-77560000D02*
X137160000Y-79060000D01*
X158820000Y-80300000D02*
X158820000Y-138300000D01*
X128320000Y-80300000D02*
X158820000Y-80300000D01*
X128320000Y-138300000D02*
X128320000Y-80300000D01*
X158820000Y-138300000D02*
X128320000Y-138300000D01*
X149110000Y-78310000D02*
X150610000Y-78310000D01*
X149860000Y-77560000D02*
X149860000Y-79060000D01*
D16*
G04 #@! TO.C,J3*
X166610000Y-79640000D02*
X166610000Y-62360000D01*
X126390000Y-79640000D02*
X166610000Y-79640000D01*
X126390000Y-62360000D02*
X126390000Y-79640000D01*
X166610000Y-62360000D02*
X126390000Y-62360000D01*
D14*
G04 #@! TO.C,JP1*
X168090000Y-112040000D02*
X170890000Y-112040000D01*
X171540000Y-112740000D02*
X171540000Y-113340000D01*
X170890000Y-114040000D02*
X168090000Y-114040000D01*
X167440000Y-113340000D02*
X167440000Y-112740000D01*
X170840000Y-112040000D02*
G75*
G02*
X171540000Y-112740000I0J-700000D01*
G01*
X171540000Y-113340000D02*
G75*
G02*
X170840000Y-114040000I-700000J0D01*
G01*
X168140000Y-114040000D02*
G75*
G02*
X167440000Y-113340000I0J700000D01*
G01*
X167440000Y-112740000D02*
G75*
G02*
X168140000Y-112040000I700000J0D01*
G01*
D17*
G04 #@! TO.C,G\u002A\u002A\u002A*
G36*
X120511996Y-109700550D02*
G01*
X120512045Y-109556112D01*
X120512141Y-109424135D01*
X120512295Y-109304033D01*
X120512519Y-109195220D01*
X120512827Y-109097109D01*
X120513231Y-109009113D01*
X120513743Y-108930647D01*
X120514376Y-108861122D01*
X120515142Y-108799954D01*
X120516055Y-108746556D01*
X120517126Y-108700340D01*
X120518369Y-108660721D01*
X120519795Y-108627112D01*
X120521418Y-108598927D01*
X120523250Y-108575579D01*
X120525303Y-108556481D01*
X120527590Y-108541048D01*
X120530124Y-108528692D01*
X120532918Y-108518827D01*
X120535983Y-108510867D01*
X120539332Y-108504225D01*
X120542979Y-108498315D01*
X120546935Y-108492549D01*
X120551213Y-108486343D01*
X120553395Y-108483018D01*
X120581964Y-108446866D01*
X120618197Y-108412879D01*
X120644571Y-108393917D01*
X120649348Y-108390776D01*
X120653532Y-108387822D01*
X120657592Y-108385051D01*
X120661997Y-108382457D01*
X120667213Y-108380032D01*
X120673710Y-108377773D01*
X120681956Y-108375672D01*
X120692419Y-108373725D01*
X120705567Y-108371925D01*
X120721868Y-108370267D01*
X120741791Y-108368744D01*
X120765804Y-108367352D01*
X120794376Y-108366084D01*
X120827974Y-108364934D01*
X120867066Y-108363898D01*
X120912122Y-108362968D01*
X120963609Y-108362139D01*
X121021995Y-108361406D01*
X121087749Y-108360762D01*
X121161339Y-108360203D01*
X121243233Y-108359721D01*
X121333900Y-108359312D01*
X121433807Y-108358969D01*
X121543424Y-108358687D01*
X121663217Y-108358459D01*
X121793656Y-108358281D01*
X121935209Y-108358147D01*
X122088343Y-108358050D01*
X122253528Y-108357985D01*
X122431231Y-108357946D01*
X122621921Y-108357927D01*
X122826066Y-108357923D01*
X123044134Y-108357927D01*
X123276594Y-108357935D01*
X123523913Y-108357939D01*
X123560000Y-108357939D01*
X123809451Y-108357936D01*
X124043977Y-108357928D01*
X124264045Y-108357923D01*
X124470125Y-108357926D01*
X124662683Y-108357942D01*
X124842189Y-108357978D01*
X125009110Y-108358039D01*
X125163915Y-108358131D01*
X125307072Y-108358260D01*
X125439049Y-108358431D01*
X125560315Y-108358651D01*
X125671338Y-108358925D01*
X125772585Y-108359259D01*
X125864526Y-108359659D01*
X125947629Y-108360130D01*
X126022361Y-108360679D01*
X126089191Y-108361310D01*
X126148588Y-108362030D01*
X126201019Y-108362845D01*
X126246953Y-108363760D01*
X126286858Y-108364782D01*
X126321202Y-108365915D01*
X126350454Y-108367166D01*
X126375081Y-108368540D01*
X126395552Y-108370044D01*
X126412336Y-108371683D01*
X126425900Y-108373463D01*
X126436713Y-108375389D01*
X126445243Y-108377467D01*
X126451958Y-108379704D01*
X126457327Y-108382105D01*
X126461817Y-108384675D01*
X126465898Y-108387421D01*
X126470036Y-108390348D01*
X126474702Y-108393462D01*
X126475428Y-108393917D01*
X126512855Y-108422259D01*
X126547558Y-108457594D01*
X126566604Y-108483018D01*
X126571156Y-108489839D01*
X126575362Y-108495947D01*
X126579236Y-108501945D01*
X126582792Y-108508437D01*
X126586043Y-108516026D01*
X126589003Y-108525315D01*
X126591685Y-108536909D01*
X126594103Y-108551410D01*
X126596271Y-108569422D01*
X126598203Y-108591548D01*
X126599911Y-108618392D01*
X126601410Y-108650557D01*
X126602712Y-108688647D01*
X126603833Y-108733264D01*
X126604785Y-108785013D01*
X126605581Y-108844496D01*
X126606237Y-108912318D01*
X126606764Y-108989081D01*
X126607177Y-109075389D01*
X126607490Y-109171845D01*
X126607715Y-109279054D01*
X126607867Y-109397617D01*
X126607960Y-109528139D01*
X126608006Y-109671224D01*
X126608019Y-109827473D01*
X126608014Y-109997492D01*
X126608003Y-110181883D01*
X126608000Y-110318435D01*
X126608000Y-112037091D01*
X126346303Y-112037091D01*
X126346303Y-112568182D01*
X126608000Y-112568182D01*
X126607493Y-117557742D01*
X126607455Y-117894817D01*
X126607411Y-118216830D01*
X126607361Y-118524116D01*
X126607303Y-118817007D01*
X126607236Y-119095836D01*
X126607161Y-119360937D01*
X126607076Y-119612643D01*
X126606980Y-119851287D01*
X126606873Y-120077201D01*
X126606754Y-120290720D01*
X126606622Y-120492175D01*
X126606476Y-120681901D01*
X126606316Y-120860230D01*
X126606141Y-121027496D01*
X126605951Y-121184031D01*
X126605744Y-121330168D01*
X126605519Y-121466242D01*
X126605277Y-121592584D01*
X126605015Y-121709528D01*
X126604734Y-121817407D01*
X126604433Y-121916554D01*
X126604111Y-122007303D01*
X126603767Y-122089986D01*
X126603400Y-122164936D01*
X126603010Y-122232487D01*
X126602596Y-122292972D01*
X126602157Y-122346723D01*
X126601692Y-122394074D01*
X126601202Y-122435358D01*
X126600684Y-122470908D01*
X126600138Y-122501058D01*
X126599564Y-122526139D01*
X126598960Y-122546486D01*
X126598326Y-122562432D01*
X126597662Y-122574309D01*
X126596966Y-122582451D01*
X126596237Y-122587190D01*
X126596147Y-122587549D01*
X126573099Y-122644257D01*
X126536941Y-122694800D01*
X126489485Y-122736800D01*
X126475428Y-122746083D01*
X126468340Y-122750531D01*
X126461623Y-122754597D01*
X126454589Y-122758297D01*
X126446550Y-122761649D01*
X126436816Y-122764671D01*
X126424701Y-122767379D01*
X126409514Y-122769791D01*
X126390569Y-122771923D01*
X126367176Y-122773793D01*
X126338647Y-122775418D01*
X126304293Y-122776816D01*
X126263426Y-122778002D01*
X126215358Y-122778996D01*
X126159401Y-122779813D01*
X126094864Y-122780470D01*
X126021062Y-122780986D01*
X125937304Y-122781377D01*
X125842902Y-122781660D01*
X125737169Y-122781853D01*
X125619415Y-122781973D01*
X125488952Y-122782036D01*
X125345092Y-122782060D01*
X125187146Y-122782062D01*
X125032352Y-122782060D01*
X124245030Y-122782060D01*
X124245030Y-121658303D01*
X124560606Y-121658303D01*
X124560606Y-121342727D01*
X124560606Y-120103568D01*
X124560606Y-119787939D01*
X123621401Y-119787939D01*
X123623412Y-119478136D01*
X123625424Y-119168333D01*
X124093015Y-119166349D01*
X124560606Y-119164366D01*
X124560606Y-118856606D01*
X124172424Y-118856606D01*
X124172424Y-118547354D01*
X124256664Y-118547287D01*
X124332428Y-118547148D01*
X124398669Y-118546941D01*
X124454338Y-118546667D01*
X124498389Y-118546329D01*
X124529773Y-118545928D01*
X124547443Y-118545468D01*
X124551030Y-118545162D01*
X124552835Y-118541617D01*
X124554393Y-118531890D01*
X124555714Y-118515138D01*
X124556810Y-118490516D01*
X124557691Y-118457180D01*
X124558366Y-118414287D01*
X124558846Y-118360992D01*
X124559143Y-118296451D01*
X124559265Y-118219820D01*
X124559224Y-118130255D01*
X124559030Y-118026912D01*
X124558727Y-117919724D01*
X124556757Y-117297970D01*
X124400893Y-117295886D01*
X124245030Y-117293802D01*
X124245030Y-118233151D01*
X123937270Y-118233151D01*
X123935286Y-117765560D01*
X123933303Y-117297970D01*
X123001969Y-117297970D01*
X123001969Y-118544879D01*
X123771666Y-118546863D01*
X123879330Y-118547104D01*
X123982709Y-118547264D01*
X124080757Y-118547347D01*
X124172424Y-118547354D01*
X124172424Y-118856606D01*
X123621575Y-118856606D01*
X123621575Y-119164485D01*
X123313696Y-119164485D01*
X123313696Y-118856606D01*
X122998121Y-118856606D01*
X122998121Y-116986242D01*
X124245030Y-116986242D01*
X124245030Y-116054909D01*
X124552909Y-116054909D01*
X124552909Y-116986242D01*
X124868484Y-116986242D01*
X124868484Y-115739333D01*
X122998121Y-115739333D01*
X122998121Y-115431454D01*
X124245030Y-115431454D01*
X124245030Y-114500121D01*
X124552909Y-114500121D01*
X124552909Y-115431454D01*
X124868484Y-115431454D01*
X124868484Y-114184545D01*
X122998121Y-114184545D01*
X122998121Y-113876667D01*
X123313696Y-113876667D01*
X123313696Y-112945333D01*
X123621575Y-112945333D01*
X123621575Y-113876667D01*
X124560606Y-113876667D01*
X124560606Y-112629757D01*
X122998121Y-112629757D01*
X122998121Y-112321879D01*
X124560606Y-112321879D01*
X124560606Y-112006303D01*
X123621575Y-112006303D01*
X123621575Y-111698424D01*
X123937151Y-111698424D01*
X123937151Y-111382848D01*
X124560606Y-111382848D01*
X124560606Y-111074970D01*
X124172424Y-111074970D01*
X124172424Y-110765717D01*
X124256664Y-110765650D01*
X124332428Y-110765512D01*
X124398669Y-110765305D01*
X124454338Y-110765031D01*
X124498389Y-110764693D01*
X124529773Y-110764292D01*
X124547443Y-110763832D01*
X124551030Y-110763526D01*
X124552835Y-110759981D01*
X124554393Y-110750254D01*
X124555714Y-110733501D01*
X124556810Y-110708879D01*
X124557691Y-110675544D01*
X124558366Y-110632650D01*
X124558846Y-110579355D01*
X124559143Y-110514814D01*
X124559265Y-110438183D01*
X124559224Y-110348618D01*
X124559030Y-110245275D01*
X124558727Y-110138088D01*
X124556757Y-109516333D01*
X124400893Y-109514250D01*
X124245030Y-109512166D01*
X124245030Y-110451515D01*
X123937270Y-110451515D01*
X123935286Y-109983924D01*
X123933303Y-109516333D01*
X123001969Y-109516333D01*
X123001969Y-110763242D01*
X123771666Y-110765226D01*
X123879330Y-110765467D01*
X123982709Y-110765628D01*
X124080757Y-110765711D01*
X124172424Y-110765717D01*
X124172424Y-111074970D01*
X122998121Y-111074970D01*
X122998121Y-111382530D01*
X123153984Y-111384613D01*
X123309848Y-111386697D01*
X123311860Y-111696500D01*
X123313871Y-112006303D01*
X122998121Y-112006303D01*
X122998121Y-112321879D01*
X122998121Y-112629757D01*
X122998121Y-113876667D01*
X122998121Y-114184545D01*
X122998121Y-115431454D01*
X122998121Y-115739333D01*
X122998121Y-116054909D01*
X123937326Y-116054909D01*
X123935314Y-116364712D01*
X123933303Y-116674515D01*
X122998121Y-116678483D01*
X122998121Y-116986242D01*
X122998121Y-118856606D01*
X122998121Y-119164166D01*
X123153984Y-119166250D01*
X123309848Y-119168333D01*
X123311860Y-119478136D01*
X123313871Y-119787939D01*
X122374347Y-119787939D01*
X122378515Y-120099667D01*
X123469560Y-120101617D01*
X124560606Y-120103568D01*
X124560606Y-121342727D01*
X124245030Y-121342727D01*
X124245030Y-121034848D01*
X123937151Y-121034848D01*
X123937151Y-121350424D01*
X124245030Y-121350424D01*
X124245030Y-121658303D01*
X124245030Y-122782060D01*
X123698545Y-122782060D01*
X123698545Y-122520364D01*
X123175151Y-122520364D01*
X123175151Y-122782060D01*
X122374347Y-122782060D01*
X122374347Y-121658303D01*
X122690242Y-121658303D01*
X122690242Y-121350743D01*
X122846106Y-121348659D01*
X123001969Y-121346576D01*
X123004053Y-121190712D01*
X123006136Y-121034848D01*
X123313696Y-121034848D01*
X123313696Y-120726970D01*
X123621575Y-120726970D01*
X123621575Y-121034848D01*
X123937151Y-121034848D01*
X123937151Y-120719273D01*
X123621575Y-120719273D01*
X123621575Y-120411394D01*
X123313696Y-120411394D01*
X123313696Y-120719273D01*
X122998121Y-120719273D01*
X122998121Y-121034848D01*
X122690242Y-121034848D01*
X122690242Y-121342408D01*
X122534378Y-121344492D01*
X122378515Y-121346576D01*
X122376431Y-121502439D01*
X122374347Y-121658303D01*
X122374347Y-122782060D01*
X121964495Y-122782060D01*
X121801422Y-122782061D01*
X121653017Y-122782054D01*
X121518558Y-122782016D01*
X121397320Y-122781929D01*
X121316026Y-122781813D01*
X121316026Y-122466371D01*
X121404143Y-122459610D01*
X121485276Y-122439372D01*
X121560531Y-122405278D01*
X121628573Y-122358919D01*
X121692782Y-122298080D01*
X121744595Y-122229309D01*
X121783494Y-122154123D01*
X121808964Y-122074039D01*
X121820486Y-121990574D01*
X121817546Y-121905244D01*
X121805306Y-121840024D01*
X121777347Y-121759921D01*
X121737178Y-121687172D01*
X121686329Y-121622759D01*
X121626331Y-121567664D01*
X121558712Y-121522869D01*
X121485004Y-121489355D01*
X121406736Y-121468105D01*
X121325439Y-121460101D01*
X121242642Y-121466324D01*
X121227325Y-121469105D01*
X121142820Y-121493126D01*
X121066490Y-121529148D01*
X120998990Y-121575775D01*
X120940974Y-121631607D01*
X120893097Y-121695246D01*
X120856012Y-121765294D01*
X120830374Y-121840352D01*
X120816837Y-121919023D01*
X120816056Y-121999908D01*
X120828684Y-122081609D01*
X120855377Y-122162728D01*
X120879479Y-122212485D01*
X120915172Y-122265667D01*
X120961857Y-122317580D01*
X121015365Y-122364279D01*
X121071527Y-122401822D01*
X121089939Y-122411534D01*
X121150107Y-122438024D01*
X121205028Y-122455067D01*
X121260401Y-122464045D01*
X121316026Y-122466371D01*
X121316026Y-122781813D01*
X121288578Y-122781773D01*
X121191607Y-122781529D01*
X121105684Y-122781175D01*
X121030084Y-122780694D01*
X120964083Y-122780064D01*
X120906956Y-122779267D01*
X120857978Y-122778282D01*
X120816426Y-122777090D01*
X120781575Y-122775671D01*
X120752700Y-122774005D01*
X120729077Y-122772073D01*
X120709982Y-122769854D01*
X120694690Y-122767329D01*
X120682477Y-122764479D01*
X120672618Y-122761283D01*
X120664390Y-122757722D01*
X120657066Y-122753776D01*
X120649924Y-122749426D01*
X120644571Y-122746083D01*
X120593565Y-122705981D01*
X120554315Y-122656601D01*
X120527881Y-122599358D01*
X120523446Y-122584167D01*
X120522670Y-122579912D01*
X120521929Y-122573017D01*
X120521222Y-122563137D01*
X120520549Y-122549929D01*
X120519909Y-122533047D01*
X120519301Y-122512147D01*
X120518724Y-122486886D01*
X120518178Y-122456919D01*
X120517661Y-122421902D01*
X120517173Y-122381490D01*
X120516714Y-122335340D01*
X120516281Y-122283106D01*
X120515875Y-122224445D01*
X120515495Y-122159013D01*
X120515140Y-122086465D01*
X120514809Y-122006457D01*
X120514501Y-121918644D01*
X120514215Y-121822683D01*
X120513951Y-121718229D01*
X120513708Y-121604937D01*
X120513486Y-121482465D01*
X120513282Y-121350466D01*
X120513097Y-121208598D01*
X120512930Y-121056515D01*
X120512779Y-120893874D01*
X120512645Y-120720331D01*
X120512526Y-120535540D01*
X120512422Y-120339158D01*
X120512331Y-120130840D01*
X120512253Y-119910243D01*
X120512187Y-119677022D01*
X120512133Y-119430832D01*
X120512089Y-119171329D01*
X120512055Y-118898170D01*
X120512030Y-118611010D01*
X120512013Y-118309504D01*
X120512003Y-117993309D01*
X120512000Y-117662079D01*
X120512000Y-112752909D01*
X120773696Y-112752909D01*
X120773696Y-112229515D01*
X120512000Y-112229515D01*
X120512000Y-110414647D01*
X120511994Y-110214498D01*
X120511983Y-110029157D01*
X120511979Y-109858036D01*
X120511996Y-109700550D01*
G37*
X120511996Y-109700550D02*
X120512045Y-109556112D01*
X120512141Y-109424135D01*
X120512295Y-109304033D01*
X120512519Y-109195220D01*
X120512827Y-109097109D01*
X120513231Y-109009113D01*
X120513743Y-108930647D01*
X120514376Y-108861122D01*
X120515142Y-108799954D01*
X120516055Y-108746556D01*
X120517126Y-108700340D01*
X120518369Y-108660721D01*
X120519795Y-108627112D01*
X120521418Y-108598927D01*
X120523250Y-108575579D01*
X120525303Y-108556481D01*
X120527590Y-108541048D01*
X120530124Y-108528692D01*
X120532918Y-108518827D01*
X120535983Y-108510867D01*
X120539332Y-108504225D01*
X120542979Y-108498315D01*
X120546935Y-108492549D01*
X120551213Y-108486343D01*
X120553395Y-108483018D01*
X120581964Y-108446866D01*
X120618197Y-108412879D01*
X120644571Y-108393917D01*
X120649348Y-108390776D01*
X120653532Y-108387822D01*
X120657592Y-108385051D01*
X120661997Y-108382457D01*
X120667213Y-108380032D01*
X120673710Y-108377773D01*
X120681956Y-108375672D01*
X120692419Y-108373725D01*
X120705567Y-108371925D01*
X120721868Y-108370267D01*
X120741791Y-108368744D01*
X120765804Y-108367352D01*
X120794376Y-108366084D01*
X120827974Y-108364934D01*
X120867066Y-108363898D01*
X120912122Y-108362968D01*
X120963609Y-108362139D01*
X121021995Y-108361406D01*
X121087749Y-108360762D01*
X121161339Y-108360203D01*
X121243233Y-108359721D01*
X121333900Y-108359312D01*
X121433807Y-108358969D01*
X121543424Y-108358687D01*
X121663217Y-108358459D01*
X121793656Y-108358281D01*
X121935209Y-108358147D01*
X122088343Y-108358050D01*
X122253528Y-108357985D01*
X122431231Y-108357946D01*
X122621921Y-108357927D01*
X122826066Y-108357923D01*
X123044134Y-108357927D01*
X123276594Y-108357935D01*
X123523913Y-108357939D01*
X123560000Y-108357939D01*
X123809451Y-108357936D01*
X124043977Y-108357928D01*
X124264045Y-108357923D01*
X124470125Y-108357926D01*
X124662683Y-108357942D01*
X124842189Y-108357978D01*
X125009110Y-108358039D01*
X125163915Y-108358131D01*
X125307072Y-108358260D01*
X125439049Y-108358431D01*
X125560315Y-108358651D01*
X125671338Y-108358925D01*
X125772585Y-108359259D01*
X125864526Y-108359659D01*
X125947629Y-108360130D01*
X126022361Y-108360679D01*
X126089191Y-108361310D01*
X126148588Y-108362030D01*
X126201019Y-108362845D01*
X126246953Y-108363760D01*
X126286858Y-108364782D01*
X126321202Y-108365915D01*
X126350454Y-108367166D01*
X126375081Y-108368540D01*
X126395552Y-108370044D01*
X126412336Y-108371683D01*
X126425900Y-108373463D01*
X126436713Y-108375389D01*
X126445243Y-108377467D01*
X126451958Y-108379704D01*
X126457327Y-108382105D01*
X126461817Y-108384675D01*
X126465898Y-108387421D01*
X126470036Y-108390348D01*
X126474702Y-108393462D01*
X126475428Y-108393917D01*
X126512855Y-108422259D01*
X126547558Y-108457594D01*
X126566604Y-108483018D01*
X126571156Y-108489839D01*
X126575362Y-108495947D01*
X126579236Y-108501945D01*
X126582792Y-108508437D01*
X126586043Y-108516026D01*
X126589003Y-108525315D01*
X126591685Y-108536909D01*
X126594103Y-108551410D01*
X126596271Y-108569422D01*
X126598203Y-108591548D01*
X126599911Y-108618392D01*
X126601410Y-108650557D01*
X126602712Y-108688647D01*
X126603833Y-108733264D01*
X126604785Y-108785013D01*
X126605581Y-108844496D01*
X126606237Y-108912318D01*
X126606764Y-108989081D01*
X126607177Y-109075389D01*
X126607490Y-109171845D01*
X126607715Y-109279054D01*
X126607867Y-109397617D01*
X126607960Y-109528139D01*
X126608006Y-109671224D01*
X126608019Y-109827473D01*
X126608014Y-109997492D01*
X126608003Y-110181883D01*
X126608000Y-110318435D01*
X126608000Y-112037091D01*
X126346303Y-112037091D01*
X126346303Y-112568182D01*
X126608000Y-112568182D01*
X126607493Y-117557742D01*
X126607455Y-117894817D01*
X126607411Y-118216830D01*
X126607361Y-118524116D01*
X126607303Y-118817007D01*
X126607236Y-119095836D01*
X126607161Y-119360937D01*
X126607076Y-119612643D01*
X126606980Y-119851287D01*
X126606873Y-120077201D01*
X126606754Y-120290720D01*
X126606622Y-120492175D01*
X126606476Y-120681901D01*
X126606316Y-120860230D01*
X126606141Y-121027496D01*
X126605951Y-121184031D01*
X126605744Y-121330168D01*
X126605519Y-121466242D01*
X126605277Y-121592584D01*
X126605015Y-121709528D01*
X126604734Y-121817407D01*
X126604433Y-121916554D01*
X126604111Y-122007303D01*
X126603767Y-122089986D01*
X126603400Y-122164936D01*
X126603010Y-122232487D01*
X126602596Y-122292972D01*
X126602157Y-122346723D01*
X126601692Y-122394074D01*
X126601202Y-122435358D01*
X126600684Y-122470908D01*
X126600138Y-122501058D01*
X126599564Y-122526139D01*
X126598960Y-122546486D01*
X126598326Y-122562432D01*
X126597662Y-122574309D01*
X126596966Y-122582451D01*
X126596237Y-122587190D01*
X126596147Y-122587549D01*
X126573099Y-122644257D01*
X126536941Y-122694800D01*
X126489485Y-122736800D01*
X126475428Y-122746083D01*
X126468340Y-122750531D01*
X126461623Y-122754597D01*
X126454589Y-122758297D01*
X126446550Y-122761649D01*
X126436816Y-122764671D01*
X126424701Y-122767379D01*
X126409514Y-122769791D01*
X126390569Y-122771923D01*
X126367176Y-122773793D01*
X126338647Y-122775418D01*
X126304293Y-122776816D01*
X126263426Y-122778002D01*
X126215358Y-122778996D01*
X126159401Y-122779813D01*
X126094864Y-122780470D01*
X126021062Y-122780986D01*
X125937304Y-122781377D01*
X125842902Y-122781660D01*
X125737169Y-122781853D01*
X125619415Y-122781973D01*
X125488952Y-122782036D01*
X125345092Y-122782060D01*
X125187146Y-122782062D01*
X125032352Y-122782060D01*
X124245030Y-122782060D01*
X124245030Y-121658303D01*
X124560606Y-121658303D01*
X124560606Y-121342727D01*
X124560606Y-120103568D01*
X124560606Y-119787939D01*
X123621401Y-119787939D01*
X123623412Y-119478136D01*
X123625424Y-119168333D01*
X124093015Y-119166349D01*
X124560606Y-119164366D01*
X124560606Y-118856606D01*
X124172424Y-118856606D01*
X124172424Y-118547354D01*
X124256664Y-118547287D01*
X124332428Y-118547148D01*
X124398669Y-118546941D01*
X124454338Y-118546667D01*
X124498389Y-118546329D01*
X124529773Y-118545928D01*
X124547443Y-118545468D01*
X124551030Y-118545162D01*
X124552835Y-118541617D01*
X124554393Y-118531890D01*
X124555714Y-118515138D01*
X124556810Y-118490516D01*
X124557691Y-118457180D01*
X124558366Y-118414287D01*
X124558846Y-118360992D01*
X124559143Y-118296451D01*
X124559265Y-118219820D01*
X124559224Y-118130255D01*
X124559030Y-118026912D01*
X124558727Y-117919724D01*
X124556757Y-117297970D01*
X124400893Y-117295886D01*
X124245030Y-117293802D01*
X124245030Y-118233151D01*
X123937270Y-118233151D01*
X123935286Y-117765560D01*
X123933303Y-117297970D01*
X123001969Y-117297970D01*
X123001969Y-118544879D01*
X123771666Y-118546863D01*
X123879330Y-118547104D01*
X123982709Y-118547264D01*
X124080757Y-118547347D01*
X124172424Y-118547354D01*
X124172424Y-118856606D01*
X123621575Y-118856606D01*
X123621575Y-119164485D01*
X123313696Y-119164485D01*
X123313696Y-118856606D01*
X122998121Y-118856606D01*
X122998121Y-116986242D01*
X124245030Y-116986242D01*
X124245030Y-116054909D01*
X124552909Y-116054909D01*
X124552909Y-116986242D01*
X124868484Y-116986242D01*
X124868484Y-115739333D01*
X122998121Y-115739333D01*
X122998121Y-115431454D01*
X124245030Y-115431454D01*
X124245030Y-114500121D01*
X124552909Y-114500121D01*
X124552909Y-115431454D01*
X124868484Y-115431454D01*
X124868484Y-114184545D01*
X122998121Y-114184545D01*
X122998121Y-113876667D01*
X123313696Y-113876667D01*
X123313696Y-112945333D01*
X123621575Y-112945333D01*
X123621575Y-113876667D01*
X124560606Y-113876667D01*
X124560606Y-112629757D01*
X122998121Y-112629757D01*
X122998121Y-112321879D01*
X124560606Y-112321879D01*
X124560606Y-112006303D01*
X123621575Y-112006303D01*
X123621575Y-111698424D01*
X123937151Y-111698424D01*
X123937151Y-111382848D01*
X124560606Y-111382848D01*
X124560606Y-111074970D01*
X124172424Y-111074970D01*
X124172424Y-110765717D01*
X124256664Y-110765650D01*
X124332428Y-110765512D01*
X124398669Y-110765305D01*
X124454338Y-110765031D01*
X124498389Y-110764693D01*
X124529773Y-110764292D01*
X124547443Y-110763832D01*
X124551030Y-110763526D01*
X124552835Y-110759981D01*
X124554393Y-110750254D01*
X124555714Y-110733501D01*
X124556810Y-110708879D01*
X124557691Y-110675544D01*
X124558366Y-110632650D01*
X124558846Y-110579355D01*
X124559143Y-110514814D01*
X124559265Y-110438183D01*
X124559224Y-110348618D01*
X124559030Y-110245275D01*
X124558727Y-110138088D01*
X124556757Y-109516333D01*
X124400893Y-109514250D01*
X124245030Y-109512166D01*
X124245030Y-110451515D01*
X123937270Y-110451515D01*
X123935286Y-109983924D01*
X123933303Y-109516333D01*
X123001969Y-109516333D01*
X123001969Y-110763242D01*
X123771666Y-110765226D01*
X123879330Y-110765467D01*
X123982709Y-110765628D01*
X124080757Y-110765711D01*
X124172424Y-110765717D01*
X124172424Y-111074970D01*
X122998121Y-111074970D01*
X122998121Y-111382530D01*
X123153984Y-111384613D01*
X123309848Y-111386697D01*
X123311860Y-111696500D01*
X123313871Y-112006303D01*
X122998121Y-112006303D01*
X122998121Y-112321879D01*
X122998121Y-112629757D01*
X122998121Y-113876667D01*
X122998121Y-114184545D01*
X122998121Y-115431454D01*
X122998121Y-115739333D01*
X122998121Y-116054909D01*
X123937326Y-116054909D01*
X123935314Y-116364712D01*
X123933303Y-116674515D01*
X122998121Y-116678483D01*
X122998121Y-116986242D01*
X122998121Y-118856606D01*
X122998121Y-119164166D01*
X123153984Y-119166250D01*
X123309848Y-119168333D01*
X123311860Y-119478136D01*
X123313871Y-119787939D01*
X122374347Y-119787939D01*
X122378515Y-120099667D01*
X123469560Y-120101617D01*
X124560606Y-120103568D01*
X124560606Y-121342727D01*
X124245030Y-121342727D01*
X124245030Y-121034848D01*
X123937151Y-121034848D01*
X123937151Y-121350424D01*
X124245030Y-121350424D01*
X124245030Y-121658303D01*
X124245030Y-122782060D01*
X123698545Y-122782060D01*
X123698545Y-122520364D01*
X123175151Y-122520364D01*
X123175151Y-122782060D01*
X122374347Y-122782060D01*
X122374347Y-121658303D01*
X122690242Y-121658303D01*
X122690242Y-121350743D01*
X122846106Y-121348659D01*
X123001969Y-121346576D01*
X123004053Y-121190712D01*
X123006136Y-121034848D01*
X123313696Y-121034848D01*
X123313696Y-120726970D01*
X123621575Y-120726970D01*
X123621575Y-121034848D01*
X123937151Y-121034848D01*
X123937151Y-120719273D01*
X123621575Y-120719273D01*
X123621575Y-120411394D01*
X123313696Y-120411394D01*
X123313696Y-120719273D01*
X122998121Y-120719273D01*
X122998121Y-121034848D01*
X122690242Y-121034848D01*
X122690242Y-121342408D01*
X122534378Y-121344492D01*
X122378515Y-121346576D01*
X122376431Y-121502439D01*
X122374347Y-121658303D01*
X122374347Y-122782060D01*
X121964495Y-122782060D01*
X121801422Y-122782061D01*
X121653017Y-122782054D01*
X121518558Y-122782016D01*
X121397320Y-122781929D01*
X121316026Y-122781813D01*
X121316026Y-122466371D01*
X121404143Y-122459610D01*
X121485276Y-122439372D01*
X121560531Y-122405278D01*
X121628573Y-122358919D01*
X121692782Y-122298080D01*
X121744595Y-122229309D01*
X121783494Y-122154123D01*
X121808964Y-122074039D01*
X121820486Y-121990574D01*
X121817546Y-121905244D01*
X121805306Y-121840024D01*
X121777347Y-121759921D01*
X121737178Y-121687172D01*
X121686329Y-121622759D01*
X121626331Y-121567664D01*
X121558712Y-121522869D01*
X121485004Y-121489355D01*
X121406736Y-121468105D01*
X121325439Y-121460101D01*
X121242642Y-121466324D01*
X121227325Y-121469105D01*
X121142820Y-121493126D01*
X121066490Y-121529148D01*
X120998990Y-121575775D01*
X120940974Y-121631607D01*
X120893097Y-121695246D01*
X120856012Y-121765294D01*
X120830374Y-121840352D01*
X120816837Y-121919023D01*
X120816056Y-121999908D01*
X120828684Y-122081609D01*
X120855377Y-122162728D01*
X120879479Y-122212485D01*
X120915172Y-122265667D01*
X120961857Y-122317580D01*
X121015365Y-122364279D01*
X121071527Y-122401822D01*
X121089939Y-122411534D01*
X121150107Y-122438024D01*
X121205028Y-122455067D01*
X121260401Y-122464045D01*
X121316026Y-122466371D01*
X121316026Y-122781813D01*
X121288578Y-122781773D01*
X121191607Y-122781529D01*
X121105684Y-122781175D01*
X121030084Y-122780694D01*
X120964083Y-122780064D01*
X120906956Y-122779267D01*
X120857978Y-122778282D01*
X120816426Y-122777090D01*
X120781575Y-122775671D01*
X120752700Y-122774005D01*
X120729077Y-122772073D01*
X120709982Y-122769854D01*
X120694690Y-122767329D01*
X120682477Y-122764479D01*
X120672618Y-122761283D01*
X120664390Y-122757722D01*
X120657066Y-122753776D01*
X120649924Y-122749426D01*
X120644571Y-122746083D01*
X120593565Y-122705981D01*
X120554315Y-122656601D01*
X120527881Y-122599358D01*
X120523446Y-122584167D01*
X120522670Y-122579912D01*
X120521929Y-122573017D01*
X120521222Y-122563137D01*
X120520549Y-122549929D01*
X120519909Y-122533047D01*
X120519301Y-122512147D01*
X120518724Y-122486886D01*
X120518178Y-122456919D01*
X120517661Y-122421902D01*
X120517173Y-122381490D01*
X120516714Y-122335340D01*
X120516281Y-122283106D01*
X120515875Y-122224445D01*
X120515495Y-122159013D01*
X120515140Y-122086465D01*
X120514809Y-122006457D01*
X120514501Y-121918644D01*
X120514215Y-121822683D01*
X120513951Y-121718229D01*
X120513708Y-121604937D01*
X120513486Y-121482465D01*
X120513282Y-121350466D01*
X120513097Y-121208598D01*
X120512930Y-121056515D01*
X120512779Y-120893874D01*
X120512645Y-120720331D01*
X120512526Y-120535540D01*
X120512422Y-120339158D01*
X120512331Y-120130840D01*
X120512253Y-119910243D01*
X120512187Y-119677022D01*
X120512133Y-119430832D01*
X120512089Y-119171329D01*
X120512055Y-118898170D01*
X120512030Y-118611010D01*
X120512013Y-118309504D01*
X120512003Y-117993309D01*
X120512000Y-117662079D01*
X120512000Y-112752909D01*
X120773696Y-112752909D01*
X120773696Y-112229515D01*
X120512000Y-112229515D01*
X120512000Y-110414647D01*
X120511994Y-110214498D01*
X120511983Y-110029157D01*
X120511979Y-109858036D01*
X120511996Y-109700550D01*
G36*
X123937151Y-114500121D02*
G01*
X123937151Y-115115879D01*
X123313696Y-115115879D01*
X123313696Y-114500121D01*
X123937151Y-114500121D01*
G37*
X123937151Y-114500121D02*
X123937151Y-115115879D01*
X123313696Y-115115879D01*
X123313696Y-114500121D01*
X123937151Y-114500121D01*
G36*
X123621575Y-117609697D02*
G01*
X123621575Y-118233151D01*
X123313696Y-118233151D01*
X123313696Y-117609697D01*
X123621575Y-117609697D01*
G37*
X123621575Y-117609697D02*
X123621575Y-118233151D01*
X123313696Y-118233151D01*
X123313696Y-117609697D01*
X123621575Y-117609697D01*
G36*
X124245030Y-112945333D02*
G01*
X124245030Y-113561091D01*
X123937151Y-113561091D01*
X123937151Y-112945333D01*
X124245030Y-112945333D01*
G37*
X124245030Y-112945333D02*
X124245030Y-113561091D01*
X123937151Y-113561091D01*
X123937151Y-112945333D01*
X124245030Y-112945333D01*
G36*
X123621575Y-109828060D02*
G01*
X123621575Y-110451515D01*
X123313696Y-110451515D01*
X123313696Y-109828060D01*
X123621575Y-109828060D01*
G37*
X123621575Y-109828060D02*
X123621575Y-110451515D01*
X123313696Y-110451515D01*
X123313696Y-109828060D01*
X123621575Y-109828060D01*
D14*
G04 #@! TO.C,F1*
X163110000Y-105120000D02*
X171850000Y-105120000D01*
X163110000Y-105120000D02*
X163110000Y-109360000D01*
X171850000Y-109360000D02*
X171850000Y-105120000D01*
X171850000Y-109360000D02*
X163110000Y-109360000D01*
G04 #@! TO.C,SW1*
X168450000Y-64000000D02*
X173650000Y-64000000D01*
X173650000Y-78000000D02*
X168450000Y-78000000D01*
X167700000Y-75950000D02*
X167700000Y-66050000D01*
X174400000Y-66050000D02*
X174400000Y-75950000D01*
X168050000Y-78300000D02*
X166750000Y-78300000D01*
X166750000Y-78300000D02*
X166750000Y-77000000D01*
G04 #@! TO.C,D1*
X171940000Y-91240000D02*
X168100000Y-91240000D01*
X171940000Y-91480000D02*
X168100000Y-91480000D01*
X171940000Y-91360000D02*
X168100000Y-91360000D01*
X170020000Y-100200000D02*
X170020000Y-97940000D01*
X170020000Y-87840000D02*
X170020000Y-90100000D01*
X171940000Y-97940000D02*
X171940000Y-90100000D01*
X168100000Y-97940000D02*
X171940000Y-97940000D01*
X168100000Y-90100000D02*
X168100000Y-97940000D01*
X171940000Y-90100000D02*
X168100000Y-90100000D01*
G04 #@! TO.C,H1*
D11*
X123678095Y-55912380D02*
X123678095Y-54912380D01*
X123678095Y-55388571D02*
X124249523Y-55388571D01*
X124249523Y-55912380D02*
X124249523Y-54912380D01*
X125249523Y-55912380D02*
X124678095Y-55912380D01*
X124963809Y-55912380D02*
X124963809Y-54912380D01*
X124868571Y-55055238D01*
X124773333Y-55150476D01*
X124678095Y-55198095D01*
X122154285Y-64312380D02*
X122154285Y-63312380D01*
X122487619Y-64026666D01*
X122820952Y-63312380D01*
X122820952Y-64312380D01*
X123487619Y-63312380D02*
X123678095Y-63312380D01*
X123773333Y-63360000D01*
X123868571Y-63455238D01*
X123916190Y-63645714D01*
X123916190Y-63979047D01*
X123868571Y-64169523D01*
X123773333Y-64264761D01*
X123678095Y-64312380D01*
X123487619Y-64312380D01*
X123392380Y-64264761D01*
X123297142Y-64169523D01*
X123249523Y-63979047D01*
X123249523Y-63645714D01*
X123297142Y-63455238D01*
X123392380Y-63360000D01*
X123487619Y-63312380D01*
X124344761Y-63312380D02*
X124344761Y-64121904D01*
X124392380Y-64217142D01*
X124440000Y-64264761D01*
X124535238Y-64312380D01*
X124725714Y-64312380D01*
X124820952Y-64264761D01*
X124868571Y-64217142D01*
X124916190Y-64121904D01*
X124916190Y-63312380D01*
X125392380Y-64312380D02*
X125392380Y-63312380D01*
X125963809Y-64312380D01*
X125963809Y-63312380D01*
X126297142Y-63312380D02*
X126868571Y-63312380D01*
X126582857Y-64312380D02*
X126582857Y-63312380D01*
G04 #@! TO.C,H2*
X169678095Y-55912380D02*
X169678095Y-54912380D01*
X169678095Y-55388571D02*
X170249523Y-55388571D01*
X170249523Y-55912380D02*
X170249523Y-54912380D01*
X170678095Y-55007619D02*
X170725714Y-54960000D01*
X170820952Y-54912380D01*
X171059047Y-54912380D01*
X171154285Y-54960000D01*
X171201904Y-55007619D01*
X171249523Y-55102857D01*
X171249523Y-55198095D01*
X171201904Y-55340952D01*
X170630476Y-55912380D01*
X171249523Y-55912380D01*
X161714285Y-59952380D02*
X161714285Y-58952380D01*
X162047619Y-59666666D01*
X162380952Y-58952380D01*
X162380952Y-59952380D01*
X163047619Y-58952380D02*
X163238095Y-58952380D01*
X163333333Y-59000000D01*
X163428571Y-59095238D01*
X163476190Y-59285714D01*
X163476190Y-59619047D01*
X163428571Y-59809523D01*
X163333333Y-59904761D01*
X163238095Y-59952380D01*
X163047619Y-59952380D01*
X162952380Y-59904761D01*
X162857142Y-59809523D01*
X162809523Y-59619047D01*
X162809523Y-59285714D01*
X162857142Y-59095238D01*
X162952380Y-59000000D01*
X163047619Y-58952380D01*
X163904761Y-58952380D02*
X163904761Y-59761904D01*
X163952380Y-59857142D01*
X164000000Y-59904761D01*
X164095238Y-59952380D01*
X164285714Y-59952380D01*
X164380952Y-59904761D01*
X164428571Y-59857142D01*
X164476190Y-59761904D01*
X164476190Y-58952380D01*
X164952380Y-59952380D02*
X164952380Y-58952380D01*
X165523809Y-59952380D01*
X165523809Y-58952380D01*
X165857142Y-58952380D02*
X166428571Y-58952380D01*
X166142857Y-59952380D02*
X166142857Y-58952380D01*
G04 #@! TO.C,H3*
X121428095Y-125112380D02*
X121428095Y-124112380D01*
X121428095Y-124588571D02*
X121999523Y-124588571D01*
X121999523Y-125112380D02*
X121999523Y-124112380D01*
X122380476Y-124112380D02*
X122999523Y-124112380D01*
X122666190Y-124493333D01*
X122809047Y-124493333D01*
X122904285Y-124540952D01*
X122951904Y-124588571D01*
X122999523Y-124683809D01*
X122999523Y-124921904D01*
X122951904Y-125017142D01*
X122904285Y-125064761D01*
X122809047Y-125112380D01*
X122523333Y-125112380D01*
X122428095Y-125064761D01*
X122380476Y-125017142D01*
X121404285Y-126612380D02*
X121404285Y-125612380D01*
X121737619Y-126326666D01*
X122070952Y-125612380D01*
X122070952Y-126612380D01*
X122737619Y-125612380D02*
X122928095Y-125612380D01*
X123023333Y-125660000D01*
X123118571Y-125755238D01*
X123166190Y-125945714D01*
X123166190Y-126279047D01*
X123118571Y-126469523D01*
X123023333Y-126564761D01*
X122928095Y-126612380D01*
X122737619Y-126612380D01*
X122642380Y-126564761D01*
X122547142Y-126469523D01*
X122499523Y-126279047D01*
X122499523Y-125945714D01*
X122547142Y-125755238D01*
X122642380Y-125660000D01*
X122737619Y-125612380D01*
X123594761Y-125612380D02*
X123594761Y-126421904D01*
X123642380Y-126517142D01*
X123690000Y-126564761D01*
X123785238Y-126612380D01*
X123975714Y-126612380D01*
X124070952Y-126564761D01*
X124118571Y-126517142D01*
X124166190Y-126421904D01*
X124166190Y-125612380D01*
X124642380Y-126612380D02*
X124642380Y-125612380D01*
X125213809Y-126612380D01*
X125213809Y-125612380D01*
X125547142Y-125612380D02*
X126118571Y-125612380D01*
X125832857Y-126612380D02*
X125832857Y-125612380D01*
G04 #@! TO.C,H4*
X165168095Y-135532380D02*
X165168095Y-134532380D01*
X165168095Y-135008571D02*
X165739523Y-135008571D01*
X165739523Y-135532380D02*
X165739523Y-134532380D01*
X166644285Y-134865714D02*
X166644285Y-135532380D01*
X166406190Y-134484761D02*
X166168095Y-135199047D01*
X166787142Y-135199047D01*
X162794285Y-137622380D02*
X162794285Y-136622380D01*
X163127619Y-137336666D01*
X163460952Y-136622380D01*
X163460952Y-137622380D01*
X164127619Y-136622380D02*
X164318095Y-136622380D01*
X164413333Y-136670000D01*
X164508571Y-136765238D01*
X164556190Y-136955714D01*
X164556190Y-137289047D01*
X164508571Y-137479523D01*
X164413333Y-137574761D01*
X164318095Y-137622380D01*
X164127619Y-137622380D01*
X164032380Y-137574761D01*
X163937142Y-137479523D01*
X163889523Y-137289047D01*
X163889523Y-136955714D01*
X163937142Y-136765238D01*
X164032380Y-136670000D01*
X164127619Y-136622380D01*
X164984761Y-136622380D02*
X164984761Y-137431904D01*
X165032380Y-137527142D01*
X165080000Y-137574761D01*
X165175238Y-137622380D01*
X165365714Y-137622380D01*
X165460952Y-137574761D01*
X165508571Y-137527142D01*
X165556190Y-137431904D01*
X165556190Y-136622380D01*
X166032380Y-137622380D02*
X166032380Y-136622380D01*
X166603809Y-137622380D01*
X166603809Y-136622380D01*
X166937142Y-136622380D02*
X167508571Y-136622380D01*
X167222857Y-137622380D02*
X167222857Y-136622380D01*
G04 #@! TO.C,J1*
X135892380Y-59993333D02*
X136606666Y-59993333D01*
X136749523Y-60040952D01*
X136844761Y-60136190D01*
X136892380Y-60279047D01*
X136892380Y-60374285D01*
X136892380Y-58993333D02*
X136892380Y-59564761D01*
X136892380Y-59279047D02*
X135892380Y-59279047D01*
X136035238Y-59374285D01*
X136130476Y-59469523D01*
X136178095Y-59564761D01*
X127463809Y-56112380D02*
X127463809Y-55112380D01*
X127701904Y-55112380D01*
X127844761Y-55160000D01*
X127940000Y-55255238D01*
X127987619Y-55350476D01*
X128035238Y-55540952D01*
X128035238Y-55683809D01*
X127987619Y-55874285D01*
X127940000Y-55969523D01*
X127844761Y-56064761D01*
X127701904Y-56112380D01*
X127463809Y-56112380D01*
X128463809Y-55588571D02*
X128797142Y-55588571D01*
X128940000Y-56112380D02*
X128463809Y-56112380D01*
X128463809Y-55112380D01*
X128940000Y-55112380D01*
X129701904Y-55588571D02*
X129844761Y-55636190D01*
X129892380Y-55683809D01*
X129940000Y-55779047D01*
X129940000Y-55921904D01*
X129892380Y-56017142D01*
X129844761Y-56064761D01*
X129749523Y-56112380D01*
X129368571Y-56112380D01*
X129368571Y-55112380D01*
X129701904Y-55112380D01*
X129797142Y-55160000D01*
X129844761Y-55207619D01*
X129892380Y-55302857D01*
X129892380Y-55398095D01*
X129844761Y-55493333D01*
X129797142Y-55540952D01*
X129701904Y-55588571D01*
X129368571Y-55588571D01*
X130368571Y-55112380D02*
X130368571Y-55921904D01*
X130416190Y-56017142D01*
X130463809Y-56064761D01*
X130559047Y-56112380D01*
X130749523Y-56112380D01*
X130844761Y-56064761D01*
X130892380Y-56017142D01*
X130940000Y-55921904D01*
X130940000Y-55112380D01*
X131940000Y-55160000D02*
X131844761Y-55112380D01*
X131701904Y-55112380D01*
X131559047Y-55160000D01*
X131463809Y-55255238D01*
X131416190Y-55350476D01*
X131368571Y-55540952D01*
X131368571Y-55683809D01*
X131416190Y-55874285D01*
X131463809Y-55969523D01*
X131559047Y-56064761D01*
X131701904Y-56112380D01*
X131797142Y-56112380D01*
X131940000Y-56064761D01*
X131987619Y-56017142D01*
X131987619Y-55683809D01*
X131797142Y-55683809D01*
X132178095Y-56207619D02*
X132940000Y-56207619D01*
X133178095Y-56112380D02*
X133178095Y-55112380D01*
X133178095Y-55588571D02*
X133749523Y-55588571D01*
X133749523Y-56112380D02*
X133749523Y-55112380D01*
X134225714Y-55588571D02*
X134559047Y-55588571D01*
X134701904Y-56112380D02*
X134225714Y-56112380D01*
X134225714Y-55112380D01*
X134701904Y-55112380D01*
X135082857Y-55826666D02*
X135559047Y-55826666D01*
X134987619Y-56112380D02*
X135320952Y-55112380D01*
X135654285Y-56112380D01*
X135987619Y-56112380D02*
X135987619Y-55112380D01*
X136225714Y-55112380D01*
X136368571Y-55160000D01*
X136463809Y-55255238D01*
X136511428Y-55350476D01*
X136559047Y-55540952D01*
X136559047Y-55683809D01*
X136511428Y-55874285D01*
X136463809Y-55969523D01*
X136368571Y-56064761D01*
X136225714Y-56112380D01*
X135987619Y-56112380D01*
X136987619Y-55588571D02*
X137320952Y-55588571D01*
X137463809Y-56112380D02*
X136987619Y-56112380D01*
X136987619Y-55112380D01*
X137463809Y-55112380D01*
X138463809Y-56112380D02*
X138130476Y-55636190D01*
X137892380Y-56112380D02*
X137892380Y-55112380D01*
X138273333Y-55112380D01*
X138368571Y-55160000D01*
X138416190Y-55207619D01*
X138463809Y-55302857D01*
X138463809Y-55445714D01*
X138416190Y-55540952D01*
X138368571Y-55588571D01*
X138273333Y-55636190D01*
X137892380Y-55636190D01*
G04 #@! TO.C,J2*
X124106666Y-66782380D02*
X124106666Y-67496666D01*
X124059047Y-67639523D01*
X123963809Y-67734761D01*
X123820952Y-67782380D01*
X123725714Y-67782380D01*
X124535238Y-66877619D02*
X124582857Y-66830000D01*
X124678095Y-66782380D01*
X124916190Y-66782380D01*
X125011428Y-66830000D01*
X125059047Y-66877619D01*
X125106666Y-66972857D01*
X125106666Y-67068095D01*
X125059047Y-67210952D01*
X124487619Y-67782380D01*
X125106666Y-67782380D01*
X125232380Y-100887619D02*
X124232380Y-100887619D01*
X124232380Y-100506666D01*
X124280000Y-100411428D01*
X124327619Y-100363809D01*
X124422857Y-100316190D01*
X124565714Y-100316190D01*
X124660952Y-100363809D01*
X124708571Y-100411428D01*
X124756190Y-100506666D01*
X124756190Y-100887619D01*
X124232380Y-99697142D02*
X124232380Y-99506666D01*
X124280000Y-99411428D01*
X124375238Y-99316190D01*
X124565714Y-99268571D01*
X124899047Y-99268571D01*
X125089523Y-99316190D01*
X125184761Y-99411428D01*
X125232380Y-99506666D01*
X125232380Y-99697142D01*
X125184761Y-99792380D01*
X125089523Y-99887619D01*
X124899047Y-99935238D01*
X124565714Y-99935238D01*
X124375238Y-99887619D01*
X124280000Y-99792380D01*
X124232380Y-99697142D01*
X124232380Y-98935238D02*
X125232380Y-98697142D01*
X124518095Y-98506666D01*
X125232380Y-98316190D01*
X124232380Y-98078095D01*
X124708571Y-97697142D02*
X124708571Y-97363809D01*
X125232380Y-97220952D02*
X125232380Y-97697142D01*
X124232380Y-97697142D01*
X124232380Y-97220952D01*
X125232380Y-96220952D02*
X124756190Y-96554285D01*
X125232380Y-96792380D02*
X124232380Y-96792380D01*
X124232380Y-96411428D01*
X124280000Y-96316190D01*
X124327619Y-96268571D01*
X124422857Y-96220952D01*
X124565714Y-96220952D01*
X124660952Y-96268571D01*
X124708571Y-96316190D01*
X124756190Y-96411428D01*
X124756190Y-96792380D01*
X125327619Y-96030476D02*
X125327619Y-95268571D01*
X125232380Y-95030476D02*
X124232380Y-95030476D01*
X124708571Y-95030476D02*
X124708571Y-94459047D01*
X125232380Y-94459047D02*
X124232380Y-94459047D01*
X124708571Y-93982857D02*
X124708571Y-93649523D01*
X125232380Y-93506666D02*
X125232380Y-93982857D01*
X124232380Y-93982857D01*
X124232380Y-93506666D01*
X124946666Y-93125714D02*
X124946666Y-92649523D01*
X125232380Y-93220952D02*
X124232380Y-92887619D01*
X125232380Y-92554285D01*
X125232380Y-92220952D02*
X124232380Y-92220952D01*
X124232380Y-91982857D01*
X124280000Y-91840000D01*
X124375238Y-91744761D01*
X124470476Y-91697142D01*
X124660952Y-91649523D01*
X124803809Y-91649523D01*
X124994285Y-91697142D01*
X125089523Y-91744761D01*
X125184761Y-91840000D01*
X125232380Y-91982857D01*
X125232380Y-92220952D01*
X124708571Y-91220952D02*
X124708571Y-90887619D01*
X125232380Y-90744761D02*
X125232380Y-91220952D01*
X124232380Y-91220952D01*
X124232380Y-90744761D01*
X125232380Y-89744761D02*
X124756190Y-90078095D01*
X125232380Y-90316190D02*
X124232380Y-90316190D01*
X124232380Y-89935238D01*
X124280000Y-89840000D01*
X124327619Y-89792380D01*
X124422857Y-89744761D01*
X124565714Y-89744761D01*
X124660952Y-89792380D01*
X124708571Y-89840000D01*
X124756190Y-89935238D01*
X124756190Y-90316190D01*
G04 #@! TO.C,BT1*
X160783571Y-85720714D02*
X160831190Y-85577857D01*
X160878809Y-85530238D01*
X160974047Y-85482619D01*
X161116904Y-85482619D01*
X161212142Y-85530238D01*
X161259761Y-85577857D01*
X161307380Y-85673095D01*
X161307380Y-86054047D01*
X160307380Y-86054047D01*
X160307380Y-85720714D01*
X160355000Y-85625476D01*
X160402619Y-85577857D01*
X160497857Y-85530238D01*
X160593095Y-85530238D01*
X160688333Y-85577857D01*
X160735952Y-85625476D01*
X160783571Y-85720714D01*
X160783571Y-86054047D01*
X160307380Y-85196904D02*
X160307380Y-84625476D01*
X161307380Y-84911190D02*
X160307380Y-84911190D01*
X161307380Y-83768333D02*
X161307380Y-84339761D01*
X161307380Y-84054047D02*
X160307380Y-84054047D01*
X160450238Y-84149285D01*
X160545476Y-84244523D01*
X160593095Y-84339761D01*
G04 #@! TO.C,J3*
X146166666Y-72452380D02*
X146166666Y-73166666D01*
X146119047Y-73309523D01*
X146023809Y-73404761D01*
X145880952Y-73452380D01*
X145785714Y-73452380D01*
X146547619Y-72452380D02*
X147166666Y-72452380D01*
X146833333Y-72833333D01*
X146976190Y-72833333D01*
X147071428Y-72880952D01*
X147119047Y-72928571D01*
X147166666Y-73023809D01*
X147166666Y-73261904D01*
X147119047Y-73357142D01*
X147071428Y-73404761D01*
X146976190Y-73452380D01*
X146690476Y-73452380D01*
X146595238Y-73404761D01*
X146547619Y-73357142D01*
X142761904Y-70857142D02*
X142714285Y-70904761D01*
X142571428Y-70952380D01*
X142476190Y-70952380D01*
X142333333Y-70904761D01*
X142238095Y-70809523D01*
X142190476Y-70714285D01*
X142142857Y-70523809D01*
X142142857Y-70380952D01*
X142190476Y-70190476D01*
X142238095Y-70095238D01*
X142333333Y-70000000D01*
X142476190Y-69952380D01*
X142571428Y-69952380D01*
X142714285Y-70000000D01*
X142761904Y-70047619D01*
X143333333Y-70952380D02*
X143238095Y-70904761D01*
X143190476Y-70857142D01*
X143142857Y-70761904D01*
X143142857Y-70476190D01*
X143190476Y-70380952D01*
X143238095Y-70333333D01*
X143333333Y-70285714D01*
X143476190Y-70285714D01*
X143571428Y-70333333D01*
X143619047Y-70380952D01*
X143666666Y-70476190D01*
X143666666Y-70761904D01*
X143619047Y-70857142D01*
X143571428Y-70904761D01*
X143476190Y-70952380D01*
X143333333Y-70952380D01*
X144095238Y-70285714D02*
X144095238Y-70952380D01*
X144095238Y-70380952D02*
X144142857Y-70333333D01*
X144238095Y-70285714D01*
X144380952Y-70285714D01*
X144476190Y-70333333D01*
X144523809Y-70428571D01*
X144523809Y-70952380D01*
X145000000Y-70285714D02*
X145000000Y-70952380D01*
X145000000Y-70380952D02*
X145047619Y-70333333D01*
X145142857Y-70285714D01*
X145285714Y-70285714D01*
X145380952Y-70333333D01*
X145428571Y-70428571D01*
X145428571Y-70952380D01*
X145666666Y-71047619D02*
X146428571Y-71047619D01*
X146857142Y-69952380D02*
X146952380Y-69952380D01*
X147047619Y-70000000D01*
X147095238Y-70047619D01*
X147142857Y-70142857D01*
X147190476Y-70333333D01*
X147190476Y-70571428D01*
X147142857Y-70761904D01*
X147095238Y-70857142D01*
X147047619Y-70904761D01*
X146952380Y-70952380D01*
X146857142Y-70952380D01*
X146761904Y-70904761D01*
X146714285Y-70857142D01*
X146666666Y-70761904D01*
X146619047Y-70571428D01*
X146619047Y-70333333D01*
X146666666Y-70142857D01*
X146714285Y-70047619D01*
X146761904Y-70000000D01*
X146857142Y-69952380D01*
X148142857Y-70952380D02*
X147571428Y-70952380D01*
X147857142Y-70952380D02*
X147857142Y-69952380D01*
X147761904Y-70095238D01*
X147666666Y-70190476D01*
X147571428Y-70238095D01*
X148476190Y-70952380D02*
X149000000Y-70285714D01*
X148476190Y-70285714D02*
X149000000Y-70952380D01*
X149571428Y-69952380D02*
X149666666Y-69952380D01*
X149761904Y-70000000D01*
X149809523Y-70047619D01*
X149857142Y-70142857D01*
X149904761Y-70333333D01*
X149904761Y-70571428D01*
X149857142Y-70761904D01*
X149809523Y-70857142D01*
X149761904Y-70904761D01*
X149666666Y-70952380D01*
X149571428Y-70952380D01*
X149476190Y-70904761D01*
X149428571Y-70857142D01*
X149380952Y-70761904D01*
X149333333Y-70571428D01*
X149333333Y-70333333D01*
X149380952Y-70142857D01*
X149428571Y-70047619D01*
X149476190Y-70000000D01*
X149571428Y-69952380D01*
X150761904Y-70285714D02*
X150761904Y-70952380D01*
X150523809Y-69904761D02*
X150285714Y-70619047D01*
X150904761Y-70619047D01*
X161619047Y-60952380D02*
X161952380Y-61952380D01*
X162285714Y-60952380D01*
X162809523Y-60952380D02*
X163000000Y-60952380D01*
X163095238Y-61000000D01*
X163190476Y-61095238D01*
X163238095Y-61285714D01*
X163238095Y-61619047D01*
X163190476Y-61809523D01*
X163095238Y-61904761D01*
X163000000Y-61952380D01*
X162809523Y-61952380D01*
X162714285Y-61904761D01*
X162619047Y-61809523D01*
X162571428Y-61619047D01*
X162571428Y-61285714D01*
X162619047Y-61095238D01*
X162714285Y-61000000D01*
X162809523Y-60952380D01*
X163666666Y-60952380D02*
X163666666Y-61761904D01*
X163714285Y-61857142D01*
X163761904Y-61904761D01*
X163857142Y-61952380D01*
X164047619Y-61952380D01*
X164142857Y-61904761D01*
X164190476Y-61857142D01*
X164238095Y-61761904D01*
X164238095Y-60952380D01*
X164571428Y-60952380D02*
X165142857Y-60952380D01*
X164857142Y-61952380D02*
X164857142Y-60952380D01*
X165476190Y-61571428D02*
X166238095Y-61571428D01*
X159619047Y-80452380D02*
X159952380Y-81452380D01*
X160285714Y-80452380D01*
X160809523Y-80452380D02*
X161000000Y-80452380D01*
X161095238Y-80500000D01*
X161190476Y-80595238D01*
X161238095Y-80785714D01*
X161238095Y-81119047D01*
X161190476Y-81309523D01*
X161095238Y-81404761D01*
X161000000Y-81452380D01*
X160809523Y-81452380D01*
X160714285Y-81404761D01*
X160619047Y-81309523D01*
X160571428Y-81119047D01*
X160571428Y-80785714D01*
X160619047Y-80595238D01*
X160714285Y-80500000D01*
X160809523Y-80452380D01*
X161666666Y-80452380D02*
X161666666Y-81261904D01*
X161714285Y-81357142D01*
X161761904Y-81404761D01*
X161857142Y-81452380D01*
X162047619Y-81452380D01*
X162142857Y-81404761D01*
X162190476Y-81357142D01*
X162238095Y-81261904D01*
X162238095Y-80452380D01*
X162571428Y-80452380D02*
X163142857Y-80452380D01*
X162857142Y-81452380D02*
X162857142Y-80452380D01*
X163476190Y-81071428D02*
X164238095Y-81071428D01*
X163857142Y-81452380D02*
X163857142Y-80690476D01*
X127285714Y-80452380D02*
X127619047Y-81452380D01*
X127952380Y-80452380D01*
X128285714Y-81452380D02*
X128285714Y-80452380D01*
X128761904Y-81452380D02*
X128761904Y-80452380D01*
X129333333Y-81452380D01*
X129333333Y-80452380D01*
X129809523Y-81071428D02*
X130571428Y-81071428D01*
X130190476Y-81452380D02*
X130190476Y-80690476D01*
X129785714Y-60452380D02*
X130119047Y-61452380D01*
X130452380Y-60452380D01*
X130785714Y-61452380D02*
X130785714Y-60452380D01*
X131261904Y-61452380D02*
X131261904Y-60452380D01*
X131833333Y-61452380D01*
X131833333Y-60452380D01*
X132309523Y-61071428D02*
X133071428Y-61071428D01*
G04 #@! TO.C,JP1*
X169946666Y-110372380D02*
X169946666Y-111086666D01*
X169899047Y-111229523D01*
X169803809Y-111324761D01*
X169660952Y-111372380D01*
X169565714Y-111372380D01*
X170422857Y-111372380D02*
X170422857Y-110372380D01*
X170803809Y-110372380D01*
X170899047Y-110420000D01*
X170946666Y-110467619D01*
X170994285Y-110562857D01*
X170994285Y-110705714D01*
X170946666Y-110800952D01*
X170899047Y-110848571D01*
X170803809Y-110896190D01*
X170422857Y-110896190D01*
X171946666Y-111372380D02*
X171375238Y-111372380D01*
X171660952Y-111372380D02*
X171660952Y-110372380D01*
X171565714Y-110515238D01*
X171470476Y-110610476D01*
X171375238Y-110658095D01*
X171756666Y-112492380D02*
X172375714Y-112492380D01*
X172042380Y-112873333D01*
X172185238Y-112873333D01*
X172280476Y-112920952D01*
X172328095Y-112968571D01*
X172375714Y-113063809D01*
X172375714Y-113301904D01*
X172328095Y-113397142D01*
X172280476Y-113444761D01*
X172185238Y-113492380D01*
X171899523Y-113492380D01*
X171804285Y-113444761D01*
X171756666Y-113397142D01*
X167175714Y-113492380D02*
X166604285Y-113492380D01*
X166890000Y-113492380D02*
X166890000Y-112492380D01*
X166794761Y-112635238D01*
X166699523Y-112730476D01*
X166604285Y-112778095D01*
G04 #@! TO.C,F1*
X172886666Y-105638571D02*
X172553333Y-105638571D01*
X172553333Y-106162380D02*
X172553333Y-105162380D01*
X173029523Y-105162380D01*
X173934285Y-106162380D02*
X173362857Y-106162380D01*
X173648571Y-106162380D02*
X173648571Y-105162380D01*
X173553333Y-105305238D01*
X173458095Y-105400476D01*
X173362857Y-105448095D01*
D16*
X164641443Y-104592380D02*
X164766443Y-103592380D01*
X165147395Y-103592380D01*
X165236681Y-103640000D01*
X165278348Y-103687619D01*
X165314062Y-103782857D01*
X165296205Y-103925714D01*
X165236681Y-104020952D01*
X165183110Y-104068571D01*
X165081919Y-104116190D01*
X164700967Y-104116190D01*
X165784300Y-104592380D02*
X165695014Y-104544761D01*
X165653348Y-104497142D01*
X165617633Y-104401904D01*
X165653348Y-104116190D01*
X165712872Y-104020952D01*
X165766443Y-103973333D01*
X165867633Y-103925714D01*
X166010491Y-103925714D01*
X166099776Y-103973333D01*
X166141443Y-104020952D01*
X166177157Y-104116190D01*
X166141443Y-104401904D01*
X166081919Y-104497142D01*
X166028348Y-104544761D01*
X165927157Y-104592380D01*
X165784300Y-104592380D01*
X166689062Y-104592380D02*
X166599776Y-104544761D01*
X166564062Y-104449523D01*
X166671205Y-103592380D01*
X167058110Y-103925714D02*
X167212872Y-104592380D01*
X167534300Y-103925714D02*
X167212872Y-104592380D01*
X167087872Y-104830476D01*
X167034300Y-104878095D01*
X166933110Y-104925714D01*
X167772395Y-103925714D02*
X168153348Y-103925714D01*
X167831919Y-104592380D02*
X167939062Y-103735238D01*
X167998586Y-103640000D01*
X168099776Y-103592380D01*
X168195014Y-103592380D01*
X168915252Y-103925714D02*
X168831919Y-104592380D01*
X168486681Y-103925714D02*
X168421205Y-104449523D01*
X168456919Y-104544761D01*
X168546205Y-104592380D01*
X168689062Y-104592380D01*
X168790252Y-104544761D01*
X168843824Y-104497142D01*
X169266443Y-104544761D02*
X169355729Y-104592380D01*
X169546205Y-104592380D01*
X169647395Y-104544761D01*
X169706919Y-104449523D01*
X169712872Y-104401904D01*
X169677157Y-104306666D01*
X169587872Y-104259047D01*
X169445014Y-104259047D01*
X169355729Y-104211428D01*
X169320014Y-104116190D01*
X169325967Y-104068571D01*
X169385491Y-103973333D01*
X169486681Y-103925714D01*
X169629538Y-103925714D01*
X169718824Y-103973333D01*
X170504538Y-104544761D02*
X170403348Y-104592380D01*
X170212872Y-104592380D01*
X170123586Y-104544761D01*
X170087872Y-104449523D01*
X170135491Y-104068571D01*
X170195014Y-103973333D01*
X170296205Y-103925714D01*
X170486681Y-103925714D01*
X170575967Y-103973333D01*
X170611681Y-104068571D01*
X170599776Y-104163809D01*
X170111681Y-104259047D01*
G04 #@! TO.C,SW1*
D11*
X170666666Y-79404761D02*
X170809523Y-79452380D01*
X171047619Y-79452380D01*
X171142857Y-79404761D01*
X171190476Y-79357142D01*
X171238095Y-79261904D01*
X171238095Y-79166666D01*
X171190476Y-79071428D01*
X171142857Y-79023809D01*
X171047619Y-78976190D01*
X170857142Y-78928571D01*
X170761904Y-78880952D01*
X170714285Y-78833333D01*
X170666666Y-78738095D01*
X170666666Y-78642857D01*
X170714285Y-78547619D01*
X170761904Y-78500000D01*
X170857142Y-78452380D01*
X171095238Y-78452380D01*
X171238095Y-78500000D01*
X171571428Y-78452380D02*
X171809523Y-79452380D01*
X172000000Y-78738095D01*
X172190476Y-79452380D01*
X172428571Y-78452380D01*
X173333333Y-79452380D02*
X172761904Y-79452380D01*
X173047619Y-79452380D02*
X173047619Y-78452380D01*
X172952380Y-78595238D01*
X172857142Y-78690476D01*
X172761904Y-78738095D01*
G04 #@! TO.C,D1*
X173392380Y-94758095D02*
X172392380Y-94758095D01*
X172392380Y-94520000D01*
X172440000Y-94377142D01*
X172535238Y-94281904D01*
X172630476Y-94234285D01*
X172820952Y-94186666D01*
X172963809Y-94186666D01*
X173154285Y-94234285D01*
X173249523Y-94281904D01*
X173344761Y-94377142D01*
X173392380Y-94520000D01*
X173392380Y-94758095D01*
X173392380Y-93234285D02*
X173392380Y-93805714D01*
X173392380Y-93520000D02*
X172392380Y-93520000D01*
X172535238Y-93615238D01*
X172630476Y-93710476D01*
X172678095Y-93805714D01*
X167552380Y-94281904D02*
X166552380Y-94281904D01*
X166552380Y-94043809D01*
X166600000Y-93900952D01*
X166695238Y-93805714D01*
X166790476Y-93758095D01*
X166980952Y-93710476D01*
X167123809Y-93710476D01*
X167314285Y-93758095D01*
X167409523Y-93805714D01*
X167504761Y-93900952D01*
X167552380Y-94043809D01*
X167552380Y-94281904D01*
D16*
X172672380Y-86661904D02*
X171672380Y-86661904D01*
X172672380Y-86090476D02*
X172100952Y-86519047D01*
X171672380Y-86090476D02*
X172243809Y-86661904D01*
G04 #@! TD*
M02*
