M48
; DRILL file {KiCad 5.1.9+dfsg1-1} date Sat Jun 11 22:33:11 2022
; FORMAT={-:-/ absolute / metric / decimal}
; #@! TF.CreationDate,2022-06-11T22:33:11-07:00
; #@! TF.GenerationSoftware,Kicad,Pcbnew,5.1.9+dfsg1-1
FMAT,2
METRIC
T1C0.400
T2C0.500
T3C0.900
T4C1.000
T5C1.170
T6C1.200
T7C1.500
T8C3.200
T9C3.560
%
G90
G05
T1
X154.7Y-95.41
T2
X122.04Y-59.66
X122.04Y-133.66
X122.743Y-57.963
X122.743Y-61.357
X122.743Y-131.963
X122.743Y-135.357
X124.44Y-57.26
X124.44Y-62.06
X124.44Y-131.26
X124.44Y-136.06
X126.137Y-57.963
X126.137Y-61.357
X126.137Y-131.963
X126.137Y-135.357
X126.84Y-59.66
X126.84Y-133.66
X168.04Y-59.66
X168.04Y-133.66
X168.743Y-57.963
X168.743Y-61.357
X168.743Y-131.963
X168.743Y-135.357
X170.44Y-57.26
X170.44Y-62.06
X170.44Y-131.26
X170.44Y-136.06
X172.137Y-57.963
X172.137Y-61.357
X172.137Y-131.963
X172.137Y-135.357
X172.84Y-59.66
X172.84Y-133.66
T3
X169.8Y-67.0
X169.8Y-71.0
X169.8Y-75.0
T4
X124.44Y-69.66
X124.44Y-72.2
X124.44Y-74.74
X124.44Y-77.28
X124.44Y-79.82
X124.44Y-82.36
X124.44Y-84.9
X124.44Y-87.44
X138.94Y-59.66
X141.48Y-59.66
X144.02Y-59.66
X146.56Y-59.66
X149.1Y-59.66
X151.64Y-59.66
X154.18Y-59.66
X156.72Y-59.66
X164.94Y-107.23
X170.02Y-107.24
T5
X136.62Y-83.14
X150.21Y-83.14
T6
X168.05Y-65.0
X168.05Y-77.0
X170.02Y-86.4
X170.02Y-101.64
X174.05Y-65.0
X174.05Y-77.0
T7
X130.97Y-67.56
X130.97Y-74.44
X162.03Y-67.56
X162.03Y-74.44
T8
X124.44Y-59.66
X124.44Y-133.66
X170.44Y-59.66
X170.44Y-133.66
T9
X143.58Y-109.3
T0
M30
