G04 #@! TF.GenerationSoftware,KiCad,Pcbnew,5.1.9+dfsg1-1*
G04 #@! TF.CreationDate,2022-06-11T22:33:11-07:00*
G04 #@! TF.ProjectId,keygame-batpack,6b657967-616d-4652-9d62-61747061636b,rev?*
G04 #@! TF.SameCoordinates,Original*
G04 #@! TF.FileFunction,Legend,Bot*
G04 #@! TF.FilePolarity,Positive*
%FSLAX46Y46*%
G04 Gerber Fmt 4.6, Leading zero omitted, Abs format (unit mm)*
G04 Created by KiCad (PCBNEW 5.1.9+dfsg1-1) date 2022-06-11 22:33:11*
%MOMM*%
%LPD*%
G01*
G04 APERTURE LIST*
%ADD10C,0.010000*%
%ADD11C,0.150000*%
G04 APERTURE END LIST*
D10*
G04 #@! TO.C,G\u002A\u002A\u002A*
G36*
X134527211Y-86454392D02*
G01*
X134209447Y-86454502D01*
X133919098Y-86454712D01*
X133654874Y-86455050D01*
X133415485Y-86455544D01*
X133199640Y-86456221D01*
X133006050Y-86457109D01*
X132833423Y-86458235D01*
X132680470Y-86459628D01*
X132545900Y-86461314D01*
X132428423Y-86463322D01*
X132326749Y-86465679D01*
X132239587Y-86468413D01*
X132165648Y-86471551D01*
X132103640Y-86475121D01*
X132052274Y-86479151D01*
X132010259Y-86483668D01*
X131976305Y-86488701D01*
X131949122Y-86494275D01*
X131927420Y-86500421D01*
X131909908Y-86507164D01*
X131895295Y-86514533D01*
X131882292Y-86522555D01*
X131869609Y-86531258D01*
X131855955Y-86540670D01*
X131848641Y-86545470D01*
X131769105Y-86608323D01*
X131694334Y-86688035D01*
X131652617Y-86746057D01*
X131645707Y-86756566D01*
X131639210Y-86765772D01*
X131633113Y-86774705D01*
X131627405Y-86784394D01*
X131622072Y-86795870D01*
X131617101Y-86810164D01*
X131612480Y-86828304D01*
X131608195Y-86851323D01*
X131604236Y-86880248D01*
X131600587Y-86916111D01*
X131597238Y-86959942D01*
X131594175Y-87012771D01*
X131591385Y-87075629D01*
X131588856Y-87149544D01*
X131586575Y-87235548D01*
X131584530Y-87334670D01*
X131582707Y-87447941D01*
X131581094Y-87576391D01*
X131579678Y-87721050D01*
X131578446Y-87882948D01*
X131577387Y-88063115D01*
X131576486Y-88262581D01*
X131575732Y-88482378D01*
X131575111Y-88723533D01*
X131574611Y-88987079D01*
X131574220Y-89274045D01*
X131573923Y-89585461D01*
X131573710Y-89922357D01*
X131573567Y-90285763D01*
X131573481Y-90676711D01*
X131573440Y-91096228D01*
X131573430Y-91545347D01*
X131573440Y-92025097D01*
X131573456Y-92536508D01*
X131573467Y-93080610D01*
X131573467Y-93160001D01*
X131573459Y-93708794D01*
X131573442Y-94224751D01*
X131573431Y-94708902D01*
X131573437Y-95162276D01*
X131573473Y-95585904D01*
X131573552Y-95980817D01*
X131573686Y-96348043D01*
X131573889Y-96688614D01*
X131574172Y-97003560D01*
X131574550Y-97293910D01*
X131575033Y-97560695D01*
X131575636Y-97804945D01*
X131576371Y-98027689D01*
X131577250Y-98229960D01*
X131578287Y-98412785D01*
X131579493Y-98577196D01*
X131580882Y-98724223D01*
X131582467Y-98854895D01*
X131584260Y-98970244D01*
X131586273Y-99071298D01*
X131588520Y-99159089D01*
X131591013Y-99234646D01*
X131593765Y-99298999D01*
X131596789Y-99353180D01*
X131600097Y-99398217D01*
X131603703Y-99435141D01*
X131607618Y-99464982D01*
X131611856Y-99488771D01*
X131616428Y-99507537D01*
X131621349Y-99522310D01*
X131626631Y-99534121D01*
X131632285Y-99544000D01*
X131638326Y-99552977D01*
X131644766Y-99562082D01*
X131651617Y-99572345D01*
X131652617Y-99573944D01*
X131714970Y-99656282D01*
X131792708Y-99732630D01*
X131848641Y-99774531D01*
X131863647Y-99784544D01*
X131877084Y-99793798D01*
X131890279Y-99802321D01*
X131904561Y-99810144D01*
X131921257Y-99817296D01*
X131941694Y-99823808D01*
X131967200Y-99829709D01*
X131999103Y-99835029D01*
X132038729Y-99839799D01*
X132087407Y-99844048D01*
X132146463Y-99847806D01*
X132217226Y-99851103D01*
X132301023Y-99853969D01*
X132399181Y-99856434D01*
X132513028Y-99858528D01*
X132643892Y-99860281D01*
X132793099Y-99861722D01*
X132961978Y-99862882D01*
X133151856Y-99863791D01*
X133364060Y-99864479D01*
X133599918Y-99864975D01*
X133860758Y-99865310D01*
X134147907Y-99865513D01*
X134462692Y-99865614D01*
X134806441Y-99865644D01*
X135180482Y-99865632D01*
X135586142Y-99865608D01*
X135886558Y-99865600D01*
X139667600Y-99865600D01*
X139667600Y-99289867D01*
X140836000Y-99289867D01*
X140836000Y-99865600D01*
X151813033Y-99864486D01*
X152554597Y-99864403D01*
X153263026Y-99864307D01*
X153939055Y-99864195D01*
X154583415Y-99864067D01*
X155196840Y-99863921D01*
X155780063Y-99863755D01*
X156333816Y-99863568D01*
X156858831Y-99863357D01*
X157355843Y-99863121D01*
X157825584Y-99862859D01*
X158268786Y-99862569D01*
X158686183Y-99862249D01*
X159078507Y-99861898D01*
X159446491Y-99861513D01*
X159790868Y-99861093D01*
X160112371Y-99860638D01*
X160411732Y-99860144D01*
X160689685Y-99859610D01*
X160946962Y-99859035D01*
X161184296Y-99858417D01*
X161402420Y-99857754D01*
X161602067Y-99857045D01*
X161783969Y-99856288D01*
X161948860Y-99855481D01*
X162097472Y-99854623D01*
X162230538Y-99853712D01*
X162348791Y-99852747D01*
X162452963Y-99851725D01*
X162543788Y-99850645D01*
X162621999Y-99849506D01*
X162688327Y-99848305D01*
X162743507Y-99847042D01*
X162788270Y-99845714D01*
X162823350Y-99844320D01*
X162849480Y-99842858D01*
X162867392Y-99841326D01*
X162877819Y-99839724D01*
X162878608Y-99839525D01*
X163003366Y-99788819D01*
X163114561Y-99709271D01*
X163206960Y-99604869D01*
X163227383Y-99573944D01*
X163237169Y-99558350D01*
X163246113Y-99543572D01*
X163254254Y-99528097D01*
X163261629Y-99510411D01*
X163268277Y-99488997D01*
X163274234Y-99462343D01*
X163279540Y-99428933D01*
X163284231Y-99387253D01*
X163288345Y-99335788D01*
X163291921Y-99273024D01*
X163294995Y-99197446D01*
X163297606Y-99107540D01*
X163299791Y-99001790D01*
X163301588Y-98878683D01*
X163303035Y-98736703D01*
X163304170Y-98574337D01*
X163305030Y-98390070D01*
X163305653Y-98182387D01*
X163306077Y-97949773D01*
X163306340Y-97690714D01*
X163306480Y-97403696D01*
X163306533Y-97087203D01*
X163306538Y-96739722D01*
X163306533Y-96399176D01*
X163306533Y-94667067D01*
X160834267Y-94667067D01*
X160834267Y-95361334D01*
X160140000Y-95361334D01*
X157413850Y-95361334D01*
X156719467Y-95361334D01*
X156719467Y-93295083D01*
X156037900Y-93299508D01*
X155356334Y-93303934D01*
X155351969Y-94332634D01*
X155347605Y-95361334D01*
X154670533Y-95361334D01*
X154670533Y-94507334D01*
X153990178Y-94507334D01*
X153990031Y-94692662D01*
X153989727Y-94859343D01*
X153989271Y-95005073D01*
X153988668Y-95127546D01*
X153987924Y-95224458D01*
X153987043Y-95293503D01*
X153986030Y-95332376D01*
X153985358Y-95340267D01*
X153977558Y-95344238D01*
X153956159Y-95347665D01*
X153919303Y-95350573D01*
X153865135Y-95352984D01*
X153791797Y-95354921D01*
X153697431Y-95356406D01*
X153580182Y-95357464D01*
X153438192Y-95358116D01*
X153269604Y-95358385D01*
X153072561Y-95358294D01*
X152845206Y-95357867D01*
X152609393Y-95357201D01*
X151241533Y-95352867D01*
X151236950Y-95009967D01*
X151232366Y-94667067D01*
X153298933Y-94667067D01*
X153298933Y-93989996D01*
X152270233Y-93985632D01*
X151241533Y-93981267D01*
X151241533Y-91932334D01*
X153984733Y-91932334D01*
X153989098Y-93625667D01*
X153989629Y-93862527D01*
X153989982Y-94089962D01*
X153990164Y-94305666D01*
X153990178Y-94507334D01*
X154670533Y-94507334D01*
X154670533Y-93295467D01*
X155347867Y-93295467D01*
X155347867Y-92618134D01*
X154670533Y-92618134D01*
X154670533Y-91923867D01*
X150555733Y-91923867D01*
X150555733Y-94667067D01*
X148506800Y-94667067D01*
X148506800Y-95344401D01*
X150555733Y-95344401D01*
X150555733Y-96038667D01*
X147812534Y-96038667D01*
X147812534Y-91923867D01*
X147135200Y-91923867D01*
X147135200Y-94667067D01*
X145086267Y-94667067D01*
X145086267Y-95344401D01*
X147135200Y-95344401D01*
X147135200Y-96038667D01*
X144392000Y-96038667D01*
X144392000Y-91923867D01*
X143714667Y-91923867D01*
X143714667Y-92618134D01*
X141665733Y-92618134D01*
X141665733Y-93295467D01*
X143714667Y-93295467D01*
X143714667Y-95361334D01*
X140971467Y-95361334D01*
X140971467Y-91923867D01*
X140294133Y-91923867D01*
X140294133Y-95361334D01*
X139599867Y-95361334D01*
X139599867Y-93295467D01*
X138922533Y-93295467D01*
X138922533Y-93989734D01*
X138228267Y-93989734D01*
X138228267Y-95361334D01*
X137550933Y-95361334D01*
X137550933Y-94507334D01*
X136870578Y-94507334D01*
X136870431Y-94692662D01*
X136870127Y-94859343D01*
X136869671Y-95005073D01*
X136869068Y-95127546D01*
X136868324Y-95224458D01*
X136867443Y-95293503D01*
X136866430Y-95332376D01*
X136865758Y-95340267D01*
X136857958Y-95344238D01*
X136836559Y-95347665D01*
X136799703Y-95350573D01*
X136745535Y-95352984D01*
X136672197Y-95354921D01*
X136577831Y-95356406D01*
X136460582Y-95357464D01*
X136318592Y-95358116D01*
X136150004Y-95358385D01*
X135952961Y-95358294D01*
X135725606Y-95357867D01*
X135489793Y-95357201D01*
X134121934Y-95352867D01*
X134112766Y-94667067D01*
X136179334Y-94667067D01*
X136179334Y-93989996D01*
X135150634Y-93985632D01*
X134121934Y-93981267D01*
X134121934Y-91932334D01*
X136865134Y-91932334D01*
X136869498Y-93625667D01*
X136870029Y-93862527D01*
X136870382Y-94089962D01*
X136870564Y-94305666D01*
X136870578Y-94507334D01*
X137550933Y-94507334D01*
X137550933Y-91923867D01*
X138227566Y-91923867D01*
X138232150Y-92266767D01*
X138236733Y-92609667D01*
X138918300Y-92614093D01*
X139599867Y-92618518D01*
X139599867Y-91923867D01*
X140294133Y-91923867D01*
X140971467Y-91923867D01*
X143714667Y-91923867D01*
X144392000Y-91923867D01*
X147135200Y-91923867D01*
X147812534Y-91923867D01*
X148506800Y-91923867D01*
X148506800Y-93990118D01*
X149188367Y-93985693D01*
X149869934Y-93981267D01*
X149878662Y-91923867D01*
X150555733Y-91923867D01*
X154670533Y-91923867D01*
X155347166Y-91923867D01*
X155356334Y-92609667D01*
X156037900Y-92614093D01*
X156719467Y-92618518D01*
X156719467Y-90551566D01*
X157405267Y-90560734D01*
X157409558Y-92961034D01*
X157413850Y-95361334D01*
X160140000Y-95361334D01*
X160140000Y-94667067D01*
X159462667Y-94667067D01*
X159462667Y-93989734D01*
X160156933Y-93989734D01*
X160156933Y-94667067D01*
X160834267Y-94667067D01*
X163306533Y-94667067D01*
X163306533Y-93464800D01*
X162730800Y-93464800D01*
X162730800Y-92313334D01*
X163306533Y-92313334D01*
X163306533Y-90551566D01*
X160834267Y-90551566D01*
X160834267Y-91246534D01*
X160157635Y-91246534D01*
X160148467Y-91932334D01*
X159462667Y-91941502D01*
X159462667Y-92618134D01*
X158785333Y-92618134D01*
X158785333Y-93295467D01*
X159462667Y-93295467D01*
X159462667Y-93989734D01*
X158768400Y-93989734D01*
X158768400Y-93295467D01*
X158091067Y-93295467D01*
X158091067Y-92618134D01*
X158768400Y-92618134D01*
X158768400Y-91923867D01*
X159462667Y-91923867D01*
X159462667Y-91246534D01*
X160139299Y-91246534D01*
X160148467Y-90560734D01*
X160834267Y-90551566D01*
X163306533Y-90551566D01*
X163306533Y-89649892D01*
X163306536Y-89291129D01*
X163306519Y-88964640D01*
X163306436Y-88668830D01*
X163306245Y-88402105D01*
X163305989Y-88223258D01*
X162612017Y-88223258D01*
X162597141Y-88417117D01*
X162552619Y-88595608D01*
X162477612Y-88761170D01*
X162375622Y-88910861D01*
X162241776Y-89052122D01*
X162090480Y-89166111D01*
X161925071Y-89251689D01*
X161748886Y-89307722D01*
X161565262Y-89333072D01*
X161377537Y-89326602D01*
X161234054Y-89299675D01*
X161057828Y-89238166D01*
X160897780Y-89149794D01*
X160756071Y-89037926D01*
X160634861Y-88905929D01*
X160536311Y-88757168D01*
X160462581Y-88595010D01*
X160415831Y-88422821D01*
X160398222Y-88243967D01*
X160411913Y-88061814D01*
X160418031Y-88028117D01*
X160470877Y-87842206D01*
X160550127Y-87674280D01*
X160652705Y-87525780D01*
X160775535Y-87398145D01*
X160915541Y-87292815D01*
X161069647Y-87211228D01*
X161234776Y-87154824D01*
X161407852Y-87125044D01*
X161585799Y-87123325D01*
X161765540Y-87151107D01*
X161944001Y-87209831D01*
X162053467Y-87262855D01*
X162170469Y-87341380D01*
X162284676Y-87444087D01*
X162387414Y-87561804D01*
X162470009Y-87685360D01*
X162491375Y-87725868D01*
X162549652Y-87858236D01*
X162587147Y-87979064D01*
X162606899Y-88100883D01*
X162612017Y-88223258D01*
X163305989Y-88223258D01*
X163305902Y-88162872D01*
X163305364Y-87949538D01*
X163304586Y-87760507D01*
X163303527Y-87594187D01*
X163302142Y-87448984D01*
X163300388Y-87323304D01*
X163298221Y-87215554D01*
X163295598Y-87124139D01*
X163292476Y-87047466D01*
X163288811Y-86983942D01*
X163284560Y-86931972D01*
X163279679Y-86889962D01*
X163274125Y-86856320D01*
X163267855Y-86829451D01*
X163260824Y-86807762D01*
X163252990Y-86789659D01*
X163244309Y-86773547D01*
X163234737Y-86757835D01*
X163227383Y-86746057D01*
X163139159Y-86633844D01*
X163030523Y-86547496D01*
X162904587Y-86489340D01*
X162871168Y-86479583D01*
X162861808Y-86477875D01*
X162846638Y-86476245D01*
X162824902Y-86474690D01*
X162795843Y-86473210D01*
X162758703Y-86471801D01*
X162712724Y-86470464D01*
X162657150Y-86469195D01*
X162591223Y-86467993D01*
X162514185Y-86466856D01*
X162425279Y-86465783D01*
X162323748Y-86464772D01*
X162208834Y-86463821D01*
X162079780Y-86462928D01*
X161935829Y-86462091D01*
X161776223Y-86461309D01*
X161600205Y-86460580D01*
X161407017Y-86459903D01*
X161195902Y-86459275D01*
X160966103Y-86458694D01*
X160716862Y-86458160D01*
X160447422Y-86457670D01*
X160157026Y-86457222D01*
X159844916Y-86456815D01*
X159510334Y-86456447D01*
X159152524Y-86456116D01*
X158770728Y-86455821D01*
X158364188Y-86455559D01*
X157932148Y-86455329D01*
X157473849Y-86455130D01*
X156988535Y-86454958D01*
X156475448Y-86454814D01*
X155933830Y-86454694D01*
X155362925Y-86454598D01*
X154761975Y-86454522D01*
X154130222Y-86454467D01*
X153466910Y-86454429D01*
X152771280Y-86454408D01*
X152042575Y-86454401D01*
X141242400Y-86454401D01*
X141242400Y-87030134D01*
X140090933Y-87030134D01*
X140090933Y-86454401D01*
X136098225Y-86454401D01*
X135657897Y-86454387D01*
X135250145Y-86454362D01*
X134873680Y-86454355D01*
X134527211Y-86454392D01*
G37*
X134527211Y-86454392D02*
X134209447Y-86454502D01*
X133919098Y-86454712D01*
X133654874Y-86455050D01*
X133415485Y-86455544D01*
X133199640Y-86456221D01*
X133006050Y-86457109D01*
X132833423Y-86458235D01*
X132680470Y-86459628D01*
X132545900Y-86461314D01*
X132428423Y-86463322D01*
X132326749Y-86465679D01*
X132239587Y-86468413D01*
X132165648Y-86471551D01*
X132103640Y-86475121D01*
X132052274Y-86479151D01*
X132010259Y-86483668D01*
X131976305Y-86488701D01*
X131949122Y-86494275D01*
X131927420Y-86500421D01*
X131909908Y-86507164D01*
X131895295Y-86514533D01*
X131882292Y-86522555D01*
X131869609Y-86531258D01*
X131855955Y-86540670D01*
X131848641Y-86545470D01*
X131769105Y-86608323D01*
X131694334Y-86688035D01*
X131652617Y-86746057D01*
X131645707Y-86756566D01*
X131639210Y-86765772D01*
X131633113Y-86774705D01*
X131627405Y-86784394D01*
X131622072Y-86795870D01*
X131617101Y-86810164D01*
X131612480Y-86828304D01*
X131608195Y-86851323D01*
X131604236Y-86880248D01*
X131600587Y-86916111D01*
X131597238Y-86959942D01*
X131594175Y-87012771D01*
X131591385Y-87075629D01*
X131588856Y-87149544D01*
X131586575Y-87235548D01*
X131584530Y-87334670D01*
X131582707Y-87447941D01*
X131581094Y-87576391D01*
X131579678Y-87721050D01*
X131578446Y-87882948D01*
X131577387Y-88063115D01*
X131576486Y-88262581D01*
X131575732Y-88482378D01*
X131575111Y-88723533D01*
X131574611Y-88987079D01*
X131574220Y-89274045D01*
X131573923Y-89585461D01*
X131573710Y-89922357D01*
X131573567Y-90285763D01*
X131573481Y-90676711D01*
X131573440Y-91096228D01*
X131573430Y-91545347D01*
X131573440Y-92025097D01*
X131573456Y-92536508D01*
X131573467Y-93080610D01*
X131573467Y-93160001D01*
X131573459Y-93708794D01*
X131573442Y-94224751D01*
X131573431Y-94708902D01*
X131573437Y-95162276D01*
X131573473Y-95585904D01*
X131573552Y-95980817D01*
X131573686Y-96348043D01*
X131573889Y-96688614D01*
X131574172Y-97003560D01*
X131574550Y-97293910D01*
X131575033Y-97560695D01*
X131575636Y-97804945D01*
X131576371Y-98027689D01*
X131577250Y-98229960D01*
X131578287Y-98412785D01*
X131579493Y-98577196D01*
X131580882Y-98724223D01*
X131582467Y-98854895D01*
X131584260Y-98970244D01*
X131586273Y-99071298D01*
X131588520Y-99159089D01*
X131591013Y-99234646D01*
X131593765Y-99298999D01*
X131596789Y-99353180D01*
X131600097Y-99398217D01*
X131603703Y-99435141D01*
X131607618Y-99464982D01*
X131611856Y-99488771D01*
X131616428Y-99507537D01*
X131621349Y-99522310D01*
X131626631Y-99534121D01*
X131632285Y-99544000D01*
X131638326Y-99552977D01*
X131644766Y-99562082D01*
X131651617Y-99572345D01*
X131652617Y-99573944D01*
X131714970Y-99656282D01*
X131792708Y-99732630D01*
X131848641Y-99774531D01*
X131863647Y-99784544D01*
X131877084Y-99793798D01*
X131890279Y-99802321D01*
X131904561Y-99810144D01*
X131921257Y-99817296D01*
X131941694Y-99823808D01*
X131967200Y-99829709D01*
X131999103Y-99835029D01*
X132038729Y-99839799D01*
X132087407Y-99844048D01*
X132146463Y-99847806D01*
X132217226Y-99851103D01*
X132301023Y-99853969D01*
X132399181Y-99856434D01*
X132513028Y-99858528D01*
X132643892Y-99860281D01*
X132793099Y-99861722D01*
X132961978Y-99862882D01*
X133151856Y-99863791D01*
X133364060Y-99864479D01*
X133599918Y-99864975D01*
X133860758Y-99865310D01*
X134147907Y-99865513D01*
X134462692Y-99865614D01*
X134806441Y-99865644D01*
X135180482Y-99865632D01*
X135586142Y-99865608D01*
X135886558Y-99865600D01*
X139667600Y-99865600D01*
X139667600Y-99289867D01*
X140836000Y-99289867D01*
X140836000Y-99865600D01*
X151813033Y-99864486D01*
X152554597Y-99864403D01*
X153263026Y-99864307D01*
X153939055Y-99864195D01*
X154583415Y-99864067D01*
X155196840Y-99863921D01*
X155780063Y-99863755D01*
X156333816Y-99863568D01*
X156858831Y-99863357D01*
X157355843Y-99863121D01*
X157825584Y-99862859D01*
X158268786Y-99862569D01*
X158686183Y-99862249D01*
X159078507Y-99861898D01*
X159446491Y-99861513D01*
X159790868Y-99861093D01*
X160112371Y-99860638D01*
X160411732Y-99860144D01*
X160689685Y-99859610D01*
X160946962Y-99859035D01*
X161184296Y-99858417D01*
X161402420Y-99857754D01*
X161602067Y-99857045D01*
X161783969Y-99856288D01*
X161948860Y-99855481D01*
X162097472Y-99854623D01*
X162230538Y-99853712D01*
X162348791Y-99852747D01*
X162452963Y-99851725D01*
X162543788Y-99850645D01*
X162621999Y-99849506D01*
X162688327Y-99848305D01*
X162743507Y-99847042D01*
X162788270Y-99845714D01*
X162823350Y-99844320D01*
X162849480Y-99842858D01*
X162867392Y-99841326D01*
X162877819Y-99839724D01*
X162878608Y-99839525D01*
X163003366Y-99788819D01*
X163114561Y-99709271D01*
X163206960Y-99604869D01*
X163227383Y-99573944D01*
X163237169Y-99558350D01*
X163246113Y-99543572D01*
X163254254Y-99528097D01*
X163261629Y-99510411D01*
X163268277Y-99488997D01*
X163274234Y-99462343D01*
X163279540Y-99428933D01*
X163284231Y-99387253D01*
X163288345Y-99335788D01*
X163291921Y-99273024D01*
X163294995Y-99197446D01*
X163297606Y-99107540D01*
X163299791Y-99001790D01*
X163301588Y-98878683D01*
X163303035Y-98736703D01*
X163304170Y-98574337D01*
X163305030Y-98390070D01*
X163305653Y-98182387D01*
X163306077Y-97949773D01*
X163306340Y-97690714D01*
X163306480Y-97403696D01*
X163306533Y-97087203D01*
X163306538Y-96739722D01*
X163306533Y-96399176D01*
X163306533Y-94667067D01*
X160834267Y-94667067D01*
X160834267Y-95361334D01*
X160140000Y-95361334D01*
X157413850Y-95361334D01*
X156719467Y-95361334D01*
X156719467Y-93295083D01*
X156037900Y-93299508D01*
X155356334Y-93303934D01*
X155351969Y-94332634D01*
X155347605Y-95361334D01*
X154670533Y-95361334D01*
X154670533Y-94507334D01*
X153990178Y-94507334D01*
X153990031Y-94692662D01*
X153989727Y-94859343D01*
X153989271Y-95005073D01*
X153988668Y-95127546D01*
X153987924Y-95224458D01*
X153987043Y-95293503D01*
X153986030Y-95332376D01*
X153985358Y-95340267D01*
X153977558Y-95344238D01*
X153956159Y-95347665D01*
X153919303Y-95350573D01*
X153865135Y-95352984D01*
X153791797Y-95354921D01*
X153697431Y-95356406D01*
X153580182Y-95357464D01*
X153438192Y-95358116D01*
X153269604Y-95358385D01*
X153072561Y-95358294D01*
X152845206Y-95357867D01*
X152609393Y-95357201D01*
X151241533Y-95352867D01*
X151236950Y-95009967D01*
X151232366Y-94667067D01*
X153298933Y-94667067D01*
X153298933Y-93989996D01*
X152270233Y-93985632D01*
X151241533Y-93981267D01*
X151241533Y-91932334D01*
X153984733Y-91932334D01*
X153989098Y-93625667D01*
X153989629Y-93862527D01*
X153989982Y-94089962D01*
X153990164Y-94305666D01*
X153990178Y-94507334D01*
X154670533Y-94507334D01*
X154670533Y-93295467D01*
X155347867Y-93295467D01*
X155347867Y-92618134D01*
X154670533Y-92618134D01*
X154670533Y-91923867D01*
X150555733Y-91923867D01*
X150555733Y-94667067D01*
X148506800Y-94667067D01*
X148506800Y-95344401D01*
X150555733Y-95344401D01*
X150555733Y-96038667D01*
X147812534Y-96038667D01*
X147812534Y-91923867D01*
X147135200Y-91923867D01*
X147135200Y-94667067D01*
X145086267Y-94667067D01*
X145086267Y-95344401D01*
X147135200Y-95344401D01*
X147135200Y-96038667D01*
X144392000Y-96038667D01*
X144392000Y-91923867D01*
X143714667Y-91923867D01*
X143714667Y-92618134D01*
X141665733Y-92618134D01*
X141665733Y-93295467D01*
X143714667Y-93295467D01*
X143714667Y-95361334D01*
X140971467Y-95361334D01*
X140971467Y-91923867D01*
X140294133Y-91923867D01*
X140294133Y-95361334D01*
X139599867Y-95361334D01*
X139599867Y-93295467D01*
X138922533Y-93295467D01*
X138922533Y-93989734D01*
X138228267Y-93989734D01*
X138228267Y-95361334D01*
X137550933Y-95361334D01*
X137550933Y-94507334D01*
X136870578Y-94507334D01*
X136870431Y-94692662D01*
X136870127Y-94859343D01*
X136869671Y-95005073D01*
X136869068Y-95127546D01*
X136868324Y-95224458D01*
X136867443Y-95293503D01*
X136866430Y-95332376D01*
X136865758Y-95340267D01*
X136857958Y-95344238D01*
X136836559Y-95347665D01*
X136799703Y-95350573D01*
X136745535Y-95352984D01*
X136672197Y-95354921D01*
X136577831Y-95356406D01*
X136460582Y-95357464D01*
X136318592Y-95358116D01*
X136150004Y-95358385D01*
X135952961Y-95358294D01*
X135725606Y-95357867D01*
X135489793Y-95357201D01*
X134121934Y-95352867D01*
X134112766Y-94667067D01*
X136179334Y-94667067D01*
X136179334Y-93989996D01*
X135150634Y-93985632D01*
X134121934Y-93981267D01*
X134121934Y-91932334D01*
X136865134Y-91932334D01*
X136869498Y-93625667D01*
X136870029Y-93862527D01*
X136870382Y-94089962D01*
X136870564Y-94305666D01*
X136870578Y-94507334D01*
X137550933Y-94507334D01*
X137550933Y-91923867D01*
X138227566Y-91923867D01*
X138232150Y-92266767D01*
X138236733Y-92609667D01*
X138918300Y-92614093D01*
X139599867Y-92618518D01*
X139599867Y-91923867D01*
X140294133Y-91923867D01*
X140971467Y-91923867D01*
X143714667Y-91923867D01*
X144392000Y-91923867D01*
X147135200Y-91923867D01*
X147812534Y-91923867D01*
X148506800Y-91923867D01*
X148506800Y-93990118D01*
X149188367Y-93985693D01*
X149869934Y-93981267D01*
X149878662Y-91923867D01*
X150555733Y-91923867D01*
X154670533Y-91923867D01*
X155347166Y-91923867D01*
X155356334Y-92609667D01*
X156037900Y-92614093D01*
X156719467Y-92618518D01*
X156719467Y-90551566D01*
X157405267Y-90560734D01*
X157409558Y-92961034D01*
X157413850Y-95361334D01*
X160140000Y-95361334D01*
X160140000Y-94667067D01*
X159462667Y-94667067D01*
X159462667Y-93989734D01*
X160156933Y-93989734D01*
X160156933Y-94667067D01*
X160834267Y-94667067D01*
X163306533Y-94667067D01*
X163306533Y-93464800D01*
X162730800Y-93464800D01*
X162730800Y-92313334D01*
X163306533Y-92313334D01*
X163306533Y-90551566D01*
X160834267Y-90551566D01*
X160834267Y-91246534D01*
X160157635Y-91246534D01*
X160148467Y-91932334D01*
X159462667Y-91941502D01*
X159462667Y-92618134D01*
X158785333Y-92618134D01*
X158785333Y-93295467D01*
X159462667Y-93295467D01*
X159462667Y-93989734D01*
X158768400Y-93989734D01*
X158768400Y-93295467D01*
X158091067Y-93295467D01*
X158091067Y-92618134D01*
X158768400Y-92618134D01*
X158768400Y-91923867D01*
X159462667Y-91923867D01*
X159462667Y-91246534D01*
X160139299Y-91246534D01*
X160148467Y-90560734D01*
X160834267Y-90551566D01*
X163306533Y-90551566D01*
X163306533Y-89649892D01*
X163306536Y-89291129D01*
X163306519Y-88964640D01*
X163306436Y-88668830D01*
X163306245Y-88402105D01*
X163305989Y-88223258D01*
X162612017Y-88223258D01*
X162597141Y-88417117D01*
X162552619Y-88595608D01*
X162477612Y-88761170D01*
X162375622Y-88910861D01*
X162241776Y-89052122D01*
X162090480Y-89166111D01*
X161925071Y-89251689D01*
X161748886Y-89307722D01*
X161565262Y-89333072D01*
X161377537Y-89326602D01*
X161234054Y-89299675D01*
X161057828Y-89238166D01*
X160897780Y-89149794D01*
X160756071Y-89037926D01*
X160634861Y-88905929D01*
X160536311Y-88757168D01*
X160462581Y-88595010D01*
X160415831Y-88422821D01*
X160398222Y-88243967D01*
X160411913Y-88061814D01*
X160418031Y-88028117D01*
X160470877Y-87842206D01*
X160550127Y-87674280D01*
X160652705Y-87525780D01*
X160775535Y-87398145D01*
X160915541Y-87292815D01*
X161069647Y-87211228D01*
X161234776Y-87154824D01*
X161407852Y-87125044D01*
X161585799Y-87123325D01*
X161765540Y-87151107D01*
X161944001Y-87209831D01*
X162053467Y-87262855D01*
X162170469Y-87341380D01*
X162284676Y-87444087D01*
X162387414Y-87561804D01*
X162470009Y-87685360D01*
X162491375Y-87725868D01*
X162549652Y-87858236D01*
X162587147Y-87979064D01*
X162606899Y-88100883D01*
X162612017Y-88223258D01*
X163305989Y-88223258D01*
X163305902Y-88162872D01*
X163305364Y-87949538D01*
X163304586Y-87760507D01*
X163303527Y-87594187D01*
X163302142Y-87448984D01*
X163300388Y-87323304D01*
X163298221Y-87215554D01*
X163295598Y-87124139D01*
X163292476Y-87047466D01*
X163288811Y-86983942D01*
X163284560Y-86931972D01*
X163279679Y-86889962D01*
X163274125Y-86856320D01*
X163267855Y-86829451D01*
X163260824Y-86807762D01*
X163252990Y-86789659D01*
X163244309Y-86773547D01*
X163234737Y-86757835D01*
X163227383Y-86746057D01*
X163139159Y-86633844D01*
X163030523Y-86547496D01*
X162904587Y-86489340D01*
X162871168Y-86479583D01*
X162861808Y-86477875D01*
X162846638Y-86476245D01*
X162824902Y-86474690D01*
X162795843Y-86473210D01*
X162758703Y-86471801D01*
X162712724Y-86470464D01*
X162657150Y-86469195D01*
X162591223Y-86467993D01*
X162514185Y-86466856D01*
X162425279Y-86465783D01*
X162323748Y-86464772D01*
X162208834Y-86463821D01*
X162079780Y-86462928D01*
X161935829Y-86462091D01*
X161776223Y-86461309D01*
X161600205Y-86460580D01*
X161407017Y-86459903D01*
X161195902Y-86459275D01*
X160966103Y-86458694D01*
X160716862Y-86458160D01*
X160447422Y-86457670D01*
X160157026Y-86457222D01*
X159844916Y-86456815D01*
X159510334Y-86456447D01*
X159152524Y-86456116D01*
X158770728Y-86455821D01*
X158364188Y-86455559D01*
X157932148Y-86455329D01*
X157473849Y-86455130D01*
X156988535Y-86454958D01*
X156475448Y-86454814D01*
X155933830Y-86454694D01*
X155362925Y-86454598D01*
X154761975Y-86454522D01*
X154130222Y-86454467D01*
X153466910Y-86454429D01*
X152771280Y-86454408D01*
X152042575Y-86454401D01*
X141242400Y-86454401D01*
X141242400Y-87030134D01*
X140090933Y-87030134D01*
X140090933Y-86454401D01*
X136098225Y-86454401D01*
X135657897Y-86454387D01*
X135250145Y-86454362D01*
X134873680Y-86454355D01*
X134527211Y-86454392D01*
G36*
X145086267Y-93989734D02*
G01*
X146440933Y-93989734D01*
X146440933Y-92618134D01*
X145086267Y-92618134D01*
X145086267Y-93989734D01*
G37*
X145086267Y-93989734D02*
X146440933Y-93989734D01*
X146440933Y-92618134D01*
X145086267Y-92618134D01*
X145086267Y-93989734D01*
G36*
X151927333Y-93295467D02*
G01*
X153298933Y-93295467D01*
X153298933Y-92618134D01*
X151927333Y-92618134D01*
X151927333Y-93295467D01*
G37*
X151927333Y-93295467D02*
X153298933Y-93295467D01*
X153298933Y-92618134D01*
X151927333Y-92618134D01*
X151927333Y-93295467D01*
G36*
X141665733Y-94667067D02*
G01*
X143020400Y-94667067D01*
X143020400Y-93989734D01*
X141665733Y-93989734D01*
X141665733Y-94667067D01*
G37*
X141665733Y-94667067D02*
X143020400Y-94667067D01*
X143020400Y-93989734D01*
X141665733Y-93989734D01*
X141665733Y-94667067D01*
G36*
X134807734Y-93295467D02*
G01*
X136179334Y-93295467D01*
X136179334Y-92618134D01*
X134807734Y-92618134D01*
X134807734Y-93295467D01*
G37*
X134807734Y-93295467D02*
X136179334Y-93295467D01*
X136179334Y-92618134D01*
X134807734Y-92618134D01*
X134807734Y-93295467D01*
G04 #@! TO.C,REF\u002A\u002A*
G36*
X149930808Y-116785166D02*
G01*
X149843015Y-116828540D01*
X149734751Y-116904122D01*
X149655845Y-116986542D01*
X149601805Y-117090037D01*
X149568141Y-117228843D01*
X149550363Y-117417194D01*
X149543980Y-117669328D01*
X149543607Y-117777724D01*
X149544696Y-118015287D01*
X149549222Y-118185068D01*
X149559068Y-118302550D01*
X149576118Y-118383215D01*
X149602259Y-118442545D01*
X149629458Y-118483020D01*
X149803080Y-118655225D01*
X150007538Y-118758806D01*
X150228104Y-118789960D01*
X150450046Y-118744885D01*
X150520360Y-118713009D01*
X150688689Y-118625271D01*
X150688689Y-120000172D01*
X150565838Y-119936643D01*
X150403967Y-119887491D01*
X150205005Y-119874900D01*
X150006328Y-119898147D01*
X149856290Y-119950370D01*
X149731841Y-120049826D01*
X149625508Y-120192143D01*
X149617513Y-120206755D01*
X149583793Y-120275582D01*
X149559166Y-120344956D01*
X149542214Y-120428996D01*
X149531519Y-120541816D01*
X149525662Y-120697533D01*
X149523227Y-120910265D01*
X149522787Y-121149664D01*
X149522787Y-121913443D01*
X149980820Y-121913443D01*
X149980820Y-120505108D01*
X150108933Y-120397308D01*
X150242018Y-120311079D01*
X150368048Y-120295401D01*
X150494778Y-120335747D01*
X150562317Y-120375254D01*
X150612586Y-120431527D01*
X150648338Y-120516572D01*
X150672328Y-120642394D01*
X150687311Y-120820998D01*
X150696040Y-121064391D01*
X150699114Y-121226394D01*
X150709508Y-121892623D01*
X150928115Y-121905209D01*
X151146721Y-121917795D01*
X151146721Y-117783464D01*
X150688689Y-117783464D01*
X150677011Y-118013953D01*
X150637662Y-118173950D01*
X150564166Y-118273497D01*
X150450049Y-118322639D01*
X150334754Y-118332459D01*
X150204238Y-118321175D01*
X150117617Y-118276764D01*
X150063451Y-118218081D01*
X150020810Y-118154962D01*
X149995426Y-118084645D01*
X149984131Y-117986123D01*
X149983760Y-117838387D01*
X149987560Y-117714683D01*
X149996288Y-117528328D01*
X150009280Y-117405982D01*
X150031159Y-117328377D01*
X150066546Y-117276245D01*
X150099941Y-117246111D01*
X150239475Y-117180399D01*
X150404619Y-117169787D01*
X150499446Y-117192423D01*
X150593334Y-117272881D01*
X150655526Y-117429392D01*
X150685669Y-117660852D01*
X150688689Y-117783464D01*
X151146721Y-117783464D01*
X151146721Y-116750164D01*
X150917705Y-116750164D01*
X150780206Y-116755602D01*
X150709267Y-116774909D01*
X150688697Y-116812576D01*
X150688689Y-116813692D01*
X150679145Y-116850581D01*
X150637051Y-116846393D01*
X150553361Y-116805859D01*
X150358354Y-116743850D01*
X150138954Y-116737332D01*
X149930808Y-116785166D01*
G37*
X149930808Y-116785166D02*
X149843015Y-116828540D01*
X149734751Y-116904122D01*
X149655845Y-116986542D01*
X149601805Y-117090037D01*
X149568141Y-117228843D01*
X149550363Y-117417194D01*
X149543980Y-117669328D01*
X149543607Y-117777724D01*
X149544696Y-118015287D01*
X149549222Y-118185068D01*
X149559068Y-118302550D01*
X149576118Y-118383215D01*
X149602259Y-118442545D01*
X149629458Y-118483020D01*
X149803080Y-118655225D01*
X150007538Y-118758806D01*
X150228104Y-118789960D01*
X150450046Y-118744885D01*
X150520360Y-118713009D01*
X150688689Y-118625271D01*
X150688689Y-120000172D01*
X150565838Y-119936643D01*
X150403967Y-119887491D01*
X150205005Y-119874900D01*
X150006328Y-119898147D01*
X149856290Y-119950370D01*
X149731841Y-120049826D01*
X149625508Y-120192143D01*
X149617513Y-120206755D01*
X149583793Y-120275582D01*
X149559166Y-120344956D01*
X149542214Y-120428996D01*
X149531519Y-120541816D01*
X149525662Y-120697533D01*
X149523227Y-120910265D01*
X149522787Y-121149664D01*
X149522787Y-121913443D01*
X149980820Y-121913443D01*
X149980820Y-120505108D01*
X150108933Y-120397308D01*
X150242018Y-120311079D01*
X150368048Y-120295401D01*
X150494778Y-120335747D01*
X150562317Y-120375254D01*
X150612586Y-120431527D01*
X150648338Y-120516572D01*
X150672328Y-120642394D01*
X150687311Y-120820998D01*
X150696040Y-121064391D01*
X150699114Y-121226394D01*
X150709508Y-121892623D01*
X150928115Y-121905209D01*
X151146721Y-121917795D01*
X151146721Y-117783464D01*
X150688689Y-117783464D01*
X150677011Y-118013953D01*
X150637662Y-118173950D01*
X150564166Y-118273497D01*
X150450049Y-118322639D01*
X150334754Y-118332459D01*
X150204238Y-118321175D01*
X150117617Y-118276764D01*
X150063451Y-118218081D01*
X150020810Y-118154962D01*
X149995426Y-118084645D01*
X149984131Y-117986123D01*
X149983760Y-117838387D01*
X149987560Y-117714683D01*
X149996288Y-117528328D01*
X150009280Y-117405982D01*
X150031159Y-117328377D01*
X150066546Y-117276245D01*
X150099941Y-117246111D01*
X150239475Y-117180399D01*
X150404619Y-117169787D01*
X150499446Y-117192423D01*
X150593334Y-117272881D01*
X150655526Y-117429392D01*
X150685669Y-117660852D01*
X150688689Y-117783464D01*
X151146721Y-117783464D01*
X151146721Y-116750164D01*
X150917705Y-116750164D01*
X150780206Y-116755602D01*
X150709267Y-116774909D01*
X150688697Y-116812576D01*
X150688689Y-116813692D01*
X150679145Y-116850581D01*
X150637051Y-116846393D01*
X150553361Y-116805859D01*
X150358354Y-116743850D01*
X150138954Y-116737332D01*
X149930808Y-116785166D01*
G36*
X148193779Y-119889247D02*
G01*
X147997889Y-119941514D01*
X147848767Y-120036253D01*
X147743535Y-120160338D01*
X147710821Y-120213296D01*
X147686669Y-120268768D01*
X147669784Y-120339730D01*
X147658873Y-120439154D01*
X147652640Y-120580016D01*
X147649791Y-120775289D01*
X147649032Y-121037948D01*
X147649016Y-121107633D01*
X147649016Y-121913443D01*
X147848885Y-121913443D01*
X147976370Y-121904515D01*
X148070634Y-121881896D01*
X148094251Y-121867946D01*
X148158815Y-121843870D01*
X148224759Y-121867946D01*
X148333332Y-121898003D01*
X148491042Y-121910100D01*
X148665844Y-121904851D01*
X148825693Y-121882869D01*
X148919016Y-121854663D01*
X149099609Y-121738731D01*
X149212470Y-121577847D01*
X149263209Y-121363936D01*
X149263680Y-121358443D01*
X149259227Y-121263547D01*
X148856557Y-121263547D01*
X148821354Y-121371484D01*
X148764014Y-121432229D01*
X148648913Y-121478172D01*
X148496986Y-121496512D01*
X148342061Y-121487485D01*
X148217964Y-121451332D01*
X148183197Y-121428137D01*
X148122444Y-121320960D01*
X148107049Y-121199120D01*
X148107049Y-121039017D01*
X148337403Y-121039017D01*
X148556241Y-121055863D01*
X148722137Y-121103593D01*
X148825338Y-121177986D01*
X148856557Y-121263547D01*
X149259227Y-121263547D01*
X149252713Y-121124731D01*
X149175631Y-120939946D01*
X149030714Y-120800206D01*
X149010683Y-120787495D01*
X148924610Y-120746105D01*
X148818073Y-120721041D01*
X148669141Y-120708858D01*
X148492213Y-120706057D01*
X148107049Y-120705902D01*
X148107049Y-120544443D01*
X148123387Y-120419168D01*
X148165078Y-120335241D01*
X148169959Y-120330773D01*
X148262736Y-120294059D01*
X148402784Y-120279828D01*
X148557555Y-120286821D01*
X148694499Y-120313780D01*
X148775759Y-120354212D01*
X148819790Y-120386601D01*
X148866285Y-120392784D01*
X148930451Y-120366248D01*
X149027495Y-120300479D01*
X149172626Y-120188963D01*
X149185947Y-120178516D01*
X149179121Y-120139862D01*
X149122178Y-120075572D01*
X149035630Y-120004131D01*
X148939992Y-119944021D01*
X148909944Y-119929827D01*
X148800341Y-119901503D01*
X148639735Y-119881300D01*
X148460302Y-119873196D01*
X148451911Y-119873180D01*
X148193779Y-119889247D01*
G37*
X148193779Y-119889247D02*
X147997889Y-119941514D01*
X147848767Y-120036253D01*
X147743535Y-120160338D01*
X147710821Y-120213296D01*
X147686669Y-120268768D01*
X147669784Y-120339730D01*
X147658873Y-120439154D01*
X147652640Y-120580016D01*
X147649791Y-120775289D01*
X147649032Y-121037948D01*
X147649016Y-121107633D01*
X147649016Y-121913443D01*
X147848885Y-121913443D01*
X147976370Y-121904515D01*
X148070634Y-121881896D01*
X148094251Y-121867946D01*
X148158815Y-121843870D01*
X148224759Y-121867946D01*
X148333332Y-121898003D01*
X148491042Y-121910100D01*
X148665844Y-121904851D01*
X148825693Y-121882869D01*
X148919016Y-121854663D01*
X149099609Y-121738731D01*
X149212470Y-121577847D01*
X149263209Y-121363936D01*
X149263680Y-121358443D01*
X149259227Y-121263547D01*
X148856557Y-121263547D01*
X148821354Y-121371484D01*
X148764014Y-121432229D01*
X148648913Y-121478172D01*
X148496986Y-121496512D01*
X148342061Y-121487485D01*
X148217964Y-121451332D01*
X148183197Y-121428137D01*
X148122444Y-121320960D01*
X148107049Y-121199120D01*
X148107049Y-121039017D01*
X148337403Y-121039017D01*
X148556241Y-121055863D01*
X148722137Y-121103593D01*
X148825338Y-121177986D01*
X148856557Y-121263547D01*
X149259227Y-121263547D01*
X149252713Y-121124731D01*
X149175631Y-120939946D01*
X149030714Y-120800206D01*
X149010683Y-120787495D01*
X148924610Y-120746105D01*
X148818073Y-120721041D01*
X148669141Y-120708858D01*
X148492213Y-120706057D01*
X148107049Y-120705902D01*
X148107049Y-120544443D01*
X148123387Y-120419168D01*
X148165078Y-120335241D01*
X148169959Y-120330773D01*
X148262736Y-120294059D01*
X148402784Y-120279828D01*
X148557555Y-120286821D01*
X148694499Y-120313780D01*
X148775759Y-120354212D01*
X148819790Y-120386601D01*
X148866285Y-120392784D01*
X148930451Y-120366248D01*
X149027495Y-120300479D01*
X149172626Y-120188963D01*
X149185947Y-120178516D01*
X149179121Y-120139862D01*
X149122178Y-120075572D01*
X149035630Y-120004131D01*
X148939992Y-119944021D01*
X148909944Y-119929827D01*
X148800341Y-119901503D01*
X148639735Y-119881300D01*
X148460302Y-119873196D01*
X148451911Y-119873180D01*
X148193779Y-119889247D01*
G36*
X146899475Y-119877540D02*
G01*
X146837163Y-119896218D01*
X146817075Y-119937255D01*
X146816230Y-119955782D01*
X146812625Y-120007383D01*
X146787800Y-120015484D01*
X146720737Y-119980108D01*
X146680902Y-119955937D01*
X146555227Y-119904175D01*
X146405123Y-119878581D01*
X146247737Y-119876613D01*
X146100214Y-119895729D01*
X145979700Y-119933387D01*
X145903340Y-119987044D01*
X145888281Y-120054158D01*
X145895881Y-120072333D01*
X145951282Y-120147777D01*
X146037190Y-120240568D01*
X146052728Y-120255568D01*
X146134612Y-120324540D01*
X146205263Y-120346825D01*
X146304068Y-120331272D01*
X146343652Y-120320938D01*
X146466828Y-120296116D01*
X146553436Y-120307278D01*
X146626576Y-120346646D01*
X146693574Y-120399479D01*
X146742918Y-120465924D01*
X146777209Y-120558652D01*
X146799048Y-120690334D01*
X146811034Y-120873641D01*
X146815769Y-121121246D01*
X146816230Y-121270744D01*
X146816230Y-121913443D01*
X147232623Y-121913443D01*
X147232623Y-119873115D01*
X147024426Y-119873115D01*
X146899475Y-119877540D01*
G37*
X146899475Y-119877540D02*
X146837163Y-119896218D01*
X146817075Y-119937255D01*
X146816230Y-119955782D01*
X146812625Y-120007383D01*
X146787800Y-120015484D01*
X146720737Y-119980108D01*
X146680902Y-119955937D01*
X146555227Y-119904175D01*
X146405123Y-119878581D01*
X146247737Y-119876613D01*
X146100214Y-119895729D01*
X145979700Y-119933387D01*
X145903340Y-119987044D01*
X145888281Y-120054158D01*
X145895881Y-120072333D01*
X145951282Y-120147777D01*
X146037190Y-120240568D01*
X146052728Y-120255568D01*
X146134612Y-120324540D01*
X146205263Y-120346825D01*
X146304068Y-120331272D01*
X146343652Y-120320938D01*
X146466828Y-120296116D01*
X146553436Y-120307278D01*
X146626576Y-120346646D01*
X146693574Y-120399479D01*
X146742918Y-120465924D01*
X146777209Y-120558652D01*
X146799048Y-120690334D01*
X146811034Y-120873641D01*
X146815769Y-121121246D01*
X146816230Y-121270744D01*
X146816230Y-121913443D01*
X147232623Y-121913443D01*
X147232623Y-119873115D01*
X147024426Y-119873115D01*
X146899475Y-119877540D01*
G36*
X144276230Y-121913443D02*
G01*
X144505246Y-121913443D01*
X144638175Y-121909546D01*
X144707405Y-121893407D01*
X144732332Y-121858354D01*
X144734262Y-121834653D01*
X144738466Y-121787123D01*
X144764974Y-121778008D01*
X144834633Y-121807308D01*
X144888804Y-121834653D01*
X145096777Y-121899451D01*
X145322853Y-121903201D01*
X145506655Y-121854873D01*
X145677813Y-121738118D01*
X145808284Y-121565781D01*
X145879727Y-121362506D01*
X145881546Y-121351141D01*
X145892161Y-121227136D01*
X145897440Y-121049117D01*
X145897016Y-120914480D01*
X145442172Y-120914480D01*
X145431635Y-121093428D01*
X145407666Y-121240924D01*
X145375217Y-121324217D01*
X145252456Y-121438041D01*
X145106701Y-121478845D01*
X144956393Y-121445848D01*
X144827951Y-121347422D01*
X144779308Y-121281224D01*
X144750866Y-121202231D01*
X144737544Y-121086926D01*
X144734262Y-120913736D01*
X144740135Y-120742229D01*
X144755647Y-120591540D01*
X144777638Y-120490698D01*
X144781303Y-120481659D01*
X144869988Y-120374195D01*
X144999428Y-120315195D01*
X145144257Y-120305669D01*
X145279109Y-120346626D01*
X145378617Y-120439076D01*
X145388940Y-120457473D01*
X145421250Y-120569646D01*
X145438852Y-120730934D01*
X145442172Y-120914480D01*
X145897016Y-120914480D01*
X145896800Y-120846212D01*
X145893806Y-120737010D01*
X145873442Y-120466856D01*
X145831117Y-120264024D01*
X145760706Y-120114077D01*
X145656088Y-120002579D01*
X145554521Y-119937127D01*
X145412616Y-119891117D01*
X145236121Y-119875336D01*
X145055393Y-119888190D01*
X144900787Y-119928081D01*
X144819101Y-119975801D01*
X144734262Y-120052579D01*
X144734262Y-119081967D01*
X144276230Y-119081967D01*
X144276230Y-121913443D01*
G37*
X144276230Y-121913443D02*
X144505246Y-121913443D01*
X144638175Y-121909546D01*
X144707405Y-121893407D01*
X144732332Y-121858354D01*
X144734262Y-121834653D01*
X144738466Y-121787123D01*
X144764974Y-121778008D01*
X144834633Y-121807308D01*
X144888804Y-121834653D01*
X145096777Y-121899451D01*
X145322853Y-121903201D01*
X145506655Y-121854873D01*
X145677813Y-121738118D01*
X145808284Y-121565781D01*
X145879727Y-121362506D01*
X145881546Y-121351141D01*
X145892161Y-121227136D01*
X145897440Y-121049117D01*
X145897016Y-120914480D01*
X145442172Y-120914480D01*
X145431635Y-121093428D01*
X145407666Y-121240924D01*
X145375217Y-121324217D01*
X145252456Y-121438041D01*
X145106701Y-121478845D01*
X144956393Y-121445848D01*
X144827951Y-121347422D01*
X144779308Y-121281224D01*
X144750866Y-121202231D01*
X144737544Y-121086926D01*
X144734262Y-120913736D01*
X144740135Y-120742229D01*
X144755647Y-120591540D01*
X144777638Y-120490698D01*
X144781303Y-120481659D01*
X144869988Y-120374195D01*
X144999428Y-120315195D01*
X145144257Y-120305669D01*
X145279109Y-120346626D01*
X145378617Y-120439076D01*
X145388940Y-120457473D01*
X145421250Y-120569646D01*
X145438852Y-120730934D01*
X145442172Y-120914480D01*
X145897016Y-120914480D01*
X145896800Y-120846212D01*
X145893806Y-120737010D01*
X145873442Y-120466856D01*
X145831117Y-120264024D01*
X145760706Y-120114077D01*
X145656088Y-120002579D01*
X145554521Y-119937127D01*
X145412616Y-119891117D01*
X145236121Y-119875336D01*
X145055393Y-119888190D01*
X144900787Y-119928081D01*
X144819101Y-119975801D01*
X144734262Y-120052579D01*
X144734262Y-119081967D01*
X144276230Y-119081967D01*
X144276230Y-121913443D01*
G36*
X142513058Y-119893935D02*
G01*
X142297752Y-120539344D01*
X142082445Y-121184754D01*
X142014936Y-120955738D01*
X141974309Y-120814204D01*
X141920867Y-120622936D01*
X141863158Y-120412693D01*
X141832645Y-120299918D01*
X141717864Y-119873115D01*
X141244313Y-119873115D01*
X141385861Y-120320738D01*
X141455567Y-120540903D01*
X141539777Y-120806471D01*
X141627719Y-121083492D01*
X141706228Y-121330492D01*
X141885048Y-121892623D01*
X142078118Y-121905185D01*
X142271189Y-121917746D01*
X142375882Y-121572070D01*
X142440447Y-121357335D01*
X142510908Y-121120604D01*
X142572489Y-120911526D01*
X142574919Y-120903205D01*
X142620915Y-120761537D01*
X142661497Y-120664874D01*
X142689920Y-120628321D01*
X142695761Y-120632549D01*
X142716262Y-120689217D01*
X142755215Y-120810605D01*
X142807878Y-120981448D01*
X142869509Y-121186482D01*
X142902857Y-121299262D01*
X143083454Y-121913443D01*
X143466733Y-121913443D01*
X143773133Y-120945328D01*
X143859209Y-120673759D01*
X143937620Y-120427138D01*
X144004661Y-120217048D01*
X144056631Y-120055076D01*
X144089826Y-119952808D01*
X144099916Y-119922928D01*
X144091928Y-119892334D01*
X144029208Y-119878935D01*
X143898685Y-119880275D01*
X143878253Y-119881288D01*
X143636208Y-119893935D01*
X143477683Y-120476885D01*
X143419415Y-120689486D01*
X143367345Y-120876377D01*
X143326056Y-121021331D01*
X143300134Y-121108120D01*
X143295344Y-121122269D01*
X143275496Y-121105998D01*
X143235470Y-121021697D01*
X143179862Y-120880842D01*
X143113269Y-120694911D01*
X143056976Y-120526956D01*
X142842422Y-119869209D01*
X142513058Y-119893935D01*
G37*
X142513058Y-119893935D02*
X142297752Y-120539344D01*
X142082445Y-121184754D01*
X142014936Y-120955738D01*
X141974309Y-120814204D01*
X141920867Y-120622936D01*
X141863158Y-120412693D01*
X141832645Y-120299918D01*
X141717864Y-119873115D01*
X141244313Y-119873115D01*
X141385861Y-120320738D01*
X141455567Y-120540903D01*
X141539777Y-120806471D01*
X141627719Y-121083492D01*
X141706228Y-121330492D01*
X141885048Y-121892623D01*
X142078118Y-121905185D01*
X142271189Y-121917746D01*
X142375882Y-121572070D01*
X142440447Y-121357335D01*
X142510908Y-121120604D01*
X142572489Y-120911526D01*
X142574919Y-120903205D01*
X142620915Y-120761537D01*
X142661497Y-120664874D01*
X142689920Y-120628321D01*
X142695761Y-120632549D01*
X142716262Y-120689217D01*
X142755215Y-120810605D01*
X142807878Y-120981448D01*
X142869509Y-121186482D01*
X142902857Y-121299262D01*
X143083454Y-121913443D01*
X143466733Y-121913443D01*
X143773133Y-120945328D01*
X143859209Y-120673759D01*
X143937620Y-120427138D01*
X144004661Y-120217048D01*
X144056631Y-120055076D01*
X144089826Y-119952808D01*
X144099916Y-119922928D01*
X144091928Y-119892334D01*
X144029208Y-119878935D01*
X143898685Y-119880275D01*
X143878253Y-119881288D01*
X143636208Y-119893935D01*
X143477683Y-120476885D01*
X143419415Y-120689486D01*
X143367345Y-120876377D01*
X143326056Y-121021331D01*
X143300134Y-121108120D01*
X143295344Y-121122269D01*
X143275496Y-121105998D01*
X143235470Y-121021697D01*
X143179862Y-120880842D01*
X143113269Y-120694911D01*
X143056976Y-120526956D01*
X142842422Y-119869209D01*
X142513058Y-119893935D01*
G36*
X140171330Y-119885480D02*
G01*
X139995821Y-119928109D01*
X139945088Y-119950693D01*
X139846746Y-120009847D01*
X139771273Y-120076472D01*
X139715429Y-120162135D01*
X139675974Y-120278405D01*
X139649668Y-120436848D01*
X139633271Y-120649034D01*
X139623543Y-120926529D01*
X139619849Y-121111885D01*
X139606255Y-121913443D01*
X139838456Y-121913443D01*
X139979323Y-121907536D01*
X140051898Y-121887350D01*
X140070656Y-121853453D01*
X140080559Y-121816799D01*
X140124834Y-121823807D01*
X140185164Y-121853197D01*
X140336197Y-121898246D01*
X140530307Y-121910385D01*
X140734469Y-121890529D01*
X140915660Y-121839592D01*
X140931911Y-121832522D01*
X141097509Y-121716188D01*
X141206676Y-121554467D01*
X141256909Y-121365430D01*
X141253072Y-121297515D01*
X140843237Y-121297515D01*
X140807125Y-121388914D01*
X140700058Y-121454411D01*
X140527316Y-121489563D01*
X140435000Y-121494231D01*
X140281150Y-121482282D01*
X140178885Y-121435844D01*
X140153934Y-121413771D01*
X140086339Y-121293681D01*
X140070656Y-121184754D01*
X140070656Y-121039017D01*
X140273648Y-121039017D01*
X140509613Y-121051043D01*
X140675119Y-121088871D01*
X140779695Y-121155121D01*
X140803109Y-121184656D01*
X140843237Y-121297515D01*
X141253072Y-121297515D01*
X141245705Y-121167148D01*
X141170560Y-120977692D01*
X141068032Y-120849656D01*
X141005935Y-120794302D01*
X140945145Y-120757924D01*
X140866048Y-120735744D01*
X140749029Y-120722982D01*
X140574473Y-120714857D01*
X140505237Y-120712521D01*
X140070656Y-120698321D01*
X140071293Y-120566784D01*
X140088124Y-120428519D01*
X140148974Y-120344917D01*
X140271905Y-120291507D01*
X140275203Y-120290555D01*
X140449496Y-120269555D01*
X140620048Y-120296985D01*
X140746800Y-120363689D01*
X140797658Y-120396625D01*
X140852435Y-120392068D01*
X140936728Y-120344349D01*
X140986227Y-120310671D01*
X141083045Y-120238716D01*
X141143018Y-120184779D01*
X141152641Y-120169337D01*
X141113015Y-120089424D01*
X140995936Y-119993989D01*
X140945082Y-119961789D01*
X140798887Y-119906332D01*
X140601863Y-119874913D01*
X140383011Y-119867855D01*
X140171330Y-119885480D01*
G37*
X140171330Y-119885480D02*
X139995821Y-119928109D01*
X139945088Y-119950693D01*
X139846746Y-120009847D01*
X139771273Y-120076472D01*
X139715429Y-120162135D01*
X139675974Y-120278405D01*
X139649668Y-120436848D01*
X139633271Y-120649034D01*
X139623543Y-120926529D01*
X139619849Y-121111885D01*
X139606255Y-121913443D01*
X139838456Y-121913443D01*
X139979323Y-121907536D01*
X140051898Y-121887350D01*
X140070656Y-121853453D01*
X140080559Y-121816799D01*
X140124834Y-121823807D01*
X140185164Y-121853197D01*
X140336197Y-121898246D01*
X140530307Y-121910385D01*
X140734469Y-121890529D01*
X140915660Y-121839592D01*
X140931911Y-121832522D01*
X141097509Y-121716188D01*
X141206676Y-121554467D01*
X141256909Y-121365430D01*
X141253072Y-121297515D01*
X140843237Y-121297515D01*
X140807125Y-121388914D01*
X140700058Y-121454411D01*
X140527316Y-121489563D01*
X140435000Y-121494231D01*
X140281150Y-121482282D01*
X140178885Y-121435844D01*
X140153934Y-121413771D01*
X140086339Y-121293681D01*
X140070656Y-121184754D01*
X140070656Y-121039017D01*
X140273648Y-121039017D01*
X140509613Y-121051043D01*
X140675119Y-121088871D01*
X140779695Y-121155121D01*
X140803109Y-121184656D01*
X140843237Y-121297515D01*
X141253072Y-121297515D01*
X141245705Y-121167148D01*
X141170560Y-120977692D01*
X141068032Y-120849656D01*
X141005935Y-120794302D01*
X140945145Y-120757924D01*
X140866048Y-120735744D01*
X140749029Y-120722982D01*
X140574473Y-120714857D01*
X140505237Y-120712521D01*
X140070656Y-120698321D01*
X140071293Y-120566784D01*
X140088124Y-120428519D01*
X140148974Y-120344917D01*
X140271905Y-120291507D01*
X140275203Y-120290555D01*
X140449496Y-120269555D01*
X140620048Y-120296985D01*
X140746800Y-120363689D01*
X140797658Y-120396625D01*
X140852435Y-120392068D01*
X140936728Y-120344349D01*
X140986227Y-120310671D01*
X141083045Y-120238716D01*
X141143018Y-120184779D01*
X141152641Y-120169337D01*
X141113015Y-120089424D01*
X140995936Y-119993989D01*
X140945082Y-119961789D01*
X140798887Y-119906332D01*
X140601863Y-119874913D01*
X140383011Y-119867855D01*
X140171330Y-119885480D01*
G36*
X138194893Y-119872460D02*
G01*
X138034818Y-119904017D01*
X137943688Y-119950743D01*
X137847821Y-120028370D01*
X137984213Y-120200579D01*
X138068306Y-120304867D01*
X138125408Y-120355746D01*
X138182156Y-120363519D01*
X138265189Y-120338488D01*
X138304167Y-120324327D01*
X138463074Y-120303433D01*
X138608601Y-120348220D01*
X138715440Y-120449399D01*
X138732795Y-120481659D01*
X138751697Y-120567115D01*
X138766284Y-120724606D01*
X138775874Y-120942969D01*
X138779781Y-121211038D01*
X138779836Y-121249172D01*
X138779836Y-121913443D01*
X139237869Y-121913443D01*
X139237869Y-119873115D01*
X139008852Y-119873115D01*
X138876801Y-119876563D01*
X138808008Y-119891907D01*
X138782570Y-119926648D01*
X138779836Y-119959416D01*
X138779836Y-120045717D01*
X138670122Y-119959416D01*
X138544320Y-119900538D01*
X138375319Y-119871426D01*
X138194893Y-119872460D01*
G37*
X138194893Y-119872460D02*
X138034818Y-119904017D01*
X137943688Y-119950743D01*
X137847821Y-120028370D01*
X137984213Y-120200579D01*
X138068306Y-120304867D01*
X138125408Y-120355746D01*
X138182156Y-120363519D01*
X138265189Y-120338488D01*
X138304167Y-120324327D01*
X138463074Y-120303433D01*
X138608601Y-120348220D01*
X138715440Y-120449399D01*
X138732795Y-120481659D01*
X138751697Y-120567115D01*
X138766284Y-120724606D01*
X138775874Y-120942969D01*
X138779781Y-121211038D01*
X138779836Y-121249172D01*
X138779836Y-121913443D01*
X139237869Y-121913443D01*
X139237869Y-119873115D01*
X139008852Y-119873115D01*
X138876801Y-119876563D01*
X138808008Y-119891907D01*
X138782570Y-119926648D01*
X138779836Y-119959416D01*
X138779836Y-120045717D01*
X138670122Y-119959416D01*
X138544320Y-119900538D01*
X138375319Y-119871426D01*
X138194893Y-119872460D01*
G36*
X136879158Y-119883999D02*
G01*
X136680124Y-119935746D01*
X136513439Y-120042544D01*
X136432731Y-120122326D01*
X136300432Y-120310931D01*
X136224610Y-120529720D01*
X136198562Y-120798668D01*
X136198429Y-120820410D01*
X136198197Y-121039017D01*
X137456405Y-121039017D01*
X137429585Y-121153525D01*
X137381159Y-121257232D01*
X137296404Y-121365290D01*
X137278677Y-121382541D01*
X137126320Y-121475904D01*
X136952576Y-121491738D01*
X136752589Y-121430313D01*
X136718689Y-121413771D01*
X136614712Y-121363484D01*
X136545069Y-121334834D01*
X136532917Y-121332184D01*
X136490499Y-121357913D01*
X136409601Y-121420861D01*
X136368535Y-121455259D01*
X136283440Y-121534276D01*
X136255497Y-121586451D01*
X136274890Y-121634446D01*
X136285257Y-121647570D01*
X136355469Y-121705008D01*
X136471326Y-121774813D01*
X136552131Y-121815564D01*
X136781499Y-121887362D01*
X137035436Y-121910625D01*
X137275926Y-121883059D01*
X137343279Y-121863321D01*
X137551738Y-121751612D01*
X137706254Y-121579721D01*
X137807722Y-121345979D01*
X137857035Y-121048716D01*
X137862449Y-120893279D01*
X137846641Y-120666973D01*
X137447377Y-120666973D01*
X137408760Y-120683702D01*
X137304958Y-120696829D01*
X137154044Y-120704575D01*
X137051803Y-120705902D01*
X136867899Y-120704623D01*
X136751826Y-120698638D01*
X136688148Y-120684724D01*
X136661433Y-120659655D01*
X136656230Y-120623280D01*
X136691927Y-120511229D01*
X136781804Y-120400488D01*
X136900034Y-120315489D01*
X137018310Y-120280718D01*
X137178956Y-120311563D01*
X137318022Y-120400732D01*
X137414443Y-120529263D01*
X137447377Y-120666973D01*
X137846641Y-120666973D01*
X137839428Y-120563733D01*
X137768376Y-120301175D01*
X137647790Y-120103525D01*
X137476166Y-119968702D01*
X137252002Y-119894626D01*
X137130562Y-119880360D01*
X136879158Y-119883999D01*
G37*
X136879158Y-119883999D02*
X136680124Y-119935746D01*
X136513439Y-120042544D01*
X136432731Y-120122326D01*
X136300432Y-120310931D01*
X136224610Y-120529720D01*
X136198562Y-120798668D01*
X136198429Y-120820410D01*
X136198197Y-121039017D01*
X137456405Y-121039017D01*
X137429585Y-121153525D01*
X137381159Y-121257232D01*
X137296404Y-121365290D01*
X137278677Y-121382541D01*
X137126320Y-121475904D01*
X136952576Y-121491738D01*
X136752589Y-121430313D01*
X136718689Y-121413771D01*
X136614712Y-121363484D01*
X136545069Y-121334834D01*
X136532917Y-121332184D01*
X136490499Y-121357913D01*
X136409601Y-121420861D01*
X136368535Y-121455259D01*
X136283440Y-121534276D01*
X136255497Y-121586451D01*
X136274890Y-121634446D01*
X136285257Y-121647570D01*
X136355469Y-121705008D01*
X136471326Y-121774813D01*
X136552131Y-121815564D01*
X136781499Y-121887362D01*
X137035436Y-121910625D01*
X137275926Y-121883059D01*
X137343279Y-121863321D01*
X137551738Y-121751612D01*
X137706254Y-121579721D01*
X137807722Y-121345979D01*
X137857035Y-121048716D01*
X137862449Y-120893279D01*
X137846641Y-120666973D01*
X137447377Y-120666973D01*
X137408760Y-120683702D01*
X137304958Y-120696829D01*
X137154044Y-120704575D01*
X137051803Y-120705902D01*
X136867899Y-120704623D01*
X136751826Y-120698638D01*
X136688148Y-120684724D01*
X136661433Y-120659655D01*
X136656230Y-120623280D01*
X136691927Y-120511229D01*
X136781804Y-120400488D01*
X136900034Y-120315489D01*
X137018310Y-120280718D01*
X137178956Y-120311563D01*
X137318022Y-120400732D01*
X137414443Y-120529263D01*
X137447377Y-120666973D01*
X137846641Y-120666973D01*
X137839428Y-120563733D01*
X137768376Y-120301175D01*
X137647790Y-120103525D01*
X137476166Y-119968702D01*
X137252002Y-119894626D01*
X137130562Y-119880360D01*
X136879158Y-119883999D01*
G36*
X152015390Y-116771802D02*
G01*
X151797553Y-116868108D01*
X151632184Y-117028919D01*
X151519043Y-117254482D01*
X151457888Y-117545042D01*
X151453505Y-117590408D01*
X151450070Y-117910256D01*
X151494602Y-118190614D01*
X151584391Y-118417847D01*
X151632471Y-118490941D01*
X151799945Y-118645643D01*
X152013232Y-118745838D01*
X152251846Y-118787418D01*
X152495303Y-118766272D01*
X152680370Y-118701145D01*
X152839521Y-118591393D01*
X152969596Y-118447496D01*
X152971846Y-118444130D01*
X153024670Y-118355314D01*
X153058999Y-118266005D01*
X153079788Y-118153294D01*
X153091991Y-117994273D01*
X153097367Y-117863868D01*
X153099605Y-117745611D01*
X152683294Y-117745611D01*
X152679225Y-117863335D01*
X152664455Y-118020049D01*
X152638398Y-118120621D01*
X152591407Y-118192173D01*
X152547397Y-118233971D01*
X152391377Y-118321484D01*
X152228131Y-118333179D01*
X152076096Y-118270212D01*
X152000080Y-118199653D01*
X151945303Y-118128550D01*
X151913263Y-118060512D01*
X151899200Y-117971967D01*
X151898358Y-117839339D01*
X151902691Y-117717195D01*
X151912011Y-117542710D01*
X151926788Y-117429538D01*
X151953420Y-117355721D01*
X151998309Y-117299298D01*
X152033880Y-117267050D01*
X152182671Y-117182340D01*
X152343187Y-117178117D01*
X152477780Y-117228292D01*
X152592600Y-117333075D01*
X152661004Y-117505198D01*
X152683294Y-117745611D01*
X153099605Y-117745611D01*
X153102276Y-117604548D01*
X153093893Y-117410610D01*
X153068772Y-117264745D01*
X153023468Y-117149641D01*
X152954536Y-117047986D01*
X152928978Y-117017802D01*
X152769175Y-116867412D01*
X152597769Y-116779566D01*
X152388151Y-116742762D01*
X152285936Y-116739754D01*
X152015390Y-116771802D01*
G37*
X152015390Y-116771802D02*
X151797553Y-116868108D01*
X151632184Y-117028919D01*
X151519043Y-117254482D01*
X151457888Y-117545042D01*
X151453505Y-117590408D01*
X151450070Y-117910256D01*
X151494602Y-118190614D01*
X151584391Y-118417847D01*
X151632471Y-118490941D01*
X151799945Y-118645643D01*
X152013232Y-118745838D01*
X152251846Y-118787418D01*
X152495303Y-118766272D01*
X152680370Y-118701145D01*
X152839521Y-118591393D01*
X152969596Y-118447496D01*
X152971846Y-118444130D01*
X153024670Y-118355314D01*
X153058999Y-118266005D01*
X153079788Y-118153294D01*
X153091991Y-117994273D01*
X153097367Y-117863868D01*
X153099605Y-117745611D01*
X152683294Y-117745611D01*
X152679225Y-117863335D01*
X152664455Y-118020049D01*
X152638398Y-118120621D01*
X152591407Y-118192173D01*
X152547397Y-118233971D01*
X152391377Y-118321484D01*
X152228131Y-118333179D01*
X152076096Y-118270212D01*
X152000080Y-118199653D01*
X151945303Y-118128550D01*
X151913263Y-118060512D01*
X151899200Y-117971967D01*
X151898358Y-117839339D01*
X151902691Y-117717195D01*
X151912011Y-117542710D01*
X151926788Y-117429538D01*
X151953420Y-117355721D01*
X151998309Y-117299298D01*
X152033880Y-117267050D01*
X152182671Y-117182340D01*
X152343187Y-117178117D01*
X152477780Y-117228292D01*
X152592600Y-117333075D01*
X152661004Y-117505198D01*
X152683294Y-117745611D01*
X153099605Y-117745611D01*
X153102276Y-117604548D01*
X153093893Y-117410610D01*
X153068772Y-117264745D01*
X153023468Y-117149641D01*
X152954536Y-117047986D01*
X152928978Y-117017802D01*
X152769175Y-116867412D01*
X152597769Y-116779566D01*
X152388151Y-116742762D01*
X152285936Y-116739754D01*
X152015390Y-116771802D01*
G36*
X148102675Y-116796526D02*
G01*
X148061181Y-116816061D01*
X147917566Y-116921263D01*
X147781764Y-117074793D01*
X147680362Y-117243845D01*
X147651520Y-117321567D01*
X147625206Y-117460398D01*
X147609515Y-117628177D01*
X147607609Y-117697459D01*
X147607377Y-117916066D01*
X148865585Y-117916066D01*
X148838766Y-118030574D01*
X148772934Y-118166004D01*
X148657839Y-118283046D01*
X148520913Y-118358442D01*
X148433658Y-118374098D01*
X148315328Y-118355099D01*
X148174149Y-118307446D01*
X148126189Y-118285521D01*
X147948829Y-118196944D01*
X147797470Y-118312391D01*
X147710131Y-118390474D01*
X147663658Y-118454922D01*
X147661305Y-118473837D01*
X147702822Y-118519681D01*
X147793810Y-118589349D01*
X147876395Y-118643700D01*
X148099249Y-118741405D01*
X148349087Y-118785628D01*
X148596710Y-118774130D01*
X148794098Y-118714029D01*
X148997576Y-118585284D01*
X149142179Y-118415774D01*
X149232639Y-118196462D01*
X149273689Y-117918309D01*
X149277329Y-117791034D01*
X149262761Y-117499375D01*
X149260972Y-117490891D01*
X148844059Y-117490891D01*
X148832577Y-117518242D01*
X148785384Y-117533324D01*
X148688049Y-117539788D01*
X148526136Y-117541285D01*
X148463790Y-117541312D01*
X148274103Y-117539052D01*
X148153811Y-117530844D01*
X148089116Y-117514550D01*
X148066220Y-117488027D01*
X148065410Y-117479510D01*
X148091540Y-117411825D01*
X148156937Y-117317005D01*
X148185052Y-117283805D01*
X148289426Y-117189906D01*
X148398225Y-117152988D01*
X148456843Y-117149902D01*
X148615426Y-117188493D01*
X148748413Y-117292155D01*
X148832772Y-117442717D01*
X148834267Y-117447623D01*
X148844059Y-117490891D01*
X149260972Y-117490891D01*
X149214316Y-117269722D01*
X149127045Y-117085983D01*
X149020311Y-116955557D01*
X148822980Y-116814131D01*
X148591015Y-116738556D01*
X148344288Y-116731724D01*
X148102675Y-116796526D01*
G37*
X148102675Y-116796526D02*
X148061181Y-116816061D01*
X147917566Y-116921263D01*
X147781764Y-117074793D01*
X147680362Y-117243845D01*
X147651520Y-117321567D01*
X147625206Y-117460398D01*
X147609515Y-117628177D01*
X147607609Y-117697459D01*
X147607377Y-117916066D01*
X148865585Y-117916066D01*
X148838766Y-118030574D01*
X148772934Y-118166004D01*
X148657839Y-118283046D01*
X148520913Y-118358442D01*
X148433658Y-118374098D01*
X148315328Y-118355099D01*
X148174149Y-118307446D01*
X148126189Y-118285521D01*
X147948829Y-118196944D01*
X147797470Y-118312391D01*
X147710131Y-118390474D01*
X147663658Y-118454922D01*
X147661305Y-118473837D01*
X147702822Y-118519681D01*
X147793810Y-118589349D01*
X147876395Y-118643700D01*
X148099249Y-118741405D01*
X148349087Y-118785628D01*
X148596710Y-118774130D01*
X148794098Y-118714029D01*
X148997576Y-118585284D01*
X149142179Y-118415774D01*
X149232639Y-118196462D01*
X149273689Y-117918309D01*
X149277329Y-117791034D01*
X149262761Y-117499375D01*
X149260972Y-117490891D01*
X148844059Y-117490891D01*
X148832577Y-117518242D01*
X148785384Y-117533324D01*
X148688049Y-117539788D01*
X148526136Y-117541285D01*
X148463790Y-117541312D01*
X148274103Y-117539052D01*
X148153811Y-117530844D01*
X148089116Y-117514550D01*
X148066220Y-117488027D01*
X148065410Y-117479510D01*
X148091540Y-117411825D01*
X148156937Y-117317005D01*
X148185052Y-117283805D01*
X148289426Y-117189906D01*
X148398225Y-117152988D01*
X148456843Y-117149902D01*
X148615426Y-117188493D01*
X148748413Y-117292155D01*
X148832772Y-117442717D01*
X148834267Y-117447623D01*
X148844059Y-117490891D01*
X149260972Y-117490891D01*
X149214316Y-117269722D01*
X149127045Y-117085983D01*
X149020311Y-116955557D01*
X148822980Y-116814131D01*
X148591015Y-116738556D01*
X148344288Y-116731724D01*
X148102675Y-116796526D01*
G36*
X143563582Y-116743003D02*
G01*
X143405900Y-116772907D01*
X143242315Y-116835452D01*
X143224836Y-116843426D01*
X143100783Y-116908656D01*
X143014871Y-116969274D01*
X142987102Y-117008106D01*
X143013547Y-117071437D01*
X143077780Y-117164881D01*
X143106292Y-117199762D01*
X143223789Y-117337066D01*
X143375268Y-117247691D01*
X143519430Y-117188152D01*
X143686000Y-117156326D01*
X143845738Y-117154316D01*
X143969406Y-117184221D01*
X143999084Y-117202886D01*
X144055602Y-117288466D01*
X144062471Y-117387049D01*
X144020180Y-117464062D01*
X143995164Y-117478998D01*
X143920204Y-117497547D01*
X143788439Y-117519348D01*
X143626009Y-117540180D01*
X143596044Y-117543447D01*
X143335160Y-117588575D01*
X143145945Y-117665230D01*
X143020457Y-117780491D01*
X142950757Y-117941435D01*
X142929044Y-118138015D01*
X142959039Y-118361473D01*
X143056441Y-118536949D01*
X143221639Y-118664758D01*
X143455023Y-118745218D01*
X143714098Y-118776962D01*
X143925367Y-118776580D01*
X144096735Y-118747749D01*
X144213770Y-118707944D01*
X144361650Y-118638587D01*
X144498313Y-118558097D01*
X144546885Y-118522670D01*
X144671803Y-118420705D01*
X144370491Y-118115813D01*
X144199204Y-118229165D01*
X144027406Y-118314300D01*
X143843952Y-118358830D01*
X143667603Y-118363528D01*
X143517119Y-118329170D01*
X143411260Y-118256529D01*
X143377079Y-118195238D01*
X143382206Y-118096941D01*
X143467143Y-118021773D01*
X143631657Y-117969866D01*
X143811899Y-117945875D01*
X144089291Y-117900104D01*
X144295365Y-117813748D01*
X144432878Y-117684280D01*
X144504587Y-117509172D01*
X144514521Y-117301565D01*
X144465452Y-117084714D01*
X144353580Y-116920805D01*
X144177903Y-116809088D01*
X143937419Y-116748814D01*
X143759257Y-116736999D01*
X143563582Y-116743003D01*
G37*
X143563582Y-116743003D02*
X143405900Y-116772907D01*
X143242315Y-116835452D01*
X143224836Y-116843426D01*
X143100783Y-116908656D01*
X143014871Y-116969274D01*
X142987102Y-117008106D01*
X143013547Y-117071437D01*
X143077780Y-117164881D01*
X143106292Y-117199762D01*
X143223789Y-117337066D01*
X143375268Y-117247691D01*
X143519430Y-117188152D01*
X143686000Y-117156326D01*
X143845738Y-117154316D01*
X143969406Y-117184221D01*
X143999084Y-117202886D01*
X144055602Y-117288466D01*
X144062471Y-117387049D01*
X144020180Y-117464062D01*
X143995164Y-117478998D01*
X143920204Y-117497547D01*
X143788439Y-117519348D01*
X143626009Y-117540180D01*
X143596044Y-117543447D01*
X143335160Y-117588575D01*
X143145945Y-117665230D01*
X143020457Y-117780491D01*
X142950757Y-117941435D01*
X142929044Y-118138015D01*
X142959039Y-118361473D01*
X143056441Y-118536949D01*
X143221639Y-118664758D01*
X143455023Y-118745218D01*
X143714098Y-118776962D01*
X143925367Y-118776580D01*
X144096735Y-118747749D01*
X144213770Y-118707944D01*
X144361650Y-118638587D01*
X144498313Y-118558097D01*
X144546885Y-118522670D01*
X144671803Y-118420705D01*
X144370491Y-118115813D01*
X144199204Y-118229165D01*
X144027406Y-118314300D01*
X143843952Y-118358830D01*
X143667603Y-118363528D01*
X143517119Y-118329170D01*
X143411260Y-118256529D01*
X143377079Y-118195238D01*
X143382206Y-118096941D01*
X143467143Y-118021773D01*
X143631657Y-117969866D01*
X143811899Y-117945875D01*
X144089291Y-117900104D01*
X144295365Y-117813748D01*
X144432878Y-117684280D01*
X144504587Y-117509172D01*
X144514521Y-117301565D01*
X144465452Y-117084714D01*
X144353580Y-116920805D01*
X144177903Y-116809088D01*
X143937419Y-116748814D01*
X143759257Y-116736999D01*
X143563582Y-116743003D01*
G36*
X141587479Y-116774805D02*
G01*
X141376864Y-116889505D01*
X141212085Y-117070574D01*
X141134446Y-117217838D01*
X141101114Y-117347907D01*
X141079517Y-117533333D01*
X141070261Y-117746939D01*
X141073955Y-117961550D01*
X141091206Y-118149991D01*
X141111357Y-118250637D01*
X141179333Y-118388323D01*
X141297058Y-118534566D01*
X141438935Y-118662452D01*
X141579368Y-118745063D01*
X141582793Y-118746373D01*
X141757055Y-118782472D01*
X141963573Y-118783365D01*
X142159826Y-118750501D01*
X142235604Y-118724161D01*
X142430779Y-118613484D01*
X142570562Y-118468478D01*
X142662401Y-118276503D01*
X142713746Y-118024920D01*
X142725363Y-117893142D01*
X142723881Y-117727553D01*
X142277541Y-117727553D01*
X142262506Y-117969177D01*
X142219228Y-118153303D01*
X142150449Y-118270949D01*
X142101450Y-118304590D01*
X141975907Y-118328050D01*
X141826682Y-118321104D01*
X141697667Y-118287345D01*
X141663834Y-118268772D01*
X141574572Y-118160599D01*
X141515655Y-117995051D01*
X141490576Y-117793581D01*
X141502826Y-117577646D01*
X141530204Y-117447690D01*
X141608809Y-117297191D01*
X141732896Y-117203114D01*
X141882339Y-117170587D01*
X142037013Y-117204738D01*
X142155826Y-117288273D01*
X142218265Y-117357193D01*
X142254707Y-117425126D01*
X142272077Y-117517064D01*
X142277301Y-117657999D01*
X142277541Y-117727553D01*
X142723881Y-117727553D01*
X142722215Y-117541495D01*
X142664944Y-117253134D01*
X142553543Y-117028049D01*
X142388007Y-116866230D01*
X142168330Y-116767666D01*
X142121158Y-116756236D01*
X141837664Y-116729406D01*
X141587479Y-116774805D01*
G37*
X141587479Y-116774805D02*
X141376864Y-116889505D01*
X141212085Y-117070574D01*
X141134446Y-117217838D01*
X141101114Y-117347907D01*
X141079517Y-117533333D01*
X141070261Y-117746939D01*
X141073955Y-117961550D01*
X141091206Y-118149991D01*
X141111357Y-118250637D01*
X141179333Y-118388323D01*
X141297058Y-118534566D01*
X141438935Y-118662452D01*
X141579368Y-118745063D01*
X141582793Y-118746373D01*
X141757055Y-118782472D01*
X141963573Y-118783365D01*
X142159826Y-118750501D01*
X142235604Y-118724161D01*
X142430779Y-118613484D01*
X142570562Y-118468478D01*
X142662401Y-118276503D01*
X142713746Y-118024920D01*
X142725363Y-117893142D01*
X142723881Y-117727553D01*
X142277541Y-117727553D01*
X142262506Y-117969177D01*
X142219228Y-118153303D01*
X142150449Y-118270949D01*
X142101450Y-118304590D01*
X141975907Y-118328050D01*
X141826682Y-118321104D01*
X141697667Y-118287345D01*
X141663834Y-118268772D01*
X141574572Y-118160599D01*
X141515655Y-117995051D01*
X141490576Y-117793581D01*
X141502826Y-117577646D01*
X141530204Y-117447690D01*
X141608809Y-117297191D01*
X141732896Y-117203114D01*
X141882339Y-117170587D01*
X142037013Y-117204738D01*
X142155826Y-117288273D01*
X142218265Y-117357193D01*
X142254707Y-117425126D01*
X142272077Y-117517064D01*
X142277301Y-117657999D01*
X142277541Y-117727553D01*
X142723881Y-117727553D01*
X142722215Y-117541495D01*
X142664944Y-117253134D01*
X142553543Y-117028049D01*
X142388007Y-116866230D01*
X142168330Y-116767666D01*
X142121158Y-116756236D01*
X141837664Y-116729406D01*
X141587479Y-116774805D01*
G36*
X140320492Y-117398311D02*
G01*
X140316556Y-117703698D01*
X140302177Y-117935660D01*
X140273496Y-118103786D01*
X140226652Y-118217671D01*
X140157789Y-118286905D01*
X140063046Y-118321080D01*
X139945738Y-118329811D01*
X139822877Y-118320028D01*
X139729556Y-118284287D01*
X139661916Y-118212995D01*
X139616099Y-118096561D01*
X139588245Y-117925391D01*
X139574496Y-117689896D01*
X139570984Y-117398311D01*
X139570984Y-116750164D01*
X139112951Y-116750164D01*
X139112951Y-118748853D01*
X139341967Y-118748853D01*
X139480029Y-118743258D01*
X139551122Y-118723611D01*
X139570984Y-118686313D01*
X139582946Y-118653094D01*
X139630553Y-118660121D01*
X139726515Y-118707132D01*
X139946452Y-118779654D01*
X140179726Y-118774516D01*
X140403245Y-118695766D01*
X140509687Y-118633558D01*
X140590878Y-118566204D01*
X140650192Y-118481928D01*
X140691004Y-118368957D01*
X140716688Y-118215515D01*
X140730619Y-118009827D01*
X140736171Y-117740118D01*
X140736885Y-117531551D01*
X140736885Y-116750164D01*
X140320492Y-116750164D01*
X140320492Y-117398311D01*
G37*
X140320492Y-117398311D02*
X140316556Y-117703698D01*
X140302177Y-117935660D01*
X140273496Y-118103786D01*
X140226652Y-118217671D01*
X140157789Y-118286905D01*
X140063046Y-118321080D01*
X139945738Y-118329811D01*
X139822877Y-118320028D01*
X139729556Y-118284287D01*
X139661916Y-118212995D01*
X139616099Y-118096561D01*
X139588245Y-117925391D01*
X139574496Y-117689896D01*
X139570984Y-117398311D01*
X139570984Y-116750164D01*
X139112951Y-116750164D01*
X139112951Y-118748853D01*
X139341967Y-118748853D01*
X139480029Y-118743258D01*
X139551122Y-118723611D01*
X139570984Y-118686313D01*
X139582946Y-118653094D01*
X139630553Y-118660121D01*
X139726515Y-118707132D01*
X139946452Y-118779654D01*
X140179726Y-118774516D01*
X140403245Y-118695766D01*
X140509687Y-118633558D01*
X140590878Y-118566204D01*
X140650192Y-118481928D01*
X140691004Y-118368957D01*
X140716688Y-118215515D01*
X140730619Y-118009827D01*
X140736171Y-117740118D01*
X140736885Y-117531551D01*
X140736885Y-116750164D01*
X140320492Y-116750164D01*
X140320492Y-117398311D01*
G36*
X136267712Y-116767602D02*
G01*
X136026457Y-116870090D01*
X135950469Y-116919981D01*
X135853352Y-116996651D01*
X135792388Y-117056936D01*
X135781803Y-117076571D01*
X135811692Y-117120142D01*
X135888181Y-117194077D01*
X135949418Y-117245679D01*
X136117033Y-117380378D01*
X136249386Y-117269010D01*
X136351664Y-117197113D01*
X136451390Y-117172296D01*
X136565525Y-117178357D01*
X136746766Y-117223418D01*
X136871525Y-117316949D01*
X136947342Y-117468154D01*
X136981760Y-117686236D01*
X136981769Y-117686373D01*
X136978792Y-117930124D01*
X136932533Y-118108966D01*
X136840258Y-118230730D01*
X136777350Y-118271964D01*
X136610283Y-118323311D01*
X136431838Y-118323342D01*
X136276585Y-118273522D01*
X136239836Y-118249180D01*
X136147670Y-118187004D01*
X136075613Y-118176813D01*
X135997898Y-118223092D01*
X135911982Y-118306212D01*
X135775989Y-118446521D01*
X135926977Y-118570978D01*
X136160260Y-118711443D01*
X136423327Y-118780666D01*
X136698240Y-118775653D01*
X136878784Y-118729755D01*
X137089806Y-118616249D01*
X137258574Y-118437685D01*
X137335247Y-118311639D01*
X137397346Y-118130791D01*
X137428419Y-117901745D01*
X137428658Y-117653510D01*
X137398257Y-117415093D01*
X137337408Y-117215503D01*
X137327824Y-117195039D01*
X137185898Y-116994341D01*
X136993741Y-116848217D01*
X136766536Y-116759698D01*
X136519465Y-116731815D01*
X136267712Y-116767602D01*
G37*
X136267712Y-116767602D02*
X136026457Y-116870090D01*
X135950469Y-116919981D01*
X135853352Y-116996651D01*
X135792388Y-117056936D01*
X135781803Y-117076571D01*
X135811692Y-117120142D01*
X135888181Y-117194077D01*
X135949418Y-117245679D01*
X136117033Y-117380378D01*
X136249386Y-117269010D01*
X136351664Y-117197113D01*
X136451390Y-117172296D01*
X136565525Y-117178357D01*
X136746766Y-117223418D01*
X136871525Y-117316949D01*
X136947342Y-117468154D01*
X136981760Y-117686236D01*
X136981769Y-117686373D01*
X136978792Y-117930124D01*
X136932533Y-118108966D01*
X136840258Y-118230730D01*
X136777350Y-118271964D01*
X136610283Y-118323311D01*
X136431838Y-118323342D01*
X136276585Y-118273522D01*
X136239836Y-118249180D01*
X136147670Y-118187004D01*
X136075613Y-118176813D01*
X135997898Y-118223092D01*
X135911982Y-118306212D01*
X135775989Y-118446521D01*
X135926977Y-118570978D01*
X136160260Y-118711443D01*
X136423327Y-118780666D01*
X136698240Y-118775653D01*
X136878784Y-118729755D01*
X137089806Y-118616249D01*
X137258574Y-118437685D01*
X137335247Y-118311639D01*
X137397346Y-118130791D01*
X137428419Y-117901745D01*
X137428658Y-117653510D01*
X137398257Y-117415093D01*
X137337408Y-117215503D01*
X137327824Y-117195039D01*
X137185898Y-116994341D01*
X136993741Y-116848217D01*
X136766536Y-116759698D01*
X136519465Y-116731815D01*
X136267712Y-116767602D01*
G36*
X134742208Y-116743019D02*
G01*
X134635586Y-116768922D01*
X134431170Y-116863772D01*
X134256375Y-117008633D01*
X134135403Y-117182320D01*
X134118783Y-117221317D01*
X134095984Y-117323465D01*
X134080025Y-117474573D01*
X134074590Y-117627301D01*
X134074590Y-117916066D01*
X134678361Y-117916066D01*
X134927381Y-117917007D01*
X135102811Y-117922723D01*
X135214335Y-117937550D01*
X135271640Y-117965827D01*
X135284412Y-118011890D01*
X135262338Y-118080077D01*
X135222795Y-118159863D01*
X135112491Y-118293017D01*
X134959208Y-118359355D01*
X134771859Y-118357194D01*
X134559637Y-118284991D01*
X134376227Y-118195883D01*
X134224038Y-118316220D01*
X134071849Y-118436558D01*
X134215026Y-118568843D01*
X134406172Y-118693832D01*
X134641247Y-118769189D01*
X134894102Y-118790278D01*
X135138587Y-118752460D01*
X135178033Y-118739628D01*
X135392910Y-118627414D01*
X135552750Y-118460118D01*
X135660920Y-118232748D01*
X135720790Y-117940308D01*
X135721487Y-117934040D01*
X135726848Y-117615332D01*
X135705177Y-117501632D01*
X135282131Y-117501632D01*
X135243278Y-117519116D01*
X135137795Y-117532508D01*
X134982293Y-117540155D01*
X134883751Y-117541312D01*
X134699987Y-117540588D01*
X134585086Y-117535983D01*
X134524634Y-117523848D01*
X134504217Y-117500530D01*
X134509419Y-117462382D01*
X134513783Y-117447623D01*
X134588276Y-117308944D01*
X134705434Y-117197179D01*
X134808827Y-117148066D01*
X134946184Y-117151032D01*
X135085371Y-117212278D01*
X135202126Y-117313683D01*
X135272190Y-117437122D01*
X135282131Y-117501632D01*
X135705177Y-117501632D01*
X135673421Y-117335020D01*
X135567428Y-117099780D01*
X135415089Y-116916284D01*
X135222626Y-116791209D01*
X134996258Y-116731229D01*
X134742208Y-116743019D01*
G37*
X134742208Y-116743019D02*
X134635586Y-116768922D01*
X134431170Y-116863772D01*
X134256375Y-117008633D01*
X134135403Y-117182320D01*
X134118783Y-117221317D01*
X134095984Y-117323465D01*
X134080025Y-117474573D01*
X134074590Y-117627301D01*
X134074590Y-117916066D01*
X134678361Y-117916066D01*
X134927381Y-117917007D01*
X135102811Y-117922723D01*
X135214335Y-117937550D01*
X135271640Y-117965827D01*
X135284412Y-118011890D01*
X135262338Y-118080077D01*
X135222795Y-118159863D01*
X135112491Y-118293017D01*
X134959208Y-118359355D01*
X134771859Y-118357194D01*
X134559637Y-118284991D01*
X134376227Y-118195883D01*
X134224038Y-118316220D01*
X134071849Y-118436558D01*
X134215026Y-118568843D01*
X134406172Y-118693832D01*
X134641247Y-118769189D01*
X134894102Y-118790278D01*
X135138587Y-118752460D01*
X135178033Y-118739628D01*
X135392910Y-118627414D01*
X135552750Y-118460118D01*
X135660920Y-118232748D01*
X135720790Y-117940308D01*
X135721487Y-117934040D01*
X135726848Y-117615332D01*
X135705177Y-117501632D01*
X135282131Y-117501632D01*
X135243278Y-117519116D01*
X135137795Y-117532508D01*
X134982293Y-117540155D01*
X134883751Y-117541312D01*
X134699987Y-117540588D01*
X134585086Y-117535983D01*
X134524634Y-117523848D01*
X134504217Y-117500530D01*
X134509419Y-117462382D01*
X134513783Y-117447623D01*
X134588276Y-117308944D01*
X134705434Y-117197179D01*
X134808827Y-117148066D01*
X134946184Y-117151032D01*
X135085371Y-117212278D01*
X135202126Y-117313683D01*
X135272190Y-117437122D01*
X135282131Y-117501632D01*
X135705177Y-117501632D01*
X135673421Y-117335020D01*
X135567428Y-117099780D01*
X135415089Y-116916284D01*
X135222626Y-116791209D01*
X134996258Y-116731229D01*
X134742208Y-116743019D01*
G36*
X146106892Y-116784563D02*
G01*
X146003260Y-116834062D01*
X145902894Y-116905561D01*
X145826432Y-116987853D01*
X145770738Y-117092811D01*
X145732677Y-117232313D01*
X145709115Y-117418233D01*
X145696915Y-117662448D01*
X145692944Y-117976833D01*
X145692882Y-118009754D01*
X145691967Y-118748853D01*
X146150000Y-118748853D01*
X146150000Y-118067481D01*
X146150326Y-117815050D01*
X146152581Y-117632093D01*
X146158681Y-117504807D01*
X146170541Y-117419386D01*
X146190076Y-117362026D01*
X146219203Y-117318924D01*
X146259776Y-117276334D01*
X146401731Y-117184824D01*
X146556694Y-117167843D01*
X146704323Y-117225701D01*
X146755663Y-117268763D01*
X146793353Y-117309249D01*
X146820413Y-117352607D01*
X146838603Y-117412463D01*
X146849684Y-117502441D01*
X146855414Y-117636168D01*
X146857556Y-117827270D01*
X146857869Y-118059911D01*
X146857869Y-118748853D01*
X147315902Y-118748853D01*
X147315902Y-116750164D01*
X147086885Y-116750164D01*
X146949386Y-116755602D01*
X146878447Y-116774909D01*
X146857878Y-116812576D01*
X146857869Y-116813692D01*
X146848325Y-116850581D01*
X146806233Y-116846395D01*
X146722541Y-116805861D01*
X146532727Y-116746224D01*
X146315599Y-116739591D01*
X146106892Y-116784563D01*
G37*
X146106892Y-116784563D02*
X146003260Y-116834062D01*
X145902894Y-116905561D01*
X145826432Y-116987853D01*
X145770738Y-117092811D01*
X145732677Y-117232313D01*
X145709115Y-117418233D01*
X145696915Y-117662448D01*
X145692944Y-117976833D01*
X145692882Y-118009754D01*
X145691967Y-118748853D01*
X146150000Y-118748853D01*
X146150000Y-118067481D01*
X146150326Y-117815050D01*
X146152581Y-117632093D01*
X146158681Y-117504807D01*
X146170541Y-117419386D01*
X146190076Y-117362026D01*
X146219203Y-117318924D01*
X146259776Y-117276334D01*
X146401731Y-117184824D01*
X146556694Y-117167843D01*
X146704323Y-117225701D01*
X146755663Y-117268763D01*
X146793353Y-117309249D01*
X146820413Y-117352607D01*
X146838603Y-117412463D01*
X146849684Y-117502441D01*
X146855414Y-117636168D01*
X146857556Y-117827270D01*
X146857869Y-118059911D01*
X146857869Y-118748853D01*
X147315902Y-118748853D01*
X147315902Y-116750164D01*
X147086885Y-116750164D01*
X146949386Y-116755602D01*
X146878447Y-116774909D01*
X146857878Y-116812576D01*
X146857869Y-116813692D01*
X146848325Y-116850581D01*
X146806233Y-116846395D01*
X146722541Y-116805861D01*
X146532727Y-116746224D01*
X146315599Y-116739591D01*
X146106892Y-116784563D01*
G36*
X137651131Y-116748231D02*
G01*
X137507908Y-116791989D01*
X137415694Y-116847280D01*
X137385656Y-116891004D01*
X137393924Y-116942834D01*
X137447573Y-117024259D01*
X137492937Y-117081927D01*
X137586454Y-117186182D01*
X137656713Y-117230045D01*
X137716607Y-117227182D01*
X137894280Y-117181967D01*
X138024766Y-117184020D01*
X138130727Y-117235261D01*
X138166300Y-117265252D01*
X138280164Y-117370778D01*
X138280164Y-118748853D01*
X138738197Y-118748853D01*
X138738197Y-116750164D01*
X138509180Y-116750164D01*
X138371682Y-116755602D01*
X138300742Y-116774909D01*
X138280173Y-116812576D01*
X138280164Y-116813692D01*
X138270450Y-116853146D01*
X138226522Y-116848000D01*
X138165656Y-116819536D01*
X138039946Y-116766569D01*
X137937866Y-116734703D01*
X137806520Y-116726533D01*
X137651131Y-116748231D01*
G37*
X137651131Y-116748231D02*
X137507908Y-116791989D01*
X137415694Y-116847280D01*
X137385656Y-116891004D01*
X137393924Y-116942834D01*
X137447573Y-117024259D01*
X137492937Y-117081927D01*
X137586454Y-117186182D01*
X137656713Y-117230045D01*
X137716607Y-117227182D01*
X137894280Y-117181967D01*
X138024766Y-117184020D01*
X138130727Y-117235261D01*
X138166300Y-117265252D01*
X138280164Y-117370778D01*
X138280164Y-118748853D01*
X138738197Y-118748853D01*
X138738197Y-116750164D01*
X138509180Y-116750164D01*
X138371682Y-116755602D01*
X138300742Y-116774909D01*
X138280173Y-116812576D01*
X138280164Y-116813692D01*
X138270450Y-116853146D01*
X138226522Y-116848000D01*
X138165656Y-116819536D01*
X138039946Y-116766569D01*
X137937866Y-116734703D01*
X137806520Y-116726533D01*
X137651131Y-116748231D01*
G36*
X142361695Y-102945960D02*
G01*
X142173443Y-103944542D01*
X141478817Y-104230889D01*
X140784192Y-104517237D01*
X139950872Y-103950586D01*
X139717499Y-103792811D01*
X139506543Y-103651939D01*
X139327847Y-103534401D01*
X139191256Y-103446629D01*
X139106614Y-103395055D01*
X139083563Y-103383935D01*
X139042037Y-103412535D01*
X138953302Y-103491604D01*
X138827303Y-103611041D01*
X138673986Y-103760744D01*
X138503298Y-103930615D01*
X138325186Y-104110551D01*
X138149594Y-104290454D01*
X137986470Y-104460222D01*
X137845759Y-104609754D01*
X137737408Y-104728952D01*
X137671363Y-104807713D01*
X137655574Y-104834072D01*
X137678297Y-104882666D01*
X137742001Y-104989126D01*
X137839987Y-105143039D01*
X137965559Y-105333991D01*
X138112018Y-105551569D01*
X138196885Y-105675671D01*
X138351574Y-105902279D01*
X138489030Y-106106770D01*
X138602586Y-106278965D01*
X138685572Y-106408685D01*
X138731322Y-106485751D01*
X138738197Y-106501947D01*
X138722612Y-106547975D01*
X138680132Y-106655250D01*
X138617165Y-106808687D01*
X138540121Y-106993206D01*
X138455410Y-107193721D01*
X138369442Y-107395152D01*
X138288627Y-107582415D01*
X138219373Y-107740428D01*
X138168092Y-107854107D01*
X138141191Y-107908370D01*
X138139604Y-107910506D01*
X138097365Y-107920867D01*
X137984874Y-107943982D01*
X137813791Y-107977579D01*
X137595777Y-108019385D01*
X137342491Y-108067127D01*
X137194712Y-108094659D01*
X136924062Y-108146190D01*
X136679603Y-108195225D01*
X136473700Y-108239081D01*
X136318723Y-108275074D01*
X136227038Y-108300521D01*
X136208607Y-108308595D01*
X136190555Y-108363242D01*
X136175990Y-108486662D01*
X136164902Y-108664423D01*
X136157281Y-108882091D01*
X136153116Y-109125235D01*
X136152398Y-109379423D01*
X136155118Y-109630220D01*
X136161265Y-109863196D01*
X136170829Y-110063918D01*
X136183801Y-110217954D01*
X136200171Y-110310870D01*
X136209989Y-110330213D01*
X136268677Y-110353398D01*
X136393034Y-110386544D01*
X136566610Y-110425758D01*
X136772958Y-110467145D01*
X136844989Y-110480534D01*
X137192281Y-110544147D01*
X137466617Y-110595378D01*
X137677061Y-110636261D01*
X137832678Y-110668834D01*
X137942533Y-110695132D01*
X138015689Y-110717192D01*
X138061213Y-110737049D01*
X138088167Y-110756741D01*
X138091939Y-110760632D01*
X138129585Y-110823324D01*
X138187014Y-110945331D01*
X138258492Y-111111712D01*
X138338285Y-111307529D01*
X138420657Y-111517840D01*
X138499875Y-111727708D01*
X138570204Y-111922191D01*
X138625911Y-112086350D01*
X138661259Y-112205245D01*
X138670516Y-112263936D01*
X138669744Y-112265992D01*
X138638380Y-112313964D01*
X138567226Y-112419516D01*
X138463760Y-112571660D01*
X138335460Y-112759410D01*
X138189801Y-112971780D01*
X138148320Y-113032130D01*
X138000413Y-113250929D01*
X137870261Y-113450562D01*
X137764955Y-113619565D01*
X137691584Y-113746475D01*
X137657237Y-113819829D01*
X137655574Y-113828841D01*
X137684431Y-113876207D01*
X137764169Y-113970042D01*
X137884538Y-114100261D01*
X138035287Y-114256779D01*
X138206164Y-114429510D01*
X138386921Y-114608371D01*
X138567306Y-114783276D01*
X138737068Y-114944140D01*
X138885958Y-115080878D01*
X139003724Y-115183407D01*
X139080117Y-115241640D01*
X139101250Y-115251148D01*
X139150440Y-115228754D01*
X139251153Y-115168356D01*
X139386983Y-115080129D01*
X139491490Y-115009115D01*
X139680851Y-114878811D01*
X139905101Y-114725384D01*
X140130036Y-114572201D01*
X140250968Y-114490218D01*
X140660296Y-114213353D01*
X141003898Y-114399136D01*
X141160435Y-114480523D01*
X141293546Y-114543784D01*
X141383611Y-114579865D01*
X141406537Y-114584885D01*
X141434105Y-114547817D01*
X141488492Y-114443069D01*
X141565637Y-114280303D01*
X141661482Y-114069181D01*
X141771966Y-113819365D01*
X141893029Y-113540517D01*
X142020611Y-113242299D01*
X142150653Y-112934374D01*
X142279094Y-112626404D01*
X142401874Y-112328050D01*
X142514933Y-112048975D01*
X142614212Y-111798841D01*
X142695651Y-111587310D01*
X142755189Y-111424043D01*
X142788766Y-111318705D01*
X142794166Y-111282527D01*
X142751366Y-111236381D01*
X142657656Y-111161472D01*
X142532627Y-111073364D01*
X142522133Y-111066394D01*
X142198980Y-110807721D01*
X141938413Y-110505938D01*
X141742690Y-110170695D01*
X141614068Y-109811642D01*
X141554805Y-109438426D01*
X141567161Y-109060700D01*
X141653393Y-108688111D01*
X141815759Y-108330310D01*
X141863528Y-108252027D01*
X142111991Y-107935919D01*
X142405519Y-107682079D01*
X142733953Y-107491827D01*
X143087135Y-107366485D01*
X143454905Y-107307372D01*
X143827103Y-107315807D01*
X144193571Y-107393112D01*
X144544149Y-107540606D01*
X144868677Y-107759610D01*
X144969064Y-107848498D01*
X145224551Y-108126744D01*
X145410722Y-108419656D01*
X145538430Y-108747986D01*
X145609556Y-109073133D01*
X145627114Y-109438702D01*
X145568566Y-109806086D01*
X145439858Y-110162866D01*
X145246938Y-110496626D01*
X144995752Y-110794947D01*
X144692248Y-111045411D01*
X144652360Y-111071813D01*
X144525991Y-111158272D01*
X144429927Y-111233184D01*
X144384000Y-111281015D01*
X144383332Y-111282527D01*
X144393192Y-111334267D01*
X144432278Y-111451696D01*
X144496528Y-111625154D01*
X144581880Y-111844979D01*
X144684273Y-112101513D01*
X144799646Y-112385096D01*
X144923937Y-112686067D01*
X145053084Y-112994767D01*
X145183026Y-113301536D01*
X145309702Y-113596714D01*
X145429049Y-113870640D01*
X145537006Y-114113656D01*
X145629512Y-114316101D01*
X145702504Y-114468315D01*
X145751923Y-114560638D01*
X145771823Y-114584885D01*
X145832634Y-114566004D01*
X145946418Y-114515364D01*
X146093555Y-114442017D01*
X146174462Y-114399136D01*
X146518065Y-114213353D01*
X146927393Y-114490218D01*
X147136346Y-114632054D01*
X147365113Y-114788141D01*
X147579491Y-114935109D01*
X147686871Y-115009115D01*
X147837898Y-115110531D01*
X147965782Y-115190898D01*
X148053842Y-115240041D01*
X148082445Y-115250429D01*
X148124076Y-115222405D01*
X148216211Y-115144172D01*
X148349918Y-115023852D01*
X148516265Y-114869568D01*
X148706320Y-114689443D01*
X148826521Y-114573790D01*
X149036815Y-114367167D01*
X149218556Y-114182358D01*
X149364397Y-114027270D01*
X149466991Y-113909807D01*
X149518991Y-113837875D01*
X149523980Y-113823278D01*
X149500829Y-113767753D01*
X149436854Y-113655484D01*
X149339153Y-113497837D01*
X149214820Y-113306179D01*
X149070954Y-113091876D01*
X149030041Y-113032130D01*
X148880967Y-112814982D01*
X148747225Y-112619475D01*
X148636291Y-112456599D01*
X148555644Y-112337337D01*
X148512759Y-112272678D01*
X148508617Y-112265992D01*
X148514812Y-112214462D01*
X148547700Y-112101166D01*
X148601545Y-111941042D01*
X148670613Y-111749032D01*
X148749169Y-111540074D01*
X148831480Y-111329109D01*
X148911811Y-111131076D01*
X148984428Y-110960916D01*
X149043595Y-110833567D01*
X149083580Y-110763971D01*
X149086422Y-110760632D01*
X149110873Y-110740742D01*
X149152169Y-110721073D01*
X149219377Y-110699589D01*
X149321559Y-110674253D01*
X149467781Y-110643029D01*
X149667107Y-110603882D01*
X149928603Y-110554775D01*
X150261331Y-110493672D01*
X150333372Y-110480534D01*
X150546885Y-110439282D01*
X150733022Y-110398926D01*
X150875334Y-110363361D01*
X150957371Y-110336480D01*
X150968372Y-110330213D01*
X150986498Y-110274654D01*
X151001233Y-110150495D01*
X151012564Y-109972169D01*
X151020484Y-109754109D01*
X151024981Y-109510746D01*
X151026046Y-109256514D01*
X151023670Y-109005845D01*
X151017841Y-108773171D01*
X151008551Y-108572924D01*
X150995789Y-108419538D01*
X150979546Y-108327444D01*
X150969754Y-108308595D01*
X150915239Y-108289582D01*
X150791104Y-108258650D01*
X150609715Y-108218482D01*
X150383440Y-108171762D01*
X150124647Y-108121173D01*
X149983649Y-108094659D01*
X149716127Y-108044650D01*
X149477562Y-107999346D01*
X149279614Y-107961021D01*
X149133943Y-107931947D01*
X149052209Y-107914397D01*
X149038757Y-107910506D01*
X149016021Y-107866638D01*
X148967960Y-107760976D01*
X148900981Y-107608613D01*
X148821490Y-107424646D01*
X148735892Y-107224170D01*
X148650595Y-107022281D01*
X148572005Y-106834073D01*
X148506527Y-106674642D01*
X148460569Y-106559084D01*
X148440537Y-106502494D01*
X148440164Y-106500021D01*
X148462874Y-106455379D01*
X148526541Y-106352647D01*
X148624475Y-106202037D01*
X148749983Y-106013757D01*
X148896374Y-105798018D01*
X148981475Y-105674098D01*
X149136545Y-105446883D01*
X149274275Y-105240595D01*
X149387947Y-105065671D01*
X149470839Y-104932545D01*
X149516231Y-104851653D01*
X149522787Y-104833520D01*
X149494605Y-104791312D01*
X149416696Y-104701191D01*
X149299010Y-104573254D01*
X149151500Y-104417596D01*
X148984119Y-104244315D01*
X148806819Y-104063507D01*
X148629552Y-103885267D01*
X148462270Y-103719693D01*
X148314925Y-103576880D01*
X148197470Y-103466925D01*
X148119857Y-103399924D01*
X148093892Y-103383935D01*
X148051616Y-103406419D01*
X147950499Y-103469585D01*
X147800373Y-103567003D01*
X147611070Y-103692243D01*
X147392421Y-103838875D01*
X147227489Y-103950586D01*
X146394169Y-104517237D01*
X145699544Y-104230889D01*
X145004918Y-103944542D01*
X144816666Y-102945960D01*
X144628413Y-101947377D01*
X142549948Y-101947377D01*
X142361695Y-102945960D01*
G37*
X142361695Y-102945960D02*
X142173443Y-103944542D01*
X141478817Y-104230889D01*
X140784192Y-104517237D01*
X139950872Y-103950586D01*
X139717499Y-103792811D01*
X139506543Y-103651939D01*
X139327847Y-103534401D01*
X139191256Y-103446629D01*
X139106614Y-103395055D01*
X139083563Y-103383935D01*
X139042037Y-103412535D01*
X138953302Y-103491604D01*
X138827303Y-103611041D01*
X138673986Y-103760744D01*
X138503298Y-103930615D01*
X138325186Y-104110551D01*
X138149594Y-104290454D01*
X137986470Y-104460222D01*
X137845759Y-104609754D01*
X137737408Y-104728952D01*
X137671363Y-104807713D01*
X137655574Y-104834072D01*
X137678297Y-104882666D01*
X137742001Y-104989126D01*
X137839987Y-105143039D01*
X137965559Y-105333991D01*
X138112018Y-105551569D01*
X138196885Y-105675671D01*
X138351574Y-105902279D01*
X138489030Y-106106770D01*
X138602586Y-106278965D01*
X138685572Y-106408685D01*
X138731322Y-106485751D01*
X138738197Y-106501947D01*
X138722612Y-106547975D01*
X138680132Y-106655250D01*
X138617165Y-106808687D01*
X138540121Y-106993206D01*
X138455410Y-107193721D01*
X138369442Y-107395152D01*
X138288627Y-107582415D01*
X138219373Y-107740428D01*
X138168092Y-107854107D01*
X138141191Y-107908370D01*
X138139604Y-107910506D01*
X138097365Y-107920867D01*
X137984874Y-107943982D01*
X137813791Y-107977579D01*
X137595777Y-108019385D01*
X137342491Y-108067127D01*
X137194712Y-108094659D01*
X136924062Y-108146190D01*
X136679603Y-108195225D01*
X136473700Y-108239081D01*
X136318723Y-108275074D01*
X136227038Y-108300521D01*
X136208607Y-108308595D01*
X136190555Y-108363242D01*
X136175990Y-108486662D01*
X136164902Y-108664423D01*
X136157281Y-108882091D01*
X136153116Y-109125235D01*
X136152398Y-109379423D01*
X136155118Y-109630220D01*
X136161265Y-109863196D01*
X136170829Y-110063918D01*
X136183801Y-110217954D01*
X136200171Y-110310870D01*
X136209989Y-110330213D01*
X136268677Y-110353398D01*
X136393034Y-110386544D01*
X136566610Y-110425758D01*
X136772958Y-110467145D01*
X136844989Y-110480534D01*
X137192281Y-110544147D01*
X137466617Y-110595378D01*
X137677061Y-110636261D01*
X137832678Y-110668834D01*
X137942533Y-110695132D01*
X138015689Y-110717192D01*
X138061213Y-110737049D01*
X138088167Y-110756741D01*
X138091939Y-110760632D01*
X138129585Y-110823324D01*
X138187014Y-110945331D01*
X138258492Y-111111712D01*
X138338285Y-111307529D01*
X138420657Y-111517840D01*
X138499875Y-111727708D01*
X138570204Y-111922191D01*
X138625911Y-112086350D01*
X138661259Y-112205245D01*
X138670516Y-112263936D01*
X138669744Y-112265992D01*
X138638380Y-112313964D01*
X138567226Y-112419516D01*
X138463760Y-112571660D01*
X138335460Y-112759410D01*
X138189801Y-112971780D01*
X138148320Y-113032130D01*
X138000413Y-113250929D01*
X137870261Y-113450562D01*
X137764955Y-113619565D01*
X137691584Y-113746475D01*
X137657237Y-113819829D01*
X137655574Y-113828841D01*
X137684431Y-113876207D01*
X137764169Y-113970042D01*
X137884538Y-114100261D01*
X138035287Y-114256779D01*
X138206164Y-114429510D01*
X138386921Y-114608371D01*
X138567306Y-114783276D01*
X138737068Y-114944140D01*
X138885958Y-115080878D01*
X139003724Y-115183407D01*
X139080117Y-115241640D01*
X139101250Y-115251148D01*
X139150440Y-115228754D01*
X139251153Y-115168356D01*
X139386983Y-115080129D01*
X139491490Y-115009115D01*
X139680851Y-114878811D01*
X139905101Y-114725384D01*
X140130036Y-114572201D01*
X140250968Y-114490218D01*
X140660296Y-114213353D01*
X141003898Y-114399136D01*
X141160435Y-114480523D01*
X141293546Y-114543784D01*
X141383611Y-114579865D01*
X141406537Y-114584885D01*
X141434105Y-114547817D01*
X141488492Y-114443069D01*
X141565637Y-114280303D01*
X141661482Y-114069181D01*
X141771966Y-113819365D01*
X141893029Y-113540517D01*
X142020611Y-113242299D01*
X142150653Y-112934374D01*
X142279094Y-112626404D01*
X142401874Y-112328050D01*
X142514933Y-112048975D01*
X142614212Y-111798841D01*
X142695651Y-111587310D01*
X142755189Y-111424043D01*
X142788766Y-111318705D01*
X142794166Y-111282527D01*
X142751366Y-111236381D01*
X142657656Y-111161472D01*
X142532627Y-111073364D01*
X142522133Y-111066394D01*
X142198980Y-110807721D01*
X141938413Y-110505938D01*
X141742690Y-110170695D01*
X141614068Y-109811642D01*
X141554805Y-109438426D01*
X141567161Y-109060700D01*
X141653393Y-108688111D01*
X141815759Y-108330310D01*
X141863528Y-108252027D01*
X142111991Y-107935919D01*
X142405519Y-107682079D01*
X142733953Y-107491827D01*
X143087135Y-107366485D01*
X143454905Y-107307372D01*
X143827103Y-107315807D01*
X144193571Y-107393112D01*
X144544149Y-107540606D01*
X144868677Y-107759610D01*
X144969064Y-107848498D01*
X145224551Y-108126744D01*
X145410722Y-108419656D01*
X145538430Y-108747986D01*
X145609556Y-109073133D01*
X145627114Y-109438702D01*
X145568566Y-109806086D01*
X145439858Y-110162866D01*
X145246938Y-110496626D01*
X144995752Y-110794947D01*
X144692248Y-111045411D01*
X144652360Y-111071813D01*
X144525991Y-111158272D01*
X144429927Y-111233184D01*
X144384000Y-111281015D01*
X144383332Y-111282527D01*
X144393192Y-111334267D01*
X144432278Y-111451696D01*
X144496528Y-111625154D01*
X144581880Y-111844979D01*
X144684273Y-112101513D01*
X144799646Y-112385096D01*
X144923937Y-112686067D01*
X145053084Y-112994767D01*
X145183026Y-113301536D01*
X145309702Y-113596714D01*
X145429049Y-113870640D01*
X145537006Y-114113656D01*
X145629512Y-114316101D01*
X145702504Y-114468315D01*
X145751923Y-114560638D01*
X145771823Y-114584885D01*
X145832634Y-114566004D01*
X145946418Y-114515364D01*
X146093555Y-114442017D01*
X146174462Y-114399136D01*
X146518065Y-114213353D01*
X146927393Y-114490218D01*
X147136346Y-114632054D01*
X147365113Y-114788141D01*
X147579491Y-114935109D01*
X147686871Y-115009115D01*
X147837898Y-115110531D01*
X147965782Y-115190898D01*
X148053842Y-115240041D01*
X148082445Y-115250429D01*
X148124076Y-115222405D01*
X148216211Y-115144172D01*
X148349918Y-115023852D01*
X148516265Y-114869568D01*
X148706320Y-114689443D01*
X148826521Y-114573790D01*
X149036815Y-114367167D01*
X149218556Y-114182358D01*
X149364397Y-114027270D01*
X149466991Y-113909807D01*
X149518991Y-113837875D01*
X149523980Y-113823278D01*
X149500829Y-113767753D01*
X149436854Y-113655484D01*
X149339153Y-113497837D01*
X149214820Y-113306179D01*
X149070954Y-113091876D01*
X149030041Y-113032130D01*
X148880967Y-112814982D01*
X148747225Y-112619475D01*
X148636291Y-112456599D01*
X148555644Y-112337337D01*
X148512759Y-112272678D01*
X148508617Y-112265992D01*
X148514812Y-112214462D01*
X148547700Y-112101166D01*
X148601545Y-111941042D01*
X148670613Y-111749032D01*
X148749169Y-111540074D01*
X148831480Y-111329109D01*
X148911811Y-111131076D01*
X148984428Y-110960916D01*
X149043595Y-110833567D01*
X149083580Y-110763971D01*
X149086422Y-110760632D01*
X149110873Y-110740742D01*
X149152169Y-110721073D01*
X149219377Y-110699589D01*
X149321559Y-110674253D01*
X149467781Y-110643029D01*
X149667107Y-110603882D01*
X149928603Y-110554775D01*
X150261331Y-110493672D01*
X150333372Y-110480534D01*
X150546885Y-110439282D01*
X150733022Y-110398926D01*
X150875334Y-110363361D01*
X150957371Y-110336480D01*
X150968372Y-110330213D01*
X150986498Y-110274654D01*
X151001233Y-110150495D01*
X151012564Y-109972169D01*
X151020484Y-109754109D01*
X151024981Y-109510746D01*
X151026046Y-109256514D01*
X151023670Y-109005845D01*
X151017841Y-108773171D01*
X151008551Y-108572924D01*
X150995789Y-108419538D01*
X150979546Y-108327444D01*
X150969754Y-108308595D01*
X150915239Y-108289582D01*
X150791104Y-108258650D01*
X150609715Y-108218482D01*
X150383440Y-108171762D01*
X150124647Y-108121173D01*
X149983649Y-108094659D01*
X149716127Y-108044650D01*
X149477562Y-107999346D01*
X149279614Y-107961021D01*
X149133943Y-107931947D01*
X149052209Y-107914397D01*
X149038757Y-107910506D01*
X149016021Y-107866638D01*
X148967960Y-107760976D01*
X148900981Y-107608613D01*
X148821490Y-107424646D01*
X148735892Y-107224170D01*
X148650595Y-107022281D01*
X148572005Y-106834073D01*
X148506527Y-106674642D01*
X148460569Y-106559084D01*
X148440537Y-106502494D01*
X148440164Y-106500021D01*
X148462874Y-106455379D01*
X148526541Y-106352647D01*
X148624475Y-106202037D01*
X148749983Y-106013757D01*
X148896374Y-105798018D01*
X148981475Y-105674098D01*
X149136545Y-105446883D01*
X149274275Y-105240595D01*
X149387947Y-105065671D01*
X149470839Y-104932545D01*
X149516231Y-104851653D01*
X149522787Y-104833520D01*
X149494605Y-104791312D01*
X149416696Y-104701191D01*
X149299010Y-104573254D01*
X149151500Y-104417596D01*
X148984119Y-104244315D01*
X148806819Y-104063507D01*
X148629552Y-103885267D01*
X148462270Y-103719693D01*
X148314925Y-103576880D01*
X148197470Y-103466925D01*
X148119857Y-103399924D01*
X148093892Y-103383935D01*
X148051616Y-103406419D01*
X147950499Y-103469585D01*
X147800373Y-103567003D01*
X147611070Y-103692243D01*
X147392421Y-103838875D01*
X147227489Y-103950586D01*
X146394169Y-104517237D01*
X145699544Y-104230889D01*
X145004918Y-103944542D01*
X144816666Y-102945960D01*
X144628413Y-101947377D01*
X142549948Y-101947377D01*
X142361695Y-102945960D01*
D11*
X167618960Y-119799980D02*
X168020280Y-119899040D01*
X168020280Y-119899040D02*
X168119340Y-120399420D01*
X165820640Y-124199260D02*
X165619980Y-124100200D01*
X165619980Y-124100200D02*
X165221200Y-123500760D01*
X165221200Y-123500760D02*
X165020540Y-123000380D01*
X165020540Y-123000380D02*
X164918940Y-122101220D01*
X164918940Y-122101220D02*
X165020540Y-121600840D01*
X168121880Y-120099700D02*
X168022820Y-119901580D01*
X172020780Y-120399420D02*
X172119840Y-120099700D01*
X171319740Y-124900300D02*
X171619460Y-124801240D01*
X171619460Y-124801240D02*
X171418800Y-124498980D01*
X168320000Y-127900040D02*
X167819620Y-127900040D01*
X167819620Y-127900040D02*
X167019520Y-127600320D01*
X167019520Y-127600320D02*
X166321020Y-127399660D01*
X166321020Y-127399660D02*
X165619980Y-127199000D01*
X165619980Y-127199000D02*
X165020540Y-126701160D01*
X165020540Y-126701160D02*
X164319500Y-126099180D01*
X164319500Y-126099180D02*
X163819120Y-125499740D01*
X163819120Y-125499740D02*
X163318740Y-124600580D01*
X163318740Y-124600580D02*
X163019020Y-123599820D01*
X163019020Y-123599820D02*
X162919960Y-122400940D01*
X162919960Y-122400940D02*
X163120620Y-121199520D01*
X163120620Y-121199520D02*
X163519400Y-120099700D01*
X163519400Y-120099700D02*
X164520160Y-118601100D01*
X164520160Y-118601100D02*
X165719040Y-117699400D01*
X165719040Y-117699400D02*
X167019520Y-117199020D01*
X167019520Y-117199020D02*
X168419060Y-117199020D01*
X168419060Y-117199020D02*
X169920200Y-117300620D01*
X169920200Y-117300620D02*
X170920960Y-117801000D01*
X170920960Y-117801000D02*
X172521160Y-119098940D01*
X172521160Y-119098940D02*
X173321260Y-120699140D01*
X173321260Y-120699140D02*
X173720040Y-122200280D01*
X173720040Y-122200280D02*
X173519380Y-123899540D01*
X173519380Y-123899540D02*
X173019000Y-124999360D01*
X173019000Y-124999360D02*
X171721060Y-126599560D01*
X171721060Y-126599560D02*
X170720300Y-127300600D01*
X170720300Y-127300600D02*
X169719540Y-127699380D01*
X169719540Y-127699380D02*
X168320000Y-127800980D01*
X168921980Y-123201040D02*
X168822920Y-122700660D01*
X168822920Y-122700660D02*
X168822920Y-122002160D01*
X168822920Y-122002160D02*
X168921980Y-121400180D01*
X168921980Y-121400180D02*
X169320760Y-120800740D01*
X169320760Y-120800740D02*
X169821140Y-120300360D01*
X169821140Y-120300360D02*
X170420580Y-120000640D01*
X170420580Y-120000640D02*
X170920960Y-119901580D01*
X170920960Y-119901580D02*
X171322280Y-119901580D01*
X171322280Y-119901580D02*
X171721060Y-119901580D01*
X171721060Y-119901580D02*
X172122380Y-120000640D01*
X172122380Y-120000640D02*
X172020780Y-120201300D01*
X172020780Y-120201300D02*
X171121620Y-120099700D01*
X171121620Y-120099700D02*
X170120860Y-120401960D01*
X170120860Y-120401960D02*
X169521420Y-120899800D01*
X169521420Y-120899800D02*
X169122640Y-121801500D01*
X169122640Y-121801500D02*
X169021040Y-122799720D01*
X169021040Y-122799720D02*
X169320760Y-123500760D01*
X169320760Y-123500760D02*
X169922740Y-124201800D01*
X169922740Y-124201800D02*
X170621240Y-124600580D01*
X170621240Y-124600580D02*
X171322280Y-124600580D01*
X171322280Y-124600580D02*
X171421340Y-124399920D01*
X171421340Y-124399920D02*
X170821900Y-124399920D01*
X170821900Y-124399920D02*
X170120860Y-124100200D01*
X170120860Y-124100200D02*
X169620480Y-123500760D01*
X169620480Y-123500760D02*
X169320760Y-122901320D01*
X169320760Y-122901320D02*
X169320760Y-122400940D01*
X169320760Y-122400940D02*
X169320760Y-121801500D01*
X169320760Y-121801500D02*
X169620480Y-121301120D01*
X169620480Y-121301120D02*
X170021800Y-120800740D01*
X170021800Y-120800740D02*
X170621240Y-120501020D01*
X170621240Y-120501020D02*
X171220680Y-120401960D01*
X171220680Y-120401960D02*
X171721060Y-120401960D01*
X171721060Y-120401960D02*
X172020780Y-120501020D01*
X171322280Y-124900300D02*
X170722840Y-124900300D01*
X170722840Y-124900300D02*
X170321520Y-124702180D01*
X170321520Y-124702180D02*
X169821140Y-124501520D01*
X169821140Y-124501520D02*
X169422360Y-124100200D01*
X169422360Y-124100200D02*
X169122640Y-123599820D01*
X169122640Y-123599820D02*
X168921980Y-123201040D01*
X167921220Y-124498980D02*
X167420840Y-124498980D01*
X167420840Y-124498980D02*
X166920460Y-124397380D01*
X166920460Y-124397380D02*
X166420080Y-124097660D01*
X166420080Y-124097660D02*
X165919700Y-123698880D01*
X165919700Y-123800480D02*
X165619980Y-123300100D01*
X165619980Y-123300100D02*
X165520920Y-122799720D01*
X165520920Y-122799720D02*
X165520920Y-122299340D01*
X165520920Y-122299340D02*
X165721580Y-121499240D01*
X165622520Y-121499240D02*
X165922240Y-121100460D01*
X166023840Y-121001400D02*
X166524220Y-120600080D01*
X166524220Y-120600080D02*
X167022060Y-120401960D01*
X167022060Y-120401960D02*
X167423380Y-120300360D01*
X167423380Y-120300360D02*
X167822160Y-120300360D01*
X167822160Y-120300360D02*
X168121880Y-120401960D01*
X168121880Y-120401960D02*
X168022820Y-120099700D01*
X168022820Y-120099700D02*
X167423380Y-120000640D01*
X167423380Y-120000640D02*
X166722340Y-120201300D01*
X166722340Y-120201300D02*
X166023840Y-120701680D01*
X166023840Y-120701680D02*
X165523460Y-121202060D01*
X165520920Y-121100460D02*
X165320260Y-121798960D01*
X165320260Y-121798960D02*
X165221200Y-122500000D01*
X165221200Y-122500000D02*
X165320260Y-123099440D01*
X165320260Y-123300100D02*
X165619980Y-123800480D01*
X165619980Y-123599820D02*
X166120360Y-124100200D01*
X166120360Y-124199260D02*
X166620740Y-124498980D01*
X166620740Y-124498980D02*
X167121120Y-124699640D01*
X167121120Y-124699640D02*
X167621500Y-124699640D01*
X167621500Y-124699640D02*
X168020280Y-124699640D01*
X168020280Y-124699640D02*
X168119340Y-124897760D01*
X168119340Y-124897760D02*
X167720560Y-124999360D01*
X167720560Y-124999360D02*
X167319240Y-124999360D01*
X167319240Y-124999360D02*
X166821400Y-124897760D01*
X166821400Y-124897760D02*
X166219420Y-124598040D01*
X166219420Y-124598040D02*
X165721580Y-124199260D01*
X165721580Y-124100200D02*
X165221200Y-123399160D01*
X165221200Y-123399160D02*
X165020540Y-122799720D01*
X165020540Y-122799720D02*
X165020540Y-122098680D01*
X165020540Y-122098680D02*
X165119600Y-121499240D01*
X165020540Y-121699900D02*
X165320260Y-121100460D01*
X165421860Y-121001400D02*
X165823180Y-120501020D01*
X165823180Y-120501020D02*
X166422620Y-120099700D01*
X166422620Y-120099700D02*
X167123660Y-119901580D01*
X167123660Y-119901580D02*
X167624040Y-119799980D01*
X165322800Y-121301120D02*
X165721580Y-121301120D01*
X173500604Y-122500000D02*
G75*
G03*
X173500604Y-122500000I-5180604J0D01*
G01*
X173908000Y-122500000D02*
G75*
G03*
X173908000Y-122500000I-5588000J0D01*
G01*
D10*
G36*
X121547237Y-101910526D02*
G01*
X126226184Y-101910526D01*
X126226184Y-100757500D01*
X121547237Y-100757500D01*
X121547237Y-101910526D01*
G37*
X121547237Y-101910526D02*
X126226184Y-101910526D01*
X126226184Y-100757500D01*
X121547237Y-100757500D01*
X121547237Y-101910526D01*
G36*
X121046744Y-93999337D02*
G01*
X121047567Y-94115066D01*
X121647885Y-94725000D01*
X122248204Y-95334934D01*
X122248641Y-95614835D01*
X122249079Y-95894737D01*
X122614663Y-95894737D01*
X122624083Y-95965756D01*
X122627650Y-95998127D01*
X122633662Y-96059087D01*
X122641799Y-96144998D01*
X122651738Y-96252226D01*
X122663157Y-96377133D01*
X122675736Y-96516083D01*
X122689153Y-96665441D01*
X122703085Y-96821568D01*
X122717212Y-96980830D01*
X122731212Y-97139590D01*
X122744763Y-97294211D01*
X122757544Y-97441057D01*
X122769233Y-97576493D01*
X122779508Y-97696880D01*
X122788048Y-97798584D01*
X122794531Y-97877967D01*
X122798636Y-97931394D01*
X122800041Y-97955229D01*
X122800040Y-97955342D01*
X122789796Y-97974466D01*
X122759026Y-98013955D01*
X122707311Y-98074266D01*
X122634233Y-98155861D01*
X122539373Y-98259198D01*
X122422313Y-98384738D01*
X122282633Y-98532940D01*
X122119916Y-98704263D01*
X122074179Y-98752237D01*
X121348805Y-99512566D01*
X121407449Y-99571052D01*
X121466092Y-99629539D01*
X121560974Y-99526310D01*
X121595685Y-99489003D01*
X121649906Y-99431311D01*
X121720059Y-99357013D01*
X121802568Y-99269889D01*
X121893855Y-99173718D01*
X121990342Y-99072280D01*
X122048065Y-99011695D01*
X122156434Y-98898197D01*
X122244028Y-98807285D01*
X122313080Y-98737307D01*
X122365824Y-98686610D01*
X122404494Y-98653540D01*
X122431323Y-98636444D01*
X122448544Y-98633669D01*
X122458392Y-98643563D01*
X122463099Y-98664471D01*
X122464899Y-98694741D01*
X122465141Y-98703002D01*
X122477658Y-98759909D01*
X122508497Y-98828693D01*
X122551503Y-98898475D01*
X122600520Y-98958378D01*
X122620134Y-98976882D01*
X122720770Y-99041628D01*
X122838327Y-99077854D01*
X122942262Y-99086447D01*
X123060049Y-99070239D01*
X123168831Y-99022712D01*
X123265110Y-98945511D01*
X123282875Y-98926295D01*
X123347832Y-98852500D01*
X124471579Y-98852500D01*
X124471579Y-99086447D01*
X124772368Y-99086447D01*
X124772368Y-98977152D01*
X124776143Y-98902539D01*
X124788825Y-98850750D01*
X124804237Y-98822580D01*
X124815250Y-98802424D01*
X124824679Y-98773200D01*
X124833151Y-98730575D01*
X124841290Y-98670217D01*
X124849721Y-98587793D01*
X124859068Y-98478972D01*
X124865469Y-98398017D01*
X124894831Y-98018732D01*
X125615659Y-98748938D01*
X125745992Y-98881066D01*
X125871108Y-99008096D01*
X125988721Y-99127695D01*
X126096545Y-99237528D01*
X126192295Y-99335263D01*
X126273683Y-99418566D01*
X126338423Y-99485104D01*
X126384230Y-99532542D01*
X126408792Y-99558520D01*
X126449145Y-99599649D01*
X126482805Y-99628335D01*
X126500910Y-99637895D01*
X126524035Y-99626697D01*
X126557743Y-99598719D01*
X126569169Y-99587326D01*
X126617617Y-99536757D01*
X126350881Y-99265702D01*
X126282831Y-99196652D01*
X126195085Y-99107774D01*
X126091492Y-99002959D01*
X125975900Y-98886097D01*
X125852159Y-98761079D01*
X125724119Y-98631795D01*
X125595628Y-98502136D01*
X125503454Y-98409179D01*
X125363342Y-98267520D01*
X125245632Y-98147591D01*
X125148820Y-98047768D01*
X125071399Y-97966428D01*
X125011864Y-97901948D01*
X124982358Y-97868277D01*
X124745409Y-97868277D01*
X124715743Y-98247592D01*
X124706797Y-98358777D01*
X124698142Y-98460453D01*
X124690271Y-98547304D01*
X124683672Y-98614018D01*
X124678836Y-98655279D01*
X124677280Y-98664506D01*
X124668482Y-98702105D01*
X123406681Y-98702105D01*
X123398258Y-98597173D01*
X123372828Y-98473195D01*
X123319611Y-98363524D01*
X123241963Y-98272156D01*
X123143237Y-98203083D01*
X123032428Y-98161620D01*
X122996480Y-98142171D01*
X122978483Y-98100430D01*
X122978106Y-98098589D01*
X122975947Y-98080967D01*
X122978616Y-98062922D01*
X122988720Y-98041108D01*
X123008863Y-98012177D01*
X123041651Y-97972783D01*
X123089690Y-97919577D01*
X123155584Y-97849214D01*
X123241940Y-97758346D01*
X123247520Y-97752493D01*
X123340405Y-97654956D01*
X123439155Y-97551067D01*
X123536984Y-97447977D01*
X123627107Y-97352839D01*
X123702738Y-97272804D01*
X123719605Y-97254911D01*
X123784265Y-97187444D01*
X123841705Y-97129709D01*
X123887801Y-97085675D01*
X123918431Y-97059314D01*
X123928715Y-97053521D01*
X123944052Y-97065646D01*
X123979917Y-97098910D01*
X124033488Y-97150542D01*
X124101940Y-97217775D01*
X124182447Y-97297837D01*
X124272187Y-97387961D01*
X124345532Y-97462198D01*
X124745409Y-97868277D01*
X124982358Y-97868277D01*
X124968709Y-97852703D01*
X124940429Y-97817071D01*
X124925517Y-97793429D01*
X124922199Y-97782480D01*
X124923456Y-97758586D01*
X124927274Y-97704501D01*
X124933407Y-97623338D01*
X124941607Y-97518210D01*
X124951627Y-97392228D01*
X124963220Y-97248505D01*
X124976140Y-97090154D01*
X124990138Y-96920287D01*
X125001419Y-96784528D01*
X125065250Y-96019106D01*
X124901004Y-96019106D01*
X124900297Y-96035624D01*
X124896969Y-96082145D01*
X124891290Y-96155378D01*
X124883526Y-96252028D01*
X124873943Y-96368805D01*
X124862811Y-96502414D01*
X124850395Y-96649563D01*
X124838480Y-96789271D01*
X124824984Y-96947787D01*
X124812413Y-97097421D01*
X124801055Y-97234602D01*
X124791198Y-97355759D01*
X124783130Y-97457320D01*
X124777140Y-97535712D01*
X124773515Y-97587363D01*
X124772509Y-97607423D01*
X124770940Y-97619908D01*
X124764722Y-97624862D01*
X124751459Y-97620218D01*
X124728753Y-97603909D01*
X124694208Y-97573868D01*
X124645427Y-97528027D01*
X124580013Y-97464320D01*
X124495569Y-97380679D01*
X124405971Y-97291299D01*
X124039574Y-96925186D01*
X124042141Y-96922434D01*
X123799951Y-96922434D01*
X123788913Y-96937550D01*
X123758013Y-96973142D01*
X123710347Y-97025941D01*
X123649013Y-97092673D01*
X123577107Y-97170070D01*
X123497727Y-97254858D01*
X123413969Y-97343767D01*
X123328930Y-97433526D01*
X123245708Y-97520864D01*
X123167399Y-97602509D01*
X123097100Y-97675191D01*
X123037909Y-97735637D01*
X122992922Y-97780578D01*
X122965236Y-97806742D01*
X122957686Y-97812072D01*
X122955197Y-97794867D01*
X122950030Y-97747348D01*
X122942470Y-97672489D01*
X122932800Y-97573264D01*
X122921305Y-97452649D01*
X122908269Y-97313618D01*
X122893976Y-97159145D01*
X122878710Y-96992206D01*
X122866521Y-96857597D01*
X122850929Y-96683054D01*
X122836523Y-96518627D01*
X122823547Y-96367299D01*
X122812241Y-96232053D01*
X122802848Y-96115870D01*
X122795611Y-96021735D01*
X122790772Y-95952630D01*
X122788573Y-95911538D01*
X122788824Y-95900868D01*
X122801970Y-95910372D01*
X122835446Y-95940920D01*
X122886326Y-95989556D01*
X122951683Y-96053323D01*
X123028591Y-96129265D01*
X123114124Y-96214424D01*
X123205354Y-96305845D01*
X123299356Y-96400569D01*
X123393202Y-96495641D01*
X123483967Y-96588103D01*
X123568723Y-96674999D01*
X123644544Y-96753372D01*
X123708503Y-96820265D01*
X123757674Y-96872722D01*
X123789131Y-96907785D01*
X123799951Y-96922434D01*
X124042141Y-96922434D01*
X124176202Y-96778760D01*
X124245784Y-96704448D01*
X124323881Y-96621483D01*
X124407406Y-96533102D01*
X124493270Y-96442541D01*
X124578385Y-96353036D01*
X124659664Y-96267823D01*
X124734019Y-96190139D01*
X124798363Y-96123220D01*
X124849606Y-96070303D01*
X124884663Y-96034623D01*
X124900444Y-96019416D01*
X124901004Y-96019106D01*
X125065250Y-96019106D01*
X125081204Y-95827807D01*
X125879286Y-94988485D01*
X126677368Y-94149164D01*
X126676781Y-94031852D01*
X126676194Y-93914539D01*
X126547275Y-94052253D01*
X126475124Y-94129063D01*
X126389940Y-94219304D01*
X126294021Y-94320575D01*
X126189666Y-94430476D01*
X126079174Y-94546604D01*
X125964844Y-94666558D01*
X125848975Y-94787936D01*
X125733865Y-94908338D01*
X125621814Y-95025362D01*
X125515119Y-95136606D01*
X125416080Y-95239669D01*
X125326997Y-95332150D01*
X125250166Y-95411647D01*
X125187888Y-95475758D01*
X125142462Y-95522083D01*
X125116185Y-95548219D01*
X125110426Y-95553233D01*
X125110030Y-95535791D01*
X125112208Y-95491135D01*
X125116583Y-95425340D01*
X125122775Y-95344483D01*
X125125433Y-95312183D01*
X125145228Y-95075921D01*
X124990242Y-95075921D01*
X124982240Y-95113520D01*
X124978160Y-95143255D01*
X124972425Y-95199203D01*
X124965701Y-95274236D01*
X124958648Y-95361225D01*
X124956207Y-95393421D01*
X124949008Y-95485861D01*
X124941742Y-95571707D01*
X124935136Y-95642847D01*
X124929916Y-95691169D01*
X124928739Y-95699939D01*
X124924298Y-95717942D01*
X124914687Y-95739017D01*
X124897860Y-95765525D01*
X124871775Y-95799828D01*
X124834387Y-95844289D01*
X124783654Y-95901271D01*
X124717530Y-95973136D01*
X124633974Y-96062246D01*
X124530940Y-96170964D01*
X124425833Y-96281275D01*
X124321262Y-96390441D01*
X124223649Y-96491540D01*
X124135422Y-96582115D01*
X124059012Y-96659708D01*
X123996849Y-96721862D01*
X123951363Y-96766118D01*
X123924983Y-96790018D01*
X123919357Y-96793574D01*
X123904557Y-96780681D01*
X123869961Y-96747060D01*
X123818929Y-96696082D01*
X123754817Y-96631120D01*
X123680984Y-96555548D01*
X123627589Y-96500493D01*
X123348827Y-96212237D01*
X124170790Y-96212237D01*
X124170790Y-95894737D01*
X123168158Y-95894737D01*
X123168158Y-96036206D01*
X122984342Y-95852960D01*
X122853948Y-95722971D01*
X122600000Y-95722971D01*
X122597571Y-95743477D01*
X122585276Y-95754902D01*
X122555604Y-95759880D01*
X122501045Y-95761044D01*
X122491382Y-95761052D01*
X122382763Y-95761052D01*
X122382763Y-95469584D01*
X122491382Y-95577237D01*
X122552654Y-95642687D01*
X122589301Y-95692829D01*
X122600000Y-95722971D01*
X122853948Y-95722971D01*
X122800526Y-95669715D01*
X122800526Y-95506502D01*
X122800015Y-95431414D01*
X122797672Y-95383645D01*
X122792289Y-95357098D01*
X122782656Y-95345679D01*
X122768129Y-95343289D01*
X122751973Y-95339780D01*
X122740031Y-95325711D01*
X122730861Y-95295769D01*
X122723018Y-95244642D01*
X122715058Y-95167017D01*
X122712504Y-95138585D01*
X122706974Y-95075921D01*
X124990242Y-95075921D01*
X125145228Y-95075921D01*
X125357237Y-95075921D01*
X125357237Y-94925526D01*
X125267141Y-94925526D01*
X125214445Y-94924083D01*
X125185812Y-94917116D01*
X125182309Y-94912970D01*
X124997766Y-94912970D01*
X124988054Y-94922442D01*
X124954412Y-94925366D01*
X124931706Y-94925526D01*
X124855921Y-94925526D01*
X124573306Y-94925526D01*
X122693481Y-94925526D01*
X122757062Y-94860413D01*
X122855814Y-94780062D01*
X122978032Y-94718089D01*
X123125787Y-94673646D01*
X123272599Y-94649065D01*
X123368684Y-94637596D01*
X123368684Y-94758421D01*
X124137368Y-94758421D01*
X124137368Y-94621345D01*
X124250165Y-94632776D01*
X124328975Y-94642425D01*
X124412943Y-94655214D01*
X124463224Y-94664348D01*
X124563487Y-94684488D01*
X124568397Y-94805007D01*
X124573306Y-94925526D01*
X124855921Y-94925526D01*
X124855921Y-94858684D01*
X124858131Y-94816810D01*
X124863650Y-94793536D01*
X124865874Y-94791842D01*
X124890613Y-94802560D01*
X124926757Y-94828563D01*
X124962990Y-94860623D01*
X124987999Y-94889511D01*
X124990227Y-94893267D01*
X124997766Y-94912970D01*
X125182309Y-94912970D01*
X125171919Y-94900674D01*
X125166311Y-94882762D01*
X125143422Y-94836279D01*
X125099460Y-94780400D01*
X125041989Y-94722960D01*
X124978573Y-94671793D01*
X124936918Y-94645143D01*
X124889466Y-94615972D01*
X124865141Y-94591467D01*
X124856595Y-94562572D01*
X124855938Y-94545362D01*
X124855937Y-94541184D01*
X124003684Y-94541184D01*
X124003684Y-94624737D01*
X123502368Y-94624737D01*
X123502368Y-94541184D01*
X124003684Y-94541184D01*
X124855937Y-94541184D01*
X124855921Y-94491052D01*
X124715274Y-94491052D01*
X124650564Y-94492617D01*
X124600130Y-94496785D01*
X124572094Y-94502773D01*
X124569057Y-94505197D01*
X124551273Y-94508918D01*
X124507992Y-94507394D01*
X124446651Y-94501075D01*
X124404737Y-94495240D01*
X124328737Y-94483778D01*
X124259230Y-94473430D01*
X124206997Y-94465796D01*
X124191678Y-94463627D01*
X124151653Y-94451232D01*
X124137368Y-94431808D01*
X124133025Y-94423898D01*
X124117490Y-94417863D01*
X124087001Y-94413466D01*
X124037800Y-94410469D01*
X123966126Y-94408635D01*
X123868219Y-94407725D01*
X123753026Y-94407500D01*
X123630086Y-94407628D01*
X123536559Y-94408230D01*
X123468440Y-94409639D01*
X123421719Y-94412181D01*
X123392391Y-94416189D01*
X123376449Y-94421991D01*
X123369885Y-94429917D01*
X123368684Y-94439133D01*
X123358460Y-94468385D01*
X123324970Y-94485031D01*
X123263988Y-94490968D01*
X123253017Y-94491052D01*
X123149746Y-94501706D01*
X123032453Y-94531033D01*
X122911715Y-94575084D01*
X122798111Y-94629911D01*
X122702219Y-94691564D01*
X122689799Y-94701332D01*
X122649318Y-94733115D01*
X122625345Y-94745844D01*
X122608604Y-94741729D01*
X122591419Y-94724750D01*
X122540664Y-94691492D01*
X122474607Y-94678725D01*
X122403474Y-94685365D01*
X122337486Y-94710327D01*
X122286868Y-94752529D01*
X122283203Y-94757434D01*
X122245328Y-94836211D01*
X122238281Y-94917754D01*
X122261285Y-94995487D01*
X122313563Y-95062835D01*
X122319956Y-95068396D01*
X122357073Y-95094813D01*
X122394733Y-95106447D01*
X122447676Y-95107287D01*
X122460902Y-95106542D01*
X122512703Y-95104641D01*
X122539386Y-95108996D01*
X122549045Y-95122138D01*
X122550037Y-95134408D01*
X122552061Y-95170002D01*
X122557086Y-95223533D01*
X122560697Y-95255559D01*
X122565934Y-95306427D01*
X122563756Y-95332468D01*
X122551125Y-95341986D01*
X122528625Y-95343289D01*
X122515282Y-95338986D01*
X122493756Y-95325057D01*
X122462452Y-95299977D01*
X122419776Y-95262219D01*
X122364132Y-95210256D01*
X122293925Y-95142562D01*
X122207560Y-95057611D01*
X122103442Y-94953875D01*
X121979975Y-94829828D01*
X121835564Y-94683944D01*
X121765969Y-94613449D01*
X121045921Y-93883610D01*
X121046744Y-93999337D01*
G37*
X121046744Y-93999337D02*
X121047567Y-94115066D01*
X121647885Y-94725000D01*
X122248204Y-95334934D01*
X122248641Y-95614835D01*
X122249079Y-95894737D01*
X122614663Y-95894737D01*
X122624083Y-95965756D01*
X122627650Y-95998127D01*
X122633662Y-96059087D01*
X122641799Y-96144998D01*
X122651738Y-96252226D01*
X122663157Y-96377133D01*
X122675736Y-96516083D01*
X122689153Y-96665441D01*
X122703085Y-96821568D01*
X122717212Y-96980830D01*
X122731212Y-97139590D01*
X122744763Y-97294211D01*
X122757544Y-97441057D01*
X122769233Y-97576493D01*
X122779508Y-97696880D01*
X122788048Y-97798584D01*
X122794531Y-97877967D01*
X122798636Y-97931394D01*
X122800041Y-97955229D01*
X122800040Y-97955342D01*
X122789796Y-97974466D01*
X122759026Y-98013955D01*
X122707311Y-98074266D01*
X122634233Y-98155861D01*
X122539373Y-98259198D01*
X122422313Y-98384738D01*
X122282633Y-98532940D01*
X122119916Y-98704263D01*
X122074179Y-98752237D01*
X121348805Y-99512566D01*
X121407449Y-99571052D01*
X121466092Y-99629539D01*
X121560974Y-99526310D01*
X121595685Y-99489003D01*
X121649906Y-99431311D01*
X121720059Y-99357013D01*
X121802568Y-99269889D01*
X121893855Y-99173718D01*
X121990342Y-99072280D01*
X122048065Y-99011695D01*
X122156434Y-98898197D01*
X122244028Y-98807285D01*
X122313080Y-98737307D01*
X122365824Y-98686610D01*
X122404494Y-98653540D01*
X122431323Y-98636444D01*
X122448544Y-98633669D01*
X122458392Y-98643563D01*
X122463099Y-98664471D01*
X122464899Y-98694741D01*
X122465141Y-98703002D01*
X122477658Y-98759909D01*
X122508497Y-98828693D01*
X122551503Y-98898475D01*
X122600520Y-98958378D01*
X122620134Y-98976882D01*
X122720770Y-99041628D01*
X122838327Y-99077854D01*
X122942262Y-99086447D01*
X123060049Y-99070239D01*
X123168831Y-99022712D01*
X123265110Y-98945511D01*
X123282875Y-98926295D01*
X123347832Y-98852500D01*
X124471579Y-98852500D01*
X124471579Y-99086447D01*
X124772368Y-99086447D01*
X124772368Y-98977152D01*
X124776143Y-98902539D01*
X124788825Y-98850750D01*
X124804237Y-98822580D01*
X124815250Y-98802424D01*
X124824679Y-98773200D01*
X124833151Y-98730575D01*
X124841290Y-98670217D01*
X124849721Y-98587793D01*
X124859068Y-98478972D01*
X124865469Y-98398017D01*
X124894831Y-98018732D01*
X125615659Y-98748938D01*
X125745992Y-98881066D01*
X125871108Y-99008096D01*
X125988721Y-99127695D01*
X126096545Y-99237528D01*
X126192295Y-99335263D01*
X126273683Y-99418566D01*
X126338423Y-99485104D01*
X126384230Y-99532542D01*
X126408792Y-99558520D01*
X126449145Y-99599649D01*
X126482805Y-99628335D01*
X126500910Y-99637895D01*
X126524035Y-99626697D01*
X126557743Y-99598719D01*
X126569169Y-99587326D01*
X126617617Y-99536757D01*
X126350881Y-99265702D01*
X126282831Y-99196652D01*
X126195085Y-99107774D01*
X126091492Y-99002959D01*
X125975900Y-98886097D01*
X125852159Y-98761079D01*
X125724119Y-98631795D01*
X125595628Y-98502136D01*
X125503454Y-98409179D01*
X125363342Y-98267520D01*
X125245632Y-98147591D01*
X125148820Y-98047768D01*
X125071399Y-97966428D01*
X125011864Y-97901948D01*
X124982358Y-97868277D01*
X124745409Y-97868277D01*
X124715743Y-98247592D01*
X124706797Y-98358777D01*
X124698142Y-98460453D01*
X124690271Y-98547304D01*
X124683672Y-98614018D01*
X124678836Y-98655279D01*
X124677280Y-98664506D01*
X124668482Y-98702105D01*
X123406681Y-98702105D01*
X123398258Y-98597173D01*
X123372828Y-98473195D01*
X123319611Y-98363524D01*
X123241963Y-98272156D01*
X123143237Y-98203083D01*
X123032428Y-98161620D01*
X122996480Y-98142171D01*
X122978483Y-98100430D01*
X122978106Y-98098589D01*
X122975947Y-98080967D01*
X122978616Y-98062922D01*
X122988720Y-98041108D01*
X123008863Y-98012177D01*
X123041651Y-97972783D01*
X123089690Y-97919577D01*
X123155584Y-97849214D01*
X123241940Y-97758346D01*
X123247520Y-97752493D01*
X123340405Y-97654956D01*
X123439155Y-97551067D01*
X123536984Y-97447977D01*
X123627107Y-97352839D01*
X123702738Y-97272804D01*
X123719605Y-97254911D01*
X123784265Y-97187444D01*
X123841705Y-97129709D01*
X123887801Y-97085675D01*
X123918431Y-97059314D01*
X123928715Y-97053521D01*
X123944052Y-97065646D01*
X123979917Y-97098910D01*
X124033488Y-97150542D01*
X124101940Y-97217775D01*
X124182447Y-97297837D01*
X124272187Y-97387961D01*
X124345532Y-97462198D01*
X124745409Y-97868277D01*
X124982358Y-97868277D01*
X124968709Y-97852703D01*
X124940429Y-97817071D01*
X124925517Y-97793429D01*
X124922199Y-97782480D01*
X124923456Y-97758586D01*
X124927274Y-97704501D01*
X124933407Y-97623338D01*
X124941607Y-97518210D01*
X124951627Y-97392228D01*
X124963220Y-97248505D01*
X124976140Y-97090154D01*
X124990138Y-96920287D01*
X125001419Y-96784528D01*
X125065250Y-96019106D01*
X124901004Y-96019106D01*
X124900297Y-96035624D01*
X124896969Y-96082145D01*
X124891290Y-96155378D01*
X124883526Y-96252028D01*
X124873943Y-96368805D01*
X124862811Y-96502414D01*
X124850395Y-96649563D01*
X124838480Y-96789271D01*
X124824984Y-96947787D01*
X124812413Y-97097421D01*
X124801055Y-97234602D01*
X124791198Y-97355759D01*
X124783130Y-97457320D01*
X124777140Y-97535712D01*
X124773515Y-97587363D01*
X124772509Y-97607423D01*
X124770940Y-97619908D01*
X124764722Y-97624862D01*
X124751459Y-97620218D01*
X124728753Y-97603909D01*
X124694208Y-97573868D01*
X124645427Y-97528027D01*
X124580013Y-97464320D01*
X124495569Y-97380679D01*
X124405971Y-97291299D01*
X124039574Y-96925186D01*
X124042141Y-96922434D01*
X123799951Y-96922434D01*
X123788913Y-96937550D01*
X123758013Y-96973142D01*
X123710347Y-97025941D01*
X123649013Y-97092673D01*
X123577107Y-97170070D01*
X123497727Y-97254858D01*
X123413969Y-97343767D01*
X123328930Y-97433526D01*
X123245708Y-97520864D01*
X123167399Y-97602509D01*
X123097100Y-97675191D01*
X123037909Y-97735637D01*
X122992922Y-97780578D01*
X122965236Y-97806742D01*
X122957686Y-97812072D01*
X122955197Y-97794867D01*
X122950030Y-97747348D01*
X122942470Y-97672489D01*
X122932800Y-97573264D01*
X122921305Y-97452649D01*
X122908269Y-97313618D01*
X122893976Y-97159145D01*
X122878710Y-96992206D01*
X122866521Y-96857597D01*
X122850929Y-96683054D01*
X122836523Y-96518627D01*
X122823547Y-96367299D01*
X122812241Y-96232053D01*
X122802848Y-96115870D01*
X122795611Y-96021735D01*
X122790772Y-95952630D01*
X122788573Y-95911538D01*
X122788824Y-95900868D01*
X122801970Y-95910372D01*
X122835446Y-95940920D01*
X122886326Y-95989556D01*
X122951683Y-96053323D01*
X123028591Y-96129265D01*
X123114124Y-96214424D01*
X123205354Y-96305845D01*
X123299356Y-96400569D01*
X123393202Y-96495641D01*
X123483967Y-96588103D01*
X123568723Y-96674999D01*
X123644544Y-96753372D01*
X123708503Y-96820265D01*
X123757674Y-96872722D01*
X123789131Y-96907785D01*
X123799951Y-96922434D01*
X124042141Y-96922434D01*
X124176202Y-96778760D01*
X124245784Y-96704448D01*
X124323881Y-96621483D01*
X124407406Y-96533102D01*
X124493270Y-96442541D01*
X124578385Y-96353036D01*
X124659664Y-96267823D01*
X124734019Y-96190139D01*
X124798363Y-96123220D01*
X124849606Y-96070303D01*
X124884663Y-96034623D01*
X124900444Y-96019416D01*
X124901004Y-96019106D01*
X125065250Y-96019106D01*
X125081204Y-95827807D01*
X125879286Y-94988485D01*
X126677368Y-94149164D01*
X126676781Y-94031852D01*
X126676194Y-93914539D01*
X126547275Y-94052253D01*
X126475124Y-94129063D01*
X126389940Y-94219304D01*
X126294021Y-94320575D01*
X126189666Y-94430476D01*
X126079174Y-94546604D01*
X125964844Y-94666558D01*
X125848975Y-94787936D01*
X125733865Y-94908338D01*
X125621814Y-95025362D01*
X125515119Y-95136606D01*
X125416080Y-95239669D01*
X125326997Y-95332150D01*
X125250166Y-95411647D01*
X125187888Y-95475758D01*
X125142462Y-95522083D01*
X125116185Y-95548219D01*
X125110426Y-95553233D01*
X125110030Y-95535791D01*
X125112208Y-95491135D01*
X125116583Y-95425340D01*
X125122775Y-95344483D01*
X125125433Y-95312183D01*
X125145228Y-95075921D01*
X124990242Y-95075921D01*
X124982240Y-95113520D01*
X124978160Y-95143255D01*
X124972425Y-95199203D01*
X124965701Y-95274236D01*
X124958648Y-95361225D01*
X124956207Y-95393421D01*
X124949008Y-95485861D01*
X124941742Y-95571707D01*
X124935136Y-95642847D01*
X124929916Y-95691169D01*
X124928739Y-95699939D01*
X124924298Y-95717942D01*
X124914687Y-95739017D01*
X124897860Y-95765525D01*
X124871775Y-95799828D01*
X124834387Y-95844289D01*
X124783654Y-95901271D01*
X124717530Y-95973136D01*
X124633974Y-96062246D01*
X124530940Y-96170964D01*
X124425833Y-96281275D01*
X124321262Y-96390441D01*
X124223649Y-96491540D01*
X124135422Y-96582115D01*
X124059012Y-96659708D01*
X123996849Y-96721862D01*
X123951363Y-96766118D01*
X123924983Y-96790018D01*
X123919357Y-96793574D01*
X123904557Y-96780681D01*
X123869961Y-96747060D01*
X123818929Y-96696082D01*
X123754817Y-96631120D01*
X123680984Y-96555548D01*
X123627589Y-96500493D01*
X123348827Y-96212237D01*
X124170790Y-96212237D01*
X124170790Y-95894737D01*
X123168158Y-95894737D01*
X123168158Y-96036206D01*
X122984342Y-95852960D01*
X122853948Y-95722971D01*
X122600000Y-95722971D01*
X122597571Y-95743477D01*
X122585276Y-95754902D01*
X122555604Y-95759880D01*
X122501045Y-95761044D01*
X122491382Y-95761052D01*
X122382763Y-95761052D01*
X122382763Y-95469584D01*
X122491382Y-95577237D01*
X122552654Y-95642687D01*
X122589301Y-95692829D01*
X122600000Y-95722971D01*
X122853948Y-95722971D01*
X122800526Y-95669715D01*
X122800526Y-95506502D01*
X122800015Y-95431414D01*
X122797672Y-95383645D01*
X122792289Y-95357098D01*
X122782656Y-95345679D01*
X122768129Y-95343289D01*
X122751973Y-95339780D01*
X122740031Y-95325711D01*
X122730861Y-95295769D01*
X122723018Y-95244642D01*
X122715058Y-95167017D01*
X122712504Y-95138585D01*
X122706974Y-95075921D01*
X124990242Y-95075921D01*
X125145228Y-95075921D01*
X125357237Y-95075921D01*
X125357237Y-94925526D01*
X125267141Y-94925526D01*
X125214445Y-94924083D01*
X125185812Y-94917116D01*
X125182309Y-94912970D01*
X124997766Y-94912970D01*
X124988054Y-94922442D01*
X124954412Y-94925366D01*
X124931706Y-94925526D01*
X124855921Y-94925526D01*
X124573306Y-94925526D01*
X122693481Y-94925526D01*
X122757062Y-94860413D01*
X122855814Y-94780062D01*
X122978032Y-94718089D01*
X123125787Y-94673646D01*
X123272599Y-94649065D01*
X123368684Y-94637596D01*
X123368684Y-94758421D01*
X124137368Y-94758421D01*
X124137368Y-94621345D01*
X124250165Y-94632776D01*
X124328975Y-94642425D01*
X124412943Y-94655214D01*
X124463224Y-94664348D01*
X124563487Y-94684488D01*
X124568397Y-94805007D01*
X124573306Y-94925526D01*
X124855921Y-94925526D01*
X124855921Y-94858684D01*
X124858131Y-94816810D01*
X124863650Y-94793536D01*
X124865874Y-94791842D01*
X124890613Y-94802560D01*
X124926757Y-94828563D01*
X124962990Y-94860623D01*
X124987999Y-94889511D01*
X124990227Y-94893267D01*
X124997766Y-94912970D01*
X125182309Y-94912970D01*
X125171919Y-94900674D01*
X125166311Y-94882762D01*
X125143422Y-94836279D01*
X125099460Y-94780400D01*
X125041989Y-94722960D01*
X124978573Y-94671793D01*
X124936918Y-94645143D01*
X124889466Y-94615972D01*
X124865141Y-94591467D01*
X124856595Y-94562572D01*
X124855938Y-94545362D01*
X124855937Y-94541184D01*
X124003684Y-94541184D01*
X124003684Y-94624737D01*
X123502368Y-94624737D01*
X123502368Y-94541184D01*
X124003684Y-94541184D01*
X124855937Y-94541184D01*
X124855921Y-94491052D01*
X124715274Y-94491052D01*
X124650564Y-94492617D01*
X124600130Y-94496785D01*
X124572094Y-94502773D01*
X124569057Y-94505197D01*
X124551273Y-94508918D01*
X124507992Y-94507394D01*
X124446651Y-94501075D01*
X124404737Y-94495240D01*
X124328737Y-94483778D01*
X124259230Y-94473430D01*
X124206997Y-94465796D01*
X124191678Y-94463627D01*
X124151653Y-94451232D01*
X124137368Y-94431808D01*
X124133025Y-94423898D01*
X124117490Y-94417863D01*
X124087001Y-94413466D01*
X124037800Y-94410469D01*
X123966126Y-94408635D01*
X123868219Y-94407725D01*
X123753026Y-94407500D01*
X123630086Y-94407628D01*
X123536559Y-94408230D01*
X123468440Y-94409639D01*
X123421719Y-94412181D01*
X123392391Y-94416189D01*
X123376449Y-94421991D01*
X123369885Y-94429917D01*
X123368684Y-94439133D01*
X123358460Y-94468385D01*
X123324970Y-94485031D01*
X123263988Y-94490968D01*
X123253017Y-94491052D01*
X123149746Y-94501706D01*
X123032453Y-94531033D01*
X122911715Y-94575084D01*
X122798111Y-94629911D01*
X122702219Y-94691564D01*
X122689799Y-94701332D01*
X122649318Y-94733115D01*
X122625345Y-94745844D01*
X122608604Y-94741729D01*
X122591419Y-94724750D01*
X122540664Y-94691492D01*
X122474607Y-94678725D01*
X122403474Y-94685365D01*
X122337486Y-94710327D01*
X122286868Y-94752529D01*
X122283203Y-94757434D01*
X122245328Y-94836211D01*
X122238281Y-94917754D01*
X122261285Y-94995487D01*
X122313563Y-95062835D01*
X122319956Y-95068396D01*
X122357073Y-95094813D01*
X122394733Y-95106447D01*
X122447676Y-95107287D01*
X122460902Y-95106542D01*
X122512703Y-95104641D01*
X122539386Y-95108996D01*
X122549045Y-95122138D01*
X122550037Y-95134408D01*
X122552061Y-95170002D01*
X122557086Y-95223533D01*
X122560697Y-95255559D01*
X122565934Y-95306427D01*
X122563756Y-95332468D01*
X122551125Y-95341986D01*
X122528625Y-95343289D01*
X122515282Y-95338986D01*
X122493756Y-95325057D01*
X122462452Y-95299977D01*
X122419776Y-95262219D01*
X122364132Y-95210256D01*
X122293925Y-95142562D01*
X122207560Y-95057611D01*
X122103442Y-94953875D01*
X121979975Y-94829828D01*
X121835564Y-94683944D01*
X121765969Y-94613449D01*
X121045921Y-93883610D01*
X121046744Y-93999337D01*
G04 #@! TO.C,G\u002A\u002A\u002A*
G36*
X166939606Y-80824651D02*
G01*
X166926682Y-80835068D01*
X166906736Y-80851407D01*
X166880479Y-80873072D01*
X166848625Y-80899465D01*
X166811886Y-80929990D01*
X166770974Y-80964049D01*
X166726603Y-81001046D01*
X166679485Y-81040384D01*
X166630333Y-81081465D01*
X166579859Y-81123692D01*
X166528775Y-81166470D01*
X166477795Y-81209200D01*
X166427632Y-81251286D01*
X166378997Y-81292131D01*
X166332603Y-81331137D01*
X166289164Y-81367709D01*
X166249391Y-81401248D01*
X166213997Y-81431158D01*
X166183695Y-81456843D01*
X166159198Y-81477704D01*
X166141218Y-81493145D01*
X166130468Y-81502570D01*
X166127578Y-81505332D01*
X166129309Y-81511371D01*
X166136975Y-81525942D01*
X166150626Y-81549126D01*
X166170314Y-81581005D01*
X166196089Y-81621658D01*
X166228001Y-81671168D01*
X166266102Y-81729614D01*
X166302689Y-81785315D01*
X166335100Y-81834578D01*
X166365590Y-81881030D01*
X166393632Y-81923865D01*
X166418703Y-81962275D01*
X166440276Y-81995453D01*
X166457829Y-82022593D01*
X166470835Y-82042887D01*
X166478770Y-82055528D01*
X166481137Y-82059712D01*
X166475766Y-82058365D01*
X166460564Y-82054056D01*
X166436277Y-82047008D01*
X166403653Y-82037442D01*
X166363437Y-82025578D01*
X166316377Y-82011638D01*
X166263219Y-81995843D01*
X166204710Y-81978415D01*
X166141596Y-81959574D01*
X166074624Y-81939541D01*
X166004540Y-81918539D01*
X166000385Y-81917292D01*
X165930120Y-81896248D01*
X165862903Y-81876184D01*
X165799482Y-81857319D01*
X165740605Y-81839873D01*
X165687021Y-81824066D01*
X165639479Y-81810116D01*
X165598728Y-81798245D01*
X165565515Y-81788671D01*
X165540590Y-81781614D01*
X165524701Y-81777294D01*
X165518597Y-81775930D01*
X165518560Y-81775946D01*
X165518040Y-81781649D01*
X165517077Y-81797778D01*
X165515698Y-81823721D01*
X165513931Y-81858868D01*
X165511806Y-81902608D01*
X165509349Y-81954330D01*
X165506589Y-82013424D01*
X165503555Y-82079279D01*
X165500275Y-82151284D01*
X165496777Y-82228829D01*
X165493090Y-82311302D01*
X165489241Y-82398094D01*
X165485259Y-82488593D01*
X165481173Y-82582189D01*
X165480730Y-82592382D01*
X165476614Y-82687058D01*
X165472604Y-82779189D01*
X165468729Y-82868122D01*
X165465018Y-82953206D01*
X165461499Y-83033790D01*
X165458201Y-83109222D01*
X165455152Y-83178850D01*
X165452380Y-83242022D01*
X165449915Y-83298088D01*
X165447785Y-83346396D01*
X165446019Y-83386293D01*
X165444645Y-83417129D01*
X165443691Y-83438252D01*
X165443186Y-83449010D01*
X165443178Y-83449163D01*
X165440998Y-83491965D01*
X165455272Y-83491749D01*
X165463196Y-83490922D01*
X165481046Y-83488613D01*
X165507826Y-83484965D01*
X165542537Y-83480118D01*
X165584180Y-83474215D01*
X165631757Y-83467396D01*
X165684270Y-83459805D01*
X165740719Y-83451580D01*
X165798162Y-83443152D01*
X165857015Y-83434556D01*
X165912544Y-83426579D01*
X165963802Y-83419348D01*
X166009838Y-83412991D01*
X166049704Y-83407635D01*
X166082451Y-83403407D01*
X166107128Y-83400436D01*
X166122788Y-83398848D01*
X166128480Y-83398772D01*
X166128482Y-83398778D01*
X166126070Y-83404105D01*
X166118547Y-83418203D01*
X166106353Y-83440296D01*
X166089930Y-83469606D01*
X166069718Y-83505355D01*
X166046157Y-83546765D01*
X166019689Y-83593059D01*
X165990753Y-83643459D01*
X165959792Y-83697188D01*
X165937389Y-83735948D01*
X165905285Y-83791452D01*
X165874870Y-83844088D01*
X165846586Y-83893088D01*
X165820876Y-83937682D01*
X165798182Y-83977102D01*
X165778947Y-84010578D01*
X165763613Y-84037341D01*
X165752623Y-84056622D01*
X165746419Y-84067652D01*
X165745161Y-84070052D01*
X165749191Y-84070730D01*
X165761035Y-84072185D01*
X165780865Y-84074436D01*
X165808852Y-84077500D01*
X165845168Y-84081395D01*
X165889984Y-84086138D01*
X165943470Y-84091747D01*
X166005799Y-84098240D01*
X166077141Y-84105635D01*
X166157667Y-84113948D01*
X166247550Y-84123198D01*
X166346959Y-84133403D01*
X166456067Y-84144579D01*
X166575045Y-84156746D01*
X166704063Y-84169919D01*
X166843293Y-84184118D01*
X166992906Y-84199359D01*
X167153074Y-84215661D01*
X167323967Y-84233040D01*
X167421906Y-84242995D01*
X167464165Y-84247314D01*
X167503720Y-84251403D01*
X167538988Y-84255094D01*
X167568390Y-84258220D01*
X167590343Y-84260615D01*
X167603265Y-84262112D01*
X167604846Y-84262318D01*
X167618008Y-84263440D01*
X167624274Y-84260011D01*
X167627277Y-84249228D01*
X167628042Y-84244420D01*
X167629799Y-84230914D01*
X167632238Y-84209362D01*
X167635038Y-84182716D01*
X167637878Y-84153928D01*
X167637913Y-84153561D01*
X167640720Y-84127501D01*
X167643631Y-84106236D01*
X167646332Y-84091726D01*
X167648505Y-84085937D01*
X167648793Y-84085957D01*
X167653273Y-84091168D01*
X167662851Y-84103819D01*
X167676325Y-84122275D01*
X167692494Y-84144903D01*
X167701527Y-84157715D01*
X167718737Y-84181542D01*
X167734168Y-84201613D01*
X167746571Y-84216400D01*
X167754696Y-84224375D01*
X167756839Y-84225318D01*
X167762119Y-84221991D01*
X167775863Y-84212667D01*
X167797520Y-84197731D01*
X167826539Y-84177570D01*
X167862369Y-84152571D01*
X167904460Y-84123119D01*
X167952260Y-84089600D01*
X168005219Y-84052402D01*
X168062786Y-84011909D01*
X168124410Y-83968509D01*
X168189540Y-83922587D01*
X168257626Y-83874530D01*
X168322259Y-83828865D01*
X168880908Y-83433975D01*
X168877543Y-82681549D01*
X168874748Y-82056375D01*
X168509975Y-82056375D01*
X168508570Y-82651190D01*
X168507164Y-83246006D01*
X168054283Y-83567438D01*
X167976716Y-83622444D01*
X167907671Y-83671297D01*
X167846708Y-83714300D01*
X167793387Y-83751755D01*
X167747265Y-83783963D01*
X167707903Y-83811228D01*
X167674858Y-83833851D01*
X167647691Y-83852133D01*
X167625960Y-83866378D01*
X167609224Y-83876888D01*
X167597042Y-83883963D01*
X167588973Y-83887907D01*
X167584833Y-83889030D01*
X167577213Y-83888495D01*
X167559332Y-83886898D01*
X167531916Y-83884309D01*
X167495690Y-83880802D01*
X167451382Y-83876449D01*
X167399716Y-83871322D01*
X167341419Y-83865493D01*
X167277217Y-83859035D01*
X167207837Y-83852021D01*
X167134003Y-83844522D01*
X167056443Y-83836612D01*
X166975881Y-83828362D01*
X166962278Y-83826966D01*
X166881593Y-83818654D01*
X166803998Y-83810609D01*
X166730198Y-83802906D01*
X166660900Y-83795620D01*
X166596808Y-83788829D01*
X166538629Y-83782608D01*
X166487069Y-83777033D01*
X166442832Y-83772179D01*
X166406625Y-83768123D01*
X166379152Y-83764941D01*
X166361121Y-83762709D01*
X166353236Y-83761502D01*
X166352941Y-83761393D01*
X166355140Y-83756222D01*
X166362495Y-83742193D01*
X166374616Y-83719996D01*
X166391109Y-83690326D01*
X166411586Y-83653873D01*
X166435652Y-83611331D01*
X166462918Y-83563391D01*
X166492992Y-83510746D01*
X166525481Y-83454089D01*
X166559996Y-83394112D01*
X166590103Y-83341953D01*
X166630060Y-83272676D01*
X166667092Y-83208167D01*
X166700914Y-83148935D01*
X166731241Y-83095490D01*
X166757788Y-83048344D01*
X166780268Y-83008005D01*
X166798397Y-82974984D01*
X166811889Y-82949792D01*
X166820460Y-82932937D01*
X166823823Y-82924931D01*
X166823738Y-82924317D01*
X166817375Y-82924872D01*
X166800868Y-82926925D01*
X166775002Y-82930368D01*
X166740560Y-82935088D01*
X166698326Y-82940975D01*
X166649085Y-82947919D01*
X166593620Y-82955809D01*
X166532715Y-82964534D01*
X166467155Y-82973984D01*
X166397723Y-82984049D01*
X166325205Y-82994617D01*
X166323318Y-82994893D01*
X166250882Y-83005460D01*
X166181621Y-83015527D01*
X166116309Y-83024985D01*
X166055717Y-83033724D01*
X166000618Y-83041632D01*
X165951784Y-83048600D01*
X165909987Y-83054518D01*
X165875999Y-83059276D01*
X165850592Y-83062763D01*
X165834539Y-83064869D01*
X165828612Y-83065485D01*
X165828597Y-83065477D01*
X165828531Y-83059716D01*
X165828948Y-83043988D01*
X165829800Y-83019354D01*
X165831039Y-82986876D01*
X165832617Y-82947617D01*
X165834486Y-82902639D01*
X165836599Y-82853003D01*
X165838907Y-82799772D01*
X165841362Y-82744008D01*
X165843917Y-82686773D01*
X165846523Y-82629129D01*
X165849133Y-82572139D01*
X165851698Y-82516864D01*
X165854171Y-82464366D01*
X165856504Y-82415708D01*
X165858648Y-82371952D01*
X165860556Y-82334160D01*
X165862179Y-82303394D01*
X165863471Y-82280716D01*
X165864382Y-82267188D01*
X165864797Y-82263673D01*
X165870285Y-82264935D01*
X165885747Y-82269203D01*
X165910578Y-82276299D01*
X165944176Y-82286044D01*
X165985937Y-82298260D01*
X166035257Y-82312768D01*
X166091533Y-82329391D01*
X166154162Y-82347948D01*
X166222539Y-82368263D01*
X166296062Y-82390156D01*
X166374126Y-82413449D01*
X166456129Y-82437963D01*
X166541467Y-82463521D01*
X166601796Y-82481616D01*
X166689117Y-82507803D01*
X166773541Y-82533085D01*
X166854464Y-82557281D01*
X166931279Y-82580212D01*
X167003382Y-82601699D01*
X167070165Y-82621561D01*
X167131025Y-82639620D01*
X167185354Y-82655696D01*
X167232548Y-82669609D01*
X167272002Y-82681181D01*
X167303108Y-82690230D01*
X167325263Y-82696578D01*
X167337860Y-82700046D01*
X167340660Y-82700666D01*
X167338240Y-82695973D01*
X167330098Y-82682627D01*
X167316598Y-82661194D01*
X167298107Y-82632237D01*
X167274992Y-82596320D01*
X167247618Y-82554008D01*
X167216351Y-82505863D01*
X167181558Y-82452451D01*
X167143605Y-82394335D01*
X167102858Y-82332079D01*
X167059682Y-82266247D01*
X167014445Y-82197404D01*
X166979491Y-82144296D01*
X166932858Y-82073447D01*
X166887940Y-82005117D01*
X166845110Y-81939876D01*
X166804741Y-81878296D01*
X166767204Y-81820947D01*
X166732872Y-81768400D01*
X166702118Y-81721227D01*
X166675314Y-81679999D01*
X166652832Y-81645286D01*
X166635045Y-81617660D01*
X166622325Y-81597692D01*
X166615045Y-81585953D01*
X166613380Y-81582906D01*
X166617375Y-81578196D01*
X166629060Y-81567135D01*
X166647624Y-81550427D01*
X166672259Y-81528777D01*
X166702154Y-81502891D01*
X166736500Y-81473472D01*
X166774489Y-81441227D01*
X166815310Y-81406859D01*
X166821147Y-81401966D01*
X167029498Y-81227434D01*
X167575944Y-81395907D01*
X167651257Y-81419135D01*
X167723758Y-81441515D01*
X167792729Y-81462823D01*
X167857453Y-81482837D01*
X167917211Y-81501333D01*
X167971286Y-81518090D01*
X168018959Y-81532885D01*
X168059514Y-81545496D01*
X168092231Y-81555699D01*
X168116394Y-81563273D01*
X168131284Y-81567995D01*
X168136018Y-81569561D01*
X168142708Y-81575348D01*
X168155633Y-81589882D01*
X168174604Y-81612923D01*
X168199433Y-81644232D01*
X168229932Y-81683570D01*
X168265911Y-81730697D01*
X168307182Y-81785373D01*
X168329811Y-81815559D01*
X168509975Y-82056375D01*
X168874748Y-82056375D01*
X168874179Y-81929124D01*
X168627808Y-81599053D01*
X168587938Y-81545658D01*
X168549905Y-81494767D01*
X168514239Y-81447082D01*
X168481469Y-81403311D01*
X168452124Y-81364157D01*
X168426732Y-81330327D01*
X168405822Y-81302524D01*
X168389923Y-81281455D01*
X168379564Y-81267825D01*
X168375274Y-81262338D01*
X168375264Y-81262327D01*
X168369292Y-81259873D01*
X168353519Y-81254437D01*
X168328691Y-81246252D01*
X168295552Y-81235546D01*
X168254850Y-81222549D01*
X168207328Y-81207493D01*
X168153733Y-81190606D01*
X168094810Y-81172119D01*
X168031305Y-81152263D01*
X167963962Y-81131267D01*
X167893528Y-81109361D01*
X167820748Y-81086776D01*
X167746367Y-81063742D01*
X167671130Y-81040488D01*
X167595784Y-81017245D01*
X167521074Y-80994244D01*
X167447745Y-80971713D01*
X167376542Y-80949884D01*
X167308212Y-80928986D01*
X167243499Y-80909249D01*
X167183150Y-80890905D01*
X167127908Y-80874181D01*
X167078521Y-80859310D01*
X167035733Y-80846521D01*
X167000290Y-80836044D01*
X166972938Y-80828109D01*
X166954421Y-80822946D01*
X166945486Y-80820786D01*
X166944795Y-80820753D01*
X166939606Y-80824651D01*
G37*
X166939606Y-80824651D02*
X166926682Y-80835068D01*
X166906736Y-80851407D01*
X166880479Y-80873072D01*
X166848625Y-80899465D01*
X166811886Y-80929990D01*
X166770974Y-80964049D01*
X166726603Y-81001046D01*
X166679485Y-81040384D01*
X166630333Y-81081465D01*
X166579859Y-81123692D01*
X166528775Y-81166470D01*
X166477795Y-81209200D01*
X166427632Y-81251286D01*
X166378997Y-81292131D01*
X166332603Y-81331137D01*
X166289164Y-81367709D01*
X166249391Y-81401248D01*
X166213997Y-81431158D01*
X166183695Y-81456843D01*
X166159198Y-81477704D01*
X166141218Y-81493145D01*
X166130468Y-81502570D01*
X166127578Y-81505332D01*
X166129309Y-81511371D01*
X166136975Y-81525942D01*
X166150626Y-81549126D01*
X166170314Y-81581005D01*
X166196089Y-81621658D01*
X166228001Y-81671168D01*
X166266102Y-81729614D01*
X166302689Y-81785315D01*
X166335100Y-81834578D01*
X166365590Y-81881030D01*
X166393632Y-81923865D01*
X166418703Y-81962275D01*
X166440276Y-81995453D01*
X166457829Y-82022593D01*
X166470835Y-82042887D01*
X166478770Y-82055528D01*
X166481137Y-82059712D01*
X166475766Y-82058365D01*
X166460564Y-82054056D01*
X166436277Y-82047008D01*
X166403653Y-82037442D01*
X166363437Y-82025578D01*
X166316377Y-82011638D01*
X166263219Y-81995843D01*
X166204710Y-81978415D01*
X166141596Y-81959574D01*
X166074624Y-81939541D01*
X166004540Y-81918539D01*
X166000385Y-81917292D01*
X165930120Y-81896248D01*
X165862903Y-81876184D01*
X165799482Y-81857319D01*
X165740605Y-81839873D01*
X165687021Y-81824066D01*
X165639479Y-81810116D01*
X165598728Y-81798245D01*
X165565515Y-81788671D01*
X165540590Y-81781614D01*
X165524701Y-81777294D01*
X165518597Y-81775930D01*
X165518560Y-81775946D01*
X165518040Y-81781649D01*
X165517077Y-81797778D01*
X165515698Y-81823721D01*
X165513931Y-81858868D01*
X165511806Y-81902608D01*
X165509349Y-81954330D01*
X165506589Y-82013424D01*
X165503555Y-82079279D01*
X165500275Y-82151284D01*
X165496777Y-82228829D01*
X165493090Y-82311302D01*
X165489241Y-82398094D01*
X165485259Y-82488593D01*
X165481173Y-82582189D01*
X165480730Y-82592382D01*
X165476614Y-82687058D01*
X165472604Y-82779189D01*
X165468729Y-82868122D01*
X165465018Y-82953206D01*
X165461499Y-83033790D01*
X165458201Y-83109222D01*
X165455152Y-83178850D01*
X165452380Y-83242022D01*
X165449915Y-83298088D01*
X165447785Y-83346396D01*
X165446019Y-83386293D01*
X165444645Y-83417129D01*
X165443691Y-83438252D01*
X165443186Y-83449010D01*
X165443178Y-83449163D01*
X165440998Y-83491965D01*
X165455272Y-83491749D01*
X165463196Y-83490922D01*
X165481046Y-83488613D01*
X165507826Y-83484965D01*
X165542537Y-83480118D01*
X165584180Y-83474215D01*
X165631757Y-83467396D01*
X165684270Y-83459805D01*
X165740719Y-83451580D01*
X165798162Y-83443152D01*
X165857015Y-83434556D01*
X165912544Y-83426579D01*
X165963802Y-83419348D01*
X166009838Y-83412991D01*
X166049704Y-83407635D01*
X166082451Y-83403407D01*
X166107128Y-83400436D01*
X166122788Y-83398848D01*
X166128480Y-83398772D01*
X166128482Y-83398778D01*
X166126070Y-83404105D01*
X166118547Y-83418203D01*
X166106353Y-83440296D01*
X166089930Y-83469606D01*
X166069718Y-83505355D01*
X166046157Y-83546765D01*
X166019689Y-83593059D01*
X165990753Y-83643459D01*
X165959792Y-83697188D01*
X165937389Y-83735948D01*
X165905285Y-83791452D01*
X165874870Y-83844088D01*
X165846586Y-83893088D01*
X165820876Y-83937682D01*
X165798182Y-83977102D01*
X165778947Y-84010578D01*
X165763613Y-84037341D01*
X165752623Y-84056622D01*
X165746419Y-84067652D01*
X165745161Y-84070052D01*
X165749191Y-84070730D01*
X165761035Y-84072185D01*
X165780865Y-84074436D01*
X165808852Y-84077500D01*
X165845168Y-84081395D01*
X165889984Y-84086138D01*
X165943470Y-84091747D01*
X166005799Y-84098240D01*
X166077141Y-84105635D01*
X166157667Y-84113948D01*
X166247550Y-84123198D01*
X166346959Y-84133403D01*
X166456067Y-84144579D01*
X166575045Y-84156746D01*
X166704063Y-84169919D01*
X166843293Y-84184118D01*
X166992906Y-84199359D01*
X167153074Y-84215661D01*
X167323967Y-84233040D01*
X167421906Y-84242995D01*
X167464165Y-84247314D01*
X167503720Y-84251403D01*
X167538988Y-84255094D01*
X167568390Y-84258220D01*
X167590343Y-84260615D01*
X167603265Y-84262112D01*
X167604846Y-84262318D01*
X167618008Y-84263440D01*
X167624274Y-84260011D01*
X167627277Y-84249228D01*
X167628042Y-84244420D01*
X167629799Y-84230914D01*
X167632238Y-84209362D01*
X167635038Y-84182716D01*
X167637878Y-84153928D01*
X167637913Y-84153561D01*
X167640720Y-84127501D01*
X167643631Y-84106236D01*
X167646332Y-84091726D01*
X167648505Y-84085937D01*
X167648793Y-84085957D01*
X167653273Y-84091168D01*
X167662851Y-84103819D01*
X167676325Y-84122275D01*
X167692494Y-84144903D01*
X167701527Y-84157715D01*
X167718737Y-84181542D01*
X167734168Y-84201613D01*
X167746571Y-84216400D01*
X167754696Y-84224375D01*
X167756839Y-84225318D01*
X167762119Y-84221991D01*
X167775863Y-84212667D01*
X167797520Y-84197731D01*
X167826539Y-84177570D01*
X167862369Y-84152571D01*
X167904460Y-84123119D01*
X167952260Y-84089600D01*
X168005219Y-84052402D01*
X168062786Y-84011909D01*
X168124410Y-83968509D01*
X168189540Y-83922587D01*
X168257626Y-83874530D01*
X168322259Y-83828865D01*
X168880908Y-83433975D01*
X168877543Y-82681549D01*
X168874748Y-82056375D01*
X168509975Y-82056375D01*
X168508570Y-82651190D01*
X168507164Y-83246006D01*
X168054283Y-83567438D01*
X167976716Y-83622444D01*
X167907671Y-83671297D01*
X167846708Y-83714300D01*
X167793387Y-83751755D01*
X167747265Y-83783963D01*
X167707903Y-83811228D01*
X167674858Y-83833851D01*
X167647691Y-83852133D01*
X167625960Y-83866378D01*
X167609224Y-83876888D01*
X167597042Y-83883963D01*
X167588973Y-83887907D01*
X167584833Y-83889030D01*
X167577213Y-83888495D01*
X167559332Y-83886898D01*
X167531916Y-83884309D01*
X167495690Y-83880802D01*
X167451382Y-83876449D01*
X167399716Y-83871322D01*
X167341419Y-83865493D01*
X167277217Y-83859035D01*
X167207837Y-83852021D01*
X167134003Y-83844522D01*
X167056443Y-83836612D01*
X166975881Y-83828362D01*
X166962278Y-83826966D01*
X166881593Y-83818654D01*
X166803998Y-83810609D01*
X166730198Y-83802906D01*
X166660900Y-83795620D01*
X166596808Y-83788829D01*
X166538629Y-83782608D01*
X166487069Y-83777033D01*
X166442832Y-83772179D01*
X166406625Y-83768123D01*
X166379152Y-83764941D01*
X166361121Y-83762709D01*
X166353236Y-83761502D01*
X166352941Y-83761393D01*
X166355140Y-83756222D01*
X166362495Y-83742193D01*
X166374616Y-83719996D01*
X166391109Y-83690326D01*
X166411586Y-83653873D01*
X166435652Y-83611331D01*
X166462918Y-83563391D01*
X166492992Y-83510746D01*
X166525481Y-83454089D01*
X166559996Y-83394112D01*
X166590103Y-83341953D01*
X166630060Y-83272676D01*
X166667092Y-83208167D01*
X166700914Y-83148935D01*
X166731241Y-83095490D01*
X166757788Y-83048344D01*
X166780268Y-83008005D01*
X166798397Y-82974984D01*
X166811889Y-82949792D01*
X166820460Y-82932937D01*
X166823823Y-82924931D01*
X166823738Y-82924317D01*
X166817375Y-82924872D01*
X166800868Y-82926925D01*
X166775002Y-82930368D01*
X166740560Y-82935088D01*
X166698326Y-82940975D01*
X166649085Y-82947919D01*
X166593620Y-82955809D01*
X166532715Y-82964534D01*
X166467155Y-82973984D01*
X166397723Y-82984049D01*
X166325205Y-82994617D01*
X166323318Y-82994893D01*
X166250882Y-83005460D01*
X166181621Y-83015527D01*
X166116309Y-83024985D01*
X166055717Y-83033724D01*
X166000618Y-83041632D01*
X165951784Y-83048600D01*
X165909987Y-83054518D01*
X165875999Y-83059276D01*
X165850592Y-83062763D01*
X165834539Y-83064869D01*
X165828612Y-83065485D01*
X165828597Y-83065477D01*
X165828531Y-83059716D01*
X165828948Y-83043988D01*
X165829800Y-83019354D01*
X165831039Y-82986876D01*
X165832617Y-82947617D01*
X165834486Y-82902639D01*
X165836599Y-82853003D01*
X165838907Y-82799772D01*
X165841362Y-82744008D01*
X165843917Y-82686773D01*
X165846523Y-82629129D01*
X165849133Y-82572139D01*
X165851698Y-82516864D01*
X165854171Y-82464366D01*
X165856504Y-82415708D01*
X165858648Y-82371952D01*
X165860556Y-82334160D01*
X165862179Y-82303394D01*
X165863471Y-82280716D01*
X165864382Y-82267188D01*
X165864797Y-82263673D01*
X165870285Y-82264935D01*
X165885747Y-82269203D01*
X165910578Y-82276299D01*
X165944176Y-82286044D01*
X165985937Y-82298260D01*
X166035257Y-82312768D01*
X166091533Y-82329391D01*
X166154162Y-82347948D01*
X166222539Y-82368263D01*
X166296062Y-82390156D01*
X166374126Y-82413449D01*
X166456129Y-82437963D01*
X166541467Y-82463521D01*
X166601796Y-82481616D01*
X166689117Y-82507803D01*
X166773541Y-82533085D01*
X166854464Y-82557281D01*
X166931279Y-82580212D01*
X167003382Y-82601699D01*
X167070165Y-82621561D01*
X167131025Y-82639620D01*
X167185354Y-82655696D01*
X167232548Y-82669609D01*
X167272002Y-82681181D01*
X167303108Y-82690230D01*
X167325263Y-82696578D01*
X167337860Y-82700046D01*
X167340660Y-82700666D01*
X167338240Y-82695973D01*
X167330098Y-82682627D01*
X167316598Y-82661194D01*
X167298107Y-82632237D01*
X167274992Y-82596320D01*
X167247618Y-82554008D01*
X167216351Y-82505863D01*
X167181558Y-82452451D01*
X167143605Y-82394335D01*
X167102858Y-82332079D01*
X167059682Y-82266247D01*
X167014445Y-82197404D01*
X166979491Y-82144296D01*
X166932858Y-82073447D01*
X166887940Y-82005117D01*
X166845110Y-81939876D01*
X166804741Y-81878296D01*
X166767204Y-81820947D01*
X166732872Y-81768400D01*
X166702118Y-81721227D01*
X166675314Y-81679999D01*
X166652832Y-81645286D01*
X166635045Y-81617660D01*
X166622325Y-81597692D01*
X166615045Y-81585953D01*
X166613380Y-81582906D01*
X166617375Y-81578196D01*
X166629060Y-81567135D01*
X166647624Y-81550427D01*
X166672259Y-81528777D01*
X166702154Y-81502891D01*
X166736500Y-81473472D01*
X166774489Y-81441227D01*
X166815310Y-81406859D01*
X166821147Y-81401966D01*
X167029498Y-81227434D01*
X167575944Y-81395907D01*
X167651257Y-81419135D01*
X167723758Y-81441515D01*
X167792729Y-81462823D01*
X167857453Y-81482837D01*
X167917211Y-81501333D01*
X167971286Y-81518090D01*
X168018959Y-81532885D01*
X168059514Y-81545496D01*
X168092231Y-81555699D01*
X168116394Y-81563273D01*
X168131284Y-81567995D01*
X168136018Y-81569561D01*
X168142708Y-81575348D01*
X168155633Y-81589882D01*
X168174604Y-81612923D01*
X168199433Y-81644232D01*
X168229932Y-81683570D01*
X168265911Y-81730697D01*
X168307182Y-81785373D01*
X168329811Y-81815559D01*
X168509975Y-82056375D01*
X168874748Y-82056375D01*
X168874179Y-81929124D01*
X168627808Y-81599053D01*
X168587938Y-81545658D01*
X168549905Y-81494767D01*
X168514239Y-81447082D01*
X168481469Y-81403311D01*
X168452124Y-81364157D01*
X168426732Y-81330327D01*
X168405822Y-81302524D01*
X168389923Y-81281455D01*
X168379564Y-81267825D01*
X168375274Y-81262338D01*
X168375264Y-81262327D01*
X168369292Y-81259873D01*
X168353519Y-81254437D01*
X168328691Y-81246252D01*
X168295552Y-81235546D01*
X168254850Y-81222549D01*
X168207328Y-81207493D01*
X168153733Y-81190606D01*
X168094810Y-81172119D01*
X168031305Y-81152263D01*
X167963962Y-81131267D01*
X167893528Y-81109361D01*
X167820748Y-81086776D01*
X167746367Y-81063742D01*
X167671130Y-81040488D01*
X167595784Y-81017245D01*
X167521074Y-80994244D01*
X167447745Y-80971713D01*
X167376542Y-80949884D01*
X167308212Y-80928986D01*
X167243499Y-80909249D01*
X167183150Y-80890905D01*
X167127908Y-80874181D01*
X167078521Y-80859310D01*
X167035733Y-80846521D01*
X167000290Y-80836044D01*
X166972938Y-80828109D01*
X166954421Y-80822946D01*
X166945486Y-80820786D01*
X166944795Y-80820753D01*
X166939606Y-80824651D01*
G36*
X171481822Y-81117348D02*
G01*
X171493350Y-81128349D01*
X171512111Y-81146161D01*
X171537700Y-81170402D01*
X171569714Y-81200691D01*
X171607748Y-81236647D01*
X171651399Y-81277887D01*
X171700262Y-81324031D01*
X171753934Y-81374697D01*
X171812011Y-81429504D01*
X171874088Y-81488069D01*
X171939762Y-81550012D01*
X172008628Y-81614952D01*
X172080283Y-81682506D01*
X172154323Y-81752293D01*
X172189428Y-81785377D01*
X172266223Y-81857755D01*
X172341867Y-81929063D01*
X172415874Y-81998844D01*
X172487762Y-82066642D01*
X172557044Y-82131997D01*
X172623236Y-82194453D01*
X172685855Y-82253553D01*
X172744414Y-82308838D01*
X172798430Y-82359852D01*
X172847419Y-82406137D01*
X172890895Y-82447235D01*
X172928373Y-82482688D01*
X172959371Y-82512040D01*
X172983402Y-82534833D01*
X172999982Y-82550609D01*
X173002553Y-82553066D01*
X173031037Y-82580232D01*
X173063987Y-82611527D01*
X173100408Y-82646016D01*
X173139303Y-82682764D01*
X173179677Y-82720834D01*
X173220534Y-82759292D01*
X173260877Y-82797202D01*
X173299712Y-82833628D01*
X173336041Y-82867636D01*
X173368870Y-82898290D01*
X173397202Y-82924654D01*
X173420041Y-82945793D01*
X173436391Y-82960773D01*
X173442138Y-82965940D01*
X173468626Y-82989448D01*
X173591961Y-82859088D01*
X173621805Y-82827476D01*
X173649136Y-82798397D01*
X173673044Y-82772827D01*
X173692622Y-82751742D01*
X173706962Y-82736120D01*
X173715155Y-82726936D01*
X173716746Y-82724915D01*
X173713201Y-82720387D01*
X173702472Y-82709200D01*
X173685453Y-82692227D01*
X173663041Y-82670343D01*
X173636128Y-82644422D01*
X173605611Y-82615337D01*
X173574546Y-82585997D01*
X173541389Y-82554675D01*
X173510932Y-82525641D01*
X173484083Y-82499781D01*
X173461749Y-82477978D01*
X173444836Y-82461118D01*
X173434251Y-82450086D01*
X173430881Y-82445831D01*
X173433333Y-82439931D01*
X173440411Y-82425061D01*
X173451682Y-82402073D01*
X173466717Y-82371820D01*
X173485085Y-82335152D01*
X173506355Y-82292921D01*
X173530097Y-82245980D01*
X173555880Y-82195179D01*
X173583273Y-82141371D01*
X173611845Y-82085407D01*
X173641166Y-82028138D01*
X173670806Y-81970417D01*
X173697128Y-81919308D01*
X173715269Y-81884735D01*
X173731663Y-81854647D01*
X173745616Y-81830241D01*
X173756430Y-81812715D01*
X173763409Y-81803268D01*
X173765298Y-81801946D01*
X173772654Y-81802684D01*
X173789402Y-81804763D01*
X173813999Y-81807978D01*
X173844899Y-81812123D01*
X173880558Y-81816996D01*
X173914447Y-81821695D01*
X173952595Y-81826944D01*
X173986965Y-81831531D01*
X174016100Y-81835272D01*
X174038538Y-81837984D01*
X174052821Y-81839484D01*
X174057497Y-81839644D01*
X174058541Y-81834048D01*
X174060853Y-81819091D01*
X174064215Y-81796335D01*
X174068408Y-81767342D01*
X174071122Y-81748327D01*
X173368041Y-81748327D01*
X173366516Y-81753874D01*
X173360588Y-81767608D01*
X173351005Y-81787945D01*
X173338512Y-81813300D01*
X173324198Y-81841426D01*
X173307646Y-81873512D01*
X173287545Y-81912527D01*
X173265390Y-81955569D01*
X173242673Y-81999737D01*
X173220886Y-82042132D01*
X173213003Y-82057483D01*
X173148440Y-82183230D01*
X173102397Y-82140327D01*
X173089937Y-82128672D01*
X173070319Y-82110264D01*
X173044421Y-82085927D01*
X173013118Y-82056487D01*
X172977290Y-82022770D01*
X172937812Y-81985601D01*
X172895562Y-81945806D01*
X172851418Y-81904209D01*
X172813239Y-81868221D01*
X172769944Y-81827326D01*
X172729237Y-81788722D01*
X172691796Y-81753065D01*
X172658301Y-81721008D01*
X172629434Y-81693208D01*
X172605872Y-81670319D01*
X172588297Y-81652996D01*
X172577389Y-81641893D01*
X172573826Y-81637666D01*
X172573848Y-81637649D01*
X172579929Y-81638109D01*
X172595869Y-81639983D01*
X172620611Y-81643123D01*
X172653099Y-81647382D01*
X172692279Y-81652612D01*
X172737094Y-81658667D01*
X172786489Y-81665399D01*
X172839407Y-81672662D01*
X172894795Y-81680308D01*
X172951594Y-81688190D01*
X173008751Y-81696161D01*
X173065209Y-81704074D01*
X173119912Y-81711782D01*
X173171806Y-81719137D01*
X173219834Y-81725993D01*
X173262940Y-81732203D01*
X173300070Y-81737618D01*
X173330167Y-81742093D01*
X173352175Y-81745480D01*
X173365039Y-81747632D01*
X173368041Y-81748327D01*
X174071122Y-81748327D01*
X174073214Y-81733674D01*
X174078415Y-81696894D01*
X174083792Y-81658562D01*
X174089127Y-81620241D01*
X174094202Y-81583494D01*
X174098799Y-81549883D01*
X174102699Y-81520968D01*
X174105684Y-81498313D01*
X174107535Y-81483480D01*
X174108036Y-81478032D01*
X174102595Y-81477192D01*
X174086825Y-81474923D01*
X174061337Y-81471310D01*
X174026746Y-81466439D01*
X173983662Y-81460396D01*
X173932698Y-81453265D01*
X173874467Y-81445133D01*
X173809582Y-81436085D01*
X173738653Y-81426206D01*
X173662294Y-81415582D01*
X173581118Y-81404298D01*
X173495736Y-81392440D01*
X173406761Y-81380093D01*
X173323168Y-81368501D01*
X173219558Y-81354139D01*
X173111414Y-81339148D01*
X173000045Y-81323710D01*
X172886758Y-81308005D01*
X172772864Y-81292215D01*
X172659670Y-81276522D01*
X172548486Y-81261108D01*
X172440620Y-81246153D01*
X172337382Y-81231839D01*
X172240079Y-81218348D01*
X172150022Y-81205861D01*
X172068519Y-81194560D01*
X172008708Y-81186266D01*
X171933554Y-81175852D01*
X171861564Y-81165895D01*
X171793485Y-81156496D01*
X171730060Y-81147756D01*
X171672035Y-81139779D01*
X171620155Y-81132665D01*
X171575165Y-81126518D01*
X171537810Y-81121439D01*
X171508835Y-81117531D01*
X171488984Y-81114895D01*
X171479003Y-81113633D01*
X171477931Y-81113540D01*
X171481822Y-81117348D01*
G37*
X171481822Y-81117348D02*
X171493350Y-81128349D01*
X171512111Y-81146161D01*
X171537700Y-81170402D01*
X171569714Y-81200691D01*
X171607748Y-81236647D01*
X171651399Y-81277887D01*
X171700262Y-81324031D01*
X171753934Y-81374697D01*
X171812011Y-81429504D01*
X171874088Y-81488069D01*
X171939762Y-81550012D01*
X172008628Y-81614952D01*
X172080283Y-81682506D01*
X172154323Y-81752293D01*
X172189428Y-81785377D01*
X172266223Y-81857755D01*
X172341867Y-81929063D01*
X172415874Y-81998844D01*
X172487762Y-82066642D01*
X172557044Y-82131997D01*
X172623236Y-82194453D01*
X172685855Y-82253553D01*
X172744414Y-82308838D01*
X172798430Y-82359852D01*
X172847419Y-82406137D01*
X172890895Y-82447235D01*
X172928373Y-82482688D01*
X172959371Y-82512040D01*
X172983402Y-82534833D01*
X172999982Y-82550609D01*
X173002553Y-82553066D01*
X173031037Y-82580232D01*
X173063987Y-82611527D01*
X173100408Y-82646016D01*
X173139303Y-82682764D01*
X173179677Y-82720834D01*
X173220534Y-82759292D01*
X173260877Y-82797202D01*
X173299712Y-82833628D01*
X173336041Y-82867636D01*
X173368870Y-82898290D01*
X173397202Y-82924654D01*
X173420041Y-82945793D01*
X173436391Y-82960773D01*
X173442138Y-82965940D01*
X173468626Y-82989448D01*
X173591961Y-82859088D01*
X173621805Y-82827476D01*
X173649136Y-82798397D01*
X173673044Y-82772827D01*
X173692622Y-82751742D01*
X173706962Y-82736120D01*
X173715155Y-82726936D01*
X173716746Y-82724915D01*
X173713201Y-82720387D01*
X173702472Y-82709200D01*
X173685453Y-82692227D01*
X173663041Y-82670343D01*
X173636128Y-82644422D01*
X173605611Y-82615337D01*
X173574546Y-82585997D01*
X173541389Y-82554675D01*
X173510932Y-82525641D01*
X173484083Y-82499781D01*
X173461749Y-82477978D01*
X173444836Y-82461118D01*
X173434251Y-82450086D01*
X173430881Y-82445831D01*
X173433333Y-82439931D01*
X173440411Y-82425061D01*
X173451682Y-82402073D01*
X173466717Y-82371820D01*
X173485085Y-82335152D01*
X173506355Y-82292921D01*
X173530097Y-82245980D01*
X173555880Y-82195179D01*
X173583273Y-82141371D01*
X173611845Y-82085407D01*
X173641166Y-82028138D01*
X173670806Y-81970417D01*
X173697128Y-81919308D01*
X173715269Y-81884735D01*
X173731663Y-81854647D01*
X173745616Y-81830241D01*
X173756430Y-81812715D01*
X173763409Y-81803268D01*
X173765298Y-81801946D01*
X173772654Y-81802684D01*
X173789402Y-81804763D01*
X173813999Y-81807978D01*
X173844899Y-81812123D01*
X173880558Y-81816996D01*
X173914447Y-81821695D01*
X173952595Y-81826944D01*
X173986965Y-81831531D01*
X174016100Y-81835272D01*
X174038538Y-81837984D01*
X174052821Y-81839484D01*
X174057497Y-81839644D01*
X174058541Y-81834048D01*
X174060853Y-81819091D01*
X174064215Y-81796335D01*
X174068408Y-81767342D01*
X174071122Y-81748327D01*
X173368041Y-81748327D01*
X173366516Y-81753874D01*
X173360588Y-81767608D01*
X173351005Y-81787945D01*
X173338512Y-81813300D01*
X173324198Y-81841426D01*
X173307646Y-81873512D01*
X173287545Y-81912527D01*
X173265390Y-81955569D01*
X173242673Y-81999737D01*
X173220886Y-82042132D01*
X173213003Y-82057483D01*
X173148440Y-82183230D01*
X173102397Y-82140327D01*
X173089937Y-82128672D01*
X173070319Y-82110264D01*
X173044421Y-82085927D01*
X173013118Y-82056487D01*
X172977290Y-82022770D01*
X172937812Y-81985601D01*
X172895562Y-81945806D01*
X172851418Y-81904209D01*
X172813239Y-81868221D01*
X172769944Y-81827326D01*
X172729237Y-81788722D01*
X172691796Y-81753065D01*
X172658301Y-81721008D01*
X172629434Y-81693208D01*
X172605872Y-81670319D01*
X172588297Y-81652996D01*
X172577389Y-81641893D01*
X172573826Y-81637666D01*
X172573848Y-81637649D01*
X172579929Y-81638109D01*
X172595869Y-81639983D01*
X172620611Y-81643123D01*
X172653099Y-81647382D01*
X172692279Y-81652612D01*
X172737094Y-81658667D01*
X172786489Y-81665399D01*
X172839407Y-81672662D01*
X172894795Y-81680308D01*
X172951594Y-81688190D01*
X173008751Y-81696161D01*
X173065209Y-81704074D01*
X173119912Y-81711782D01*
X173171806Y-81719137D01*
X173219834Y-81725993D01*
X173262940Y-81732203D01*
X173300070Y-81737618D01*
X173330167Y-81742093D01*
X173352175Y-81745480D01*
X173365039Y-81747632D01*
X173368041Y-81748327D01*
X174071122Y-81748327D01*
X174073214Y-81733674D01*
X174078415Y-81696894D01*
X174083792Y-81658562D01*
X174089127Y-81620241D01*
X174094202Y-81583494D01*
X174098799Y-81549883D01*
X174102699Y-81520968D01*
X174105684Y-81498313D01*
X174107535Y-81483480D01*
X174108036Y-81478032D01*
X174102595Y-81477192D01*
X174086825Y-81474923D01*
X174061337Y-81471310D01*
X174026746Y-81466439D01*
X173983662Y-81460396D01*
X173932698Y-81453265D01*
X173874467Y-81445133D01*
X173809582Y-81436085D01*
X173738653Y-81426206D01*
X173662294Y-81415582D01*
X173581118Y-81404298D01*
X173495736Y-81392440D01*
X173406761Y-81380093D01*
X173323168Y-81368501D01*
X173219558Y-81354139D01*
X173111414Y-81339148D01*
X173000045Y-81323710D01*
X172886758Y-81308005D01*
X172772864Y-81292215D01*
X172659670Y-81276522D01*
X172548486Y-81261108D01*
X172440620Y-81246153D01*
X172337382Y-81231839D01*
X172240079Y-81218348D01*
X172150022Y-81205861D01*
X172068519Y-81194560D01*
X172008708Y-81186266D01*
X171933554Y-81175852D01*
X171861564Y-81165895D01*
X171793485Y-81156496D01*
X171730060Y-81147756D01*
X171672035Y-81139779D01*
X171620155Y-81132665D01*
X171575165Y-81126518D01*
X171537810Y-81121439D01*
X171508835Y-81117531D01*
X171488984Y-81114895D01*
X171479003Y-81113633D01*
X171477931Y-81113540D01*
X171481822Y-81117348D01*
G36*
X170949684Y-80473369D02*
G01*
X170899505Y-80474239D01*
X170852890Y-80475086D01*
X170810966Y-80475886D01*
X170774858Y-80476616D01*
X170745694Y-80477252D01*
X170724601Y-80477772D01*
X170712704Y-80478151D01*
X170710436Y-80478310D01*
X170710430Y-80483837D01*
X170710571Y-80499226D01*
X170710847Y-80523294D01*
X170711241Y-80554858D01*
X170711739Y-80592736D01*
X170712326Y-80635746D01*
X170712988Y-80682703D01*
X170713198Y-80697358D01*
X170716340Y-80915514D01*
X170793661Y-80915672D01*
X170820200Y-80915655D01*
X170855405Y-80915527D01*
X170896893Y-80915301D01*
X170942287Y-80914993D01*
X170989204Y-80914617D01*
X171033376Y-80914207D01*
X171195770Y-80912583D01*
X171192183Y-80842250D01*
X171191194Y-80816982D01*
X171190307Y-80783105D01*
X171189562Y-80743056D01*
X171189000Y-80699273D01*
X171188660Y-80654193D01*
X171188574Y-80620618D01*
X171188551Y-80469319D01*
X170949684Y-80473369D01*
G37*
X170949684Y-80473369D02*
X170899505Y-80474239D01*
X170852890Y-80475086D01*
X170810966Y-80475886D01*
X170774858Y-80476616D01*
X170745694Y-80477252D01*
X170724601Y-80477772D01*
X170712704Y-80478151D01*
X170710436Y-80478310D01*
X170710430Y-80483837D01*
X170710571Y-80499226D01*
X170710847Y-80523294D01*
X170711241Y-80554858D01*
X170711739Y-80592736D01*
X170712326Y-80635746D01*
X170712988Y-80682703D01*
X170713198Y-80697358D01*
X170716340Y-80915514D01*
X170793661Y-80915672D01*
X170820200Y-80915655D01*
X170855405Y-80915527D01*
X170896893Y-80915301D01*
X170942287Y-80914993D01*
X170989204Y-80914617D01*
X171033376Y-80914207D01*
X171195770Y-80912583D01*
X171192183Y-80842250D01*
X171191194Y-80816982D01*
X171190307Y-80783105D01*
X171189562Y-80743056D01*
X171189000Y-80699273D01*
X171188660Y-80654193D01*
X171188574Y-80620618D01*
X171188551Y-80469319D01*
X170949684Y-80473369D01*
G36*
X169449772Y-79495730D02*
G01*
X169399924Y-79496600D01*
X169353628Y-79497450D01*
X169312022Y-79498254D01*
X169276244Y-79498989D01*
X169247430Y-79499632D01*
X169226720Y-79500157D01*
X169215249Y-79500542D01*
X169213276Y-79500693D01*
X169213158Y-79506233D01*
X169213193Y-79521637D01*
X169213369Y-79545728D01*
X169213673Y-79577325D01*
X169214095Y-79615250D01*
X169214623Y-79658322D01*
X169215245Y-79705363D01*
X169215464Y-79721178D01*
X169218531Y-79940715D01*
X169290875Y-79939418D01*
X169315760Y-79939023D01*
X169349430Y-79938562D01*
X169389625Y-79938062D01*
X169434085Y-79937550D01*
X169480550Y-79937053D01*
X169526760Y-79936599D01*
X169528908Y-79936579D01*
X169694596Y-79935036D01*
X169693125Y-79737669D01*
X169692695Y-79690933D01*
X169692134Y-79646771D01*
X169691471Y-79606631D01*
X169690737Y-79571962D01*
X169689962Y-79544211D01*
X169689176Y-79524826D01*
X169688521Y-79516008D01*
X169685389Y-79491715D01*
X169449772Y-79495730D01*
G37*
X169449772Y-79495730D02*
X169399924Y-79496600D01*
X169353628Y-79497450D01*
X169312022Y-79498254D01*
X169276244Y-79498989D01*
X169247430Y-79499632D01*
X169226720Y-79500157D01*
X169215249Y-79500542D01*
X169213276Y-79500693D01*
X169213158Y-79506233D01*
X169213193Y-79521637D01*
X169213369Y-79545728D01*
X169213673Y-79577325D01*
X169214095Y-79615250D01*
X169214623Y-79658322D01*
X169215245Y-79705363D01*
X169215464Y-79721178D01*
X169218531Y-79940715D01*
X169290875Y-79939418D01*
X169315760Y-79939023D01*
X169349430Y-79938562D01*
X169389625Y-79938062D01*
X169434085Y-79937550D01*
X169480550Y-79937053D01*
X169526760Y-79936599D01*
X169528908Y-79936579D01*
X169694596Y-79935036D01*
X169693125Y-79737669D01*
X169692695Y-79690933D01*
X169692134Y-79646771D01*
X169691471Y-79606631D01*
X169690737Y-79571962D01*
X169689962Y-79544211D01*
X169689176Y-79524826D01*
X169688521Y-79516008D01*
X169685389Y-79491715D01*
X169449772Y-79495730D01*
G36*
X168052016Y-78551475D02*
G01*
X168002180Y-78552364D01*
X167955871Y-78553254D01*
X167914234Y-78554118D01*
X167878410Y-78554930D01*
X167849541Y-78555663D01*
X167828772Y-78556290D01*
X167817245Y-78556784D01*
X167815245Y-78556999D01*
X167814997Y-78562658D01*
X167814949Y-78578176D01*
X167815086Y-78602369D01*
X167815397Y-78634051D01*
X167815869Y-78672038D01*
X167816491Y-78715145D01*
X167817251Y-78762186D01*
X167817512Y-78777387D01*
X167821331Y-78996292D01*
X167901908Y-78995001D01*
X167929890Y-78994589D01*
X167966384Y-78994106D01*
X168008859Y-78993582D01*
X168054780Y-78993048D01*
X168101616Y-78992534D01*
X168138508Y-78992154D01*
X168294531Y-78990597D01*
X168294506Y-78831899D01*
X168294367Y-78787188D01*
X168293988Y-78742582D01*
X168293406Y-78700290D01*
X168292658Y-78662525D01*
X168291778Y-78631498D01*
X168290858Y-78610317D01*
X168287234Y-78547433D01*
X168052016Y-78551475D01*
G37*
X168052016Y-78551475D02*
X168002180Y-78552364D01*
X167955871Y-78553254D01*
X167914234Y-78554118D01*
X167878410Y-78554930D01*
X167849541Y-78555663D01*
X167828772Y-78556290D01*
X167817245Y-78556784D01*
X167815245Y-78556999D01*
X167814997Y-78562658D01*
X167814949Y-78578176D01*
X167815086Y-78602369D01*
X167815397Y-78634051D01*
X167815869Y-78672038D01*
X167816491Y-78715145D01*
X167817251Y-78762186D01*
X167817512Y-78777387D01*
X167821331Y-78996292D01*
X167901908Y-78995001D01*
X167929890Y-78994589D01*
X167966384Y-78994106D01*
X168008859Y-78993582D01*
X168054780Y-78993048D01*
X168101616Y-78992534D01*
X168138508Y-78992154D01*
X168294531Y-78990597D01*
X168294506Y-78831899D01*
X168294367Y-78787188D01*
X168293988Y-78742582D01*
X168293406Y-78700290D01*
X168292658Y-78662525D01*
X168291778Y-78631498D01*
X168290858Y-78610317D01*
X168287234Y-78547433D01*
X168052016Y-78551475D01*
G36*
X166739504Y-76243746D02*
G01*
X166717299Y-76243940D01*
X166685405Y-76244265D01*
X166645178Y-76244705D01*
X166597975Y-76245244D01*
X166545151Y-76245867D01*
X166488064Y-76246557D01*
X166428068Y-76247299D01*
X166366521Y-76248077D01*
X166329919Y-76248547D01*
X166008382Y-76252709D01*
X165640758Y-76789241D01*
X165015335Y-77096083D01*
X164937459Y-77134323D01*
X164862399Y-77171248D01*
X164790743Y-77206563D01*
X164723082Y-77239975D01*
X164660007Y-77271189D01*
X164602106Y-77299914D01*
X164549969Y-77325855D01*
X164504187Y-77348718D01*
X164465350Y-77368210D01*
X164434048Y-77384038D01*
X164410870Y-77395908D01*
X164396406Y-77403526D01*
X164391246Y-77406599D01*
X164391243Y-77406627D01*
X164395786Y-77410250D01*
X164408766Y-77419998D01*
X164429683Y-77435505D01*
X164458036Y-77456405D01*
X164493326Y-77482332D01*
X164535051Y-77512919D01*
X164582711Y-77547802D01*
X164635806Y-77586613D01*
X164693835Y-77628987D01*
X164756299Y-77674558D01*
X164822696Y-77722959D01*
X164892526Y-77773826D01*
X164965289Y-77826791D01*
X165034941Y-77877458D01*
X165677308Y-78344586D01*
X166037355Y-78343242D01*
X166110371Y-78342970D01*
X166192071Y-78342666D01*
X166280097Y-78342338D01*
X166372086Y-78341996D01*
X166465678Y-78341649D01*
X166558513Y-78341304D01*
X166648229Y-78340972D01*
X166732466Y-78340660D01*
X166790707Y-78340444D01*
X167184012Y-78338989D01*
X167770178Y-77900368D01*
X168080676Y-77668025D01*
X167466382Y-77668025D01*
X167264487Y-77819290D01*
X167062591Y-77970554D01*
X166503556Y-77974352D01*
X166424175Y-77974895D01*
X166346727Y-77975432D01*
X166272078Y-77975956D01*
X166201094Y-77976461D01*
X166134640Y-77976940D01*
X166073583Y-77977388D01*
X166018790Y-77977797D01*
X165971126Y-77978162D01*
X165931457Y-77978476D01*
X165900649Y-77978732D01*
X165879570Y-77978925D01*
X165872722Y-77978998D01*
X165800924Y-77979845D01*
X165563854Y-77807366D01*
X165326784Y-77634888D01*
X165376074Y-77633107D01*
X165388004Y-77632966D01*
X165410273Y-77633005D01*
X165442175Y-77633213D01*
X165483005Y-77633581D01*
X165532057Y-77634097D01*
X165588626Y-77634750D01*
X165652006Y-77635529D01*
X165721492Y-77636424D01*
X165796379Y-77637424D01*
X165875960Y-77638517D01*
X165959531Y-77639694D01*
X166046386Y-77640943D01*
X166135819Y-77642253D01*
X166227125Y-77643614D01*
X166319598Y-77645014D01*
X166412534Y-77646443D01*
X166505226Y-77647890D01*
X166596969Y-77649344D01*
X166687057Y-77650795D01*
X166774786Y-77652231D01*
X166859449Y-77653641D01*
X166940341Y-77655015D01*
X167016757Y-77656342D01*
X167087991Y-77657611D01*
X167153337Y-77658812D01*
X167212091Y-77659932D01*
X167263546Y-77660962D01*
X167306998Y-77661891D01*
X167341740Y-77662707D01*
X167367068Y-77663401D01*
X167382011Y-77663947D01*
X167466382Y-77668025D01*
X168080676Y-77668025D01*
X168356343Y-77461747D01*
X168337863Y-77452289D01*
X168330399Y-77448380D01*
X168313881Y-77439670D01*
X168289016Y-77426533D01*
X168256511Y-77409342D01*
X168217071Y-77388472D01*
X168171403Y-77364295D01*
X168120211Y-77337186D01*
X168064203Y-77307518D01*
X168029950Y-77289370D01*
X167241225Y-77289370D01*
X167238785Y-77291305D01*
X167227934Y-77292050D01*
X167216371Y-77291711D01*
X167207570Y-77291437D01*
X167188354Y-77291013D01*
X167159352Y-77290450D01*
X167121194Y-77289758D01*
X167074508Y-77288948D01*
X167019926Y-77288029D01*
X166958075Y-77287012D01*
X166889586Y-77285907D01*
X166815087Y-77284724D01*
X166735210Y-77283474D01*
X166650582Y-77282166D01*
X166561833Y-77280812D01*
X166469593Y-77279420D01*
X166374492Y-77278002D01*
X166351837Y-77277667D01*
X166256714Y-77276241D01*
X166164648Y-77274823D01*
X166076240Y-77273424D01*
X165992091Y-77272054D01*
X165912802Y-77270726D01*
X165838974Y-77269449D01*
X165771208Y-77268235D01*
X165710106Y-77267096D01*
X165656267Y-77266041D01*
X165610294Y-77265082D01*
X165572787Y-77264231D01*
X165544347Y-77263497D01*
X165525575Y-77262893D01*
X165517072Y-77262429D01*
X165516613Y-77262322D01*
X165521414Y-77259281D01*
X165535046Y-77251902D01*
X165556434Y-77240735D01*
X165584504Y-77226332D01*
X165618181Y-77209243D01*
X165656390Y-77190019D01*
X165698058Y-77169210D01*
X165705644Y-77165438D01*
X165894553Y-77071548D01*
X166045265Y-76850746D01*
X166075485Y-76806543D01*
X166103961Y-76765028D01*
X166130059Y-76727115D01*
X166153147Y-76693717D01*
X166172590Y-76665749D01*
X166187755Y-76644124D01*
X166198008Y-76629757D01*
X166202717Y-76623562D01*
X166202799Y-76623479D01*
X166208675Y-76621570D01*
X166222363Y-76619911D01*
X166244425Y-76618481D01*
X166275422Y-76617255D01*
X166315913Y-76616211D01*
X166366459Y-76615324D01*
X166412347Y-76614736D01*
X166615072Y-76612459D01*
X166756421Y-76859072D01*
X166897769Y-77105684D01*
X167067329Y-77195509D01*
X167107158Y-77216658D01*
X167143908Y-77236264D01*
X167176428Y-77253707D01*
X167203572Y-77268368D01*
X167224190Y-77279628D01*
X167237135Y-77286865D01*
X167241225Y-77289370D01*
X168029950Y-77289370D01*
X168004083Y-77275666D01*
X167940559Y-77242003D01*
X167874336Y-77206902D01*
X167855457Y-77196894D01*
X167786022Y-77160091D01*
X167717267Y-77123660D01*
X167650100Y-77088080D01*
X167585425Y-77053831D01*
X167524150Y-77021392D01*
X167467180Y-76991244D01*
X167415421Y-76963865D01*
X167369780Y-76939735D01*
X167331162Y-76919333D01*
X167300474Y-76903139D01*
X167278621Y-76891633D01*
X167278310Y-76891470D01*
X167165090Y-76831982D01*
X166996321Y-76537544D01*
X166827553Y-76243107D01*
X166739504Y-76243746D01*
G37*
X166739504Y-76243746D02*
X166717299Y-76243940D01*
X166685405Y-76244265D01*
X166645178Y-76244705D01*
X166597975Y-76245244D01*
X166545151Y-76245867D01*
X166488064Y-76246557D01*
X166428068Y-76247299D01*
X166366521Y-76248077D01*
X166329919Y-76248547D01*
X166008382Y-76252709D01*
X165640758Y-76789241D01*
X165015335Y-77096083D01*
X164937459Y-77134323D01*
X164862399Y-77171248D01*
X164790743Y-77206563D01*
X164723082Y-77239975D01*
X164660007Y-77271189D01*
X164602106Y-77299914D01*
X164549969Y-77325855D01*
X164504187Y-77348718D01*
X164465350Y-77368210D01*
X164434048Y-77384038D01*
X164410870Y-77395908D01*
X164396406Y-77403526D01*
X164391246Y-77406599D01*
X164391243Y-77406627D01*
X164395786Y-77410250D01*
X164408766Y-77419998D01*
X164429683Y-77435505D01*
X164458036Y-77456405D01*
X164493326Y-77482332D01*
X164535051Y-77512919D01*
X164582711Y-77547802D01*
X164635806Y-77586613D01*
X164693835Y-77628987D01*
X164756299Y-77674558D01*
X164822696Y-77722959D01*
X164892526Y-77773826D01*
X164965289Y-77826791D01*
X165034941Y-77877458D01*
X165677308Y-78344586D01*
X166037355Y-78343242D01*
X166110371Y-78342970D01*
X166192071Y-78342666D01*
X166280097Y-78342338D01*
X166372086Y-78341996D01*
X166465678Y-78341649D01*
X166558513Y-78341304D01*
X166648229Y-78340972D01*
X166732466Y-78340660D01*
X166790707Y-78340444D01*
X167184012Y-78338989D01*
X167770178Y-77900368D01*
X168080676Y-77668025D01*
X167466382Y-77668025D01*
X167264487Y-77819290D01*
X167062591Y-77970554D01*
X166503556Y-77974352D01*
X166424175Y-77974895D01*
X166346727Y-77975432D01*
X166272078Y-77975956D01*
X166201094Y-77976461D01*
X166134640Y-77976940D01*
X166073583Y-77977388D01*
X166018790Y-77977797D01*
X165971126Y-77978162D01*
X165931457Y-77978476D01*
X165900649Y-77978732D01*
X165879570Y-77978925D01*
X165872722Y-77978998D01*
X165800924Y-77979845D01*
X165563854Y-77807366D01*
X165326784Y-77634888D01*
X165376074Y-77633107D01*
X165388004Y-77632966D01*
X165410273Y-77633005D01*
X165442175Y-77633213D01*
X165483005Y-77633581D01*
X165532057Y-77634097D01*
X165588626Y-77634750D01*
X165652006Y-77635529D01*
X165721492Y-77636424D01*
X165796379Y-77637424D01*
X165875960Y-77638517D01*
X165959531Y-77639694D01*
X166046386Y-77640943D01*
X166135819Y-77642253D01*
X166227125Y-77643614D01*
X166319598Y-77645014D01*
X166412534Y-77646443D01*
X166505226Y-77647890D01*
X166596969Y-77649344D01*
X166687057Y-77650795D01*
X166774786Y-77652231D01*
X166859449Y-77653641D01*
X166940341Y-77655015D01*
X167016757Y-77656342D01*
X167087991Y-77657611D01*
X167153337Y-77658812D01*
X167212091Y-77659932D01*
X167263546Y-77660962D01*
X167306998Y-77661891D01*
X167341740Y-77662707D01*
X167367068Y-77663401D01*
X167382011Y-77663947D01*
X167466382Y-77668025D01*
X168080676Y-77668025D01*
X168356343Y-77461747D01*
X168337863Y-77452289D01*
X168330399Y-77448380D01*
X168313881Y-77439670D01*
X168289016Y-77426533D01*
X168256511Y-77409342D01*
X168217071Y-77388472D01*
X168171403Y-77364295D01*
X168120211Y-77337186D01*
X168064203Y-77307518D01*
X168029950Y-77289370D01*
X167241225Y-77289370D01*
X167238785Y-77291305D01*
X167227934Y-77292050D01*
X167216371Y-77291711D01*
X167207570Y-77291437D01*
X167188354Y-77291013D01*
X167159352Y-77290450D01*
X167121194Y-77289758D01*
X167074508Y-77288948D01*
X167019926Y-77288029D01*
X166958075Y-77287012D01*
X166889586Y-77285907D01*
X166815087Y-77284724D01*
X166735210Y-77283474D01*
X166650582Y-77282166D01*
X166561833Y-77280812D01*
X166469593Y-77279420D01*
X166374492Y-77278002D01*
X166351837Y-77277667D01*
X166256714Y-77276241D01*
X166164648Y-77274823D01*
X166076240Y-77273424D01*
X165992091Y-77272054D01*
X165912802Y-77270726D01*
X165838974Y-77269449D01*
X165771208Y-77268235D01*
X165710106Y-77267096D01*
X165656267Y-77266041D01*
X165610294Y-77265082D01*
X165572787Y-77264231D01*
X165544347Y-77263497D01*
X165525575Y-77262893D01*
X165517072Y-77262429D01*
X165516613Y-77262322D01*
X165521414Y-77259281D01*
X165535046Y-77251902D01*
X165556434Y-77240735D01*
X165584504Y-77226332D01*
X165618181Y-77209243D01*
X165656390Y-77190019D01*
X165698058Y-77169210D01*
X165705644Y-77165438D01*
X165894553Y-77071548D01*
X166045265Y-76850746D01*
X166075485Y-76806543D01*
X166103961Y-76765028D01*
X166130059Y-76727115D01*
X166153147Y-76693717D01*
X166172590Y-76665749D01*
X166187755Y-76644124D01*
X166198008Y-76629757D01*
X166202717Y-76623562D01*
X166202799Y-76623479D01*
X166208675Y-76621570D01*
X166222363Y-76619911D01*
X166244425Y-76618481D01*
X166275422Y-76617255D01*
X166315913Y-76616211D01*
X166366459Y-76615324D01*
X166412347Y-76614736D01*
X166615072Y-76612459D01*
X166756421Y-76859072D01*
X166897769Y-77105684D01*
X167067329Y-77195509D01*
X167107158Y-77216658D01*
X167143908Y-77236264D01*
X167176428Y-77253707D01*
X167203572Y-77268368D01*
X167224190Y-77279628D01*
X167237135Y-77286865D01*
X167241225Y-77289370D01*
X168029950Y-77289370D01*
X168004083Y-77275666D01*
X167940559Y-77242003D01*
X167874336Y-77206902D01*
X167855457Y-77196894D01*
X167786022Y-77160091D01*
X167717267Y-77123660D01*
X167650100Y-77088080D01*
X167585425Y-77053831D01*
X167524150Y-77021392D01*
X167467180Y-76991244D01*
X167415421Y-76963865D01*
X167369780Y-76939735D01*
X167331162Y-76919333D01*
X167300474Y-76903139D01*
X167278621Y-76891633D01*
X167278310Y-76891470D01*
X167165090Y-76831982D01*
X166996321Y-76537544D01*
X166827553Y-76243107D01*
X166739504Y-76243746D01*
G04 #@! TO.C,REF\u002A\u002A*
D11*
X139773333Y-127112380D02*
X140106666Y-126636190D01*
X140344761Y-127112380D02*
X140344761Y-126112380D01*
X139963809Y-126112380D01*
X139868571Y-126160000D01*
X139820952Y-126207619D01*
X139773333Y-126302857D01*
X139773333Y-126445714D01*
X139820952Y-126540952D01*
X139868571Y-126588571D01*
X139963809Y-126636190D01*
X140344761Y-126636190D01*
X139344761Y-126588571D02*
X139011428Y-126588571D01*
X138868571Y-127112380D02*
X139344761Y-127112380D01*
X139344761Y-126112380D01*
X138868571Y-126112380D01*
X138106666Y-126588571D02*
X138440000Y-126588571D01*
X138440000Y-127112380D02*
X138440000Y-126112380D01*
X137963809Y-126112380D01*
X137440000Y-126112380D02*
X137440000Y-126350476D01*
X137678095Y-126255238D02*
X137440000Y-126350476D01*
X137201904Y-126255238D01*
X137582857Y-126540952D02*
X137440000Y-126350476D01*
X137297142Y-126540952D01*
X136678095Y-126112380D02*
X136678095Y-126350476D01*
X136916190Y-126255238D02*
X136678095Y-126350476D01*
X136440000Y-126255238D01*
X136820952Y-126540952D02*
X136678095Y-126350476D01*
X136535238Y-126540952D01*
X170252773Y-130252340D02*
X170586106Y-129776150D01*
X170824201Y-130252340D02*
X170824201Y-129252340D01*
X170443249Y-129252340D01*
X170348011Y-129299960D01*
X170300392Y-129347579D01*
X170252773Y-129442817D01*
X170252773Y-129585674D01*
X170300392Y-129680912D01*
X170348011Y-129728531D01*
X170443249Y-129776150D01*
X170824201Y-129776150D01*
X169824201Y-129728531D02*
X169490868Y-129728531D01*
X169348011Y-130252340D02*
X169824201Y-130252340D01*
X169824201Y-129252340D01*
X169348011Y-129252340D01*
X168586106Y-129728531D02*
X168919440Y-129728531D01*
X168919440Y-130252340D02*
X168919440Y-129252340D01*
X168443249Y-129252340D01*
X167919440Y-129252340D02*
X167919440Y-129490436D01*
X168157535Y-129395198D02*
X167919440Y-129490436D01*
X167681344Y-129395198D01*
X168062297Y-129680912D02*
X167919440Y-129490436D01*
X167776582Y-129680912D01*
X167157535Y-129252340D02*
X167157535Y-129490436D01*
X167395630Y-129395198D02*
X167157535Y-129490436D01*
X166919440Y-129395198D01*
X167300392Y-129680912D02*
X167157535Y-129490436D01*
X167014678Y-129680912D01*
G04 #@! TD*
M02*
