G04 #@! TF.GenerationSoftware,KiCad,Pcbnew,5.1.9+dfsg1-1*
G04 #@! TF.CreationDate,2022-06-11T22:33:06-07:00*
G04 #@! TF.ProjectId,keygame,6b657967-616d-4652-9e6b-696361645f70,rev?*
G04 #@! TF.SameCoordinates,Original*
G04 #@! TF.FileFunction,Legend,Top*
G04 #@! TF.FilePolarity,Positive*
%FSLAX46Y46*%
G04 Gerber Fmt 4.6, Leading zero omitted, Abs format (unit mm)*
G04 Created by KiCad (PCBNEW 5.1.9+dfsg1-1) date 2022-06-11 22:33:06*
%MOMM*%
%LPD*%
G01*
G04 APERTURE LIST*
%ADD10C,0.187500*%
%ADD11C,0.500000*%
%ADD12C,0.250000*%
%ADD13C,0.200000*%
%ADD14C,0.120000*%
%ADD15C,0.150000*%
G04 APERTURE END LIST*
D10*
X167028571Y-17139285D02*
X167028571Y-16389285D01*
X167278571Y-16925000D01*
X167528571Y-16389285D01*
X167528571Y-17139285D01*
X167885714Y-17139285D02*
X167885714Y-16389285D01*
X168671428Y-17067857D02*
X168635714Y-17103571D01*
X168528571Y-17139285D01*
X168457142Y-17139285D01*
X168350000Y-17103571D01*
X168278571Y-17032142D01*
X168242857Y-16960714D01*
X168207142Y-16817857D01*
X168207142Y-16710714D01*
X168242857Y-16567857D01*
X168278571Y-16496428D01*
X168350000Y-16425000D01*
X168457142Y-16389285D01*
X168528571Y-16389285D01*
X168635714Y-16425000D01*
X168671428Y-16460714D01*
X169421428Y-17139285D02*
X169171428Y-16782142D01*
X168992857Y-17139285D02*
X168992857Y-16389285D01*
X169278571Y-16389285D01*
X169350000Y-16425000D01*
X169385714Y-16460714D01*
X169421428Y-16532142D01*
X169421428Y-16639285D01*
X169385714Y-16710714D01*
X169350000Y-16746428D01*
X169278571Y-16782142D01*
X168992857Y-16782142D01*
X169885714Y-16389285D02*
X170028571Y-16389285D01*
X170100000Y-16425000D01*
X170171428Y-16496428D01*
X170207142Y-16639285D01*
X170207142Y-16889285D01*
X170171428Y-17032142D01*
X170100000Y-17103571D01*
X170028571Y-17139285D01*
X169885714Y-17139285D01*
X169814285Y-17103571D01*
X169742857Y-17032142D01*
X169707142Y-16889285D01*
X169707142Y-16639285D01*
X169742857Y-16496428D01*
X169814285Y-16425000D01*
X169885714Y-16389285D01*
D11*
X164000000Y-99500000D02*
X161500000Y-98000000D01*
X155000000Y-90500000D02*
X154000000Y-93000000D01*
X164000000Y-99500000D02*
G75*
G02*
X155000000Y-90500000I0J9000000D01*
G01*
D10*
X134857142Y-35589285D02*
X134500000Y-35589285D01*
X134464285Y-35946428D01*
X134500000Y-35910714D01*
X134571428Y-35875000D01*
X134750000Y-35875000D01*
X134821428Y-35910714D01*
X134857142Y-35946428D01*
X134892857Y-36017857D01*
X134892857Y-36196428D01*
X134857142Y-36267857D01*
X134821428Y-36303571D01*
X134750000Y-36339285D01*
X134571428Y-36339285D01*
X134500000Y-36303571D01*
X134464285Y-36267857D01*
X135107142Y-35589285D02*
X135357142Y-36339285D01*
X135607142Y-35589285D01*
X134428571Y-48125000D02*
X134357142Y-48089285D01*
X134250000Y-48089285D01*
X134142857Y-48125000D01*
X134071428Y-48196428D01*
X134035714Y-48267857D01*
X134000000Y-48410714D01*
X134000000Y-48517857D01*
X134035714Y-48660714D01*
X134071428Y-48732142D01*
X134142857Y-48803571D01*
X134250000Y-48839285D01*
X134321428Y-48839285D01*
X134428571Y-48803571D01*
X134464285Y-48767857D01*
X134464285Y-48517857D01*
X134321428Y-48517857D01*
X134785714Y-48839285D02*
X134785714Y-48089285D01*
X135214285Y-48839285D01*
X135214285Y-48089285D01*
X135571428Y-48839285D02*
X135571428Y-48089285D01*
X135750000Y-48089285D01*
X135857142Y-48125000D01*
X135928571Y-48196428D01*
X135964285Y-48267857D01*
X136000000Y-48410714D01*
X136000000Y-48517857D01*
X135964285Y-48660714D01*
X135928571Y-48732142D01*
X135857142Y-48803571D01*
X135750000Y-48839285D01*
X135571428Y-48839285D01*
X134428571Y-45625000D02*
X134357142Y-45589285D01*
X134250000Y-45589285D01*
X134142857Y-45625000D01*
X134071428Y-45696428D01*
X134035714Y-45767857D01*
X134000000Y-45910714D01*
X134000000Y-46017857D01*
X134035714Y-46160714D01*
X134071428Y-46232142D01*
X134142857Y-46303571D01*
X134250000Y-46339285D01*
X134321428Y-46339285D01*
X134428571Y-46303571D01*
X134464285Y-46267857D01*
X134464285Y-46017857D01*
X134321428Y-46017857D01*
X134785714Y-46339285D02*
X134785714Y-45589285D01*
X135214285Y-46339285D01*
X135214285Y-45589285D01*
X135571428Y-46339285D02*
X135571428Y-45589285D01*
X135750000Y-45589285D01*
X135857142Y-45625000D01*
X135928571Y-45696428D01*
X135964285Y-45767857D01*
X136000000Y-45910714D01*
X136000000Y-46017857D01*
X135964285Y-46160714D01*
X135928571Y-46232142D01*
X135857142Y-46303571D01*
X135750000Y-46339285D01*
X135571428Y-46339285D01*
X134428571Y-43125000D02*
X134357142Y-43089285D01*
X134250000Y-43089285D01*
X134142857Y-43125000D01*
X134071428Y-43196428D01*
X134035714Y-43267857D01*
X134000000Y-43410714D01*
X134000000Y-43517857D01*
X134035714Y-43660714D01*
X134071428Y-43732142D01*
X134142857Y-43803571D01*
X134250000Y-43839285D01*
X134321428Y-43839285D01*
X134428571Y-43803571D01*
X134464285Y-43767857D01*
X134464285Y-43517857D01*
X134321428Y-43517857D01*
X134785714Y-43839285D02*
X134785714Y-43089285D01*
X135214285Y-43839285D01*
X135214285Y-43089285D01*
X135571428Y-43839285D02*
X135571428Y-43089285D01*
X135750000Y-43089285D01*
X135857142Y-43125000D01*
X135928571Y-43196428D01*
X135964285Y-43267857D01*
X136000000Y-43410714D01*
X136000000Y-43517857D01*
X135964285Y-43660714D01*
X135928571Y-43732142D01*
X135857142Y-43803571D01*
X135750000Y-43839285D01*
X135571428Y-43839285D01*
X134428571Y-40625000D02*
X134357142Y-40589285D01*
X134250000Y-40589285D01*
X134142857Y-40625000D01*
X134071428Y-40696428D01*
X134035714Y-40767857D01*
X134000000Y-40910714D01*
X134000000Y-41017857D01*
X134035714Y-41160714D01*
X134071428Y-41232142D01*
X134142857Y-41303571D01*
X134250000Y-41339285D01*
X134321428Y-41339285D01*
X134428571Y-41303571D01*
X134464285Y-41267857D01*
X134464285Y-41017857D01*
X134321428Y-41017857D01*
X134785714Y-41339285D02*
X134785714Y-40589285D01*
X135214285Y-41339285D01*
X135214285Y-40589285D01*
X135571428Y-41339285D02*
X135571428Y-40589285D01*
X135750000Y-40589285D01*
X135857142Y-40625000D01*
X135928571Y-40696428D01*
X135964285Y-40767857D01*
X136000000Y-40910714D01*
X136000000Y-41017857D01*
X135964285Y-41160714D01*
X135928571Y-41232142D01*
X135857142Y-41303571D01*
X135750000Y-41339285D01*
X135571428Y-41339285D01*
X134428571Y-38125000D02*
X134357142Y-38089285D01*
X134250000Y-38089285D01*
X134142857Y-38125000D01*
X134071428Y-38196428D01*
X134035714Y-38267857D01*
X134000000Y-38410714D01*
X134000000Y-38517857D01*
X134035714Y-38660714D01*
X134071428Y-38732142D01*
X134142857Y-38803571D01*
X134250000Y-38839285D01*
X134321428Y-38839285D01*
X134428571Y-38803571D01*
X134464285Y-38767857D01*
X134464285Y-38517857D01*
X134321428Y-38517857D01*
X134785714Y-38839285D02*
X134785714Y-38089285D01*
X135214285Y-38839285D01*
X135214285Y-38089285D01*
X135571428Y-38839285D02*
X135571428Y-38089285D01*
X135750000Y-38089285D01*
X135857142Y-38125000D01*
X135928571Y-38196428D01*
X135964285Y-38267857D01*
X136000000Y-38410714D01*
X136000000Y-38517857D01*
X135964285Y-38660714D01*
X135928571Y-38732142D01*
X135857142Y-38803571D01*
X135750000Y-38839285D01*
X135571428Y-38839285D01*
X134428571Y-33125000D02*
X134357142Y-33089285D01*
X134250000Y-33089285D01*
X134142857Y-33125000D01*
X134071428Y-33196428D01*
X134035714Y-33267857D01*
X134000000Y-33410714D01*
X134000000Y-33517857D01*
X134035714Y-33660714D01*
X134071428Y-33732142D01*
X134142857Y-33803571D01*
X134250000Y-33839285D01*
X134321428Y-33839285D01*
X134428571Y-33803571D01*
X134464285Y-33767857D01*
X134464285Y-33517857D01*
X134321428Y-33517857D01*
X134785714Y-33839285D02*
X134785714Y-33089285D01*
X135214285Y-33839285D01*
X135214285Y-33089285D01*
X135571428Y-33839285D02*
X135571428Y-33089285D01*
X135750000Y-33089285D01*
X135857142Y-33125000D01*
X135928571Y-33196428D01*
X135964285Y-33267857D01*
X136000000Y-33410714D01*
X136000000Y-33517857D01*
X135964285Y-33660714D01*
X135928571Y-33732142D01*
X135857142Y-33803571D01*
X135750000Y-33839285D01*
X135571428Y-33839285D01*
X134071428Y-30589285D02*
X134535714Y-30589285D01*
X134285714Y-30875000D01*
X134392857Y-30875000D01*
X134464285Y-30910714D01*
X134500000Y-30946428D01*
X134535714Y-31017857D01*
X134535714Y-31196428D01*
X134500000Y-31267857D01*
X134464285Y-31303571D01*
X134392857Y-31339285D01*
X134178571Y-31339285D01*
X134107142Y-31303571D01*
X134071428Y-31267857D01*
X134750000Y-30589285D02*
X135000000Y-31339285D01*
X135250000Y-30589285D01*
X135428571Y-30589285D02*
X135892857Y-30589285D01*
X135642857Y-30875000D01*
X135750000Y-30875000D01*
X135821428Y-30910714D01*
X135857142Y-30946428D01*
X135892857Y-31017857D01*
X135892857Y-31196428D01*
X135857142Y-31267857D01*
X135821428Y-31303571D01*
X135750000Y-31339285D01*
X135535714Y-31339285D01*
X135464285Y-31303571D01*
X135428571Y-31267857D01*
D12*
X142000000Y-97452380D02*
X142000000Y-98261904D01*
X142047619Y-98357142D01*
X142095238Y-98404761D01*
X142190476Y-98452380D01*
X142380952Y-98452380D01*
X142476190Y-98404761D01*
X142523809Y-98357142D01*
X142571428Y-98261904D01*
X142571428Y-97452380D01*
X143000000Y-98404761D02*
X143095238Y-98452380D01*
X143285714Y-98452380D01*
X143380952Y-98404761D01*
X143428571Y-98309523D01*
X143428571Y-98261904D01*
X143380952Y-98166666D01*
X143285714Y-98119047D01*
X143142857Y-98119047D01*
X143047619Y-98071428D01*
X143000000Y-97976190D01*
X143000000Y-97928571D01*
X143047619Y-97833333D01*
X143142857Y-97785714D01*
X143285714Y-97785714D01*
X143380952Y-97833333D01*
X144238095Y-98404761D02*
X144142857Y-98452380D01*
X143952380Y-98452380D01*
X143857142Y-98404761D01*
X143809523Y-98309523D01*
X143809523Y-97928571D01*
X143857142Y-97833333D01*
X143952380Y-97785714D01*
X144142857Y-97785714D01*
X144238095Y-97833333D01*
X144285714Y-97928571D01*
X144285714Y-98023809D01*
X143809523Y-98119047D01*
X145476190Y-98452380D02*
X145476190Y-97452380D01*
X145809523Y-98166666D01*
X146142857Y-97452380D01*
X146142857Y-98452380D01*
X146523809Y-97452380D02*
X147142857Y-97452380D01*
X146809523Y-97833333D01*
X146952380Y-97833333D01*
X147047619Y-97880952D01*
X147095238Y-97928571D01*
X147142857Y-98023809D01*
X147142857Y-98261904D01*
X147095238Y-98357142D01*
X147047619Y-98404761D01*
X146952380Y-98452380D01*
X146666666Y-98452380D01*
X146571428Y-98404761D01*
X146523809Y-98357142D01*
X148285714Y-98404761D02*
X148428571Y-98452380D01*
X148666666Y-98452380D01*
X148761904Y-98404761D01*
X148809523Y-98357142D01*
X148857142Y-98261904D01*
X148857142Y-98166666D01*
X148809523Y-98071428D01*
X148761904Y-98023809D01*
X148666666Y-97976190D01*
X148476190Y-97928571D01*
X148380952Y-97880952D01*
X148333333Y-97833333D01*
X148285714Y-97738095D01*
X148285714Y-97642857D01*
X148333333Y-97547619D01*
X148380952Y-97500000D01*
X148476190Y-97452380D01*
X148714285Y-97452380D01*
X148857142Y-97500000D01*
X149714285Y-98404761D02*
X149619047Y-98452380D01*
X149428571Y-98452380D01*
X149333333Y-98404761D01*
X149285714Y-98357142D01*
X149238095Y-98261904D01*
X149238095Y-97976190D01*
X149285714Y-97880952D01*
X149333333Y-97833333D01*
X149428571Y-97785714D01*
X149619047Y-97785714D01*
X149714285Y-97833333D01*
X150142857Y-98452380D02*
X150142857Y-97785714D01*
X150142857Y-97976190D02*
X150190476Y-97880952D01*
X150238095Y-97833333D01*
X150333333Y-97785714D01*
X150428571Y-97785714D01*
X151142857Y-98404761D02*
X151047619Y-98452380D01*
X150857142Y-98452380D01*
X150761904Y-98404761D01*
X150714285Y-98309523D01*
X150714285Y-97928571D01*
X150761904Y-97833333D01*
X150857142Y-97785714D01*
X151047619Y-97785714D01*
X151142857Y-97833333D01*
X151190476Y-97928571D01*
X151190476Y-98023809D01*
X150714285Y-98119047D01*
X151523809Y-97785714D02*
X151714285Y-98452380D01*
X151904761Y-97976190D01*
X152095238Y-98452380D01*
X152285714Y-97785714D01*
X152619047Y-98404761D02*
X152714285Y-98452380D01*
X152904761Y-98452380D01*
X153000000Y-98404761D01*
X153047619Y-98309523D01*
X153047619Y-98261904D01*
X153000000Y-98166666D01*
X152904761Y-98119047D01*
X152761904Y-98119047D01*
X152666666Y-98071428D01*
X152619047Y-97976190D01*
X152619047Y-97928571D01*
X152666666Y-97833333D01*
X152761904Y-97785714D01*
X152904761Y-97785714D01*
X153000000Y-97833333D01*
D10*
X170330773Y-18138895D02*
X170255012Y-18164149D01*
X170179251Y-18239911D01*
X170128743Y-18340926D01*
X170128743Y-18441941D01*
X170153997Y-18517703D01*
X170229758Y-18643972D01*
X170305520Y-18719733D01*
X170431789Y-18795495D01*
X170507550Y-18820748D01*
X170608565Y-18820748D01*
X170709581Y-18770241D01*
X170760088Y-18719733D01*
X170810596Y-18618718D01*
X170810596Y-18568210D01*
X170633819Y-18391434D01*
X170532804Y-18492449D01*
X171088388Y-18391434D02*
X170558058Y-17861104D01*
X171391434Y-18088388D01*
X170861104Y-17558058D01*
X171643972Y-17835850D02*
X171113642Y-17305520D01*
X171239911Y-17179251D01*
X171340926Y-17128743D01*
X171441941Y-17128743D01*
X171517703Y-17153997D01*
X171643972Y-17229758D01*
X171719733Y-17305520D01*
X171795495Y-17431789D01*
X171820748Y-17507550D01*
X171820748Y-17608565D01*
X171770241Y-17709581D01*
X171643972Y-17835850D01*
X164642385Y-19081852D02*
X164743400Y-19031345D01*
X164793908Y-19031345D01*
X164869669Y-19056599D01*
X164945431Y-19132360D01*
X164970685Y-19208122D01*
X164970685Y-19258629D01*
X164945431Y-19334391D01*
X164743400Y-19536421D01*
X164213070Y-19006091D01*
X164389847Y-18829314D01*
X164465608Y-18804061D01*
X164516116Y-18804061D01*
X164591877Y-18829314D01*
X164642385Y-18879822D01*
X164667639Y-18955583D01*
X164667639Y-19006091D01*
X164642385Y-19081852D01*
X164465608Y-19258629D01*
X164844416Y-18374746D02*
X164945431Y-18273730D01*
X165021192Y-18248477D01*
X165122208Y-18248477D01*
X165248477Y-18324238D01*
X165425253Y-18501015D01*
X165501015Y-18627284D01*
X165501015Y-18728299D01*
X165475761Y-18804061D01*
X165374746Y-18905076D01*
X165298984Y-18930330D01*
X165197969Y-18930330D01*
X165071700Y-18854568D01*
X164894923Y-18677791D01*
X164819162Y-18551522D01*
X164819162Y-18450507D01*
X164844416Y-18374746D01*
X165400000Y-17819162D02*
X165501015Y-17718147D01*
X165576776Y-17692893D01*
X165677791Y-17692893D01*
X165804061Y-17768654D01*
X165980837Y-17945431D01*
X166056599Y-18071700D01*
X166056599Y-18172715D01*
X166031345Y-18248477D01*
X165930330Y-18349492D01*
X165854568Y-18374746D01*
X165753553Y-18374746D01*
X165627284Y-18298984D01*
X165450507Y-18122208D01*
X165374746Y-17995938D01*
X165374746Y-17894923D01*
X165400000Y-17819162D01*
X165778807Y-17440355D02*
X166081852Y-17137309D01*
X166460660Y-17819162D02*
X165930330Y-17288832D01*
X168048477Y-19231345D02*
X167619162Y-19155583D01*
X167745431Y-19534391D02*
X167215101Y-19004061D01*
X167417131Y-18802030D01*
X167492893Y-18776776D01*
X167543400Y-18776776D01*
X167619162Y-18802030D01*
X167694923Y-18877791D01*
X167720177Y-18953553D01*
X167720177Y-19004061D01*
X167694923Y-19079822D01*
X167492893Y-19281852D01*
X167745431Y-18473730D02*
X168174746Y-18903045D01*
X168250507Y-18928299D01*
X168301015Y-18928299D01*
X168376776Y-18903045D01*
X168477791Y-18802030D01*
X168503045Y-18726269D01*
X168503045Y-18675761D01*
X168477791Y-18600000D01*
X168048477Y-18170685D01*
X168831345Y-18448477D02*
X168301015Y-17918147D01*
X169134391Y-18145431D01*
X168604061Y-17615101D01*
X162701015Y-18677791D02*
X162701015Y-18728299D01*
X162650507Y-18829314D01*
X162600000Y-18879822D01*
X162498984Y-18930330D01*
X162397969Y-18930330D01*
X162322208Y-18905076D01*
X162195938Y-18829314D01*
X162120177Y-18753553D01*
X162044416Y-18627284D01*
X162019162Y-18551522D01*
X162019162Y-18450507D01*
X162069669Y-18349492D01*
X162120177Y-18298984D01*
X162221192Y-18248477D01*
X162271700Y-18248477D01*
X162928299Y-18501015D02*
X163029314Y-18450507D01*
X163155583Y-18324238D01*
X163180837Y-18248477D01*
X163180837Y-18197969D01*
X163155583Y-18122208D01*
X163105076Y-18071700D01*
X163029314Y-18046446D01*
X162978807Y-18046446D01*
X162903045Y-18071700D01*
X162776776Y-18147461D01*
X162701015Y-18172715D01*
X162650507Y-18172715D01*
X162574746Y-18147461D01*
X162524238Y-18096954D01*
X162498984Y-18021192D01*
X162498984Y-17970685D01*
X162524238Y-17894923D01*
X162650507Y-17768654D01*
X162751522Y-17718147D01*
X159835850Y-19043972D02*
X159305520Y-18513642D01*
X159431789Y-18387373D01*
X159532804Y-18336865D01*
X159633819Y-18336865D01*
X159709581Y-18362119D01*
X159835850Y-18437880D01*
X159911611Y-18513642D01*
X159987373Y-18639911D01*
X160012626Y-18715672D01*
X160012626Y-18816687D01*
X159962119Y-18917703D01*
X159835850Y-19043972D01*
X160618718Y-18160088D02*
X160618718Y-18210596D01*
X160568210Y-18311611D01*
X160517703Y-18362119D01*
X160416687Y-18412626D01*
X160315672Y-18412626D01*
X160239911Y-18387373D01*
X160113642Y-18311611D01*
X160037880Y-18235850D01*
X159962119Y-18109581D01*
X159936865Y-18033819D01*
X159936865Y-17932804D01*
X159987373Y-17831789D01*
X160037880Y-17781281D01*
X160138895Y-17730773D01*
X160189403Y-17730773D01*
X157349492Y-18930330D02*
X156920177Y-18854568D01*
X157046446Y-19233375D02*
X156516116Y-18703045D01*
X156718147Y-18501015D01*
X156793908Y-18475761D01*
X156844416Y-18475761D01*
X156920177Y-18501015D01*
X156995938Y-18576776D01*
X157021192Y-18652538D01*
X157021192Y-18703045D01*
X156995938Y-18778807D01*
X156793908Y-18980837D01*
X157526269Y-18703045D02*
X157627284Y-18652538D01*
X157753553Y-18526269D01*
X157778807Y-18450507D01*
X157778807Y-18399999D01*
X157753553Y-18324238D01*
X157703045Y-18273730D01*
X157627284Y-18248477D01*
X157576776Y-18248477D01*
X157501015Y-18273730D01*
X157374746Y-18349492D01*
X157298984Y-18374746D01*
X157248477Y-18374746D01*
X157172715Y-18349492D01*
X157122208Y-18298984D01*
X157096954Y-18223223D01*
X157096954Y-18172715D01*
X157122208Y-18096954D01*
X157248477Y-17970685D01*
X157349492Y-17920177D01*
X157475761Y-17743400D02*
X157778807Y-17440355D01*
X158157614Y-18122208D02*
X157627284Y-17591877D01*
X154684327Y-19094479D02*
X154684327Y-19144987D01*
X154633819Y-19246002D01*
X154583312Y-19296510D01*
X154482296Y-19347018D01*
X154381281Y-19347018D01*
X154305520Y-19321764D01*
X154179251Y-19246002D01*
X154103489Y-19170241D01*
X154027728Y-19043972D01*
X154002474Y-18968210D01*
X154002474Y-18867195D01*
X154052981Y-18766180D01*
X154103489Y-18715672D01*
X154204504Y-18665165D01*
X154255012Y-18665165D01*
X154532804Y-18286357D02*
X154633819Y-18185342D01*
X154709581Y-18160088D01*
X154810596Y-18160088D01*
X154936865Y-18235850D01*
X155113642Y-18412626D01*
X155189403Y-18538895D01*
X155189403Y-18639911D01*
X155164149Y-18715672D01*
X155063134Y-18816687D01*
X154987373Y-18841941D01*
X154886357Y-18841941D01*
X154760088Y-18766180D01*
X154583312Y-18589403D01*
X154507550Y-18463134D01*
X154507550Y-18362119D01*
X154532804Y-18286357D01*
X155517703Y-18362119D02*
X154987373Y-17831789D01*
X155189403Y-17629758D01*
X155265165Y-17604504D01*
X155315672Y-17604504D01*
X155391434Y-17629758D01*
X155467195Y-17705520D01*
X155492449Y-17781281D01*
X155492449Y-17831789D01*
X155467195Y-17907550D01*
X155265165Y-18109581D01*
X156048033Y-17831789D02*
X155517703Y-17301459D01*
X152132804Y-19496510D02*
X152233819Y-19446002D01*
X152360088Y-19319733D01*
X152385342Y-19243972D01*
X152385342Y-19193464D01*
X152360088Y-19117703D01*
X152309581Y-19067195D01*
X152233819Y-19041941D01*
X152183312Y-19041941D01*
X152107550Y-19067195D01*
X151981281Y-19142956D01*
X151905520Y-19168210D01*
X151855012Y-19168210D01*
X151779251Y-19142956D01*
X151728743Y-19092449D01*
X151703489Y-19016687D01*
X151703489Y-18966180D01*
X151728743Y-18890418D01*
X151855012Y-18764149D01*
X151956027Y-18713642D01*
X152940926Y-18637880D02*
X152940926Y-18688388D01*
X152890418Y-18789403D01*
X152839911Y-18839911D01*
X152738895Y-18890418D01*
X152637880Y-18890418D01*
X152562119Y-18865165D01*
X152435850Y-18789403D01*
X152360088Y-18713642D01*
X152284327Y-18587373D01*
X152259073Y-18511611D01*
X152259073Y-18410596D01*
X152309581Y-18309581D01*
X152360088Y-18259073D01*
X152461104Y-18208565D01*
X152511611Y-18208565D01*
X153218718Y-18461104D02*
X152688388Y-17930773D01*
X153521764Y-18158058D02*
X152991434Y-18082296D01*
X152991434Y-17627728D02*
X152991434Y-18233819D01*
X156464285Y-17103571D02*
X156571428Y-17139285D01*
X156750000Y-17139285D01*
X156821428Y-17103571D01*
X156857142Y-17067857D01*
X156892857Y-16996428D01*
X156892857Y-16925000D01*
X156857142Y-16853571D01*
X156821428Y-16817857D01*
X156750000Y-16782142D01*
X156607142Y-16746428D01*
X156535714Y-16710714D01*
X156500000Y-16675000D01*
X156464285Y-16603571D01*
X156464285Y-16532142D01*
X156500000Y-16460714D01*
X156535714Y-16425000D01*
X156607142Y-16389285D01*
X156785714Y-16389285D01*
X156892857Y-16425000D01*
X157642857Y-17067857D02*
X157607142Y-17103571D01*
X157500000Y-17139285D01*
X157428571Y-17139285D01*
X157321428Y-17103571D01*
X157250000Y-17032142D01*
X157214285Y-16960714D01*
X157178571Y-16817857D01*
X157178571Y-16710714D01*
X157214285Y-16567857D01*
X157250000Y-16496428D01*
X157321428Y-16425000D01*
X157428571Y-16389285D01*
X157500000Y-16389285D01*
X157607142Y-16425000D01*
X157642857Y-16460714D01*
X158392857Y-17139285D02*
X158142857Y-16782142D01*
X157964285Y-17139285D02*
X157964285Y-16389285D01*
X158250000Y-16389285D01*
X158321428Y-16425000D01*
X158357142Y-16460714D01*
X158392857Y-16532142D01*
X158392857Y-16639285D01*
X158357142Y-16710714D01*
X158321428Y-16746428D01*
X158250000Y-16782142D01*
X157964285Y-16782142D01*
X158714285Y-16746428D02*
X158964285Y-16746428D01*
X159071428Y-17139285D02*
X158714285Y-17139285D01*
X158714285Y-16389285D01*
X159071428Y-16389285D01*
X159392857Y-16746428D02*
X159642857Y-16746428D01*
X159750000Y-17139285D02*
X159392857Y-17139285D01*
X159392857Y-16389285D01*
X159750000Y-16389285D01*
X160071428Y-17139285D02*
X160071428Y-16389285D01*
X160500000Y-17139285D01*
X160500000Y-16389285D01*
D13*
X164000000Y-22200000D02*
X164000000Y-16400000D01*
D14*
G04 #@! TO.C,LS1*
X180130000Y-63670000D02*
X180130000Y-66330000D01*
X182730000Y-63670000D02*
X180130000Y-63670000D01*
X182730000Y-66330000D02*
X180130000Y-66330000D01*
X182730000Y-63670000D02*
X182730000Y-66330000D01*
X184000000Y-63670000D02*
X185330000Y-63670000D01*
X185330000Y-63670000D02*
X185330000Y-65000000D01*
G04 #@! TO.C,SW1*
X153000000Y-82500000D02*
X157500000Y-82500000D01*
X151750000Y-78500000D02*
X151750000Y-80000000D01*
X157500000Y-76000000D02*
X153000000Y-76000000D01*
X158750000Y-80000000D02*
X158750000Y-78500000D01*
G04 #@! TO.C,SW2*
X143750000Y-80000000D02*
X143750000Y-78500000D01*
X142500000Y-76000000D02*
X138000000Y-76000000D01*
X136750000Y-78500000D02*
X136750000Y-80000000D01*
X138000000Y-82500000D02*
X142500000Y-82500000D01*
G04 #@! TO.C,SW3*
X170625001Y-81175001D02*
X175125001Y-81175001D01*
X169375001Y-77175001D02*
X169375001Y-78675001D01*
X175125001Y-74675001D02*
X170625001Y-74675001D01*
X176375001Y-78675001D02*
X176375001Y-77175001D01*
G04 #@! TO.C,SW4*
X186750000Y-74000000D02*
X186750000Y-72500000D01*
X185500000Y-70000000D02*
X181000000Y-70000000D01*
X179750000Y-72500000D02*
X179750000Y-74000000D01*
X181000000Y-76500000D02*
X185500000Y-76500000D01*
G04 #@! TO.C,SW5*
X151250000Y-87500000D02*
X151250000Y-86000000D01*
X150000000Y-83500000D02*
X145500000Y-83500000D01*
X144250000Y-86000000D02*
X144250000Y-87500000D01*
X145500000Y-90000000D02*
X150000000Y-90000000D01*
G04 #@! TO.C,SW6*
X145500000Y-75000000D02*
X150000000Y-75000000D01*
X144250000Y-71000000D02*
X144250000Y-72500000D01*
X150000000Y-68500000D02*
X145500000Y-68500000D01*
X151250000Y-72500000D02*
X151250000Y-71000000D01*
D15*
G04 #@! TO.C,U2*
X143500000Y-24000000D02*
X178500000Y-24000000D01*
X178500000Y-24000000D02*
X178500000Y-57000000D01*
X178500000Y-57000000D02*
X143500000Y-57000000D01*
X143500000Y-57000000D02*
X143500000Y-24000000D01*
X147000000Y-26000000D02*
G75*
G03*
X147000000Y-26000000I-1500000J0D01*
G01*
X178000000Y-26000000D02*
G75*
G03*
X178000000Y-26000000I-1500000J0D01*
G01*
X178000000Y-55000000D02*
G75*
G03*
X178000000Y-55000000I-1500000J0D01*
G01*
X147000000Y-55000000D02*
G75*
G03*
X147000000Y-55000000I-1500000J0D01*
G01*
X143500000Y-29000000D02*
X178500000Y-29000000D01*
X143500000Y-53000000D02*
X178500000Y-53000000D01*
D14*
G04 #@! TO.C,J1*
X171610000Y-22330000D02*
X171610000Y-19670000D01*
X153770000Y-22330000D02*
X171610000Y-22330000D01*
X153770000Y-19670000D02*
X171610000Y-19670000D01*
X153770000Y-22330000D02*
X153770000Y-19670000D01*
X152500000Y-22330000D02*
X151170000Y-22330000D01*
X151170000Y-22330000D02*
X151170000Y-21000000D01*
G04 #@! TO.C,RV1*
X157880000Y-85530000D02*
X161745000Y-85530000D01*
X166255000Y-85530000D02*
X170120000Y-85530000D01*
X157880000Y-95470000D02*
X161745000Y-95470000D01*
X166255000Y-95470000D02*
X170120000Y-95470000D01*
X157880000Y-85530000D02*
X157880000Y-87129000D01*
X157880000Y-88871000D02*
X157880000Y-89630000D01*
X157880000Y-91371000D02*
X157880000Y-92130000D01*
X157880000Y-93870000D02*
X157880000Y-95470000D01*
X170120000Y-85530000D02*
X170120000Y-95470000D01*
G04 #@! TO.C,J2*
X136670000Y-50110000D02*
X139330000Y-50110000D01*
X136670000Y-32270000D02*
X136670000Y-50110000D01*
X139330000Y-32270000D02*
X139330000Y-50110000D01*
X136670000Y-32270000D02*
X139330000Y-32270000D01*
X136670000Y-31000000D02*
X136670000Y-29670000D01*
X136670000Y-29670000D02*
X138000000Y-29670000D01*
G04 #@! TO.C,J3*
X141870000Y-39830000D02*
X139210000Y-39830000D01*
X141870000Y-47510000D02*
X141870000Y-39830000D01*
X139210000Y-47510000D02*
X139210000Y-39830000D01*
X141870000Y-47510000D02*
X139210000Y-47510000D01*
X141870000Y-48780000D02*
X141870000Y-50110000D01*
X141870000Y-50110000D02*
X140540000Y-50110000D01*
G04 #@! TO.C,H1*
D12*
X137238095Y-17252380D02*
X137238095Y-16252380D01*
X137238095Y-16728571D02*
X137809523Y-16728571D01*
X137809523Y-17252380D02*
X137809523Y-16252380D01*
X138809523Y-17252380D02*
X138238095Y-17252380D01*
X138523809Y-17252380D02*
X138523809Y-16252380D01*
X138428571Y-16395238D01*
X138333333Y-16490476D01*
X138238095Y-16538095D01*
X135714285Y-25652380D02*
X135714285Y-24652380D01*
X136047619Y-25366666D01*
X136380952Y-24652380D01*
X136380952Y-25652380D01*
X137047619Y-24652380D02*
X137238095Y-24652380D01*
X137333333Y-24700000D01*
X137428571Y-24795238D01*
X137476190Y-24985714D01*
X137476190Y-25319047D01*
X137428571Y-25509523D01*
X137333333Y-25604761D01*
X137238095Y-25652380D01*
X137047619Y-25652380D01*
X136952380Y-25604761D01*
X136857142Y-25509523D01*
X136809523Y-25319047D01*
X136809523Y-24985714D01*
X136857142Y-24795238D01*
X136952380Y-24700000D01*
X137047619Y-24652380D01*
X137904761Y-24652380D02*
X137904761Y-25461904D01*
X137952380Y-25557142D01*
X138000000Y-25604761D01*
X138095238Y-25652380D01*
X138285714Y-25652380D01*
X138380952Y-25604761D01*
X138428571Y-25557142D01*
X138476190Y-25461904D01*
X138476190Y-24652380D01*
X138952380Y-25652380D02*
X138952380Y-24652380D01*
X139523809Y-25652380D01*
X139523809Y-24652380D01*
X139857142Y-24652380D02*
X140428571Y-24652380D01*
X140142857Y-25652380D02*
X140142857Y-24652380D01*
G04 #@! TO.C,H2*
X183238095Y-17252380D02*
X183238095Y-16252380D01*
X183238095Y-16728571D02*
X183809523Y-16728571D01*
X183809523Y-17252380D02*
X183809523Y-16252380D01*
X184238095Y-16347619D02*
X184285714Y-16300000D01*
X184380952Y-16252380D01*
X184619047Y-16252380D01*
X184714285Y-16300000D01*
X184761904Y-16347619D01*
X184809523Y-16442857D01*
X184809523Y-16538095D01*
X184761904Y-16680952D01*
X184190476Y-17252380D01*
X184809523Y-17252380D01*
X180452380Y-23035714D02*
X179452380Y-23035714D01*
X180166666Y-22702380D01*
X179452380Y-22369047D01*
X180452380Y-22369047D01*
X179452380Y-21702380D02*
X179452380Y-21511904D01*
X179500000Y-21416666D01*
X179595238Y-21321428D01*
X179785714Y-21273809D01*
X180119047Y-21273809D01*
X180309523Y-21321428D01*
X180404761Y-21416666D01*
X180452380Y-21511904D01*
X180452380Y-21702380D01*
X180404761Y-21797619D01*
X180309523Y-21892857D01*
X180119047Y-21940476D01*
X179785714Y-21940476D01*
X179595238Y-21892857D01*
X179500000Y-21797619D01*
X179452380Y-21702380D01*
X179452380Y-20845238D02*
X180261904Y-20845238D01*
X180357142Y-20797619D01*
X180404761Y-20750000D01*
X180452380Y-20654761D01*
X180452380Y-20464285D01*
X180404761Y-20369047D01*
X180357142Y-20321428D01*
X180261904Y-20273809D01*
X179452380Y-20273809D01*
X180452380Y-19797619D02*
X179452380Y-19797619D01*
X180452380Y-19226190D01*
X179452380Y-19226190D01*
X179452380Y-18892857D02*
X179452380Y-18321428D01*
X180452380Y-18607142D02*
X179452380Y-18607142D01*
G04 #@! TO.C,H3*
X141988095Y-95452380D02*
X141988095Y-94452380D01*
X141988095Y-94928571D02*
X142559523Y-94928571D01*
X142559523Y-95452380D02*
X142559523Y-94452380D01*
X142940476Y-94452380D02*
X143559523Y-94452380D01*
X143226190Y-94833333D01*
X143369047Y-94833333D01*
X143464285Y-94880952D01*
X143511904Y-94928571D01*
X143559523Y-95023809D01*
X143559523Y-95261904D01*
X143511904Y-95357142D01*
X143464285Y-95404761D01*
X143369047Y-95452380D01*
X143083333Y-95452380D01*
X142988095Y-95404761D01*
X142940476Y-95357142D01*
X141964285Y-96952380D02*
X141964285Y-95952380D01*
X142297619Y-96666666D01*
X142630952Y-95952380D01*
X142630952Y-96952380D01*
X143297619Y-95952380D02*
X143488095Y-95952380D01*
X143583333Y-96000000D01*
X143678571Y-96095238D01*
X143726190Y-96285714D01*
X143726190Y-96619047D01*
X143678571Y-96809523D01*
X143583333Y-96904761D01*
X143488095Y-96952380D01*
X143297619Y-96952380D01*
X143202380Y-96904761D01*
X143107142Y-96809523D01*
X143059523Y-96619047D01*
X143059523Y-96285714D01*
X143107142Y-96095238D01*
X143202380Y-96000000D01*
X143297619Y-95952380D01*
X144154761Y-95952380D02*
X144154761Y-96761904D01*
X144202380Y-96857142D01*
X144250000Y-96904761D01*
X144345238Y-96952380D01*
X144535714Y-96952380D01*
X144630952Y-96904761D01*
X144678571Y-96857142D01*
X144726190Y-96761904D01*
X144726190Y-95952380D01*
X145202380Y-96952380D02*
X145202380Y-95952380D01*
X145773809Y-96952380D01*
X145773809Y-95952380D01*
X146107142Y-95952380D02*
X146678571Y-95952380D01*
X146392857Y-96952380D02*
X146392857Y-95952380D01*
G04 #@! TO.C,H4*
X178238095Y-95052380D02*
X178238095Y-94052380D01*
X178238095Y-94528571D02*
X178809523Y-94528571D01*
X178809523Y-95052380D02*
X178809523Y-94052380D01*
X179714285Y-94385714D02*
X179714285Y-95052380D01*
X179476190Y-94004761D02*
X179238095Y-94719047D01*
X179857142Y-94719047D01*
X175114285Y-96852380D02*
X175114285Y-95852380D01*
X175447619Y-96566666D01*
X175780952Y-95852380D01*
X175780952Y-96852380D01*
X176447619Y-95852380D02*
X176638095Y-95852380D01*
X176733333Y-95900000D01*
X176828571Y-95995238D01*
X176876190Y-96185714D01*
X176876190Y-96519047D01*
X176828571Y-96709523D01*
X176733333Y-96804761D01*
X176638095Y-96852380D01*
X176447619Y-96852380D01*
X176352380Y-96804761D01*
X176257142Y-96709523D01*
X176209523Y-96519047D01*
X176209523Y-96185714D01*
X176257142Y-95995238D01*
X176352380Y-95900000D01*
X176447619Y-95852380D01*
X177304761Y-95852380D02*
X177304761Y-96661904D01*
X177352380Y-96757142D01*
X177400000Y-96804761D01*
X177495238Y-96852380D01*
X177685714Y-96852380D01*
X177780952Y-96804761D01*
X177828571Y-96757142D01*
X177876190Y-96661904D01*
X177876190Y-95852380D01*
X178352380Y-96852380D02*
X178352380Y-95852380D01*
X178923809Y-96852380D01*
X178923809Y-95852380D01*
X179257142Y-95852380D02*
X179828571Y-95852380D01*
X179542857Y-96852380D02*
X179542857Y-95852380D01*
G04 #@! TO.C,H6*
X172238095Y-23702380D02*
X172238095Y-22702380D01*
X172238095Y-23178571D02*
X172809523Y-23178571D01*
X172809523Y-23702380D02*
X172809523Y-22702380D01*
X173714285Y-22702380D02*
X173523809Y-22702380D01*
X173428571Y-22750000D01*
X173380952Y-22797619D01*
X173285714Y-22940476D01*
X173238095Y-23130952D01*
X173238095Y-23511904D01*
X173285714Y-23607142D01*
X173333333Y-23654761D01*
X173428571Y-23702380D01*
X173619047Y-23702380D01*
X173714285Y-23654761D01*
X173761904Y-23607142D01*
X173809523Y-23511904D01*
X173809523Y-23273809D01*
X173761904Y-23178571D01*
X173714285Y-23130952D01*
X173619047Y-23083333D01*
X173428571Y-23083333D01*
X173333333Y-23130952D01*
X173285714Y-23178571D01*
X173238095Y-23273809D01*
X174214285Y-30652380D02*
X174214285Y-29652380D01*
X174547619Y-30366666D01*
X174880952Y-29652380D01*
X174880952Y-30652380D01*
X175547619Y-29652380D02*
X175738095Y-29652380D01*
X175833333Y-29700000D01*
X175928571Y-29795238D01*
X175976190Y-29985714D01*
X175976190Y-30319047D01*
X175928571Y-30509523D01*
X175833333Y-30604761D01*
X175738095Y-30652380D01*
X175547619Y-30652380D01*
X175452380Y-30604761D01*
X175357142Y-30509523D01*
X175309523Y-30319047D01*
X175309523Y-29985714D01*
X175357142Y-29795238D01*
X175452380Y-29700000D01*
X175547619Y-29652380D01*
X176404761Y-29652380D02*
X176404761Y-30461904D01*
X176452380Y-30557142D01*
X176500000Y-30604761D01*
X176595238Y-30652380D01*
X176785714Y-30652380D01*
X176880952Y-30604761D01*
X176928571Y-30557142D01*
X176976190Y-30461904D01*
X176976190Y-29652380D01*
X177452380Y-30652380D02*
X177452380Y-29652380D01*
X178023809Y-30652380D01*
X178023809Y-29652380D01*
X178357142Y-29652380D02*
X178928571Y-29652380D01*
X178642857Y-30652380D02*
X178642857Y-29652380D01*
G04 #@! TO.C,H7*
X149738095Y-54952380D02*
X149738095Y-53952380D01*
X149738095Y-54428571D02*
X150309523Y-54428571D01*
X150309523Y-54952380D02*
X150309523Y-53952380D01*
X150690476Y-53952380D02*
X151357142Y-53952380D01*
X150928571Y-54952380D01*
X149614285Y-56352380D02*
X149614285Y-55352380D01*
X149947619Y-56066666D01*
X150280952Y-55352380D01*
X150280952Y-56352380D01*
X150947619Y-55352380D02*
X151138095Y-55352380D01*
X151233333Y-55400000D01*
X151328571Y-55495238D01*
X151376190Y-55685714D01*
X151376190Y-56019047D01*
X151328571Y-56209523D01*
X151233333Y-56304761D01*
X151138095Y-56352380D01*
X150947619Y-56352380D01*
X150852380Y-56304761D01*
X150757142Y-56209523D01*
X150709523Y-56019047D01*
X150709523Y-55685714D01*
X150757142Y-55495238D01*
X150852380Y-55400000D01*
X150947619Y-55352380D01*
X151804761Y-55352380D02*
X151804761Y-56161904D01*
X151852380Y-56257142D01*
X151900000Y-56304761D01*
X151995238Y-56352380D01*
X152185714Y-56352380D01*
X152280952Y-56304761D01*
X152328571Y-56257142D01*
X152376190Y-56161904D01*
X152376190Y-55352380D01*
X152852380Y-56352380D02*
X152852380Y-55352380D01*
X153423809Y-56352380D01*
X153423809Y-55352380D01*
X153757142Y-55352380D02*
X154328571Y-55352380D01*
X154042857Y-56352380D02*
X154042857Y-55352380D01*
G04 #@! TO.C,H8*
X171038095Y-54952380D02*
X171038095Y-53952380D01*
X171038095Y-54428571D02*
X171609523Y-54428571D01*
X171609523Y-54952380D02*
X171609523Y-53952380D01*
X172228571Y-54380952D02*
X172133333Y-54333333D01*
X172085714Y-54285714D01*
X172038095Y-54190476D01*
X172038095Y-54142857D01*
X172085714Y-54047619D01*
X172133333Y-54000000D01*
X172228571Y-53952380D01*
X172419047Y-53952380D01*
X172514285Y-54000000D01*
X172561904Y-54047619D01*
X172609523Y-54142857D01*
X172609523Y-54190476D01*
X172561904Y-54285714D01*
X172514285Y-54333333D01*
X172419047Y-54380952D01*
X172228571Y-54380952D01*
X172133333Y-54428571D01*
X172085714Y-54476190D01*
X172038095Y-54571428D01*
X172038095Y-54761904D01*
X172085714Y-54857142D01*
X172133333Y-54904761D01*
X172228571Y-54952380D01*
X172419047Y-54952380D01*
X172514285Y-54904761D01*
X172561904Y-54857142D01*
X172609523Y-54761904D01*
X172609523Y-54571428D01*
X172561904Y-54476190D01*
X172514285Y-54428571D01*
X172419047Y-54380952D01*
X167914285Y-56552380D02*
X167914285Y-55552380D01*
X168247619Y-56266666D01*
X168580952Y-55552380D01*
X168580952Y-56552380D01*
X169247619Y-55552380D02*
X169438095Y-55552380D01*
X169533333Y-55600000D01*
X169628571Y-55695238D01*
X169676190Y-55885714D01*
X169676190Y-56219047D01*
X169628571Y-56409523D01*
X169533333Y-56504761D01*
X169438095Y-56552380D01*
X169247619Y-56552380D01*
X169152380Y-56504761D01*
X169057142Y-56409523D01*
X169009523Y-56219047D01*
X169009523Y-55885714D01*
X169057142Y-55695238D01*
X169152380Y-55600000D01*
X169247619Y-55552380D01*
X170104761Y-55552380D02*
X170104761Y-56361904D01*
X170152380Y-56457142D01*
X170200000Y-56504761D01*
X170295238Y-56552380D01*
X170485714Y-56552380D01*
X170580952Y-56504761D01*
X170628571Y-56457142D01*
X170676190Y-56361904D01*
X170676190Y-55552380D01*
X171152380Y-56552380D02*
X171152380Y-55552380D01*
X171723809Y-56552380D01*
X171723809Y-55552380D01*
X172057142Y-55552380D02*
X172628571Y-55552380D01*
X172342857Y-56552380D02*
X172342857Y-55552380D01*
G04 #@! TO.C,LS1*
X186782380Y-65642857D02*
X186782380Y-66119047D01*
X185782380Y-66119047D01*
X186734761Y-65357142D02*
X186782380Y-65214285D01*
X186782380Y-64976190D01*
X186734761Y-64880952D01*
X186687142Y-64833333D01*
X186591904Y-64785714D01*
X186496666Y-64785714D01*
X186401428Y-64833333D01*
X186353809Y-64880952D01*
X186306190Y-64976190D01*
X186258571Y-65166666D01*
X186210952Y-65261904D01*
X186163333Y-65309523D01*
X186068095Y-65357142D01*
X185972857Y-65357142D01*
X185877619Y-65309523D01*
X185830000Y-65261904D01*
X185782380Y-65166666D01*
X185782380Y-64928571D01*
X185830000Y-64785714D01*
X186782380Y-63833333D02*
X186782380Y-64404761D01*
X186782380Y-64119047D02*
X185782380Y-64119047D01*
X185925238Y-64214285D01*
X186020476Y-64309523D01*
X186068095Y-64404761D01*
X179838095Y-63204761D02*
X179980952Y-63252380D01*
X180219047Y-63252380D01*
X180314285Y-63204761D01*
X180361904Y-63157142D01*
X180409523Y-63061904D01*
X180409523Y-62966666D01*
X180361904Y-62871428D01*
X180314285Y-62823809D01*
X180219047Y-62776190D01*
X180028571Y-62728571D01*
X179933333Y-62680952D01*
X179885714Y-62633333D01*
X179838095Y-62538095D01*
X179838095Y-62442857D01*
X179885714Y-62347619D01*
X179933333Y-62300000D01*
X180028571Y-62252380D01*
X180266666Y-62252380D01*
X180409523Y-62300000D01*
X180838095Y-62585714D02*
X180838095Y-63585714D01*
X180838095Y-62633333D02*
X180933333Y-62585714D01*
X181123809Y-62585714D01*
X181219047Y-62633333D01*
X181266666Y-62680952D01*
X181314285Y-62776190D01*
X181314285Y-63061904D01*
X181266666Y-63157142D01*
X181219047Y-63204761D01*
X181123809Y-63252380D01*
X180933333Y-63252380D01*
X180838095Y-63204761D01*
X182123809Y-63204761D02*
X182028571Y-63252380D01*
X181838095Y-63252380D01*
X181742857Y-63204761D01*
X181695238Y-63109523D01*
X181695238Y-62728571D01*
X181742857Y-62633333D01*
X181838095Y-62585714D01*
X182028571Y-62585714D01*
X182123809Y-62633333D01*
X182171428Y-62728571D01*
X182171428Y-62823809D01*
X181695238Y-62919047D01*
X183028571Y-63252380D02*
X183028571Y-62728571D01*
X182980952Y-62633333D01*
X182885714Y-62585714D01*
X182695238Y-62585714D01*
X182600000Y-62633333D01*
X183028571Y-63204761D02*
X182933333Y-63252380D01*
X182695238Y-63252380D01*
X182600000Y-63204761D01*
X182552380Y-63109523D01*
X182552380Y-63014285D01*
X182600000Y-62919047D01*
X182695238Y-62871428D01*
X182933333Y-62871428D01*
X183028571Y-62823809D01*
X183504761Y-63252380D02*
X183504761Y-62252380D01*
X183600000Y-62871428D02*
X183885714Y-63252380D01*
X183885714Y-62585714D02*
X183504761Y-62966666D01*
X184695238Y-63204761D02*
X184600000Y-63252380D01*
X184409523Y-63252380D01*
X184314285Y-63204761D01*
X184266666Y-63109523D01*
X184266666Y-62728571D01*
X184314285Y-62633333D01*
X184409523Y-62585714D01*
X184600000Y-62585714D01*
X184695238Y-62633333D01*
X184742857Y-62728571D01*
X184742857Y-62823809D01*
X184266666Y-62919047D01*
X185171428Y-63252380D02*
X185171428Y-62585714D01*
X185171428Y-62776190D02*
X185219047Y-62680952D01*
X185266666Y-62633333D01*
X185361904Y-62585714D01*
X185457142Y-62585714D01*
G04 #@! TO.C,SW1*
X154416666Y-84152380D02*
X154083333Y-83676190D01*
X153845238Y-84152380D02*
X153845238Y-83152380D01*
X154226190Y-83152380D01*
X154321428Y-83200000D01*
X154369047Y-83247619D01*
X154416666Y-83342857D01*
X154416666Y-83485714D01*
X154369047Y-83580952D01*
X154321428Y-83628571D01*
X154226190Y-83676190D01*
X153845238Y-83676190D01*
X154845238Y-84152380D02*
X154845238Y-83152380D01*
X155845238Y-83200000D02*
X155750000Y-83152380D01*
X155607142Y-83152380D01*
X155464285Y-83200000D01*
X155369047Y-83295238D01*
X155321428Y-83390476D01*
X155273809Y-83580952D01*
X155273809Y-83723809D01*
X155321428Y-83914285D01*
X155369047Y-84009523D01*
X155464285Y-84104761D01*
X155607142Y-84152380D01*
X155702380Y-84152380D01*
X155845238Y-84104761D01*
X155892857Y-84057142D01*
X155892857Y-83723809D01*
X155702380Y-83723809D01*
X156321428Y-84152380D02*
X156321428Y-83152380D01*
X156321428Y-83628571D02*
X156892857Y-83628571D01*
X156892857Y-84152380D02*
X156892857Y-83152380D01*
X157226190Y-83152380D02*
X157797619Y-83152380D01*
X157511904Y-84152380D02*
X157511904Y-83152380D01*
X153916666Y-79654761D02*
X154059523Y-79702380D01*
X154297619Y-79702380D01*
X154392857Y-79654761D01*
X154440476Y-79607142D01*
X154488095Y-79511904D01*
X154488095Y-79416666D01*
X154440476Y-79321428D01*
X154392857Y-79273809D01*
X154297619Y-79226190D01*
X154107142Y-79178571D01*
X154011904Y-79130952D01*
X153964285Y-79083333D01*
X153916666Y-78988095D01*
X153916666Y-78892857D01*
X153964285Y-78797619D01*
X154011904Y-78750000D01*
X154107142Y-78702380D01*
X154345238Y-78702380D01*
X154488095Y-78750000D01*
X154821428Y-78702380D02*
X155059523Y-79702380D01*
X155250000Y-78988095D01*
X155440476Y-79702380D01*
X155678571Y-78702380D01*
X156583333Y-79702380D02*
X156011904Y-79702380D01*
X156297619Y-79702380D02*
X156297619Y-78702380D01*
X156202380Y-78845238D01*
X156107142Y-78940476D01*
X156011904Y-78988095D01*
G04 #@! TO.C,SW2*
X136047619Y-75452380D02*
X135571428Y-75452380D01*
X135571428Y-74452380D01*
X136380952Y-74928571D02*
X136714285Y-74928571D01*
X136857142Y-75452380D02*
X136380952Y-75452380D01*
X136380952Y-74452380D01*
X136857142Y-74452380D01*
X137619047Y-74928571D02*
X137285714Y-74928571D01*
X137285714Y-75452380D02*
X137285714Y-74452380D01*
X137761904Y-74452380D01*
X138000000Y-74452380D02*
X138571428Y-74452380D01*
X138285714Y-75452380D02*
X138285714Y-74452380D01*
X138916666Y-79654761D02*
X139059523Y-79702380D01*
X139297619Y-79702380D01*
X139392857Y-79654761D01*
X139440476Y-79607142D01*
X139488095Y-79511904D01*
X139488095Y-79416666D01*
X139440476Y-79321428D01*
X139392857Y-79273809D01*
X139297619Y-79226190D01*
X139107142Y-79178571D01*
X139011904Y-79130952D01*
X138964285Y-79083333D01*
X138916666Y-78988095D01*
X138916666Y-78892857D01*
X138964285Y-78797619D01*
X139011904Y-78750000D01*
X139107142Y-78702380D01*
X139345238Y-78702380D01*
X139488095Y-78750000D01*
X139821428Y-78702380D02*
X140059523Y-79702380D01*
X140250000Y-78988095D01*
X140440476Y-79702380D01*
X140678571Y-78702380D01*
X141011904Y-78797619D02*
X141059523Y-78750000D01*
X141154761Y-78702380D01*
X141392857Y-78702380D01*
X141488095Y-78750000D01*
X141535714Y-78797619D01*
X141583333Y-78892857D01*
X141583333Y-78988095D01*
X141535714Y-79130952D01*
X140964285Y-79702380D01*
X141583333Y-79702380D01*
G04 #@! TO.C,SW3*
D11*
X173142857Y-72857142D02*
X173428571Y-72952380D01*
X173523809Y-73047619D01*
X173619047Y-73238095D01*
X173619047Y-73523809D01*
X173523809Y-73714285D01*
X173428571Y-73809523D01*
X173238095Y-73904761D01*
X172476190Y-73904761D01*
X172476190Y-71904761D01*
X173142857Y-71904761D01*
X173333333Y-72000000D01*
X173428571Y-72095238D01*
X173523809Y-72285714D01*
X173523809Y-72476190D01*
X173428571Y-72666666D01*
X173333333Y-72761904D01*
X173142857Y-72857142D01*
X172476190Y-72857142D01*
D12*
X171541667Y-78329762D02*
X171684524Y-78377381D01*
X171922620Y-78377381D01*
X172017858Y-78329762D01*
X172065477Y-78282143D01*
X172113096Y-78186905D01*
X172113096Y-78091667D01*
X172065477Y-77996429D01*
X172017858Y-77948810D01*
X171922620Y-77901191D01*
X171732143Y-77853572D01*
X171636905Y-77805953D01*
X171589286Y-77758334D01*
X171541667Y-77663096D01*
X171541667Y-77567858D01*
X171589286Y-77472620D01*
X171636905Y-77425001D01*
X171732143Y-77377381D01*
X171970239Y-77377381D01*
X172113096Y-77425001D01*
X172446429Y-77377381D02*
X172684524Y-78377381D01*
X172875001Y-77663096D01*
X173065477Y-78377381D01*
X173303572Y-77377381D01*
X173589286Y-77377381D02*
X174208334Y-77377381D01*
X173875001Y-77758334D01*
X174017858Y-77758334D01*
X174113096Y-77805953D01*
X174160715Y-77853572D01*
X174208334Y-77948810D01*
X174208334Y-78186905D01*
X174160715Y-78282143D01*
X174113096Y-78329762D01*
X174017858Y-78377381D01*
X173732143Y-78377381D01*
X173636905Y-78329762D01*
X173589286Y-78282143D01*
G04 #@! TO.C,SW4*
D11*
X182723809Y-68533333D02*
X183676190Y-68533333D01*
X182533333Y-69104761D02*
X183200000Y-67104761D01*
X183866666Y-69104761D01*
D12*
X181916666Y-73654761D02*
X182059523Y-73702380D01*
X182297619Y-73702380D01*
X182392857Y-73654761D01*
X182440476Y-73607142D01*
X182488095Y-73511904D01*
X182488095Y-73416666D01*
X182440476Y-73321428D01*
X182392857Y-73273809D01*
X182297619Y-73226190D01*
X182107142Y-73178571D01*
X182011904Y-73130952D01*
X181964285Y-73083333D01*
X181916666Y-72988095D01*
X181916666Y-72892857D01*
X181964285Y-72797619D01*
X182011904Y-72750000D01*
X182107142Y-72702380D01*
X182345238Y-72702380D01*
X182488095Y-72750000D01*
X182821428Y-72702380D02*
X183059523Y-73702380D01*
X183250000Y-72988095D01*
X183440476Y-73702380D01*
X183678571Y-72702380D01*
X184488095Y-73035714D02*
X184488095Y-73702380D01*
X184250000Y-72654761D02*
X184011904Y-73369047D01*
X184630952Y-73369047D01*
G04 #@! TO.C,SW5*
X146369047Y-91652380D02*
X146369047Y-90652380D01*
X146607142Y-90652380D01*
X146750000Y-90700000D01*
X146845238Y-90795238D01*
X146892857Y-90890476D01*
X146940476Y-91080952D01*
X146940476Y-91223809D01*
X146892857Y-91414285D01*
X146845238Y-91509523D01*
X146750000Y-91604761D01*
X146607142Y-91652380D01*
X146369047Y-91652380D01*
X147559523Y-90652380D02*
X147750000Y-90652380D01*
X147845238Y-90700000D01*
X147940476Y-90795238D01*
X147988095Y-90985714D01*
X147988095Y-91319047D01*
X147940476Y-91509523D01*
X147845238Y-91604761D01*
X147750000Y-91652380D01*
X147559523Y-91652380D01*
X147464285Y-91604761D01*
X147369047Y-91509523D01*
X147321428Y-91319047D01*
X147321428Y-90985714D01*
X147369047Y-90795238D01*
X147464285Y-90700000D01*
X147559523Y-90652380D01*
X148321428Y-90652380D02*
X148559523Y-91652380D01*
X148750000Y-90938095D01*
X148940476Y-91652380D01*
X149178571Y-90652380D01*
X149559523Y-91652380D02*
X149559523Y-90652380D01*
X150130952Y-91652380D01*
X150130952Y-90652380D01*
X146416666Y-87154761D02*
X146559523Y-87202380D01*
X146797619Y-87202380D01*
X146892857Y-87154761D01*
X146940476Y-87107142D01*
X146988095Y-87011904D01*
X146988095Y-86916666D01*
X146940476Y-86821428D01*
X146892857Y-86773809D01*
X146797619Y-86726190D01*
X146607142Y-86678571D01*
X146511904Y-86630952D01*
X146464285Y-86583333D01*
X146416666Y-86488095D01*
X146416666Y-86392857D01*
X146464285Y-86297619D01*
X146511904Y-86250000D01*
X146607142Y-86202380D01*
X146845238Y-86202380D01*
X146988095Y-86250000D01*
X147321428Y-86202380D02*
X147559523Y-87202380D01*
X147750000Y-86488095D01*
X147940476Y-87202380D01*
X148178571Y-86202380D01*
X149035714Y-86202380D02*
X148559523Y-86202380D01*
X148511904Y-86678571D01*
X148559523Y-86630952D01*
X148654761Y-86583333D01*
X148892857Y-86583333D01*
X148988095Y-86630952D01*
X149035714Y-86678571D01*
X149083333Y-86773809D01*
X149083333Y-87011904D01*
X149035714Y-87107142D01*
X148988095Y-87154761D01*
X148892857Y-87202380D01*
X148654761Y-87202380D01*
X148559523Y-87154761D01*
X148511904Y-87107142D01*
G04 #@! TO.C,SW6*
X147464285Y-75652380D02*
X147464285Y-76461904D01*
X147511904Y-76557142D01*
X147559523Y-76604761D01*
X147654761Y-76652380D01*
X147845238Y-76652380D01*
X147940476Y-76604761D01*
X147988095Y-76557142D01*
X148035714Y-76461904D01*
X148035714Y-75652380D01*
X148511904Y-76652380D02*
X148511904Y-75652380D01*
X148892857Y-75652380D01*
X148988095Y-75700000D01*
X149035714Y-75747619D01*
X149083333Y-75842857D01*
X149083333Y-75985714D01*
X149035714Y-76080952D01*
X148988095Y-76128571D01*
X148892857Y-76176190D01*
X148511904Y-76176190D01*
X146416666Y-72154761D02*
X146559523Y-72202380D01*
X146797619Y-72202380D01*
X146892857Y-72154761D01*
X146940476Y-72107142D01*
X146988095Y-72011904D01*
X146988095Y-71916666D01*
X146940476Y-71821428D01*
X146892857Y-71773809D01*
X146797619Y-71726190D01*
X146607142Y-71678571D01*
X146511904Y-71630952D01*
X146464285Y-71583333D01*
X146416666Y-71488095D01*
X146416666Y-71392857D01*
X146464285Y-71297619D01*
X146511904Y-71250000D01*
X146607142Y-71202380D01*
X146845238Y-71202380D01*
X146988095Y-71250000D01*
X147321428Y-71202380D02*
X147559523Y-72202380D01*
X147750000Y-71488095D01*
X147940476Y-72202380D01*
X148178571Y-71202380D01*
X148988095Y-71202380D02*
X148797619Y-71202380D01*
X148702380Y-71250000D01*
X148654761Y-71297619D01*
X148559523Y-71440476D01*
X148511904Y-71630952D01*
X148511904Y-72011904D01*
X148559523Y-72107142D01*
X148607142Y-72154761D01*
X148702380Y-72202380D01*
X148892857Y-72202380D01*
X148988095Y-72154761D01*
X149035714Y-72107142D01*
X149083333Y-72011904D01*
X149083333Y-71773809D01*
X149035714Y-71678571D01*
X148988095Y-71630952D01*
X148892857Y-71583333D01*
X148702380Y-71583333D01*
X148607142Y-71630952D01*
X148559523Y-71678571D01*
X148511904Y-71773809D01*
G04 #@! TO.C,U2*
D15*
X160738095Y-38452380D02*
X160738095Y-39261904D01*
X160785714Y-39357142D01*
X160833333Y-39404761D01*
X160928571Y-39452380D01*
X161119047Y-39452380D01*
X161214285Y-39404761D01*
X161261904Y-39357142D01*
X161309523Y-39261904D01*
X161309523Y-38452380D01*
X161738095Y-38547619D02*
X161785714Y-38500000D01*
X161880952Y-38452380D01*
X162119047Y-38452380D01*
X162214285Y-38500000D01*
X162261904Y-38547619D01*
X162309523Y-38642857D01*
X162309523Y-38738095D01*
X162261904Y-38880952D01*
X161690476Y-39452380D01*
X162309523Y-39452380D01*
X154452380Y-37404761D02*
X154595238Y-37452380D01*
X154833333Y-37452380D01*
X154928571Y-37404761D01*
X154976190Y-37357142D01*
X155023809Y-37261904D01*
X155023809Y-37166666D01*
X154976190Y-37071428D01*
X154928571Y-37023809D01*
X154833333Y-36976190D01*
X154642857Y-36928571D01*
X154547619Y-36880952D01*
X154500000Y-36833333D01*
X154452380Y-36738095D01*
X154452380Y-36642857D01*
X154500000Y-36547619D01*
X154547619Y-36500000D01*
X154642857Y-36452380D01*
X154880952Y-36452380D01*
X155023809Y-36500000D01*
X155452380Y-37452380D02*
X155452380Y-36452380D01*
X155833333Y-36452380D01*
X155928571Y-36500000D01*
X155976190Y-36547619D01*
X156023809Y-36642857D01*
X156023809Y-36785714D01*
X155976190Y-36880952D01*
X155928571Y-36928571D01*
X155833333Y-36976190D01*
X155452380Y-36976190D01*
X156452380Y-37452380D02*
X156452380Y-36452380D01*
X156690476Y-37547619D02*
X157452380Y-37547619D01*
X157880952Y-36452380D02*
X158071428Y-36452380D01*
X158166666Y-36500000D01*
X158261904Y-36595238D01*
X158309523Y-36785714D01*
X158309523Y-37119047D01*
X158261904Y-37309523D01*
X158166666Y-37404761D01*
X158071428Y-37452380D01*
X157880952Y-37452380D01*
X157785714Y-37404761D01*
X157690476Y-37309523D01*
X157642857Y-37119047D01*
X157642857Y-36785714D01*
X157690476Y-36595238D01*
X157785714Y-36500000D01*
X157880952Y-36452380D01*
X159214285Y-37452380D02*
X158738095Y-37452380D01*
X158738095Y-36452380D01*
X159547619Y-36928571D02*
X159880952Y-36928571D01*
X160023809Y-37452380D02*
X159547619Y-37452380D01*
X159547619Y-36452380D01*
X160023809Y-36452380D01*
X160452380Y-37452380D02*
X160452380Y-36452380D01*
X160690476Y-36452380D01*
X160833333Y-36500000D01*
X160928571Y-36595238D01*
X160976190Y-36690476D01*
X161023809Y-36880952D01*
X161023809Y-37023809D01*
X160976190Y-37214285D01*
X160928571Y-37309523D01*
X160833333Y-37404761D01*
X160690476Y-37452380D01*
X160452380Y-37452380D01*
X161214285Y-37547619D02*
X161976190Y-37547619D01*
X162166666Y-37404761D02*
X162309523Y-37452380D01*
X162547619Y-37452380D01*
X162642857Y-37404761D01*
X162690476Y-37357142D01*
X162738095Y-37261904D01*
X162738095Y-37166666D01*
X162690476Y-37071428D01*
X162642857Y-37023809D01*
X162547619Y-36976190D01*
X162357142Y-36928571D01*
X162261904Y-36880952D01*
X162214285Y-36833333D01*
X162166666Y-36738095D01*
X162166666Y-36642857D01*
X162214285Y-36547619D01*
X162261904Y-36500000D01*
X162357142Y-36452380D01*
X162595238Y-36452380D01*
X162738095Y-36500000D01*
X163119047Y-37404761D02*
X163261904Y-37452380D01*
X163500000Y-37452380D01*
X163595238Y-37404761D01*
X163642857Y-37357142D01*
X163690476Y-37261904D01*
X163690476Y-37166666D01*
X163642857Y-37071428D01*
X163595238Y-37023809D01*
X163500000Y-36976190D01*
X163309523Y-36928571D01*
X163214285Y-36880952D01*
X163166666Y-36833333D01*
X163119047Y-36738095D01*
X163119047Y-36642857D01*
X163166666Y-36547619D01*
X163214285Y-36500000D01*
X163309523Y-36452380D01*
X163547619Y-36452380D01*
X163690476Y-36500000D01*
X164119047Y-37452380D02*
X164119047Y-36452380D01*
X164119047Y-36928571D02*
X164690476Y-36928571D01*
X164690476Y-37452380D02*
X164690476Y-36452380D01*
X165690476Y-37452380D02*
X165119047Y-37452380D01*
X165404761Y-37452380D02*
X165404761Y-36452380D01*
X165309523Y-36595238D01*
X165214285Y-36690476D01*
X165119047Y-36738095D01*
X166642857Y-37452380D02*
X166071428Y-37452380D01*
X166357142Y-37452380D02*
X166357142Y-36452380D01*
X166261904Y-36595238D01*
X166166666Y-36690476D01*
X166071428Y-36738095D01*
X167261904Y-36452380D02*
X167357142Y-36452380D01*
X167452380Y-36500000D01*
X167500000Y-36547619D01*
X167547619Y-36642857D01*
X167595238Y-36833333D01*
X167595238Y-37071428D01*
X167547619Y-37261904D01*
X167500000Y-37357142D01*
X167452380Y-37404761D01*
X167357142Y-37452380D01*
X167261904Y-37452380D01*
X167166666Y-37404761D01*
X167119047Y-37357142D01*
X167071428Y-37261904D01*
X167023809Y-37071428D01*
X167023809Y-36833333D01*
X167071428Y-36642857D01*
X167119047Y-36547619D01*
X167166666Y-36500000D01*
X167261904Y-36452380D01*
X168452380Y-36452380D02*
X168261904Y-36452380D01*
X168166666Y-36500000D01*
X168119047Y-36547619D01*
X168023809Y-36690476D01*
X167976190Y-36880952D01*
X167976190Y-37261904D01*
X168023809Y-37357142D01*
X168071428Y-37404761D01*
X168166666Y-37452380D01*
X168357142Y-37452380D01*
X168452380Y-37404761D01*
X168500000Y-37357142D01*
X168547619Y-37261904D01*
X168547619Y-37023809D01*
X168500000Y-36928571D01*
X168452380Y-36880952D01*
X168357142Y-36833333D01*
X168166666Y-36833333D01*
X168071428Y-36880952D01*
X168023809Y-36928571D01*
X167976190Y-37023809D01*
D12*
X154500000Y-30088095D02*
X154547619Y-29992857D01*
X154547619Y-29850000D01*
X154500000Y-29707142D01*
X154404761Y-29611904D01*
X154309523Y-29564285D01*
X154119047Y-29516666D01*
X153976190Y-29516666D01*
X153785714Y-29564285D01*
X153690476Y-29611904D01*
X153595238Y-29707142D01*
X153547619Y-29850000D01*
X153547619Y-29945238D01*
X153595238Y-30088095D01*
X153642857Y-30135714D01*
X153976190Y-30135714D01*
X153976190Y-29945238D01*
X153547619Y-30564285D02*
X154547619Y-30564285D01*
X153547619Y-31135714D01*
X154547619Y-31135714D01*
X153547619Y-31611904D02*
X154547619Y-31611904D01*
X154547619Y-31850000D01*
X154500000Y-31992857D01*
X154404761Y-32088095D01*
X154309523Y-32135714D01*
X154119047Y-32183333D01*
X153976190Y-32183333D01*
X153785714Y-32135714D01*
X153690476Y-32088095D01*
X153595238Y-31992857D01*
X153547619Y-31850000D01*
X153547619Y-31611904D01*
X157047619Y-29516666D02*
X156047619Y-29850000D01*
X157047619Y-30183333D01*
X156142857Y-31088095D02*
X156095238Y-31040476D01*
X156047619Y-30897619D01*
X156047619Y-30802380D01*
X156095238Y-30659523D01*
X156190476Y-30564285D01*
X156285714Y-30516666D01*
X156476190Y-30469047D01*
X156619047Y-30469047D01*
X156809523Y-30516666D01*
X156904761Y-30564285D01*
X157000000Y-30659523D01*
X157047619Y-30802380D01*
X157047619Y-30897619D01*
X157000000Y-31040476D01*
X156952380Y-31088095D01*
X156142857Y-32088095D02*
X156095238Y-32040476D01*
X156047619Y-31897619D01*
X156047619Y-31802380D01*
X156095238Y-31659523D01*
X156190476Y-31564285D01*
X156285714Y-31516666D01*
X156476190Y-31469047D01*
X156619047Y-31469047D01*
X156809523Y-31516666D01*
X156904761Y-31564285D01*
X157000000Y-31659523D01*
X157047619Y-31802380D01*
X157047619Y-31897619D01*
X157000000Y-32040476D01*
X156952380Y-32088095D01*
X158642857Y-30254761D02*
X158595238Y-30207142D01*
X158547619Y-30064285D01*
X158547619Y-29969047D01*
X158595238Y-29826190D01*
X158690476Y-29730952D01*
X158785714Y-29683333D01*
X158976190Y-29635714D01*
X159119047Y-29635714D01*
X159309523Y-29683333D01*
X159404761Y-29730952D01*
X159500000Y-29826190D01*
X159547619Y-29969047D01*
X159547619Y-30064285D01*
X159500000Y-30207142D01*
X159452380Y-30254761D01*
X158547619Y-31159523D02*
X158547619Y-30683333D01*
X159547619Y-30683333D01*
X158547619Y-31492857D02*
X159547619Y-31492857D01*
X158547619Y-32064285D02*
X159119047Y-31635714D01*
X159547619Y-32064285D02*
X158976190Y-31492857D01*
X161047619Y-29428571D02*
X162047619Y-29428571D01*
X161333333Y-29761904D01*
X162047619Y-30095238D01*
X161047619Y-30095238D01*
X162047619Y-30761904D02*
X162047619Y-30952380D01*
X162000000Y-31047619D01*
X161904761Y-31142857D01*
X161714285Y-31190476D01*
X161380952Y-31190476D01*
X161190476Y-31142857D01*
X161095238Y-31047619D01*
X161047619Y-30952380D01*
X161047619Y-30761904D01*
X161095238Y-30666666D01*
X161190476Y-30571428D01*
X161380952Y-30523809D01*
X161714285Y-30523809D01*
X161904761Y-30571428D01*
X162000000Y-30666666D01*
X162047619Y-30761904D01*
X161095238Y-31571428D02*
X161047619Y-31714285D01*
X161047619Y-31952380D01*
X161095238Y-32047619D01*
X161142857Y-32095238D01*
X161238095Y-32142857D01*
X161333333Y-32142857D01*
X161428571Y-32095238D01*
X161476190Y-32047619D01*
X161523809Y-31952380D01*
X161571428Y-31761904D01*
X161619047Y-31666666D01*
X161666666Y-31619047D01*
X161761904Y-31571428D01*
X161857142Y-31571428D01*
X161952380Y-31619047D01*
X162000000Y-31666666D01*
X162047619Y-31761904D01*
X162047619Y-32000000D01*
X162000000Y-32142857D01*
X161047619Y-32571428D02*
X162047619Y-32571428D01*
X163547619Y-30302380D02*
X164023809Y-29969047D01*
X163547619Y-29730952D02*
X164547619Y-29730952D01*
X164547619Y-30111904D01*
X164500000Y-30207142D01*
X164452380Y-30254761D01*
X164357142Y-30302380D01*
X164214285Y-30302380D01*
X164119047Y-30254761D01*
X164071428Y-30207142D01*
X164023809Y-30111904D01*
X164023809Y-29730952D01*
X163595238Y-30683333D02*
X163547619Y-30826190D01*
X163547619Y-31064285D01*
X163595238Y-31159523D01*
X163642857Y-31207142D01*
X163738095Y-31254761D01*
X163833333Y-31254761D01*
X163928571Y-31207142D01*
X163976190Y-31159523D01*
X164023809Y-31064285D01*
X164071428Y-30873809D01*
X164119047Y-30778571D01*
X164166666Y-30730952D01*
X164261904Y-30683333D01*
X164357142Y-30683333D01*
X164452380Y-30730952D01*
X164500000Y-30778571D01*
X164547619Y-30873809D01*
X164547619Y-31111904D01*
X164500000Y-31254761D01*
X164547619Y-31540476D02*
X164547619Y-32111904D01*
X163547619Y-31826190D02*
X164547619Y-31826190D01*
X166047619Y-29564285D02*
X167047619Y-29564285D01*
X167047619Y-29802380D01*
X167000000Y-29945238D01*
X166904761Y-30040476D01*
X166809523Y-30088095D01*
X166619047Y-30135714D01*
X166476190Y-30135714D01*
X166285714Y-30088095D01*
X166190476Y-30040476D01*
X166095238Y-29945238D01*
X166047619Y-29802380D01*
X166047619Y-29564285D01*
X167095238Y-31278571D02*
X165809523Y-30421428D01*
X166142857Y-32183333D02*
X166095238Y-32135714D01*
X166047619Y-31992857D01*
X166047619Y-31897619D01*
X166095238Y-31754761D01*
X166190476Y-31659523D01*
X166285714Y-31611904D01*
X166476190Y-31564285D01*
X166619047Y-31564285D01*
X166809523Y-31611904D01*
X166904761Y-31659523D01*
X167000000Y-31754761D01*
X167047619Y-31897619D01*
X167047619Y-31992857D01*
X167000000Y-32135714D01*
X166952380Y-32183333D01*
X168642857Y-30683333D02*
X168595238Y-30635714D01*
X168547619Y-30492857D01*
X168547619Y-30397619D01*
X168595238Y-30254761D01*
X168690476Y-30159523D01*
X168785714Y-30111904D01*
X168976190Y-30064285D01*
X169119047Y-30064285D01*
X169309523Y-30111904D01*
X169404761Y-30159523D01*
X169500000Y-30254761D01*
X169547619Y-30397619D01*
X169547619Y-30492857D01*
X169500000Y-30635714D01*
X169452380Y-30683333D01*
X168595238Y-31064285D02*
X168547619Y-31207142D01*
X168547619Y-31445238D01*
X168595238Y-31540476D01*
X168642857Y-31588095D01*
X168738095Y-31635714D01*
X168833333Y-31635714D01*
X168928571Y-31588095D01*
X168976190Y-31540476D01*
X169023809Y-31445238D01*
X169071428Y-31254761D01*
X169119047Y-31159523D01*
X169166666Y-31111904D01*
X169261904Y-31064285D01*
X169357142Y-31064285D01*
X169452380Y-31111904D01*
X169500000Y-31159523D01*
X169547619Y-31254761D01*
X169547619Y-31492857D01*
X169500000Y-31635714D01*
G04 #@! TO.C,J1*
X149452380Y-21333333D02*
X150166666Y-21333333D01*
X150309523Y-21380952D01*
X150404761Y-21476190D01*
X150452380Y-21619047D01*
X150452380Y-21714285D01*
X150452380Y-20333333D02*
X150452380Y-20904761D01*
X150452380Y-20619047D02*
X149452380Y-20619047D01*
X149595238Y-20714285D01*
X149690476Y-20809523D01*
X149738095Y-20904761D01*
X156523809Y-23652380D02*
X156523809Y-22652380D01*
X156761904Y-22652380D01*
X156904761Y-22700000D01*
X157000000Y-22795238D01*
X157047619Y-22890476D01*
X157095238Y-23080952D01*
X157095238Y-23223809D01*
X157047619Y-23414285D01*
X157000000Y-23509523D01*
X156904761Y-23604761D01*
X156761904Y-23652380D01*
X156523809Y-23652380D01*
X157523809Y-23128571D02*
X157857142Y-23128571D01*
X158000000Y-23652380D02*
X157523809Y-23652380D01*
X157523809Y-22652380D01*
X158000000Y-22652380D01*
X158761904Y-23128571D02*
X158904761Y-23176190D01*
X158952380Y-23223809D01*
X159000000Y-23319047D01*
X159000000Y-23461904D01*
X158952380Y-23557142D01*
X158904761Y-23604761D01*
X158809523Y-23652380D01*
X158428571Y-23652380D01*
X158428571Y-22652380D01*
X158761904Y-22652380D01*
X158857142Y-22700000D01*
X158904761Y-22747619D01*
X158952380Y-22842857D01*
X158952380Y-22938095D01*
X158904761Y-23033333D01*
X158857142Y-23080952D01*
X158761904Y-23128571D01*
X158428571Y-23128571D01*
X159428571Y-22652380D02*
X159428571Y-23461904D01*
X159476190Y-23557142D01*
X159523809Y-23604761D01*
X159619047Y-23652380D01*
X159809523Y-23652380D01*
X159904761Y-23604761D01*
X159952380Y-23557142D01*
X160000000Y-23461904D01*
X160000000Y-22652380D01*
X161000000Y-22700000D02*
X160904761Y-22652380D01*
X160761904Y-22652380D01*
X160619047Y-22700000D01*
X160523809Y-22795238D01*
X160476190Y-22890476D01*
X160428571Y-23080952D01*
X160428571Y-23223809D01*
X160476190Y-23414285D01*
X160523809Y-23509523D01*
X160619047Y-23604761D01*
X160761904Y-23652380D01*
X160857142Y-23652380D01*
X161000000Y-23604761D01*
X161047619Y-23557142D01*
X161047619Y-23223809D01*
X160857142Y-23223809D01*
X161238095Y-23747619D02*
X162000000Y-23747619D01*
X162238095Y-23652380D02*
X162238095Y-22652380D01*
X162238095Y-23128571D02*
X162809523Y-23128571D01*
X162809523Y-23652380D02*
X162809523Y-22652380D01*
X163285714Y-23128571D02*
X163619047Y-23128571D01*
X163761904Y-23652380D02*
X163285714Y-23652380D01*
X163285714Y-22652380D01*
X163761904Y-22652380D01*
X164142857Y-23366666D02*
X164619047Y-23366666D01*
X164047619Y-23652380D02*
X164380952Y-22652380D01*
X164714285Y-23652380D01*
X165047619Y-23652380D02*
X165047619Y-22652380D01*
X165285714Y-22652380D01*
X165428571Y-22700000D01*
X165523809Y-22795238D01*
X165571428Y-22890476D01*
X165619047Y-23080952D01*
X165619047Y-23223809D01*
X165571428Y-23414285D01*
X165523809Y-23509523D01*
X165428571Y-23604761D01*
X165285714Y-23652380D01*
X165047619Y-23652380D01*
X166047619Y-23128571D02*
X166380952Y-23128571D01*
X166523809Y-23652380D02*
X166047619Y-23652380D01*
X166047619Y-22652380D01*
X166523809Y-22652380D01*
X167523809Y-23652380D02*
X167190476Y-23176190D01*
X166952380Y-23652380D02*
X166952380Y-22652380D01*
X167333333Y-22652380D01*
X167428571Y-22700000D01*
X167476190Y-22747619D01*
X167523809Y-22842857D01*
X167523809Y-22985714D01*
X167476190Y-23080952D01*
X167428571Y-23128571D01*
X167333333Y-23176190D01*
X166952380Y-23176190D01*
G04 #@! TO.C,RV1*
X156404761Y-98452380D02*
X156071428Y-97976190D01*
X155833333Y-98452380D02*
X155833333Y-97452380D01*
X156214285Y-97452380D01*
X156309523Y-97500000D01*
X156357142Y-97547619D01*
X156404761Y-97642857D01*
X156404761Y-97785714D01*
X156357142Y-97880952D01*
X156309523Y-97928571D01*
X156214285Y-97976190D01*
X155833333Y-97976190D01*
X156690476Y-97452380D02*
X157023809Y-98452380D01*
X157357142Y-97452380D01*
X158214285Y-98452380D02*
X157642857Y-98452380D01*
X157928571Y-98452380D02*
X157928571Y-97452380D01*
X157833333Y-97595238D01*
X157738095Y-97690476D01*
X157642857Y-97738095D01*
X171952380Y-94476190D02*
X171476190Y-94809523D01*
X171952380Y-95047619D02*
X170952380Y-95047619D01*
X170952380Y-94666666D01*
X171000000Y-94571428D01*
X171047619Y-94523809D01*
X171142857Y-94476190D01*
X171285714Y-94476190D01*
X171380952Y-94523809D01*
X171428571Y-94571428D01*
X171476190Y-94666666D01*
X171476190Y-95047619D01*
X172047619Y-94285714D02*
X172047619Y-93523809D01*
X171952380Y-93285714D02*
X170952380Y-93285714D01*
X170952380Y-92904761D01*
X171000000Y-92809523D01*
X171047619Y-92761904D01*
X171142857Y-92714285D01*
X171285714Y-92714285D01*
X171380952Y-92761904D01*
X171428571Y-92809523D01*
X171476190Y-92904761D01*
X171476190Y-93285714D01*
X170952380Y-92095238D02*
X170952380Y-91904761D01*
X171000000Y-91809523D01*
X171095238Y-91714285D01*
X171285714Y-91666666D01*
X171619047Y-91666666D01*
X171809523Y-91714285D01*
X171904761Y-91809523D01*
X171952380Y-91904761D01*
X171952380Y-92095238D01*
X171904761Y-92190476D01*
X171809523Y-92285714D01*
X171619047Y-92333333D01*
X171285714Y-92333333D01*
X171095238Y-92285714D01*
X171000000Y-92190476D01*
X170952380Y-92095238D01*
X170952380Y-91380952D02*
X170952380Y-90809523D01*
X171952380Y-91095238D02*
X170952380Y-91095238D01*
X159452380Y-91095238D02*
X158976190Y-91428571D01*
X159452380Y-91666666D02*
X158452380Y-91666666D01*
X158452380Y-91285714D01*
X158500000Y-91190476D01*
X158547619Y-91142857D01*
X158642857Y-91095238D01*
X158785714Y-91095238D01*
X158880952Y-91142857D01*
X158928571Y-91190476D01*
X158976190Y-91285714D01*
X158976190Y-91666666D01*
X158452380Y-90809523D02*
X159452380Y-90476190D01*
X158452380Y-90142857D01*
X159452380Y-89285714D02*
X159452380Y-89857142D01*
X159452380Y-89571428D02*
X158452380Y-89571428D01*
X158595238Y-89666666D01*
X158690476Y-89761904D01*
X158738095Y-89857142D01*
G04 #@! TO.C,H5*
X144738095Y-22252380D02*
X144738095Y-21252380D01*
X144738095Y-21728571D02*
X145309523Y-21728571D01*
X145309523Y-22252380D02*
X145309523Y-21252380D01*
X146261904Y-21252380D02*
X145785714Y-21252380D01*
X145738095Y-21728571D01*
X145785714Y-21680952D01*
X145880952Y-21633333D01*
X146119047Y-21633333D01*
X146214285Y-21680952D01*
X146261904Y-21728571D01*
X146309523Y-21823809D01*
X146309523Y-22061904D01*
X146261904Y-22157142D01*
X146214285Y-22204761D01*
X146119047Y-22252380D01*
X145880952Y-22252380D01*
X145785714Y-22204761D01*
X145738095Y-22157142D01*
D15*
X143214285Y-30652380D02*
X143214285Y-29652380D01*
X143547619Y-30366666D01*
X143880952Y-29652380D01*
X143880952Y-30652380D01*
X144547619Y-29652380D02*
X144738095Y-29652380D01*
X144833333Y-29700000D01*
X144928571Y-29795238D01*
X144976190Y-29985714D01*
X144976190Y-30319047D01*
X144928571Y-30509523D01*
X144833333Y-30604761D01*
X144738095Y-30652380D01*
X144547619Y-30652380D01*
X144452380Y-30604761D01*
X144357142Y-30509523D01*
X144309523Y-30319047D01*
X144309523Y-29985714D01*
X144357142Y-29795238D01*
X144452380Y-29700000D01*
X144547619Y-29652380D01*
X145404761Y-29652380D02*
X145404761Y-30461904D01*
X145452380Y-30557142D01*
X145500000Y-30604761D01*
X145595238Y-30652380D01*
X145785714Y-30652380D01*
X145880952Y-30604761D01*
X145928571Y-30557142D01*
X145976190Y-30461904D01*
X145976190Y-29652380D01*
X146452380Y-30652380D02*
X146452380Y-29652380D01*
X147023809Y-30652380D01*
X147023809Y-29652380D01*
X147357142Y-29652380D02*
X147928571Y-29652380D01*
X147642857Y-30652380D02*
X147642857Y-29652380D01*
G04 #@! TO.C,J2*
X137666666Y-28122380D02*
X137666666Y-28836666D01*
X137619047Y-28979523D01*
X137523809Y-29074761D01*
X137380952Y-29122380D01*
X137285714Y-29122380D01*
X138095238Y-28217619D02*
X138142857Y-28170000D01*
X138238095Y-28122380D01*
X138476190Y-28122380D01*
X138571428Y-28170000D01*
X138619047Y-28217619D01*
X138666666Y-28312857D01*
X138666666Y-28408095D01*
X138619047Y-28550952D01*
X138047619Y-29122380D01*
X138666666Y-29122380D01*
D12*
X141012380Y-38937619D02*
X140012380Y-38937619D01*
X140012380Y-38556666D01*
X140060000Y-38461428D01*
X140107619Y-38413809D01*
X140202857Y-38366190D01*
X140345714Y-38366190D01*
X140440952Y-38413809D01*
X140488571Y-38461428D01*
X140536190Y-38556666D01*
X140536190Y-38937619D01*
X140012380Y-37747142D02*
X140012380Y-37556666D01*
X140060000Y-37461428D01*
X140155238Y-37366190D01*
X140345714Y-37318571D01*
X140679047Y-37318571D01*
X140869523Y-37366190D01*
X140964761Y-37461428D01*
X141012380Y-37556666D01*
X141012380Y-37747142D01*
X140964761Y-37842380D01*
X140869523Y-37937619D01*
X140679047Y-37985238D01*
X140345714Y-37985238D01*
X140155238Y-37937619D01*
X140060000Y-37842380D01*
X140012380Y-37747142D01*
X140012380Y-36985238D02*
X141012380Y-36747142D01*
X140298095Y-36556666D01*
X141012380Y-36366190D01*
X140012380Y-36128095D01*
X140488571Y-35747142D02*
X140488571Y-35413809D01*
X141012380Y-35270952D02*
X141012380Y-35747142D01*
X140012380Y-35747142D01*
X140012380Y-35270952D01*
X141012380Y-34270952D02*
X140536190Y-34604285D01*
X141012380Y-34842380D02*
X140012380Y-34842380D01*
X140012380Y-34461428D01*
X140060000Y-34366190D01*
X140107619Y-34318571D01*
X140202857Y-34270952D01*
X140345714Y-34270952D01*
X140440952Y-34318571D01*
X140488571Y-34366190D01*
X140536190Y-34461428D01*
X140536190Y-34842380D01*
X141107619Y-34080476D02*
X141107619Y-33318571D01*
X141012380Y-33080476D02*
X140012380Y-33080476D01*
X140488571Y-33080476D02*
X140488571Y-32509047D01*
X141012380Y-32509047D02*
X140012380Y-32509047D01*
X140488571Y-32032857D02*
X140488571Y-31699523D01*
X141012380Y-31556666D02*
X141012380Y-32032857D01*
X140012380Y-32032857D01*
X140012380Y-31556666D01*
X140726666Y-31175714D02*
X140726666Y-30699523D01*
X141012380Y-31270952D02*
X140012380Y-30937619D01*
X141012380Y-30604285D01*
X141012380Y-30270952D02*
X140012380Y-30270952D01*
X140012380Y-30032857D01*
X140060000Y-29890000D01*
X140155238Y-29794761D01*
X140250476Y-29747142D01*
X140440952Y-29699523D01*
X140583809Y-29699523D01*
X140774285Y-29747142D01*
X140869523Y-29794761D01*
X140964761Y-29890000D01*
X141012380Y-30032857D01*
X141012380Y-30270952D01*
X140488571Y-29270952D02*
X140488571Y-28937619D01*
X141012380Y-28794761D02*
X141012380Y-29270952D01*
X140012380Y-29270952D01*
X140012380Y-28794761D01*
X141012380Y-27794761D02*
X140536190Y-28128095D01*
X141012380Y-28366190D02*
X140012380Y-28366190D01*
X140012380Y-27985238D01*
X140060000Y-27890000D01*
X140107619Y-27842380D01*
X140202857Y-27794761D01*
X140345714Y-27794761D01*
X140440952Y-27842380D01*
X140488571Y-27890000D01*
X140536190Y-27985238D01*
X140536190Y-28366190D01*
G04 #@! TO.C,J3*
D15*
X140206666Y-50562380D02*
X140206666Y-51276666D01*
X140159047Y-51419523D01*
X140063809Y-51514761D01*
X139920952Y-51562380D01*
X139825714Y-51562380D01*
X140587619Y-50562380D02*
X141206666Y-50562380D01*
X140873333Y-50943333D01*
X141016190Y-50943333D01*
X141111428Y-50990952D01*
X141159047Y-51038571D01*
X141206666Y-51133809D01*
X141206666Y-51371904D01*
X141159047Y-51467142D01*
X141111428Y-51514761D01*
X141016190Y-51562380D01*
X140730476Y-51562380D01*
X140635238Y-51514761D01*
X140587619Y-51467142D01*
D12*
X142712380Y-49663333D02*
X143521904Y-49663333D01*
X143617142Y-49615714D01*
X143664761Y-49568095D01*
X143712380Y-49472857D01*
X143712380Y-49282380D01*
X143664761Y-49187142D01*
X143617142Y-49139523D01*
X143521904Y-49091904D01*
X142712380Y-49091904D01*
X143426666Y-48663333D02*
X143426666Y-48187142D01*
X143712380Y-48758571D02*
X142712380Y-48425238D01*
X143712380Y-48091904D01*
X143712380Y-47187142D02*
X143236190Y-47520476D01*
X143712380Y-47758571D02*
X142712380Y-47758571D01*
X142712380Y-47377619D01*
X142760000Y-47282380D01*
X142807619Y-47234761D01*
X142902857Y-47187142D01*
X143045714Y-47187142D01*
X143140952Y-47234761D01*
X143188571Y-47282380D01*
X143236190Y-47377619D01*
X143236190Y-47758571D01*
X142712380Y-46901428D02*
X142712380Y-46330000D01*
X143712380Y-46615714D02*
X142712380Y-46615714D01*
X143807619Y-46234761D02*
X143807619Y-45472857D01*
X143712380Y-45234761D02*
X142712380Y-45234761D01*
X143188571Y-45234761D02*
X143188571Y-44663333D01*
X143712380Y-44663333D02*
X142712380Y-44663333D01*
X143188571Y-44187142D02*
X143188571Y-43853809D01*
X143712380Y-43710952D02*
X143712380Y-44187142D01*
X142712380Y-44187142D01*
X142712380Y-43710952D01*
X143426666Y-43330000D02*
X143426666Y-42853809D01*
X143712380Y-43425238D02*
X142712380Y-43091904D01*
X143712380Y-42758571D01*
X143712380Y-42425238D02*
X142712380Y-42425238D01*
X142712380Y-42187142D01*
X142760000Y-42044285D01*
X142855238Y-41949047D01*
X142950476Y-41901428D01*
X143140952Y-41853809D01*
X143283809Y-41853809D01*
X143474285Y-41901428D01*
X143569523Y-41949047D01*
X143664761Y-42044285D01*
X143712380Y-42187142D01*
X143712380Y-42425238D01*
X143188571Y-41425238D02*
X143188571Y-41091904D01*
X143712380Y-40949047D02*
X143712380Y-41425238D01*
X142712380Y-41425238D01*
X142712380Y-40949047D01*
X143712380Y-39949047D02*
X143236190Y-40282380D01*
X143712380Y-40520476D02*
X142712380Y-40520476D01*
X142712380Y-40139523D01*
X142760000Y-40044285D01*
X142807619Y-39996666D01*
X142902857Y-39949047D01*
X143045714Y-39949047D01*
X143140952Y-39996666D01*
X143188571Y-40044285D01*
X143236190Y-40139523D01*
X143236190Y-40520476D01*
G04 #@! TD*
M02*
