G04 #@! TF.GenerationSoftware,KiCad,Pcbnew,5.1.9+dfsg1-1*
G04 #@! TF.CreationDate,2022-06-11T22:33:06-07:00*
G04 #@! TF.ProjectId,keygame,6b657967-616d-4652-9e6b-696361645f70,rev?*
G04 #@! TF.SameCoordinates,Original*
G04 #@! TF.FileFunction,Soldermask,Bot*
G04 #@! TF.FilePolarity,Negative*
%FSLAX46Y46*%
G04 Gerber Fmt 4.6, Leading zero omitted, Abs format (unit mm)*
G04 Created by KiCad (PCBNEW 5.1.9+dfsg1-1) date 2022-06-11 22:33:06*
%MOMM*%
%LPD*%
G01*
G04 APERTURE LIST*
%ADD10R,0.650000X1.050000*%
%ADD11C,0.800000*%
%ADD12C,6.400000*%
%ADD13R,1.700000X1.700000*%
%ADD14O,1.700000X1.700000*%
%ADD15C,2.000000*%
%ADD16C,1.524000*%
%ADD17C,1.800000*%
%ADD18C,4.000000*%
%ADD19R,2.000000X0.500000*%
%ADD20C,0.350000*%
%ADD21R,1.000000X1.500000*%
%ADD22R,2.000000X3.800000*%
%ADD23R,2.000000X1.500000*%
%ADD24C,1.500000*%
%ADD25O,1.600000X1.000000*%
%ADD26C,0.650000*%
%ADD27O,2.100000X1.000000*%
%ADD28R,1.450000X0.300000*%
%ADD29R,1.450000X0.600000*%
%ADD30C,0.254000*%
G04 APERTURE END LIST*
D10*
G04 #@! TO.C,SW9*
X138425000Y-56925000D03*
X138425000Y-61075000D03*
X140575000Y-56925000D03*
X140575000Y-61075000D03*
G04 #@! TD*
G04 #@! TO.C,SW7*
X134425000Y-56925000D03*
X134425000Y-61075000D03*
X136575000Y-56925000D03*
X136575000Y-61075000D03*
G04 #@! TD*
D11*
G04 #@! TO.C,H1*
X139697056Y-19302944D03*
X138000000Y-18600000D03*
X136302944Y-19302944D03*
X135600000Y-21000000D03*
X136302944Y-22697056D03*
X138000000Y-23400000D03*
X139697056Y-22697056D03*
X140400000Y-21000000D03*
D12*
X138000000Y-21000000D03*
G04 #@! TD*
G04 #@! TO.C,H2*
X184000000Y-21000000D03*
D11*
X186400000Y-21000000D03*
X185697056Y-22697056D03*
X184000000Y-23400000D03*
X182302944Y-22697056D03*
X181600000Y-21000000D03*
X182302944Y-19302944D03*
X184000000Y-18600000D03*
X185697056Y-19302944D03*
G04 #@! TD*
G04 #@! TO.C,H3*
X139697056Y-93302944D03*
X138000000Y-92600000D03*
X136302944Y-93302944D03*
X135600000Y-95000000D03*
X136302944Y-96697056D03*
X138000000Y-97400000D03*
X139697056Y-96697056D03*
X140400000Y-95000000D03*
D12*
X138000000Y-95000000D03*
G04 #@! TD*
G04 #@! TO.C,H4*
X184000000Y-95000000D03*
D11*
X186400000Y-95000000D03*
X185697056Y-96697056D03*
X184000000Y-97400000D03*
X182302944Y-96697056D03*
X181600000Y-95000000D03*
X182302944Y-93302944D03*
X184000000Y-92600000D03*
X185697056Y-93302944D03*
G04 #@! TD*
D12*
G04 #@! TO.C,H6*
X176500000Y-26000000D03*
D11*
X178900000Y-26000000D03*
X178197056Y-27697056D03*
X176500000Y-28400000D03*
X174802944Y-27697056D03*
X174100000Y-26000000D03*
X174802944Y-24302944D03*
X176500000Y-23600000D03*
X178197056Y-24302944D03*
G04 #@! TD*
G04 #@! TO.C,H7*
X147197056Y-53302944D03*
X145500000Y-52600000D03*
X143802944Y-53302944D03*
X143100000Y-55000000D03*
X143802944Y-56697056D03*
X145500000Y-57400000D03*
X147197056Y-56697056D03*
X147900000Y-55000000D03*
D12*
X145500000Y-55000000D03*
G04 #@! TD*
G04 #@! TO.C,H8*
X176500000Y-55000000D03*
D11*
X178900000Y-55000000D03*
X178197056Y-56697056D03*
X176500000Y-57400000D03*
X174802944Y-56697056D03*
X174100000Y-55000000D03*
X174802944Y-53302944D03*
X176500000Y-52600000D03*
X178197056Y-53302944D03*
G04 #@! TD*
D13*
G04 #@! TO.C,LS1*
X184000000Y-65000000D03*
D14*
X181460000Y-65000000D03*
G04 #@! TD*
D15*
G04 #@! TO.C,SW1*
X152000000Y-81500000D03*
X152000000Y-77000000D03*
X158500000Y-81500000D03*
X158500000Y-77000000D03*
G04 #@! TD*
G04 #@! TO.C,SW2*
X143500000Y-77000000D03*
X143500000Y-81500000D03*
X137000000Y-77000000D03*
X137000000Y-81500000D03*
G04 #@! TD*
G04 #@! TO.C,SW3*
X169625001Y-80175001D03*
X169625001Y-75675001D03*
X176125001Y-80175001D03*
X176125001Y-75675001D03*
G04 #@! TD*
G04 #@! TO.C,SW4*
X186500000Y-71000000D03*
X186500000Y-75500000D03*
X180000000Y-71000000D03*
X180000000Y-75500000D03*
G04 #@! TD*
G04 #@! TO.C,SW5*
X151000000Y-84500000D03*
X151000000Y-89000000D03*
X144500000Y-84500000D03*
X144500000Y-89000000D03*
G04 #@! TD*
G04 #@! TO.C,SW6*
X144500000Y-74000000D03*
X144500000Y-69500000D03*
X151000000Y-74000000D03*
X151000000Y-69500000D03*
G04 #@! TD*
D16*
G04 #@! TO.C,U2*
X161500000Y-26000000D03*
X158960000Y-26000000D03*
X164040000Y-26000000D03*
X156420000Y-26000000D03*
X166580000Y-26000000D03*
X153880000Y-26000000D03*
X169120000Y-26000000D03*
G04 #@! TD*
D13*
G04 #@! TO.C,J1*
X152500000Y-21000000D03*
D14*
X155040000Y-21000000D03*
X157580000Y-21000000D03*
X160120000Y-21000000D03*
X162660000Y-21000000D03*
X165200000Y-21000000D03*
X167740000Y-21000000D03*
X170280000Y-21000000D03*
G04 #@! TD*
D17*
G04 #@! TO.C,RV1*
X157000000Y-88000000D03*
X157000000Y-90500000D03*
X157000000Y-93000000D03*
D18*
X164000000Y-86100000D03*
X164000000Y-94900000D03*
G04 #@! TD*
D12*
G04 #@! TO.C,H5*
X145500000Y-26000000D03*
D11*
X147900000Y-26000000D03*
X147197056Y-27697056D03*
X145500000Y-28400000D03*
X143802944Y-27697056D03*
X143100000Y-26000000D03*
X143802944Y-24302944D03*
X145500000Y-23600000D03*
X147197056Y-24302944D03*
G04 #@! TD*
D13*
G04 #@! TO.C,J2*
X138000000Y-31000000D03*
D14*
X138000000Y-33540000D03*
X138000000Y-36080000D03*
X138000000Y-38620000D03*
X138000000Y-41160000D03*
X138000000Y-43700000D03*
X138000000Y-46240000D03*
X138000000Y-48780000D03*
G04 #@! TD*
G04 #@! TO.C,C1*
G36*
G01*
X142685000Y-88845000D02*
X142685000Y-89155000D01*
G75*
G02*
X142530000Y-89310000I-155000J0D01*
G01*
X142105000Y-89310000D01*
G75*
G02*
X141950000Y-89155000I0J155000D01*
G01*
X141950000Y-88845000D01*
G75*
G02*
X142105000Y-88690000I155000J0D01*
G01*
X142530000Y-88690000D01*
G75*
G02*
X142685000Y-88845000I0J-155000D01*
G01*
G37*
G36*
G01*
X141550000Y-88845000D02*
X141550000Y-89155000D01*
G75*
G02*
X141395000Y-89310000I-155000J0D01*
G01*
X140970000Y-89310000D01*
G75*
G02*
X140815000Y-89155000I0J155000D01*
G01*
X140815000Y-88845000D01*
G75*
G02*
X140970000Y-88690000I155000J0D01*
G01*
X141395000Y-88690000D01*
G75*
G02*
X141550000Y-88845000I0J-155000D01*
G01*
G37*
G04 #@! TD*
G04 #@! TO.C,C2*
G36*
G01*
X136700000Y-83905000D02*
X136700000Y-83595000D01*
G75*
G02*
X136855000Y-83440000I155000J0D01*
G01*
X137280000Y-83440000D01*
G75*
G02*
X137435000Y-83595000I0J-155000D01*
G01*
X137435000Y-83905000D01*
G75*
G02*
X137280000Y-84060000I-155000J0D01*
G01*
X136855000Y-84060000D01*
G75*
G02*
X136700000Y-83905000I0J155000D01*
G01*
G37*
G36*
G01*
X135565000Y-83905000D02*
X135565000Y-83595000D01*
G75*
G02*
X135720000Y-83440000I155000J0D01*
G01*
X136145000Y-83440000D01*
G75*
G02*
X136300000Y-83595000I0J-155000D01*
G01*
X136300000Y-83905000D01*
G75*
G02*
X136145000Y-84060000I-155000J0D01*
G01*
X135720000Y-84060000D01*
G75*
G02*
X135565000Y-83905000I0J155000D01*
G01*
G37*
G04 #@! TD*
G04 #@! TO.C,C3*
G36*
G01*
X150160000Y-81345000D02*
X150160000Y-81655000D01*
G75*
G02*
X150005000Y-81810000I-155000J0D01*
G01*
X149580000Y-81810000D01*
G75*
G02*
X149425000Y-81655000I0J155000D01*
G01*
X149425000Y-81345000D01*
G75*
G02*
X149580000Y-81190000I155000J0D01*
G01*
X150005000Y-81190000D01*
G75*
G02*
X150160000Y-81345000I0J-155000D01*
G01*
G37*
G36*
G01*
X149025000Y-81345000D02*
X149025000Y-81655000D01*
G75*
G02*
X148870000Y-81810000I-155000J0D01*
G01*
X148445000Y-81810000D01*
G75*
G02*
X148290000Y-81655000I0J155000D01*
G01*
X148290000Y-81345000D01*
G75*
G02*
X148445000Y-81190000I155000J0D01*
G01*
X148870000Y-81190000D01*
G75*
G02*
X149025000Y-81345000I0J-155000D01*
G01*
G37*
G04 #@! TD*
G04 #@! TO.C,C4*
G36*
G01*
X142435000Y-73845000D02*
X142435000Y-74155000D01*
G75*
G02*
X142280000Y-74310000I-155000J0D01*
G01*
X141855000Y-74310000D01*
G75*
G02*
X141700000Y-74155000I0J155000D01*
G01*
X141700000Y-73845000D01*
G75*
G02*
X141855000Y-73690000I155000J0D01*
G01*
X142280000Y-73690000D01*
G75*
G02*
X142435000Y-73845000I0J-155000D01*
G01*
G37*
G36*
G01*
X141300000Y-73845000D02*
X141300000Y-74155000D01*
G75*
G02*
X141145000Y-74310000I-155000J0D01*
G01*
X140720000Y-74310000D01*
G75*
G02*
X140565000Y-74155000I0J155000D01*
G01*
X140565000Y-73845000D01*
G75*
G02*
X140720000Y-73690000I155000J0D01*
G01*
X141145000Y-73690000D01*
G75*
G02*
X141300000Y-73845000I0J-155000D01*
G01*
G37*
G04 #@! TD*
G04 #@! TO.C,C5*
G36*
G01*
X185800000Y-78845000D02*
X185800000Y-79155000D01*
G75*
G02*
X185645000Y-79310000I-155000J0D01*
G01*
X185220000Y-79310000D01*
G75*
G02*
X185065000Y-79155000I0J155000D01*
G01*
X185065000Y-78845000D01*
G75*
G02*
X185220000Y-78690000I155000J0D01*
G01*
X185645000Y-78690000D01*
G75*
G02*
X185800000Y-78845000I0J-155000D01*
G01*
G37*
G36*
G01*
X186935000Y-78845000D02*
X186935000Y-79155000D01*
G75*
G02*
X186780000Y-79310000I-155000J0D01*
G01*
X186355000Y-79310000D01*
G75*
G02*
X186200000Y-79155000I0J155000D01*
G01*
X186200000Y-78845000D01*
G75*
G02*
X186355000Y-78690000I155000J0D01*
G01*
X186780000Y-78690000D01*
G75*
G02*
X186935000Y-78845000I0J-155000D01*
G01*
G37*
G04 #@! TD*
G04 #@! TO.C,C6*
G36*
G01*
X167685000Y-80845000D02*
X167685000Y-81155000D01*
G75*
G02*
X167530000Y-81310000I-155000J0D01*
G01*
X167105000Y-81310000D01*
G75*
G02*
X166950000Y-81155000I0J155000D01*
G01*
X166950000Y-80845000D01*
G75*
G02*
X167105000Y-80690000I155000J0D01*
G01*
X167530000Y-80690000D01*
G75*
G02*
X167685000Y-80845000I0J-155000D01*
G01*
G37*
G36*
G01*
X166550000Y-80845000D02*
X166550000Y-81155000D01*
G75*
G02*
X166395000Y-81310000I-155000J0D01*
G01*
X165970000Y-81310000D01*
G75*
G02*
X165815000Y-81155000I0J155000D01*
G01*
X165815000Y-80845000D01*
G75*
G02*
X165970000Y-80690000I155000J0D01*
G01*
X166395000Y-80690000D01*
G75*
G02*
X166550000Y-80845000I0J-155000D01*
G01*
G37*
G04 #@! TD*
G04 #@! TO.C,C9*
G36*
G01*
X155450000Y-61095000D02*
X155450000Y-61405000D01*
G75*
G02*
X155295000Y-61560000I-155000J0D01*
G01*
X154870000Y-61560000D01*
G75*
G02*
X154715000Y-61405000I0J155000D01*
G01*
X154715000Y-61095000D01*
G75*
G02*
X154870000Y-60940000I155000J0D01*
G01*
X155295000Y-60940000D01*
G75*
G02*
X155450000Y-61095000I0J-155000D01*
G01*
G37*
G36*
G01*
X156585000Y-61095000D02*
X156585000Y-61405000D01*
G75*
G02*
X156430000Y-61560000I-155000J0D01*
G01*
X156005000Y-61560000D01*
G75*
G02*
X155850000Y-61405000I0J155000D01*
G01*
X155850000Y-61095000D01*
G75*
G02*
X156005000Y-60940000I155000J0D01*
G01*
X156430000Y-60940000D01*
G75*
G02*
X156585000Y-61095000I0J-155000D01*
G01*
G37*
G04 #@! TD*
G04 #@! TO.C,C10*
G36*
G01*
X170715000Y-62905000D02*
X170715000Y-62595000D01*
G75*
G02*
X170870000Y-62440000I155000J0D01*
G01*
X171295000Y-62440000D01*
G75*
G02*
X171450000Y-62595000I0J-155000D01*
G01*
X171450000Y-62905000D01*
G75*
G02*
X171295000Y-63060000I-155000J0D01*
G01*
X170870000Y-63060000D01*
G75*
G02*
X170715000Y-62905000I0J155000D01*
G01*
G37*
G36*
G01*
X171850000Y-62905000D02*
X171850000Y-62595000D01*
G75*
G02*
X172005000Y-62440000I155000J0D01*
G01*
X172430000Y-62440000D01*
G75*
G02*
X172585000Y-62595000I0J-155000D01*
G01*
X172585000Y-62905000D01*
G75*
G02*
X172430000Y-63060000I-155000J0D01*
G01*
X172005000Y-63060000D01*
G75*
G02*
X171850000Y-62905000I0J155000D01*
G01*
G37*
G04 #@! TD*
G04 #@! TO.C,C11*
G36*
G01*
X157025000Y-63275000D02*
X157025000Y-64225000D01*
G75*
G02*
X156775000Y-64475000I-250000J0D01*
G01*
X156100000Y-64475000D01*
G75*
G02*
X155850000Y-64225000I0J250000D01*
G01*
X155850000Y-63275000D01*
G75*
G02*
X156100000Y-63025000I250000J0D01*
G01*
X156775000Y-63025000D01*
G75*
G02*
X157025000Y-63275000I0J-250000D01*
G01*
G37*
G36*
G01*
X154950000Y-63275000D02*
X154950000Y-64225000D01*
G75*
G02*
X154700000Y-64475000I-250000J0D01*
G01*
X154025000Y-64475000D01*
G75*
G02*
X153775000Y-64225000I0J250000D01*
G01*
X153775000Y-63275000D01*
G75*
G02*
X154025000Y-63025000I250000J0D01*
G01*
X154700000Y-63025000D01*
G75*
G02*
X154950000Y-63275000I0J-250000D01*
G01*
G37*
G04 #@! TD*
G04 #@! TO.C,C12*
G36*
G01*
X154450000Y-66275000D02*
X154450000Y-67225000D01*
G75*
G02*
X154200000Y-67475000I-250000J0D01*
G01*
X153525000Y-67475000D01*
G75*
G02*
X153275000Y-67225000I0J250000D01*
G01*
X153275000Y-66275000D01*
G75*
G02*
X153525000Y-66025000I250000J0D01*
G01*
X154200000Y-66025000D01*
G75*
G02*
X154450000Y-66275000I0J-250000D01*
G01*
G37*
G36*
G01*
X156525000Y-66275000D02*
X156525000Y-67225000D01*
G75*
G02*
X156275000Y-67475000I-250000J0D01*
G01*
X155600000Y-67475000D01*
G75*
G02*
X155350000Y-67225000I0J250000D01*
G01*
X155350000Y-66275000D01*
G75*
G02*
X155600000Y-66025000I250000J0D01*
G01*
X156275000Y-66025000D01*
G75*
G02*
X156525000Y-66275000I0J-250000D01*
G01*
G37*
G04 #@! TD*
G04 #@! TO.C,C13*
G36*
G01*
X156585000Y-62095000D02*
X156585000Y-62405000D01*
G75*
G02*
X156430000Y-62560000I-155000J0D01*
G01*
X156005000Y-62560000D01*
G75*
G02*
X155850000Y-62405000I0J155000D01*
G01*
X155850000Y-62095000D01*
G75*
G02*
X156005000Y-61940000I155000J0D01*
G01*
X156430000Y-61940000D01*
G75*
G02*
X156585000Y-62095000I0J-155000D01*
G01*
G37*
G36*
G01*
X155450000Y-62095000D02*
X155450000Y-62405000D01*
G75*
G02*
X155295000Y-62560000I-155000J0D01*
G01*
X154870000Y-62560000D01*
G75*
G02*
X154715000Y-62405000I0J155000D01*
G01*
X154715000Y-62095000D01*
G75*
G02*
X154870000Y-61940000I155000J0D01*
G01*
X155295000Y-61940000D01*
G75*
G02*
X155450000Y-62095000I0J-155000D01*
G01*
G37*
G04 #@! TD*
G04 #@! TO.C,C14*
G36*
G01*
X171850000Y-61905000D02*
X171850000Y-61595000D01*
G75*
G02*
X172005000Y-61440000I155000J0D01*
G01*
X172430000Y-61440000D01*
G75*
G02*
X172585000Y-61595000I0J-155000D01*
G01*
X172585000Y-61905000D01*
G75*
G02*
X172430000Y-62060000I-155000J0D01*
G01*
X172005000Y-62060000D01*
G75*
G02*
X171850000Y-61905000I0J155000D01*
G01*
G37*
G36*
G01*
X170715000Y-61905000D02*
X170715000Y-61595000D01*
G75*
G02*
X170870000Y-61440000I155000J0D01*
G01*
X171295000Y-61440000D01*
G75*
G02*
X171450000Y-61595000I0J-155000D01*
G01*
X171450000Y-61905000D01*
G75*
G02*
X171295000Y-62060000I-155000J0D01*
G01*
X170870000Y-62060000D01*
G75*
G02*
X170715000Y-61905000I0J155000D01*
G01*
G37*
G04 #@! TD*
G04 #@! TO.C,C15*
G36*
G01*
X164555000Y-55435000D02*
X164245000Y-55435000D01*
G75*
G02*
X164090000Y-55280000I0J155000D01*
G01*
X164090000Y-54855000D01*
G75*
G02*
X164245000Y-54700000I155000J0D01*
G01*
X164555000Y-54700000D01*
G75*
G02*
X164710000Y-54855000I0J-155000D01*
G01*
X164710000Y-55280000D01*
G75*
G02*
X164555000Y-55435000I-155000J0D01*
G01*
G37*
G36*
G01*
X164555000Y-54300000D02*
X164245000Y-54300000D01*
G75*
G02*
X164090000Y-54145000I0J155000D01*
G01*
X164090000Y-53720000D01*
G75*
G02*
X164245000Y-53565000I155000J0D01*
G01*
X164555000Y-53565000D01*
G75*
G02*
X164710000Y-53720000I0J-155000D01*
G01*
X164710000Y-54145000D01*
G75*
G02*
X164555000Y-54300000I-155000J0D01*
G01*
G37*
G04 #@! TD*
G04 #@! TO.C,C16*
G36*
G01*
X161055000Y-54300000D02*
X160745000Y-54300000D01*
G75*
G02*
X160590000Y-54145000I0J155000D01*
G01*
X160590000Y-53720000D01*
G75*
G02*
X160745000Y-53565000I155000J0D01*
G01*
X161055000Y-53565000D01*
G75*
G02*
X161210000Y-53720000I0J-155000D01*
G01*
X161210000Y-54145000D01*
G75*
G02*
X161055000Y-54300000I-155000J0D01*
G01*
G37*
G36*
G01*
X161055000Y-55435000D02*
X160745000Y-55435000D01*
G75*
G02*
X160590000Y-55280000I0J155000D01*
G01*
X160590000Y-54855000D01*
G75*
G02*
X160745000Y-54700000I155000J0D01*
G01*
X161055000Y-54700000D01*
G75*
G02*
X161210000Y-54855000I0J-155000D01*
G01*
X161210000Y-55280000D01*
G75*
G02*
X161055000Y-55435000I-155000J0D01*
G01*
G37*
G04 #@! TD*
G04 #@! TO.C,C17*
G36*
G01*
X159245000Y-69450000D02*
X159555000Y-69450000D01*
G75*
G02*
X159710000Y-69605000I0J-155000D01*
G01*
X159710000Y-70030000D01*
G75*
G02*
X159555000Y-70185000I-155000J0D01*
G01*
X159245000Y-70185000D01*
G75*
G02*
X159090000Y-70030000I0J155000D01*
G01*
X159090000Y-69605000D01*
G75*
G02*
X159245000Y-69450000I155000J0D01*
G01*
G37*
G36*
G01*
X159245000Y-68315000D02*
X159555000Y-68315000D01*
G75*
G02*
X159710000Y-68470000I0J-155000D01*
G01*
X159710000Y-68895000D01*
G75*
G02*
X159555000Y-69050000I-155000J0D01*
G01*
X159245000Y-69050000D01*
G75*
G02*
X159090000Y-68895000I0J155000D01*
G01*
X159090000Y-68470000D01*
G75*
G02*
X159245000Y-68315000I155000J0D01*
G01*
G37*
G04 #@! TD*
G04 #@! TO.C,C18*
G36*
G01*
X158245000Y-68315000D02*
X158555000Y-68315000D01*
G75*
G02*
X158710000Y-68470000I0J-155000D01*
G01*
X158710000Y-68895000D01*
G75*
G02*
X158555000Y-69050000I-155000J0D01*
G01*
X158245000Y-69050000D01*
G75*
G02*
X158090000Y-68895000I0J155000D01*
G01*
X158090000Y-68470000D01*
G75*
G02*
X158245000Y-68315000I155000J0D01*
G01*
G37*
G36*
G01*
X158245000Y-69450000D02*
X158555000Y-69450000D01*
G75*
G02*
X158710000Y-69605000I0J-155000D01*
G01*
X158710000Y-70030000D01*
G75*
G02*
X158555000Y-70185000I-155000J0D01*
G01*
X158245000Y-70185000D01*
G75*
G02*
X158090000Y-70030000I0J155000D01*
G01*
X158090000Y-69605000D01*
G75*
G02*
X158245000Y-69450000I155000J0D01*
G01*
G37*
G04 #@! TD*
G04 #@! TO.C,C19*
G36*
G01*
X155450000Y-65095000D02*
X155450000Y-65405000D01*
G75*
G02*
X155295000Y-65560000I-155000J0D01*
G01*
X154870000Y-65560000D01*
G75*
G02*
X154715000Y-65405000I0J155000D01*
G01*
X154715000Y-65095000D01*
G75*
G02*
X154870000Y-64940000I155000J0D01*
G01*
X155295000Y-64940000D01*
G75*
G02*
X155450000Y-65095000I0J-155000D01*
G01*
G37*
G36*
G01*
X156585000Y-65095000D02*
X156585000Y-65405000D01*
G75*
G02*
X156430000Y-65560000I-155000J0D01*
G01*
X156005000Y-65560000D01*
G75*
G02*
X155850000Y-65405000I0J155000D01*
G01*
X155850000Y-65095000D01*
G75*
G02*
X156005000Y-64940000I155000J0D01*
G01*
X156430000Y-64940000D01*
G75*
G02*
X156585000Y-65095000I0J-155000D01*
G01*
G37*
G04 #@! TD*
G04 #@! TO.C,C20*
G36*
G01*
X164245000Y-68315000D02*
X164555000Y-68315000D01*
G75*
G02*
X164710000Y-68470000I0J-155000D01*
G01*
X164710000Y-68895000D01*
G75*
G02*
X164555000Y-69050000I-155000J0D01*
G01*
X164245000Y-69050000D01*
G75*
G02*
X164090000Y-68895000I0J155000D01*
G01*
X164090000Y-68470000D01*
G75*
G02*
X164245000Y-68315000I155000J0D01*
G01*
G37*
G36*
G01*
X164245000Y-69450000D02*
X164555000Y-69450000D01*
G75*
G02*
X164710000Y-69605000I0J-155000D01*
G01*
X164710000Y-70030000D01*
G75*
G02*
X164555000Y-70185000I-155000J0D01*
G01*
X164245000Y-70185000D01*
G75*
G02*
X164090000Y-70030000I0J155000D01*
G01*
X164090000Y-69605000D01*
G75*
G02*
X164245000Y-69450000I155000J0D01*
G01*
G37*
G04 #@! TD*
G04 #@! TO.C,C22*
G36*
G01*
X152550000Y-63705000D02*
X152550000Y-63395000D01*
G75*
G02*
X152705000Y-63240000I155000J0D01*
G01*
X153130000Y-63240000D01*
G75*
G02*
X153285000Y-63395000I0J-155000D01*
G01*
X153285000Y-63705000D01*
G75*
G02*
X153130000Y-63860000I-155000J0D01*
G01*
X152705000Y-63860000D01*
G75*
G02*
X152550000Y-63705000I0J155000D01*
G01*
G37*
G36*
G01*
X151415000Y-63705000D02*
X151415000Y-63395000D01*
G75*
G02*
X151570000Y-63240000I155000J0D01*
G01*
X151995000Y-63240000D01*
G75*
G02*
X152150000Y-63395000I0J-155000D01*
G01*
X152150000Y-63705000D01*
G75*
G02*
X151995000Y-63860000I-155000J0D01*
G01*
X151570000Y-63860000D01*
G75*
G02*
X151415000Y-63705000I0J155000D01*
G01*
G37*
G04 #@! TD*
D13*
G04 #@! TO.C,J3*
X140540000Y-48780000D03*
D14*
X140540000Y-46240000D03*
X140540000Y-43700000D03*
X140540000Y-41160000D03*
G04 #@! TD*
D19*
G04 #@! TO.C,J4*
X183650000Y-58170000D03*
X186950000Y-58170000D03*
X183650000Y-57170000D03*
X186950000Y-57170000D03*
X183650000Y-56170000D03*
X186950000Y-56170000D03*
X183650000Y-55170000D03*
X186950000Y-55170000D03*
X183650000Y-54170000D03*
X186950000Y-54170000D03*
G04 #@! TD*
D20*
G04 #@! TO.C,JP1*
G36*
X170400000Y-27950602D02*
G01*
X170424534Y-27950602D01*
X170473365Y-27955412D01*
X170521490Y-27964984D01*
X170568445Y-27979228D01*
X170613778Y-27998005D01*
X170657051Y-28021136D01*
X170697850Y-28048396D01*
X170735779Y-28079524D01*
X170770476Y-28114221D01*
X170801604Y-28152150D01*
X170828864Y-28192949D01*
X170851995Y-28236222D01*
X170870772Y-28281555D01*
X170885016Y-28328510D01*
X170894588Y-28376635D01*
X170899398Y-28425466D01*
X170899398Y-28450000D01*
X170900000Y-28450000D01*
X170900000Y-28950000D01*
X170899398Y-28950000D01*
X170899398Y-28974534D01*
X170894588Y-29023365D01*
X170885016Y-29071490D01*
X170870772Y-29118445D01*
X170851995Y-29163778D01*
X170828864Y-29207051D01*
X170801604Y-29247850D01*
X170770476Y-29285779D01*
X170735779Y-29320476D01*
X170697850Y-29351604D01*
X170657051Y-29378864D01*
X170613778Y-29401995D01*
X170568445Y-29420772D01*
X170521490Y-29435016D01*
X170473365Y-29444588D01*
X170424534Y-29449398D01*
X170400000Y-29449398D01*
X170400000Y-29450000D01*
X169850000Y-29450000D01*
X169850000Y-27950000D01*
X170400000Y-27950000D01*
X170400000Y-27950602D01*
G37*
D21*
X169100000Y-28700000D03*
D20*
G36*
X168350000Y-29450000D02*
G01*
X167800000Y-29450000D01*
X167800000Y-29449398D01*
X167775466Y-29449398D01*
X167726635Y-29444588D01*
X167678510Y-29435016D01*
X167631555Y-29420772D01*
X167586222Y-29401995D01*
X167542949Y-29378864D01*
X167502150Y-29351604D01*
X167464221Y-29320476D01*
X167429524Y-29285779D01*
X167398396Y-29247850D01*
X167371136Y-29207051D01*
X167348005Y-29163778D01*
X167329228Y-29118445D01*
X167314984Y-29071490D01*
X167305412Y-29023365D01*
X167300602Y-28974534D01*
X167300602Y-28950000D01*
X167300000Y-28950000D01*
X167300000Y-28450000D01*
X167300602Y-28450000D01*
X167300602Y-28425466D01*
X167305412Y-28376635D01*
X167314984Y-28328510D01*
X167329228Y-28281555D01*
X167348005Y-28236222D01*
X167371136Y-28192949D01*
X167398396Y-28152150D01*
X167429524Y-28114221D01*
X167464221Y-28079524D01*
X167502150Y-28048396D01*
X167542949Y-28021136D01*
X167586222Y-27998005D01*
X167631555Y-27979228D01*
X167678510Y-27964984D01*
X167726635Y-27955412D01*
X167775466Y-27950602D01*
X167800000Y-27950602D01*
X167800000Y-27950000D01*
X168350000Y-27950000D01*
X168350000Y-29450000D01*
G37*
G04 #@! TD*
G04 #@! TO.C,R1*
G36*
G01*
X181480000Y-68180001D02*
X181480000Y-67279999D01*
G75*
G02*
X181729999Y-67030000I249999J0D01*
G01*
X182430001Y-67030000D01*
G75*
G02*
X182680000Y-67279999I0J-249999D01*
G01*
X182680000Y-68180001D01*
G75*
G02*
X182430001Y-68430000I-249999J0D01*
G01*
X181729999Y-68430000D01*
G75*
G02*
X181480000Y-68180001I0J249999D01*
G01*
G37*
G36*
G01*
X183480000Y-68180001D02*
X183480000Y-67279999D01*
G75*
G02*
X183729999Y-67030000I249999J0D01*
G01*
X184430001Y-67030000D01*
G75*
G02*
X184680000Y-67279999I0J-249999D01*
G01*
X184680000Y-68180001D01*
G75*
G02*
X184430001Y-68430000I-249999J0D01*
G01*
X183729999Y-68430000D01*
G75*
G02*
X183480000Y-68180001I0J249999D01*
G01*
G37*
G04 #@! TD*
G04 #@! TO.C,R2*
G36*
G01*
X142455000Y-72590000D02*
X142455000Y-72910000D01*
G75*
G02*
X142295000Y-73070000I-160000J0D01*
G01*
X141900000Y-73070000D01*
G75*
G02*
X141740000Y-72910000I0J160000D01*
G01*
X141740000Y-72590000D01*
G75*
G02*
X141900000Y-72430000I160000J0D01*
G01*
X142295000Y-72430000D01*
G75*
G02*
X142455000Y-72590000I0J-160000D01*
G01*
G37*
G36*
G01*
X141260000Y-72590000D02*
X141260000Y-72910000D01*
G75*
G02*
X141100000Y-73070000I-160000J0D01*
G01*
X140705000Y-73070000D01*
G75*
G02*
X140545000Y-72910000I0J160000D01*
G01*
X140545000Y-72590000D01*
G75*
G02*
X140705000Y-72430000I160000J0D01*
G01*
X141100000Y-72430000D01*
G75*
G02*
X141260000Y-72590000I0J-160000D01*
G01*
G37*
G04 #@! TD*
G04 #@! TO.C,R3*
G36*
G01*
X142705000Y-87590000D02*
X142705000Y-87910000D01*
G75*
G02*
X142545000Y-88070000I-160000J0D01*
G01*
X142150000Y-88070000D01*
G75*
G02*
X141990000Y-87910000I0J160000D01*
G01*
X141990000Y-87590000D01*
G75*
G02*
X142150000Y-87430000I160000J0D01*
G01*
X142545000Y-87430000D01*
G75*
G02*
X142705000Y-87590000I0J-160000D01*
G01*
G37*
G36*
G01*
X141510000Y-87590000D02*
X141510000Y-87910000D01*
G75*
G02*
X141350000Y-88070000I-160000J0D01*
G01*
X140955000Y-88070000D01*
G75*
G02*
X140795000Y-87910000I0J160000D01*
G01*
X140795000Y-87590000D01*
G75*
G02*
X140955000Y-87430000I160000J0D01*
G01*
X141350000Y-87430000D01*
G75*
G02*
X141510000Y-87590000I0J-160000D01*
G01*
G37*
G04 #@! TD*
G04 #@! TO.C,R4*
G36*
G01*
X135545000Y-85160000D02*
X135545000Y-84840000D01*
G75*
G02*
X135705000Y-84680000I160000J0D01*
G01*
X136100000Y-84680000D01*
G75*
G02*
X136260000Y-84840000I0J-160000D01*
G01*
X136260000Y-85160000D01*
G75*
G02*
X136100000Y-85320000I-160000J0D01*
G01*
X135705000Y-85320000D01*
G75*
G02*
X135545000Y-85160000I0J160000D01*
G01*
G37*
G36*
G01*
X136740000Y-85160000D02*
X136740000Y-84840000D01*
G75*
G02*
X136900000Y-84680000I160000J0D01*
G01*
X137295000Y-84680000D01*
G75*
G02*
X137455000Y-84840000I0J-160000D01*
G01*
X137455000Y-85160000D01*
G75*
G02*
X137295000Y-85320000I-160000J0D01*
G01*
X136900000Y-85320000D01*
G75*
G02*
X136740000Y-85160000I0J160000D01*
G01*
G37*
G04 #@! TD*
G04 #@! TO.C,R5*
G36*
G01*
X150205000Y-80090000D02*
X150205000Y-80410000D01*
G75*
G02*
X150045000Y-80570000I-160000J0D01*
G01*
X149650000Y-80570000D01*
G75*
G02*
X149490000Y-80410000I0J160000D01*
G01*
X149490000Y-80090000D01*
G75*
G02*
X149650000Y-79930000I160000J0D01*
G01*
X150045000Y-79930000D01*
G75*
G02*
X150205000Y-80090000I0J-160000D01*
G01*
G37*
G36*
G01*
X149010000Y-80090000D02*
X149010000Y-80410000D01*
G75*
G02*
X148850000Y-80570000I-160000J0D01*
G01*
X148455000Y-80570000D01*
G75*
G02*
X148295000Y-80410000I0J160000D01*
G01*
X148295000Y-80090000D01*
G75*
G02*
X148455000Y-79930000I160000J0D01*
G01*
X148850000Y-79930000D01*
G75*
G02*
X149010000Y-80090000I0J-160000D01*
G01*
G37*
G04 #@! TD*
G04 #@! TO.C,R6*
G36*
G01*
X185760000Y-77510000D02*
X185760000Y-77830000D01*
G75*
G02*
X185600000Y-77990000I-160000J0D01*
G01*
X185205000Y-77990000D01*
G75*
G02*
X185045000Y-77830000I0J160000D01*
G01*
X185045000Y-77510000D01*
G75*
G02*
X185205000Y-77350000I160000J0D01*
G01*
X185600000Y-77350000D01*
G75*
G02*
X185760000Y-77510000I0J-160000D01*
G01*
G37*
G36*
G01*
X186955000Y-77510000D02*
X186955000Y-77830000D01*
G75*
G02*
X186795000Y-77990000I-160000J0D01*
G01*
X186400000Y-77990000D01*
G75*
G02*
X186240000Y-77830000I0J160000D01*
G01*
X186240000Y-77510000D01*
G75*
G02*
X186400000Y-77350000I160000J0D01*
G01*
X186795000Y-77350000D01*
G75*
G02*
X186955000Y-77510000I0J-160000D01*
G01*
G37*
G04 #@! TD*
G04 #@! TO.C,R7*
G36*
G01*
X167680000Y-79590000D02*
X167680000Y-79910000D01*
G75*
G02*
X167520000Y-80070000I-160000J0D01*
G01*
X167125000Y-80070000D01*
G75*
G02*
X166965000Y-79910000I0J160000D01*
G01*
X166965000Y-79590000D01*
G75*
G02*
X167125000Y-79430000I160000J0D01*
G01*
X167520000Y-79430000D01*
G75*
G02*
X167680000Y-79590000I0J-160000D01*
G01*
G37*
G36*
G01*
X166485000Y-79590000D02*
X166485000Y-79910000D01*
G75*
G02*
X166325000Y-80070000I-160000J0D01*
G01*
X165930000Y-80070000D01*
G75*
G02*
X165770000Y-79910000I0J160000D01*
G01*
X165770000Y-79590000D01*
G75*
G02*
X165930000Y-79430000I160000J0D01*
G01*
X166325000Y-79430000D01*
G75*
G02*
X166485000Y-79590000I0J-160000D01*
G01*
G37*
G04 #@! TD*
G04 #@! TO.C,R8*
G36*
G01*
X134660000Y-64455000D02*
X134340000Y-64455000D01*
G75*
G02*
X134180000Y-64295000I0J160000D01*
G01*
X134180000Y-63900000D01*
G75*
G02*
X134340000Y-63740000I160000J0D01*
G01*
X134660000Y-63740000D01*
G75*
G02*
X134820000Y-63900000I0J-160000D01*
G01*
X134820000Y-64295000D01*
G75*
G02*
X134660000Y-64455000I-160000J0D01*
G01*
G37*
G36*
G01*
X134660000Y-63260000D02*
X134340000Y-63260000D01*
G75*
G02*
X134180000Y-63100000I0J160000D01*
G01*
X134180000Y-62705000D01*
G75*
G02*
X134340000Y-62545000I160000J0D01*
G01*
X134660000Y-62545000D01*
G75*
G02*
X134820000Y-62705000I0J-160000D01*
G01*
X134820000Y-63100000D01*
G75*
G02*
X134660000Y-63260000I-160000J0D01*
G01*
G37*
G04 #@! TD*
G04 #@! TO.C,R9*
G36*
G01*
X140860000Y-62960000D02*
X140540000Y-62960000D01*
G75*
G02*
X140380000Y-62800000I0J160000D01*
G01*
X140380000Y-62405000D01*
G75*
G02*
X140540000Y-62245000I160000J0D01*
G01*
X140860000Y-62245000D01*
G75*
G02*
X141020000Y-62405000I0J-160000D01*
G01*
X141020000Y-62800000D01*
G75*
G02*
X140860000Y-62960000I-160000J0D01*
G01*
G37*
G36*
G01*
X140860000Y-64155000D02*
X140540000Y-64155000D01*
G75*
G02*
X140380000Y-63995000I0J160000D01*
G01*
X140380000Y-63600000D01*
G75*
G02*
X140540000Y-63440000I160000J0D01*
G01*
X140860000Y-63440000D01*
G75*
G02*
X141020000Y-63600000I0J-160000D01*
G01*
X141020000Y-63995000D01*
G75*
G02*
X140860000Y-64155000I-160000J0D01*
G01*
G37*
G04 #@! TD*
G04 #@! TO.C,R10*
G36*
G01*
X171410000Y-60590000D02*
X171410000Y-60910000D01*
G75*
G02*
X171250000Y-61070000I-160000J0D01*
G01*
X170855000Y-61070000D01*
G75*
G02*
X170695000Y-60910000I0J160000D01*
G01*
X170695000Y-60590000D01*
G75*
G02*
X170855000Y-60430000I160000J0D01*
G01*
X171250000Y-60430000D01*
G75*
G02*
X171410000Y-60590000I0J-160000D01*
G01*
G37*
G36*
G01*
X172605000Y-60590000D02*
X172605000Y-60910000D01*
G75*
G02*
X172445000Y-61070000I-160000J0D01*
G01*
X172050000Y-61070000D01*
G75*
G02*
X171890000Y-60910000I0J160000D01*
G01*
X171890000Y-60590000D01*
G75*
G02*
X172050000Y-60430000I160000J0D01*
G01*
X172445000Y-60430000D01*
G75*
G02*
X172605000Y-60590000I0J-160000D01*
G01*
G37*
G04 #@! TD*
G04 #@! TO.C,R13*
G36*
G01*
X171410000Y-58590000D02*
X171410000Y-58910000D01*
G75*
G02*
X171250000Y-59070000I-160000J0D01*
G01*
X170855000Y-59070000D01*
G75*
G02*
X170695000Y-58910000I0J160000D01*
G01*
X170695000Y-58590000D01*
G75*
G02*
X170855000Y-58430000I160000J0D01*
G01*
X171250000Y-58430000D01*
G75*
G02*
X171410000Y-58590000I0J-160000D01*
G01*
G37*
G36*
G01*
X172605000Y-58590000D02*
X172605000Y-58910000D01*
G75*
G02*
X172445000Y-59070000I-160000J0D01*
G01*
X172050000Y-59070000D01*
G75*
G02*
X171890000Y-58910000I0J160000D01*
G01*
X171890000Y-58590000D01*
G75*
G02*
X172050000Y-58430000I160000J0D01*
G01*
X172445000Y-58430000D01*
G75*
G02*
X172605000Y-58590000I0J-160000D01*
G01*
G37*
G04 #@! TD*
G04 #@! TO.C,R15*
G36*
G01*
X171410000Y-59590000D02*
X171410000Y-59910000D01*
G75*
G02*
X171250000Y-60070000I-160000J0D01*
G01*
X170855000Y-60070000D01*
G75*
G02*
X170695000Y-59910000I0J160000D01*
G01*
X170695000Y-59590000D01*
G75*
G02*
X170855000Y-59430000I160000J0D01*
G01*
X171250000Y-59430000D01*
G75*
G02*
X171410000Y-59590000I0J-160000D01*
G01*
G37*
G36*
G01*
X172605000Y-59590000D02*
X172605000Y-59910000D01*
G75*
G02*
X172445000Y-60070000I-160000J0D01*
G01*
X172050000Y-60070000D01*
G75*
G02*
X171890000Y-59910000I0J160000D01*
G01*
X171890000Y-59590000D01*
G75*
G02*
X172050000Y-59430000I160000J0D01*
G01*
X172445000Y-59430000D01*
G75*
G02*
X172605000Y-59590000I0J-160000D01*
G01*
G37*
G04 #@! TD*
G04 #@! TO.C,R18*
G36*
G01*
X179955000Y-30840000D02*
X179955000Y-31160000D01*
G75*
G02*
X179795000Y-31320000I-160000J0D01*
G01*
X179400000Y-31320000D01*
G75*
G02*
X179240000Y-31160000I0J160000D01*
G01*
X179240000Y-30840000D01*
G75*
G02*
X179400000Y-30680000I160000J0D01*
G01*
X179795000Y-30680000D01*
G75*
G02*
X179955000Y-30840000I0J-160000D01*
G01*
G37*
G36*
G01*
X178760000Y-30840000D02*
X178760000Y-31160000D01*
G75*
G02*
X178600000Y-31320000I-160000J0D01*
G01*
X178205000Y-31320000D01*
G75*
G02*
X178045000Y-31160000I0J160000D01*
G01*
X178045000Y-30840000D01*
G75*
G02*
X178205000Y-30680000I160000J0D01*
G01*
X178600000Y-30680000D01*
G75*
G02*
X178760000Y-30840000I0J-160000D01*
G01*
G37*
G04 #@! TD*
G04 #@! TO.C,R19*
G36*
G01*
X139490000Y-63440000D02*
X139810000Y-63440000D01*
G75*
G02*
X139970000Y-63600000I0J-160000D01*
G01*
X139970000Y-63995000D01*
G75*
G02*
X139810000Y-64155000I-160000J0D01*
G01*
X139490000Y-64155000D01*
G75*
G02*
X139330000Y-63995000I0J160000D01*
G01*
X139330000Y-63600000D01*
G75*
G02*
X139490000Y-63440000I160000J0D01*
G01*
G37*
G36*
G01*
X139490000Y-62245000D02*
X139810000Y-62245000D01*
G75*
G02*
X139970000Y-62405000I0J-160000D01*
G01*
X139970000Y-62800000D01*
G75*
G02*
X139810000Y-62960000I-160000J0D01*
G01*
X139490000Y-62960000D01*
G75*
G02*
X139330000Y-62800000I0J160000D01*
G01*
X139330000Y-62405000D01*
G75*
G02*
X139490000Y-62245000I160000J0D01*
G01*
G37*
G04 #@! TD*
G04 #@! TO.C,U1*
G36*
G01*
X162044000Y-60400000D02*
X164956000Y-60400000D01*
G75*
G02*
X165100000Y-60544000I0J-144000D01*
G01*
X165100000Y-63456000D01*
G75*
G02*
X164956000Y-63600000I-144000J0D01*
G01*
X162044000Y-63600000D01*
G75*
G02*
X161900000Y-63456000I0J144000D01*
G01*
X161900000Y-60544000D01*
G75*
G02*
X162044000Y-60400000I144000J0D01*
G01*
G37*
G36*
G01*
X160850000Y-58125000D02*
X160950000Y-58125000D01*
G75*
G02*
X161000000Y-58175000I0J-50000D01*
G01*
X161000000Y-58950000D01*
G75*
G02*
X160950000Y-59000000I-50000J0D01*
G01*
X160850000Y-59000000D01*
G75*
G02*
X160800000Y-58950000I0J50000D01*
G01*
X160800000Y-58175000D01*
G75*
G02*
X160850000Y-58125000I50000J0D01*
G01*
G37*
G36*
G01*
X161250000Y-58125000D02*
X161350000Y-58125000D01*
G75*
G02*
X161400000Y-58175000I0J-50000D01*
G01*
X161400000Y-58950000D01*
G75*
G02*
X161350000Y-59000000I-50000J0D01*
G01*
X161250000Y-59000000D01*
G75*
G02*
X161200000Y-58950000I0J50000D01*
G01*
X161200000Y-58175000D01*
G75*
G02*
X161250000Y-58125000I50000J0D01*
G01*
G37*
G36*
G01*
X161650000Y-58125000D02*
X161750000Y-58125000D01*
G75*
G02*
X161800000Y-58175000I0J-50000D01*
G01*
X161800000Y-58950000D01*
G75*
G02*
X161750000Y-59000000I-50000J0D01*
G01*
X161650000Y-59000000D01*
G75*
G02*
X161600000Y-58950000I0J50000D01*
G01*
X161600000Y-58175000D01*
G75*
G02*
X161650000Y-58125000I50000J0D01*
G01*
G37*
G36*
G01*
X162050000Y-58125000D02*
X162150000Y-58125000D01*
G75*
G02*
X162200000Y-58175000I0J-50000D01*
G01*
X162200000Y-58950000D01*
G75*
G02*
X162150000Y-59000000I-50000J0D01*
G01*
X162050000Y-59000000D01*
G75*
G02*
X162000000Y-58950000I0J50000D01*
G01*
X162000000Y-58175000D01*
G75*
G02*
X162050000Y-58125000I50000J0D01*
G01*
G37*
G36*
G01*
X162450000Y-58125000D02*
X162550000Y-58125000D01*
G75*
G02*
X162600000Y-58175000I0J-50000D01*
G01*
X162600000Y-58950000D01*
G75*
G02*
X162550000Y-59000000I-50000J0D01*
G01*
X162450000Y-59000000D01*
G75*
G02*
X162400000Y-58950000I0J50000D01*
G01*
X162400000Y-58175000D01*
G75*
G02*
X162450000Y-58125000I50000J0D01*
G01*
G37*
G36*
G01*
X162850000Y-58125000D02*
X162950000Y-58125000D01*
G75*
G02*
X163000000Y-58175000I0J-50000D01*
G01*
X163000000Y-58950000D01*
G75*
G02*
X162950000Y-59000000I-50000J0D01*
G01*
X162850000Y-59000000D01*
G75*
G02*
X162800000Y-58950000I0J50000D01*
G01*
X162800000Y-58175000D01*
G75*
G02*
X162850000Y-58125000I50000J0D01*
G01*
G37*
G36*
G01*
X163250000Y-58125000D02*
X163350000Y-58125000D01*
G75*
G02*
X163400000Y-58175000I0J-50000D01*
G01*
X163400000Y-58950000D01*
G75*
G02*
X163350000Y-59000000I-50000J0D01*
G01*
X163250000Y-59000000D01*
G75*
G02*
X163200000Y-58950000I0J50000D01*
G01*
X163200000Y-58175000D01*
G75*
G02*
X163250000Y-58125000I50000J0D01*
G01*
G37*
G36*
G01*
X163650000Y-58125000D02*
X163750000Y-58125000D01*
G75*
G02*
X163800000Y-58175000I0J-50000D01*
G01*
X163800000Y-58950000D01*
G75*
G02*
X163750000Y-59000000I-50000J0D01*
G01*
X163650000Y-59000000D01*
G75*
G02*
X163600000Y-58950000I0J50000D01*
G01*
X163600000Y-58175000D01*
G75*
G02*
X163650000Y-58125000I50000J0D01*
G01*
G37*
G36*
G01*
X164050000Y-58125000D02*
X164150000Y-58125000D01*
G75*
G02*
X164200000Y-58175000I0J-50000D01*
G01*
X164200000Y-58950000D01*
G75*
G02*
X164150000Y-59000000I-50000J0D01*
G01*
X164050000Y-59000000D01*
G75*
G02*
X164000000Y-58950000I0J50000D01*
G01*
X164000000Y-58175000D01*
G75*
G02*
X164050000Y-58125000I50000J0D01*
G01*
G37*
G36*
G01*
X164450000Y-58125000D02*
X164550000Y-58125000D01*
G75*
G02*
X164600000Y-58175000I0J-50000D01*
G01*
X164600000Y-58950000D01*
G75*
G02*
X164550000Y-59000000I-50000J0D01*
G01*
X164450000Y-59000000D01*
G75*
G02*
X164400000Y-58950000I0J50000D01*
G01*
X164400000Y-58175000D01*
G75*
G02*
X164450000Y-58125000I50000J0D01*
G01*
G37*
G36*
G01*
X164850000Y-58125000D02*
X164950000Y-58125000D01*
G75*
G02*
X165000000Y-58175000I0J-50000D01*
G01*
X165000000Y-58950000D01*
G75*
G02*
X164950000Y-59000000I-50000J0D01*
G01*
X164850000Y-59000000D01*
G75*
G02*
X164800000Y-58950000I0J50000D01*
G01*
X164800000Y-58175000D01*
G75*
G02*
X164850000Y-58125000I50000J0D01*
G01*
G37*
G36*
G01*
X165250000Y-58125000D02*
X165350000Y-58125000D01*
G75*
G02*
X165400000Y-58175000I0J-50000D01*
G01*
X165400000Y-58950000D01*
G75*
G02*
X165350000Y-59000000I-50000J0D01*
G01*
X165250000Y-59000000D01*
G75*
G02*
X165200000Y-58950000I0J50000D01*
G01*
X165200000Y-58175000D01*
G75*
G02*
X165250000Y-58125000I50000J0D01*
G01*
G37*
G36*
G01*
X165650000Y-58125000D02*
X165750000Y-58125000D01*
G75*
G02*
X165800000Y-58175000I0J-50000D01*
G01*
X165800000Y-58950000D01*
G75*
G02*
X165750000Y-59000000I-50000J0D01*
G01*
X165650000Y-59000000D01*
G75*
G02*
X165600000Y-58950000I0J50000D01*
G01*
X165600000Y-58175000D01*
G75*
G02*
X165650000Y-58125000I50000J0D01*
G01*
G37*
G36*
G01*
X166050000Y-58125000D02*
X166150000Y-58125000D01*
G75*
G02*
X166200000Y-58175000I0J-50000D01*
G01*
X166200000Y-58950000D01*
G75*
G02*
X166150000Y-59000000I-50000J0D01*
G01*
X166050000Y-59000000D01*
G75*
G02*
X166000000Y-58950000I0J50000D01*
G01*
X166000000Y-58175000D01*
G75*
G02*
X166050000Y-58125000I50000J0D01*
G01*
G37*
G36*
G01*
X166550000Y-59300000D02*
X167325000Y-59300000D01*
G75*
G02*
X167375000Y-59350000I0J-50000D01*
G01*
X167375000Y-59450000D01*
G75*
G02*
X167325000Y-59500000I-50000J0D01*
G01*
X166550000Y-59500000D01*
G75*
G02*
X166500000Y-59450000I0J50000D01*
G01*
X166500000Y-59350000D01*
G75*
G02*
X166550000Y-59300000I50000J0D01*
G01*
G37*
G36*
G01*
X166550000Y-59700000D02*
X167325000Y-59700000D01*
G75*
G02*
X167375000Y-59750000I0J-50000D01*
G01*
X167375000Y-59850000D01*
G75*
G02*
X167325000Y-59900000I-50000J0D01*
G01*
X166550000Y-59900000D01*
G75*
G02*
X166500000Y-59850000I0J50000D01*
G01*
X166500000Y-59750000D01*
G75*
G02*
X166550000Y-59700000I50000J0D01*
G01*
G37*
G36*
G01*
X166550000Y-60100000D02*
X167325000Y-60100000D01*
G75*
G02*
X167375000Y-60150000I0J-50000D01*
G01*
X167375000Y-60250000D01*
G75*
G02*
X167325000Y-60300000I-50000J0D01*
G01*
X166550000Y-60300000D01*
G75*
G02*
X166500000Y-60250000I0J50000D01*
G01*
X166500000Y-60150000D01*
G75*
G02*
X166550000Y-60100000I50000J0D01*
G01*
G37*
G36*
G01*
X166550000Y-60500000D02*
X167325000Y-60500000D01*
G75*
G02*
X167375000Y-60550000I0J-50000D01*
G01*
X167375000Y-60650000D01*
G75*
G02*
X167325000Y-60700000I-50000J0D01*
G01*
X166550000Y-60700000D01*
G75*
G02*
X166500000Y-60650000I0J50000D01*
G01*
X166500000Y-60550000D01*
G75*
G02*
X166550000Y-60500000I50000J0D01*
G01*
G37*
G36*
G01*
X166550000Y-60900000D02*
X167325000Y-60900000D01*
G75*
G02*
X167375000Y-60950000I0J-50000D01*
G01*
X167375000Y-61050000D01*
G75*
G02*
X167325000Y-61100000I-50000J0D01*
G01*
X166550000Y-61100000D01*
G75*
G02*
X166500000Y-61050000I0J50000D01*
G01*
X166500000Y-60950000D01*
G75*
G02*
X166550000Y-60900000I50000J0D01*
G01*
G37*
G36*
G01*
X166550000Y-61300000D02*
X167325000Y-61300000D01*
G75*
G02*
X167375000Y-61350000I0J-50000D01*
G01*
X167375000Y-61450000D01*
G75*
G02*
X167325000Y-61500000I-50000J0D01*
G01*
X166550000Y-61500000D01*
G75*
G02*
X166500000Y-61450000I0J50000D01*
G01*
X166500000Y-61350000D01*
G75*
G02*
X166550000Y-61300000I50000J0D01*
G01*
G37*
G36*
G01*
X166550000Y-61700000D02*
X167325000Y-61700000D01*
G75*
G02*
X167375000Y-61750000I0J-50000D01*
G01*
X167375000Y-61850000D01*
G75*
G02*
X167325000Y-61900000I-50000J0D01*
G01*
X166550000Y-61900000D01*
G75*
G02*
X166500000Y-61850000I0J50000D01*
G01*
X166500000Y-61750000D01*
G75*
G02*
X166550000Y-61700000I50000J0D01*
G01*
G37*
G36*
G01*
X166550000Y-62100000D02*
X167325000Y-62100000D01*
G75*
G02*
X167375000Y-62150000I0J-50000D01*
G01*
X167375000Y-62250000D01*
G75*
G02*
X167325000Y-62300000I-50000J0D01*
G01*
X166550000Y-62300000D01*
G75*
G02*
X166500000Y-62250000I0J50000D01*
G01*
X166500000Y-62150000D01*
G75*
G02*
X166550000Y-62100000I50000J0D01*
G01*
G37*
G36*
G01*
X166550000Y-62500000D02*
X167325000Y-62500000D01*
G75*
G02*
X167375000Y-62550000I0J-50000D01*
G01*
X167375000Y-62650000D01*
G75*
G02*
X167325000Y-62700000I-50000J0D01*
G01*
X166550000Y-62700000D01*
G75*
G02*
X166500000Y-62650000I0J50000D01*
G01*
X166500000Y-62550000D01*
G75*
G02*
X166550000Y-62500000I50000J0D01*
G01*
G37*
G36*
G01*
X166550000Y-62900000D02*
X167325000Y-62900000D01*
G75*
G02*
X167375000Y-62950000I0J-50000D01*
G01*
X167375000Y-63050000D01*
G75*
G02*
X167325000Y-63100000I-50000J0D01*
G01*
X166550000Y-63100000D01*
G75*
G02*
X166500000Y-63050000I0J50000D01*
G01*
X166500000Y-62950000D01*
G75*
G02*
X166550000Y-62900000I50000J0D01*
G01*
G37*
G36*
G01*
X166550000Y-63300000D02*
X167325000Y-63300000D01*
G75*
G02*
X167375000Y-63350000I0J-50000D01*
G01*
X167375000Y-63450000D01*
G75*
G02*
X167325000Y-63500000I-50000J0D01*
G01*
X166550000Y-63500000D01*
G75*
G02*
X166500000Y-63450000I0J50000D01*
G01*
X166500000Y-63350000D01*
G75*
G02*
X166550000Y-63300000I50000J0D01*
G01*
G37*
G36*
G01*
X166550000Y-63700000D02*
X167325000Y-63700000D01*
G75*
G02*
X167375000Y-63750000I0J-50000D01*
G01*
X167375000Y-63850000D01*
G75*
G02*
X167325000Y-63900000I-50000J0D01*
G01*
X166550000Y-63900000D01*
G75*
G02*
X166500000Y-63850000I0J50000D01*
G01*
X166500000Y-63750000D01*
G75*
G02*
X166550000Y-63700000I50000J0D01*
G01*
G37*
G36*
G01*
X166550000Y-64100000D02*
X167325000Y-64100000D01*
G75*
G02*
X167375000Y-64150000I0J-50000D01*
G01*
X167375000Y-64250000D01*
G75*
G02*
X167325000Y-64300000I-50000J0D01*
G01*
X166550000Y-64300000D01*
G75*
G02*
X166500000Y-64250000I0J50000D01*
G01*
X166500000Y-64150000D01*
G75*
G02*
X166550000Y-64100000I50000J0D01*
G01*
G37*
G36*
G01*
X166550000Y-64500000D02*
X167325000Y-64500000D01*
G75*
G02*
X167375000Y-64550000I0J-50000D01*
G01*
X167375000Y-64650000D01*
G75*
G02*
X167325000Y-64700000I-50000J0D01*
G01*
X166550000Y-64700000D01*
G75*
G02*
X166500000Y-64650000I0J50000D01*
G01*
X166500000Y-64550000D01*
G75*
G02*
X166550000Y-64500000I50000J0D01*
G01*
G37*
G36*
G01*
X166050000Y-65000000D02*
X166150000Y-65000000D01*
G75*
G02*
X166200000Y-65050000I0J-50000D01*
G01*
X166200000Y-65825000D01*
G75*
G02*
X166150000Y-65875000I-50000J0D01*
G01*
X166050000Y-65875000D01*
G75*
G02*
X166000000Y-65825000I0J50000D01*
G01*
X166000000Y-65050000D01*
G75*
G02*
X166050000Y-65000000I50000J0D01*
G01*
G37*
G36*
G01*
X165650000Y-65000000D02*
X165750000Y-65000000D01*
G75*
G02*
X165800000Y-65050000I0J-50000D01*
G01*
X165800000Y-65825000D01*
G75*
G02*
X165750000Y-65875000I-50000J0D01*
G01*
X165650000Y-65875000D01*
G75*
G02*
X165600000Y-65825000I0J50000D01*
G01*
X165600000Y-65050000D01*
G75*
G02*
X165650000Y-65000000I50000J0D01*
G01*
G37*
G36*
G01*
X165250000Y-65000000D02*
X165350000Y-65000000D01*
G75*
G02*
X165400000Y-65050000I0J-50000D01*
G01*
X165400000Y-65825000D01*
G75*
G02*
X165350000Y-65875000I-50000J0D01*
G01*
X165250000Y-65875000D01*
G75*
G02*
X165200000Y-65825000I0J50000D01*
G01*
X165200000Y-65050000D01*
G75*
G02*
X165250000Y-65000000I50000J0D01*
G01*
G37*
G36*
G01*
X164850000Y-65000000D02*
X164950000Y-65000000D01*
G75*
G02*
X165000000Y-65050000I0J-50000D01*
G01*
X165000000Y-65825000D01*
G75*
G02*
X164950000Y-65875000I-50000J0D01*
G01*
X164850000Y-65875000D01*
G75*
G02*
X164800000Y-65825000I0J50000D01*
G01*
X164800000Y-65050000D01*
G75*
G02*
X164850000Y-65000000I50000J0D01*
G01*
G37*
G36*
G01*
X164450000Y-65000000D02*
X164550000Y-65000000D01*
G75*
G02*
X164600000Y-65050000I0J-50000D01*
G01*
X164600000Y-65825000D01*
G75*
G02*
X164550000Y-65875000I-50000J0D01*
G01*
X164450000Y-65875000D01*
G75*
G02*
X164400000Y-65825000I0J50000D01*
G01*
X164400000Y-65050000D01*
G75*
G02*
X164450000Y-65000000I50000J0D01*
G01*
G37*
G36*
G01*
X164050000Y-65000000D02*
X164150000Y-65000000D01*
G75*
G02*
X164200000Y-65050000I0J-50000D01*
G01*
X164200000Y-65825000D01*
G75*
G02*
X164150000Y-65875000I-50000J0D01*
G01*
X164050000Y-65875000D01*
G75*
G02*
X164000000Y-65825000I0J50000D01*
G01*
X164000000Y-65050000D01*
G75*
G02*
X164050000Y-65000000I50000J0D01*
G01*
G37*
G36*
G01*
X163650000Y-65000000D02*
X163750000Y-65000000D01*
G75*
G02*
X163800000Y-65050000I0J-50000D01*
G01*
X163800000Y-65825000D01*
G75*
G02*
X163750000Y-65875000I-50000J0D01*
G01*
X163650000Y-65875000D01*
G75*
G02*
X163600000Y-65825000I0J50000D01*
G01*
X163600000Y-65050000D01*
G75*
G02*
X163650000Y-65000000I50000J0D01*
G01*
G37*
G36*
G01*
X163250000Y-65000000D02*
X163350000Y-65000000D01*
G75*
G02*
X163400000Y-65050000I0J-50000D01*
G01*
X163400000Y-65825000D01*
G75*
G02*
X163350000Y-65875000I-50000J0D01*
G01*
X163250000Y-65875000D01*
G75*
G02*
X163200000Y-65825000I0J50000D01*
G01*
X163200000Y-65050000D01*
G75*
G02*
X163250000Y-65000000I50000J0D01*
G01*
G37*
G36*
G01*
X162850000Y-65000000D02*
X162950000Y-65000000D01*
G75*
G02*
X163000000Y-65050000I0J-50000D01*
G01*
X163000000Y-65825000D01*
G75*
G02*
X162950000Y-65875000I-50000J0D01*
G01*
X162850000Y-65875000D01*
G75*
G02*
X162800000Y-65825000I0J50000D01*
G01*
X162800000Y-65050000D01*
G75*
G02*
X162850000Y-65000000I50000J0D01*
G01*
G37*
G36*
G01*
X162450000Y-65000000D02*
X162550000Y-65000000D01*
G75*
G02*
X162600000Y-65050000I0J-50000D01*
G01*
X162600000Y-65825000D01*
G75*
G02*
X162550000Y-65875000I-50000J0D01*
G01*
X162450000Y-65875000D01*
G75*
G02*
X162400000Y-65825000I0J50000D01*
G01*
X162400000Y-65050000D01*
G75*
G02*
X162450000Y-65000000I50000J0D01*
G01*
G37*
G36*
G01*
X162050000Y-65000000D02*
X162150000Y-65000000D01*
G75*
G02*
X162200000Y-65050000I0J-50000D01*
G01*
X162200000Y-65825000D01*
G75*
G02*
X162150000Y-65875000I-50000J0D01*
G01*
X162050000Y-65875000D01*
G75*
G02*
X162000000Y-65825000I0J50000D01*
G01*
X162000000Y-65050000D01*
G75*
G02*
X162050000Y-65000000I50000J0D01*
G01*
G37*
G36*
G01*
X161650000Y-65000000D02*
X161750000Y-65000000D01*
G75*
G02*
X161800000Y-65050000I0J-50000D01*
G01*
X161800000Y-65825000D01*
G75*
G02*
X161750000Y-65875000I-50000J0D01*
G01*
X161650000Y-65875000D01*
G75*
G02*
X161600000Y-65825000I0J50000D01*
G01*
X161600000Y-65050000D01*
G75*
G02*
X161650000Y-65000000I50000J0D01*
G01*
G37*
G36*
G01*
X161250000Y-65000000D02*
X161350000Y-65000000D01*
G75*
G02*
X161400000Y-65050000I0J-50000D01*
G01*
X161400000Y-65825000D01*
G75*
G02*
X161350000Y-65875000I-50000J0D01*
G01*
X161250000Y-65875000D01*
G75*
G02*
X161200000Y-65825000I0J50000D01*
G01*
X161200000Y-65050000D01*
G75*
G02*
X161250000Y-65000000I50000J0D01*
G01*
G37*
G36*
G01*
X160850000Y-65000000D02*
X160950000Y-65000000D01*
G75*
G02*
X161000000Y-65050000I0J-50000D01*
G01*
X161000000Y-65825000D01*
G75*
G02*
X160950000Y-65875000I-50000J0D01*
G01*
X160850000Y-65875000D01*
G75*
G02*
X160800000Y-65825000I0J50000D01*
G01*
X160800000Y-65050000D01*
G75*
G02*
X160850000Y-65000000I50000J0D01*
G01*
G37*
G36*
G01*
X159675000Y-64500000D02*
X160450000Y-64500000D01*
G75*
G02*
X160500000Y-64550000I0J-50000D01*
G01*
X160500000Y-64650000D01*
G75*
G02*
X160450000Y-64700000I-50000J0D01*
G01*
X159675000Y-64700000D01*
G75*
G02*
X159625000Y-64650000I0J50000D01*
G01*
X159625000Y-64550000D01*
G75*
G02*
X159675000Y-64500000I50000J0D01*
G01*
G37*
G36*
G01*
X159675000Y-64100000D02*
X160450000Y-64100000D01*
G75*
G02*
X160500000Y-64150000I0J-50000D01*
G01*
X160500000Y-64250000D01*
G75*
G02*
X160450000Y-64300000I-50000J0D01*
G01*
X159675000Y-64300000D01*
G75*
G02*
X159625000Y-64250000I0J50000D01*
G01*
X159625000Y-64150000D01*
G75*
G02*
X159675000Y-64100000I50000J0D01*
G01*
G37*
G36*
G01*
X159675000Y-63700000D02*
X160450000Y-63700000D01*
G75*
G02*
X160500000Y-63750000I0J-50000D01*
G01*
X160500000Y-63850000D01*
G75*
G02*
X160450000Y-63900000I-50000J0D01*
G01*
X159675000Y-63900000D01*
G75*
G02*
X159625000Y-63850000I0J50000D01*
G01*
X159625000Y-63750000D01*
G75*
G02*
X159675000Y-63700000I50000J0D01*
G01*
G37*
G36*
G01*
X159675000Y-63300000D02*
X160450000Y-63300000D01*
G75*
G02*
X160500000Y-63350000I0J-50000D01*
G01*
X160500000Y-63450000D01*
G75*
G02*
X160450000Y-63500000I-50000J0D01*
G01*
X159675000Y-63500000D01*
G75*
G02*
X159625000Y-63450000I0J50000D01*
G01*
X159625000Y-63350000D01*
G75*
G02*
X159675000Y-63300000I50000J0D01*
G01*
G37*
G36*
G01*
X159675000Y-62900000D02*
X160450000Y-62900000D01*
G75*
G02*
X160500000Y-62950000I0J-50000D01*
G01*
X160500000Y-63050000D01*
G75*
G02*
X160450000Y-63100000I-50000J0D01*
G01*
X159675000Y-63100000D01*
G75*
G02*
X159625000Y-63050000I0J50000D01*
G01*
X159625000Y-62950000D01*
G75*
G02*
X159675000Y-62900000I50000J0D01*
G01*
G37*
G36*
G01*
X159675000Y-62500000D02*
X160450000Y-62500000D01*
G75*
G02*
X160500000Y-62550000I0J-50000D01*
G01*
X160500000Y-62650000D01*
G75*
G02*
X160450000Y-62700000I-50000J0D01*
G01*
X159675000Y-62700000D01*
G75*
G02*
X159625000Y-62650000I0J50000D01*
G01*
X159625000Y-62550000D01*
G75*
G02*
X159675000Y-62500000I50000J0D01*
G01*
G37*
G36*
G01*
X159675000Y-62100000D02*
X160450000Y-62100000D01*
G75*
G02*
X160500000Y-62150000I0J-50000D01*
G01*
X160500000Y-62250000D01*
G75*
G02*
X160450000Y-62300000I-50000J0D01*
G01*
X159675000Y-62300000D01*
G75*
G02*
X159625000Y-62250000I0J50000D01*
G01*
X159625000Y-62150000D01*
G75*
G02*
X159675000Y-62100000I50000J0D01*
G01*
G37*
G36*
G01*
X159675000Y-61700000D02*
X160450000Y-61700000D01*
G75*
G02*
X160500000Y-61750000I0J-50000D01*
G01*
X160500000Y-61850000D01*
G75*
G02*
X160450000Y-61900000I-50000J0D01*
G01*
X159675000Y-61900000D01*
G75*
G02*
X159625000Y-61850000I0J50000D01*
G01*
X159625000Y-61750000D01*
G75*
G02*
X159675000Y-61700000I50000J0D01*
G01*
G37*
G36*
G01*
X159675000Y-61300000D02*
X160450000Y-61300000D01*
G75*
G02*
X160500000Y-61350000I0J-50000D01*
G01*
X160500000Y-61450000D01*
G75*
G02*
X160450000Y-61500000I-50000J0D01*
G01*
X159675000Y-61500000D01*
G75*
G02*
X159625000Y-61450000I0J50000D01*
G01*
X159625000Y-61350000D01*
G75*
G02*
X159675000Y-61300000I50000J0D01*
G01*
G37*
G36*
G01*
X159675000Y-60900000D02*
X160450000Y-60900000D01*
G75*
G02*
X160500000Y-60950000I0J-50000D01*
G01*
X160500000Y-61050000D01*
G75*
G02*
X160450000Y-61100000I-50000J0D01*
G01*
X159675000Y-61100000D01*
G75*
G02*
X159625000Y-61050000I0J50000D01*
G01*
X159625000Y-60950000D01*
G75*
G02*
X159675000Y-60900000I50000J0D01*
G01*
G37*
G36*
G01*
X159675000Y-60500000D02*
X160450000Y-60500000D01*
G75*
G02*
X160500000Y-60550000I0J-50000D01*
G01*
X160500000Y-60650000D01*
G75*
G02*
X160450000Y-60700000I-50000J0D01*
G01*
X159675000Y-60700000D01*
G75*
G02*
X159625000Y-60650000I0J50000D01*
G01*
X159625000Y-60550000D01*
G75*
G02*
X159675000Y-60500000I50000J0D01*
G01*
G37*
G36*
G01*
X159675000Y-60100000D02*
X160450000Y-60100000D01*
G75*
G02*
X160500000Y-60150000I0J-50000D01*
G01*
X160500000Y-60250000D01*
G75*
G02*
X160450000Y-60300000I-50000J0D01*
G01*
X159675000Y-60300000D01*
G75*
G02*
X159625000Y-60250000I0J50000D01*
G01*
X159625000Y-60150000D01*
G75*
G02*
X159675000Y-60100000I50000J0D01*
G01*
G37*
G36*
G01*
X159675000Y-59700000D02*
X160450000Y-59700000D01*
G75*
G02*
X160500000Y-59750000I0J-50000D01*
G01*
X160500000Y-59850000D01*
G75*
G02*
X160450000Y-59900000I-50000J0D01*
G01*
X159675000Y-59900000D01*
G75*
G02*
X159625000Y-59850000I0J50000D01*
G01*
X159625000Y-59750000D01*
G75*
G02*
X159675000Y-59700000I50000J0D01*
G01*
G37*
G36*
G01*
X159675000Y-59300000D02*
X160450000Y-59300000D01*
G75*
G02*
X160500000Y-59350000I0J-50000D01*
G01*
X160500000Y-59450000D01*
G75*
G02*
X160450000Y-59500000I-50000J0D01*
G01*
X159675000Y-59500000D01*
G75*
G02*
X159625000Y-59450000I0J50000D01*
G01*
X159625000Y-59350000D01*
G75*
G02*
X159675000Y-59300000I50000J0D01*
G01*
G37*
G04 #@! TD*
G04 #@! TO.C,U3*
G36*
G01*
X141950000Y-63605000D02*
X141950000Y-63305000D01*
G75*
G02*
X142100000Y-63155000I150000J0D01*
G01*
X143400000Y-63155000D01*
G75*
G02*
X143550000Y-63305000I0J-150000D01*
G01*
X143550000Y-63605000D01*
G75*
G02*
X143400000Y-63755000I-150000J0D01*
G01*
X142100000Y-63755000D01*
G75*
G02*
X141950000Y-63605000I0J150000D01*
G01*
G37*
G36*
G01*
X141950000Y-62335000D02*
X141950000Y-62035000D01*
G75*
G02*
X142100000Y-61885000I150000J0D01*
G01*
X143400000Y-61885000D01*
G75*
G02*
X143550000Y-62035000I0J-150000D01*
G01*
X143550000Y-62335000D01*
G75*
G02*
X143400000Y-62485000I-150000J0D01*
G01*
X142100000Y-62485000D01*
G75*
G02*
X141950000Y-62335000I0J150000D01*
G01*
G37*
G36*
G01*
X141950000Y-61065000D02*
X141950000Y-60765000D01*
G75*
G02*
X142100000Y-60615000I150000J0D01*
G01*
X143400000Y-60615000D01*
G75*
G02*
X143550000Y-60765000I0J-150000D01*
G01*
X143550000Y-61065000D01*
G75*
G02*
X143400000Y-61215000I-150000J0D01*
G01*
X142100000Y-61215000D01*
G75*
G02*
X141950000Y-61065000I0J150000D01*
G01*
G37*
G36*
G01*
X141950000Y-59795000D02*
X141950000Y-59495000D01*
G75*
G02*
X142100000Y-59345000I150000J0D01*
G01*
X143400000Y-59345000D01*
G75*
G02*
X143550000Y-59495000I0J-150000D01*
G01*
X143550000Y-59795000D01*
G75*
G02*
X143400000Y-59945000I-150000J0D01*
G01*
X142100000Y-59945000D01*
G75*
G02*
X141950000Y-59795000I0J150000D01*
G01*
G37*
G36*
G01*
X149150000Y-59795000D02*
X149150000Y-59495000D01*
G75*
G02*
X149300000Y-59345000I150000J0D01*
G01*
X150600000Y-59345000D01*
G75*
G02*
X150750000Y-59495000I0J-150000D01*
G01*
X150750000Y-59795000D01*
G75*
G02*
X150600000Y-59945000I-150000J0D01*
G01*
X149300000Y-59945000D01*
G75*
G02*
X149150000Y-59795000I0J150000D01*
G01*
G37*
G36*
G01*
X149150000Y-61065000D02*
X149150000Y-60765000D01*
G75*
G02*
X149300000Y-60615000I150000J0D01*
G01*
X150600000Y-60615000D01*
G75*
G02*
X150750000Y-60765000I0J-150000D01*
G01*
X150750000Y-61065000D01*
G75*
G02*
X150600000Y-61215000I-150000J0D01*
G01*
X149300000Y-61215000D01*
G75*
G02*
X149150000Y-61065000I0J150000D01*
G01*
G37*
G36*
G01*
X149150000Y-62335000D02*
X149150000Y-62035000D01*
G75*
G02*
X149300000Y-61885000I150000J0D01*
G01*
X150600000Y-61885000D01*
G75*
G02*
X150750000Y-62035000I0J-150000D01*
G01*
X150750000Y-62335000D01*
G75*
G02*
X150600000Y-62485000I-150000J0D01*
G01*
X149300000Y-62485000D01*
G75*
G02*
X149150000Y-62335000I0J150000D01*
G01*
G37*
G36*
G01*
X149150000Y-63605000D02*
X149150000Y-63305000D01*
G75*
G02*
X149300000Y-63155000I150000J0D01*
G01*
X150600000Y-63155000D01*
G75*
G02*
X150750000Y-63305000I0J-150000D01*
G01*
X150750000Y-63605000D01*
G75*
G02*
X150600000Y-63755000I-150000J0D01*
G01*
X149300000Y-63755000D01*
G75*
G02*
X149150000Y-63605000I0J150000D01*
G01*
G37*
G04 #@! TD*
D22*
G04 #@! TO.C,U4*
X180350000Y-42750000D03*
D23*
X186650000Y-42750000D03*
X186650000Y-45050000D03*
X186650000Y-40450000D03*
G04 #@! TD*
D24*
G04 #@! TO.C,Y1*
X175000000Y-67750000D03*
X171200000Y-67750000D03*
G04 #@! TD*
G04 #@! TO.C,C7*
G36*
G01*
X171405000Y-65435000D02*
X171095000Y-65435000D01*
G75*
G02*
X170940000Y-65280000I0J155000D01*
G01*
X170940000Y-64855000D01*
G75*
G02*
X171095000Y-64700000I155000J0D01*
G01*
X171405000Y-64700000D01*
G75*
G02*
X171560000Y-64855000I0J-155000D01*
G01*
X171560000Y-65280000D01*
G75*
G02*
X171405000Y-65435000I-155000J0D01*
G01*
G37*
G36*
G01*
X171405000Y-64300000D02*
X171095000Y-64300000D01*
G75*
G02*
X170940000Y-64145000I0J155000D01*
G01*
X170940000Y-63720000D01*
G75*
G02*
X171095000Y-63565000I155000J0D01*
G01*
X171405000Y-63565000D01*
G75*
G02*
X171560000Y-63720000I0J-155000D01*
G01*
X171560000Y-64145000D01*
G75*
G02*
X171405000Y-64300000I-155000J0D01*
G01*
G37*
G04 #@! TD*
G04 #@! TO.C,C8*
G36*
G01*
X175155000Y-64300000D02*
X174845000Y-64300000D01*
G75*
G02*
X174690000Y-64145000I0J155000D01*
G01*
X174690000Y-63720000D01*
G75*
G02*
X174845000Y-63565000I155000J0D01*
G01*
X175155000Y-63565000D01*
G75*
G02*
X175310000Y-63720000I0J-155000D01*
G01*
X175310000Y-64145000D01*
G75*
G02*
X175155000Y-64300000I-155000J0D01*
G01*
G37*
G36*
G01*
X175155000Y-65435000D02*
X174845000Y-65435000D01*
G75*
G02*
X174690000Y-65280000I0J155000D01*
G01*
X174690000Y-64855000D01*
G75*
G02*
X174845000Y-64700000I155000J0D01*
G01*
X175155000Y-64700000D01*
G75*
G02*
X175310000Y-64855000I0J-155000D01*
G01*
X175310000Y-65280000D01*
G75*
G02*
X175155000Y-65435000I-155000J0D01*
G01*
G37*
G04 #@! TD*
D25*
G04 #@! TO.C,P1*
X187300000Y-34430000D03*
D26*
X183650000Y-33000000D03*
D25*
X187300000Y-25790000D03*
D26*
X183650000Y-27220000D03*
D27*
X183120000Y-25790000D03*
X183120000Y-34430000D03*
D28*
X182205000Y-29860000D03*
X182205000Y-31860000D03*
X182205000Y-31360000D03*
X182205000Y-30860000D03*
X182205000Y-30360000D03*
X182205000Y-29360000D03*
X182205000Y-28860000D03*
X182205000Y-28360000D03*
D29*
X182205000Y-33360000D03*
X182205000Y-32560000D03*
X182205000Y-27660000D03*
X182205000Y-26860000D03*
X182205000Y-26860000D03*
X182205000Y-27660000D03*
X182205000Y-32560000D03*
X182205000Y-33360000D03*
G04 #@! TD*
G04 #@! TO.C,D1*
G36*
G01*
X175230000Y-20797500D02*
X174910000Y-20797500D01*
G75*
G02*
X174750000Y-20637500I0J160000D01*
G01*
X174750000Y-20192500D01*
G75*
G02*
X174910000Y-20032500I160000J0D01*
G01*
X175230000Y-20032500D01*
G75*
G02*
X175390000Y-20192500I0J-160000D01*
G01*
X175390000Y-20637500D01*
G75*
G02*
X175230000Y-20797500I-160000J0D01*
G01*
G37*
G36*
G01*
X175230000Y-19652500D02*
X174910000Y-19652500D01*
G75*
G02*
X174750000Y-19492500I0J160000D01*
G01*
X174750000Y-19047500D01*
G75*
G02*
X174910000Y-18887500I160000J0D01*
G01*
X175230000Y-18887500D01*
G75*
G02*
X175390000Y-19047500I0J-160000D01*
G01*
X175390000Y-19492500D01*
G75*
G02*
X175230000Y-19652500I-160000J0D01*
G01*
G37*
G04 #@! TD*
G04 #@! TO.C,D2*
G36*
G01*
X176280000Y-19650000D02*
X175960000Y-19650000D01*
G75*
G02*
X175800000Y-19490000I0J160000D01*
G01*
X175800000Y-19045000D01*
G75*
G02*
X175960000Y-18885000I160000J0D01*
G01*
X176280000Y-18885000D01*
G75*
G02*
X176440000Y-19045000I0J-160000D01*
G01*
X176440000Y-19490000D01*
G75*
G02*
X176280000Y-19650000I-160000J0D01*
G01*
G37*
G36*
G01*
X176280000Y-20795000D02*
X175960000Y-20795000D01*
G75*
G02*
X175800000Y-20635000I0J160000D01*
G01*
X175800000Y-20190000D01*
G75*
G02*
X175960000Y-20030000I160000J0D01*
G01*
X176280000Y-20030000D01*
G75*
G02*
X176440000Y-20190000I0J-160000D01*
G01*
X176440000Y-20635000D01*
G75*
G02*
X176280000Y-20795000I-160000J0D01*
G01*
G37*
G04 #@! TD*
G04 #@! TO.C,D3*
G36*
G01*
X176515000Y-17990000D02*
X176515000Y-18310000D01*
G75*
G02*
X176355000Y-18470000I-160000J0D01*
G01*
X175910000Y-18470000D01*
G75*
G02*
X175750000Y-18310000I0J160000D01*
G01*
X175750000Y-17990000D01*
G75*
G02*
X175910000Y-17830000I160000J0D01*
G01*
X176355000Y-17830000D01*
G75*
G02*
X176515000Y-17990000I0J-160000D01*
G01*
G37*
G36*
G01*
X175370000Y-17990000D02*
X175370000Y-18310000D01*
G75*
G02*
X175210000Y-18470000I-160000J0D01*
G01*
X174765000Y-18470000D01*
G75*
G02*
X174605000Y-18310000I0J160000D01*
G01*
X174605000Y-17990000D01*
G75*
G02*
X174765000Y-17830000I160000J0D01*
G01*
X175210000Y-17830000D01*
G75*
G02*
X175370000Y-17990000I0J-160000D01*
G01*
G37*
G04 #@! TD*
G04 #@! TO.C,R14*
G36*
G01*
X174180000Y-20815000D02*
X173860000Y-20815000D01*
G75*
G02*
X173700000Y-20655000I0J160000D01*
G01*
X173700000Y-20260000D01*
G75*
G02*
X173860000Y-20100000I160000J0D01*
G01*
X174180000Y-20100000D01*
G75*
G02*
X174340000Y-20260000I0J-160000D01*
G01*
X174340000Y-20655000D01*
G75*
G02*
X174180000Y-20815000I-160000J0D01*
G01*
G37*
G36*
G01*
X174180000Y-19620000D02*
X173860000Y-19620000D01*
G75*
G02*
X173700000Y-19460000I0J160000D01*
G01*
X173700000Y-19065000D01*
G75*
G02*
X173860000Y-18905000I160000J0D01*
G01*
X174180000Y-18905000D01*
G75*
G02*
X174340000Y-19065000I0J-160000D01*
G01*
X174340000Y-19460000D01*
G75*
G02*
X174180000Y-19620000I-160000J0D01*
G01*
G37*
G04 #@! TD*
G04 #@! TO.C,R16*
G36*
G01*
X177340000Y-19620000D02*
X177020000Y-19620000D01*
G75*
G02*
X176860000Y-19460000I0J160000D01*
G01*
X176860000Y-19065000D01*
G75*
G02*
X177020000Y-18905000I160000J0D01*
G01*
X177340000Y-18905000D01*
G75*
G02*
X177500000Y-19065000I0J-160000D01*
G01*
X177500000Y-19460000D01*
G75*
G02*
X177340000Y-19620000I-160000J0D01*
G01*
G37*
G36*
G01*
X177340000Y-20815000D02*
X177020000Y-20815000D01*
G75*
G02*
X176860000Y-20655000I0J160000D01*
G01*
X176860000Y-20260000D01*
G75*
G02*
X177020000Y-20100000I160000J0D01*
G01*
X177340000Y-20100000D01*
G75*
G02*
X177500000Y-20260000I0J-160000D01*
G01*
X177500000Y-20655000D01*
G75*
G02*
X177340000Y-20815000I-160000J0D01*
G01*
G37*
G04 #@! TD*
G04 #@! TO.C,R17*
G36*
G01*
X176515000Y-16920000D02*
X176515000Y-17240000D01*
G75*
G02*
X176355000Y-17400000I-160000J0D01*
G01*
X175960000Y-17400000D01*
G75*
G02*
X175800000Y-17240000I0J160000D01*
G01*
X175800000Y-16920000D01*
G75*
G02*
X175960000Y-16760000I160000J0D01*
G01*
X176355000Y-16760000D01*
G75*
G02*
X176515000Y-16920000I0J-160000D01*
G01*
G37*
G36*
G01*
X175320000Y-16920000D02*
X175320000Y-17240000D01*
G75*
G02*
X175160000Y-17400000I-160000J0D01*
G01*
X174765000Y-17400000D01*
G75*
G02*
X174605000Y-17240000I0J160000D01*
G01*
X174605000Y-16920000D01*
G75*
G02*
X174765000Y-16760000I160000J0D01*
G01*
X175160000Y-16760000D01*
G75*
G02*
X175320000Y-16920000I0J-160000D01*
G01*
G37*
G04 #@! TD*
G04 #@! TO.C,C21*
G36*
G01*
X184600000Y-47599998D02*
X184600000Y-48900002D01*
G75*
G02*
X184350002Y-49150000I-249998J0D01*
G01*
X183524998Y-49150000D01*
G75*
G02*
X183275000Y-48900002I0J249998D01*
G01*
X183275000Y-47599998D01*
G75*
G02*
X183524998Y-47350000I249998J0D01*
G01*
X184350002Y-47350000D01*
G75*
G02*
X184600000Y-47599998I0J-249998D01*
G01*
G37*
G36*
G01*
X187725000Y-47599998D02*
X187725000Y-48900002D01*
G75*
G02*
X187475002Y-49150000I-249998J0D01*
G01*
X186649998Y-49150000D01*
G75*
G02*
X186400000Y-48900002I0J249998D01*
G01*
X186400000Y-47599998D01*
G75*
G02*
X186649998Y-47350000I249998J0D01*
G01*
X187475002Y-47350000D01*
G75*
G02*
X187725000Y-47599998I0J-249998D01*
G01*
G37*
G04 #@! TD*
G04 #@! TO.C,C23*
G36*
G01*
X183525000Y-37900002D02*
X183525000Y-36599998D01*
G75*
G02*
X183774998Y-36350000I249998J0D01*
G01*
X184600002Y-36350000D01*
G75*
G02*
X184850000Y-36599998I0J-249998D01*
G01*
X184850000Y-37900002D01*
G75*
G02*
X184600002Y-38150000I-249998J0D01*
G01*
X183774998Y-38150000D01*
G75*
G02*
X183525000Y-37900002I0J249998D01*
G01*
G37*
G36*
G01*
X186650000Y-37900002D02*
X186650000Y-36599998D01*
G75*
G02*
X186899998Y-36350000I249998J0D01*
G01*
X187725002Y-36350000D01*
G75*
G02*
X187975000Y-36599998I0J-249998D01*
G01*
X187975000Y-37900002D01*
G75*
G02*
X187725002Y-38150000I-249998J0D01*
G01*
X186899998Y-38150000D01*
G75*
G02*
X186650000Y-37900002I0J249998D01*
G01*
G37*
G04 #@! TD*
G04 #@! TO.C,R11*
G36*
G01*
X177575000Y-31962500D02*
X177575000Y-32437500D01*
G75*
G02*
X177337500Y-32675000I-237500J0D01*
G01*
X176837500Y-32675000D01*
G75*
G02*
X176600000Y-32437500I0J237500D01*
G01*
X176600000Y-31962500D01*
G75*
G02*
X176837500Y-31725000I237500J0D01*
G01*
X177337500Y-31725000D01*
G75*
G02*
X177575000Y-31962500I0J-237500D01*
G01*
G37*
G36*
G01*
X179400000Y-31962500D02*
X179400000Y-32437500D01*
G75*
G02*
X179162500Y-32675000I-237500J0D01*
G01*
X178662500Y-32675000D01*
G75*
G02*
X178425000Y-32437500I0J237500D01*
G01*
X178425000Y-31962500D01*
G75*
G02*
X178662500Y-31725000I237500J0D01*
G01*
X179162500Y-31725000D01*
G75*
G02*
X179400000Y-31962500I0J-237500D01*
G01*
G37*
G04 #@! TD*
G04 #@! TO.C,R12*
G36*
G01*
X179400000Y-33562500D02*
X179400000Y-34037500D01*
G75*
G02*
X179162500Y-34275000I-237500J0D01*
G01*
X178662500Y-34275000D01*
G75*
G02*
X178425000Y-34037500I0J237500D01*
G01*
X178425000Y-33562500D01*
G75*
G02*
X178662500Y-33325000I237500J0D01*
G01*
X179162500Y-33325000D01*
G75*
G02*
X179400000Y-33562500I0J-237500D01*
G01*
G37*
G36*
G01*
X177575000Y-33562500D02*
X177575000Y-34037500D01*
G75*
G02*
X177337500Y-34275000I-237500J0D01*
G01*
X176837500Y-34275000D01*
G75*
G02*
X176600000Y-34037500I0J237500D01*
G01*
X176600000Y-33562500D01*
G75*
G02*
X176837500Y-33325000I237500J0D01*
G01*
X177337500Y-33325000D01*
G75*
G02*
X177575000Y-33562500I0J-237500D01*
G01*
G37*
G04 #@! TD*
G04 #@! TO.C,F1*
G36*
G01*
X174925000Y-42300000D02*
X173675000Y-42300000D01*
G75*
G02*
X173425000Y-42050000I0J250000D01*
G01*
X173425000Y-41125000D01*
G75*
G02*
X173675000Y-40875000I250000J0D01*
G01*
X174925000Y-40875000D01*
G75*
G02*
X175175000Y-41125000I0J-250000D01*
G01*
X175175000Y-42050000D01*
G75*
G02*
X174925000Y-42300000I-250000J0D01*
G01*
G37*
G36*
G01*
X174925000Y-39325000D02*
X173675000Y-39325000D01*
G75*
G02*
X173425000Y-39075000I0J250000D01*
G01*
X173425000Y-38150000D01*
G75*
G02*
X173675000Y-37900000I250000J0D01*
G01*
X174925000Y-37900000D01*
G75*
G02*
X175175000Y-38150000I0J-250000D01*
G01*
X175175000Y-39075000D01*
G75*
G02*
X174925000Y-39325000I-250000J0D01*
G01*
G37*
G04 #@! TD*
D30*
X136773000Y-61973000D02*
X136327000Y-61973000D01*
X136327000Y-61727000D01*
X136773000Y-61727000D01*
X136773000Y-61973000D01*
D20*
G36*
X136773000Y-61973000D02*
G01*
X136327000Y-61973000D01*
X136327000Y-61727000D01*
X136773000Y-61727000D01*
X136773000Y-61973000D01*
G37*
D30*
X134673000Y-61973000D02*
X134227000Y-61973000D01*
X134227000Y-61727000D01*
X134673000Y-61727000D01*
X134673000Y-61973000D01*
D20*
G36*
X134673000Y-61973000D02*
G01*
X134227000Y-61973000D01*
X134227000Y-61727000D01*
X134673000Y-61727000D01*
X134673000Y-61973000D01*
G37*
D30*
X138573000Y-61973000D02*
X138227000Y-61973000D01*
X138227000Y-61727000D01*
X138573000Y-61727000D01*
X138573000Y-61973000D01*
D20*
G36*
X138573000Y-61973000D02*
G01*
X138227000Y-61973000D01*
X138227000Y-61727000D01*
X138573000Y-61727000D01*
X138573000Y-61973000D01*
G37*
D30*
X140773000Y-61773000D02*
X140427000Y-61773000D01*
X140427000Y-61727000D01*
X140773000Y-61727000D01*
X140773000Y-61773000D01*
D20*
G36*
X140773000Y-61773000D02*
G01*
X140427000Y-61773000D01*
X140427000Y-61727000D01*
X140773000Y-61727000D01*
X140773000Y-61773000D01*
G37*
D30*
X140773000Y-56273000D02*
X140427000Y-56273000D01*
X140427000Y-56127000D01*
X140773000Y-56127000D01*
X140773000Y-56273000D01*
D20*
G36*
X140773000Y-56273000D02*
G01*
X140427000Y-56273000D01*
X140427000Y-56127000D01*
X140773000Y-56127000D01*
X140773000Y-56273000D01*
G37*
D30*
X138573000Y-56373000D02*
X138227000Y-56373000D01*
X138227000Y-55927000D01*
X138573000Y-55927000D01*
X138573000Y-56373000D01*
D20*
G36*
X138573000Y-56373000D02*
G01*
X138227000Y-56373000D01*
X138227000Y-55927000D01*
X138573000Y-55927000D01*
X138573000Y-56373000D01*
G37*
D30*
X136773000Y-56273000D02*
X136427000Y-56273000D01*
X136427000Y-55927000D01*
X136773000Y-55927000D01*
X136773000Y-56273000D01*
D20*
G36*
X136773000Y-56273000D02*
G01*
X136427000Y-56273000D01*
X136427000Y-55927000D01*
X136773000Y-55927000D01*
X136773000Y-56273000D01*
G37*
D30*
X134573000Y-56273000D02*
X134227000Y-56273000D01*
X134227000Y-55927000D01*
X134573000Y-55927000D01*
X134573000Y-56273000D01*
D20*
G36*
X134573000Y-56273000D02*
G01*
X134227000Y-56273000D01*
X134227000Y-55927000D01*
X134573000Y-55927000D01*
X134573000Y-56273000D01*
G37*
M02*
