M48
; DRILL file {KiCad 5.1.9+dfsg1-1} date Sat Jun 11 22:33:06 2022
; FORMAT={-:-/ absolute / metric / decimal}
; #@! TF.CreationDate,2022-06-11T22:33:06-07:00
; #@! TF.GenerationSoftware,Kicad,Pcbnew,5.1.9+dfsg1-1
FMAT,2
METRIC
T1C0.300
T2C0.350
T3C0.500
T4C0.600
T5C0.762
T6C0.800
T7C1.000
T8C1.100
T9C3.200
T10C0.650
T11C2.000
%
G90
G05
T1
X138.64Y-64.15
X143.03Y-37.0
X144.23Y-62.13
X144.52Y-60.365
X145.07Y-61.465
X145.204Y-59.815
X149.25Y-73.45
X153.3Y-73.45
X153.84Y-62.1
X153.946Y-73.05
X156.9Y-72.65
X156.96Y-62.2
X157.016Y-61.478
X157.45Y-63.75
X158.628Y-63.932
X158.65Y-63.186
X158.987Y-65.291
X159.03Y-45.16
X159.46Y-58.62
X159.969Y-54.871
X160.17Y-55.85
X161.109Y-64.436
X161.111Y-72.191
X161.46Y-55.94
X161.59Y-45.42
X161.858Y-56.516
X162.2Y-55.06
X162.322Y-66.742
X162.601Y-36.481
X163.096Y-35.986
X163.128Y-67.528
X163.3Y-37.4
X163.7Y-38.023
X165.05Y-67.976
X165.2Y-55.09
X165.77Y-60.23
X165.95Y-62.16
X166.987Y-33.65
X167.065Y-65.201
X167.537Y-58.033
X167.642Y-58.725
X167.744Y-65.032
X167.9Y-31.17
X167.9Y-64.35
X167.943Y-32.683
X168.087Y-57.402
X168.436Y-60.3
X168.643Y-31.983
X169.055Y-60.85
X169.296Y-63.15
X169.395Y-63.843
X169.681Y-61.25
X169.838Y-64.434
X169.98Y-63.3
X170.46Y-41.09
X170.73Y-24.42
X171.01Y-40.49
X171.56Y-42.69
X172.12Y-57.72
X172.66Y-20.63
X172.893Y-18.603
X173.463Y-32.04
X173.56Y-36.06
X173.6Y-33.8
X173.847Y-62.565
X173.99Y-63.25
X174.3Y-43.7
X176.36Y-61.67
X178.976Y-68.047
X179.676Y-68.056
X180.429Y-67.869
X184.596Y-58.996
X187.08Y-58.89
X187.14Y-53.4
T2
X162.225Y-60.725
X162.225Y-62.0
X162.225Y-63.275
X163.5Y-60.725
X163.5Y-62.0
X163.5Y-63.275
X164.775Y-60.725
X164.775Y-62.0
X164.775Y-63.275
T3
X135.6Y-21.0
X135.6Y-95.0
X136.303Y-19.303
X136.303Y-22.697
X136.303Y-93.303
X136.303Y-96.697
X138.0Y-18.6
X138.0Y-23.4
X138.0Y-92.6
X138.0Y-97.4
X139.697Y-19.303
X139.697Y-22.697
X139.697Y-93.303
X139.697Y-96.697
X140.4Y-21.0
X140.4Y-95.0
X143.1Y-26.0
X143.1Y-55.0
X143.803Y-24.303
X143.803Y-27.697
X143.803Y-53.303
X143.803Y-56.697
X145.5Y-23.6
X145.5Y-28.4
X145.5Y-52.6
X145.5Y-57.4
X147.197Y-24.303
X147.197Y-27.697
X147.197Y-53.303
X147.197Y-56.697
X147.9Y-26.0
X147.9Y-55.0
X174.1Y-26.0
X174.1Y-55.0
X174.803Y-24.303
X174.803Y-27.697
X174.803Y-53.303
X174.803Y-56.697
X176.5Y-23.6
X176.5Y-28.4
X176.5Y-52.6
X176.5Y-57.4
X178.197Y-24.303
X178.197Y-27.697
X178.197Y-53.303
X178.197Y-56.697
X178.9Y-26.0
X178.9Y-55.0
X181.6Y-21.0
X181.6Y-95.0
X182.303Y-19.303
X182.303Y-22.697
X182.303Y-93.303
X182.303Y-96.697
X184.0Y-18.6
X184.0Y-23.4
X184.0Y-92.6
X184.0Y-97.4
X185.697Y-19.303
X185.697Y-22.697
X185.697Y-93.303
X185.697Y-96.697
X186.4Y-21.0
X186.4Y-95.0
T4
X136.35Y-52.75
X136.81Y-69.38
X139.63Y-27.32
X140.58Y-84.73
X142.42Y-47.43
X144.65Y-44.91
X146.93Y-38.98
X147.72Y-63.28
X147.88Y-19.27
X148.34Y-21.76
X149.96Y-17.45
X151.05Y-43.67
X151.12Y-51.17
X151.28Y-64.92
X152.52Y-66.91
X153.27Y-64.93
X154.93Y-47.55
X155.24Y-71.16
X157.15Y-65.98
X157.65Y-56.35
X158.0Y-41.05
X160.36Y-30.23
X161.5Y-51.48
X161.88Y-52.98
X163.71Y-31.54
X164.44Y-70.92
X164.62Y-52.97
X165.18Y-46.61
X165.78Y-51.28
X165.8Y-73.65
X166.19Y-56.59
X169.02Y-23.04
X169.26Y-53.54
X169.56Y-51.28
X171.19Y-72.66
X171.37Y-26.49
X176.87Y-49.18
X177.21Y-38.93
X179.45Y-86.47
X180.81Y-33.08
X180.87Y-27.78
X182.04Y-49.2
X182.76Y-53.0
X184.0Y-61.4
X184.29Y-45.01
X186.04Y-30.02
X186.05Y-37.37
T5
X153.88Y-26.0
X156.42Y-26.0
X158.96Y-26.0
X161.5Y-26.0
X164.04Y-26.0
X166.58Y-26.0
X169.12Y-26.0
T6
X171.2Y-67.75
X175.0Y-67.75
T7
X138.0Y-31.0
X138.0Y-33.54
X138.0Y-36.08
X138.0Y-38.62
X138.0Y-41.16
X138.0Y-43.7
X138.0Y-46.24
X138.0Y-48.78
X140.54Y-41.16
X140.54Y-43.7
X140.54Y-46.24
X140.54Y-48.78
X152.5Y-21.0
X155.04Y-21.0
X157.0Y-88.0
X157.0Y-90.5
X157.0Y-93.0
X157.58Y-21.0
X160.12Y-21.0
X162.66Y-21.0
X165.2Y-21.0
X167.74Y-21.0
X170.28Y-21.0
X181.46Y-65.0
X184.0Y-65.0
T8
X137.0Y-77.0
X137.0Y-81.5
X143.5Y-77.0
X143.5Y-81.5
X144.5Y-69.5
X144.5Y-74.0
X144.5Y-84.5
X144.5Y-89.0
X151.0Y-69.5
X151.0Y-74.0
X151.0Y-84.5
X151.0Y-89.0
X152.0Y-77.0
X152.0Y-81.5
X158.5Y-77.0
X158.5Y-81.5
X169.625Y-75.675
X169.625Y-80.175
X176.125Y-75.675
X176.125Y-80.175
X180.0Y-71.0
X180.0Y-75.5
X186.5Y-71.0
X186.5Y-75.5
T9
X138.0Y-21.0
X138.0Y-95.0
X145.5Y-26.0
X145.5Y-55.0
X176.5Y-26.0
X176.5Y-55.0
X184.0Y-21.0
X184.0Y-95.0
T10
X183.65Y-27.22
X183.65Y-33.0
T11
X164.0Y-86.1
X164.0Y-94.9
T4
X183.67Y-25.79G85X182.57Y-25.79
G05
X183.67Y-34.43G85X182.57Y-34.43
G05
X187.6Y-25.79G85X187.0Y-25.79
G05
X187.6Y-34.43G85X187.0Y-34.43
G05
T0
M30
