%FSLAX45Y45*%
G04 Gerber Fmt 4.5, Leading zero omitted, Abs format (unit mm)*
G04 Created by KiCad (PCBNEW 5.0.2+dfsg1-1) date Sun 10 Apr 2022 03:47:13 AM PDT*
%MOMM*%
%LPD*%
G01*
G04 APERTURE LIST*
%ADD10C,0.500000*%
%ADD11C,0.150000*%
%ADD12C,0.200000*%
%ADD13C,0.300000*%
G04 APERTURE END LIST*
D10*
X14539278Y-10931000D02*
G75*
G03X14539278Y-10931000I-180278J0D01*
G01*
D11*
X12444000Y-5466000D02*
X17044000Y-5466000D01*
X12444000Y-13866000D02*
X17044000Y-13866000D01*
X17544000Y-13366000D02*
X17544000Y-5966000D01*
X11944000Y-5966000D02*
X11944000Y-13366000D01*
X17044000Y-5466000D02*
G75*
G02X17544000Y-5966000I0J-500000D01*
G01*
X17544000Y-13366000D02*
G75*
G02X17044000Y-13866000I-500000J0D01*
G01*
X12444000Y-13866000D02*
G75*
G02X11944000Y-13366000I0J500000D01*
G01*
X11944000Y-5966000D02*
G75*
G02X12444000Y-5466000I500000J0D01*
G01*
D12*
X14180000Y-10752000D02*
X14536000Y-11108000D01*
X14536000Y-10752000D02*
X14180000Y-11108000D01*
D13*
X12222928Y-14339214D02*
X12222928Y-14039214D01*
X12294357Y-14039214D01*
X12337214Y-14053500D01*
X12365786Y-14082071D01*
X12380071Y-14110643D01*
X12394357Y-14167786D01*
X12394357Y-14210643D01*
X12380071Y-14267786D01*
X12365786Y-14296357D01*
X12337214Y-14324929D01*
X12294357Y-14339214D01*
X12222928Y-14339214D01*
X12522928Y-14339214D02*
X12522928Y-14139214D01*
X12522928Y-14196357D02*
X12537214Y-14167786D01*
X12551500Y-14153500D01*
X12580071Y-14139214D01*
X12608643Y-14139214D01*
X12708643Y-14339214D02*
X12708643Y-14139214D01*
X12708643Y-14039214D02*
X12694357Y-14053500D01*
X12708643Y-14067786D01*
X12722928Y-14053500D01*
X12708643Y-14039214D01*
X12708643Y-14067786D01*
X12894357Y-14339214D02*
X12865786Y-14324929D01*
X12851500Y-14296357D01*
X12851500Y-14039214D01*
X13051500Y-14339214D02*
X13022928Y-14324929D01*
X13008643Y-14296357D01*
X13008643Y-14039214D01*
X13394357Y-14339214D02*
X13394357Y-14039214D01*
X13494357Y-14253500D01*
X13594357Y-14039214D01*
X13594357Y-14339214D01*
X13865786Y-14339214D02*
X13865786Y-14182071D01*
X13851500Y-14153500D01*
X13822928Y-14139214D01*
X13765786Y-14139214D01*
X13737214Y-14153500D01*
X13865786Y-14324929D02*
X13837214Y-14339214D01*
X13765786Y-14339214D01*
X13737214Y-14324929D01*
X13722928Y-14296357D01*
X13722928Y-14267786D01*
X13737214Y-14239214D01*
X13765786Y-14224929D01*
X13837214Y-14224929D01*
X13865786Y-14210643D01*
X14008643Y-14139214D02*
X14008643Y-14439214D01*
X14008643Y-14153500D02*
X14037214Y-14139214D01*
X14094357Y-14139214D01*
X14122928Y-14153500D01*
X14137214Y-14167786D01*
X14151500Y-14196357D01*
X14151500Y-14282071D01*
X14137214Y-14310643D01*
X14122928Y-14324929D01*
X14094357Y-14339214D01*
X14037214Y-14339214D01*
X14008643Y-14324929D01*
X14280071Y-14310643D02*
X14294357Y-14324929D01*
X14280071Y-14339214D01*
X14265786Y-14324929D01*
X14280071Y-14310643D01*
X14280071Y-14339214D01*
X14280071Y-14153500D02*
X14294357Y-14167786D01*
X14280071Y-14182071D01*
X14265786Y-14167786D01*
X14280071Y-14153500D01*
X14280071Y-14182071D01*
X11580500Y-14655500D02*
X11936500Y-15011500D01*
X11936500Y-14655500D02*
X11580500Y-15011500D01*
X12194357Y-14669214D02*
X12380071Y-14669214D01*
X12280071Y-14783500D01*
X12322928Y-14783500D01*
X12351500Y-14797786D01*
X12365786Y-14812071D01*
X12380071Y-14840643D01*
X12380071Y-14912071D01*
X12365786Y-14940643D01*
X12351500Y-14954929D01*
X12322928Y-14969214D01*
X12237214Y-14969214D01*
X12208643Y-14954929D01*
X12194357Y-14940643D01*
X12508643Y-14940643D02*
X12522928Y-14954929D01*
X12508643Y-14969214D01*
X12494357Y-14954929D01*
X12508643Y-14940643D01*
X12508643Y-14969214D01*
X12794357Y-14669214D02*
X12651500Y-14669214D01*
X12637214Y-14812071D01*
X12651500Y-14797786D01*
X12680071Y-14783500D01*
X12751500Y-14783500D01*
X12780071Y-14797786D01*
X12794357Y-14812071D01*
X12808643Y-14840643D01*
X12808643Y-14912071D01*
X12794357Y-14940643D01*
X12780071Y-14954929D01*
X12751500Y-14969214D01*
X12680071Y-14969214D01*
X12651500Y-14954929D01*
X12637214Y-14940643D01*
X13065786Y-14669214D02*
X13008643Y-14669214D01*
X12980071Y-14683500D01*
X12965786Y-14697786D01*
X12937214Y-14740643D01*
X12922928Y-14797786D01*
X12922928Y-14912071D01*
X12937214Y-14940643D01*
X12951500Y-14954929D01*
X12980071Y-14969214D01*
X13037214Y-14969214D01*
X13065786Y-14954929D01*
X13080071Y-14940643D01*
X13094357Y-14912071D01*
X13094357Y-14840643D01*
X13080071Y-14812071D01*
X13065786Y-14797786D01*
X13037214Y-14783500D01*
X12980071Y-14783500D01*
X12951500Y-14797786D01*
X12937214Y-14812071D01*
X12922928Y-14840643D01*
X13222928Y-14969214D02*
X13222928Y-14769214D01*
X13222928Y-14797786D02*
X13237214Y-14783500D01*
X13265786Y-14769214D01*
X13308643Y-14769214D01*
X13337214Y-14783500D01*
X13351500Y-14812071D01*
X13351500Y-14969214D01*
X13351500Y-14812071D02*
X13365786Y-14783500D01*
X13394357Y-14769214D01*
X13437214Y-14769214D01*
X13465786Y-14783500D01*
X13480071Y-14812071D01*
X13480071Y-14969214D01*
X13622928Y-14969214D02*
X13622928Y-14769214D01*
X13622928Y-14797786D02*
X13637214Y-14783500D01*
X13665786Y-14769214D01*
X13708643Y-14769214D01*
X13737214Y-14783500D01*
X13751500Y-14812071D01*
X13751500Y-14969214D01*
X13751500Y-14812071D02*
X13765786Y-14783500D01*
X13794357Y-14769214D01*
X13837214Y-14769214D01*
X13865786Y-14783500D01*
X13880071Y-14812071D01*
X13880071Y-14969214D01*
X14465786Y-14654929D02*
X14208643Y-15040643D01*
X14851500Y-14669214D02*
X14880071Y-14669214D01*
X14908643Y-14683500D01*
X14922928Y-14697786D01*
X14937214Y-14726357D01*
X14951500Y-14783500D01*
X14951500Y-14854929D01*
X14937214Y-14912071D01*
X14922928Y-14940643D01*
X14908643Y-14954929D01*
X14880071Y-14969214D01*
X14851500Y-14969214D01*
X14822928Y-14954929D01*
X14808643Y-14940643D01*
X14794357Y-14912071D01*
X14780071Y-14854929D01*
X14780071Y-14783500D01*
X14794357Y-14726357D01*
X14808643Y-14697786D01*
X14822928Y-14683500D01*
X14851500Y-14669214D01*
X15080071Y-14940643D02*
X15094357Y-14954929D01*
X15080071Y-14969214D01*
X15065786Y-14954929D01*
X15080071Y-14940643D01*
X15080071Y-14969214D01*
X15380071Y-14969214D02*
X15208643Y-14969214D01*
X15294357Y-14969214D02*
X15294357Y-14669214D01*
X15265786Y-14712071D01*
X15237214Y-14740643D01*
X15208643Y-14754929D01*
X15637214Y-14769214D02*
X15637214Y-14969214D01*
X15565786Y-14654929D02*
X15494357Y-14869214D01*
X15680071Y-14869214D01*
X15851500Y-14669214D02*
X15880071Y-14669214D01*
X15908643Y-14683500D01*
X15922928Y-14697786D01*
X15937214Y-14726357D01*
X15951500Y-14783500D01*
X15951500Y-14854929D01*
X15937214Y-14912071D01*
X15922928Y-14940643D01*
X15908643Y-14954929D01*
X15880071Y-14969214D01*
X15851500Y-14969214D01*
X15822928Y-14954929D01*
X15808643Y-14940643D01*
X15794357Y-14912071D01*
X15780071Y-14854929D01*
X15780071Y-14783500D01*
X15794357Y-14726357D01*
X15808643Y-14697786D01*
X15822928Y-14683500D01*
X15851500Y-14669214D01*
X16065786Y-14669214D02*
X16065786Y-14726357D01*
X16180071Y-14669214D02*
X16180071Y-14726357D01*
X16622928Y-15083500D02*
X16608643Y-15069214D01*
X16580071Y-15026357D01*
X16565786Y-14997786D01*
X16551500Y-14954929D01*
X16537214Y-14883500D01*
X16537214Y-14826357D01*
X16551500Y-14754929D01*
X16565786Y-14712071D01*
X16580071Y-14683500D01*
X16608643Y-14640643D01*
X16622928Y-14626357D01*
X16894357Y-14969214D02*
X16722928Y-14969214D01*
X16808643Y-14969214D02*
X16808643Y-14669214D01*
X16780071Y-14712071D01*
X16751500Y-14740643D01*
X16722928Y-14754929D01*
X17251500Y-14969214D02*
X17251500Y-14669214D01*
X17380071Y-14969214D02*
X17380071Y-14812071D01*
X17365786Y-14783500D01*
X17337214Y-14769214D01*
X17294357Y-14769214D01*
X17265786Y-14783500D01*
X17251500Y-14797786D01*
X17565786Y-14969214D02*
X17537214Y-14954929D01*
X17522928Y-14940643D01*
X17508643Y-14912071D01*
X17508643Y-14826357D01*
X17522928Y-14797786D01*
X17537214Y-14783500D01*
X17565786Y-14769214D01*
X17608643Y-14769214D01*
X17637214Y-14783500D01*
X17651500Y-14797786D01*
X17665786Y-14826357D01*
X17665786Y-14912071D01*
X17651500Y-14940643D01*
X17637214Y-14954929D01*
X17608643Y-14969214D01*
X17565786Y-14969214D01*
X17837214Y-14969214D02*
X17808643Y-14954929D01*
X17794357Y-14926357D01*
X17794357Y-14669214D01*
X18065786Y-14954929D02*
X18037214Y-14969214D01*
X17980071Y-14969214D01*
X17951500Y-14954929D01*
X17937214Y-14926357D01*
X17937214Y-14812071D01*
X17951500Y-14783500D01*
X17980071Y-14769214D01*
X18037214Y-14769214D01*
X18065786Y-14783500D01*
X18080071Y-14812071D01*
X18080071Y-14840643D01*
X17937214Y-14869214D01*
X18180071Y-15083500D02*
X18194357Y-15069214D01*
X18222928Y-15026357D01*
X18237214Y-14997786D01*
X18251500Y-14954929D01*
X18265786Y-14883500D01*
X18265786Y-14826357D01*
X18251500Y-14754929D01*
X18237214Y-14712071D01*
X18222928Y-14683500D01*
X18194357Y-14640643D01*
X18180071Y-14626357D01*
X18722928Y-15083500D02*
X18708643Y-15069214D01*
X18680071Y-15026357D01*
X18665786Y-14997786D01*
X18651500Y-14954929D01*
X18637214Y-14883500D01*
X18637214Y-14826357D01*
X18651500Y-14754929D01*
X18665786Y-14712071D01*
X18680071Y-14683500D01*
X18708643Y-14640643D01*
X18722928Y-14626357D01*
X18837214Y-14769214D02*
X18837214Y-14969214D01*
X18837214Y-14797786D02*
X18851500Y-14783500D01*
X18880071Y-14769214D01*
X18922928Y-14769214D01*
X18951500Y-14783500D01*
X18965786Y-14812071D01*
X18965786Y-14969214D01*
X19151500Y-14969214D02*
X19122928Y-14954929D01*
X19108643Y-14940643D01*
X19094357Y-14912071D01*
X19094357Y-14826357D01*
X19108643Y-14797786D01*
X19122928Y-14783500D01*
X19151500Y-14769214D01*
X19194357Y-14769214D01*
X19222928Y-14783500D01*
X19237214Y-14797786D01*
X19251500Y-14826357D01*
X19251500Y-14912071D01*
X19237214Y-14940643D01*
X19222928Y-14954929D01*
X19194357Y-14969214D01*
X19151500Y-14969214D01*
X19337214Y-14769214D02*
X19451500Y-14769214D01*
X19380071Y-14669214D02*
X19380071Y-14926357D01*
X19394357Y-14954929D01*
X19422928Y-14969214D01*
X19451500Y-14969214D01*
X19780071Y-14769214D02*
X19780071Y-15069214D01*
X19780071Y-14783500D02*
X19808643Y-14769214D01*
X19865786Y-14769214D01*
X19894357Y-14783500D01*
X19908643Y-14797786D01*
X19922928Y-14826357D01*
X19922928Y-14912071D01*
X19908643Y-14940643D01*
X19894357Y-14954929D01*
X19865786Y-14969214D01*
X19808643Y-14969214D01*
X19780071Y-14954929D01*
X20094357Y-14969214D02*
X20065786Y-14954929D01*
X20051500Y-14926357D01*
X20051500Y-14669214D01*
X20337214Y-14969214D02*
X20337214Y-14812071D01*
X20322928Y-14783500D01*
X20294357Y-14769214D01*
X20237214Y-14769214D01*
X20208643Y-14783500D01*
X20337214Y-14954929D02*
X20308643Y-14969214D01*
X20237214Y-14969214D01*
X20208643Y-14954929D01*
X20194357Y-14926357D01*
X20194357Y-14897786D01*
X20208643Y-14869214D01*
X20237214Y-14854929D01*
X20308643Y-14854929D01*
X20337214Y-14840643D01*
X20437214Y-14769214D02*
X20551500Y-14769214D01*
X20480071Y-14669214D02*
X20480071Y-14926357D01*
X20494357Y-14954929D01*
X20522928Y-14969214D01*
X20551500Y-14969214D01*
X20765786Y-14954929D02*
X20737214Y-14969214D01*
X20680071Y-14969214D01*
X20651500Y-14954929D01*
X20637214Y-14926357D01*
X20637214Y-14812071D01*
X20651500Y-14783500D01*
X20680071Y-14769214D01*
X20737214Y-14769214D01*
X20765786Y-14783500D01*
X20780071Y-14812071D01*
X20780071Y-14840643D01*
X20637214Y-14869214D01*
X21037214Y-14969214D02*
X21037214Y-14669214D01*
X21037214Y-14954929D02*
X21008643Y-14969214D01*
X20951500Y-14969214D01*
X20922928Y-14954929D01*
X20908643Y-14940643D01*
X20894357Y-14912071D01*
X20894357Y-14826357D01*
X20908643Y-14797786D01*
X20922928Y-14783500D01*
X20951500Y-14769214D01*
X21008643Y-14769214D01*
X21037214Y-14783500D01*
X21151500Y-15083500D02*
X21165786Y-15069214D01*
X21194357Y-15026357D01*
X21208643Y-14997786D01*
X21222928Y-14954929D01*
X21237214Y-14883500D01*
X21237214Y-14826357D01*
X21222928Y-14754929D01*
X21208643Y-14712071D01*
X21194357Y-14683500D01*
X21165786Y-14640643D01*
X21151500Y-14626357D01*
M02*
