%TF.GenerationSoftware,KiCad,Pcbnew,5.0.2+dfsg1-1*%
%TF.CreationDate,2022-04-10T03:47:20-07:00*%
%TF.ProjectId,keygame-batpack,6b657967-616d-4652-9d62-61747061636b,rev?*%
%TF.SameCoordinates,Original*%
%TF.FileFunction,Legend,Top*%
%TF.FilePolarity,Positive*%
%FSLAX46Y46*%
G04 Gerber Fmt 4.6, Leading zero omitted, Abs format (unit mm)*
G04 Created by KiCad (PCBNEW 5.0.2+dfsg1-1) date Sun 10 Apr 2022 03:47:20 AM PDT*
%MOMM*%
%LPD*%
G01*
G04 APERTURE LIST*
%ADD10C,0.500000*%
%ADD11C,0.375000*%
%ADD12C,0.187500*%
%ADD13C,0.250000*%
%ADD14C,0.200000*%
%ADD15C,0.120000*%
%ADD16C,0.127000*%
%ADD17C,0.150000*%
%ADD18C,0.010000*%
%ADD19C,0.902000*%
%ADD20C,6.502000*%
%ADD21R,1.802000X1.802000*%
%ADD22O,1.802000X1.802000*%
%ADD23C,1.857000*%
%ADD24C,3.662000*%
%ADD25R,1.902000X1.902000*%
%ADD26O,1.902000X1.902000*%
%ADD27C,3.102000*%
%ADD28C,0.500000*%
%ADD29C,0.100000*%
%ADD30R,1.102000X1.602000*%
G04 APERTURE END LIST*
D10*
X172440000Y-101160000D02*
X170940000Y-100660000D01*
X170940000Y-102160000D02*
X172440000Y-101160000D01*
X170940000Y-100660000D02*
X170940000Y-102160000D01*
X166440000Y-101160000D02*
X167940000Y-100660000D01*
X167940000Y-102160000D02*
X166440000Y-101160000D01*
X167940000Y-100660000D02*
X167940000Y-102160000D01*
X172940000Y-103660000D02*
X170940000Y-100660000D01*
X165940000Y-103660000D02*
X167940000Y-100660000D01*
D11*
X173547142Y-116981428D02*
X173618571Y-116767142D01*
X173618571Y-116410000D01*
X173547142Y-116267142D01*
X173475714Y-116195714D01*
X173332857Y-116124285D01*
X173190000Y-116124285D01*
X173047142Y-116195714D01*
X172975714Y-116267142D01*
X172904285Y-116410000D01*
X172832857Y-116695714D01*
X172761428Y-116838571D01*
X172690000Y-116910000D01*
X172547142Y-116981428D01*
X172404285Y-116981428D01*
X172261428Y-116910000D01*
X172190000Y-116838571D01*
X172118571Y-116695714D01*
X172118571Y-116338571D01*
X172190000Y-116124285D01*
X172832857Y-115481428D02*
X172832857Y-114981428D01*
X173618571Y-114767142D02*
X173618571Y-115481428D01*
X172118571Y-115481428D01*
X172118571Y-114767142D01*
X172118571Y-114338571D02*
X172118571Y-113481428D01*
X173618571Y-113910000D02*
X172118571Y-113910000D01*
X172118571Y-111124285D02*
X172118571Y-111838571D01*
X172832857Y-111910000D01*
X172761428Y-111838571D01*
X172690000Y-111695714D01*
X172690000Y-111338571D01*
X172761428Y-111195714D01*
X172832857Y-111124285D01*
X172975714Y-111052857D01*
X173332857Y-111052857D01*
X173475714Y-111124285D01*
X173547142Y-111195714D01*
X173618571Y-111338571D01*
X173618571Y-111695714D01*
X173547142Y-111838571D01*
X173475714Y-111910000D01*
X172118571Y-110624285D02*
X173618571Y-110124285D01*
X172118571Y-109624285D01*
X172118571Y-107695714D02*
X172118571Y-107410000D01*
X172190000Y-107267142D01*
X172332857Y-107124285D01*
X172618571Y-107052857D01*
X173118571Y-107052857D01*
X173404285Y-107124285D01*
X173547142Y-107267142D01*
X173618571Y-107410000D01*
X173618571Y-107695714D01*
X173547142Y-107838571D01*
X173404285Y-107981428D01*
X173118571Y-108052857D01*
X172618571Y-108052857D01*
X172332857Y-107981428D01*
X172190000Y-107838571D01*
X172118571Y-107695714D01*
X172118571Y-106410000D02*
X173332857Y-106410000D01*
X173475714Y-106338571D01*
X173547142Y-106267142D01*
X173618571Y-106124285D01*
X173618571Y-105838571D01*
X173547142Y-105695714D01*
X173475714Y-105624285D01*
X173332857Y-105552857D01*
X172118571Y-105552857D01*
X172118571Y-105052857D02*
X172118571Y-104195714D01*
X173618571Y-104624285D02*
X172118571Y-104624285D01*
X166547142Y-118695714D02*
X166618571Y-118481428D01*
X166618571Y-118124285D01*
X166547142Y-117981428D01*
X166475714Y-117910000D01*
X166332857Y-117838571D01*
X166190000Y-117838571D01*
X166047142Y-117910000D01*
X165975714Y-117981428D01*
X165904285Y-118124285D01*
X165832857Y-118410000D01*
X165761428Y-118552857D01*
X165690000Y-118624285D01*
X165547142Y-118695714D01*
X165404285Y-118695714D01*
X165261428Y-118624285D01*
X165190000Y-118552857D01*
X165118571Y-118410000D01*
X165118571Y-118052857D01*
X165190000Y-117838571D01*
X165832857Y-117195714D02*
X165832857Y-116695714D01*
X166618571Y-116481428D02*
X166618571Y-117195714D01*
X165118571Y-117195714D01*
X165118571Y-116481428D01*
X165118571Y-116052857D02*
X165118571Y-115195714D01*
X166618571Y-115624285D02*
X165118571Y-115624285D01*
X165118571Y-113695714D02*
X165118571Y-112767142D01*
X165690000Y-113267142D01*
X165690000Y-113052857D01*
X165761428Y-112910000D01*
X165832857Y-112838571D01*
X165975714Y-112767142D01*
X166332857Y-112767142D01*
X166475714Y-112838571D01*
X166547142Y-112910000D01*
X166618571Y-113052857D01*
X166618571Y-113481428D01*
X166547142Y-113624285D01*
X166475714Y-113695714D01*
X165118571Y-112338571D02*
X166618571Y-111838571D01*
X165118571Y-111338571D01*
X165118571Y-110981428D02*
X165118571Y-110052857D01*
X165690000Y-110552857D01*
X165690000Y-110338571D01*
X165761428Y-110195714D01*
X165832857Y-110124285D01*
X165975714Y-110052857D01*
X166332857Y-110052857D01*
X166475714Y-110124285D01*
X166547142Y-110195714D01*
X166618571Y-110338571D01*
X166618571Y-110767142D01*
X166547142Y-110910000D01*
X166475714Y-110981428D01*
X165118571Y-107981428D02*
X165118571Y-107695714D01*
X165190000Y-107552857D01*
X165332857Y-107410000D01*
X165618571Y-107338571D01*
X166118571Y-107338571D01*
X166404285Y-107410000D01*
X166547142Y-107552857D01*
X166618571Y-107695714D01*
X166618571Y-107981428D01*
X166547142Y-108124285D01*
X166404285Y-108267142D01*
X166118571Y-108338571D01*
X165618571Y-108338571D01*
X165332857Y-108267142D01*
X165190000Y-108124285D01*
X165118571Y-107981428D01*
X165118571Y-106695714D02*
X166332857Y-106695714D01*
X166475714Y-106624285D01*
X166547142Y-106552857D01*
X166618571Y-106410000D01*
X166618571Y-106124285D01*
X166547142Y-105981428D01*
X166475714Y-105910000D01*
X166332857Y-105838571D01*
X165118571Y-105838571D01*
X165118571Y-105338571D02*
X165118571Y-104481428D01*
X166618571Y-104910000D02*
X165118571Y-104910000D01*
D12*
X121297142Y-74249285D02*
X120940000Y-74249285D01*
X120904285Y-74606428D01*
X120940000Y-74570714D01*
X121011428Y-74535000D01*
X121190000Y-74535000D01*
X121261428Y-74570714D01*
X121297142Y-74606428D01*
X121332857Y-74677857D01*
X121332857Y-74856428D01*
X121297142Y-74927857D01*
X121261428Y-74963571D01*
X121190000Y-74999285D01*
X121011428Y-74999285D01*
X120940000Y-74963571D01*
X120904285Y-74927857D01*
X121547142Y-74249285D02*
X121797142Y-74999285D01*
X122047142Y-74249285D01*
X120868571Y-86785000D02*
X120797142Y-86749285D01*
X120690000Y-86749285D01*
X120582857Y-86785000D01*
X120511428Y-86856428D01*
X120475714Y-86927857D01*
X120440000Y-87070714D01*
X120440000Y-87177857D01*
X120475714Y-87320714D01*
X120511428Y-87392142D01*
X120582857Y-87463571D01*
X120690000Y-87499285D01*
X120761428Y-87499285D01*
X120868571Y-87463571D01*
X120904285Y-87427857D01*
X120904285Y-87177857D01*
X120761428Y-87177857D01*
X121225714Y-87499285D02*
X121225714Y-86749285D01*
X121654285Y-87499285D01*
X121654285Y-86749285D01*
X122011428Y-87499285D02*
X122011428Y-86749285D01*
X122190000Y-86749285D01*
X122297142Y-86785000D01*
X122368571Y-86856428D01*
X122404285Y-86927857D01*
X122440000Y-87070714D01*
X122440000Y-87177857D01*
X122404285Y-87320714D01*
X122368571Y-87392142D01*
X122297142Y-87463571D01*
X122190000Y-87499285D01*
X122011428Y-87499285D01*
X120868571Y-84285000D02*
X120797142Y-84249285D01*
X120690000Y-84249285D01*
X120582857Y-84285000D01*
X120511428Y-84356428D01*
X120475714Y-84427857D01*
X120440000Y-84570714D01*
X120440000Y-84677857D01*
X120475714Y-84820714D01*
X120511428Y-84892142D01*
X120582857Y-84963571D01*
X120690000Y-84999285D01*
X120761428Y-84999285D01*
X120868571Y-84963571D01*
X120904285Y-84927857D01*
X120904285Y-84677857D01*
X120761428Y-84677857D01*
X121225714Y-84999285D02*
X121225714Y-84249285D01*
X121654285Y-84999285D01*
X121654285Y-84249285D01*
X122011428Y-84999285D02*
X122011428Y-84249285D01*
X122190000Y-84249285D01*
X122297142Y-84285000D01*
X122368571Y-84356428D01*
X122404285Y-84427857D01*
X122440000Y-84570714D01*
X122440000Y-84677857D01*
X122404285Y-84820714D01*
X122368571Y-84892142D01*
X122297142Y-84963571D01*
X122190000Y-84999285D01*
X122011428Y-84999285D01*
X120868571Y-81785000D02*
X120797142Y-81749285D01*
X120690000Y-81749285D01*
X120582857Y-81785000D01*
X120511428Y-81856428D01*
X120475714Y-81927857D01*
X120440000Y-82070714D01*
X120440000Y-82177857D01*
X120475714Y-82320714D01*
X120511428Y-82392142D01*
X120582857Y-82463571D01*
X120690000Y-82499285D01*
X120761428Y-82499285D01*
X120868571Y-82463571D01*
X120904285Y-82427857D01*
X120904285Y-82177857D01*
X120761428Y-82177857D01*
X121225714Y-82499285D02*
X121225714Y-81749285D01*
X121654285Y-82499285D01*
X121654285Y-81749285D01*
X122011428Y-82499285D02*
X122011428Y-81749285D01*
X122190000Y-81749285D01*
X122297142Y-81785000D01*
X122368571Y-81856428D01*
X122404285Y-81927857D01*
X122440000Y-82070714D01*
X122440000Y-82177857D01*
X122404285Y-82320714D01*
X122368571Y-82392142D01*
X122297142Y-82463571D01*
X122190000Y-82499285D01*
X122011428Y-82499285D01*
X120868571Y-79285000D02*
X120797142Y-79249285D01*
X120690000Y-79249285D01*
X120582857Y-79285000D01*
X120511428Y-79356428D01*
X120475714Y-79427857D01*
X120440000Y-79570714D01*
X120440000Y-79677857D01*
X120475714Y-79820714D01*
X120511428Y-79892142D01*
X120582857Y-79963571D01*
X120690000Y-79999285D01*
X120761428Y-79999285D01*
X120868571Y-79963571D01*
X120904285Y-79927857D01*
X120904285Y-79677857D01*
X120761428Y-79677857D01*
X121225714Y-79999285D02*
X121225714Y-79249285D01*
X121654285Y-79999285D01*
X121654285Y-79249285D01*
X122011428Y-79999285D02*
X122011428Y-79249285D01*
X122190000Y-79249285D01*
X122297142Y-79285000D01*
X122368571Y-79356428D01*
X122404285Y-79427857D01*
X122440000Y-79570714D01*
X122440000Y-79677857D01*
X122404285Y-79820714D01*
X122368571Y-79892142D01*
X122297142Y-79963571D01*
X122190000Y-79999285D01*
X122011428Y-79999285D01*
X120868571Y-76785000D02*
X120797142Y-76749285D01*
X120690000Y-76749285D01*
X120582857Y-76785000D01*
X120511428Y-76856428D01*
X120475714Y-76927857D01*
X120440000Y-77070714D01*
X120440000Y-77177857D01*
X120475714Y-77320714D01*
X120511428Y-77392142D01*
X120582857Y-77463571D01*
X120690000Y-77499285D01*
X120761428Y-77499285D01*
X120868571Y-77463571D01*
X120904285Y-77427857D01*
X120904285Y-77177857D01*
X120761428Y-77177857D01*
X121225714Y-77499285D02*
X121225714Y-76749285D01*
X121654285Y-77499285D01*
X121654285Y-76749285D01*
X122011428Y-77499285D02*
X122011428Y-76749285D01*
X122190000Y-76749285D01*
X122297142Y-76785000D01*
X122368571Y-76856428D01*
X122404285Y-76927857D01*
X122440000Y-77070714D01*
X122440000Y-77177857D01*
X122404285Y-77320714D01*
X122368571Y-77392142D01*
X122297142Y-77463571D01*
X122190000Y-77499285D01*
X122011428Y-77499285D01*
X120868571Y-71785000D02*
X120797142Y-71749285D01*
X120690000Y-71749285D01*
X120582857Y-71785000D01*
X120511428Y-71856428D01*
X120475714Y-71927857D01*
X120440000Y-72070714D01*
X120440000Y-72177857D01*
X120475714Y-72320714D01*
X120511428Y-72392142D01*
X120582857Y-72463571D01*
X120690000Y-72499285D01*
X120761428Y-72499285D01*
X120868571Y-72463571D01*
X120904285Y-72427857D01*
X120904285Y-72177857D01*
X120761428Y-72177857D01*
X121225714Y-72499285D02*
X121225714Y-71749285D01*
X121654285Y-72499285D01*
X121654285Y-71749285D01*
X122011428Y-72499285D02*
X122011428Y-71749285D01*
X122190000Y-71749285D01*
X122297142Y-71785000D01*
X122368571Y-71856428D01*
X122404285Y-71927857D01*
X122440000Y-72070714D01*
X122440000Y-72177857D01*
X122404285Y-72320714D01*
X122368571Y-72392142D01*
X122297142Y-72463571D01*
X122190000Y-72499285D01*
X122011428Y-72499285D01*
X120511428Y-69249285D02*
X120975714Y-69249285D01*
X120725714Y-69535000D01*
X120832857Y-69535000D01*
X120904285Y-69570714D01*
X120940000Y-69606428D01*
X120975714Y-69677857D01*
X120975714Y-69856428D01*
X120940000Y-69927857D01*
X120904285Y-69963571D01*
X120832857Y-69999285D01*
X120618571Y-69999285D01*
X120547142Y-69963571D01*
X120511428Y-69927857D01*
X121190000Y-69249285D02*
X121440000Y-69999285D01*
X121690000Y-69249285D01*
X121868571Y-69249285D02*
X122332857Y-69249285D01*
X122082857Y-69535000D01*
X122190000Y-69535000D01*
X122261428Y-69570714D01*
X122297142Y-69606428D01*
X122332857Y-69677857D01*
X122332857Y-69856428D01*
X122297142Y-69927857D01*
X122261428Y-69963571D01*
X122190000Y-69999285D01*
X121975714Y-69999285D01*
X121904285Y-69963571D01*
X121868571Y-69927857D01*
D13*
X121452380Y-127077380D02*
X121452380Y-127886904D01*
X121500000Y-127982142D01*
X121547619Y-128029761D01*
X121642857Y-128077380D01*
X121833333Y-128077380D01*
X121928571Y-128029761D01*
X121976190Y-127982142D01*
X122023809Y-127886904D01*
X122023809Y-127077380D01*
X122452380Y-128029761D02*
X122547619Y-128077380D01*
X122738095Y-128077380D01*
X122833333Y-128029761D01*
X122880952Y-127934523D01*
X122880952Y-127886904D01*
X122833333Y-127791666D01*
X122738095Y-127744047D01*
X122595238Y-127744047D01*
X122500000Y-127696428D01*
X122452380Y-127601190D01*
X122452380Y-127553571D01*
X122500000Y-127458333D01*
X122595238Y-127410714D01*
X122738095Y-127410714D01*
X122833333Y-127458333D01*
X123690476Y-128029761D02*
X123595238Y-128077380D01*
X123404761Y-128077380D01*
X123309523Y-128029761D01*
X123261904Y-127934523D01*
X123261904Y-127553571D01*
X123309523Y-127458333D01*
X123404761Y-127410714D01*
X123595238Y-127410714D01*
X123690476Y-127458333D01*
X123738095Y-127553571D01*
X123738095Y-127648809D01*
X123261904Y-127744047D01*
X124928571Y-128077380D02*
X124928571Y-127077380D01*
X125261904Y-127791666D01*
X125595238Y-127077380D01*
X125595238Y-128077380D01*
X125976190Y-127077380D02*
X126595238Y-127077380D01*
X126261904Y-127458333D01*
X126404761Y-127458333D01*
X126500000Y-127505952D01*
X126547619Y-127553571D01*
X126595238Y-127648809D01*
X126595238Y-127886904D01*
X126547619Y-127982142D01*
X126500000Y-128029761D01*
X126404761Y-128077380D01*
X126119047Y-128077380D01*
X126023809Y-128029761D01*
X125976190Y-127982142D01*
X121619047Y-129779761D02*
X121761904Y-129827380D01*
X122000000Y-129827380D01*
X122095238Y-129779761D01*
X122142857Y-129732142D01*
X122190476Y-129636904D01*
X122190476Y-129541666D01*
X122142857Y-129446428D01*
X122095238Y-129398809D01*
X122000000Y-129351190D01*
X121809523Y-129303571D01*
X121714285Y-129255952D01*
X121666666Y-129208333D01*
X121619047Y-129113095D01*
X121619047Y-129017857D01*
X121666666Y-128922619D01*
X121714285Y-128875000D01*
X121809523Y-128827380D01*
X122047619Y-128827380D01*
X122190476Y-128875000D01*
X123047619Y-129779761D02*
X122952380Y-129827380D01*
X122761904Y-129827380D01*
X122666666Y-129779761D01*
X122619047Y-129732142D01*
X122571428Y-129636904D01*
X122571428Y-129351190D01*
X122619047Y-129255952D01*
X122666666Y-129208333D01*
X122761904Y-129160714D01*
X122952380Y-129160714D01*
X123047619Y-129208333D01*
X123476190Y-129827380D02*
X123476190Y-129160714D01*
X123476190Y-129351190D02*
X123523809Y-129255952D01*
X123571428Y-129208333D01*
X123666666Y-129160714D01*
X123761904Y-129160714D01*
X124476190Y-129779761D02*
X124380952Y-129827380D01*
X124190476Y-129827380D01*
X124095238Y-129779761D01*
X124047619Y-129684523D01*
X124047619Y-129303571D01*
X124095238Y-129208333D01*
X124190476Y-129160714D01*
X124380952Y-129160714D01*
X124476190Y-129208333D01*
X124523809Y-129303571D01*
X124523809Y-129398809D01*
X124047619Y-129494047D01*
X124857142Y-129160714D02*
X125047619Y-129827380D01*
X125238095Y-129351190D01*
X125428571Y-129827380D01*
X125619047Y-129160714D01*
X125952380Y-129779761D02*
X126047619Y-129827380D01*
X126238095Y-129827380D01*
X126333333Y-129779761D01*
X126380952Y-129684523D01*
X126380952Y-129636904D01*
X126333333Y-129541666D01*
X126238095Y-129494047D01*
X126095238Y-129494047D01*
X126000000Y-129446428D01*
X125952380Y-129351190D01*
X125952380Y-129303571D01*
X126000000Y-129208333D01*
X126095238Y-129160714D01*
X126238095Y-129160714D01*
X126333333Y-129208333D01*
D12*
X156871789Y-57708033D02*
X156619251Y-57960571D01*
X156088920Y-57430241D01*
X156871789Y-57404987D02*
X157124327Y-57152449D01*
X156972804Y-57607018D02*
X156619251Y-56899911D01*
X157326357Y-57253464D01*
X156897043Y-56622119D02*
X157200088Y-56319073D01*
X157578895Y-57000926D02*
X157048565Y-56470596D01*
X158159733Y-56319073D02*
X158159733Y-56369581D01*
X158109226Y-56470596D01*
X158058718Y-56521104D01*
X157957703Y-56571611D01*
X157856687Y-56571611D01*
X157780926Y-56546357D01*
X157654657Y-56470596D01*
X157578895Y-56394834D01*
X157503134Y-56268565D01*
X157477880Y-56192804D01*
X157477880Y-56091789D01*
X157528388Y-55990773D01*
X157578895Y-55940266D01*
X157679911Y-55889758D01*
X157730418Y-55889758D01*
X158437525Y-56142296D02*
X157907195Y-55611966D01*
X158159733Y-55864504D02*
X158462779Y-55561459D01*
X158740571Y-55839251D02*
X158210241Y-55308920D01*
X151246535Y-58133287D02*
X150716205Y-57602956D01*
X151271789Y-57804987D01*
X151069758Y-57249403D01*
X151600088Y-57779733D01*
X151852626Y-57527195D02*
X151322296Y-56996865D01*
X152054657Y-57274657D02*
X152155672Y-57224149D01*
X152281941Y-57097880D01*
X152307195Y-57022119D01*
X152307195Y-56971611D01*
X152281941Y-56895850D01*
X152231434Y-56845342D01*
X152155672Y-56820088D01*
X152105165Y-56820088D01*
X152029403Y-56845342D01*
X151903134Y-56921104D01*
X151827373Y-56946357D01*
X151776865Y-56946357D01*
X151701104Y-56921104D01*
X151650596Y-56870596D01*
X151625342Y-56794834D01*
X151625342Y-56744327D01*
X151650596Y-56668565D01*
X151776865Y-56542296D01*
X151877880Y-56491789D01*
X152180926Y-56138235D02*
X152281941Y-56037220D01*
X152357703Y-56011966D01*
X152458718Y-56011966D01*
X152584987Y-56087728D01*
X152761764Y-56264504D01*
X152837525Y-56390773D01*
X152837525Y-56491789D01*
X152812271Y-56567550D01*
X152711256Y-56668565D01*
X152635495Y-56693819D01*
X152534479Y-56693819D01*
X152408210Y-56618058D01*
X152231434Y-56441281D01*
X152155672Y-56315012D01*
X152155672Y-56213997D01*
X152180926Y-56138235D01*
X154513730Y-57765076D02*
X154513730Y-57815583D01*
X154463223Y-57916599D01*
X154412715Y-57967106D01*
X154311700Y-58017614D01*
X154210685Y-58017614D01*
X154134923Y-57992360D01*
X154008654Y-57916599D01*
X153932893Y-57840837D01*
X153857131Y-57714568D01*
X153831877Y-57638807D01*
X153831877Y-57537791D01*
X153882385Y-57436776D01*
X153932893Y-57386269D01*
X154033908Y-57335761D01*
X154084416Y-57335761D01*
X155044061Y-57335761D02*
X154791522Y-57588299D01*
X154261192Y-57057969D01*
X155220837Y-57158984D02*
X154690507Y-56628654D01*
X155523883Y-56855938D02*
X154993553Y-56780177D01*
X154993553Y-56325608D02*
X154993553Y-56931700D01*
X149141015Y-57337791D02*
X149141015Y-57388299D01*
X149090507Y-57489314D01*
X149040000Y-57539822D01*
X148938984Y-57590330D01*
X148837969Y-57590330D01*
X148762208Y-57565076D01*
X148635938Y-57489314D01*
X148560177Y-57413553D01*
X148484416Y-57287284D01*
X148459162Y-57211522D01*
X148459162Y-57110507D01*
X148509669Y-57009492D01*
X148560177Y-56958984D01*
X148661192Y-56908477D01*
X148711700Y-56908477D01*
X149368299Y-57161015D02*
X149469314Y-57110507D01*
X149595583Y-56984238D01*
X149620837Y-56908477D01*
X149620837Y-56857969D01*
X149595583Y-56782208D01*
X149545076Y-56731700D01*
X149469314Y-56706446D01*
X149418807Y-56706446D01*
X149343045Y-56731700D01*
X149216776Y-56807461D01*
X149141015Y-56832715D01*
X149090507Y-56832715D01*
X149014746Y-56807461D01*
X148964238Y-56756954D01*
X148938984Y-56681192D01*
X148938984Y-56630685D01*
X148964238Y-56554923D01*
X149090507Y-56428654D01*
X149191522Y-56378147D01*
X146275850Y-57703972D02*
X145745520Y-57173642D01*
X145871789Y-57047373D01*
X145972804Y-56996865D01*
X146073819Y-56996865D01*
X146149581Y-57022119D01*
X146275850Y-57097880D01*
X146351611Y-57173642D01*
X146427373Y-57299911D01*
X146452626Y-57375672D01*
X146452626Y-57476687D01*
X146402119Y-57577703D01*
X146275850Y-57703972D01*
X147058718Y-56820088D02*
X147058718Y-56870596D01*
X147008210Y-56971611D01*
X146957703Y-57022119D01*
X146856687Y-57072626D01*
X146755672Y-57072626D01*
X146679911Y-57047373D01*
X146553642Y-56971611D01*
X146477880Y-56895850D01*
X146402119Y-56769581D01*
X146376865Y-56693819D01*
X146376865Y-56592804D01*
X146427373Y-56491789D01*
X146477880Y-56441281D01*
X146578895Y-56390773D01*
X146629403Y-56390773D01*
X143789492Y-57590330D02*
X143360177Y-57514568D01*
X143486446Y-57893375D02*
X142956116Y-57363045D01*
X143158147Y-57161015D01*
X143233908Y-57135761D01*
X143284416Y-57135761D01*
X143360177Y-57161015D01*
X143435938Y-57236776D01*
X143461192Y-57312538D01*
X143461192Y-57363045D01*
X143435938Y-57438807D01*
X143233908Y-57640837D01*
X143966269Y-57363045D02*
X144067284Y-57312538D01*
X144193553Y-57186269D01*
X144218807Y-57110507D01*
X144218807Y-57059999D01*
X144193553Y-56984238D01*
X144143045Y-56933730D01*
X144067284Y-56908477D01*
X144016776Y-56908477D01*
X143941015Y-56933730D01*
X143814746Y-57009492D01*
X143738984Y-57034746D01*
X143688477Y-57034746D01*
X143612715Y-57009492D01*
X143562208Y-56958984D01*
X143536954Y-56883223D01*
X143536954Y-56832715D01*
X143562208Y-56756954D01*
X143688477Y-56630685D01*
X143789492Y-56580177D01*
X143915761Y-56403400D02*
X144218807Y-56100355D01*
X144597614Y-56782208D02*
X144067284Y-56251877D01*
X140846535Y-58133287D02*
X140316205Y-57602956D01*
X140871789Y-57804987D01*
X140669758Y-57249403D01*
X141200088Y-57779733D01*
X141023312Y-56895850D02*
X141124327Y-56794834D01*
X141200088Y-56769581D01*
X141301104Y-56769581D01*
X141427373Y-56845342D01*
X141604149Y-57022119D01*
X141679911Y-57148388D01*
X141679911Y-57249403D01*
X141654657Y-57325165D01*
X141553642Y-57426180D01*
X141477880Y-57451434D01*
X141376865Y-57451434D01*
X141250596Y-57375672D01*
X141073819Y-57198895D01*
X140998058Y-57072626D01*
X140998058Y-56971611D01*
X141023312Y-56895850D01*
X141957703Y-56971611D02*
X142058718Y-56921104D01*
X142184987Y-56794834D01*
X142210241Y-56719073D01*
X142210241Y-56668565D01*
X142184987Y-56592804D01*
X142134479Y-56542296D01*
X142058718Y-56517043D01*
X142008210Y-56517043D01*
X141932449Y-56542296D01*
X141806180Y-56618058D01*
X141730418Y-56643312D01*
X141679911Y-56643312D01*
X141604149Y-56618058D01*
X141553642Y-56567550D01*
X141528388Y-56491789D01*
X141528388Y-56441281D01*
X141553642Y-56365520D01*
X141679911Y-56239251D01*
X141780926Y-56188743D01*
X142513287Y-56466535D02*
X141982956Y-55936205D01*
X138913730Y-57765076D02*
X138913730Y-57815583D01*
X138863223Y-57916599D01*
X138812715Y-57967106D01*
X138711700Y-58017614D01*
X138610685Y-58017614D01*
X138534923Y-57992360D01*
X138408654Y-57916599D01*
X138332893Y-57840837D01*
X138257131Y-57714568D01*
X138231877Y-57638807D01*
X138231877Y-57537791D01*
X138282385Y-57436776D01*
X138332893Y-57386269D01*
X138433908Y-57335761D01*
X138484416Y-57335761D01*
X139444061Y-57335761D02*
X139191522Y-57588299D01*
X138661192Y-57057969D01*
X139620837Y-57158984D02*
X139090507Y-56628654D01*
X139923883Y-56855938D02*
X139393553Y-56780177D01*
X139393553Y-56325608D02*
X139393553Y-56931700D01*
X142904285Y-55763571D02*
X143011428Y-55799285D01*
X143190000Y-55799285D01*
X143261428Y-55763571D01*
X143297142Y-55727857D01*
X143332857Y-55656428D01*
X143332857Y-55585000D01*
X143297142Y-55513571D01*
X143261428Y-55477857D01*
X143190000Y-55442142D01*
X143047142Y-55406428D01*
X142975714Y-55370714D01*
X142940000Y-55335000D01*
X142904285Y-55263571D01*
X142904285Y-55192142D01*
X142940000Y-55120714D01*
X142975714Y-55085000D01*
X143047142Y-55049285D01*
X143225714Y-55049285D01*
X143332857Y-55085000D01*
X144082857Y-55727857D02*
X144047142Y-55763571D01*
X143940000Y-55799285D01*
X143868571Y-55799285D01*
X143761428Y-55763571D01*
X143690000Y-55692142D01*
X143654285Y-55620714D01*
X143618571Y-55477857D01*
X143618571Y-55370714D01*
X143654285Y-55227857D01*
X143690000Y-55156428D01*
X143761428Y-55085000D01*
X143868571Y-55049285D01*
X143940000Y-55049285D01*
X144047142Y-55085000D01*
X144082857Y-55120714D01*
X144832857Y-55799285D02*
X144582857Y-55442142D01*
X144404285Y-55799285D02*
X144404285Y-55049285D01*
X144690000Y-55049285D01*
X144761428Y-55085000D01*
X144797142Y-55120714D01*
X144832857Y-55192142D01*
X144832857Y-55299285D01*
X144797142Y-55370714D01*
X144761428Y-55406428D01*
X144690000Y-55442142D01*
X144404285Y-55442142D01*
X145154285Y-55406428D02*
X145404285Y-55406428D01*
X145511428Y-55799285D02*
X145154285Y-55799285D01*
X145154285Y-55049285D01*
X145511428Y-55049285D01*
X145832857Y-55406428D02*
X146082857Y-55406428D01*
X146190000Y-55799285D02*
X145832857Y-55799285D01*
X145832857Y-55049285D01*
X146190000Y-55049285D01*
X146511428Y-55799285D02*
X146511428Y-55049285D01*
X146940000Y-55799285D01*
X146940000Y-55049285D01*
X152386428Y-55406428D02*
X152493571Y-55442142D01*
X152529285Y-55477857D01*
X152565000Y-55549285D01*
X152565000Y-55656428D01*
X152529285Y-55727857D01*
X152493571Y-55763571D01*
X152422142Y-55799285D01*
X152136428Y-55799285D01*
X152136428Y-55049285D01*
X152386428Y-55049285D01*
X152457857Y-55085000D01*
X152493571Y-55120714D01*
X152529285Y-55192142D01*
X152529285Y-55263571D01*
X152493571Y-55335000D01*
X152457857Y-55370714D01*
X152386428Y-55406428D01*
X152136428Y-55406428D01*
X152886428Y-55049285D02*
X152886428Y-55656428D01*
X152922142Y-55727857D01*
X152957857Y-55763571D01*
X153029285Y-55799285D01*
X153172142Y-55799285D01*
X153243571Y-55763571D01*
X153279285Y-55727857D01*
X153315000Y-55656428D01*
X153315000Y-55049285D01*
X153565000Y-55049285D02*
X153993571Y-55049285D01*
X153779285Y-55799285D02*
X153779285Y-55049285D01*
X154136428Y-55049285D02*
X154565000Y-55049285D01*
X154350714Y-55799285D02*
X154350714Y-55049285D01*
X154957857Y-55049285D02*
X155100714Y-55049285D01*
X155172142Y-55085000D01*
X155243571Y-55156428D01*
X155279285Y-55299285D01*
X155279285Y-55549285D01*
X155243571Y-55692142D01*
X155172142Y-55763571D01*
X155100714Y-55799285D01*
X154957857Y-55799285D01*
X154886428Y-55763571D01*
X154815000Y-55692142D01*
X154779285Y-55549285D01*
X154779285Y-55299285D01*
X154815000Y-55156428D01*
X154886428Y-55085000D01*
X154957857Y-55049285D01*
X155600714Y-55799285D02*
X155600714Y-55049285D01*
X156029285Y-55799285D01*
X156029285Y-55049285D01*
X156350714Y-55763571D02*
X156457857Y-55799285D01*
X156636428Y-55799285D01*
X156707857Y-55763571D01*
X156743571Y-55727857D01*
X156779285Y-55656428D01*
X156779285Y-55585000D01*
X156743571Y-55513571D01*
X156707857Y-55477857D01*
X156636428Y-55442142D01*
X156493571Y-55406428D01*
X156422142Y-55370714D01*
X156386428Y-55335000D01*
X156350714Y-55263571D01*
X156350714Y-55192142D01*
X156386428Y-55120714D01*
X156422142Y-55085000D01*
X156493571Y-55049285D01*
X156672142Y-55049285D01*
X156779285Y-55085000D01*
D14*
X150440000Y-60860000D02*
X150440000Y-55060000D01*
D15*
X158050000Y-60990000D02*
X158050000Y-58330000D01*
X140210000Y-60990000D02*
X158050000Y-60990000D01*
X140210000Y-58330000D02*
X158050000Y-58330000D01*
X140210000Y-60990000D02*
X140210000Y-58330000D01*
X138940000Y-60990000D02*
X137610000Y-60990000D01*
X137610000Y-60990000D02*
X137610000Y-59660000D01*
X123110000Y-88770000D02*
X125770000Y-88770000D01*
X123110000Y-70930000D02*
X123110000Y-88770000D01*
X125770000Y-70930000D02*
X125770000Y-88770000D01*
X123110000Y-70930000D02*
X125770000Y-70930000D01*
X123110000Y-69660000D02*
X123110000Y-68330000D01*
X123110000Y-68330000D02*
X124440000Y-68330000D01*
D16*
X149860000Y-77560000D02*
X149860000Y-79060000D01*
X149110000Y-78310000D02*
X150610000Y-78310000D01*
X158820000Y-138300000D02*
X128320000Y-138300000D01*
X128320000Y-138300000D02*
X128320000Y-80300000D01*
X128320000Y-80300000D02*
X158820000Y-80300000D01*
X158820000Y-80300000D02*
X158820000Y-138300000D01*
X137160000Y-77560000D02*
X137160000Y-79060000D01*
D15*
X165970000Y-91530000D02*
X168910000Y-91530000D01*
X168910000Y-91530000D02*
X168910000Y-86090000D01*
X168910000Y-86090000D02*
X165970000Y-86090000D01*
X165970000Y-86090000D02*
X165970000Y-91530000D01*
X167440000Y-94020000D02*
X167440000Y-91530000D01*
X167440000Y-83600000D02*
X167440000Y-86090000D01*
X165970000Y-90630000D02*
X168910000Y-90630000D01*
X165970000Y-90510000D02*
X168910000Y-90510000D01*
X165970000Y-90750000D02*
X168910000Y-90750000D01*
D17*
X167550000Y-62020000D02*
X127330000Y-62020000D01*
X127330000Y-62020000D02*
X127330000Y-79300000D01*
X127330000Y-79300000D02*
X167550000Y-79300000D01*
X167550000Y-79300000D02*
X167550000Y-62020000D01*
D15*
X167390000Y-99460000D02*
X167390000Y-98860000D01*
X170840000Y-100160000D02*
X168040000Y-100160000D01*
X171490000Y-98860000D02*
X171490000Y-99460000D01*
X168040000Y-98160000D02*
X170840000Y-98160000D01*
X170790000Y-98160000D02*
G75*
G02X171490000Y-98860000I0J-700000D01*
G01*
X171490000Y-99460000D02*
G75*
G02X170790000Y-100160000I-700000J0D01*
G01*
X168090000Y-100160000D02*
G75*
G02X167390000Y-99460000I0J700000D01*
G01*
X167390000Y-98860000D02*
G75*
G02X168090000Y-98160000I700000J0D01*
G01*
D18*
G36*
X163838824Y-128636123D02*
X163816898Y-128666877D01*
X163784908Y-128698655D01*
X163762466Y-128716259D01*
X163727769Y-128742474D01*
X163691144Y-128772297D01*
X163679320Y-128782511D01*
X163638680Y-128818457D01*
X163705417Y-128811974D01*
X163762273Y-128811534D01*
X163805578Y-128822067D01*
X163833597Y-128842973D01*
X163842000Y-128859096D01*
X163845168Y-128873370D01*
X163843271Y-128885451D01*
X163834165Y-128896361D01*
X163815708Y-128907122D01*
X163785758Y-128918755D01*
X163742170Y-128932284D01*
X163682803Y-128948730D01*
X163618360Y-128965758D01*
X163519921Y-128994633D01*
X163427964Y-129028767D01*
X163336881Y-129070662D01*
X163241064Y-129122821D01*
X163168820Y-129166377D01*
X163118397Y-129198637D01*
X163083482Y-129223292D01*
X163061657Y-129242304D01*
X163050504Y-129257633D01*
X163048253Y-129264162D01*
X163041754Y-129291908D01*
X163037343Y-129309146D01*
X163028662Y-129325067D01*
X163009921Y-129351391D01*
X162984592Y-129383360D01*
X162974381Y-129395506D01*
X162944806Y-129430785D01*
X162917672Y-129464306D01*
X162897786Y-129490101D01*
X162894272Y-129494982D01*
X162878292Y-129523942D01*
X162858909Y-129568697D01*
X162837467Y-129625286D01*
X162815314Y-129689748D01*
X162793794Y-129758121D01*
X162774253Y-129826443D01*
X162758038Y-129890753D01*
X162754549Y-129906255D01*
X162742152Y-129959762D01*
X162729045Y-130011001D01*
X162716833Y-130053984D01*
X162707544Y-130081664D01*
X162697440Y-130116376D01*
X162688280Y-130164205D01*
X162681368Y-130217947D01*
X162679934Y-130234064D01*
X162674822Y-130282080D01*
X162667873Y-130325063D01*
X162660162Y-130356995D01*
X162656083Y-130367480D01*
X162640868Y-130405211D01*
X162625889Y-130456294D01*
X162612673Y-130513804D01*
X162602750Y-130570813D01*
X162597646Y-130620396D01*
X162597280Y-130633979D01*
X162592387Y-130692450D01*
X162577024Y-130738196D01*
X162576960Y-130738319D01*
X162564398Y-130765940D01*
X162557259Y-130787444D01*
X162556640Y-130792057D01*
X162566489Y-130801776D01*
X162574903Y-130805458D01*
X162574903Y-130947446D01*
X162557686Y-130948955D01*
X162547489Y-130960895D01*
X162540334Y-130984305D01*
X162536764Y-131000140D01*
X162528287Y-131034533D01*
X162519916Y-131062144D01*
X162515181Y-131073600D01*
X162507400Y-131098149D01*
X162506680Y-131126098D01*
X162512443Y-131149200D01*
X162521143Y-131158578D01*
X162533535Y-131156875D01*
X162552553Y-131143584D01*
X162579566Y-131117406D01*
X162615941Y-131077042D01*
X162652745Y-131033612D01*
X162690268Y-130988545D01*
X162646314Y-130971577D01*
X162603120Y-130955333D01*
X162574903Y-130947446D01*
X162574903Y-130805458D01*
X162595341Y-130814405D01*
X162642155Y-130829516D01*
X162660780Y-130834812D01*
X162709453Y-130848902D01*
X162755691Y-130863345D01*
X162792879Y-130876025D01*
X162808167Y-130881937D01*
X162845149Y-130904037D01*
X162865056Y-130930744D01*
X162866526Y-130959815D01*
X162862040Y-130970879D01*
X162846407Y-130995569D01*
X162820693Y-131031400D01*
X162788197Y-131074218D01*
X162752219Y-131119871D01*
X162716057Y-131164208D01*
X162683012Y-131203075D01*
X162656382Y-131232321D01*
X162646779Y-131241785D01*
X162620133Y-131268986D01*
X162598739Y-131295463D01*
X162590224Y-131309502D01*
X162574385Y-131330300D01*
X162547874Y-131352898D01*
X162532556Y-131362925D01*
X162508282Y-131377965D01*
X162494062Y-131391570D01*
X162486378Y-131410048D01*
X162481713Y-131439704D01*
X162479742Y-131457620D01*
X162477829Y-131490671D01*
X162477153Y-131539011D01*
X162477682Y-131597652D01*
X162479386Y-131661602D01*
X162481341Y-131708556D01*
X162484177Y-131773374D01*
X162486383Y-131836629D01*
X162487827Y-131893290D01*
X162488371Y-131938324D01*
X162488129Y-131960767D01*
X162490287Y-132015772D01*
X162498786Y-132079023D01*
X162506811Y-132118247D01*
X162531759Y-132233630D01*
X162547929Y-132330736D01*
X162555320Y-132409614D01*
X162553934Y-132470311D01*
X162543772Y-132512876D01*
X162524834Y-132537358D01*
X162515151Y-132541989D01*
X162498954Y-132556464D01*
X162495795Y-132570344D01*
X162496632Y-132597221D01*
X162498820Y-132641163D01*
X162502138Y-132698974D01*
X162506367Y-132767461D01*
X162511286Y-132843428D01*
X162516676Y-132923682D01*
X162522316Y-133005027D01*
X162527986Y-133084269D01*
X162533467Y-133158213D01*
X162538538Y-133223664D01*
X162542980Y-133277429D01*
X162546572Y-133316312D01*
X162548139Y-133330465D01*
X162553859Y-133384695D01*
X162555230Y-133424052D01*
X162552281Y-133453509D01*
X162548873Y-133467137D01*
X162542471Y-133501275D01*
X162548075Y-133525138D01*
X162553625Y-133548737D01*
X162553587Y-133583093D01*
X162552396Y-133594210D01*
X162550482Y-133632671D01*
X162558193Y-133664190D01*
X162566516Y-133681535D01*
X162579975Y-133715527D01*
X162586879Y-133750327D01*
X162587121Y-133756323D01*
X162592618Y-133800484D01*
X162607910Y-133857281D01*
X162631196Y-133922663D01*
X162660676Y-133992578D01*
X162694547Y-134062975D01*
X162731011Y-134129804D01*
X162768265Y-134189014D01*
X162796191Y-134226660D01*
X162827229Y-134268390D01*
X162843757Y-134299178D01*
X162845489Y-134318242D01*
X162832139Y-134324799D01*
X162832071Y-134324800D01*
X162816877Y-134316414D01*
X162794074Y-134293296D01*
X162765873Y-134258500D01*
X162734488Y-134215083D01*
X162702129Y-134166100D01*
X162671009Y-134114607D01*
X162644057Y-134065068D01*
X162627350Y-134033767D01*
X162614687Y-134012835D01*
X162608205Y-134005712D01*
X162607787Y-134006721D01*
X162610878Y-134022505D01*
X162619423Y-134052275D01*
X162631723Y-134090996D01*
X162646078Y-134133636D01*
X162660787Y-134175161D01*
X162674150Y-134210538D01*
X162684467Y-134234734D01*
X162685507Y-134236817D01*
X162694687Y-134264559D01*
X162692411Y-134285464D01*
X162679341Y-134294289D01*
X162678242Y-134294320D01*
X162667664Y-134285180D01*
X162652796Y-134260127D01*
X162635185Y-134222711D01*
X162616383Y-134176482D01*
X162597937Y-134124989D01*
X162581942Y-134073686D01*
X162569943Y-134032342D01*
X162559560Y-133997417D01*
X162552402Y-133974284D01*
X162550678Y-133969200D01*
X162545982Y-133973299D01*
X162536435Y-133994072D01*
X162523108Y-134028756D01*
X162507071Y-134074585D01*
X162491674Y-134121600D01*
X162473824Y-134176195D01*
X162450447Y-134245437D01*
X162423072Y-134324919D01*
X162393232Y-134410233D01*
X162362457Y-134496971D01*
X162332278Y-134580726D01*
X162331131Y-134583880D01*
X162296783Y-134678747D01*
X162268144Y-134759123D01*
X162243732Y-134829522D01*
X162222065Y-134894457D01*
X162201661Y-134958440D01*
X162181036Y-135025987D01*
X162158708Y-135101609D01*
X162140892Y-135163085D01*
X162127888Y-135200491D01*
X162110455Y-135233848D01*
X162086025Y-135266045D01*
X162052031Y-135299971D01*
X162005906Y-135338514D01*
X161945080Y-135384562D01*
X161941960Y-135386854D01*
X161904842Y-135415262D01*
X161857701Y-135453064D01*
X161805635Y-135496085D01*
X161753743Y-135540144D01*
X161733680Y-135557557D01*
X161634835Y-135642982D01*
X161521476Y-135739138D01*
X161395353Y-135844576D01*
X161258215Y-135957844D01*
X161111814Y-136077493D01*
X160957899Y-136202073D01*
X160890400Y-136256348D01*
X160783646Y-136341936D01*
X160690697Y-136416183D01*
X160609578Y-136480547D01*
X160538309Y-136536486D01*
X160474914Y-136585457D01*
X160417414Y-136628917D01*
X160363833Y-136668323D01*
X160312193Y-136705133D01*
X160260516Y-136740804D01*
X160206824Y-136776794D01*
X160149141Y-136814559D01*
X160085488Y-136855557D01*
X160024037Y-136894784D01*
X159972149Y-136930760D01*
X159935495Y-136964289D01*
X159910222Y-136999903D01*
X159892480Y-137042132D01*
X159888921Y-137053729D01*
X159872712Y-137094303D01*
X159852564Y-137122228D01*
X159830985Y-137135132D01*
X159810483Y-137130643D01*
X159808914Y-137129418D01*
X159799188Y-137112431D01*
X159799891Y-137102817D01*
X159799036Y-137090229D01*
X159794208Y-137088320D01*
X159786817Y-137079383D01*
X159783074Y-137057368D01*
X159782960Y-137052255D01*
X159792803Y-136999459D01*
X159821367Y-136945767D01*
X159867207Y-136892768D01*
X159928878Y-136842054D01*
X160004933Y-136795215D01*
X160026800Y-136783910D01*
X160050372Y-136770010D01*
X160085851Y-136746491D01*
X160129178Y-136716304D01*
X160176294Y-136682398D01*
X160223139Y-136647723D01*
X160265654Y-136615230D01*
X160299779Y-136587869D01*
X160316360Y-136573479D01*
X160335958Y-136556566D01*
X160364009Y-136533667D01*
X160382239Y-136519268D01*
X160407048Y-136499547D01*
X160441963Y-136471116D01*
X160487723Y-136433359D01*
X160545067Y-136385659D01*
X160614732Y-136327401D01*
X160697457Y-136257968D01*
X160793981Y-136176744D01*
X160905041Y-136083111D01*
X160935890Y-136057080D01*
X160998481Y-136004255D01*
X161057309Y-135954611D01*
X161110250Y-135909938D01*
X161155181Y-135872028D01*
X161189980Y-135842673D01*
X161212523Y-135823662D01*
X161218864Y-135818320D01*
X161258674Y-135784792D01*
X161308225Y-135743037D01*
X161365598Y-135694673D01*
X161428873Y-135641320D01*
X161496133Y-135584596D01*
X161565456Y-135526121D01*
X161634925Y-135467514D01*
X161702620Y-135410394D01*
X161766623Y-135356381D01*
X161825013Y-135307093D01*
X161875872Y-135264151D01*
X161917280Y-135229172D01*
X161947319Y-135203777D01*
X161964069Y-135189585D01*
X161965461Y-135188400D01*
X162007130Y-135152840D01*
X162084998Y-134873440D01*
X162117156Y-134757877D01*
X162144445Y-134659256D01*
X162167518Y-134574962D01*
X162187029Y-134502381D01*
X162203631Y-134438899D01*
X162217978Y-134381902D01*
X162230724Y-134328776D01*
X162242521Y-134276907D01*
X162254024Y-134223681D01*
X162265885Y-134166483D01*
X162278759Y-134102701D01*
X162283034Y-134081300D01*
X162297125Y-134011290D01*
X162310137Y-133947840D01*
X162321492Y-133893681D01*
X162330609Y-133851544D01*
X162336909Y-133824161D01*
X162339689Y-133814392D01*
X162336995Y-133802214D01*
X162324067Y-133781960D01*
X162318876Y-133775490D01*
X162291331Y-133728525D01*
X162273919Y-133666226D01*
X162270236Y-133639745D01*
X162267973Y-133629168D01*
X162263151Y-133627530D01*
X162254137Y-133636779D01*
X162239301Y-133658863D01*
X162217010Y-133695731D01*
X162202144Y-133721025D01*
X162162070Y-133787642D01*
X162115824Y-133861351D01*
X162065341Y-133939335D01*
X162012554Y-134018775D01*
X161959400Y-134096851D01*
X161907812Y-134170744D01*
X161859726Y-134237637D01*
X161817077Y-134294709D01*
X161781799Y-134339142D01*
X161763323Y-134360360D01*
X161705976Y-134420690D01*
X161641064Y-134485934D01*
X161567146Y-134557445D01*
X161482780Y-134636581D01*
X161386528Y-134724697D01*
X161276949Y-134823148D01*
X161184764Y-134904927D01*
X161150216Y-134935436D01*
X161105169Y-134975215D01*
X161054356Y-135020084D01*
X161002511Y-135065865D01*
X160976760Y-135088604D01*
X160924977Y-135134217D01*
X160870510Y-135182003D01*
X160818512Y-135227453D01*
X160774134Y-135266061D01*
X160757287Y-135280636D01*
X160713791Y-135318234D01*
X160661822Y-135363263D01*
X160608216Y-135409793D01*
X160564247Y-135448033D01*
X160429511Y-135562830D01*
X160291183Y-135675927D01*
X160152111Y-135785184D01*
X160015141Y-135888461D01*
X159883119Y-135983617D01*
X159758893Y-136068513D01*
X159645309Y-136141009D01*
X159630560Y-136149961D01*
X159569619Y-136188373D01*
X159514383Y-136226380D01*
X159468155Y-136261512D01*
X159434236Y-136291302D01*
X159419514Y-136307749D01*
X159402271Y-136328984D01*
X159393471Y-136338520D01*
X159382400Y-136353722D01*
X159365639Y-136381275D01*
X159346685Y-136415407D01*
X159345437Y-136417760D01*
X159323094Y-136454900D01*
X159296011Y-136492450D01*
X159267607Y-136526466D01*
X159241301Y-136553003D01*
X159220513Y-136568118D01*
X159213317Y-136570160D01*
X159201561Y-136561744D01*
X159197141Y-136551815D01*
X159184845Y-136535424D01*
X159162532Y-136522217D01*
X159139102Y-136507256D01*
X159134372Y-136489663D01*
X159148538Y-136473330D01*
X159159816Y-136467915D01*
X159187427Y-136452137D01*
X159214309Y-136424855D01*
X159242544Y-136383449D01*
X159274212Y-136325297D01*
X159276256Y-136321240D01*
X159306435Y-136266455D01*
X159338376Y-136221551D01*
X159376414Y-136181951D01*
X159424883Y-136143081D01*
X159481310Y-136104741D01*
X159585222Y-136035348D01*
X159700927Y-135954045D01*
X159825590Y-135863028D01*
X159956379Y-135764493D01*
X160090460Y-135660635D01*
X160224998Y-135553650D01*
X160357161Y-135445733D01*
X160484114Y-135339081D01*
X160603024Y-135235890D01*
X160605920Y-135233327D01*
X160649014Y-135195029D01*
X160699737Y-135149686D01*
X160755229Y-135099881D01*
X160812629Y-135048197D01*
X160869078Y-134997218D01*
X160921714Y-134949526D01*
X160967677Y-134907706D01*
X161004107Y-134874340D01*
X161027560Y-134852561D01*
X161067291Y-134815555D01*
X161111759Y-134774827D01*
X161149480Y-134740855D01*
X161186451Y-134707740D01*
X161224776Y-134673043D01*
X161256159Y-134644275D01*
X161256160Y-134644274D01*
X161285165Y-134618049D01*
X161325935Y-134582062D01*
X161374658Y-134539601D01*
X161427524Y-134493951D01*
X161480722Y-134448402D01*
X161530442Y-134406241D01*
X161572871Y-134370755D01*
X161580937Y-134364097D01*
X161611178Y-134336879D01*
X161636001Y-134307960D01*
X161659570Y-134271686D01*
X161686051Y-134222405D01*
X161687633Y-134219288D01*
X161708328Y-134178888D01*
X161725863Y-134145532D01*
X161738112Y-134123215D01*
X161742643Y-134116024D01*
X161749551Y-134104210D01*
X161761130Y-134080095D01*
X161768867Y-134062713D01*
X161780021Y-134038845D01*
X161798816Y-134000690D01*
X161823396Y-133951924D01*
X161851908Y-133896226D01*
X161882496Y-133837273D01*
X161885231Y-133832040D01*
X161930157Y-133746116D01*
X161966845Y-133675811D01*
X161996493Y-133618747D01*
X162020296Y-133572544D01*
X162039452Y-133534823D01*
X162055156Y-133503207D01*
X162068604Y-133475315D01*
X162080994Y-133448770D01*
X162093521Y-133421193D01*
X162106879Y-133391334D01*
X162131807Y-133338036D01*
X162154003Y-133297940D01*
X162177369Y-133265043D01*
X162205806Y-133233338D01*
X162216639Y-133222440D01*
X162278281Y-133161480D01*
X162274574Y-132882279D01*
X162273539Y-132809262D01*
X162272478Y-132743288D01*
X162271444Y-132686964D01*
X162270488Y-132642902D01*
X162269662Y-132613709D01*
X162269020Y-132601995D01*
X162268974Y-132601888D01*
X162258769Y-132602516D01*
X162232441Y-132605115D01*
X162194045Y-132609263D01*
X162150240Y-132614236D01*
X162099049Y-132619850D01*
X162034188Y-132626490D01*
X161962240Y-132633506D01*
X161889787Y-132640252D01*
X161850630Y-132643741D01*
X161745808Y-132654293D01*
X161641025Y-132667862D01*
X161531444Y-132685215D01*
X161412225Y-132707118D01*
X161278530Y-132734340D01*
X161276480Y-132734774D01*
X161194861Y-132752533D01*
X161131095Y-132767943D01*
X161083017Y-132782146D01*
X161048463Y-132796284D01*
X161025268Y-132811497D01*
X161011268Y-132828928D01*
X161004297Y-132849719D01*
X161002191Y-132875010D01*
X161002160Y-132879438D01*
X160997708Y-132924204D01*
X160984745Y-132952570D01*
X160963868Y-132963300D01*
X160961894Y-132963360D01*
X160950282Y-132959746D01*
X160942578Y-132945985D01*
X160936764Y-132917695D01*
X160934984Y-132904940D01*
X160930361Y-132861183D01*
X160927271Y-132815847D01*
X160926633Y-132796312D01*
X160927588Y-132764924D01*
X160934029Y-132745625D01*
X160949704Y-132730261D01*
X160960495Y-132722644D01*
X161000880Y-132701207D01*
X161060451Y-132678436D01*
X161138141Y-132654610D01*
X161232880Y-132630010D01*
X161343600Y-132604918D01*
X161469232Y-132579614D01*
X161586360Y-132558251D01*
X161658926Y-132545816D01*
X161723615Y-132535363D01*
X161785060Y-132526282D01*
X161847895Y-132517961D01*
X161916752Y-132509789D01*
X161996265Y-132501155D01*
X162091067Y-132491447D01*
X162098398Y-132490712D01*
X162153008Y-132484930D01*
X162200586Y-132479313D01*
X162237401Y-132474347D01*
X162259722Y-132470519D01*
X162264427Y-132469100D01*
X162268077Y-132456625D01*
X162269704Y-132426944D01*
X162269232Y-132383077D01*
X162267581Y-132344966D01*
X162258760Y-132217511D01*
X162247126Y-132106248D01*
X162232829Y-132012109D01*
X162216019Y-131936025D01*
X162196846Y-131878927D01*
X162190495Y-131865324D01*
X162178030Y-131837487D01*
X162171080Y-131815357D01*
X162170560Y-131810851D01*
X162163487Y-131795398D01*
X162145529Y-131773614D01*
X162133793Y-131762186D01*
X162108612Y-131735912D01*
X162079551Y-131700521D01*
X162055889Y-131667960D01*
X161982253Y-131568951D01*
X161897426Y-131472208D01*
X161805065Y-131381089D01*
X161708828Y-131298957D01*
X161612370Y-131229171D01*
X161519859Y-131175348D01*
X161486239Y-131155947D01*
X161455638Y-131134227D01*
X161447128Y-131126909D01*
X161427410Y-131112012D01*
X161403516Y-131103164D01*
X161368709Y-131098278D01*
X161350608Y-131096988D01*
X161294489Y-131092527D01*
X161223294Y-131085177D01*
X161139315Y-131075293D01*
X161044846Y-131063231D01*
X160942178Y-131049346D01*
X160833605Y-131033994D01*
X160721417Y-131017529D01*
X160607908Y-131000308D01*
X160495371Y-130982686D01*
X160386097Y-130965018D01*
X160282379Y-130947659D01*
X160186510Y-130930966D01*
X160100781Y-130915294D01*
X160027486Y-130900997D01*
X159968917Y-130888432D01*
X159927366Y-130877953D01*
X159916792Y-130874685D01*
X159844993Y-130847107D01*
X159786315Y-130815645D01*
X159733566Y-130775879D01*
X159692459Y-130736814D01*
X159656423Y-130702679D01*
X159629180Y-130683481D01*
X159608083Y-130677361D01*
X159607747Y-130677360D01*
X159580581Y-130670886D01*
X159563987Y-130660135D01*
X159553658Y-130647366D01*
X159556322Y-130636821D01*
X159573492Y-130621597D01*
X159590851Y-130603091D01*
X159590414Y-130590477D01*
X159586276Y-130574224D01*
X159589253Y-130566679D01*
X159605482Y-130556334D01*
X159628986Y-130562525D01*
X159657309Y-130583950D01*
X159687568Y-130618737D01*
X159717360Y-130653503D01*
X159751990Y-130686470D01*
X159774325Y-130703743D01*
X159820397Y-130727890D01*
X159885621Y-130751726D01*
X159968832Y-130774994D01*
X160068862Y-130797438D01*
X160184544Y-130818801D01*
X160314713Y-130838825D01*
X160458200Y-130857254D01*
X160486026Y-130860458D01*
X160529913Y-130865464D01*
X160587771Y-130872120D01*
X160653389Y-130879708D01*
X160720557Y-130887512D01*
X160751294Y-130891096D01*
X160832366Y-130900256D01*
X160895721Y-130906535D01*
X160943757Y-130909920D01*
X160978873Y-130910395D01*
X161003468Y-130907946D01*
X161019941Y-130902560D01*
X161030691Y-130894223D01*
X161034352Y-130889427D01*
X161048703Y-130867814D01*
X161088932Y-130888139D01*
X161142057Y-130910430D01*
X161207928Y-130929594D01*
X161289440Y-130946385D01*
X161347600Y-130955716D01*
X161404448Y-130965405D01*
X161465483Y-130977919D01*
X161520652Y-130991132D01*
X161539837Y-130996430D01*
X161583377Y-131010034D01*
X161614181Y-131023093D01*
X161639271Y-131039803D01*
X161665670Y-131064364D01*
X161682077Y-131081454D01*
X161717317Y-131116479D01*
X161760853Y-131156506D01*
X161804753Y-131194306D01*
X161816332Y-131203749D01*
X161846828Y-131229971D01*
X161887865Y-131267770D01*
X161936076Y-131313909D01*
X161988094Y-131365149D01*
X162040553Y-131418255D01*
X162056385Y-131434597D01*
X162218867Y-131603159D01*
X162224716Y-131559359D01*
X162227294Y-131533164D01*
X162230297Y-131491793D01*
X162233396Y-131440374D01*
X162236262Y-131384037D01*
X162236971Y-131368240D01*
X162243376Y-131220920D01*
X162198524Y-131119320D01*
X162150929Y-131004957D01*
X162115321Y-130904427D01*
X162100306Y-130853297D01*
X162092814Y-130829236D01*
X162082961Y-130815233D01*
X162064989Y-130806791D01*
X162033140Y-130799415D01*
X162030656Y-130798907D01*
X161996139Y-130791533D01*
X161948506Y-130780916D01*
X161892364Y-130768131D01*
X161832318Y-130754250D01*
X161772973Y-130740346D01*
X161718936Y-130727491D01*
X161674811Y-130716760D01*
X161645205Y-130709224D01*
X161642240Y-130708419D01*
X161492784Y-130665663D01*
X161362580Y-130625000D01*
X161250714Y-130586057D01*
X161156268Y-130548459D01*
X161078328Y-130511831D01*
X161015976Y-130475800D01*
X160968297Y-130439990D01*
X160954934Y-130427467D01*
X160918753Y-130385049D01*
X160890914Y-130340094D01*
X160872293Y-130295876D01*
X160863763Y-130255665D01*
X160866201Y-130222735D01*
X160880481Y-130200356D01*
X160892519Y-130194087D01*
X160914173Y-130195762D01*
X160931698Y-130209984D01*
X160938307Y-130230115D01*
X160936773Y-130237362D01*
X160936469Y-130255279D01*
X160942556Y-130280641D01*
X160942631Y-130280854D01*
X160959919Y-130306737D01*
X160993892Y-130337261D01*
X161041851Y-130370976D01*
X161101094Y-130406432D01*
X161168922Y-130442181D01*
X161242634Y-130476771D01*
X161319530Y-130508754D01*
X161396910Y-130536679D01*
X161449200Y-130552831D01*
X161507606Y-130568874D01*
X161573491Y-130585935D01*
X161644079Y-130603399D01*
X161716593Y-130620652D01*
X161788257Y-130637079D01*
X161856296Y-130652066D01*
X161917931Y-130665000D01*
X161970388Y-130675264D01*
X162010890Y-130682246D01*
X162036661Y-130685331D01*
X162044773Y-130684613D01*
X162043420Y-130673799D01*
X162036191Y-130648203D01*
X162024363Y-130612062D01*
X162014171Y-130583144D01*
X161970171Y-130468952D01*
X161918590Y-130348995D01*
X161858551Y-130221532D01*
X161789178Y-130084826D01*
X161709593Y-129937139D01*
X161618921Y-129776731D01*
X161536087Y-129635171D01*
X161503915Y-129580834D01*
X161475361Y-129532460D01*
X161452020Y-129492763D01*
X161435486Y-129464456D01*
X161427354Y-129450253D01*
X161426830Y-129449244D01*
X161416059Y-129443203D01*
X161388475Y-129432241D01*
X161346745Y-129417213D01*
X161293536Y-129398977D01*
X161231516Y-129378386D01*
X161163352Y-129356298D01*
X161091712Y-129333569D01*
X161019264Y-129311054D01*
X160948675Y-129289609D01*
X160882613Y-129270091D01*
X160823745Y-129253355D01*
X160778640Y-129241256D01*
X160704295Y-129222161D01*
X160620577Y-129200698D01*
X160536051Y-129179061D01*
X160459283Y-129159443D01*
X160433200Y-129152789D01*
X160308751Y-129119368D01*
X160188608Y-129083840D01*
X160075234Y-129047098D01*
X159971090Y-129010033D01*
X159878638Y-128973539D01*
X159800339Y-128938507D01*
X159738654Y-128905830D01*
X159720260Y-128894334D01*
X159695336Y-128878982D01*
X159677284Y-128869919D01*
X159673319Y-128868880D01*
X159657579Y-128860450D01*
X159635986Y-128838068D01*
X159611492Y-128806096D01*
X159587047Y-128768896D01*
X159565602Y-128730830D01*
X159550109Y-128696260D01*
X159544911Y-128679074D01*
X159543178Y-128645528D01*
X159551282Y-128616595D01*
X159566841Y-128598151D01*
X159579152Y-128594560D01*
X159600279Y-128603214D01*
X159612932Y-128623549D01*
X159612541Y-128644498D01*
X159613791Y-128670256D01*
X159632674Y-128700886D01*
X159667408Y-128735256D01*
X159716212Y-128772235D01*
X159777307Y-128810691D01*
X159848911Y-128849492D01*
X159929244Y-128887506D01*
X160016525Y-128923603D01*
X160097920Y-128952969D01*
X160160538Y-128972881D01*
X160233484Y-128994158D01*
X160314113Y-129016195D01*
X160399782Y-129038390D01*
X160487847Y-129060138D01*
X160575662Y-129080836D01*
X160660585Y-129099881D01*
X160739972Y-129116668D01*
X160811176Y-129130593D01*
X160871556Y-129141054D01*
X160918466Y-129147447D01*
X160949263Y-129149167D01*
X160955093Y-129148662D01*
X160985586Y-129147043D01*
X161003130Y-129154892D01*
X161005893Y-129158115D01*
X161018662Y-129165589D01*
X161047905Y-129177751D01*
X161090616Y-129193508D01*
X161143788Y-129211770D01*
X161204415Y-129231443D01*
X161228727Y-129239045D01*
X161316929Y-129266828D01*
X161387643Y-129290288D01*
X161443034Y-129310259D01*
X161485270Y-129327575D01*
X161516517Y-129343069D01*
X161538941Y-129357576D01*
X161541136Y-129359285D01*
X161550988Y-129372126D01*
X161568954Y-129400529D01*
X161593688Y-129442075D01*
X161623845Y-129494343D01*
X161658078Y-129554911D01*
X161695042Y-129621360D01*
X161733390Y-129691268D01*
X161771778Y-129762215D01*
X161808858Y-129831780D01*
X161843285Y-129897542D01*
X161873714Y-129957081D01*
X161875722Y-129961080D01*
X161921262Y-130053762D01*
X161963225Y-130143596D01*
X162003661Y-130235326D01*
X162044619Y-130333697D01*
X162088149Y-130443451D01*
X162120767Y-130528329D01*
X162142651Y-130585344D01*
X162162361Y-130635722D01*
X162178675Y-130676413D01*
X162190368Y-130704370D01*
X162196219Y-130716544D01*
X162196364Y-130716712D01*
X162208952Y-130719886D01*
X162236268Y-130722367D01*
X162272724Y-130723671D01*
X162277694Y-130723727D01*
X162316122Y-130723762D01*
X162338927Y-130721928D01*
X162350804Y-130716556D01*
X162356447Y-130705975D01*
X162359162Y-130694758D01*
X162367092Y-130668810D01*
X162380463Y-130634012D01*
X162390517Y-130610862D01*
X162403770Y-130575995D01*
X162413548Y-130534891D01*
X162420920Y-130482227D01*
X162424896Y-130439669D01*
X162432294Y-130372160D01*
X162442371Y-130314308D01*
X162454217Y-130271256D01*
X162455093Y-130268917D01*
X162459020Y-130256531D01*
X162459020Y-133503413D01*
X162449474Y-133505700D01*
X162436235Y-133518824D01*
X162438272Y-133536956D01*
X162453705Y-133551925D01*
X162474106Y-133557158D01*
X162484167Y-133544990D01*
X162485520Y-133531226D01*
X162478020Y-133509972D01*
X162459020Y-133503413D01*
X162459020Y-130256531D01*
X162469071Y-130224829D01*
X162482591Y-130169098D01*
X162494195Y-130109307D01*
X162502425Y-130053042D01*
X162505821Y-130007887D01*
X162505841Y-130005064D01*
X162510742Y-129968737D01*
X162522745Y-129931961D01*
X162524794Y-129927655D01*
X162535966Y-129900675D01*
X162550562Y-129858692D01*
X162567202Y-129806446D01*
X162584504Y-129748679D01*
X162601088Y-129690131D01*
X162615573Y-129635542D01*
X162626577Y-129589654D01*
X162632722Y-129557206D01*
X162632744Y-129557044D01*
X162640572Y-129521986D01*
X162655387Y-129498471D01*
X162670039Y-129485924D01*
X162694254Y-129461766D01*
X162722297Y-129424115D01*
X162750761Y-129378463D01*
X162776239Y-129330307D01*
X162795325Y-129285140D01*
X162796357Y-129282164D01*
X162811515Y-129249295D01*
X162830457Y-129223254D01*
X162838172Y-129216528D01*
X162856647Y-129202202D01*
X162885329Y-129178110D01*
X162919497Y-129148269D01*
X162939003Y-129130782D01*
X162989050Y-129086783D01*
X163033371Y-129051468D01*
X163078084Y-129020608D01*
X163129307Y-128989972D01*
X163191640Y-128956132D01*
X163236915Y-128931195D01*
X163274170Y-128907430D01*
X163306962Y-128881532D01*
X163338850Y-128850197D01*
X163373394Y-128810119D01*
X163414151Y-128757996D01*
X163435480Y-128729712D01*
X163467924Y-128687581D01*
X163498366Y-128650162D01*
X163523652Y-128621196D01*
X163540624Y-128604426D01*
X163542160Y-128603262D01*
X163581554Y-128582812D01*
X163616499Y-128579105D01*
X163638278Y-128587913D01*
X163651527Y-128601367D01*
X163650803Y-128617601D01*
X163646116Y-128629007D01*
X163639010Y-128647850D01*
X163641523Y-128653592D01*
X163654914Y-128645743D01*
X163680444Y-128623814D01*
X163695612Y-128609799D01*
X163724025Y-128586117D01*
X163749762Y-128569595D01*
X163765750Y-128564079D01*
X163792684Y-128569153D01*
X163819840Y-128581672D01*
X163840210Y-128597585D01*
X163846960Y-128611032D01*
X163838824Y-128636123D01*
X163838824Y-128636123D01*
G37*
X163838824Y-128636123D02*
X163816898Y-128666877D01*
X163784908Y-128698655D01*
X163762466Y-128716259D01*
X163727769Y-128742474D01*
X163691144Y-128772297D01*
X163679320Y-128782511D01*
X163638680Y-128818457D01*
X163705417Y-128811974D01*
X163762273Y-128811534D01*
X163805578Y-128822067D01*
X163833597Y-128842973D01*
X163842000Y-128859096D01*
X163845168Y-128873370D01*
X163843271Y-128885451D01*
X163834165Y-128896361D01*
X163815708Y-128907122D01*
X163785758Y-128918755D01*
X163742170Y-128932284D01*
X163682803Y-128948730D01*
X163618360Y-128965758D01*
X163519921Y-128994633D01*
X163427964Y-129028767D01*
X163336881Y-129070662D01*
X163241064Y-129122821D01*
X163168820Y-129166377D01*
X163118397Y-129198637D01*
X163083482Y-129223292D01*
X163061657Y-129242304D01*
X163050504Y-129257633D01*
X163048253Y-129264162D01*
X163041754Y-129291908D01*
X163037343Y-129309146D01*
X163028662Y-129325067D01*
X163009921Y-129351391D01*
X162984592Y-129383360D01*
X162974381Y-129395506D01*
X162944806Y-129430785D01*
X162917672Y-129464306D01*
X162897786Y-129490101D01*
X162894272Y-129494982D01*
X162878292Y-129523942D01*
X162858909Y-129568697D01*
X162837467Y-129625286D01*
X162815314Y-129689748D01*
X162793794Y-129758121D01*
X162774253Y-129826443D01*
X162758038Y-129890753D01*
X162754549Y-129906255D01*
X162742152Y-129959762D01*
X162729045Y-130011001D01*
X162716833Y-130053984D01*
X162707544Y-130081664D01*
X162697440Y-130116376D01*
X162688280Y-130164205D01*
X162681368Y-130217947D01*
X162679934Y-130234064D01*
X162674822Y-130282080D01*
X162667873Y-130325063D01*
X162660162Y-130356995D01*
X162656083Y-130367480D01*
X162640868Y-130405211D01*
X162625889Y-130456294D01*
X162612673Y-130513804D01*
X162602750Y-130570813D01*
X162597646Y-130620396D01*
X162597280Y-130633979D01*
X162592387Y-130692450D01*
X162577024Y-130738196D01*
X162576960Y-130738319D01*
X162564398Y-130765940D01*
X162557259Y-130787444D01*
X162556640Y-130792057D01*
X162566489Y-130801776D01*
X162574903Y-130805458D01*
X162574903Y-130947446D01*
X162557686Y-130948955D01*
X162547489Y-130960895D01*
X162540334Y-130984305D01*
X162536764Y-131000140D01*
X162528287Y-131034533D01*
X162519916Y-131062144D01*
X162515181Y-131073600D01*
X162507400Y-131098149D01*
X162506680Y-131126098D01*
X162512443Y-131149200D01*
X162521143Y-131158578D01*
X162533535Y-131156875D01*
X162552553Y-131143584D01*
X162579566Y-131117406D01*
X162615941Y-131077042D01*
X162652745Y-131033612D01*
X162690268Y-130988545D01*
X162646314Y-130971577D01*
X162603120Y-130955333D01*
X162574903Y-130947446D01*
X162574903Y-130805458D01*
X162595341Y-130814405D01*
X162642155Y-130829516D01*
X162660780Y-130834812D01*
X162709453Y-130848902D01*
X162755691Y-130863345D01*
X162792879Y-130876025D01*
X162808167Y-130881937D01*
X162845149Y-130904037D01*
X162865056Y-130930744D01*
X162866526Y-130959815D01*
X162862040Y-130970879D01*
X162846407Y-130995569D01*
X162820693Y-131031400D01*
X162788197Y-131074218D01*
X162752219Y-131119871D01*
X162716057Y-131164208D01*
X162683012Y-131203075D01*
X162656382Y-131232321D01*
X162646779Y-131241785D01*
X162620133Y-131268986D01*
X162598739Y-131295463D01*
X162590224Y-131309502D01*
X162574385Y-131330300D01*
X162547874Y-131352898D01*
X162532556Y-131362925D01*
X162508282Y-131377965D01*
X162494062Y-131391570D01*
X162486378Y-131410048D01*
X162481713Y-131439704D01*
X162479742Y-131457620D01*
X162477829Y-131490671D01*
X162477153Y-131539011D01*
X162477682Y-131597652D01*
X162479386Y-131661602D01*
X162481341Y-131708556D01*
X162484177Y-131773374D01*
X162486383Y-131836629D01*
X162487827Y-131893290D01*
X162488371Y-131938324D01*
X162488129Y-131960767D01*
X162490287Y-132015772D01*
X162498786Y-132079023D01*
X162506811Y-132118247D01*
X162531759Y-132233630D01*
X162547929Y-132330736D01*
X162555320Y-132409614D01*
X162553934Y-132470311D01*
X162543772Y-132512876D01*
X162524834Y-132537358D01*
X162515151Y-132541989D01*
X162498954Y-132556464D01*
X162495795Y-132570344D01*
X162496632Y-132597221D01*
X162498820Y-132641163D01*
X162502138Y-132698974D01*
X162506367Y-132767461D01*
X162511286Y-132843428D01*
X162516676Y-132923682D01*
X162522316Y-133005027D01*
X162527986Y-133084269D01*
X162533467Y-133158213D01*
X162538538Y-133223664D01*
X162542980Y-133277429D01*
X162546572Y-133316312D01*
X162548139Y-133330465D01*
X162553859Y-133384695D01*
X162555230Y-133424052D01*
X162552281Y-133453509D01*
X162548873Y-133467137D01*
X162542471Y-133501275D01*
X162548075Y-133525138D01*
X162553625Y-133548737D01*
X162553587Y-133583093D01*
X162552396Y-133594210D01*
X162550482Y-133632671D01*
X162558193Y-133664190D01*
X162566516Y-133681535D01*
X162579975Y-133715527D01*
X162586879Y-133750327D01*
X162587121Y-133756323D01*
X162592618Y-133800484D01*
X162607910Y-133857281D01*
X162631196Y-133922663D01*
X162660676Y-133992578D01*
X162694547Y-134062975D01*
X162731011Y-134129804D01*
X162768265Y-134189014D01*
X162796191Y-134226660D01*
X162827229Y-134268390D01*
X162843757Y-134299178D01*
X162845489Y-134318242D01*
X162832139Y-134324799D01*
X162832071Y-134324800D01*
X162816877Y-134316414D01*
X162794074Y-134293296D01*
X162765873Y-134258500D01*
X162734488Y-134215083D01*
X162702129Y-134166100D01*
X162671009Y-134114607D01*
X162644057Y-134065068D01*
X162627350Y-134033767D01*
X162614687Y-134012835D01*
X162608205Y-134005712D01*
X162607787Y-134006721D01*
X162610878Y-134022505D01*
X162619423Y-134052275D01*
X162631723Y-134090996D01*
X162646078Y-134133636D01*
X162660787Y-134175161D01*
X162674150Y-134210538D01*
X162684467Y-134234734D01*
X162685507Y-134236817D01*
X162694687Y-134264559D01*
X162692411Y-134285464D01*
X162679341Y-134294289D01*
X162678242Y-134294320D01*
X162667664Y-134285180D01*
X162652796Y-134260127D01*
X162635185Y-134222711D01*
X162616383Y-134176482D01*
X162597937Y-134124989D01*
X162581942Y-134073686D01*
X162569943Y-134032342D01*
X162559560Y-133997417D01*
X162552402Y-133974284D01*
X162550678Y-133969200D01*
X162545982Y-133973299D01*
X162536435Y-133994072D01*
X162523108Y-134028756D01*
X162507071Y-134074585D01*
X162491674Y-134121600D01*
X162473824Y-134176195D01*
X162450447Y-134245437D01*
X162423072Y-134324919D01*
X162393232Y-134410233D01*
X162362457Y-134496971D01*
X162332278Y-134580726D01*
X162331131Y-134583880D01*
X162296783Y-134678747D01*
X162268144Y-134759123D01*
X162243732Y-134829522D01*
X162222065Y-134894457D01*
X162201661Y-134958440D01*
X162181036Y-135025987D01*
X162158708Y-135101609D01*
X162140892Y-135163085D01*
X162127888Y-135200491D01*
X162110455Y-135233848D01*
X162086025Y-135266045D01*
X162052031Y-135299971D01*
X162005906Y-135338514D01*
X161945080Y-135384562D01*
X161941960Y-135386854D01*
X161904842Y-135415262D01*
X161857701Y-135453064D01*
X161805635Y-135496085D01*
X161753743Y-135540144D01*
X161733680Y-135557557D01*
X161634835Y-135642982D01*
X161521476Y-135739138D01*
X161395353Y-135844576D01*
X161258215Y-135957844D01*
X161111814Y-136077493D01*
X160957899Y-136202073D01*
X160890400Y-136256348D01*
X160783646Y-136341936D01*
X160690697Y-136416183D01*
X160609578Y-136480547D01*
X160538309Y-136536486D01*
X160474914Y-136585457D01*
X160417414Y-136628917D01*
X160363833Y-136668323D01*
X160312193Y-136705133D01*
X160260516Y-136740804D01*
X160206824Y-136776794D01*
X160149141Y-136814559D01*
X160085488Y-136855557D01*
X160024037Y-136894784D01*
X159972149Y-136930760D01*
X159935495Y-136964289D01*
X159910222Y-136999903D01*
X159892480Y-137042132D01*
X159888921Y-137053729D01*
X159872712Y-137094303D01*
X159852564Y-137122228D01*
X159830985Y-137135132D01*
X159810483Y-137130643D01*
X159808914Y-137129418D01*
X159799188Y-137112431D01*
X159799891Y-137102817D01*
X159799036Y-137090229D01*
X159794208Y-137088320D01*
X159786817Y-137079383D01*
X159783074Y-137057368D01*
X159782960Y-137052255D01*
X159792803Y-136999459D01*
X159821367Y-136945767D01*
X159867207Y-136892768D01*
X159928878Y-136842054D01*
X160004933Y-136795215D01*
X160026800Y-136783910D01*
X160050372Y-136770010D01*
X160085851Y-136746491D01*
X160129178Y-136716304D01*
X160176294Y-136682398D01*
X160223139Y-136647723D01*
X160265654Y-136615230D01*
X160299779Y-136587869D01*
X160316360Y-136573479D01*
X160335958Y-136556566D01*
X160364009Y-136533667D01*
X160382239Y-136519268D01*
X160407048Y-136499547D01*
X160441963Y-136471116D01*
X160487723Y-136433359D01*
X160545067Y-136385659D01*
X160614732Y-136327401D01*
X160697457Y-136257968D01*
X160793981Y-136176744D01*
X160905041Y-136083111D01*
X160935890Y-136057080D01*
X160998481Y-136004255D01*
X161057309Y-135954611D01*
X161110250Y-135909938D01*
X161155181Y-135872028D01*
X161189980Y-135842673D01*
X161212523Y-135823662D01*
X161218864Y-135818320D01*
X161258674Y-135784792D01*
X161308225Y-135743037D01*
X161365598Y-135694673D01*
X161428873Y-135641320D01*
X161496133Y-135584596D01*
X161565456Y-135526121D01*
X161634925Y-135467514D01*
X161702620Y-135410394D01*
X161766623Y-135356381D01*
X161825013Y-135307093D01*
X161875872Y-135264151D01*
X161917280Y-135229172D01*
X161947319Y-135203777D01*
X161964069Y-135189585D01*
X161965461Y-135188400D01*
X162007130Y-135152840D01*
X162084998Y-134873440D01*
X162117156Y-134757877D01*
X162144445Y-134659256D01*
X162167518Y-134574962D01*
X162187029Y-134502381D01*
X162203631Y-134438899D01*
X162217978Y-134381902D01*
X162230724Y-134328776D01*
X162242521Y-134276907D01*
X162254024Y-134223681D01*
X162265885Y-134166483D01*
X162278759Y-134102701D01*
X162283034Y-134081300D01*
X162297125Y-134011290D01*
X162310137Y-133947840D01*
X162321492Y-133893681D01*
X162330609Y-133851544D01*
X162336909Y-133824161D01*
X162339689Y-133814392D01*
X162336995Y-133802214D01*
X162324067Y-133781960D01*
X162318876Y-133775490D01*
X162291331Y-133728525D01*
X162273919Y-133666226D01*
X162270236Y-133639745D01*
X162267973Y-133629168D01*
X162263151Y-133627530D01*
X162254137Y-133636779D01*
X162239301Y-133658863D01*
X162217010Y-133695731D01*
X162202144Y-133721025D01*
X162162070Y-133787642D01*
X162115824Y-133861351D01*
X162065341Y-133939335D01*
X162012554Y-134018775D01*
X161959400Y-134096851D01*
X161907812Y-134170744D01*
X161859726Y-134237637D01*
X161817077Y-134294709D01*
X161781799Y-134339142D01*
X161763323Y-134360360D01*
X161705976Y-134420690D01*
X161641064Y-134485934D01*
X161567146Y-134557445D01*
X161482780Y-134636581D01*
X161386528Y-134724697D01*
X161276949Y-134823148D01*
X161184764Y-134904927D01*
X161150216Y-134935436D01*
X161105169Y-134975215D01*
X161054356Y-135020084D01*
X161002511Y-135065865D01*
X160976760Y-135088604D01*
X160924977Y-135134217D01*
X160870510Y-135182003D01*
X160818512Y-135227453D01*
X160774134Y-135266061D01*
X160757287Y-135280636D01*
X160713791Y-135318234D01*
X160661822Y-135363263D01*
X160608216Y-135409793D01*
X160564247Y-135448033D01*
X160429511Y-135562830D01*
X160291183Y-135675927D01*
X160152111Y-135785184D01*
X160015141Y-135888461D01*
X159883119Y-135983617D01*
X159758893Y-136068513D01*
X159645309Y-136141009D01*
X159630560Y-136149961D01*
X159569619Y-136188373D01*
X159514383Y-136226380D01*
X159468155Y-136261512D01*
X159434236Y-136291302D01*
X159419514Y-136307749D01*
X159402271Y-136328984D01*
X159393471Y-136338520D01*
X159382400Y-136353722D01*
X159365639Y-136381275D01*
X159346685Y-136415407D01*
X159345437Y-136417760D01*
X159323094Y-136454900D01*
X159296011Y-136492450D01*
X159267607Y-136526466D01*
X159241301Y-136553003D01*
X159220513Y-136568118D01*
X159213317Y-136570160D01*
X159201561Y-136561744D01*
X159197141Y-136551815D01*
X159184845Y-136535424D01*
X159162532Y-136522217D01*
X159139102Y-136507256D01*
X159134372Y-136489663D01*
X159148538Y-136473330D01*
X159159816Y-136467915D01*
X159187427Y-136452137D01*
X159214309Y-136424855D01*
X159242544Y-136383449D01*
X159274212Y-136325297D01*
X159276256Y-136321240D01*
X159306435Y-136266455D01*
X159338376Y-136221551D01*
X159376414Y-136181951D01*
X159424883Y-136143081D01*
X159481310Y-136104741D01*
X159585222Y-136035348D01*
X159700927Y-135954045D01*
X159825590Y-135863028D01*
X159956379Y-135764493D01*
X160090460Y-135660635D01*
X160224998Y-135553650D01*
X160357161Y-135445733D01*
X160484114Y-135339081D01*
X160603024Y-135235890D01*
X160605920Y-135233327D01*
X160649014Y-135195029D01*
X160699737Y-135149686D01*
X160755229Y-135099881D01*
X160812629Y-135048197D01*
X160869078Y-134997218D01*
X160921714Y-134949526D01*
X160967677Y-134907706D01*
X161004107Y-134874340D01*
X161027560Y-134852561D01*
X161067291Y-134815555D01*
X161111759Y-134774827D01*
X161149480Y-134740855D01*
X161186451Y-134707740D01*
X161224776Y-134673043D01*
X161256159Y-134644275D01*
X161256160Y-134644274D01*
X161285165Y-134618049D01*
X161325935Y-134582062D01*
X161374658Y-134539601D01*
X161427524Y-134493951D01*
X161480722Y-134448402D01*
X161530442Y-134406241D01*
X161572871Y-134370755D01*
X161580937Y-134364097D01*
X161611178Y-134336879D01*
X161636001Y-134307960D01*
X161659570Y-134271686D01*
X161686051Y-134222405D01*
X161687633Y-134219288D01*
X161708328Y-134178888D01*
X161725863Y-134145532D01*
X161738112Y-134123215D01*
X161742643Y-134116024D01*
X161749551Y-134104210D01*
X161761130Y-134080095D01*
X161768867Y-134062713D01*
X161780021Y-134038845D01*
X161798816Y-134000690D01*
X161823396Y-133951924D01*
X161851908Y-133896226D01*
X161882496Y-133837273D01*
X161885231Y-133832040D01*
X161930157Y-133746116D01*
X161966845Y-133675811D01*
X161996493Y-133618747D01*
X162020296Y-133572544D01*
X162039452Y-133534823D01*
X162055156Y-133503207D01*
X162068604Y-133475315D01*
X162080994Y-133448770D01*
X162093521Y-133421193D01*
X162106879Y-133391334D01*
X162131807Y-133338036D01*
X162154003Y-133297940D01*
X162177369Y-133265043D01*
X162205806Y-133233338D01*
X162216639Y-133222440D01*
X162278281Y-133161480D01*
X162274574Y-132882279D01*
X162273539Y-132809262D01*
X162272478Y-132743288D01*
X162271444Y-132686964D01*
X162270488Y-132642902D01*
X162269662Y-132613709D01*
X162269020Y-132601995D01*
X162268974Y-132601888D01*
X162258769Y-132602516D01*
X162232441Y-132605115D01*
X162194045Y-132609263D01*
X162150240Y-132614236D01*
X162099049Y-132619850D01*
X162034188Y-132626490D01*
X161962240Y-132633506D01*
X161889787Y-132640252D01*
X161850630Y-132643741D01*
X161745808Y-132654293D01*
X161641025Y-132667862D01*
X161531444Y-132685215D01*
X161412225Y-132707118D01*
X161278530Y-132734340D01*
X161276480Y-132734774D01*
X161194861Y-132752533D01*
X161131095Y-132767943D01*
X161083017Y-132782146D01*
X161048463Y-132796284D01*
X161025268Y-132811497D01*
X161011268Y-132828928D01*
X161004297Y-132849719D01*
X161002191Y-132875010D01*
X161002160Y-132879438D01*
X160997708Y-132924204D01*
X160984745Y-132952570D01*
X160963868Y-132963300D01*
X160961894Y-132963360D01*
X160950282Y-132959746D01*
X160942578Y-132945985D01*
X160936764Y-132917695D01*
X160934984Y-132904940D01*
X160930361Y-132861183D01*
X160927271Y-132815847D01*
X160926633Y-132796312D01*
X160927588Y-132764924D01*
X160934029Y-132745625D01*
X160949704Y-132730261D01*
X160960495Y-132722644D01*
X161000880Y-132701207D01*
X161060451Y-132678436D01*
X161138141Y-132654610D01*
X161232880Y-132630010D01*
X161343600Y-132604918D01*
X161469232Y-132579614D01*
X161586360Y-132558251D01*
X161658926Y-132545816D01*
X161723615Y-132535363D01*
X161785060Y-132526282D01*
X161847895Y-132517961D01*
X161916752Y-132509789D01*
X161996265Y-132501155D01*
X162091067Y-132491447D01*
X162098398Y-132490712D01*
X162153008Y-132484930D01*
X162200586Y-132479313D01*
X162237401Y-132474347D01*
X162259722Y-132470519D01*
X162264427Y-132469100D01*
X162268077Y-132456625D01*
X162269704Y-132426944D01*
X162269232Y-132383077D01*
X162267581Y-132344966D01*
X162258760Y-132217511D01*
X162247126Y-132106248D01*
X162232829Y-132012109D01*
X162216019Y-131936025D01*
X162196846Y-131878927D01*
X162190495Y-131865324D01*
X162178030Y-131837487D01*
X162171080Y-131815357D01*
X162170560Y-131810851D01*
X162163487Y-131795398D01*
X162145529Y-131773614D01*
X162133793Y-131762186D01*
X162108612Y-131735912D01*
X162079551Y-131700521D01*
X162055889Y-131667960D01*
X161982253Y-131568951D01*
X161897426Y-131472208D01*
X161805065Y-131381089D01*
X161708828Y-131298957D01*
X161612370Y-131229171D01*
X161519859Y-131175348D01*
X161486239Y-131155947D01*
X161455638Y-131134227D01*
X161447128Y-131126909D01*
X161427410Y-131112012D01*
X161403516Y-131103164D01*
X161368709Y-131098278D01*
X161350608Y-131096988D01*
X161294489Y-131092527D01*
X161223294Y-131085177D01*
X161139315Y-131075293D01*
X161044846Y-131063231D01*
X160942178Y-131049346D01*
X160833605Y-131033994D01*
X160721417Y-131017529D01*
X160607908Y-131000308D01*
X160495371Y-130982686D01*
X160386097Y-130965018D01*
X160282379Y-130947659D01*
X160186510Y-130930966D01*
X160100781Y-130915294D01*
X160027486Y-130900997D01*
X159968917Y-130888432D01*
X159927366Y-130877953D01*
X159916792Y-130874685D01*
X159844993Y-130847107D01*
X159786315Y-130815645D01*
X159733566Y-130775879D01*
X159692459Y-130736814D01*
X159656423Y-130702679D01*
X159629180Y-130683481D01*
X159608083Y-130677361D01*
X159607747Y-130677360D01*
X159580581Y-130670886D01*
X159563987Y-130660135D01*
X159553658Y-130647366D01*
X159556322Y-130636821D01*
X159573492Y-130621597D01*
X159590851Y-130603091D01*
X159590414Y-130590477D01*
X159586276Y-130574224D01*
X159589253Y-130566679D01*
X159605482Y-130556334D01*
X159628986Y-130562525D01*
X159657309Y-130583950D01*
X159687568Y-130618737D01*
X159717360Y-130653503D01*
X159751990Y-130686470D01*
X159774325Y-130703743D01*
X159820397Y-130727890D01*
X159885621Y-130751726D01*
X159968832Y-130774994D01*
X160068862Y-130797438D01*
X160184544Y-130818801D01*
X160314713Y-130838825D01*
X160458200Y-130857254D01*
X160486026Y-130860458D01*
X160529913Y-130865464D01*
X160587771Y-130872120D01*
X160653389Y-130879708D01*
X160720557Y-130887512D01*
X160751294Y-130891096D01*
X160832366Y-130900256D01*
X160895721Y-130906535D01*
X160943757Y-130909920D01*
X160978873Y-130910395D01*
X161003468Y-130907946D01*
X161019941Y-130902560D01*
X161030691Y-130894223D01*
X161034352Y-130889427D01*
X161048703Y-130867814D01*
X161088932Y-130888139D01*
X161142057Y-130910430D01*
X161207928Y-130929594D01*
X161289440Y-130946385D01*
X161347600Y-130955716D01*
X161404448Y-130965405D01*
X161465483Y-130977919D01*
X161520652Y-130991132D01*
X161539837Y-130996430D01*
X161583377Y-131010034D01*
X161614181Y-131023093D01*
X161639271Y-131039803D01*
X161665670Y-131064364D01*
X161682077Y-131081454D01*
X161717317Y-131116479D01*
X161760853Y-131156506D01*
X161804753Y-131194306D01*
X161816332Y-131203749D01*
X161846828Y-131229971D01*
X161887865Y-131267770D01*
X161936076Y-131313909D01*
X161988094Y-131365149D01*
X162040553Y-131418255D01*
X162056385Y-131434597D01*
X162218867Y-131603159D01*
X162224716Y-131559359D01*
X162227294Y-131533164D01*
X162230297Y-131491793D01*
X162233396Y-131440374D01*
X162236262Y-131384037D01*
X162236971Y-131368240D01*
X162243376Y-131220920D01*
X162198524Y-131119320D01*
X162150929Y-131004957D01*
X162115321Y-130904427D01*
X162100306Y-130853297D01*
X162092814Y-130829236D01*
X162082961Y-130815233D01*
X162064989Y-130806791D01*
X162033140Y-130799415D01*
X162030656Y-130798907D01*
X161996139Y-130791533D01*
X161948506Y-130780916D01*
X161892364Y-130768131D01*
X161832318Y-130754250D01*
X161772973Y-130740346D01*
X161718936Y-130727491D01*
X161674811Y-130716760D01*
X161645205Y-130709224D01*
X161642240Y-130708419D01*
X161492784Y-130665663D01*
X161362580Y-130625000D01*
X161250714Y-130586057D01*
X161156268Y-130548459D01*
X161078328Y-130511831D01*
X161015976Y-130475800D01*
X160968297Y-130439990D01*
X160954934Y-130427467D01*
X160918753Y-130385049D01*
X160890914Y-130340094D01*
X160872293Y-130295876D01*
X160863763Y-130255665D01*
X160866201Y-130222735D01*
X160880481Y-130200356D01*
X160892519Y-130194087D01*
X160914173Y-130195762D01*
X160931698Y-130209984D01*
X160938307Y-130230115D01*
X160936773Y-130237362D01*
X160936469Y-130255279D01*
X160942556Y-130280641D01*
X160942631Y-130280854D01*
X160959919Y-130306737D01*
X160993892Y-130337261D01*
X161041851Y-130370976D01*
X161101094Y-130406432D01*
X161168922Y-130442181D01*
X161242634Y-130476771D01*
X161319530Y-130508754D01*
X161396910Y-130536679D01*
X161449200Y-130552831D01*
X161507606Y-130568874D01*
X161573491Y-130585935D01*
X161644079Y-130603399D01*
X161716593Y-130620652D01*
X161788257Y-130637079D01*
X161856296Y-130652066D01*
X161917931Y-130665000D01*
X161970388Y-130675264D01*
X162010890Y-130682246D01*
X162036661Y-130685331D01*
X162044773Y-130684613D01*
X162043420Y-130673799D01*
X162036191Y-130648203D01*
X162024363Y-130612062D01*
X162014171Y-130583144D01*
X161970171Y-130468952D01*
X161918590Y-130348995D01*
X161858551Y-130221532D01*
X161789178Y-130084826D01*
X161709593Y-129937139D01*
X161618921Y-129776731D01*
X161536087Y-129635171D01*
X161503915Y-129580834D01*
X161475361Y-129532460D01*
X161452020Y-129492763D01*
X161435486Y-129464456D01*
X161427354Y-129450253D01*
X161426830Y-129449244D01*
X161416059Y-129443203D01*
X161388475Y-129432241D01*
X161346745Y-129417213D01*
X161293536Y-129398977D01*
X161231516Y-129378386D01*
X161163352Y-129356298D01*
X161091712Y-129333569D01*
X161019264Y-129311054D01*
X160948675Y-129289609D01*
X160882613Y-129270091D01*
X160823745Y-129253355D01*
X160778640Y-129241256D01*
X160704295Y-129222161D01*
X160620577Y-129200698D01*
X160536051Y-129179061D01*
X160459283Y-129159443D01*
X160433200Y-129152789D01*
X160308751Y-129119368D01*
X160188608Y-129083840D01*
X160075234Y-129047098D01*
X159971090Y-129010033D01*
X159878638Y-128973539D01*
X159800339Y-128938507D01*
X159738654Y-128905830D01*
X159720260Y-128894334D01*
X159695336Y-128878982D01*
X159677284Y-128869919D01*
X159673319Y-128868880D01*
X159657579Y-128860450D01*
X159635986Y-128838068D01*
X159611492Y-128806096D01*
X159587047Y-128768896D01*
X159565602Y-128730830D01*
X159550109Y-128696260D01*
X159544911Y-128679074D01*
X159543178Y-128645528D01*
X159551282Y-128616595D01*
X159566841Y-128598151D01*
X159579152Y-128594560D01*
X159600279Y-128603214D01*
X159612932Y-128623549D01*
X159612541Y-128644498D01*
X159613791Y-128670256D01*
X159632674Y-128700886D01*
X159667408Y-128735256D01*
X159716212Y-128772235D01*
X159777307Y-128810691D01*
X159848911Y-128849492D01*
X159929244Y-128887506D01*
X160016525Y-128923603D01*
X160097920Y-128952969D01*
X160160538Y-128972881D01*
X160233484Y-128994158D01*
X160314113Y-129016195D01*
X160399782Y-129038390D01*
X160487847Y-129060138D01*
X160575662Y-129080836D01*
X160660585Y-129099881D01*
X160739972Y-129116668D01*
X160811176Y-129130593D01*
X160871556Y-129141054D01*
X160918466Y-129147447D01*
X160949263Y-129149167D01*
X160955093Y-129148662D01*
X160985586Y-129147043D01*
X161003130Y-129154892D01*
X161005893Y-129158115D01*
X161018662Y-129165589D01*
X161047905Y-129177751D01*
X161090616Y-129193508D01*
X161143788Y-129211770D01*
X161204415Y-129231443D01*
X161228727Y-129239045D01*
X161316929Y-129266828D01*
X161387643Y-129290288D01*
X161443034Y-129310259D01*
X161485270Y-129327575D01*
X161516517Y-129343069D01*
X161538941Y-129357576D01*
X161541136Y-129359285D01*
X161550988Y-129372126D01*
X161568954Y-129400529D01*
X161593688Y-129442075D01*
X161623845Y-129494343D01*
X161658078Y-129554911D01*
X161695042Y-129621360D01*
X161733390Y-129691268D01*
X161771778Y-129762215D01*
X161808858Y-129831780D01*
X161843285Y-129897542D01*
X161873714Y-129957081D01*
X161875722Y-129961080D01*
X161921262Y-130053762D01*
X161963225Y-130143596D01*
X162003661Y-130235326D01*
X162044619Y-130333697D01*
X162088149Y-130443451D01*
X162120767Y-130528329D01*
X162142651Y-130585344D01*
X162162361Y-130635722D01*
X162178675Y-130676413D01*
X162190368Y-130704370D01*
X162196219Y-130716544D01*
X162196364Y-130716712D01*
X162208952Y-130719886D01*
X162236268Y-130722367D01*
X162272724Y-130723671D01*
X162277694Y-130723727D01*
X162316122Y-130723762D01*
X162338927Y-130721928D01*
X162350804Y-130716556D01*
X162356447Y-130705975D01*
X162359162Y-130694758D01*
X162367092Y-130668810D01*
X162380463Y-130634012D01*
X162390517Y-130610862D01*
X162403770Y-130575995D01*
X162413548Y-130534891D01*
X162420920Y-130482227D01*
X162424896Y-130439669D01*
X162432294Y-130372160D01*
X162442371Y-130314308D01*
X162454217Y-130271256D01*
X162455093Y-130268917D01*
X162459020Y-130256531D01*
X162459020Y-133503413D01*
X162449474Y-133505700D01*
X162436235Y-133518824D01*
X162438272Y-133536956D01*
X162453705Y-133551925D01*
X162474106Y-133557158D01*
X162484167Y-133544990D01*
X162485520Y-133531226D01*
X162478020Y-133509972D01*
X162459020Y-133503413D01*
X162459020Y-130256531D01*
X162469071Y-130224829D01*
X162482591Y-130169098D01*
X162494195Y-130109307D01*
X162502425Y-130053042D01*
X162505821Y-130007887D01*
X162505841Y-130005064D01*
X162510742Y-129968737D01*
X162522745Y-129931961D01*
X162524794Y-129927655D01*
X162535966Y-129900675D01*
X162550562Y-129858692D01*
X162567202Y-129806446D01*
X162584504Y-129748679D01*
X162601088Y-129690131D01*
X162615573Y-129635542D01*
X162626577Y-129589654D01*
X162632722Y-129557206D01*
X162632744Y-129557044D01*
X162640572Y-129521986D01*
X162655387Y-129498471D01*
X162670039Y-129485924D01*
X162694254Y-129461766D01*
X162722297Y-129424115D01*
X162750761Y-129378463D01*
X162776239Y-129330307D01*
X162795325Y-129285140D01*
X162796357Y-129282164D01*
X162811515Y-129249295D01*
X162830457Y-129223254D01*
X162838172Y-129216528D01*
X162856647Y-129202202D01*
X162885329Y-129178110D01*
X162919497Y-129148269D01*
X162939003Y-129130782D01*
X162989050Y-129086783D01*
X163033371Y-129051468D01*
X163078084Y-129020608D01*
X163129307Y-128989972D01*
X163191640Y-128956132D01*
X163236915Y-128931195D01*
X163274170Y-128907430D01*
X163306962Y-128881532D01*
X163338850Y-128850197D01*
X163373394Y-128810119D01*
X163414151Y-128757996D01*
X163435480Y-128729712D01*
X163467924Y-128687581D01*
X163498366Y-128650162D01*
X163523652Y-128621196D01*
X163540624Y-128604426D01*
X163542160Y-128603262D01*
X163581554Y-128582812D01*
X163616499Y-128579105D01*
X163638278Y-128587913D01*
X163651527Y-128601367D01*
X163650803Y-128617601D01*
X163646116Y-128629007D01*
X163639010Y-128647850D01*
X163641523Y-128653592D01*
X163654914Y-128645743D01*
X163680444Y-128623814D01*
X163695612Y-128609799D01*
X163724025Y-128586117D01*
X163749762Y-128569595D01*
X163765750Y-128564079D01*
X163792684Y-128569153D01*
X163819840Y-128581672D01*
X163840210Y-128597585D01*
X163846960Y-128611032D01*
X163838824Y-128636123D01*
G36*
X158987940Y-137279584D02*
X158939680Y-137281360D01*
X158941456Y-137233100D01*
X158943231Y-137184840D01*
X158947092Y-137227463D01*
X158950646Y-137254396D01*
X158958931Y-137267297D01*
X158978183Y-137272400D01*
X158993577Y-137273948D01*
X159036200Y-137277809D01*
X158987940Y-137279584D01*
X158987940Y-137279584D01*
G37*
X158987940Y-137279584D02*
X158939680Y-137281360D01*
X158941456Y-137233100D01*
X158943231Y-137184840D01*
X158947092Y-137227463D01*
X158950646Y-137254396D01*
X158958931Y-137267297D01*
X158978183Y-137272400D01*
X158993577Y-137273948D01*
X159036200Y-137277809D01*
X158987940Y-137279584D01*
G36*
X123621575Y-109828060D02*
X123621575Y-110451515D01*
X123313696Y-110451515D01*
X123313696Y-109828060D01*
X123621575Y-109828060D01*
X123621575Y-109828060D01*
G37*
X123621575Y-109828060D02*
X123621575Y-110451515D01*
X123313696Y-110451515D01*
X123313696Y-109828060D01*
X123621575Y-109828060D01*
G36*
X124245030Y-112945333D02*
X124245030Y-113561091D01*
X123937151Y-113561091D01*
X123937151Y-112945333D01*
X124245030Y-112945333D01*
X124245030Y-112945333D01*
G37*
X124245030Y-112945333D02*
X124245030Y-113561091D01*
X123937151Y-113561091D01*
X123937151Y-112945333D01*
X124245030Y-112945333D01*
G36*
X123621575Y-117609697D02*
X123621575Y-118233151D01*
X123313696Y-118233151D01*
X123313696Y-117609697D01*
X123621575Y-117609697D01*
X123621575Y-117609697D01*
G37*
X123621575Y-117609697D02*
X123621575Y-118233151D01*
X123313696Y-118233151D01*
X123313696Y-117609697D01*
X123621575Y-117609697D01*
G36*
X123937151Y-114500121D02*
X123937151Y-115115879D01*
X123313696Y-115115879D01*
X123313696Y-114500121D01*
X123937151Y-114500121D01*
X123937151Y-114500121D01*
G37*
X123937151Y-114500121D02*
X123937151Y-115115879D01*
X123313696Y-115115879D01*
X123313696Y-114500121D01*
X123937151Y-114500121D01*
G36*
X120511996Y-109700550D02*
X120512045Y-109556112D01*
X120512141Y-109424135D01*
X120512295Y-109304033D01*
X120512519Y-109195220D01*
X120512827Y-109097109D01*
X120513231Y-109009113D01*
X120513743Y-108930647D01*
X120514376Y-108861122D01*
X120515142Y-108799954D01*
X120516055Y-108746556D01*
X120517126Y-108700340D01*
X120518369Y-108660721D01*
X120519795Y-108627112D01*
X120521418Y-108598927D01*
X120523250Y-108575579D01*
X120525303Y-108556481D01*
X120527590Y-108541048D01*
X120530124Y-108528692D01*
X120532918Y-108518827D01*
X120535983Y-108510867D01*
X120539332Y-108504225D01*
X120542979Y-108498315D01*
X120546935Y-108492549D01*
X120551213Y-108486343D01*
X120553395Y-108483018D01*
X120581964Y-108446866D01*
X120618197Y-108412879D01*
X120644571Y-108393917D01*
X120649348Y-108390776D01*
X120653532Y-108387822D01*
X120657592Y-108385051D01*
X120661997Y-108382457D01*
X120667213Y-108380032D01*
X120673710Y-108377773D01*
X120681956Y-108375672D01*
X120692419Y-108373725D01*
X120705567Y-108371925D01*
X120721868Y-108370267D01*
X120741791Y-108368744D01*
X120765804Y-108367352D01*
X120794376Y-108366084D01*
X120827974Y-108364934D01*
X120867066Y-108363898D01*
X120912122Y-108362968D01*
X120963609Y-108362139D01*
X121021995Y-108361406D01*
X121087749Y-108360762D01*
X121161339Y-108360203D01*
X121243233Y-108359721D01*
X121333900Y-108359312D01*
X121433807Y-108358969D01*
X121543424Y-108358687D01*
X121663217Y-108358459D01*
X121793656Y-108358281D01*
X121935209Y-108358147D01*
X122088343Y-108358050D01*
X122253528Y-108357985D01*
X122431231Y-108357946D01*
X122621921Y-108357927D01*
X122826066Y-108357923D01*
X123044134Y-108357927D01*
X123276594Y-108357935D01*
X123523913Y-108357939D01*
X123560000Y-108357939D01*
X123809451Y-108357936D01*
X124043977Y-108357928D01*
X124264045Y-108357923D01*
X124470125Y-108357926D01*
X124662683Y-108357942D01*
X124842189Y-108357978D01*
X125009110Y-108358039D01*
X125163915Y-108358131D01*
X125307072Y-108358260D01*
X125439049Y-108358431D01*
X125560315Y-108358651D01*
X125671338Y-108358925D01*
X125772585Y-108359259D01*
X125864526Y-108359659D01*
X125947629Y-108360130D01*
X126022361Y-108360679D01*
X126089191Y-108361310D01*
X126148588Y-108362030D01*
X126201019Y-108362845D01*
X126246953Y-108363760D01*
X126286858Y-108364782D01*
X126321202Y-108365915D01*
X126350454Y-108367166D01*
X126375081Y-108368540D01*
X126395552Y-108370044D01*
X126412336Y-108371683D01*
X126425900Y-108373463D01*
X126436713Y-108375389D01*
X126445243Y-108377467D01*
X126451958Y-108379704D01*
X126457327Y-108382105D01*
X126461817Y-108384675D01*
X126465898Y-108387421D01*
X126470036Y-108390348D01*
X126474702Y-108393462D01*
X126475428Y-108393917D01*
X126512855Y-108422259D01*
X126547558Y-108457594D01*
X126566604Y-108483018D01*
X126571156Y-108489839D01*
X126575362Y-108495947D01*
X126579236Y-108501945D01*
X126582792Y-108508437D01*
X126586043Y-108516026D01*
X126589003Y-108525315D01*
X126591685Y-108536909D01*
X126594103Y-108551410D01*
X126596271Y-108569422D01*
X126598203Y-108591548D01*
X126599911Y-108618392D01*
X126601410Y-108650557D01*
X126602712Y-108688647D01*
X126603833Y-108733264D01*
X126604785Y-108785013D01*
X126605581Y-108844496D01*
X126606237Y-108912318D01*
X126606764Y-108989081D01*
X126607177Y-109075389D01*
X126607490Y-109171845D01*
X126607715Y-109279054D01*
X126607867Y-109397617D01*
X126607960Y-109528139D01*
X126608006Y-109671224D01*
X126608019Y-109827473D01*
X126608014Y-109997492D01*
X126608003Y-110181883D01*
X126608000Y-110318435D01*
X126608000Y-112037091D01*
X126346303Y-112037091D01*
X126346303Y-112568182D01*
X126608000Y-112568182D01*
X126607493Y-117557742D01*
X126607455Y-117894817D01*
X126607411Y-118216830D01*
X126607361Y-118524116D01*
X126607303Y-118817007D01*
X126607236Y-119095836D01*
X126607161Y-119360937D01*
X126607076Y-119612643D01*
X126606980Y-119851287D01*
X126606873Y-120077201D01*
X126606754Y-120290720D01*
X126606622Y-120492175D01*
X126606476Y-120681901D01*
X126606316Y-120860230D01*
X126606141Y-121027496D01*
X126605951Y-121184031D01*
X126605744Y-121330168D01*
X126605519Y-121466242D01*
X126605277Y-121592584D01*
X126605015Y-121709528D01*
X126604734Y-121817407D01*
X126604433Y-121916554D01*
X126604111Y-122007303D01*
X126603767Y-122089986D01*
X126603400Y-122164936D01*
X126603010Y-122232487D01*
X126602596Y-122292972D01*
X126602157Y-122346723D01*
X126601692Y-122394074D01*
X126601202Y-122435358D01*
X126600684Y-122470908D01*
X126600138Y-122501058D01*
X126599564Y-122526139D01*
X126598960Y-122546486D01*
X126598326Y-122562432D01*
X126597662Y-122574309D01*
X126596966Y-122582451D01*
X126596237Y-122587190D01*
X126596147Y-122587549D01*
X126573099Y-122644257D01*
X126536941Y-122694800D01*
X126489485Y-122736800D01*
X126475428Y-122746083D01*
X126468340Y-122750531D01*
X126461623Y-122754597D01*
X126454589Y-122758297D01*
X126446550Y-122761649D01*
X126436816Y-122764671D01*
X126424701Y-122767379D01*
X126409514Y-122769791D01*
X126390569Y-122771923D01*
X126367176Y-122773793D01*
X126338647Y-122775418D01*
X126304293Y-122776816D01*
X126263426Y-122778002D01*
X126215358Y-122778996D01*
X126159401Y-122779813D01*
X126094864Y-122780470D01*
X126021062Y-122780986D01*
X125937304Y-122781377D01*
X125842902Y-122781660D01*
X125737169Y-122781853D01*
X125619415Y-122781973D01*
X125488952Y-122782036D01*
X125345092Y-122782060D01*
X125187146Y-122782062D01*
X125032352Y-122782060D01*
X124245030Y-122782060D01*
X124245030Y-121658303D01*
X124560606Y-121658303D01*
X124560606Y-121342727D01*
X124560606Y-120103568D01*
X124560606Y-119787939D01*
X123621401Y-119787939D01*
X123623412Y-119478136D01*
X123625424Y-119168333D01*
X124093015Y-119166349D01*
X124560606Y-119164366D01*
X124560606Y-118856606D01*
X124172424Y-118856606D01*
X124172424Y-118547354D01*
X124256664Y-118547287D01*
X124332428Y-118547148D01*
X124398669Y-118546941D01*
X124454338Y-118546667D01*
X124498389Y-118546329D01*
X124529773Y-118545928D01*
X124547443Y-118545468D01*
X124551030Y-118545162D01*
X124552835Y-118541617D01*
X124554393Y-118531890D01*
X124555714Y-118515138D01*
X124556810Y-118490516D01*
X124557691Y-118457180D01*
X124558366Y-118414287D01*
X124558846Y-118360992D01*
X124559143Y-118296451D01*
X124559265Y-118219820D01*
X124559224Y-118130255D01*
X124559030Y-118026912D01*
X124558727Y-117919724D01*
X124556757Y-117297970D01*
X124400893Y-117295886D01*
X124245030Y-117293802D01*
X124245030Y-118233151D01*
X123937270Y-118233151D01*
X123935286Y-117765560D01*
X123933303Y-117297970D01*
X123001969Y-117297970D01*
X123001969Y-118544879D01*
X123771666Y-118546863D01*
X123879330Y-118547104D01*
X123982709Y-118547264D01*
X124080757Y-118547347D01*
X124172424Y-118547354D01*
X124172424Y-118856606D01*
X123621575Y-118856606D01*
X123621575Y-119164485D01*
X123313696Y-119164485D01*
X123313696Y-118856606D01*
X122998121Y-118856606D01*
X122998121Y-116986242D01*
X124245030Y-116986242D01*
X124245030Y-116054909D01*
X124552909Y-116054909D01*
X124552909Y-116986242D01*
X124868484Y-116986242D01*
X124868484Y-115739333D01*
X122998121Y-115739333D01*
X122998121Y-115431454D01*
X124245030Y-115431454D01*
X124245030Y-114500121D01*
X124552909Y-114500121D01*
X124552909Y-115431454D01*
X124868484Y-115431454D01*
X124868484Y-114184545D01*
X122998121Y-114184545D01*
X122998121Y-113876667D01*
X123313696Y-113876667D01*
X123313696Y-112945333D01*
X123621575Y-112945333D01*
X123621575Y-113876667D01*
X124560606Y-113876667D01*
X124560606Y-112629757D01*
X122998121Y-112629757D01*
X122998121Y-112321879D01*
X124560606Y-112321879D01*
X124560606Y-112006303D01*
X123621575Y-112006303D01*
X123621575Y-111698424D01*
X123937151Y-111698424D01*
X123937151Y-111382848D01*
X124560606Y-111382848D01*
X124560606Y-111074970D01*
X124172424Y-111074970D01*
X124172424Y-110765717D01*
X124256664Y-110765650D01*
X124332428Y-110765512D01*
X124398669Y-110765305D01*
X124454338Y-110765031D01*
X124498389Y-110764693D01*
X124529773Y-110764292D01*
X124547443Y-110763832D01*
X124551030Y-110763526D01*
X124552835Y-110759981D01*
X124554393Y-110750254D01*
X124555714Y-110733501D01*
X124556810Y-110708879D01*
X124557691Y-110675544D01*
X124558366Y-110632650D01*
X124558846Y-110579355D01*
X124559143Y-110514814D01*
X124559265Y-110438183D01*
X124559224Y-110348618D01*
X124559030Y-110245275D01*
X124558727Y-110138088D01*
X124556757Y-109516333D01*
X124400893Y-109514250D01*
X124245030Y-109512166D01*
X124245030Y-110451515D01*
X123937270Y-110451515D01*
X123935286Y-109983924D01*
X123933303Y-109516333D01*
X123001969Y-109516333D01*
X123001969Y-110763242D01*
X123771666Y-110765226D01*
X123879330Y-110765467D01*
X123982709Y-110765628D01*
X124080757Y-110765711D01*
X124172424Y-110765717D01*
X124172424Y-111074970D01*
X122998121Y-111074970D01*
X122998121Y-111382530D01*
X123153984Y-111384613D01*
X123309848Y-111386697D01*
X123311860Y-111696500D01*
X123313871Y-112006303D01*
X122998121Y-112006303D01*
X122998121Y-112321879D01*
X122998121Y-112629757D01*
X122998121Y-113876667D01*
X122998121Y-114184545D01*
X122998121Y-115431454D01*
X122998121Y-115739333D01*
X122998121Y-116054909D01*
X123937326Y-116054909D01*
X123935314Y-116364712D01*
X123933303Y-116674515D01*
X122998121Y-116678483D01*
X122998121Y-116986242D01*
X122998121Y-118856606D01*
X122998121Y-119164166D01*
X123153984Y-119166250D01*
X123309848Y-119168333D01*
X123311860Y-119478136D01*
X123313871Y-119787939D01*
X122374347Y-119787939D01*
X122378515Y-120099667D01*
X123469560Y-120101617D01*
X124560606Y-120103568D01*
X124560606Y-121342727D01*
X124245030Y-121342727D01*
X124245030Y-121034848D01*
X123937151Y-121034848D01*
X123937151Y-121350424D01*
X124245030Y-121350424D01*
X124245030Y-121658303D01*
X124245030Y-122782060D01*
X123698545Y-122782060D01*
X123698545Y-122520364D01*
X123175151Y-122520364D01*
X123175151Y-122782060D01*
X122374347Y-122782060D01*
X122374347Y-121658303D01*
X122690242Y-121658303D01*
X122690242Y-121350743D01*
X122846106Y-121348659D01*
X123001969Y-121346576D01*
X123004053Y-121190712D01*
X123006136Y-121034848D01*
X123313696Y-121034848D01*
X123313696Y-120726970D01*
X123621575Y-120726970D01*
X123621575Y-121034848D01*
X123937151Y-121034848D01*
X123937151Y-120719273D01*
X123621575Y-120719273D01*
X123621575Y-120411394D01*
X123313696Y-120411394D01*
X123313696Y-120719273D01*
X122998121Y-120719273D01*
X122998121Y-121034848D01*
X122690242Y-121034848D01*
X122690242Y-121342408D01*
X122534378Y-121344492D01*
X122378515Y-121346576D01*
X122376431Y-121502439D01*
X122374347Y-121658303D01*
X122374347Y-122782060D01*
X121964495Y-122782060D01*
X121801422Y-122782061D01*
X121653017Y-122782054D01*
X121518558Y-122782016D01*
X121397320Y-122781929D01*
X121316026Y-122781813D01*
X121316026Y-122466371D01*
X121404143Y-122459610D01*
X121485276Y-122439372D01*
X121560531Y-122405278D01*
X121628573Y-122358919D01*
X121692782Y-122298080D01*
X121744595Y-122229309D01*
X121783494Y-122154123D01*
X121808964Y-122074039D01*
X121820486Y-121990574D01*
X121817546Y-121905244D01*
X121805306Y-121840024D01*
X121777347Y-121759921D01*
X121737178Y-121687172D01*
X121686329Y-121622759D01*
X121626331Y-121567664D01*
X121558712Y-121522869D01*
X121485004Y-121489355D01*
X121406736Y-121468105D01*
X121325439Y-121460101D01*
X121242642Y-121466324D01*
X121227325Y-121469105D01*
X121142820Y-121493126D01*
X121066490Y-121529148D01*
X120998990Y-121575775D01*
X120940974Y-121631607D01*
X120893097Y-121695246D01*
X120856012Y-121765294D01*
X120830374Y-121840352D01*
X120816837Y-121919023D01*
X120816056Y-121999908D01*
X120828684Y-122081609D01*
X120855377Y-122162728D01*
X120879479Y-122212485D01*
X120915172Y-122265667D01*
X120961857Y-122317580D01*
X121015365Y-122364279D01*
X121071527Y-122401822D01*
X121089939Y-122411534D01*
X121150107Y-122438024D01*
X121205028Y-122455067D01*
X121260401Y-122464045D01*
X121316026Y-122466371D01*
X121316026Y-122781813D01*
X121288578Y-122781773D01*
X121191607Y-122781529D01*
X121105684Y-122781175D01*
X121030084Y-122780694D01*
X120964083Y-122780064D01*
X120906956Y-122779267D01*
X120857978Y-122778282D01*
X120816426Y-122777090D01*
X120781575Y-122775671D01*
X120752700Y-122774005D01*
X120729077Y-122772073D01*
X120709982Y-122769854D01*
X120694690Y-122767329D01*
X120682477Y-122764479D01*
X120672618Y-122761283D01*
X120664390Y-122757722D01*
X120657066Y-122753776D01*
X120649924Y-122749426D01*
X120644571Y-122746083D01*
X120593565Y-122705981D01*
X120554315Y-122656601D01*
X120527881Y-122599358D01*
X120523446Y-122584167D01*
X120522670Y-122579912D01*
X120521929Y-122573017D01*
X120521222Y-122563137D01*
X120520549Y-122549929D01*
X120519909Y-122533047D01*
X120519301Y-122512147D01*
X120518724Y-122486886D01*
X120518178Y-122456919D01*
X120517661Y-122421902D01*
X120517173Y-122381490D01*
X120516714Y-122335340D01*
X120516281Y-122283106D01*
X120515875Y-122224445D01*
X120515495Y-122159013D01*
X120515140Y-122086465D01*
X120514809Y-122006457D01*
X120514501Y-121918644D01*
X120514215Y-121822683D01*
X120513951Y-121718229D01*
X120513708Y-121604937D01*
X120513486Y-121482465D01*
X120513282Y-121350466D01*
X120513097Y-121208598D01*
X120512930Y-121056515D01*
X120512779Y-120893874D01*
X120512645Y-120720331D01*
X120512526Y-120535540D01*
X120512422Y-120339158D01*
X120512331Y-120130840D01*
X120512253Y-119910243D01*
X120512187Y-119677022D01*
X120512133Y-119430832D01*
X120512089Y-119171329D01*
X120512055Y-118898170D01*
X120512030Y-118611010D01*
X120512013Y-118309504D01*
X120512003Y-117993309D01*
X120512000Y-117662079D01*
X120512000Y-112752909D01*
X120773696Y-112752909D01*
X120773696Y-112229515D01*
X120512000Y-112229515D01*
X120512000Y-110414647D01*
X120511994Y-110214498D01*
X120511983Y-110029157D01*
X120511979Y-109858036D01*
X120511996Y-109700550D01*
X120511996Y-109700550D01*
G37*
X120511996Y-109700550D02*
X120512045Y-109556112D01*
X120512141Y-109424135D01*
X120512295Y-109304033D01*
X120512519Y-109195220D01*
X120512827Y-109097109D01*
X120513231Y-109009113D01*
X120513743Y-108930647D01*
X120514376Y-108861122D01*
X120515142Y-108799954D01*
X120516055Y-108746556D01*
X120517126Y-108700340D01*
X120518369Y-108660721D01*
X120519795Y-108627112D01*
X120521418Y-108598927D01*
X120523250Y-108575579D01*
X120525303Y-108556481D01*
X120527590Y-108541048D01*
X120530124Y-108528692D01*
X120532918Y-108518827D01*
X120535983Y-108510867D01*
X120539332Y-108504225D01*
X120542979Y-108498315D01*
X120546935Y-108492549D01*
X120551213Y-108486343D01*
X120553395Y-108483018D01*
X120581964Y-108446866D01*
X120618197Y-108412879D01*
X120644571Y-108393917D01*
X120649348Y-108390776D01*
X120653532Y-108387822D01*
X120657592Y-108385051D01*
X120661997Y-108382457D01*
X120667213Y-108380032D01*
X120673710Y-108377773D01*
X120681956Y-108375672D01*
X120692419Y-108373725D01*
X120705567Y-108371925D01*
X120721868Y-108370267D01*
X120741791Y-108368744D01*
X120765804Y-108367352D01*
X120794376Y-108366084D01*
X120827974Y-108364934D01*
X120867066Y-108363898D01*
X120912122Y-108362968D01*
X120963609Y-108362139D01*
X121021995Y-108361406D01*
X121087749Y-108360762D01*
X121161339Y-108360203D01*
X121243233Y-108359721D01*
X121333900Y-108359312D01*
X121433807Y-108358969D01*
X121543424Y-108358687D01*
X121663217Y-108358459D01*
X121793656Y-108358281D01*
X121935209Y-108358147D01*
X122088343Y-108358050D01*
X122253528Y-108357985D01*
X122431231Y-108357946D01*
X122621921Y-108357927D01*
X122826066Y-108357923D01*
X123044134Y-108357927D01*
X123276594Y-108357935D01*
X123523913Y-108357939D01*
X123560000Y-108357939D01*
X123809451Y-108357936D01*
X124043977Y-108357928D01*
X124264045Y-108357923D01*
X124470125Y-108357926D01*
X124662683Y-108357942D01*
X124842189Y-108357978D01*
X125009110Y-108358039D01*
X125163915Y-108358131D01*
X125307072Y-108358260D01*
X125439049Y-108358431D01*
X125560315Y-108358651D01*
X125671338Y-108358925D01*
X125772585Y-108359259D01*
X125864526Y-108359659D01*
X125947629Y-108360130D01*
X126022361Y-108360679D01*
X126089191Y-108361310D01*
X126148588Y-108362030D01*
X126201019Y-108362845D01*
X126246953Y-108363760D01*
X126286858Y-108364782D01*
X126321202Y-108365915D01*
X126350454Y-108367166D01*
X126375081Y-108368540D01*
X126395552Y-108370044D01*
X126412336Y-108371683D01*
X126425900Y-108373463D01*
X126436713Y-108375389D01*
X126445243Y-108377467D01*
X126451958Y-108379704D01*
X126457327Y-108382105D01*
X126461817Y-108384675D01*
X126465898Y-108387421D01*
X126470036Y-108390348D01*
X126474702Y-108393462D01*
X126475428Y-108393917D01*
X126512855Y-108422259D01*
X126547558Y-108457594D01*
X126566604Y-108483018D01*
X126571156Y-108489839D01*
X126575362Y-108495947D01*
X126579236Y-108501945D01*
X126582792Y-108508437D01*
X126586043Y-108516026D01*
X126589003Y-108525315D01*
X126591685Y-108536909D01*
X126594103Y-108551410D01*
X126596271Y-108569422D01*
X126598203Y-108591548D01*
X126599911Y-108618392D01*
X126601410Y-108650557D01*
X126602712Y-108688647D01*
X126603833Y-108733264D01*
X126604785Y-108785013D01*
X126605581Y-108844496D01*
X126606237Y-108912318D01*
X126606764Y-108989081D01*
X126607177Y-109075389D01*
X126607490Y-109171845D01*
X126607715Y-109279054D01*
X126607867Y-109397617D01*
X126607960Y-109528139D01*
X126608006Y-109671224D01*
X126608019Y-109827473D01*
X126608014Y-109997492D01*
X126608003Y-110181883D01*
X126608000Y-110318435D01*
X126608000Y-112037091D01*
X126346303Y-112037091D01*
X126346303Y-112568182D01*
X126608000Y-112568182D01*
X126607493Y-117557742D01*
X126607455Y-117894817D01*
X126607411Y-118216830D01*
X126607361Y-118524116D01*
X126607303Y-118817007D01*
X126607236Y-119095836D01*
X126607161Y-119360937D01*
X126607076Y-119612643D01*
X126606980Y-119851287D01*
X126606873Y-120077201D01*
X126606754Y-120290720D01*
X126606622Y-120492175D01*
X126606476Y-120681901D01*
X126606316Y-120860230D01*
X126606141Y-121027496D01*
X126605951Y-121184031D01*
X126605744Y-121330168D01*
X126605519Y-121466242D01*
X126605277Y-121592584D01*
X126605015Y-121709528D01*
X126604734Y-121817407D01*
X126604433Y-121916554D01*
X126604111Y-122007303D01*
X126603767Y-122089986D01*
X126603400Y-122164936D01*
X126603010Y-122232487D01*
X126602596Y-122292972D01*
X126602157Y-122346723D01*
X126601692Y-122394074D01*
X126601202Y-122435358D01*
X126600684Y-122470908D01*
X126600138Y-122501058D01*
X126599564Y-122526139D01*
X126598960Y-122546486D01*
X126598326Y-122562432D01*
X126597662Y-122574309D01*
X126596966Y-122582451D01*
X126596237Y-122587190D01*
X126596147Y-122587549D01*
X126573099Y-122644257D01*
X126536941Y-122694800D01*
X126489485Y-122736800D01*
X126475428Y-122746083D01*
X126468340Y-122750531D01*
X126461623Y-122754597D01*
X126454589Y-122758297D01*
X126446550Y-122761649D01*
X126436816Y-122764671D01*
X126424701Y-122767379D01*
X126409514Y-122769791D01*
X126390569Y-122771923D01*
X126367176Y-122773793D01*
X126338647Y-122775418D01*
X126304293Y-122776816D01*
X126263426Y-122778002D01*
X126215358Y-122778996D01*
X126159401Y-122779813D01*
X126094864Y-122780470D01*
X126021062Y-122780986D01*
X125937304Y-122781377D01*
X125842902Y-122781660D01*
X125737169Y-122781853D01*
X125619415Y-122781973D01*
X125488952Y-122782036D01*
X125345092Y-122782060D01*
X125187146Y-122782062D01*
X125032352Y-122782060D01*
X124245030Y-122782060D01*
X124245030Y-121658303D01*
X124560606Y-121658303D01*
X124560606Y-121342727D01*
X124560606Y-120103568D01*
X124560606Y-119787939D01*
X123621401Y-119787939D01*
X123623412Y-119478136D01*
X123625424Y-119168333D01*
X124093015Y-119166349D01*
X124560606Y-119164366D01*
X124560606Y-118856606D01*
X124172424Y-118856606D01*
X124172424Y-118547354D01*
X124256664Y-118547287D01*
X124332428Y-118547148D01*
X124398669Y-118546941D01*
X124454338Y-118546667D01*
X124498389Y-118546329D01*
X124529773Y-118545928D01*
X124547443Y-118545468D01*
X124551030Y-118545162D01*
X124552835Y-118541617D01*
X124554393Y-118531890D01*
X124555714Y-118515138D01*
X124556810Y-118490516D01*
X124557691Y-118457180D01*
X124558366Y-118414287D01*
X124558846Y-118360992D01*
X124559143Y-118296451D01*
X124559265Y-118219820D01*
X124559224Y-118130255D01*
X124559030Y-118026912D01*
X124558727Y-117919724D01*
X124556757Y-117297970D01*
X124400893Y-117295886D01*
X124245030Y-117293802D01*
X124245030Y-118233151D01*
X123937270Y-118233151D01*
X123935286Y-117765560D01*
X123933303Y-117297970D01*
X123001969Y-117297970D01*
X123001969Y-118544879D01*
X123771666Y-118546863D01*
X123879330Y-118547104D01*
X123982709Y-118547264D01*
X124080757Y-118547347D01*
X124172424Y-118547354D01*
X124172424Y-118856606D01*
X123621575Y-118856606D01*
X123621575Y-119164485D01*
X123313696Y-119164485D01*
X123313696Y-118856606D01*
X122998121Y-118856606D01*
X122998121Y-116986242D01*
X124245030Y-116986242D01*
X124245030Y-116054909D01*
X124552909Y-116054909D01*
X124552909Y-116986242D01*
X124868484Y-116986242D01*
X124868484Y-115739333D01*
X122998121Y-115739333D01*
X122998121Y-115431454D01*
X124245030Y-115431454D01*
X124245030Y-114500121D01*
X124552909Y-114500121D01*
X124552909Y-115431454D01*
X124868484Y-115431454D01*
X124868484Y-114184545D01*
X122998121Y-114184545D01*
X122998121Y-113876667D01*
X123313696Y-113876667D01*
X123313696Y-112945333D01*
X123621575Y-112945333D01*
X123621575Y-113876667D01*
X124560606Y-113876667D01*
X124560606Y-112629757D01*
X122998121Y-112629757D01*
X122998121Y-112321879D01*
X124560606Y-112321879D01*
X124560606Y-112006303D01*
X123621575Y-112006303D01*
X123621575Y-111698424D01*
X123937151Y-111698424D01*
X123937151Y-111382848D01*
X124560606Y-111382848D01*
X124560606Y-111074970D01*
X124172424Y-111074970D01*
X124172424Y-110765717D01*
X124256664Y-110765650D01*
X124332428Y-110765512D01*
X124398669Y-110765305D01*
X124454338Y-110765031D01*
X124498389Y-110764693D01*
X124529773Y-110764292D01*
X124547443Y-110763832D01*
X124551030Y-110763526D01*
X124552835Y-110759981D01*
X124554393Y-110750254D01*
X124555714Y-110733501D01*
X124556810Y-110708879D01*
X124557691Y-110675544D01*
X124558366Y-110632650D01*
X124558846Y-110579355D01*
X124559143Y-110514814D01*
X124559265Y-110438183D01*
X124559224Y-110348618D01*
X124559030Y-110245275D01*
X124558727Y-110138088D01*
X124556757Y-109516333D01*
X124400893Y-109514250D01*
X124245030Y-109512166D01*
X124245030Y-110451515D01*
X123937270Y-110451515D01*
X123935286Y-109983924D01*
X123933303Y-109516333D01*
X123001969Y-109516333D01*
X123001969Y-110763242D01*
X123771666Y-110765226D01*
X123879330Y-110765467D01*
X123982709Y-110765628D01*
X124080757Y-110765711D01*
X124172424Y-110765717D01*
X124172424Y-111074970D01*
X122998121Y-111074970D01*
X122998121Y-111382530D01*
X123153984Y-111384613D01*
X123309848Y-111386697D01*
X123311860Y-111696500D01*
X123313871Y-112006303D01*
X122998121Y-112006303D01*
X122998121Y-112321879D01*
X122998121Y-112629757D01*
X122998121Y-113876667D01*
X122998121Y-114184545D01*
X122998121Y-115431454D01*
X122998121Y-115739333D01*
X122998121Y-116054909D01*
X123937326Y-116054909D01*
X123935314Y-116364712D01*
X123933303Y-116674515D01*
X122998121Y-116678483D01*
X122998121Y-116986242D01*
X122998121Y-118856606D01*
X122998121Y-119164166D01*
X123153984Y-119166250D01*
X123309848Y-119168333D01*
X123311860Y-119478136D01*
X123313871Y-119787939D01*
X122374347Y-119787939D01*
X122378515Y-120099667D01*
X123469560Y-120101617D01*
X124560606Y-120103568D01*
X124560606Y-121342727D01*
X124245030Y-121342727D01*
X124245030Y-121034848D01*
X123937151Y-121034848D01*
X123937151Y-121350424D01*
X124245030Y-121350424D01*
X124245030Y-121658303D01*
X124245030Y-122782060D01*
X123698545Y-122782060D01*
X123698545Y-122520364D01*
X123175151Y-122520364D01*
X123175151Y-122782060D01*
X122374347Y-122782060D01*
X122374347Y-121658303D01*
X122690242Y-121658303D01*
X122690242Y-121350743D01*
X122846106Y-121348659D01*
X123001969Y-121346576D01*
X123004053Y-121190712D01*
X123006136Y-121034848D01*
X123313696Y-121034848D01*
X123313696Y-120726970D01*
X123621575Y-120726970D01*
X123621575Y-121034848D01*
X123937151Y-121034848D01*
X123937151Y-120719273D01*
X123621575Y-120719273D01*
X123621575Y-120411394D01*
X123313696Y-120411394D01*
X123313696Y-120719273D01*
X122998121Y-120719273D01*
X122998121Y-121034848D01*
X122690242Y-121034848D01*
X122690242Y-121342408D01*
X122534378Y-121344492D01*
X122378515Y-121346576D01*
X122376431Y-121502439D01*
X122374347Y-121658303D01*
X122374347Y-122782060D01*
X121964495Y-122782060D01*
X121801422Y-122782061D01*
X121653017Y-122782054D01*
X121518558Y-122782016D01*
X121397320Y-122781929D01*
X121316026Y-122781813D01*
X121316026Y-122466371D01*
X121404143Y-122459610D01*
X121485276Y-122439372D01*
X121560531Y-122405278D01*
X121628573Y-122358919D01*
X121692782Y-122298080D01*
X121744595Y-122229309D01*
X121783494Y-122154123D01*
X121808964Y-122074039D01*
X121820486Y-121990574D01*
X121817546Y-121905244D01*
X121805306Y-121840024D01*
X121777347Y-121759921D01*
X121737178Y-121687172D01*
X121686329Y-121622759D01*
X121626331Y-121567664D01*
X121558712Y-121522869D01*
X121485004Y-121489355D01*
X121406736Y-121468105D01*
X121325439Y-121460101D01*
X121242642Y-121466324D01*
X121227325Y-121469105D01*
X121142820Y-121493126D01*
X121066490Y-121529148D01*
X120998990Y-121575775D01*
X120940974Y-121631607D01*
X120893097Y-121695246D01*
X120856012Y-121765294D01*
X120830374Y-121840352D01*
X120816837Y-121919023D01*
X120816056Y-121999908D01*
X120828684Y-122081609D01*
X120855377Y-122162728D01*
X120879479Y-122212485D01*
X120915172Y-122265667D01*
X120961857Y-122317580D01*
X121015365Y-122364279D01*
X121071527Y-122401822D01*
X121089939Y-122411534D01*
X121150107Y-122438024D01*
X121205028Y-122455067D01*
X121260401Y-122464045D01*
X121316026Y-122466371D01*
X121316026Y-122781813D01*
X121288578Y-122781773D01*
X121191607Y-122781529D01*
X121105684Y-122781175D01*
X121030084Y-122780694D01*
X120964083Y-122780064D01*
X120906956Y-122779267D01*
X120857978Y-122778282D01*
X120816426Y-122777090D01*
X120781575Y-122775671D01*
X120752700Y-122774005D01*
X120729077Y-122772073D01*
X120709982Y-122769854D01*
X120694690Y-122767329D01*
X120682477Y-122764479D01*
X120672618Y-122761283D01*
X120664390Y-122757722D01*
X120657066Y-122753776D01*
X120649924Y-122749426D01*
X120644571Y-122746083D01*
X120593565Y-122705981D01*
X120554315Y-122656601D01*
X120527881Y-122599358D01*
X120523446Y-122584167D01*
X120522670Y-122579912D01*
X120521929Y-122573017D01*
X120521222Y-122563137D01*
X120520549Y-122549929D01*
X120519909Y-122533047D01*
X120519301Y-122512147D01*
X120518724Y-122486886D01*
X120518178Y-122456919D01*
X120517661Y-122421902D01*
X120517173Y-122381490D01*
X120516714Y-122335340D01*
X120516281Y-122283106D01*
X120515875Y-122224445D01*
X120515495Y-122159013D01*
X120515140Y-122086465D01*
X120514809Y-122006457D01*
X120514501Y-121918644D01*
X120514215Y-121822683D01*
X120513951Y-121718229D01*
X120513708Y-121604937D01*
X120513486Y-121482465D01*
X120513282Y-121350466D01*
X120513097Y-121208598D01*
X120512930Y-121056515D01*
X120512779Y-120893874D01*
X120512645Y-120720331D01*
X120512526Y-120535540D01*
X120512422Y-120339158D01*
X120512331Y-120130840D01*
X120512253Y-119910243D01*
X120512187Y-119677022D01*
X120512133Y-119430832D01*
X120512089Y-119171329D01*
X120512055Y-118898170D01*
X120512030Y-118611010D01*
X120512013Y-118309504D01*
X120512003Y-117993309D01*
X120512000Y-117662079D01*
X120512000Y-112752909D01*
X120773696Y-112752909D01*
X120773696Y-112229515D01*
X120512000Y-112229515D01*
X120512000Y-110414647D01*
X120511994Y-110214498D01*
X120511983Y-110029157D01*
X120511979Y-109858036D01*
X120511996Y-109700550D01*
D13*
X123678095Y-55912380D02*
X123678095Y-54912380D01*
X123678095Y-55388571D02*
X124249523Y-55388571D01*
X124249523Y-55912380D02*
X124249523Y-54912380D01*
X125249523Y-55912380D02*
X124678095Y-55912380D01*
X124963809Y-55912380D02*
X124963809Y-54912380D01*
X124868571Y-55055238D01*
X124773333Y-55150476D01*
X124678095Y-55198095D01*
X122154285Y-64312380D02*
X122154285Y-63312380D01*
X122487619Y-64026666D01*
X122820952Y-63312380D01*
X122820952Y-64312380D01*
X123487619Y-63312380D02*
X123678095Y-63312380D01*
X123773333Y-63360000D01*
X123868571Y-63455238D01*
X123916190Y-63645714D01*
X123916190Y-63979047D01*
X123868571Y-64169523D01*
X123773333Y-64264761D01*
X123678095Y-64312380D01*
X123487619Y-64312380D01*
X123392380Y-64264761D01*
X123297142Y-64169523D01*
X123249523Y-63979047D01*
X123249523Y-63645714D01*
X123297142Y-63455238D01*
X123392380Y-63360000D01*
X123487619Y-63312380D01*
X124344761Y-63312380D02*
X124344761Y-64121904D01*
X124392380Y-64217142D01*
X124440000Y-64264761D01*
X124535238Y-64312380D01*
X124725714Y-64312380D01*
X124820952Y-64264761D01*
X124868571Y-64217142D01*
X124916190Y-64121904D01*
X124916190Y-63312380D01*
X125392380Y-64312380D02*
X125392380Y-63312380D01*
X125963809Y-64312380D01*
X125963809Y-63312380D01*
X126297142Y-63312380D02*
X126868571Y-63312380D01*
X126582857Y-64312380D02*
X126582857Y-63312380D01*
X169678095Y-55912380D02*
X169678095Y-54912380D01*
X169678095Y-55388571D02*
X170249523Y-55388571D01*
X170249523Y-55912380D02*
X170249523Y-54912380D01*
X170678095Y-55007619D02*
X170725714Y-54960000D01*
X170820952Y-54912380D01*
X171059047Y-54912380D01*
X171154285Y-54960000D01*
X171201904Y-55007619D01*
X171249523Y-55102857D01*
X171249523Y-55198095D01*
X171201904Y-55340952D01*
X170630476Y-55912380D01*
X171249523Y-55912380D01*
X168154285Y-64312380D02*
X168154285Y-63312380D01*
X168487619Y-64026666D01*
X168820952Y-63312380D01*
X168820952Y-64312380D01*
X169487619Y-63312380D02*
X169678095Y-63312380D01*
X169773333Y-63360000D01*
X169868571Y-63455238D01*
X169916190Y-63645714D01*
X169916190Y-63979047D01*
X169868571Y-64169523D01*
X169773333Y-64264761D01*
X169678095Y-64312380D01*
X169487619Y-64312380D01*
X169392380Y-64264761D01*
X169297142Y-64169523D01*
X169249523Y-63979047D01*
X169249523Y-63645714D01*
X169297142Y-63455238D01*
X169392380Y-63360000D01*
X169487619Y-63312380D01*
X170344761Y-63312380D02*
X170344761Y-64121904D01*
X170392380Y-64217142D01*
X170440000Y-64264761D01*
X170535238Y-64312380D01*
X170725714Y-64312380D01*
X170820952Y-64264761D01*
X170868571Y-64217142D01*
X170916190Y-64121904D01*
X170916190Y-63312380D01*
X171392380Y-64312380D02*
X171392380Y-63312380D01*
X171963809Y-64312380D01*
X171963809Y-63312380D01*
X172297142Y-63312380D02*
X172868571Y-63312380D01*
X172582857Y-64312380D02*
X172582857Y-63312380D01*
X121428095Y-125112380D02*
X121428095Y-124112380D01*
X121428095Y-124588571D02*
X121999523Y-124588571D01*
X121999523Y-125112380D02*
X121999523Y-124112380D01*
X122380476Y-124112380D02*
X122999523Y-124112380D01*
X122666190Y-124493333D01*
X122809047Y-124493333D01*
X122904285Y-124540952D01*
X122951904Y-124588571D01*
X122999523Y-124683809D01*
X122999523Y-124921904D01*
X122951904Y-125017142D01*
X122904285Y-125064761D01*
X122809047Y-125112380D01*
X122523333Y-125112380D01*
X122428095Y-125064761D01*
X122380476Y-125017142D01*
X121404285Y-126612380D02*
X121404285Y-125612380D01*
X121737619Y-126326666D01*
X122070952Y-125612380D01*
X122070952Y-126612380D01*
X122737619Y-125612380D02*
X122928095Y-125612380D01*
X123023333Y-125660000D01*
X123118571Y-125755238D01*
X123166190Y-125945714D01*
X123166190Y-126279047D01*
X123118571Y-126469523D01*
X123023333Y-126564761D01*
X122928095Y-126612380D01*
X122737619Y-126612380D01*
X122642380Y-126564761D01*
X122547142Y-126469523D01*
X122499523Y-126279047D01*
X122499523Y-125945714D01*
X122547142Y-125755238D01*
X122642380Y-125660000D01*
X122737619Y-125612380D01*
X123594761Y-125612380D02*
X123594761Y-126421904D01*
X123642380Y-126517142D01*
X123690000Y-126564761D01*
X123785238Y-126612380D01*
X123975714Y-126612380D01*
X124070952Y-126564761D01*
X124118571Y-126517142D01*
X124166190Y-126421904D01*
X124166190Y-125612380D01*
X124642380Y-126612380D02*
X124642380Y-125612380D01*
X125213809Y-126612380D01*
X125213809Y-125612380D01*
X125547142Y-125612380D02*
X126118571Y-125612380D01*
X125832857Y-126612380D02*
X125832857Y-125612380D01*
X170928095Y-128112380D02*
X170928095Y-127112380D01*
X170928095Y-127588571D02*
X171499523Y-127588571D01*
X171499523Y-128112380D02*
X171499523Y-127112380D01*
X172404285Y-127445714D02*
X172404285Y-128112380D01*
X172166190Y-127064761D02*
X171928095Y-127779047D01*
X172547142Y-127779047D01*
X167904285Y-129612380D02*
X167904285Y-128612380D01*
X168237619Y-129326666D01*
X168570952Y-128612380D01*
X168570952Y-129612380D01*
X169237619Y-128612380D02*
X169428095Y-128612380D01*
X169523333Y-128660000D01*
X169618571Y-128755238D01*
X169666190Y-128945714D01*
X169666190Y-129279047D01*
X169618571Y-129469523D01*
X169523333Y-129564761D01*
X169428095Y-129612380D01*
X169237619Y-129612380D01*
X169142380Y-129564761D01*
X169047142Y-129469523D01*
X168999523Y-129279047D01*
X168999523Y-128945714D01*
X169047142Y-128755238D01*
X169142380Y-128660000D01*
X169237619Y-128612380D01*
X170094761Y-128612380D02*
X170094761Y-129421904D01*
X170142380Y-129517142D01*
X170190000Y-129564761D01*
X170285238Y-129612380D01*
X170475714Y-129612380D01*
X170570952Y-129564761D01*
X170618571Y-129517142D01*
X170666190Y-129421904D01*
X170666190Y-128612380D01*
X171142380Y-129612380D02*
X171142380Y-128612380D01*
X171713809Y-129612380D01*
X171713809Y-128612380D01*
X172047142Y-128612380D02*
X172618571Y-128612380D01*
X172332857Y-129612380D02*
X172332857Y-128612380D01*
X135892380Y-59993333D02*
X136606666Y-59993333D01*
X136749523Y-60040952D01*
X136844761Y-60136190D01*
X136892380Y-60279047D01*
X136892380Y-60374285D01*
X136892380Y-58993333D02*
X136892380Y-59564761D01*
X136892380Y-59279047D02*
X135892380Y-59279047D01*
X136035238Y-59374285D01*
X136130476Y-59469523D01*
X136178095Y-59564761D01*
X127463809Y-56112380D02*
X127463809Y-55112380D01*
X127701904Y-55112380D01*
X127844761Y-55160000D01*
X127940000Y-55255238D01*
X127987619Y-55350476D01*
X128035238Y-55540952D01*
X128035238Y-55683809D01*
X127987619Y-55874285D01*
X127940000Y-55969523D01*
X127844761Y-56064761D01*
X127701904Y-56112380D01*
X127463809Y-56112380D01*
X128463809Y-55588571D02*
X128797142Y-55588571D01*
X128940000Y-56112380D02*
X128463809Y-56112380D01*
X128463809Y-55112380D01*
X128940000Y-55112380D01*
X129701904Y-55588571D02*
X129844761Y-55636190D01*
X129892380Y-55683809D01*
X129940000Y-55779047D01*
X129940000Y-55921904D01*
X129892380Y-56017142D01*
X129844761Y-56064761D01*
X129749523Y-56112380D01*
X129368571Y-56112380D01*
X129368571Y-55112380D01*
X129701904Y-55112380D01*
X129797142Y-55160000D01*
X129844761Y-55207619D01*
X129892380Y-55302857D01*
X129892380Y-55398095D01*
X129844761Y-55493333D01*
X129797142Y-55540952D01*
X129701904Y-55588571D01*
X129368571Y-55588571D01*
X130368571Y-55112380D02*
X130368571Y-55921904D01*
X130416190Y-56017142D01*
X130463809Y-56064761D01*
X130559047Y-56112380D01*
X130749523Y-56112380D01*
X130844761Y-56064761D01*
X130892380Y-56017142D01*
X130940000Y-55921904D01*
X130940000Y-55112380D01*
X131940000Y-55160000D02*
X131844761Y-55112380D01*
X131701904Y-55112380D01*
X131559047Y-55160000D01*
X131463809Y-55255238D01*
X131416190Y-55350476D01*
X131368571Y-55540952D01*
X131368571Y-55683809D01*
X131416190Y-55874285D01*
X131463809Y-55969523D01*
X131559047Y-56064761D01*
X131701904Y-56112380D01*
X131797142Y-56112380D01*
X131940000Y-56064761D01*
X131987619Y-56017142D01*
X131987619Y-55683809D01*
X131797142Y-55683809D01*
X132178095Y-56207619D02*
X132940000Y-56207619D01*
X133178095Y-56112380D02*
X133178095Y-55112380D01*
X133178095Y-55588571D02*
X133749523Y-55588571D01*
X133749523Y-56112380D02*
X133749523Y-55112380D01*
X134225714Y-55588571D02*
X134559047Y-55588571D01*
X134701904Y-56112380D02*
X134225714Y-56112380D01*
X134225714Y-55112380D01*
X134701904Y-55112380D01*
X135082857Y-55826666D02*
X135559047Y-55826666D01*
X134987619Y-56112380D02*
X135320952Y-55112380D01*
X135654285Y-56112380D01*
X135987619Y-56112380D02*
X135987619Y-55112380D01*
X136225714Y-55112380D01*
X136368571Y-55160000D01*
X136463809Y-55255238D01*
X136511428Y-55350476D01*
X136559047Y-55540952D01*
X136559047Y-55683809D01*
X136511428Y-55874285D01*
X136463809Y-55969523D01*
X136368571Y-56064761D01*
X136225714Y-56112380D01*
X135987619Y-56112380D01*
X136987619Y-55588571D02*
X137320952Y-55588571D01*
X137463809Y-56112380D02*
X136987619Y-56112380D01*
X136987619Y-55112380D01*
X137463809Y-55112380D01*
X138463809Y-56112380D02*
X138130476Y-55636190D01*
X137892380Y-56112380D02*
X137892380Y-55112380D01*
X138273333Y-55112380D01*
X138368571Y-55160000D01*
X138416190Y-55207619D01*
X138463809Y-55302857D01*
X138463809Y-55445714D01*
X138416190Y-55540952D01*
X138368571Y-55588571D01*
X138273333Y-55636190D01*
X137892380Y-55636190D01*
X124106666Y-66782380D02*
X124106666Y-67496666D01*
X124059047Y-67639523D01*
X123963809Y-67734761D01*
X123820952Y-67782380D01*
X123725714Y-67782380D01*
X124535238Y-66877619D02*
X124582857Y-66830000D01*
X124678095Y-66782380D01*
X124916190Y-66782380D01*
X125011428Y-66830000D01*
X125059047Y-66877619D01*
X125106666Y-66972857D01*
X125106666Y-67068095D01*
X125059047Y-67210952D01*
X124487619Y-67782380D01*
X125106666Y-67782380D01*
X125232380Y-100887619D02*
X124232380Y-100887619D01*
X124232380Y-100506666D01*
X124280000Y-100411428D01*
X124327619Y-100363809D01*
X124422857Y-100316190D01*
X124565714Y-100316190D01*
X124660952Y-100363809D01*
X124708571Y-100411428D01*
X124756190Y-100506666D01*
X124756190Y-100887619D01*
X124232380Y-99697142D02*
X124232380Y-99506666D01*
X124280000Y-99411428D01*
X124375238Y-99316190D01*
X124565714Y-99268571D01*
X124899047Y-99268571D01*
X125089523Y-99316190D01*
X125184761Y-99411428D01*
X125232380Y-99506666D01*
X125232380Y-99697142D01*
X125184761Y-99792380D01*
X125089523Y-99887619D01*
X124899047Y-99935238D01*
X124565714Y-99935238D01*
X124375238Y-99887619D01*
X124280000Y-99792380D01*
X124232380Y-99697142D01*
X124232380Y-98935238D02*
X125232380Y-98697142D01*
X124518095Y-98506666D01*
X125232380Y-98316190D01*
X124232380Y-98078095D01*
X124708571Y-97697142D02*
X124708571Y-97363809D01*
X125232380Y-97220952D02*
X125232380Y-97697142D01*
X124232380Y-97697142D01*
X124232380Y-97220952D01*
X125232380Y-96220952D02*
X124756190Y-96554285D01*
X125232380Y-96792380D02*
X124232380Y-96792380D01*
X124232380Y-96411428D01*
X124280000Y-96316190D01*
X124327619Y-96268571D01*
X124422857Y-96220952D01*
X124565714Y-96220952D01*
X124660952Y-96268571D01*
X124708571Y-96316190D01*
X124756190Y-96411428D01*
X124756190Y-96792380D01*
X125327619Y-96030476D02*
X125327619Y-95268571D01*
X125232380Y-95030476D02*
X124232380Y-95030476D01*
X124708571Y-95030476D02*
X124708571Y-94459047D01*
X125232380Y-94459047D02*
X124232380Y-94459047D01*
X124708571Y-93982857D02*
X124708571Y-93649523D01*
X125232380Y-93506666D02*
X125232380Y-93982857D01*
X124232380Y-93982857D01*
X124232380Y-93506666D01*
X124946666Y-93125714D02*
X124946666Y-92649523D01*
X125232380Y-93220952D02*
X124232380Y-92887619D01*
X125232380Y-92554285D01*
X125232380Y-92220952D02*
X124232380Y-92220952D01*
X124232380Y-91982857D01*
X124280000Y-91840000D01*
X124375238Y-91744761D01*
X124470476Y-91697142D01*
X124660952Y-91649523D01*
X124803809Y-91649523D01*
X124994285Y-91697142D01*
X125089523Y-91744761D01*
X125184761Y-91840000D01*
X125232380Y-91982857D01*
X125232380Y-92220952D01*
X124708571Y-91220952D02*
X124708571Y-90887619D01*
X125232380Y-90744761D02*
X125232380Y-91220952D01*
X124232380Y-91220952D01*
X124232380Y-90744761D01*
X125232380Y-89744761D02*
X124756190Y-90078095D01*
X125232380Y-90316190D02*
X124232380Y-90316190D01*
X124232380Y-89935238D01*
X124280000Y-89840000D01*
X124327619Y-89792380D01*
X124422857Y-89744761D01*
X124565714Y-89744761D01*
X124660952Y-89792380D01*
X124708571Y-89840000D01*
X124756190Y-89935238D01*
X124756190Y-90316190D01*
X160783571Y-85720714D02*
X160831190Y-85577857D01*
X160878809Y-85530238D01*
X160974047Y-85482619D01*
X161116904Y-85482619D01*
X161212142Y-85530238D01*
X161259761Y-85577857D01*
X161307380Y-85673095D01*
X161307380Y-86054047D01*
X160307380Y-86054047D01*
X160307380Y-85720714D01*
X160355000Y-85625476D01*
X160402619Y-85577857D01*
X160497857Y-85530238D01*
X160593095Y-85530238D01*
X160688333Y-85577857D01*
X160735952Y-85625476D01*
X160783571Y-85720714D01*
X160783571Y-86054047D01*
X160307380Y-85196904D02*
X160307380Y-84625476D01*
X161307380Y-84911190D02*
X160307380Y-84911190D01*
X161307380Y-83768333D02*
X161307380Y-84339761D01*
X161307380Y-84054047D02*
X160307380Y-84054047D01*
X160450238Y-84149285D01*
X160545476Y-84244523D01*
X160593095Y-84339761D01*
X165422380Y-89548095D02*
X164422380Y-89548095D01*
X164422380Y-89310000D01*
X164470000Y-89167142D01*
X164565238Y-89071904D01*
X164660476Y-89024285D01*
X164850952Y-88976666D01*
X164993809Y-88976666D01*
X165184285Y-89024285D01*
X165279523Y-89071904D01*
X165374761Y-89167142D01*
X165422380Y-89310000D01*
X165422380Y-89548095D01*
X165422380Y-88024285D02*
X165422380Y-88595714D01*
X165422380Y-88310000D02*
X164422380Y-88310000D01*
X164565238Y-88405238D01*
X164660476Y-88500476D01*
X164708095Y-88595714D01*
X170392380Y-95421904D02*
X169392380Y-95421904D01*
X170392380Y-94850476D02*
X169820952Y-95279047D01*
X169392380Y-94850476D02*
X169963809Y-95421904D01*
X147106666Y-72112380D02*
X147106666Y-72826666D01*
X147059047Y-72969523D01*
X146963809Y-73064761D01*
X146820952Y-73112380D01*
X146725714Y-73112380D01*
X147487619Y-72112380D02*
X148106666Y-72112380D01*
X147773333Y-72493333D01*
X147916190Y-72493333D01*
X148011428Y-72540952D01*
X148059047Y-72588571D01*
X148106666Y-72683809D01*
X148106666Y-72921904D01*
X148059047Y-73017142D01*
X148011428Y-73064761D01*
X147916190Y-73112380D01*
X147630476Y-73112380D01*
X147535238Y-73064761D01*
X147487619Y-73017142D01*
X143701904Y-70517142D02*
X143654285Y-70564761D01*
X143511428Y-70612380D01*
X143416190Y-70612380D01*
X143273333Y-70564761D01*
X143178095Y-70469523D01*
X143130476Y-70374285D01*
X143082857Y-70183809D01*
X143082857Y-70040952D01*
X143130476Y-69850476D01*
X143178095Y-69755238D01*
X143273333Y-69660000D01*
X143416190Y-69612380D01*
X143511428Y-69612380D01*
X143654285Y-69660000D01*
X143701904Y-69707619D01*
X144273333Y-70612380D02*
X144178095Y-70564761D01*
X144130476Y-70517142D01*
X144082857Y-70421904D01*
X144082857Y-70136190D01*
X144130476Y-70040952D01*
X144178095Y-69993333D01*
X144273333Y-69945714D01*
X144416190Y-69945714D01*
X144511428Y-69993333D01*
X144559047Y-70040952D01*
X144606666Y-70136190D01*
X144606666Y-70421904D01*
X144559047Y-70517142D01*
X144511428Y-70564761D01*
X144416190Y-70612380D01*
X144273333Y-70612380D01*
X145035238Y-69945714D02*
X145035238Y-70612380D01*
X145035238Y-70040952D02*
X145082857Y-69993333D01*
X145178095Y-69945714D01*
X145320952Y-69945714D01*
X145416190Y-69993333D01*
X145463809Y-70088571D01*
X145463809Y-70612380D01*
X145940000Y-69945714D02*
X145940000Y-70612380D01*
X145940000Y-70040952D02*
X145987619Y-69993333D01*
X146082857Y-69945714D01*
X146225714Y-69945714D01*
X146320952Y-69993333D01*
X146368571Y-70088571D01*
X146368571Y-70612380D01*
X146606666Y-70707619D02*
X147368571Y-70707619D01*
X147797142Y-69612380D02*
X147892380Y-69612380D01*
X147987619Y-69660000D01*
X148035238Y-69707619D01*
X148082857Y-69802857D01*
X148130476Y-69993333D01*
X148130476Y-70231428D01*
X148082857Y-70421904D01*
X148035238Y-70517142D01*
X147987619Y-70564761D01*
X147892380Y-70612380D01*
X147797142Y-70612380D01*
X147701904Y-70564761D01*
X147654285Y-70517142D01*
X147606666Y-70421904D01*
X147559047Y-70231428D01*
X147559047Y-69993333D01*
X147606666Y-69802857D01*
X147654285Y-69707619D01*
X147701904Y-69660000D01*
X147797142Y-69612380D01*
X149082857Y-70612380D02*
X148511428Y-70612380D01*
X148797142Y-70612380D02*
X148797142Y-69612380D01*
X148701904Y-69755238D01*
X148606666Y-69850476D01*
X148511428Y-69898095D01*
X149416190Y-70612380D02*
X149940000Y-69945714D01*
X149416190Y-69945714D02*
X149940000Y-70612380D01*
X150511428Y-69612380D02*
X150606666Y-69612380D01*
X150701904Y-69660000D01*
X150749523Y-69707619D01*
X150797142Y-69802857D01*
X150844761Y-69993333D01*
X150844761Y-70231428D01*
X150797142Y-70421904D01*
X150749523Y-70517142D01*
X150701904Y-70564761D01*
X150606666Y-70612380D01*
X150511428Y-70612380D01*
X150416190Y-70564761D01*
X150368571Y-70517142D01*
X150320952Y-70421904D01*
X150273333Y-70231428D01*
X150273333Y-69993333D01*
X150320952Y-69802857D01*
X150368571Y-69707619D01*
X150416190Y-69660000D01*
X150511428Y-69612380D01*
X151701904Y-69945714D02*
X151701904Y-70612380D01*
X151463809Y-69564761D02*
X151225714Y-70279047D01*
X151844761Y-70279047D01*
X168559047Y-66612380D02*
X168892380Y-67612380D01*
X169225714Y-66612380D01*
X169749523Y-66612380D02*
X169940000Y-66612380D01*
X170035238Y-66660000D01*
X170130476Y-66755238D01*
X170178095Y-66945714D01*
X170178095Y-67279047D01*
X170130476Y-67469523D01*
X170035238Y-67564761D01*
X169940000Y-67612380D01*
X169749523Y-67612380D01*
X169654285Y-67564761D01*
X169559047Y-67469523D01*
X169511428Y-67279047D01*
X169511428Y-66945714D01*
X169559047Y-66755238D01*
X169654285Y-66660000D01*
X169749523Y-66612380D01*
X170606666Y-66612380D02*
X170606666Y-67421904D01*
X170654285Y-67517142D01*
X170701904Y-67564761D01*
X170797142Y-67612380D01*
X170987619Y-67612380D01*
X171082857Y-67564761D01*
X171130476Y-67517142D01*
X171178095Y-67421904D01*
X171178095Y-66612380D01*
X171511428Y-66612380D02*
X172082857Y-66612380D01*
X171797142Y-67612380D02*
X171797142Y-66612380D01*
X172416190Y-67231428D02*
X173178095Y-67231428D01*
X168559047Y-73612380D02*
X168892380Y-74612380D01*
X169225714Y-73612380D01*
X169749523Y-73612380D02*
X169940000Y-73612380D01*
X170035238Y-73660000D01*
X170130476Y-73755238D01*
X170178095Y-73945714D01*
X170178095Y-74279047D01*
X170130476Y-74469523D01*
X170035238Y-74564761D01*
X169940000Y-74612380D01*
X169749523Y-74612380D01*
X169654285Y-74564761D01*
X169559047Y-74469523D01*
X169511428Y-74279047D01*
X169511428Y-73945714D01*
X169559047Y-73755238D01*
X169654285Y-73660000D01*
X169749523Y-73612380D01*
X170606666Y-73612380D02*
X170606666Y-74421904D01*
X170654285Y-74517142D01*
X170701904Y-74564761D01*
X170797142Y-74612380D01*
X170987619Y-74612380D01*
X171082857Y-74564761D01*
X171130476Y-74517142D01*
X171178095Y-74421904D01*
X171178095Y-73612380D01*
X171511428Y-73612380D02*
X172082857Y-73612380D01*
X171797142Y-74612380D02*
X171797142Y-73612380D01*
X172416190Y-74231428D02*
X173178095Y-74231428D01*
X172797142Y-74612380D02*
X172797142Y-73850476D01*
X128225714Y-80112380D02*
X128559047Y-81112380D01*
X128892380Y-80112380D01*
X129225714Y-81112380D02*
X129225714Y-80112380D01*
X129701904Y-81112380D02*
X129701904Y-80112380D01*
X130273333Y-81112380D01*
X130273333Y-80112380D01*
X130749523Y-80731428D02*
X131511428Y-80731428D01*
X131130476Y-81112380D02*
X131130476Y-80350476D01*
X130725714Y-60112380D02*
X131059047Y-61112380D01*
X131392380Y-60112380D01*
X131725714Y-61112380D02*
X131725714Y-60112380D01*
X132201904Y-61112380D02*
X132201904Y-60112380D01*
X132773333Y-61112380D01*
X132773333Y-60112380D01*
X133249523Y-60731428D02*
X134011428Y-60731428D01*
X168606666Y-96812380D02*
X168606666Y-97526666D01*
X168559047Y-97669523D01*
X168463809Y-97764761D01*
X168320952Y-97812380D01*
X168225714Y-97812380D01*
X169082857Y-97812380D02*
X169082857Y-96812380D01*
X169463809Y-96812380D01*
X169559047Y-96860000D01*
X169606666Y-96907619D01*
X169654285Y-97002857D01*
X169654285Y-97145714D01*
X169606666Y-97240952D01*
X169559047Y-97288571D01*
X169463809Y-97336190D01*
X169082857Y-97336190D01*
X170606666Y-97812380D02*
X170035238Y-97812380D01*
X170320952Y-97812380D02*
X170320952Y-96812380D01*
X170225714Y-96955238D01*
X170130476Y-97050476D01*
X170035238Y-97098095D01*
X171706666Y-98612380D02*
X172325714Y-98612380D01*
X171992380Y-98993333D01*
X172135238Y-98993333D01*
X172230476Y-99040952D01*
X172278095Y-99088571D01*
X172325714Y-99183809D01*
X172325714Y-99421904D01*
X172278095Y-99517142D01*
X172230476Y-99564761D01*
X172135238Y-99612380D01*
X171849523Y-99612380D01*
X171754285Y-99564761D01*
X171706666Y-99517142D01*
X167125714Y-99612380D02*
X166554285Y-99612380D01*
X166840000Y-99612380D02*
X166840000Y-98612380D01*
X166744761Y-98755238D01*
X166649523Y-98850476D01*
X166554285Y-98898095D01*
%LPC*%
D19*
X126137056Y-57962944D03*
X124440000Y-57260000D03*
X122742944Y-57962944D03*
X122040000Y-59660000D03*
X122742944Y-61357056D03*
X124440000Y-62060000D03*
X126137056Y-61357056D03*
X126840000Y-59660000D03*
D20*
X124440000Y-59660000D03*
X170440000Y-59660000D03*
D19*
X172840000Y-59660000D03*
X172137056Y-61357056D03*
X170440000Y-62060000D03*
X168742944Y-61357056D03*
X168040000Y-59660000D03*
X168742944Y-57962944D03*
X170440000Y-57260000D03*
X172137056Y-57962944D03*
X126137056Y-131962944D03*
X124440000Y-131260000D03*
X122742944Y-131962944D03*
X122040000Y-133660000D03*
X122742944Y-135357056D03*
X124440000Y-136060000D03*
X126137056Y-135357056D03*
X126840000Y-133660000D03*
D20*
X124440000Y-133660000D03*
X170440000Y-133660000D03*
D19*
X172840000Y-133660000D03*
X172137056Y-135357056D03*
X170440000Y-136060000D03*
X168742944Y-135357056D03*
X168040000Y-133660000D03*
X168742944Y-131962944D03*
X170440000Y-131260000D03*
X172137056Y-131962944D03*
D21*
X138940000Y-59660000D03*
D22*
X141480000Y-59660000D03*
X144020000Y-59660000D03*
X146560000Y-59660000D03*
X149100000Y-59660000D03*
X151640000Y-59660000D03*
X154180000Y-59660000D03*
X156720000Y-59660000D03*
D21*
X124440000Y-69660000D03*
D22*
X124440000Y-72200000D03*
X124440000Y-74740000D03*
X124440000Y-77280000D03*
X124440000Y-79820000D03*
X124440000Y-82360000D03*
X124440000Y-84900000D03*
X124440000Y-87440000D03*
D23*
X150210000Y-83140000D03*
X136620000Y-83140000D03*
D24*
X143580000Y-109300000D03*
D25*
X167440000Y-95160000D03*
D26*
X167440000Y-82460000D03*
D27*
X162970000Y-67220000D03*
X162970000Y-74100000D03*
X131910000Y-74100000D03*
X131910000Y-67220000D03*
D28*
X168140000Y-99160000D03*
D29*
G36*
X168699950Y-98359980D02*
X168709517Y-98362882D01*
X168718334Y-98367595D01*
X168726062Y-98373938D01*
X168732405Y-98381666D01*
X168737118Y-98390483D01*
X168740020Y-98400050D01*
X168741000Y-98410000D01*
X168741000Y-98509000D01*
X169040000Y-98509000D01*
X169049950Y-98509980D01*
X169059517Y-98512882D01*
X169068334Y-98517595D01*
X169076062Y-98523938D01*
X169082405Y-98531666D01*
X169087118Y-98540483D01*
X169090020Y-98550050D01*
X169091000Y-98560000D01*
X169091000Y-98960000D01*
X169090020Y-98969950D01*
X169087118Y-98979517D01*
X169082405Y-98988334D01*
X169076062Y-98996062D01*
X169068334Y-99002405D01*
X169059517Y-99007118D01*
X169049950Y-99010020D01*
X169040000Y-99011000D01*
X168741000Y-99011000D01*
X168741000Y-99309000D01*
X169040000Y-99309000D01*
X169049950Y-99309980D01*
X169059517Y-99312882D01*
X169068334Y-99317595D01*
X169076062Y-99323938D01*
X169082405Y-99331666D01*
X169087118Y-99340483D01*
X169090020Y-99350050D01*
X169091000Y-99360000D01*
X169091000Y-99760000D01*
X169090020Y-99769950D01*
X169087118Y-99779517D01*
X169082405Y-99788334D01*
X169076062Y-99796062D01*
X169068334Y-99802405D01*
X169059517Y-99807118D01*
X169049950Y-99810020D01*
X169040000Y-99811000D01*
X168741000Y-99811000D01*
X168741000Y-99910000D01*
X168740020Y-99919950D01*
X168737118Y-99929517D01*
X168732405Y-99938334D01*
X168726062Y-99946062D01*
X168718334Y-99952405D01*
X168709517Y-99957118D01*
X168699950Y-99960020D01*
X168690000Y-99961000D01*
X168140000Y-99961000D01*
X168133888Y-99960398D01*
X168115466Y-99960398D01*
X168110467Y-99960152D01*
X168061636Y-99955342D01*
X168056686Y-99954608D01*
X168008561Y-99945036D01*
X168003705Y-99943820D01*
X167956750Y-99929576D01*
X167952039Y-99927890D01*
X167906706Y-99909113D01*
X167902180Y-99906973D01*
X167858907Y-99883842D01*
X167854616Y-99881269D01*
X167813817Y-99854009D01*
X167809796Y-99851027D01*
X167771867Y-99819899D01*
X167768159Y-99816538D01*
X167733462Y-99781841D01*
X167730101Y-99778133D01*
X167698973Y-99740204D01*
X167695991Y-99736183D01*
X167668731Y-99695384D01*
X167666158Y-99691093D01*
X167643027Y-99647820D01*
X167640887Y-99643294D01*
X167622110Y-99597961D01*
X167620424Y-99593250D01*
X167606180Y-99546295D01*
X167604964Y-99541439D01*
X167595392Y-99493314D01*
X167594658Y-99488364D01*
X167589848Y-99439533D01*
X167589602Y-99434534D01*
X167589602Y-99416112D01*
X167589000Y-99410000D01*
X167589000Y-98910000D01*
X167589602Y-98903888D01*
X167589602Y-98885466D01*
X167589848Y-98880467D01*
X167594658Y-98831636D01*
X167595392Y-98826686D01*
X167604964Y-98778561D01*
X167606180Y-98773705D01*
X167620424Y-98726750D01*
X167622110Y-98722039D01*
X167640887Y-98676706D01*
X167643027Y-98672180D01*
X167666158Y-98628907D01*
X167668731Y-98624616D01*
X167695991Y-98583817D01*
X167698973Y-98579796D01*
X167730101Y-98541867D01*
X167733462Y-98538159D01*
X167768159Y-98503462D01*
X167771867Y-98500101D01*
X167809796Y-98468973D01*
X167813817Y-98465991D01*
X167854616Y-98438731D01*
X167858907Y-98436158D01*
X167902180Y-98413027D01*
X167906706Y-98410887D01*
X167952039Y-98392110D01*
X167956750Y-98390424D01*
X168003705Y-98376180D01*
X168008561Y-98374964D01*
X168056686Y-98365392D01*
X168061636Y-98364658D01*
X168110467Y-98359848D01*
X168115466Y-98359602D01*
X168133888Y-98359602D01*
X168140000Y-98359000D01*
X168690000Y-98359000D01*
X168699950Y-98359980D01*
X168699950Y-98359980D01*
G37*
D28*
X170740000Y-99160000D03*
D29*
G36*
X170746112Y-98359602D02*
X170764534Y-98359602D01*
X170769533Y-98359848D01*
X170818364Y-98364658D01*
X170823314Y-98365392D01*
X170871439Y-98374964D01*
X170876295Y-98376180D01*
X170923250Y-98390424D01*
X170927961Y-98392110D01*
X170973294Y-98410887D01*
X170977820Y-98413027D01*
X171021093Y-98436158D01*
X171025384Y-98438731D01*
X171066183Y-98465991D01*
X171070204Y-98468973D01*
X171108133Y-98500101D01*
X171111841Y-98503462D01*
X171146538Y-98538159D01*
X171149899Y-98541867D01*
X171181027Y-98579796D01*
X171184009Y-98583817D01*
X171211269Y-98624616D01*
X171213842Y-98628907D01*
X171236973Y-98672180D01*
X171239113Y-98676706D01*
X171257890Y-98722039D01*
X171259576Y-98726750D01*
X171273820Y-98773705D01*
X171275036Y-98778561D01*
X171284608Y-98826686D01*
X171285342Y-98831636D01*
X171290152Y-98880467D01*
X171290398Y-98885466D01*
X171290398Y-98903888D01*
X171291000Y-98910000D01*
X171291000Y-99410000D01*
X171290398Y-99416112D01*
X171290398Y-99434534D01*
X171290152Y-99439533D01*
X171285342Y-99488364D01*
X171284608Y-99493314D01*
X171275036Y-99541439D01*
X171273820Y-99546295D01*
X171259576Y-99593250D01*
X171257890Y-99597961D01*
X171239113Y-99643294D01*
X171236973Y-99647820D01*
X171213842Y-99691093D01*
X171211269Y-99695384D01*
X171184009Y-99736183D01*
X171181027Y-99740204D01*
X171149899Y-99778133D01*
X171146538Y-99781841D01*
X171111841Y-99816538D01*
X171108133Y-99819899D01*
X171070204Y-99851027D01*
X171066183Y-99854009D01*
X171025384Y-99881269D01*
X171021093Y-99883842D01*
X170977820Y-99906973D01*
X170973294Y-99909113D01*
X170927961Y-99927890D01*
X170923250Y-99929576D01*
X170876295Y-99943820D01*
X170871439Y-99945036D01*
X170823314Y-99954608D01*
X170818364Y-99955342D01*
X170769533Y-99960152D01*
X170764534Y-99960398D01*
X170746112Y-99960398D01*
X170740000Y-99961000D01*
X170190000Y-99961000D01*
X170180050Y-99960020D01*
X170170483Y-99957118D01*
X170161666Y-99952405D01*
X170153938Y-99946062D01*
X170147595Y-99938334D01*
X170142882Y-99929517D01*
X170139980Y-99919950D01*
X170139000Y-99910000D01*
X170139000Y-98410000D01*
X170139980Y-98400050D01*
X170142882Y-98390483D01*
X170147595Y-98381666D01*
X170153938Y-98373938D01*
X170161666Y-98367595D01*
X170170483Y-98362882D01*
X170180050Y-98359980D01*
X170190000Y-98359000D01*
X170740000Y-98359000D01*
X170746112Y-98359602D01*
X170746112Y-98359602D01*
G37*
D30*
X169440000Y-99160000D03*
M02*
