%FSLAX45Y45*%
G04 Gerber Fmt 4.5, Leading zero omitted, Abs format (unit mm)*
G04 Created by KiCad (PCBNEW 5.0.2+dfsg1-1) date Sun 10 Apr 2022 03:47:13 AM PDT*
%MOMM*%
%LPD*%
G01*
G04 APERTURE LIST*
%ADD10C,0.500000*%
%ADD11C,0.150000*%
%ADD12C,0.200000*%
%ADD13C,0.300000*%
G04 APERTURE END LIST*
D10*
X14539278Y-10931000D02*
G75*
G03X14539278Y-10931000I-180278J0D01*
G01*
D11*
X12444000Y-5466000D02*
X17044000Y-5466000D01*
X12444000Y-13866000D02*
X17044000Y-13866000D01*
X17544000Y-13366000D02*
X17544000Y-5966000D01*
X11944000Y-5966000D02*
X11944000Y-13366000D01*
X17044000Y-5466000D02*
G75*
G02X17544000Y-5966000I0J-500000D01*
G01*
X17544000Y-13366000D02*
G75*
G02X17044000Y-13866000I-500000J0D01*
G01*
X12444000Y-13866000D02*
G75*
G02X11944000Y-13366000I0J500000D01*
G01*
X11944000Y-5966000D02*
G75*
G02X12444000Y-5466000I500000J0D01*
G01*
D12*
X15450000Y-9521000D02*
X15490000Y-9561000D01*
X15490000Y-9521000D02*
X15450000Y-9561000D01*
X16829000Y-13366000D02*
G75*
G03X16829000Y-13366000I-25000J0D01*
G01*
X16899294Y-13196294D02*
G75*
G03X16899294Y-13196294I-25000J0D01*
G01*
X16899294Y-13535706D02*
G75*
G03X16899294Y-13535706I-25000J0D01*
G01*
X17069000Y-13126000D02*
G75*
G03X17069000Y-13126000I-25000J0D01*
G01*
X17069000Y-13606000D02*
G75*
G03X17069000Y-13606000I-25000J0D01*
G01*
X17238706Y-13196294D02*
G75*
G03X17238706Y-13196294I-25000J0D01*
G01*
X17238706Y-13535706D02*
G75*
G03X17238706Y-13535706I-25000J0D01*
G01*
X17309000Y-13366000D02*
G75*
G03X17309000Y-13366000I-25000J0D01*
G01*
X16829000Y-5966000D02*
G75*
G03X16829000Y-5966000I-25000J0D01*
G01*
X16899294Y-5796294D02*
G75*
G03X16899294Y-5796294I-25000J0D01*
G01*
X16899294Y-6135706D02*
G75*
G03X16899294Y-6135706I-25000J0D01*
G01*
X17069000Y-5726000D02*
G75*
G03X17069000Y-5726000I-25000J0D01*
G01*
X17069000Y-6206000D02*
G75*
G03X17069000Y-6206000I-25000J0D01*
G01*
X17238706Y-5796294D02*
G75*
G03X17238706Y-5796294I-25000J0D01*
G01*
X17238706Y-6135706D02*
G75*
G03X17238706Y-6135706I-25000J0D01*
G01*
X17309000Y-5966000D02*
G75*
G03X17309000Y-5966000I-25000J0D01*
G01*
X12229000Y-5966000D02*
G75*
G03X12229000Y-5966000I-25000J0D01*
G01*
X12299294Y-5796294D02*
G75*
G03X12299294Y-5796294I-25000J0D01*
G01*
X12299294Y-6135706D02*
G75*
G03X12299294Y-6135706I-25000J0D01*
G01*
X12469000Y-5726000D02*
G75*
G03X12469000Y-5726000I-25000J0D01*
G01*
X12469000Y-6206000D02*
G75*
G03X12469000Y-6206000I-25000J0D01*
G01*
X12638706Y-5796294D02*
G75*
G03X12638706Y-5796294I-25000J0D01*
G01*
X12638706Y-6135706D02*
G75*
G03X12638706Y-6135706I-25000J0D01*
G01*
X12709000Y-5966000D02*
G75*
G03X12709000Y-5966000I-25000J0D01*
G01*
X12229000Y-13366000D02*
G75*
G03X12229000Y-13366000I-25000J0D01*
G01*
X12299294Y-13196294D02*
G75*
G03X12299294Y-13196294I-25000J0D01*
G01*
X12299294Y-13535706D02*
G75*
G03X12299294Y-13535706I-25000J0D01*
G01*
X12469000Y-13126000D02*
G75*
G03X12469000Y-13126000I-25000J0D01*
G01*
X12469000Y-13606000D02*
G75*
G03X12469000Y-13606000I-25000J0D01*
G01*
X12638706Y-13196294D02*
G75*
G03X12638706Y-13196294I-25000J0D01*
G01*
X12638706Y-13535706D02*
G75*
G03X12638706Y-13535706I-25000J0D01*
G01*
X12709000Y-13366000D02*
G75*
G03X12709000Y-13366000I-25000J0D01*
G01*
X16744000Y-8201000D02*
X16744000Y-8291000D01*
X16699000Y-8246000D02*
X16789000Y-8246000D01*
X16744000Y-9471000D02*
X16744000Y-9561000D01*
X16699000Y-9516000D02*
X16789000Y-9516000D01*
X13929356Y-6001356D02*
X13929356Y-5930644D01*
X13858644Y-5930644D01*
X13858644Y-6001356D01*
X13929356Y-6001356D01*
X14183356Y-6001356D02*
X14183356Y-5930644D01*
X14112644Y-5930644D01*
X14112644Y-6001356D01*
X14183356Y-6001356D01*
X14437356Y-6001356D02*
X14437356Y-5930644D01*
X14366644Y-5930644D01*
X14366644Y-6001356D01*
X14437356Y-6001356D01*
X14691356Y-6001356D02*
X14691356Y-5930644D01*
X14620644Y-5930644D01*
X14620644Y-6001356D01*
X14691356Y-6001356D01*
X14945356Y-6001356D02*
X14945356Y-5930644D01*
X14874644Y-5930644D01*
X14874644Y-6001356D01*
X14945356Y-6001356D01*
X15199356Y-6001356D02*
X15199356Y-5930644D01*
X15128644Y-5930644D01*
X15128644Y-6001356D01*
X15199356Y-6001356D01*
X15453356Y-6001356D02*
X15453356Y-5930644D01*
X15382644Y-5930644D01*
X15382644Y-6001356D01*
X15453356Y-6001356D01*
X15707356Y-6001356D02*
X15707356Y-5930644D01*
X15636644Y-5930644D01*
X15636644Y-6001356D01*
X15707356Y-6001356D01*
X12479356Y-7001356D02*
X12479356Y-6930644D01*
X12408644Y-6930644D01*
X12408644Y-7001356D01*
X12479356Y-7001356D01*
X12479356Y-7255356D02*
X12479356Y-7184644D01*
X12408644Y-7184644D01*
X12408644Y-7255356D01*
X12479356Y-7255356D01*
X12479356Y-7509356D02*
X12479356Y-7438644D01*
X12408644Y-7438644D01*
X12408644Y-7509356D01*
X12479356Y-7509356D01*
X12479356Y-7763356D02*
X12479356Y-7692644D01*
X12408644Y-7692644D01*
X12408644Y-7763356D01*
X12479356Y-7763356D01*
X12479356Y-8017356D02*
X12479356Y-7946644D01*
X12408644Y-7946644D01*
X12408644Y-8017356D01*
X12479356Y-8017356D01*
X12479356Y-8271356D02*
X12479356Y-8200644D01*
X12408644Y-8200644D01*
X12408644Y-8271356D01*
X12479356Y-8271356D01*
X12479356Y-8525356D02*
X12479356Y-8454644D01*
X12408644Y-8454644D01*
X12408644Y-8525356D01*
X12479356Y-8525356D01*
X12479356Y-8779356D02*
X12479356Y-8708644D01*
X12408644Y-8708644D01*
X12408644Y-8779356D01*
X12479356Y-8779356D01*
X13662000Y-8372500D02*
X13720500Y-8314000D01*
X13662000Y-8255500D01*
X13603500Y-8314000D01*
X13662000Y-8372500D01*
X15021000Y-8372500D02*
X15079500Y-8314000D01*
X15021000Y-8255500D01*
X14962500Y-8314000D01*
X15021000Y-8372500D01*
X13116000Y-6647000D02*
X13266000Y-6797000D01*
X13266000Y-6647000D02*
X13116000Y-6797000D01*
X13266000Y-6722000D02*
G75*
G03X13266000Y-6722000I-75000J0D01*
G01*
X13116000Y-7335000D02*
X13266000Y-7485000D01*
X13266000Y-7335000D02*
X13116000Y-7485000D01*
X13266000Y-7410000D02*
G75*
G03X13266000Y-7410000I-75000J0D01*
G01*
X16222000Y-6647000D02*
X16372000Y-6797000D01*
X16372000Y-6647000D02*
X16222000Y-6797000D01*
X16372000Y-6722000D02*
G75*
G03X16372000Y-6722000I-75000J0D01*
G01*
X16222000Y-7335000D02*
X16372000Y-7485000D01*
X16372000Y-7335000D02*
X16222000Y-7485000D01*
X16372000Y-7410000D02*
G75*
G03X16372000Y-7410000I-75000J0D01*
G01*
X12284000Y-13206000D02*
X12604000Y-13526000D01*
X12604000Y-13206000D02*
X12284000Y-13526000D01*
X12444000Y-13206000D02*
X12444000Y-13526000D01*
X12284000Y-13366000D02*
X12604000Y-13366000D01*
X16884000Y-13206000D02*
X17204000Y-13526000D01*
X17204000Y-13206000D02*
X16884000Y-13526000D01*
X17044000Y-13206000D02*
X17044000Y-13526000D01*
X16884000Y-13366000D02*
X17204000Y-13366000D01*
X16884000Y-5806000D02*
X17204000Y-6126000D01*
X17204000Y-5806000D02*
X16884000Y-6126000D01*
X17044000Y-5806000D02*
X17044000Y-6126000D01*
X16884000Y-5966000D02*
X17204000Y-5966000D01*
X12284000Y-5806000D02*
X12604000Y-6126000D01*
X12604000Y-5806000D02*
X12284000Y-6126000D01*
X12444000Y-5806000D02*
X12444000Y-6126000D01*
X12284000Y-5966000D02*
X12604000Y-5966000D01*
D13*
X12222928Y-14339214D02*
X12222928Y-14039214D01*
X12294357Y-14039214D01*
X12337214Y-14053500D01*
X12365786Y-14082071D01*
X12380071Y-14110643D01*
X12394357Y-14167786D01*
X12394357Y-14210643D01*
X12380071Y-14267786D01*
X12365786Y-14296357D01*
X12337214Y-14324929D01*
X12294357Y-14339214D01*
X12222928Y-14339214D01*
X12522928Y-14339214D02*
X12522928Y-14139214D01*
X12522928Y-14196357D02*
X12537214Y-14167786D01*
X12551500Y-14153500D01*
X12580071Y-14139214D01*
X12608643Y-14139214D01*
X12708643Y-14339214D02*
X12708643Y-14139214D01*
X12708643Y-14039214D02*
X12694357Y-14053500D01*
X12708643Y-14067786D01*
X12722928Y-14053500D01*
X12708643Y-14039214D01*
X12708643Y-14067786D01*
X12894357Y-14339214D02*
X12865786Y-14324929D01*
X12851500Y-14296357D01*
X12851500Y-14039214D01*
X13051500Y-14339214D02*
X13022928Y-14324929D01*
X13008643Y-14296357D01*
X13008643Y-14039214D01*
X13394357Y-14339214D02*
X13394357Y-14039214D01*
X13494357Y-14253500D01*
X13594357Y-14039214D01*
X13594357Y-14339214D01*
X13865786Y-14339214D02*
X13865786Y-14182071D01*
X13851500Y-14153500D01*
X13822928Y-14139214D01*
X13765786Y-14139214D01*
X13737214Y-14153500D01*
X13865786Y-14324929D02*
X13837214Y-14339214D01*
X13765786Y-14339214D01*
X13737214Y-14324929D01*
X13722928Y-14296357D01*
X13722928Y-14267786D01*
X13737214Y-14239214D01*
X13765786Y-14224929D01*
X13837214Y-14224929D01*
X13865786Y-14210643D01*
X14008643Y-14139214D02*
X14008643Y-14439214D01*
X14008643Y-14153500D02*
X14037214Y-14139214D01*
X14094357Y-14139214D01*
X14122928Y-14153500D01*
X14137214Y-14167786D01*
X14151500Y-14196357D01*
X14151500Y-14282071D01*
X14137214Y-14310643D01*
X14122928Y-14324929D01*
X14094357Y-14339214D01*
X14037214Y-14339214D01*
X14008643Y-14324929D01*
X14280071Y-14310643D02*
X14294357Y-14324929D01*
X14280071Y-14339214D01*
X14265786Y-14324929D01*
X14280071Y-14310643D01*
X14280071Y-14339214D01*
X14280071Y-14153500D02*
X14294357Y-14167786D01*
X14280071Y-14182071D01*
X14265786Y-14167786D01*
X14280071Y-14153500D01*
X14280071Y-14182071D01*
X11896500Y-14813500D02*
X11936500Y-14853500D01*
X11936500Y-14813500D02*
X11896500Y-14853500D01*
X12280071Y-14669214D02*
X12308643Y-14669214D01*
X12337214Y-14683500D01*
X12351500Y-14697786D01*
X12365786Y-14726357D01*
X12380071Y-14783500D01*
X12380071Y-14854929D01*
X12365786Y-14912071D01*
X12351500Y-14940643D01*
X12337214Y-14954929D01*
X12308643Y-14969214D01*
X12280071Y-14969214D01*
X12251500Y-14954929D01*
X12237214Y-14940643D01*
X12222928Y-14912071D01*
X12208643Y-14854929D01*
X12208643Y-14783500D01*
X12222928Y-14726357D01*
X12237214Y-14697786D01*
X12251500Y-14683500D01*
X12280071Y-14669214D01*
X12508643Y-14940643D02*
X12522928Y-14954929D01*
X12508643Y-14969214D01*
X12494357Y-14954929D01*
X12508643Y-14940643D01*
X12508643Y-14969214D01*
X12780071Y-14769214D02*
X12780071Y-14969214D01*
X12708643Y-14654929D02*
X12637214Y-14869214D01*
X12822928Y-14869214D01*
X12994357Y-14669214D02*
X13022928Y-14669214D01*
X13051500Y-14683500D01*
X13065786Y-14697786D01*
X13080071Y-14726357D01*
X13094357Y-14783500D01*
X13094357Y-14854929D01*
X13080071Y-14912071D01*
X13065786Y-14940643D01*
X13051500Y-14954929D01*
X13022928Y-14969214D01*
X12994357Y-14969214D01*
X12965786Y-14954929D01*
X12951500Y-14940643D01*
X12937214Y-14912071D01*
X12922928Y-14854929D01*
X12922928Y-14783500D01*
X12937214Y-14726357D01*
X12951500Y-14697786D01*
X12965786Y-14683500D01*
X12994357Y-14669214D01*
X13222928Y-14969214D02*
X13222928Y-14769214D01*
X13222928Y-14797786D02*
X13237214Y-14783500D01*
X13265786Y-14769214D01*
X13308643Y-14769214D01*
X13337214Y-14783500D01*
X13351500Y-14812071D01*
X13351500Y-14969214D01*
X13351500Y-14812071D02*
X13365786Y-14783500D01*
X13394357Y-14769214D01*
X13437214Y-14769214D01*
X13465786Y-14783500D01*
X13480071Y-14812071D01*
X13480071Y-14969214D01*
X13622928Y-14969214D02*
X13622928Y-14769214D01*
X13622928Y-14797786D02*
X13637214Y-14783500D01*
X13665786Y-14769214D01*
X13708643Y-14769214D01*
X13737214Y-14783500D01*
X13751500Y-14812071D01*
X13751500Y-14969214D01*
X13751500Y-14812071D02*
X13765786Y-14783500D01*
X13794357Y-14769214D01*
X13837214Y-14769214D01*
X13865786Y-14783500D01*
X13880071Y-14812071D01*
X13880071Y-14969214D01*
X14465786Y-14654929D02*
X14208643Y-15040643D01*
X14851500Y-14669214D02*
X14880071Y-14669214D01*
X14908643Y-14683500D01*
X14922928Y-14697786D01*
X14937214Y-14726357D01*
X14951500Y-14783500D01*
X14951500Y-14854929D01*
X14937214Y-14912071D01*
X14922928Y-14940643D01*
X14908643Y-14954929D01*
X14880071Y-14969214D01*
X14851500Y-14969214D01*
X14822928Y-14954929D01*
X14808643Y-14940643D01*
X14794357Y-14912071D01*
X14780071Y-14854929D01*
X14780071Y-14783500D01*
X14794357Y-14726357D01*
X14808643Y-14697786D01*
X14822928Y-14683500D01*
X14851500Y-14669214D01*
X15080071Y-14940643D02*
X15094357Y-14954929D01*
X15080071Y-14969214D01*
X15065786Y-14954929D01*
X15080071Y-14940643D01*
X15080071Y-14969214D01*
X15280071Y-14669214D02*
X15308643Y-14669214D01*
X15337214Y-14683500D01*
X15351500Y-14697786D01*
X15365786Y-14726357D01*
X15380071Y-14783500D01*
X15380071Y-14854929D01*
X15365786Y-14912071D01*
X15351500Y-14940643D01*
X15337214Y-14954929D01*
X15308643Y-14969214D01*
X15280071Y-14969214D01*
X15251500Y-14954929D01*
X15237214Y-14940643D01*
X15222928Y-14912071D01*
X15208643Y-14854929D01*
X15208643Y-14783500D01*
X15222928Y-14726357D01*
X15237214Y-14697786D01*
X15251500Y-14683500D01*
X15280071Y-14669214D01*
X15665786Y-14969214D02*
X15494357Y-14969214D01*
X15580071Y-14969214D02*
X15580071Y-14669214D01*
X15551500Y-14712071D01*
X15522928Y-14740643D01*
X15494357Y-14754929D01*
X15922928Y-14669214D02*
X15865786Y-14669214D01*
X15837214Y-14683500D01*
X15822928Y-14697786D01*
X15794357Y-14740643D01*
X15780071Y-14797786D01*
X15780071Y-14912071D01*
X15794357Y-14940643D01*
X15808643Y-14954929D01*
X15837214Y-14969214D01*
X15894357Y-14969214D01*
X15922928Y-14954929D01*
X15937214Y-14940643D01*
X15951500Y-14912071D01*
X15951500Y-14840643D01*
X15937214Y-14812071D01*
X15922928Y-14797786D01*
X15894357Y-14783500D01*
X15837214Y-14783500D01*
X15808643Y-14797786D01*
X15794357Y-14812071D01*
X15780071Y-14840643D01*
X16065786Y-14669214D02*
X16065786Y-14726357D01*
X16180071Y-14669214D02*
X16180071Y-14726357D01*
X16622928Y-15083500D02*
X16608643Y-15069214D01*
X16580071Y-15026357D01*
X16565786Y-14997786D01*
X16551500Y-14954929D01*
X16537214Y-14883500D01*
X16537214Y-14826357D01*
X16551500Y-14754929D01*
X16565786Y-14712071D01*
X16580071Y-14683500D01*
X16608643Y-14640643D01*
X16622928Y-14626357D01*
X16894357Y-14969214D02*
X16722928Y-14969214D01*
X16808643Y-14969214D02*
X16808643Y-14669214D01*
X16780071Y-14712071D01*
X16751500Y-14740643D01*
X16722928Y-14754929D01*
X17251500Y-14969214D02*
X17251500Y-14669214D01*
X17380071Y-14969214D02*
X17380071Y-14812071D01*
X17365786Y-14783500D01*
X17337214Y-14769214D01*
X17294357Y-14769214D01*
X17265786Y-14783500D01*
X17251500Y-14797786D01*
X17565786Y-14969214D02*
X17537214Y-14954929D01*
X17522928Y-14940643D01*
X17508643Y-14912071D01*
X17508643Y-14826357D01*
X17522928Y-14797786D01*
X17537214Y-14783500D01*
X17565786Y-14769214D01*
X17608643Y-14769214D01*
X17637214Y-14783500D01*
X17651500Y-14797786D01*
X17665786Y-14826357D01*
X17665786Y-14912071D01*
X17651500Y-14940643D01*
X17637214Y-14954929D01*
X17608643Y-14969214D01*
X17565786Y-14969214D01*
X17837214Y-14969214D02*
X17808643Y-14954929D01*
X17794357Y-14926357D01*
X17794357Y-14669214D01*
X18065786Y-14954929D02*
X18037214Y-14969214D01*
X17980071Y-14969214D01*
X17951500Y-14954929D01*
X17937214Y-14926357D01*
X17937214Y-14812071D01*
X17951500Y-14783500D01*
X17980071Y-14769214D01*
X18037214Y-14769214D01*
X18065786Y-14783500D01*
X18080071Y-14812071D01*
X18080071Y-14840643D01*
X17937214Y-14869214D01*
X18180071Y-15083500D02*
X18194357Y-15069214D01*
X18222928Y-15026357D01*
X18237214Y-14997786D01*
X18251500Y-14954929D01*
X18265786Y-14883500D01*
X18265786Y-14826357D01*
X18251500Y-14754929D01*
X18237214Y-14712071D01*
X18222928Y-14683500D01*
X18194357Y-14640643D01*
X18180071Y-14626357D01*
X11936500Y-15229500D02*
G75*
G03X11936500Y-15229500I-25000J0D01*
G01*
X12280071Y-15065214D02*
X12308643Y-15065214D01*
X12337214Y-15079500D01*
X12351500Y-15093786D01*
X12365786Y-15122357D01*
X12380071Y-15179500D01*
X12380071Y-15250929D01*
X12365786Y-15308071D01*
X12351500Y-15336643D01*
X12337214Y-15350929D01*
X12308643Y-15365214D01*
X12280071Y-15365214D01*
X12251500Y-15350929D01*
X12237214Y-15336643D01*
X12222928Y-15308071D01*
X12208643Y-15250929D01*
X12208643Y-15179500D01*
X12222928Y-15122357D01*
X12237214Y-15093786D01*
X12251500Y-15079500D01*
X12280071Y-15065214D01*
X12508643Y-15336643D02*
X12522928Y-15350929D01*
X12508643Y-15365214D01*
X12494357Y-15350929D01*
X12508643Y-15336643D01*
X12508643Y-15365214D01*
X12794357Y-15065214D02*
X12651500Y-15065214D01*
X12637214Y-15208071D01*
X12651500Y-15193786D01*
X12680071Y-15179500D01*
X12751500Y-15179500D01*
X12780071Y-15193786D01*
X12794357Y-15208071D01*
X12808643Y-15236643D01*
X12808643Y-15308071D01*
X12794357Y-15336643D01*
X12780071Y-15350929D01*
X12751500Y-15365214D01*
X12680071Y-15365214D01*
X12651500Y-15350929D01*
X12637214Y-15336643D01*
X12994357Y-15065214D02*
X13022928Y-15065214D01*
X13051500Y-15079500D01*
X13065786Y-15093786D01*
X13080071Y-15122357D01*
X13094357Y-15179500D01*
X13094357Y-15250929D01*
X13080071Y-15308071D01*
X13065786Y-15336643D01*
X13051500Y-15350929D01*
X13022928Y-15365214D01*
X12994357Y-15365214D01*
X12965786Y-15350929D01*
X12951500Y-15336643D01*
X12937214Y-15308071D01*
X12922928Y-15250929D01*
X12922928Y-15179500D01*
X12937214Y-15122357D01*
X12951500Y-15093786D01*
X12965786Y-15079500D01*
X12994357Y-15065214D01*
X13222928Y-15365214D02*
X13222928Y-15165214D01*
X13222928Y-15193786D02*
X13237214Y-15179500D01*
X13265786Y-15165214D01*
X13308643Y-15165214D01*
X13337214Y-15179500D01*
X13351500Y-15208071D01*
X13351500Y-15365214D01*
X13351500Y-15208071D02*
X13365786Y-15179500D01*
X13394357Y-15165214D01*
X13437214Y-15165214D01*
X13465786Y-15179500D01*
X13480071Y-15208071D01*
X13480071Y-15365214D01*
X13622928Y-15365214D02*
X13622928Y-15165214D01*
X13622928Y-15193786D02*
X13637214Y-15179500D01*
X13665786Y-15165214D01*
X13708643Y-15165214D01*
X13737214Y-15179500D01*
X13751500Y-15208071D01*
X13751500Y-15365214D01*
X13751500Y-15208071D02*
X13765786Y-15179500D01*
X13794357Y-15165214D01*
X13837214Y-15165214D01*
X13865786Y-15179500D01*
X13880071Y-15208071D01*
X13880071Y-15365214D01*
X14465786Y-15050929D02*
X14208643Y-15436643D01*
X14851500Y-15065214D02*
X14880071Y-15065214D01*
X14908643Y-15079500D01*
X14922928Y-15093786D01*
X14937214Y-15122357D01*
X14951500Y-15179500D01*
X14951500Y-15250929D01*
X14937214Y-15308071D01*
X14922928Y-15336643D01*
X14908643Y-15350929D01*
X14880071Y-15365214D01*
X14851500Y-15365214D01*
X14822928Y-15350929D01*
X14808643Y-15336643D01*
X14794357Y-15308071D01*
X14780071Y-15250929D01*
X14780071Y-15179500D01*
X14794357Y-15122357D01*
X14808643Y-15093786D01*
X14822928Y-15079500D01*
X14851500Y-15065214D01*
X15080071Y-15336643D02*
X15094357Y-15350929D01*
X15080071Y-15365214D01*
X15065786Y-15350929D01*
X15080071Y-15336643D01*
X15080071Y-15365214D01*
X15280071Y-15065214D02*
X15308643Y-15065214D01*
X15337214Y-15079500D01*
X15351500Y-15093786D01*
X15365786Y-15122357D01*
X15380071Y-15179500D01*
X15380071Y-15250929D01*
X15365786Y-15308071D01*
X15351500Y-15336643D01*
X15337214Y-15350929D01*
X15308643Y-15365214D01*
X15280071Y-15365214D01*
X15251500Y-15350929D01*
X15237214Y-15336643D01*
X15222928Y-15308071D01*
X15208643Y-15250929D01*
X15208643Y-15179500D01*
X15222928Y-15122357D01*
X15237214Y-15093786D01*
X15251500Y-15079500D01*
X15280071Y-15065214D01*
X15494357Y-15093786D02*
X15508643Y-15079500D01*
X15537214Y-15065214D01*
X15608643Y-15065214D01*
X15637214Y-15079500D01*
X15651500Y-15093786D01*
X15665786Y-15122357D01*
X15665786Y-15150929D01*
X15651500Y-15193786D01*
X15480071Y-15365214D01*
X15665786Y-15365214D01*
X15851500Y-15065214D02*
X15880071Y-15065214D01*
X15908643Y-15079500D01*
X15922928Y-15093786D01*
X15937214Y-15122357D01*
X15951500Y-15179500D01*
X15951500Y-15250929D01*
X15937214Y-15308071D01*
X15922928Y-15336643D01*
X15908643Y-15350929D01*
X15880071Y-15365214D01*
X15851500Y-15365214D01*
X15822928Y-15350929D01*
X15808643Y-15336643D01*
X15794357Y-15308071D01*
X15780071Y-15250929D01*
X15780071Y-15179500D01*
X15794357Y-15122357D01*
X15808643Y-15093786D01*
X15822928Y-15079500D01*
X15851500Y-15065214D01*
X16065786Y-15065214D02*
X16065786Y-15122357D01*
X16180071Y-15065214D02*
X16180071Y-15122357D01*
X16622928Y-15479500D02*
X16608643Y-15465214D01*
X16580071Y-15422357D01*
X16565786Y-15393786D01*
X16551500Y-15350929D01*
X16537214Y-15279500D01*
X16537214Y-15222357D01*
X16551500Y-15150929D01*
X16565786Y-15108071D01*
X16580071Y-15079500D01*
X16608643Y-15036643D01*
X16622928Y-15022357D01*
X16708643Y-15065214D02*
X16894357Y-15065214D01*
X16794357Y-15179500D01*
X16837214Y-15179500D01*
X16865786Y-15193786D01*
X16880071Y-15208071D01*
X16894357Y-15236643D01*
X16894357Y-15308071D01*
X16880071Y-15336643D01*
X16865786Y-15350929D01*
X16837214Y-15365214D01*
X16751500Y-15365214D01*
X16722928Y-15350929D01*
X16708643Y-15336643D01*
X17008643Y-15093786D02*
X17022928Y-15079500D01*
X17051500Y-15065214D01*
X17122928Y-15065214D01*
X17151500Y-15079500D01*
X17165786Y-15093786D01*
X17180071Y-15122357D01*
X17180071Y-15150929D01*
X17165786Y-15193786D01*
X16994357Y-15365214D01*
X17180071Y-15365214D01*
X17537214Y-15365214D02*
X17537214Y-15065214D01*
X17665786Y-15365214D02*
X17665786Y-15208071D01*
X17651500Y-15179500D01*
X17622928Y-15165214D01*
X17580071Y-15165214D01*
X17551500Y-15179500D01*
X17537214Y-15193786D01*
X17851500Y-15365214D02*
X17822928Y-15350929D01*
X17808643Y-15336643D01*
X17794357Y-15308071D01*
X17794357Y-15222357D01*
X17808643Y-15193786D01*
X17822928Y-15179500D01*
X17851500Y-15165214D01*
X17894357Y-15165214D01*
X17922928Y-15179500D01*
X17937214Y-15193786D01*
X17951500Y-15222357D01*
X17951500Y-15308071D01*
X17937214Y-15336643D01*
X17922928Y-15350929D01*
X17894357Y-15365214D01*
X17851500Y-15365214D01*
X18122928Y-15365214D02*
X18094357Y-15350929D01*
X18080071Y-15322357D01*
X18080071Y-15065214D01*
X18351500Y-15350929D02*
X18322928Y-15365214D01*
X18265786Y-15365214D01*
X18237214Y-15350929D01*
X18222928Y-15322357D01*
X18222928Y-15208071D01*
X18237214Y-15179500D01*
X18265786Y-15165214D01*
X18322928Y-15165214D01*
X18351500Y-15179500D01*
X18365786Y-15208071D01*
X18365786Y-15236643D01*
X18222928Y-15265214D01*
X18480071Y-15350929D02*
X18508643Y-15365214D01*
X18565786Y-15365214D01*
X18594357Y-15350929D01*
X18608643Y-15322357D01*
X18608643Y-15308071D01*
X18594357Y-15279500D01*
X18565786Y-15265214D01*
X18522928Y-15265214D01*
X18494357Y-15250929D01*
X18480071Y-15222357D01*
X18480071Y-15208071D01*
X18494357Y-15179500D01*
X18522928Y-15165214D01*
X18565786Y-15165214D01*
X18594357Y-15179500D01*
X18708643Y-15479500D02*
X18722928Y-15465214D01*
X18751500Y-15422357D01*
X18765786Y-15393786D01*
X18780071Y-15350929D01*
X18794357Y-15279500D01*
X18794357Y-15222357D01*
X18780071Y-15150929D01*
X18765786Y-15108071D01*
X18751500Y-15079500D01*
X18722928Y-15036643D01*
X18708643Y-15022357D01*
X11891500Y-15580500D02*
X11891500Y-15670500D01*
X11846500Y-15625500D02*
X11936500Y-15625500D01*
X12280071Y-15461214D02*
X12308643Y-15461214D01*
X12337214Y-15475500D01*
X12351500Y-15489786D01*
X12365786Y-15518357D01*
X12380071Y-15575500D01*
X12380071Y-15646929D01*
X12365786Y-15704071D01*
X12351500Y-15732643D01*
X12337214Y-15746929D01*
X12308643Y-15761214D01*
X12280071Y-15761214D01*
X12251500Y-15746929D01*
X12237214Y-15732643D01*
X12222928Y-15704071D01*
X12208643Y-15646929D01*
X12208643Y-15575500D01*
X12222928Y-15518357D01*
X12237214Y-15489786D01*
X12251500Y-15475500D01*
X12280071Y-15461214D01*
X12508643Y-15732643D02*
X12522928Y-15746929D01*
X12508643Y-15761214D01*
X12494357Y-15746929D01*
X12508643Y-15732643D01*
X12508643Y-15761214D01*
X12665786Y-15761214D02*
X12722928Y-15761214D01*
X12751500Y-15746929D01*
X12765786Y-15732643D01*
X12794357Y-15689786D01*
X12808643Y-15632643D01*
X12808643Y-15518357D01*
X12794357Y-15489786D01*
X12780071Y-15475500D01*
X12751500Y-15461214D01*
X12694357Y-15461214D01*
X12665786Y-15475500D01*
X12651500Y-15489786D01*
X12637214Y-15518357D01*
X12637214Y-15589786D01*
X12651500Y-15618357D01*
X12665786Y-15632643D01*
X12694357Y-15646929D01*
X12751500Y-15646929D01*
X12780071Y-15632643D01*
X12794357Y-15618357D01*
X12808643Y-15589786D01*
X12994357Y-15461214D02*
X13022928Y-15461214D01*
X13051500Y-15475500D01*
X13065786Y-15489786D01*
X13080071Y-15518357D01*
X13094357Y-15575500D01*
X13094357Y-15646929D01*
X13080071Y-15704071D01*
X13065786Y-15732643D01*
X13051500Y-15746929D01*
X13022928Y-15761214D01*
X12994357Y-15761214D01*
X12965786Y-15746929D01*
X12951500Y-15732643D01*
X12937214Y-15704071D01*
X12922928Y-15646929D01*
X12922928Y-15575500D01*
X12937214Y-15518357D01*
X12951500Y-15489786D01*
X12965786Y-15475500D01*
X12994357Y-15461214D01*
X13222928Y-15761214D02*
X13222928Y-15561214D01*
X13222928Y-15589786D02*
X13237214Y-15575500D01*
X13265786Y-15561214D01*
X13308643Y-15561214D01*
X13337214Y-15575500D01*
X13351500Y-15604071D01*
X13351500Y-15761214D01*
X13351500Y-15604071D02*
X13365786Y-15575500D01*
X13394357Y-15561214D01*
X13437214Y-15561214D01*
X13465786Y-15575500D01*
X13480071Y-15604071D01*
X13480071Y-15761214D01*
X13622928Y-15761214D02*
X13622928Y-15561214D01*
X13622928Y-15589786D02*
X13637214Y-15575500D01*
X13665786Y-15561214D01*
X13708643Y-15561214D01*
X13737214Y-15575500D01*
X13751500Y-15604071D01*
X13751500Y-15761214D01*
X13751500Y-15604071D02*
X13765786Y-15575500D01*
X13794357Y-15561214D01*
X13837214Y-15561214D01*
X13865786Y-15575500D01*
X13880071Y-15604071D01*
X13880071Y-15761214D01*
X14465786Y-15446929D02*
X14208643Y-15832643D01*
X14851500Y-15461214D02*
X14880071Y-15461214D01*
X14908643Y-15475500D01*
X14922928Y-15489786D01*
X14937214Y-15518357D01*
X14951500Y-15575500D01*
X14951500Y-15646929D01*
X14937214Y-15704071D01*
X14922928Y-15732643D01*
X14908643Y-15746929D01*
X14880071Y-15761214D01*
X14851500Y-15761214D01*
X14822928Y-15746929D01*
X14808643Y-15732643D01*
X14794357Y-15704071D01*
X14780071Y-15646929D01*
X14780071Y-15575500D01*
X14794357Y-15518357D01*
X14808643Y-15489786D01*
X14822928Y-15475500D01*
X14851500Y-15461214D01*
X15080071Y-15732643D02*
X15094357Y-15746929D01*
X15080071Y-15761214D01*
X15065786Y-15746929D01*
X15080071Y-15732643D01*
X15080071Y-15761214D01*
X15280071Y-15461214D02*
X15308643Y-15461214D01*
X15337214Y-15475500D01*
X15351500Y-15489786D01*
X15365786Y-15518357D01*
X15380071Y-15575500D01*
X15380071Y-15646929D01*
X15365786Y-15704071D01*
X15351500Y-15732643D01*
X15337214Y-15746929D01*
X15308643Y-15761214D01*
X15280071Y-15761214D01*
X15251500Y-15746929D01*
X15237214Y-15732643D01*
X15222928Y-15704071D01*
X15208643Y-15646929D01*
X15208643Y-15575500D01*
X15222928Y-15518357D01*
X15237214Y-15489786D01*
X15251500Y-15475500D01*
X15280071Y-15461214D01*
X15480071Y-15461214D02*
X15665786Y-15461214D01*
X15565786Y-15575500D01*
X15608643Y-15575500D01*
X15637214Y-15589786D01*
X15651500Y-15604071D01*
X15665786Y-15632643D01*
X15665786Y-15704071D01*
X15651500Y-15732643D01*
X15637214Y-15746929D01*
X15608643Y-15761214D01*
X15522928Y-15761214D01*
X15494357Y-15746929D01*
X15480071Y-15732643D01*
X15937214Y-15461214D02*
X15794357Y-15461214D01*
X15780071Y-15604071D01*
X15794357Y-15589786D01*
X15822928Y-15575500D01*
X15894357Y-15575500D01*
X15922928Y-15589786D01*
X15937214Y-15604071D01*
X15951500Y-15632643D01*
X15951500Y-15704071D01*
X15937214Y-15732643D01*
X15922928Y-15746929D01*
X15894357Y-15761214D01*
X15822928Y-15761214D01*
X15794357Y-15746929D01*
X15780071Y-15732643D01*
X16065786Y-15461214D02*
X16065786Y-15518357D01*
X16180071Y-15461214D02*
X16180071Y-15518357D01*
X16622928Y-15875500D02*
X16608643Y-15861214D01*
X16580071Y-15818357D01*
X16565786Y-15789786D01*
X16551500Y-15746929D01*
X16537214Y-15675500D01*
X16537214Y-15618357D01*
X16551500Y-15546929D01*
X16565786Y-15504071D01*
X16580071Y-15475500D01*
X16608643Y-15432643D01*
X16622928Y-15418357D01*
X16722928Y-15489786D02*
X16737214Y-15475500D01*
X16765786Y-15461214D01*
X16837214Y-15461214D01*
X16865786Y-15475500D01*
X16880071Y-15489786D01*
X16894357Y-15518357D01*
X16894357Y-15546929D01*
X16880071Y-15589786D01*
X16708643Y-15761214D01*
X16894357Y-15761214D01*
X17251500Y-15761214D02*
X17251500Y-15461214D01*
X17380071Y-15761214D02*
X17380071Y-15604071D01*
X17365786Y-15575500D01*
X17337214Y-15561214D01*
X17294357Y-15561214D01*
X17265786Y-15575500D01*
X17251500Y-15589786D01*
X17565786Y-15761214D02*
X17537214Y-15746929D01*
X17522928Y-15732643D01*
X17508643Y-15704071D01*
X17508643Y-15618357D01*
X17522928Y-15589786D01*
X17537214Y-15575500D01*
X17565786Y-15561214D01*
X17608643Y-15561214D01*
X17637214Y-15575500D01*
X17651500Y-15589786D01*
X17665786Y-15618357D01*
X17665786Y-15704071D01*
X17651500Y-15732643D01*
X17637214Y-15746929D01*
X17608643Y-15761214D01*
X17565786Y-15761214D01*
X17837214Y-15761214D02*
X17808643Y-15746929D01*
X17794357Y-15718357D01*
X17794357Y-15461214D01*
X18065786Y-15746929D02*
X18037214Y-15761214D01*
X17980071Y-15761214D01*
X17951500Y-15746929D01*
X17937214Y-15718357D01*
X17937214Y-15604071D01*
X17951500Y-15575500D01*
X17980071Y-15561214D01*
X18037214Y-15561214D01*
X18065786Y-15575500D01*
X18080071Y-15604071D01*
X18080071Y-15632643D01*
X17937214Y-15661214D01*
X18194357Y-15746929D02*
X18222928Y-15761214D01*
X18280071Y-15761214D01*
X18308643Y-15746929D01*
X18322928Y-15718357D01*
X18322928Y-15704071D01*
X18308643Y-15675500D01*
X18280071Y-15661214D01*
X18237214Y-15661214D01*
X18208643Y-15646929D01*
X18194357Y-15618357D01*
X18194357Y-15604071D01*
X18208643Y-15575500D01*
X18237214Y-15561214D01*
X18280071Y-15561214D01*
X18308643Y-15575500D01*
X18422928Y-15875500D02*
X18437214Y-15861214D01*
X18465786Y-15818357D01*
X18480071Y-15789786D01*
X18494357Y-15746929D01*
X18508643Y-15675500D01*
X18508643Y-15618357D01*
X18494357Y-15546929D01*
X18480071Y-15504071D01*
X18465786Y-15475500D01*
X18437214Y-15432643D01*
X18422928Y-15418357D01*
X11921856Y-16056856D02*
X11921856Y-15986144D01*
X11851144Y-15986144D01*
X11851144Y-16056856D01*
X11921856Y-16056856D01*
X12380071Y-16157214D02*
X12208643Y-16157214D01*
X12294357Y-16157214D02*
X12294357Y-15857214D01*
X12265786Y-15900071D01*
X12237214Y-15928643D01*
X12208643Y-15942929D01*
X12508643Y-16128643D02*
X12522928Y-16142929D01*
X12508643Y-16157214D01*
X12494357Y-16142929D01*
X12508643Y-16128643D01*
X12508643Y-16157214D01*
X12708643Y-15857214D02*
X12737214Y-15857214D01*
X12765786Y-15871500D01*
X12780071Y-15885786D01*
X12794357Y-15914357D01*
X12808643Y-15971500D01*
X12808643Y-16042929D01*
X12794357Y-16100071D01*
X12780071Y-16128643D01*
X12765786Y-16142929D01*
X12737214Y-16157214D01*
X12708643Y-16157214D01*
X12680071Y-16142929D01*
X12665786Y-16128643D01*
X12651500Y-16100071D01*
X12637214Y-16042929D01*
X12637214Y-15971500D01*
X12651500Y-15914357D01*
X12665786Y-15885786D01*
X12680071Y-15871500D01*
X12708643Y-15857214D01*
X12994357Y-15857214D02*
X13022928Y-15857214D01*
X13051500Y-15871500D01*
X13065786Y-15885786D01*
X13080071Y-15914357D01*
X13094357Y-15971500D01*
X13094357Y-16042929D01*
X13080071Y-16100071D01*
X13065786Y-16128643D01*
X13051500Y-16142929D01*
X13022928Y-16157214D01*
X12994357Y-16157214D01*
X12965786Y-16142929D01*
X12951500Y-16128643D01*
X12937214Y-16100071D01*
X12922928Y-16042929D01*
X12922928Y-15971500D01*
X12937214Y-15914357D01*
X12951500Y-15885786D01*
X12965786Y-15871500D01*
X12994357Y-15857214D01*
X13222928Y-16157214D02*
X13222928Y-15957214D01*
X13222928Y-15985786D02*
X13237214Y-15971500D01*
X13265786Y-15957214D01*
X13308643Y-15957214D01*
X13337214Y-15971500D01*
X13351500Y-16000071D01*
X13351500Y-16157214D01*
X13351500Y-16000071D02*
X13365786Y-15971500D01*
X13394357Y-15957214D01*
X13437214Y-15957214D01*
X13465786Y-15971500D01*
X13480071Y-16000071D01*
X13480071Y-16157214D01*
X13622928Y-16157214D02*
X13622928Y-15957214D01*
X13622928Y-15985786D02*
X13637214Y-15971500D01*
X13665786Y-15957214D01*
X13708643Y-15957214D01*
X13737214Y-15971500D01*
X13751500Y-16000071D01*
X13751500Y-16157214D01*
X13751500Y-16000071D02*
X13765786Y-15971500D01*
X13794357Y-15957214D01*
X13837214Y-15957214D01*
X13865786Y-15971500D01*
X13880071Y-16000071D01*
X13880071Y-16157214D01*
X14465786Y-15842929D02*
X14208643Y-16228643D01*
X14851500Y-15857214D02*
X14880071Y-15857214D01*
X14908643Y-15871500D01*
X14922928Y-15885786D01*
X14937214Y-15914357D01*
X14951500Y-15971500D01*
X14951500Y-16042929D01*
X14937214Y-16100071D01*
X14922928Y-16128643D01*
X14908643Y-16142929D01*
X14880071Y-16157214D01*
X14851500Y-16157214D01*
X14822928Y-16142929D01*
X14808643Y-16128643D01*
X14794357Y-16100071D01*
X14780071Y-16042929D01*
X14780071Y-15971500D01*
X14794357Y-15914357D01*
X14808643Y-15885786D01*
X14822928Y-15871500D01*
X14851500Y-15857214D01*
X15080071Y-16128643D02*
X15094357Y-16142929D01*
X15080071Y-16157214D01*
X15065786Y-16142929D01*
X15080071Y-16128643D01*
X15080071Y-16157214D01*
X15280071Y-15857214D02*
X15308643Y-15857214D01*
X15337214Y-15871500D01*
X15351500Y-15885786D01*
X15365786Y-15914357D01*
X15380071Y-15971500D01*
X15380071Y-16042929D01*
X15365786Y-16100071D01*
X15351500Y-16128643D01*
X15337214Y-16142929D01*
X15308643Y-16157214D01*
X15280071Y-16157214D01*
X15251500Y-16142929D01*
X15237214Y-16128643D01*
X15222928Y-16100071D01*
X15208643Y-16042929D01*
X15208643Y-15971500D01*
X15222928Y-15914357D01*
X15237214Y-15885786D01*
X15251500Y-15871500D01*
X15280071Y-15857214D01*
X15480071Y-15857214D02*
X15665786Y-15857214D01*
X15565786Y-15971500D01*
X15608643Y-15971500D01*
X15637214Y-15985786D01*
X15651500Y-16000071D01*
X15665786Y-16028643D01*
X15665786Y-16100071D01*
X15651500Y-16128643D01*
X15637214Y-16142929D01*
X15608643Y-16157214D01*
X15522928Y-16157214D01*
X15494357Y-16142929D01*
X15480071Y-16128643D01*
X15808643Y-16157214D02*
X15865786Y-16157214D01*
X15894357Y-16142929D01*
X15908643Y-16128643D01*
X15937214Y-16085786D01*
X15951500Y-16028643D01*
X15951500Y-15914357D01*
X15937214Y-15885786D01*
X15922928Y-15871500D01*
X15894357Y-15857214D01*
X15837214Y-15857214D01*
X15808643Y-15871500D01*
X15794357Y-15885786D01*
X15780071Y-15914357D01*
X15780071Y-15985786D01*
X15794357Y-16014357D01*
X15808643Y-16028643D01*
X15837214Y-16042929D01*
X15894357Y-16042929D01*
X15922928Y-16028643D01*
X15937214Y-16014357D01*
X15951500Y-15985786D01*
X16065786Y-15857214D02*
X16065786Y-15914357D01*
X16180071Y-15857214D02*
X16180071Y-15914357D01*
X16622928Y-16271500D02*
X16608643Y-16257214D01*
X16580071Y-16214357D01*
X16565786Y-16185786D01*
X16551500Y-16142929D01*
X16537214Y-16071500D01*
X16537214Y-16014357D01*
X16551500Y-15942929D01*
X16565786Y-15900071D01*
X16580071Y-15871500D01*
X16608643Y-15828643D01*
X16622928Y-15814357D01*
X16894357Y-16157214D02*
X16722928Y-16157214D01*
X16808643Y-16157214D02*
X16808643Y-15857214D01*
X16780071Y-15900071D01*
X16751500Y-15928643D01*
X16722928Y-15942929D01*
X17151500Y-15857214D02*
X17094357Y-15857214D01*
X17065786Y-15871500D01*
X17051500Y-15885786D01*
X17022928Y-15928643D01*
X17008643Y-15985786D01*
X17008643Y-16100071D01*
X17022928Y-16128643D01*
X17037214Y-16142929D01*
X17065786Y-16157214D01*
X17122928Y-16157214D01*
X17151500Y-16142929D01*
X17165786Y-16128643D01*
X17180071Y-16100071D01*
X17180071Y-16028643D01*
X17165786Y-16000071D01*
X17151500Y-15985786D01*
X17122928Y-15971500D01*
X17065786Y-15971500D01*
X17037214Y-15985786D01*
X17022928Y-16000071D01*
X17008643Y-16028643D01*
X17537214Y-16157214D02*
X17537214Y-15857214D01*
X17665786Y-16157214D02*
X17665786Y-16000071D01*
X17651500Y-15971500D01*
X17622928Y-15957214D01*
X17580071Y-15957214D01*
X17551500Y-15971500D01*
X17537214Y-15985786D01*
X17851500Y-16157214D02*
X17822928Y-16142929D01*
X17808643Y-16128643D01*
X17794357Y-16100071D01*
X17794357Y-16014357D01*
X17808643Y-15985786D01*
X17822928Y-15971500D01*
X17851500Y-15957214D01*
X17894357Y-15957214D01*
X17922928Y-15971500D01*
X17937214Y-15985786D01*
X17951500Y-16014357D01*
X17951500Y-16100071D01*
X17937214Y-16128643D01*
X17922928Y-16142929D01*
X17894357Y-16157214D01*
X17851500Y-16157214D01*
X18122928Y-16157214D02*
X18094357Y-16142929D01*
X18080071Y-16114357D01*
X18080071Y-15857214D01*
X18351500Y-16142929D02*
X18322928Y-16157214D01*
X18265786Y-16157214D01*
X18237214Y-16142929D01*
X18222928Y-16114357D01*
X18222928Y-16000071D01*
X18237214Y-15971500D01*
X18265786Y-15957214D01*
X18322928Y-15957214D01*
X18351500Y-15971500D01*
X18365786Y-16000071D01*
X18365786Y-16028643D01*
X18222928Y-16057214D01*
X18480071Y-16142929D02*
X18508643Y-16157214D01*
X18565786Y-16157214D01*
X18594357Y-16142929D01*
X18608643Y-16114357D01*
X18608643Y-16100071D01*
X18594357Y-16071500D01*
X18565786Y-16057214D01*
X18522928Y-16057214D01*
X18494357Y-16042929D01*
X18480071Y-16014357D01*
X18480071Y-16000071D01*
X18494357Y-15971500D01*
X18522928Y-15957214D01*
X18565786Y-15957214D01*
X18594357Y-15971500D01*
X18708643Y-16271500D02*
X18722928Y-16257214D01*
X18751500Y-16214357D01*
X18765786Y-16185786D01*
X18780071Y-16142929D01*
X18794357Y-16071500D01*
X18794357Y-16014357D01*
X18780071Y-15942929D01*
X18765786Y-15900071D01*
X18751500Y-15871500D01*
X18722928Y-15828643D01*
X18708643Y-15814357D01*
X11878000Y-16476000D02*
X11936500Y-16417500D01*
X11878000Y-16359000D01*
X11819500Y-16417500D01*
X11878000Y-16476000D01*
X12380071Y-16553214D02*
X12208643Y-16553214D01*
X12294357Y-16553214D02*
X12294357Y-16253214D01*
X12265786Y-16296071D01*
X12237214Y-16324643D01*
X12208643Y-16338929D01*
X12508643Y-16524643D02*
X12522928Y-16538929D01*
X12508643Y-16553214D01*
X12494357Y-16538929D01*
X12508643Y-16524643D01*
X12508643Y-16553214D01*
X12808643Y-16553214D02*
X12637214Y-16553214D01*
X12722928Y-16553214D02*
X12722928Y-16253214D01*
X12694357Y-16296071D01*
X12665786Y-16324643D01*
X12637214Y-16338929D01*
X12908643Y-16253214D02*
X13108643Y-16253214D01*
X12980071Y-16553214D01*
X13222928Y-16553214D02*
X13222928Y-16353214D01*
X13222928Y-16381786D02*
X13237214Y-16367500D01*
X13265786Y-16353214D01*
X13308643Y-16353214D01*
X13337214Y-16367500D01*
X13351500Y-16396071D01*
X13351500Y-16553214D01*
X13351500Y-16396071D02*
X13365786Y-16367500D01*
X13394357Y-16353214D01*
X13437214Y-16353214D01*
X13465786Y-16367500D01*
X13480071Y-16396071D01*
X13480071Y-16553214D01*
X13622928Y-16553214D02*
X13622928Y-16353214D01*
X13622928Y-16381786D02*
X13637214Y-16367500D01*
X13665786Y-16353214D01*
X13708643Y-16353214D01*
X13737214Y-16367500D01*
X13751500Y-16396071D01*
X13751500Y-16553214D01*
X13751500Y-16396071D02*
X13765786Y-16367500D01*
X13794357Y-16353214D01*
X13837214Y-16353214D01*
X13865786Y-16367500D01*
X13880071Y-16396071D01*
X13880071Y-16553214D01*
X14465786Y-16238929D02*
X14208643Y-16624643D01*
X14851500Y-16253214D02*
X14880071Y-16253214D01*
X14908643Y-16267500D01*
X14922928Y-16281786D01*
X14937214Y-16310357D01*
X14951500Y-16367500D01*
X14951500Y-16438929D01*
X14937214Y-16496071D01*
X14922928Y-16524643D01*
X14908643Y-16538929D01*
X14880071Y-16553214D01*
X14851500Y-16553214D01*
X14822928Y-16538929D01*
X14808643Y-16524643D01*
X14794357Y-16496071D01*
X14780071Y-16438929D01*
X14780071Y-16367500D01*
X14794357Y-16310357D01*
X14808643Y-16281786D01*
X14822928Y-16267500D01*
X14851500Y-16253214D01*
X15080071Y-16524643D02*
X15094357Y-16538929D01*
X15080071Y-16553214D01*
X15065786Y-16538929D01*
X15080071Y-16524643D01*
X15080071Y-16553214D01*
X15280071Y-16253214D02*
X15308643Y-16253214D01*
X15337214Y-16267500D01*
X15351500Y-16281786D01*
X15365786Y-16310357D01*
X15380071Y-16367500D01*
X15380071Y-16438929D01*
X15365786Y-16496071D01*
X15351500Y-16524643D01*
X15337214Y-16538929D01*
X15308643Y-16553214D01*
X15280071Y-16553214D01*
X15251500Y-16538929D01*
X15237214Y-16524643D01*
X15222928Y-16496071D01*
X15208643Y-16438929D01*
X15208643Y-16367500D01*
X15222928Y-16310357D01*
X15237214Y-16281786D01*
X15251500Y-16267500D01*
X15280071Y-16253214D01*
X15637214Y-16353214D02*
X15637214Y-16553214D01*
X15565786Y-16238929D02*
X15494357Y-16453214D01*
X15680071Y-16453214D01*
X15922928Y-16253214D02*
X15865786Y-16253214D01*
X15837214Y-16267500D01*
X15822928Y-16281786D01*
X15794357Y-16324643D01*
X15780071Y-16381786D01*
X15780071Y-16496071D01*
X15794357Y-16524643D01*
X15808643Y-16538929D01*
X15837214Y-16553214D01*
X15894357Y-16553214D01*
X15922928Y-16538929D01*
X15937214Y-16524643D01*
X15951500Y-16496071D01*
X15951500Y-16424643D01*
X15937214Y-16396071D01*
X15922928Y-16381786D01*
X15894357Y-16367500D01*
X15837214Y-16367500D01*
X15808643Y-16381786D01*
X15794357Y-16396071D01*
X15780071Y-16424643D01*
X16065786Y-16253214D02*
X16065786Y-16310357D01*
X16180071Y-16253214D02*
X16180071Y-16310357D01*
X16622928Y-16667500D02*
X16608643Y-16653214D01*
X16580071Y-16610357D01*
X16565786Y-16581786D01*
X16551500Y-16538929D01*
X16537214Y-16467500D01*
X16537214Y-16410357D01*
X16551500Y-16338929D01*
X16565786Y-16296071D01*
X16580071Y-16267500D01*
X16608643Y-16224643D01*
X16622928Y-16210357D01*
X16722928Y-16281786D02*
X16737214Y-16267500D01*
X16765786Y-16253214D01*
X16837214Y-16253214D01*
X16865786Y-16267500D01*
X16880071Y-16281786D01*
X16894357Y-16310357D01*
X16894357Y-16338929D01*
X16880071Y-16381786D01*
X16708643Y-16553214D01*
X16894357Y-16553214D01*
X17251500Y-16553214D02*
X17251500Y-16253214D01*
X17380071Y-16553214D02*
X17380071Y-16396071D01*
X17365786Y-16367500D01*
X17337214Y-16353214D01*
X17294357Y-16353214D01*
X17265786Y-16367500D01*
X17251500Y-16381786D01*
X17565786Y-16553214D02*
X17537214Y-16538929D01*
X17522928Y-16524643D01*
X17508643Y-16496071D01*
X17508643Y-16410357D01*
X17522928Y-16381786D01*
X17537214Y-16367500D01*
X17565786Y-16353214D01*
X17608643Y-16353214D01*
X17637214Y-16367500D01*
X17651500Y-16381786D01*
X17665786Y-16410357D01*
X17665786Y-16496071D01*
X17651500Y-16524643D01*
X17637214Y-16538929D01*
X17608643Y-16553214D01*
X17565786Y-16553214D01*
X17837214Y-16553214D02*
X17808643Y-16538929D01*
X17794357Y-16510357D01*
X17794357Y-16253214D01*
X18065786Y-16538929D02*
X18037214Y-16553214D01*
X17980071Y-16553214D01*
X17951500Y-16538929D01*
X17937214Y-16510357D01*
X17937214Y-16396071D01*
X17951500Y-16367500D01*
X17980071Y-16353214D01*
X18037214Y-16353214D01*
X18065786Y-16367500D01*
X18080071Y-16396071D01*
X18080071Y-16424643D01*
X17937214Y-16453214D01*
X18194357Y-16538929D02*
X18222928Y-16553214D01*
X18280071Y-16553214D01*
X18308643Y-16538929D01*
X18322928Y-16510357D01*
X18322928Y-16496071D01*
X18308643Y-16467500D01*
X18280071Y-16453214D01*
X18237214Y-16453214D01*
X18208643Y-16438929D01*
X18194357Y-16410357D01*
X18194357Y-16396071D01*
X18208643Y-16367500D01*
X18237214Y-16353214D01*
X18280071Y-16353214D01*
X18308643Y-16367500D01*
X18422928Y-16667500D02*
X18437214Y-16653214D01*
X18465786Y-16610357D01*
X18480071Y-16581786D01*
X18494357Y-16538929D01*
X18508643Y-16467500D01*
X18508643Y-16410357D01*
X18494357Y-16338929D01*
X18480071Y-16296071D01*
X18465786Y-16267500D01*
X18437214Y-16224643D01*
X18422928Y-16210357D01*
X11786500Y-16738500D02*
X11936500Y-16888500D01*
X11936500Y-16738500D02*
X11786500Y-16888500D01*
X11936500Y-16813500D02*
G75*
G03X11936500Y-16813500I-75000J0D01*
G01*
X12380071Y-16949214D02*
X12208643Y-16949214D01*
X12294357Y-16949214D02*
X12294357Y-16649214D01*
X12265786Y-16692071D01*
X12237214Y-16720643D01*
X12208643Y-16734929D01*
X12508643Y-16920643D02*
X12522928Y-16934929D01*
X12508643Y-16949214D01*
X12494357Y-16934929D01*
X12508643Y-16920643D01*
X12508643Y-16949214D01*
X12794357Y-16649214D02*
X12651500Y-16649214D01*
X12637214Y-16792072D01*
X12651500Y-16777786D01*
X12680071Y-16763500D01*
X12751500Y-16763500D01*
X12780071Y-16777786D01*
X12794357Y-16792072D01*
X12808643Y-16820643D01*
X12808643Y-16892072D01*
X12794357Y-16920643D01*
X12780071Y-16934929D01*
X12751500Y-16949214D01*
X12680071Y-16949214D01*
X12651500Y-16934929D01*
X12637214Y-16920643D01*
X12994357Y-16649214D02*
X13022928Y-16649214D01*
X13051500Y-16663500D01*
X13065786Y-16677786D01*
X13080071Y-16706357D01*
X13094357Y-16763500D01*
X13094357Y-16834929D01*
X13080071Y-16892072D01*
X13065786Y-16920643D01*
X13051500Y-16934929D01*
X13022928Y-16949214D01*
X12994357Y-16949214D01*
X12965786Y-16934929D01*
X12951500Y-16920643D01*
X12937214Y-16892072D01*
X12922928Y-16834929D01*
X12922928Y-16763500D01*
X12937214Y-16706357D01*
X12951500Y-16677786D01*
X12965786Y-16663500D01*
X12994357Y-16649214D01*
X13222928Y-16949214D02*
X13222928Y-16749214D01*
X13222928Y-16777786D02*
X13237214Y-16763500D01*
X13265786Y-16749214D01*
X13308643Y-16749214D01*
X13337214Y-16763500D01*
X13351500Y-16792072D01*
X13351500Y-16949214D01*
X13351500Y-16792072D02*
X13365786Y-16763500D01*
X13394357Y-16749214D01*
X13437214Y-16749214D01*
X13465786Y-16763500D01*
X13480071Y-16792072D01*
X13480071Y-16949214D01*
X13622928Y-16949214D02*
X13622928Y-16749214D01*
X13622928Y-16777786D02*
X13637214Y-16763500D01*
X13665786Y-16749214D01*
X13708643Y-16749214D01*
X13737214Y-16763500D01*
X13751500Y-16792072D01*
X13751500Y-16949214D01*
X13751500Y-16792072D02*
X13765786Y-16763500D01*
X13794357Y-16749214D01*
X13837214Y-16749214D01*
X13865786Y-16763500D01*
X13880071Y-16792072D01*
X13880071Y-16949214D01*
X14465786Y-16634929D02*
X14208643Y-17020643D01*
X14851500Y-16649214D02*
X14880071Y-16649214D01*
X14908643Y-16663500D01*
X14922928Y-16677786D01*
X14937214Y-16706357D01*
X14951500Y-16763500D01*
X14951500Y-16834929D01*
X14937214Y-16892072D01*
X14922928Y-16920643D01*
X14908643Y-16934929D01*
X14880071Y-16949214D01*
X14851500Y-16949214D01*
X14822928Y-16934929D01*
X14808643Y-16920643D01*
X14794357Y-16892072D01*
X14780071Y-16834929D01*
X14780071Y-16763500D01*
X14794357Y-16706357D01*
X14808643Y-16677786D01*
X14822928Y-16663500D01*
X14851500Y-16649214D01*
X15080071Y-16920643D02*
X15094357Y-16934929D01*
X15080071Y-16949214D01*
X15065786Y-16934929D01*
X15080071Y-16920643D01*
X15080071Y-16949214D01*
X15280071Y-16649214D02*
X15308643Y-16649214D01*
X15337214Y-16663500D01*
X15351500Y-16677786D01*
X15365786Y-16706357D01*
X15380071Y-16763500D01*
X15380071Y-16834929D01*
X15365786Y-16892072D01*
X15351500Y-16920643D01*
X15337214Y-16934929D01*
X15308643Y-16949214D01*
X15280071Y-16949214D01*
X15251500Y-16934929D01*
X15237214Y-16920643D01*
X15222928Y-16892072D01*
X15208643Y-16834929D01*
X15208643Y-16763500D01*
X15222928Y-16706357D01*
X15237214Y-16677786D01*
X15251500Y-16663500D01*
X15280071Y-16649214D01*
X15651500Y-16649214D02*
X15508643Y-16649214D01*
X15494357Y-16792072D01*
X15508643Y-16777786D01*
X15537214Y-16763500D01*
X15608643Y-16763500D01*
X15637214Y-16777786D01*
X15651500Y-16792072D01*
X15665786Y-16820643D01*
X15665786Y-16892072D01*
X15651500Y-16920643D01*
X15637214Y-16934929D01*
X15608643Y-16949214D01*
X15537214Y-16949214D01*
X15508643Y-16934929D01*
X15494357Y-16920643D01*
X15808643Y-16949214D02*
X15865786Y-16949214D01*
X15894357Y-16934929D01*
X15908643Y-16920643D01*
X15937214Y-16877786D01*
X15951500Y-16820643D01*
X15951500Y-16706357D01*
X15937214Y-16677786D01*
X15922928Y-16663500D01*
X15894357Y-16649214D01*
X15837214Y-16649214D01*
X15808643Y-16663500D01*
X15794357Y-16677786D01*
X15780071Y-16706357D01*
X15780071Y-16777786D01*
X15794357Y-16806357D01*
X15808643Y-16820643D01*
X15837214Y-16834929D01*
X15894357Y-16834929D01*
X15922928Y-16820643D01*
X15937214Y-16806357D01*
X15951500Y-16777786D01*
X16065786Y-16649214D02*
X16065786Y-16706357D01*
X16180071Y-16649214D02*
X16180071Y-16706357D01*
X16622928Y-17063500D02*
X16608643Y-17049214D01*
X16580071Y-17006357D01*
X16565786Y-16977786D01*
X16551500Y-16934929D01*
X16537214Y-16863500D01*
X16537214Y-16806357D01*
X16551500Y-16734929D01*
X16565786Y-16692071D01*
X16580071Y-16663500D01*
X16608643Y-16620643D01*
X16622928Y-16606357D01*
X16865786Y-16749214D02*
X16865786Y-16949214D01*
X16794357Y-16634929D02*
X16722928Y-16849214D01*
X16908643Y-16849214D01*
X17251500Y-16949214D02*
X17251500Y-16649214D01*
X17380071Y-16949214D02*
X17380071Y-16792072D01*
X17365786Y-16763500D01*
X17337214Y-16749214D01*
X17294357Y-16749214D01*
X17265786Y-16763500D01*
X17251500Y-16777786D01*
X17565786Y-16949214D02*
X17537214Y-16934929D01*
X17522928Y-16920643D01*
X17508643Y-16892072D01*
X17508643Y-16806357D01*
X17522928Y-16777786D01*
X17537214Y-16763500D01*
X17565786Y-16749214D01*
X17608643Y-16749214D01*
X17637214Y-16763500D01*
X17651500Y-16777786D01*
X17665786Y-16806357D01*
X17665786Y-16892072D01*
X17651500Y-16920643D01*
X17637214Y-16934929D01*
X17608643Y-16949214D01*
X17565786Y-16949214D01*
X17837214Y-16949214D02*
X17808643Y-16934929D01*
X17794357Y-16906357D01*
X17794357Y-16649214D01*
X18065786Y-16934929D02*
X18037214Y-16949214D01*
X17980071Y-16949214D01*
X17951500Y-16934929D01*
X17937214Y-16906357D01*
X17937214Y-16792072D01*
X17951500Y-16763500D01*
X17980071Y-16749214D01*
X18037214Y-16749214D01*
X18065786Y-16763500D01*
X18080071Y-16792072D01*
X18080071Y-16820643D01*
X17937214Y-16849214D01*
X18194357Y-16934929D02*
X18222928Y-16949214D01*
X18280071Y-16949214D01*
X18308643Y-16934929D01*
X18322928Y-16906357D01*
X18322928Y-16892072D01*
X18308643Y-16863500D01*
X18280071Y-16849214D01*
X18237214Y-16849214D01*
X18208643Y-16834929D01*
X18194357Y-16806357D01*
X18194357Y-16792072D01*
X18208643Y-16763500D01*
X18237214Y-16749214D01*
X18280071Y-16749214D01*
X18308643Y-16763500D01*
X18422928Y-17063500D02*
X18437214Y-17049214D01*
X18465786Y-17006357D01*
X18480071Y-16977786D01*
X18494357Y-16934929D01*
X18508643Y-16863500D01*
X18508643Y-16806357D01*
X18494357Y-16734929D01*
X18480071Y-16692071D01*
X18465786Y-16663500D01*
X18437214Y-16620643D01*
X18422928Y-16606357D01*
X11616500Y-17049500D02*
X11936500Y-17369500D01*
X11936500Y-17049500D02*
X11616500Y-17369500D01*
X11776500Y-17049500D02*
X11776500Y-17369500D01*
X11616500Y-17209500D02*
X11936500Y-17209500D01*
X12194357Y-17045214D02*
X12380071Y-17045214D01*
X12280071Y-17159500D01*
X12322928Y-17159500D01*
X12351500Y-17173786D01*
X12365786Y-17188072D01*
X12380071Y-17216643D01*
X12380071Y-17288072D01*
X12365786Y-17316643D01*
X12351500Y-17330929D01*
X12322928Y-17345214D01*
X12237214Y-17345214D01*
X12208643Y-17330929D01*
X12194357Y-17316643D01*
X12508643Y-17316643D02*
X12522928Y-17330929D01*
X12508643Y-17345214D01*
X12494357Y-17330929D01*
X12508643Y-17316643D01*
X12508643Y-17345214D01*
X12637214Y-17073786D02*
X12651500Y-17059500D01*
X12680071Y-17045214D01*
X12751500Y-17045214D01*
X12780071Y-17059500D01*
X12794357Y-17073786D01*
X12808643Y-17102357D01*
X12808643Y-17130929D01*
X12794357Y-17173786D01*
X12622928Y-17345214D01*
X12808643Y-17345214D01*
X12994357Y-17045214D02*
X13022928Y-17045214D01*
X13051500Y-17059500D01*
X13065786Y-17073786D01*
X13080071Y-17102357D01*
X13094357Y-17159500D01*
X13094357Y-17230929D01*
X13080071Y-17288072D01*
X13065786Y-17316643D01*
X13051500Y-17330929D01*
X13022928Y-17345214D01*
X12994357Y-17345214D01*
X12965786Y-17330929D01*
X12951500Y-17316643D01*
X12937214Y-17288072D01*
X12922928Y-17230929D01*
X12922928Y-17159500D01*
X12937214Y-17102357D01*
X12951500Y-17073786D01*
X12965786Y-17059500D01*
X12994357Y-17045214D01*
X13222928Y-17345214D02*
X13222928Y-17145214D01*
X13222928Y-17173786D02*
X13237214Y-17159500D01*
X13265786Y-17145214D01*
X13308643Y-17145214D01*
X13337214Y-17159500D01*
X13351500Y-17188072D01*
X13351500Y-17345214D01*
X13351500Y-17188072D02*
X13365786Y-17159500D01*
X13394357Y-17145214D01*
X13437214Y-17145214D01*
X13465786Y-17159500D01*
X13480071Y-17188072D01*
X13480071Y-17345214D01*
X13622928Y-17345214D02*
X13622928Y-17145214D01*
X13622928Y-17173786D02*
X13637214Y-17159500D01*
X13665786Y-17145214D01*
X13708643Y-17145214D01*
X13737214Y-17159500D01*
X13751500Y-17188072D01*
X13751500Y-17345214D01*
X13751500Y-17188072D02*
X13765786Y-17159500D01*
X13794357Y-17145214D01*
X13837214Y-17145214D01*
X13865786Y-17159500D01*
X13880071Y-17188072D01*
X13880071Y-17345214D01*
X14465786Y-17030929D02*
X14208643Y-17416643D01*
X14851500Y-17045214D02*
X14880071Y-17045214D01*
X14908643Y-17059500D01*
X14922928Y-17073786D01*
X14937214Y-17102357D01*
X14951500Y-17159500D01*
X14951500Y-17230929D01*
X14937214Y-17288072D01*
X14922928Y-17316643D01*
X14908643Y-17330929D01*
X14880071Y-17345214D01*
X14851500Y-17345214D01*
X14822928Y-17330929D01*
X14808643Y-17316643D01*
X14794357Y-17288072D01*
X14780071Y-17230929D01*
X14780071Y-17159500D01*
X14794357Y-17102357D01*
X14808643Y-17073786D01*
X14822928Y-17059500D01*
X14851500Y-17045214D01*
X15080071Y-17316643D02*
X15094357Y-17330929D01*
X15080071Y-17345214D01*
X15065786Y-17330929D01*
X15080071Y-17316643D01*
X15080071Y-17345214D01*
X15380071Y-17345214D02*
X15208643Y-17345214D01*
X15294357Y-17345214D02*
X15294357Y-17045214D01*
X15265786Y-17088072D01*
X15237214Y-17116643D01*
X15208643Y-17130929D01*
X15494357Y-17073786D02*
X15508643Y-17059500D01*
X15537214Y-17045214D01*
X15608643Y-17045214D01*
X15637214Y-17059500D01*
X15651500Y-17073786D01*
X15665786Y-17102357D01*
X15665786Y-17130929D01*
X15651500Y-17173786D01*
X15480071Y-17345214D01*
X15665786Y-17345214D01*
X15922928Y-17045214D02*
X15865786Y-17045214D01*
X15837214Y-17059500D01*
X15822928Y-17073786D01*
X15794357Y-17116643D01*
X15780071Y-17173786D01*
X15780071Y-17288072D01*
X15794357Y-17316643D01*
X15808643Y-17330929D01*
X15837214Y-17345214D01*
X15894357Y-17345214D01*
X15922928Y-17330929D01*
X15937214Y-17316643D01*
X15951500Y-17288072D01*
X15951500Y-17216643D01*
X15937214Y-17188072D01*
X15922928Y-17173786D01*
X15894357Y-17159500D01*
X15837214Y-17159500D01*
X15808643Y-17173786D01*
X15794357Y-17188072D01*
X15780071Y-17216643D01*
X16065786Y-17045214D02*
X16065786Y-17102357D01*
X16180071Y-17045214D02*
X16180071Y-17102357D01*
X16622928Y-17459500D02*
X16608643Y-17445214D01*
X16580071Y-17402357D01*
X16565786Y-17373786D01*
X16551500Y-17330929D01*
X16537214Y-17259500D01*
X16537214Y-17202357D01*
X16551500Y-17130929D01*
X16565786Y-17088072D01*
X16580071Y-17059500D01*
X16608643Y-17016643D01*
X16622928Y-17002357D01*
X16865786Y-17145214D02*
X16865786Y-17345214D01*
X16794357Y-17030929D02*
X16722928Y-17245214D01*
X16908643Y-17245214D01*
X17251500Y-17345214D02*
X17251500Y-17045214D01*
X17380071Y-17345214D02*
X17380071Y-17188072D01*
X17365786Y-17159500D01*
X17337214Y-17145214D01*
X17294357Y-17145214D01*
X17265786Y-17159500D01*
X17251500Y-17173786D01*
X17565786Y-17345214D02*
X17537214Y-17330929D01*
X17522928Y-17316643D01*
X17508643Y-17288072D01*
X17508643Y-17202357D01*
X17522928Y-17173786D01*
X17537214Y-17159500D01*
X17565786Y-17145214D01*
X17608643Y-17145214D01*
X17637214Y-17159500D01*
X17651500Y-17173786D01*
X17665786Y-17202357D01*
X17665786Y-17288072D01*
X17651500Y-17316643D01*
X17637214Y-17330929D01*
X17608643Y-17345214D01*
X17565786Y-17345214D01*
X17837214Y-17345214D02*
X17808643Y-17330929D01*
X17794357Y-17302357D01*
X17794357Y-17045214D01*
X18065786Y-17330929D02*
X18037214Y-17345214D01*
X17980071Y-17345214D01*
X17951500Y-17330929D01*
X17937214Y-17302357D01*
X17937214Y-17188072D01*
X17951500Y-17159500D01*
X17980071Y-17145214D01*
X18037214Y-17145214D01*
X18065786Y-17159500D01*
X18080071Y-17188072D01*
X18080071Y-17216643D01*
X17937214Y-17245214D01*
X18194357Y-17330929D02*
X18222928Y-17345214D01*
X18280071Y-17345214D01*
X18308643Y-17330929D01*
X18322928Y-17302357D01*
X18322928Y-17288072D01*
X18308643Y-17259500D01*
X18280071Y-17245214D01*
X18237214Y-17245214D01*
X18208643Y-17230929D01*
X18194357Y-17202357D01*
X18194357Y-17188072D01*
X18208643Y-17159500D01*
X18237214Y-17145214D01*
X18280071Y-17145214D01*
X18308643Y-17159500D01*
X18422928Y-17459500D02*
X18437214Y-17445214D01*
X18465786Y-17402357D01*
X18480071Y-17373786D01*
X18494357Y-17330929D01*
X18508643Y-17259500D01*
X18508643Y-17202357D01*
X18494357Y-17130929D01*
X18480071Y-17088072D01*
X18465786Y-17059500D01*
X18437214Y-17016643D01*
X18422928Y-17002357D01*
M02*
