%TF.GenerationSoftware,KiCad,Pcbnew,5.0.2+dfsg1-1*%
%TF.CreationDate,2022-04-10T03:47:20-07:00*%
%TF.ProjectId,keygame-batpack,6b657967-616d-4652-9d62-61747061636b,rev?*%
%TF.SameCoordinates,Original*%
%TF.FileFunction,Copper,L2,Bot*%
%TF.FilePolarity,Positive*%
%FSLAX46Y46*%
G04 Gerber Fmt 4.6, Leading zero omitted, Abs format (unit mm)*
G04 Created by KiCad (PCBNEW 5.0.2+dfsg1-1) date Sun 10 Apr 2022 03:47:20 AM PDT*
%MOMM*%
%LPD*%
G01*
G04 APERTURE LIST*
%ADD10C,0.800000*%
%ADD11C,6.400000*%
%ADD12R,1.700000X1.700000*%
%ADD13O,1.700000X1.700000*%
%ADD14C,1.755000*%
%ADD15R,1.800000X1.800000*%
%ADD16O,1.800000X1.800000*%
%ADD17C,3.000000*%
%ADD18R,4.000000X8.000000*%
%ADD19R,8.000000X1.000000*%
%ADD20R,5.000000X3.000000*%
%ADD21C,0.254000*%
G04 APERTURE END LIST*
D10*
X126137056Y-57962944D03*
X124440000Y-57260000D03*
X122742944Y-57962944D03*
X122040000Y-59660000D03*
X122742944Y-61357056D03*
X124440000Y-62060000D03*
X126137056Y-61357056D03*
X126840000Y-59660000D03*
D11*
X124440000Y-59660000D03*
X170440000Y-59660000D03*
D10*
X172840000Y-59660000D03*
X172137056Y-61357056D03*
X170440000Y-62060000D03*
X168742944Y-61357056D03*
X168040000Y-59660000D03*
X168742944Y-57962944D03*
X170440000Y-57260000D03*
X172137056Y-57962944D03*
X126137056Y-131962944D03*
X124440000Y-131260000D03*
X122742944Y-131962944D03*
X122040000Y-133660000D03*
X122742944Y-135357056D03*
X124440000Y-136060000D03*
X126137056Y-135357056D03*
X126840000Y-133660000D03*
D11*
X124440000Y-133660000D03*
X170440000Y-133660000D03*
D10*
X172840000Y-133660000D03*
X172137056Y-135357056D03*
X170440000Y-136060000D03*
X168742944Y-135357056D03*
X168040000Y-133660000D03*
X168742944Y-131962944D03*
X170440000Y-131260000D03*
X172137056Y-131962944D03*
D12*
X138940000Y-59660000D03*
D13*
X141480000Y-59660000D03*
X144020000Y-59660000D03*
X146560000Y-59660000D03*
X149100000Y-59660000D03*
X151640000Y-59660000D03*
X154180000Y-59660000D03*
X156720000Y-59660000D03*
D12*
X124440000Y-69660000D03*
D13*
X124440000Y-72200000D03*
X124440000Y-74740000D03*
X124440000Y-77280000D03*
X124440000Y-79820000D03*
X124440000Y-82360000D03*
X124440000Y-84900000D03*
X124440000Y-87440000D03*
D14*
X150210000Y-83140000D03*
X136620000Y-83140000D03*
D15*
X167440000Y-95160000D03*
D16*
X167440000Y-82460000D03*
D17*
X162970000Y-67220000D03*
X162970000Y-74100000D03*
X131910000Y-74100000D03*
X131910000Y-67220000D03*
D18*
X138440000Y-133160000D03*
D19*
X138440000Y-135160000D03*
X138440000Y-131160000D03*
D20*
X131940000Y-133160000D03*
X144940000Y-133160000D03*
D10*
X154700000Y-95410000D03*
D21*
G36*
X171199192Y-55440578D02*
X171934389Y-55641705D01*
X172622351Y-55969846D01*
X173241331Y-56414628D01*
X173771761Y-56961988D01*
X174196884Y-57594639D01*
X174503251Y-58292561D01*
X174682499Y-59039183D01*
X174730001Y-59686044D01*
X174730000Y-133628382D01*
X174659422Y-134419193D01*
X174458295Y-135154389D01*
X174130152Y-135842355D01*
X173685374Y-136461328D01*
X173138012Y-136991761D01*
X172505362Y-137416883D01*
X171807439Y-137723251D01*
X171060819Y-137902499D01*
X170413970Y-137950000D01*
X124471618Y-137950000D01*
X123680807Y-137879422D01*
X122945611Y-137678295D01*
X122257645Y-137350152D01*
X121638672Y-136905374D01*
X121149811Y-136400910D01*
X121878695Y-136400910D01*
X122245640Y-136896343D01*
X123651171Y-137489736D01*
X125176793Y-137500087D01*
X126590246Y-136925819D01*
X126634360Y-136896343D01*
X127001305Y-136400910D01*
X124440000Y-133839605D01*
X121878695Y-136400910D01*
X121149811Y-136400910D01*
X121108239Y-136358012D01*
X120683117Y-135725362D01*
X120376749Y-135027439D01*
X120225344Y-134396793D01*
X120599913Y-134396793D01*
X121174181Y-135810246D01*
X121203657Y-135854360D01*
X121699090Y-136221305D01*
X124260395Y-133660000D01*
X124619605Y-133660000D01*
X127180910Y-136221305D01*
X127676343Y-135854360D01*
X128269736Y-134448829D01*
X128280087Y-132923207D01*
X127766863Y-131660000D01*
X128792560Y-131660000D01*
X128792560Y-134660000D01*
X128841843Y-134907765D01*
X128982191Y-135117809D01*
X129192235Y-135258157D01*
X129440000Y-135307440D01*
X133792560Y-135307440D01*
X133792560Y-135660000D01*
X133841843Y-135907765D01*
X133982191Y-136117809D01*
X134192235Y-136258157D01*
X134440000Y-136307440D01*
X135792560Y-136307440D01*
X135792560Y-137160000D01*
X135841843Y-137407765D01*
X135982191Y-137617809D01*
X136192235Y-137758157D01*
X136440000Y-137807440D01*
X140440000Y-137807440D01*
X140687765Y-137758157D01*
X140897809Y-137617809D01*
X141038157Y-137407765D01*
X141087440Y-137160000D01*
X141087440Y-136400910D01*
X167878695Y-136400910D01*
X168245640Y-136896343D01*
X169651171Y-137489736D01*
X171176793Y-137500087D01*
X172590246Y-136925819D01*
X172634360Y-136896343D01*
X173001305Y-136400910D01*
X170440000Y-133839605D01*
X167878695Y-136400910D01*
X141087440Y-136400910D01*
X141087440Y-136307440D01*
X142440000Y-136307440D01*
X142687765Y-136258157D01*
X142897809Y-136117809D01*
X143038157Y-135907765D01*
X143087440Y-135660000D01*
X143087440Y-135307440D01*
X147440000Y-135307440D01*
X147687765Y-135258157D01*
X147897809Y-135117809D01*
X148038157Y-134907765D01*
X148087440Y-134660000D01*
X148087440Y-134396793D01*
X166599913Y-134396793D01*
X167174181Y-135810246D01*
X167203657Y-135854360D01*
X167699090Y-136221305D01*
X170260395Y-133660000D01*
X170619605Y-133660000D01*
X173180910Y-136221305D01*
X173676343Y-135854360D01*
X174269736Y-134448829D01*
X174280087Y-132923207D01*
X173705819Y-131509754D01*
X173676343Y-131465640D01*
X173180910Y-131098695D01*
X170619605Y-133660000D01*
X170260395Y-133660000D01*
X167699090Y-131098695D01*
X167203657Y-131465640D01*
X166610264Y-132871171D01*
X166599913Y-134396793D01*
X148087440Y-134396793D01*
X148087440Y-131660000D01*
X148038157Y-131412235D01*
X147897809Y-131202191D01*
X147687765Y-131061843D01*
X147440000Y-131012560D01*
X143087440Y-131012560D01*
X143087440Y-130919090D01*
X167878695Y-130919090D01*
X170440000Y-133480395D01*
X173001305Y-130919090D01*
X172634360Y-130423657D01*
X171228829Y-129830264D01*
X169703207Y-129819913D01*
X168289754Y-130394181D01*
X168245640Y-130423657D01*
X167878695Y-130919090D01*
X143087440Y-130919090D01*
X143087440Y-130660000D01*
X143038157Y-130412235D01*
X142897809Y-130202191D01*
X142687765Y-130061843D01*
X142440000Y-130012560D01*
X141087440Y-130012560D01*
X141087440Y-129160000D01*
X141038157Y-128912235D01*
X140897809Y-128702191D01*
X140687765Y-128561843D01*
X140440000Y-128512560D01*
X136440000Y-128512560D01*
X136192235Y-128561843D01*
X135982191Y-128702191D01*
X135841843Y-128912235D01*
X135792560Y-129160000D01*
X135792560Y-130012560D01*
X134440000Y-130012560D01*
X134192235Y-130061843D01*
X133982191Y-130202191D01*
X133841843Y-130412235D01*
X133792560Y-130660000D01*
X133792560Y-131012560D01*
X129440000Y-131012560D01*
X129192235Y-131061843D01*
X128982191Y-131202191D01*
X128841843Y-131412235D01*
X128792560Y-131660000D01*
X127766863Y-131660000D01*
X127705819Y-131509754D01*
X127676343Y-131465640D01*
X127180910Y-131098695D01*
X124619605Y-133660000D01*
X124260395Y-133660000D01*
X121699090Y-131098695D01*
X121203657Y-131465640D01*
X120610264Y-132871171D01*
X120599913Y-134396793D01*
X120225344Y-134396793D01*
X120197501Y-134280819D01*
X120150000Y-133633970D01*
X120150000Y-130919090D01*
X121878695Y-130919090D01*
X124440000Y-133480395D01*
X127001305Y-130919090D01*
X126634360Y-130423657D01*
X125228829Y-129830264D01*
X123703207Y-129819913D01*
X122289754Y-130394181D01*
X122245640Y-130423657D01*
X121878695Y-130919090D01*
X120150000Y-130919090D01*
X120150000Y-108928471D01*
X140909238Y-108928471D01*
X140915561Y-109733589D01*
X141158342Y-110501257D01*
X141616116Y-111163600D01*
X142248409Y-111662060D01*
X142999317Y-111952564D01*
X143802450Y-112009429D01*
X144586799Y-111827626D01*
X145283017Y-111423231D01*
X145829549Y-110831996D01*
X146178073Y-110106195D01*
X146297776Y-109310000D01*
X146297442Y-109267468D01*
X146165248Y-108473251D01*
X145805366Y-107753015D01*
X145249615Y-107170437D01*
X144547131Y-106777027D01*
X143760023Y-106607567D01*
X142957882Y-106677040D01*
X142211630Y-106979303D01*
X141587245Y-107487633D01*
X141139931Y-108157085D01*
X140909238Y-108928471D01*
X120150000Y-108928471D01*
X120150000Y-94260000D01*
X165892560Y-94260000D01*
X165892560Y-96060000D01*
X165941843Y-96307765D01*
X166082191Y-96517809D01*
X166292235Y-96658157D01*
X166540000Y-96707440D01*
X168340000Y-96707440D01*
X168587765Y-96658157D01*
X168797809Y-96517809D01*
X168938157Y-96307765D01*
X168987440Y-96060000D01*
X168987440Y-94260000D01*
X168938157Y-94012235D01*
X168797809Y-93802191D01*
X168587765Y-93661843D01*
X168340000Y-93612560D01*
X166540000Y-93612560D01*
X166292235Y-93661843D01*
X166082191Y-93802191D01*
X165941843Y-94012235D01*
X165892560Y-94260000D01*
X120150000Y-94260000D01*
X120150000Y-87796890D01*
X122998524Y-87796890D01*
X123168355Y-88206924D01*
X123558642Y-88635183D01*
X124083108Y-88881486D01*
X124313000Y-88760819D01*
X124313000Y-87567000D01*
X124567000Y-87567000D01*
X124567000Y-88760819D01*
X124796892Y-88881486D01*
X125321358Y-88635183D01*
X125711645Y-88206924D01*
X125881476Y-87796890D01*
X125760155Y-87567000D01*
X124567000Y-87567000D01*
X124313000Y-87567000D01*
X123119845Y-87567000D01*
X122998524Y-87796890D01*
X120150000Y-87796890D01*
X120150000Y-85256890D01*
X122998524Y-85256890D01*
X123168355Y-85666924D01*
X123558642Y-86095183D01*
X123717954Y-86170000D01*
X123558642Y-86244817D01*
X123168355Y-86673076D01*
X122998524Y-87083110D01*
X123119845Y-87313000D01*
X124313000Y-87313000D01*
X124313000Y-85027000D01*
X124567000Y-85027000D01*
X124567000Y-87313000D01*
X125760155Y-87313000D01*
X125881476Y-87083110D01*
X125711645Y-86673076D01*
X125321358Y-86244817D01*
X125162046Y-86170000D01*
X125321358Y-86095183D01*
X125711645Y-85666924D01*
X125881476Y-85256890D01*
X125760155Y-85027000D01*
X124567000Y-85027000D01*
X124313000Y-85027000D01*
X123119845Y-85027000D01*
X122998524Y-85256890D01*
X120150000Y-85256890D01*
X120150000Y-82716890D01*
X122998524Y-82716890D01*
X123168355Y-83126924D01*
X123558642Y-83555183D01*
X123717954Y-83630000D01*
X123558642Y-83704817D01*
X123168355Y-84133076D01*
X122998524Y-84543110D01*
X123119845Y-84773000D01*
X124313000Y-84773000D01*
X124313000Y-82487000D01*
X124567000Y-82487000D01*
X124567000Y-84773000D01*
X125760155Y-84773000D01*
X125881476Y-84543110D01*
X125740967Y-84203870D01*
X135735735Y-84203870D01*
X135819382Y-84458022D01*
X136384711Y-84664077D01*
X136985861Y-84638105D01*
X137420618Y-84458022D01*
X137504265Y-84203870D01*
X136620000Y-83319605D01*
X135735735Y-84203870D01*
X125740967Y-84203870D01*
X125711645Y-84133076D01*
X125321358Y-83704817D01*
X125162046Y-83630000D01*
X125321358Y-83555183D01*
X125711645Y-83126924D01*
X125803682Y-82904711D01*
X135095923Y-82904711D01*
X135121895Y-83505861D01*
X135301978Y-83940618D01*
X135556130Y-84024265D01*
X136440395Y-83140000D01*
X136799605Y-83140000D01*
X137683870Y-84024265D01*
X137938022Y-83940618D01*
X138144077Y-83375289D01*
X138120914Y-82839145D01*
X148697500Y-82839145D01*
X148697500Y-83440855D01*
X148927764Y-83996763D01*
X149353237Y-84422236D01*
X149909145Y-84652500D01*
X150510855Y-84652500D01*
X151066763Y-84422236D01*
X151492236Y-83996763D01*
X151722500Y-83440855D01*
X151722500Y-82839145D01*
X151565454Y-82460000D01*
X165874928Y-82460000D01*
X165994062Y-83058927D01*
X166333327Y-83566673D01*
X166841073Y-83905938D01*
X167288818Y-83995000D01*
X167591182Y-83995000D01*
X168038927Y-83905938D01*
X168546673Y-83566673D01*
X168885938Y-83058927D01*
X169005072Y-82460000D01*
X168885938Y-81861073D01*
X168546673Y-81353327D01*
X168038927Y-81014062D01*
X167591182Y-80925000D01*
X167288818Y-80925000D01*
X166841073Y-81014062D01*
X166333327Y-81353327D01*
X165994062Y-81861073D01*
X165874928Y-82460000D01*
X151565454Y-82460000D01*
X151492236Y-82283237D01*
X151066763Y-81857764D01*
X150510855Y-81627500D01*
X149909145Y-81627500D01*
X149353237Y-81857764D01*
X148927764Y-82283237D01*
X148697500Y-82839145D01*
X138120914Y-82839145D01*
X138118105Y-82774139D01*
X137938022Y-82339382D01*
X137683870Y-82255735D01*
X136799605Y-83140000D01*
X136440395Y-83140000D01*
X135556130Y-82255735D01*
X135301978Y-82339382D01*
X135095923Y-82904711D01*
X125803682Y-82904711D01*
X125881476Y-82716890D01*
X125760155Y-82487000D01*
X124567000Y-82487000D01*
X124313000Y-82487000D01*
X123119845Y-82487000D01*
X122998524Y-82716890D01*
X120150000Y-82716890D01*
X120150000Y-80176890D01*
X122998524Y-80176890D01*
X123168355Y-80586924D01*
X123558642Y-81015183D01*
X123717954Y-81090000D01*
X123558642Y-81164817D01*
X123168355Y-81593076D01*
X122998524Y-82003110D01*
X123119845Y-82233000D01*
X124313000Y-82233000D01*
X124313000Y-79947000D01*
X124567000Y-79947000D01*
X124567000Y-82233000D01*
X125760155Y-82233000D01*
X125842940Y-82076130D01*
X135735735Y-82076130D01*
X136620000Y-82960395D01*
X137504265Y-82076130D01*
X137420618Y-81821978D01*
X136855289Y-81615923D01*
X136254139Y-81641895D01*
X135819382Y-81821978D01*
X135735735Y-82076130D01*
X125842940Y-82076130D01*
X125881476Y-82003110D01*
X125711645Y-81593076D01*
X125321358Y-81164817D01*
X125162046Y-81090000D01*
X125321358Y-81015183D01*
X125711645Y-80586924D01*
X125881476Y-80176890D01*
X125760155Y-79947000D01*
X124567000Y-79947000D01*
X124313000Y-79947000D01*
X123119845Y-79947000D01*
X122998524Y-80176890D01*
X120150000Y-80176890D01*
X120150000Y-77636890D01*
X122998524Y-77636890D01*
X123168355Y-78046924D01*
X123558642Y-78475183D01*
X123717954Y-78550000D01*
X123558642Y-78624817D01*
X123168355Y-79053076D01*
X122998524Y-79463110D01*
X123119845Y-79693000D01*
X124313000Y-79693000D01*
X124313000Y-77407000D01*
X124567000Y-77407000D01*
X124567000Y-79693000D01*
X125760155Y-79693000D01*
X125881476Y-79463110D01*
X125711645Y-79053076D01*
X125321358Y-78624817D01*
X125162046Y-78550000D01*
X125321358Y-78475183D01*
X125711645Y-78046924D01*
X125881476Y-77636890D01*
X125760155Y-77407000D01*
X124567000Y-77407000D01*
X124313000Y-77407000D01*
X123119845Y-77407000D01*
X122998524Y-77636890D01*
X120150000Y-77636890D01*
X120150000Y-74740000D01*
X122925908Y-74740000D01*
X123041161Y-75319418D01*
X123369375Y-75810625D01*
X123688478Y-76023843D01*
X123558642Y-76084817D01*
X123168355Y-76513076D01*
X122998524Y-76923110D01*
X123119845Y-77153000D01*
X124313000Y-77153000D01*
X124313000Y-77133000D01*
X124567000Y-77133000D01*
X124567000Y-77153000D01*
X125760155Y-77153000D01*
X125881476Y-76923110D01*
X125711645Y-76513076D01*
X125321358Y-76084817D01*
X125191522Y-76023843D01*
X125510625Y-75810625D01*
X125838839Y-75319418D01*
X125954092Y-74740000D01*
X125838839Y-74160582D01*
X125514599Y-73675322D01*
X129775000Y-73675322D01*
X129775000Y-74524678D01*
X130100034Y-75309380D01*
X130700620Y-75909966D01*
X131485322Y-76235000D01*
X132334678Y-76235000D01*
X133119380Y-75909966D01*
X133719966Y-75309380D01*
X134045000Y-74524678D01*
X134045000Y-73675322D01*
X160835000Y-73675322D01*
X160835000Y-74524678D01*
X161160034Y-75309380D01*
X161760620Y-75909966D01*
X162545322Y-76235000D01*
X163394678Y-76235000D01*
X164179380Y-75909966D01*
X164779966Y-75309380D01*
X165105000Y-74524678D01*
X165105000Y-73675322D01*
X164779966Y-72890620D01*
X164179380Y-72290034D01*
X163394678Y-71965000D01*
X162545322Y-71965000D01*
X161760620Y-72290034D01*
X161160034Y-72890620D01*
X160835000Y-73675322D01*
X134045000Y-73675322D01*
X133719966Y-72890620D01*
X133119380Y-72290034D01*
X132334678Y-71965000D01*
X131485322Y-71965000D01*
X130700620Y-72290034D01*
X130100034Y-72890620D01*
X129775000Y-73675322D01*
X125514599Y-73675322D01*
X125510625Y-73669375D01*
X125191522Y-73456157D01*
X125321358Y-73395183D01*
X125711645Y-72966924D01*
X125881476Y-72556890D01*
X125760155Y-72327000D01*
X124567000Y-72327000D01*
X124567000Y-72347000D01*
X124313000Y-72347000D01*
X124313000Y-72327000D01*
X123119845Y-72327000D01*
X122998524Y-72556890D01*
X123168355Y-72966924D01*
X123558642Y-73395183D01*
X123688478Y-73456157D01*
X123369375Y-73669375D01*
X123041161Y-74160582D01*
X122925908Y-74740000D01*
X120150000Y-74740000D01*
X120150000Y-68810000D01*
X122942560Y-68810000D01*
X122942560Y-70510000D01*
X122991843Y-70757765D01*
X123132191Y-70967809D01*
X123342235Y-71108157D01*
X123445708Y-71128739D01*
X123168355Y-71433076D01*
X122998524Y-71843110D01*
X123119845Y-72073000D01*
X124313000Y-72073000D01*
X124313000Y-72053000D01*
X124567000Y-72053000D01*
X124567000Y-72073000D01*
X125760155Y-72073000D01*
X125881476Y-71843110D01*
X125711645Y-71433076D01*
X125434292Y-71128739D01*
X125537765Y-71108157D01*
X125747809Y-70967809D01*
X125888157Y-70757765D01*
X125937440Y-70510000D01*
X125937440Y-68810000D01*
X125922317Y-68733970D01*
X130575635Y-68733970D01*
X130735418Y-69052739D01*
X131526187Y-69362723D01*
X132375387Y-69346497D01*
X133084582Y-69052739D01*
X133244365Y-68733970D01*
X161635635Y-68733970D01*
X161795418Y-69052739D01*
X162586187Y-69362723D01*
X163435387Y-69346497D01*
X164144582Y-69052739D01*
X164304365Y-68733970D01*
X162970000Y-67399605D01*
X161635635Y-68733970D01*
X133244365Y-68733970D01*
X131910000Y-67399605D01*
X130575635Y-68733970D01*
X125922317Y-68733970D01*
X125888157Y-68562235D01*
X125747809Y-68352191D01*
X125537765Y-68211843D01*
X125290000Y-68162560D01*
X123590000Y-68162560D01*
X123342235Y-68211843D01*
X123132191Y-68352191D01*
X122991843Y-68562235D01*
X122942560Y-68810000D01*
X120150000Y-68810000D01*
X120150000Y-66836187D01*
X129767277Y-66836187D01*
X129783503Y-67685387D01*
X130077261Y-68394582D01*
X130396030Y-68554365D01*
X131730395Y-67220000D01*
X132089605Y-67220000D01*
X133423970Y-68554365D01*
X133742739Y-68394582D01*
X134052723Y-67603813D01*
X134038056Y-66836187D01*
X160827277Y-66836187D01*
X160843503Y-67685387D01*
X161137261Y-68394582D01*
X161456030Y-68554365D01*
X162790395Y-67220000D01*
X163149605Y-67220000D01*
X164483970Y-68554365D01*
X164802739Y-68394582D01*
X165112723Y-67603813D01*
X165096497Y-66754613D01*
X164802739Y-66045418D01*
X164483970Y-65885635D01*
X163149605Y-67220000D01*
X162790395Y-67220000D01*
X161456030Y-65885635D01*
X161137261Y-66045418D01*
X160827277Y-66836187D01*
X134038056Y-66836187D01*
X134036497Y-66754613D01*
X133742739Y-66045418D01*
X133423970Y-65885635D01*
X132089605Y-67220000D01*
X131730395Y-67220000D01*
X130396030Y-65885635D01*
X130077261Y-66045418D01*
X129767277Y-66836187D01*
X120150000Y-66836187D01*
X120150000Y-65706030D01*
X130575635Y-65706030D01*
X131910000Y-67040395D01*
X133244365Y-65706030D01*
X161635635Y-65706030D01*
X162970000Y-67040395D01*
X164304365Y-65706030D01*
X164144582Y-65387261D01*
X163353813Y-65077277D01*
X162504613Y-65093503D01*
X161795418Y-65387261D01*
X161635635Y-65706030D01*
X133244365Y-65706030D01*
X133084582Y-65387261D01*
X132293813Y-65077277D01*
X131444613Y-65093503D01*
X130735418Y-65387261D01*
X130575635Y-65706030D01*
X120150000Y-65706030D01*
X120150000Y-62400910D01*
X121878695Y-62400910D01*
X122245640Y-62896343D01*
X123651171Y-63489736D01*
X125176793Y-63500087D01*
X126590246Y-62925819D01*
X126634360Y-62896343D01*
X127001305Y-62400910D01*
X167878695Y-62400910D01*
X168245640Y-62896343D01*
X169651171Y-63489736D01*
X171176793Y-63500087D01*
X172590246Y-62925819D01*
X172634360Y-62896343D01*
X173001305Y-62400910D01*
X170440000Y-59839605D01*
X167878695Y-62400910D01*
X127001305Y-62400910D01*
X124440000Y-59839605D01*
X121878695Y-62400910D01*
X120150000Y-62400910D01*
X120150000Y-60396793D01*
X120599913Y-60396793D01*
X121174181Y-61810246D01*
X121203657Y-61854360D01*
X121699090Y-62221305D01*
X124260395Y-59660000D01*
X124619605Y-59660000D01*
X127180910Y-62221305D01*
X127676343Y-61854360D01*
X128269736Y-60448829D01*
X128280087Y-58923207D01*
X128234093Y-58810000D01*
X137442560Y-58810000D01*
X137442560Y-60510000D01*
X137491843Y-60757765D01*
X137632191Y-60967809D01*
X137842235Y-61108157D01*
X138090000Y-61157440D01*
X139790000Y-61157440D01*
X140037765Y-61108157D01*
X140247809Y-60967809D01*
X140388157Y-60757765D01*
X140397184Y-60712381D01*
X140409375Y-60730625D01*
X140900582Y-61058839D01*
X141333744Y-61145000D01*
X141626256Y-61145000D01*
X142059418Y-61058839D01*
X142550625Y-60730625D01*
X142750000Y-60432239D01*
X142949375Y-60730625D01*
X143440582Y-61058839D01*
X143873744Y-61145000D01*
X144166256Y-61145000D01*
X144599418Y-61058839D01*
X145090625Y-60730625D01*
X145290000Y-60432239D01*
X145489375Y-60730625D01*
X145980582Y-61058839D01*
X146413744Y-61145000D01*
X146706256Y-61145000D01*
X147139418Y-61058839D01*
X147630625Y-60730625D01*
X147830000Y-60432239D01*
X148029375Y-60730625D01*
X148520582Y-61058839D01*
X148953744Y-61145000D01*
X149246256Y-61145000D01*
X149679418Y-61058839D01*
X150170625Y-60730625D01*
X150370000Y-60432239D01*
X150569375Y-60730625D01*
X151060582Y-61058839D01*
X151493744Y-61145000D01*
X151786256Y-61145000D01*
X152219418Y-61058839D01*
X152710625Y-60730625D01*
X152910000Y-60432239D01*
X153109375Y-60730625D01*
X153600582Y-61058839D01*
X154033744Y-61145000D01*
X154326256Y-61145000D01*
X154759418Y-61058839D01*
X155250625Y-60730625D01*
X155450000Y-60432239D01*
X155649375Y-60730625D01*
X156140582Y-61058839D01*
X156573744Y-61145000D01*
X156866256Y-61145000D01*
X157299418Y-61058839D01*
X157790625Y-60730625D01*
X158013684Y-60396793D01*
X166599913Y-60396793D01*
X167174181Y-61810246D01*
X167203657Y-61854360D01*
X167699090Y-62221305D01*
X170260395Y-59660000D01*
X170619605Y-59660000D01*
X173180910Y-62221305D01*
X173676343Y-61854360D01*
X174269736Y-60448829D01*
X174280087Y-58923207D01*
X173705819Y-57509754D01*
X173676343Y-57465640D01*
X173180910Y-57098695D01*
X170619605Y-59660000D01*
X170260395Y-59660000D01*
X167699090Y-57098695D01*
X167203657Y-57465640D01*
X166610264Y-58871171D01*
X166599913Y-60396793D01*
X158013684Y-60396793D01*
X158118839Y-60239418D01*
X158234092Y-59660000D01*
X158118839Y-59080582D01*
X157790625Y-58589375D01*
X157299418Y-58261161D01*
X156866256Y-58175000D01*
X156573744Y-58175000D01*
X156140582Y-58261161D01*
X155649375Y-58589375D01*
X155450000Y-58887761D01*
X155250625Y-58589375D01*
X154759418Y-58261161D01*
X154326256Y-58175000D01*
X154033744Y-58175000D01*
X153600582Y-58261161D01*
X153109375Y-58589375D01*
X152910000Y-58887761D01*
X152710625Y-58589375D01*
X152219418Y-58261161D01*
X151786256Y-58175000D01*
X151493744Y-58175000D01*
X151060582Y-58261161D01*
X150569375Y-58589375D01*
X150370000Y-58887761D01*
X150170625Y-58589375D01*
X149679418Y-58261161D01*
X149246256Y-58175000D01*
X148953744Y-58175000D01*
X148520582Y-58261161D01*
X148029375Y-58589375D01*
X147830000Y-58887761D01*
X147630625Y-58589375D01*
X147139418Y-58261161D01*
X146706256Y-58175000D01*
X146413744Y-58175000D01*
X145980582Y-58261161D01*
X145489375Y-58589375D01*
X145290000Y-58887761D01*
X145090625Y-58589375D01*
X144599418Y-58261161D01*
X144166256Y-58175000D01*
X143873744Y-58175000D01*
X143440582Y-58261161D01*
X142949375Y-58589375D01*
X142750000Y-58887761D01*
X142550625Y-58589375D01*
X142059418Y-58261161D01*
X141626256Y-58175000D01*
X141333744Y-58175000D01*
X140900582Y-58261161D01*
X140409375Y-58589375D01*
X140397184Y-58607619D01*
X140388157Y-58562235D01*
X140247809Y-58352191D01*
X140037765Y-58211843D01*
X139790000Y-58162560D01*
X138090000Y-58162560D01*
X137842235Y-58211843D01*
X137632191Y-58352191D01*
X137491843Y-58562235D01*
X137442560Y-58810000D01*
X128234093Y-58810000D01*
X127705819Y-57509754D01*
X127676343Y-57465640D01*
X127180910Y-57098695D01*
X124619605Y-59660000D01*
X124260395Y-59660000D01*
X121699090Y-57098695D01*
X121203657Y-57465640D01*
X120610264Y-58871171D01*
X120599913Y-60396793D01*
X120150000Y-60396793D01*
X120150000Y-59691618D01*
X120220578Y-58900808D01*
X120421705Y-58165611D01*
X120749846Y-57477649D01*
X121151211Y-56919090D01*
X121878695Y-56919090D01*
X124440000Y-59480395D01*
X127001305Y-56919090D01*
X167878695Y-56919090D01*
X170440000Y-59480395D01*
X173001305Y-56919090D01*
X172634360Y-56423657D01*
X171228829Y-55830264D01*
X169703207Y-55819913D01*
X168289754Y-56394181D01*
X168245640Y-56423657D01*
X167878695Y-56919090D01*
X127001305Y-56919090D01*
X126634360Y-56423657D01*
X125228829Y-55830264D01*
X123703207Y-55819913D01*
X122289754Y-56394181D01*
X122245640Y-56423657D01*
X121878695Y-56919090D01*
X121151211Y-56919090D01*
X121194628Y-56858669D01*
X121741988Y-56328239D01*
X122374639Y-55903116D01*
X123072561Y-55596749D01*
X123819183Y-55417501D01*
X124466030Y-55370000D01*
X170408382Y-55370000D01*
X171199192Y-55440578D01*
X171199192Y-55440578D01*
G37*
X171199192Y-55440578D02*
X171934389Y-55641705D01*
X172622351Y-55969846D01*
X173241331Y-56414628D01*
X173771761Y-56961988D01*
X174196884Y-57594639D01*
X174503251Y-58292561D01*
X174682499Y-59039183D01*
X174730001Y-59686044D01*
X174730000Y-133628382D01*
X174659422Y-134419193D01*
X174458295Y-135154389D01*
X174130152Y-135842355D01*
X173685374Y-136461328D01*
X173138012Y-136991761D01*
X172505362Y-137416883D01*
X171807439Y-137723251D01*
X171060819Y-137902499D01*
X170413970Y-137950000D01*
X124471618Y-137950000D01*
X123680807Y-137879422D01*
X122945611Y-137678295D01*
X122257645Y-137350152D01*
X121638672Y-136905374D01*
X121149811Y-136400910D01*
X121878695Y-136400910D01*
X122245640Y-136896343D01*
X123651171Y-137489736D01*
X125176793Y-137500087D01*
X126590246Y-136925819D01*
X126634360Y-136896343D01*
X127001305Y-136400910D01*
X124440000Y-133839605D01*
X121878695Y-136400910D01*
X121149811Y-136400910D01*
X121108239Y-136358012D01*
X120683117Y-135725362D01*
X120376749Y-135027439D01*
X120225344Y-134396793D01*
X120599913Y-134396793D01*
X121174181Y-135810246D01*
X121203657Y-135854360D01*
X121699090Y-136221305D01*
X124260395Y-133660000D01*
X124619605Y-133660000D01*
X127180910Y-136221305D01*
X127676343Y-135854360D01*
X128269736Y-134448829D01*
X128280087Y-132923207D01*
X127766863Y-131660000D01*
X128792560Y-131660000D01*
X128792560Y-134660000D01*
X128841843Y-134907765D01*
X128982191Y-135117809D01*
X129192235Y-135258157D01*
X129440000Y-135307440D01*
X133792560Y-135307440D01*
X133792560Y-135660000D01*
X133841843Y-135907765D01*
X133982191Y-136117809D01*
X134192235Y-136258157D01*
X134440000Y-136307440D01*
X135792560Y-136307440D01*
X135792560Y-137160000D01*
X135841843Y-137407765D01*
X135982191Y-137617809D01*
X136192235Y-137758157D01*
X136440000Y-137807440D01*
X140440000Y-137807440D01*
X140687765Y-137758157D01*
X140897809Y-137617809D01*
X141038157Y-137407765D01*
X141087440Y-137160000D01*
X141087440Y-136400910D01*
X167878695Y-136400910D01*
X168245640Y-136896343D01*
X169651171Y-137489736D01*
X171176793Y-137500087D01*
X172590246Y-136925819D01*
X172634360Y-136896343D01*
X173001305Y-136400910D01*
X170440000Y-133839605D01*
X167878695Y-136400910D01*
X141087440Y-136400910D01*
X141087440Y-136307440D01*
X142440000Y-136307440D01*
X142687765Y-136258157D01*
X142897809Y-136117809D01*
X143038157Y-135907765D01*
X143087440Y-135660000D01*
X143087440Y-135307440D01*
X147440000Y-135307440D01*
X147687765Y-135258157D01*
X147897809Y-135117809D01*
X148038157Y-134907765D01*
X148087440Y-134660000D01*
X148087440Y-134396793D01*
X166599913Y-134396793D01*
X167174181Y-135810246D01*
X167203657Y-135854360D01*
X167699090Y-136221305D01*
X170260395Y-133660000D01*
X170619605Y-133660000D01*
X173180910Y-136221305D01*
X173676343Y-135854360D01*
X174269736Y-134448829D01*
X174280087Y-132923207D01*
X173705819Y-131509754D01*
X173676343Y-131465640D01*
X173180910Y-131098695D01*
X170619605Y-133660000D01*
X170260395Y-133660000D01*
X167699090Y-131098695D01*
X167203657Y-131465640D01*
X166610264Y-132871171D01*
X166599913Y-134396793D01*
X148087440Y-134396793D01*
X148087440Y-131660000D01*
X148038157Y-131412235D01*
X147897809Y-131202191D01*
X147687765Y-131061843D01*
X147440000Y-131012560D01*
X143087440Y-131012560D01*
X143087440Y-130919090D01*
X167878695Y-130919090D01*
X170440000Y-133480395D01*
X173001305Y-130919090D01*
X172634360Y-130423657D01*
X171228829Y-129830264D01*
X169703207Y-129819913D01*
X168289754Y-130394181D01*
X168245640Y-130423657D01*
X167878695Y-130919090D01*
X143087440Y-130919090D01*
X143087440Y-130660000D01*
X143038157Y-130412235D01*
X142897809Y-130202191D01*
X142687765Y-130061843D01*
X142440000Y-130012560D01*
X141087440Y-130012560D01*
X141087440Y-129160000D01*
X141038157Y-128912235D01*
X140897809Y-128702191D01*
X140687765Y-128561843D01*
X140440000Y-128512560D01*
X136440000Y-128512560D01*
X136192235Y-128561843D01*
X135982191Y-128702191D01*
X135841843Y-128912235D01*
X135792560Y-129160000D01*
X135792560Y-130012560D01*
X134440000Y-130012560D01*
X134192235Y-130061843D01*
X133982191Y-130202191D01*
X133841843Y-130412235D01*
X133792560Y-130660000D01*
X133792560Y-131012560D01*
X129440000Y-131012560D01*
X129192235Y-131061843D01*
X128982191Y-131202191D01*
X128841843Y-131412235D01*
X128792560Y-131660000D01*
X127766863Y-131660000D01*
X127705819Y-131509754D01*
X127676343Y-131465640D01*
X127180910Y-131098695D01*
X124619605Y-133660000D01*
X124260395Y-133660000D01*
X121699090Y-131098695D01*
X121203657Y-131465640D01*
X120610264Y-132871171D01*
X120599913Y-134396793D01*
X120225344Y-134396793D01*
X120197501Y-134280819D01*
X120150000Y-133633970D01*
X120150000Y-130919090D01*
X121878695Y-130919090D01*
X124440000Y-133480395D01*
X127001305Y-130919090D01*
X126634360Y-130423657D01*
X125228829Y-129830264D01*
X123703207Y-129819913D01*
X122289754Y-130394181D01*
X122245640Y-130423657D01*
X121878695Y-130919090D01*
X120150000Y-130919090D01*
X120150000Y-108928471D01*
X140909238Y-108928471D01*
X140915561Y-109733589D01*
X141158342Y-110501257D01*
X141616116Y-111163600D01*
X142248409Y-111662060D01*
X142999317Y-111952564D01*
X143802450Y-112009429D01*
X144586799Y-111827626D01*
X145283017Y-111423231D01*
X145829549Y-110831996D01*
X146178073Y-110106195D01*
X146297776Y-109310000D01*
X146297442Y-109267468D01*
X146165248Y-108473251D01*
X145805366Y-107753015D01*
X145249615Y-107170437D01*
X144547131Y-106777027D01*
X143760023Y-106607567D01*
X142957882Y-106677040D01*
X142211630Y-106979303D01*
X141587245Y-107487633D01*
X141139931Y-108157085D01*
X140909238Y-108928471D01*
X120150000Y-108928471D01*
X120150000Y-94260000D01*
X165892560Y-94260000D01*
X165892560Y-96060000D01*
X165941843Y-96307765D01*
X166082191Y-96517809D01*
X166292235Y-96658157D01*
X166540000Y-96707440D01*
X168340000Y-96707440D01*
X168587765Y-96658157D01*
X168797809Y-96517809D01*
X168938157Y-96307765D01*
X168987440Y-96060000D01*
X168987440Y-94260000D01*
X168938157Y-94012235D01*
X168797809Y-93802191D01*
X168587765Y-93661843D01*
X168340000Y-93612560D01*
X166540000Y-93612560D01*
X166292235Y-93661843D01*
X166082191Y-93802191D01*
X165941843Y-94012235D01*
X165892560Y-94260000D01*
X120150000Y-94260000D01*
X120150000Y-87796890D01*
X122998524Y-87796890D01*
X123168355Y-88206924D01*
X123558642Y-88635183D01*
X124083108Y-88881486D01*
X124313000Y-88760819D01*
X124313000Y-87567000D01*
X124567000Y-87567000D01*
X124567000Y-88760819D01*
X124796892Y-88881486D01*
X125321358Y-88635183D01*
X125711645Y-88206924D01*
X125881476Y-87796890D01*
X125760155Y-87567000D01*
X124567000Y-87567000D01*
X124313000Y-87567000D01*
X123119845Y-87567000D01*
X122998524Y-87796890D01*
X120150000Y-87796890D01*
X120150000Y-85256890D01*
X122998524Y-85256890D01*
X123168355Y-85666924D01*
X123558642Y-86095183D01*
X123717954Y-86170000D01*
X123558642Y-86244817D01*
X123168355Y-86673076D01*
X122998524Y-87083110D01*
X123119845Y-87313000D01*
X124313000Y-87313000D01*
X124313000Y-85027000D01*
X124567000Y-85027000D01*
X124567000Y-87313000D01*
X125760155Y-87313000D01*
X125881476Y-87083110D01*
X125711645Y-86673076D01*
X125321358Y-86244817D01*
X125162046Y-86170000D01*
X125321358Y-86095183D01*
X125711645Y-85666924D01*
X125881476Y-85256890D01*
X125760155Y-85027000D01*
X124567000Y-85027000D01*
X124313000Y-85027000D01*
X123119845Y-85027000D01*
X122998524Y-85256890D01*
X120150000Y-85256890D01*
X120150000Y-82716890D01*
X122998524Y-82716890D01*
X123168355Y-83126924D01*
X123558642Y-83555183D01*
X123717954Y-83630000D01*
X123558642Y-83704817D01*
X123168355Y-84133076D01*
X122998524Y-84543110D01*
X123119845Y-84773000D01*
X124313000Y-84773000D01*
X124313000Y-82487000D01*
X124567000Y-82487000D01*
X124567000Y-84773000D01*
X125760155Y-84773000D01*
X125881476Y-84543110D01*
X125740967Y-84203870D01*
X135735735Y-84203870D01*
X135819382Y-84458022D01*
X136384711Y-84664077D01*
X136985861Y-84638105D01*
X137420618Y-84458022D01*
X137504265Y-84203870D01*
X136620000Y-83319605D01*
X135735735Y-84203870D01*
X125740967Y-84203870D01*
X125711645Y-84133076D01*
X125321358Y-83704817D01*
X125162046Y-83630000D01*
X125321358Y-83555183D01*
X125711645Y-83126924D01*
X125803682Y-82904711D01*
X135095923Y-82904711D01*
X135121895Y-83505861D01*
X135301978Y-83940618D01*
X135556130Y-84024265D01*
X136440395Y-83140000D01*
X136799605Y-83140000D01*
X137683870Y-84024265D01*
X137938022Y-83940618D01*
X138144077Y-83375289D01*
X138120914Y-82839145D01*
X148697500Y-82839145D01*
X148697500Y-83440855D01*
X148927764Y-83996763D01*
X149353237Y-84422236D01*
X149909145Y-84652500D01*
X150510855Y-84652500D01*
X151066763Y-84422236D01*
X151492236Y-83996763D01*
X151722500Y-83440855D01*
X151722500Y-82839145D01*
X151565454Y-82460000D01*
X165874928Y-82460000D01*
X165994062Y-83058927D01*
X166333327Y-83566673D01*
X166841073Y-83905938D01*
X167288818Y-83995000D01*
X167591182Y-83995000D01*
X168038927Y-83905938D01*
X168546673Y-83566673D01*
X168885938Y-83058927D01*
X169005072Y-82460000D01*
X168885938Y-81861073D01*
X168546673Y-81353327D01*
X168038927Y-81014062D01*
X167591182Y-80925000D01*
X167288818Y-80925000D01*
X166841073Y-81014062D01*
X166333327Y-81353327D01*
X165994062Y-81861073D01*
X165874928Y-82460000D01*
X151565454Y-82460000D01*
X151492236Y-82283237D01*
X151066763Y-81857764D01*
X150510855Y-81627500D01*
X149909145Y-81627500D01*
X149353237Y-81857764D01*
X148927764Y-82283237D01*
X148697500Y-82839145D01*
X138120914Y-82839145D01*
X138118105Y-82774139D01*
X137938022Y-82339382D01*
X137683870Y-82255735D01*
X136799605Y-83140000D01*
X136440395Y-83140000D01*
X135556130Y-82255735D01*
X135301978Y-82339382D01*
X135095923Y-82904711D01*
X125803682Y-82904711D01*
X125881476Y-82716890D01*
X125760155Y-82487000D01*
X124567000Y-82487000D01*
X124313000Y-82487000D01*
X123119845Y-82487000D01*
X122998524Y-82716890D01*
X120150000Y-82716890D01*
X120150000Y-80176890D01*
X122998524Y-80176890D01*
X123168355Y-80586924D01*
X123558642Y-81015183D01*
X123717954Y-81090000D01*
X123558642Y-81164817D01*
X123168355Y-81593076D01*
X122998524Y-82003110D01*
X123119845Y-82233000D01*
X124313000Y-82233000D01*
X124313000Y-79947000D01*
X124567000Y-79947000D01*
X124567000Y-82233000D01*
X125760155Y-82233000D01*
X125842940Y-82076130D01*
X135735735Y-82076130D01*
X136620000Y-82960395D01*
X137504265Y-82076130D01*
X137420618Y-81821978D01*
X136855289Y-81615923D01*
X136254139Y-81641895D01*
X135819382Y-81821978D01*
X135735735Y-82076130D01*
X125842940Y-82076130D01*
X125881476Y-82003110D01*
X125711645Y-81593076D01*
X125321358Y-81164817D01*
X125162046Y-81090000D01*
X125321358Y-81015183D01*
X125711645Y-80586924D01*
X125881476Y-80176890D01*
X125760155Y-79947000D01*
X124567000Y-79947000D01*
X124313000Y-79947000D01*
X123119845Y-79947000D01*
X122998524Y-80176890D01*
X120150000Y-80176890D01*
X120150000Y-77636890D01*
X122998524Y-77636890D01*
X123168355Y-78046924D01*
X123558642Y-78475183D01*
X123717954Y-78550000D01*
X123558642Y-78624817D01*
X123168355Y-79053076D01*
X122998524Y-79463110D01*
X123119845Y-79693000D01*
X124313000Y-79693000D01*
X124313000Y-77407000D01*
X124567000Y-77407000D01*
X124567000Y-79693000D01*
X125760155Y-79693000D01*
X125881476Y-79463110D01*
X125711645Y-79053076D01*
X125321358Y-78624817D01*
X125162046Y-78550000D01*
X125321358Y-78475183D01*
X125711645Y-78046924D01*
X125881476Y-77636890D01*
X125760155Y-77407000D01*
X124567000Y-77407000D01*
X124313000Y-77407000D01*
X123119845Y-77407000D01*
X122998524Y-77636890D01*
X120150000Y-77636890D01*
X120150000Y-74740000D01*
X122925908Y-74740000D01*
X123041161Y-75319418D01*
X123369375Y-75810625D01*
X123688478Y-76023843D01*
X123558642Y-76084817D01*
X123168355Y-76513076D01*
X122998524Y-76923110D01*
X123119845Y-77153000D01*
X124313000Y-77153000D01*
X124313000Y-77133000D01*
X124567000Y-77133000D01*
X124567000Y-77153000D01*
X125760155Y-77153000D01*
X125881476Y-76923110D01*
X125711645Y-76513076D01*
X125321358Y-76084817D01*
X125191522Y-76023843D01*
X125510625Y-75810625D01*
X125838839Y-75319418D01*
X125954092Y-74740000D01*
X125838839Y-74160582D01*
X125514599Y-73675322D01*
X129775000Y-73675322D01*
X129775000Y-74524678D01*
X130100034Y-75309380D01*
X130700620Y-75909966D01*
X131485322Y-76235000D01*
X132334678Y-76235000D01*
X133119380Y-75909966D01*
X133719966Y-75309380D01*
X134045000Y-74524678D01*
X134045000Y-73675322D01*
X160835000Y-73675322D01*
X160835000Y-74524678D01*
X161160034Y-75309380D01*
X161760620Y-75909966D01*
X162545322Y-76235000D01*
X163394678Y-76235000D01*
X164179380Y-75909966D01*
X164779966Y-75309380D01*
X165105000Y-74524678D01*
X165105000Y-73675322D01*
X164779966Y-72890620D01*
X164179380Y-72290034D01*
X163394678Y-71965000D01*
X162545322Y-71965000D01*
X161760620Y-72290034D01*
X161160034Y-72890620D01*
X160835000Y-73675322D01*
X134045000Y-73675322D01*
X133719966Y-72890620D01*
X133119380Y-72290034D01*
X132334678Y-71965000D01*
X131485322Y-71965000D01*
X130700620Y-72290034D01*
X130100034Y-72890620D01*
X129775000Y-73675322D01*
X125514599Y-73675322D01*
X125510625Y-73669375D01*
X125191522Y-73456157D01*
X125321358Y-73395183D01*
X125711645Y-72966924D01*
X125881476Y-72556890D01*
X125760155Y-72327000D01*
X124567000Y-72327000D01*
X124567000Y-72347000D01*
X124313000Y-72347000D01*
X124313000Y-72327000D01*
X123119845Y-72327000D01*
X122998524Y-72556890D01*
X123168355Y-72966924D01*
X123558642Y-73395183D01*
X123688478Y-73456157D01*
X123369375Y-73669375D01*
X123041161Y-74160582D01*
X122925908Y-74740000D01*
X120150000Y-74740000D01*
X120150000Y-68810000D01*
X122942560Y-68810000D01*
X122942560Y-70510000D01*
X122991843Y-70757765D01*
X123132191Y-70967809D01*
X123342235Y-71108157D01*
X123445708Y-71128739D01*
X123168355Y-71433076D01*
X122998524Y-71843110D01*
X123119845Y-72073000D01*
X124313000Y-72073000D01*
X124313000Y-72053000D01*
X124567000Y-72053000D01*
X124567000Y-72073000D01*
X125760155Y-72073000D01*
X125881476Y-71843110D01*
X125711645Y-71433076D01*
X125434292Y-71128739D01*
X125537765Y-71108157D01*
X125747809Y-70967809D01*
X125888157Y-70757765D01*
X125937440Y-70510000D01*
X125937440Y-68810000D01*
X125922317Y-68733970D01*
X130575635Y-68733970D01*
X130735418Y-69052739D01*
X131526187Y-69362723D01*
X132375387Y-69346497D01*
X133084582Y-69052739D01*
X133244365Y-68733970D01*
X161635635Y-68733970D01*
X161795418Y-69052739D01*
X162586187Y-69362723D01*
X163435387Y-69346497D01*
X164144582Y-69052739D01*
X164304365Y-68733970D01*
X162970000Y-67399605D01*
X161635635Y-68733970D01*
X133244365Y-68733970D01*
X131910000Y-67399605D01*
X130575635Y-68733970D01*
X125922317Y-68733970D01*
X125888157Y-68562235D01*
X125747809Y-68352191D01*
X125537765Y-68211843D01*
X125290000Y-68162560D01*
X123590000Y-68162560D01*
X123342235Y-68211843D01*
X123132191Y-68352191D01*
X122991843Y-68562235D01*
X122942560Y-68810000D01*
X120150000Y-68810000D01*
X120150000Y-66836187D01*
X129767277Y-66836187D01*
X129783503Y-67685387D01*
X130077261Y-68394582D01*
X130396030Y-68554365D01*
X131730395Y-67220000D01*
X132089605Y-67220000D01*
X133423970Y-68554365D01*
X133742739Y-68394582D01*
X134052723Y-67603813D01*
X134038056Y-66836187D01*
X160827277Y-66836187D01*
X160843503Y-67685387D01*
X161137261Y-68394582D01*
X161456030Y-68554365D01*
X162790395Y-67220000D01*
X163149605Y-67220000D01*
X164483970Y-68554365D01*
X164802739Y-68394582D01*
X165112723Y-67603813D01*
X165096497Y-66754613D01*
X164802739Y-66045418D01*
X164483970Y-65885635D01*
X163149605Y-67220000D01*
X162790395Y-67220000D01*
X161456030Y-65885635D01*
X161137261Y-66045418D01*
X160827277Y-66836187D01*
X134038056Y-66836187D01*
X134036497Y-66754613D01*
X133742739Y-66045418D01*
X133423970Y-65885635D01*
X132089605Y-67220000D01*
X131730395Y-67220000D01*
X130396030Y-65885635D01*
X130077261Y-66045418D01*
X129767277Y-66836187D01*
X120150000Y-66836187D01*
X120150000Y-65706030D01*
X130575635Y-65706030D01*
X131910000Y-67040395D01*
X133244365Y-65706030D01*
X161635635Y-65706030D01*
X162970000Y-67040395D01*
X164304365Y-65706030D01*
X164144582Y-65387261D01*
X163353813Y-65077277D01*
X162504613Y-65093503D01*
X161795418Y-65387261D01*
X161635635Y-65706030D01*
X133244365Y-65706030D01*
X133084582Y-65387261D01*
X132293813Y-65077277D01*
X131444613Y-65093503D01*
X130735418Y-65387261D01*
X130575635Y-65706030D01*
X120150000Y-65706030D01*
X120150000Y-62400910D01*
X121878695Y-62400910D01*
X122245640Y-62896343D01*
X123651171Y-63489736D01*
X125176793Y-63500087D01*
X126590246Y-62925819D01*
X126634360Y-62896343D01*
X127001305Y-62400910D01*
X167878695Y-62400910D01*
X168245640Y-62896343D01*
X169651171Y-63489736D01*
X171176793Y-63500087D01*
X172590246Y-62925819D01*
X172634360Y-62896343D01*
X173001305Y-62400910D01*
X170440000Y-59839605D01*
X167878695Y-62400910D01*
X127001305Y-62400910D01*
X124440000Y-59839605D01*
X121878695Y-62400910D01*
X120150000Y-62400910D01*
X120150000Y-60396793D01*
X120599913Y-60396793D01*
X121174181Y-61810246D01*
X121203657Y-61854360D01*
X121699090Y-62221305D01*
X124260395Y-59660000D01*
X124619605Y-59660000D01*
X127180910Y-62221305D01*
X127676343Y-61854360D01*
X128269736Y-60448829D01*
X128280087Y-58923207D01*
X128234093Y-58810000D01*
X137442560Y-58810000D01*
X137442560Y-60510000D01*
X137491843Y-60757765D01*
X137632191Y-60967809D01*
X137842235Y-61108157D01*
X138090000Y-61157440D01*
X139790000Y-61157440D01*
X140037765Y-61108157D01*
X140247809Y-60967809D01*
X140388157Y-60757765D01*
X140397184Y-60712381D01*
X140409375Y-60730625D01*
X140900582Y-61058839D01*
X141333744Y-61145000D01*
X141626256Y-61145000D01*
X142059418Y-61058839D01*
X142550625Y-60730625D01*
X142750000Y-60432239D01*
X142949375Y-60730625D01*
X143440582Y-61058839D01*
X143873744Y-61145000D01*
X144166256Y-61145000D01*
X144599418Y-61058839D01*
X145090625Y-60730625D01*
X145290000Y-60432239D01*
X145489375Y-60730625D01*
X145980582Y-61058839D01*
X146413744Y-61145000D01*
X146706256Y-61145000D01*
X147139418Y-61058839D01*
X147630625Y-60730625D01*
X147830000Y-60432239D01*
X148029375Y-60730625D01*
X148520582Y-61058839D01*
X148953744Y-61145000D01*
X149246256Y-61145000D01*
X149679418Y-61058839D01*
X150170625Y-60730625D01*
X150370000Y-60432239D01*
X150569375Y-60730625D01*
X151060582Y-61058839D01*
X151493744Y-61145000D01*
X151786256Y-61145000D01*
X152219418Y-61058839D01*
X152710625Y-60730625D01*
X152910000Y-60432239D01*
X153109375Y-60730625D01*
X153600582Y-61058839D01*
X154033744Y-61145000D01*
X154326256Y-61145000D01*
X154759418Y-61058839D01*
X155250625Y-60730625D01*
X155450000Y-60432239D01*
X155649375Y-60730625D01*
X156140582Y-61058839D01*
X156573744Y-61145000D01*
X156866256Y-61145000D01*
X157299418Y-61058839D01*
X157790625Y-60730625D01*
X158013684Y-60396793D01*
X166599913Y-60396793D01*
X167174181Y-61810246D01*
X167203657Y-61854360D01*
X167699090Y-62221305D01*
X170260395Y-59660000D01*
X170619605Y-59660000D01*
X173180910Y-62221305D01*
X173676343Y-61854360D01*
X174269736Y-60448829D01*
X174280087Y-58923207D01*
X173705819Y-57509754D01*
X173676343Y-57465640D01*
X173180910Y-57098695D01*
X170619605Y-59660000D01*
X170260395Y-59660000D01*
X167699090Y-57098695D01*
X167203657Y-57465640D01*
X166610264Y-58871171D01*
X166599913Y-60396793D01*
X158013684Y-60396793D01*
X158118839Y-60239418D01*
X158234092Y-59660000D01*
X158118839Y-59080582D01*
X157790625Y-58589375D01*
X157299418Y-58261161D01*
X156866256Y-58175000D01*
X156573744Y-58175000D01*
X156140582Y-58261161D01*
X155649375Y-58589375D01*
X155450000Y-58887761D01*
X155250625Y-58589375D01*
X154759418Y-58261161D01*
X154326256Y-58175000D01*
X154033744Y-58175000D01*
X153600582Y-58261161D01*
X153109375Y-58589375D01*
X152910000Y-58887761D01*
X152710625Y-58589375D01*
X152219418Y-58261161D01*
X151786256Y-58175000D01*
X151493744Y-58175000D01*
X151060582Y-58261161D01*
X150569375Y-58589375D01*
X150370000Y-58887761D01*
X150170625Y-58589375D01*
X149679418Y-58261161D01*
X149246256Y-58175000D01*
X148953744Y-58175000D01*
X148520582Y-58261161D01*
X148029375Y-58589375D01*
X147830000Y-58887761D01*
X147630625Y-58589375D01*
X147139418Y-58261161D01*
X146706256Y-58175000D01*
X146413744Y-58175000D01*
X145980582Y-58261161D01*
X145489375Y-58589375D01*
X145290000Y-58887761D01*
X145090625Y-58589375D01*
X144599418Y-58261161D01*
X144166256Y-58175000D01*
X143873744Y-58175000D01*
X143440582Y-58261161D01*
X142949375Y-58589375D01*
X142750000Y-58887761D01*
X142550625Y-58589375D01*
X142059418Y-58261161D01*
X141626256Y-58175000D01*
X141333744Y-58175000D01*
X140900582Y-58261161D01*
X140409375Y-58589375D01*
X140397184Y-58607619D01*
X140388157Y-58562235D01*
X140247809Y-58352191D01*
X140037765Y-58211843D01*
X139790000Y-58162560D01*
X138090000Y-58162560D01*
X137842235Y-58211843D01*
X137632191Y-58352191D01*
X137491843Y-58562235D01*
X137442560Y-58810000D01*
X128234093Y-58810000D01*
X127705819Y-57509754D01*
X127676343Y-57465640D01*
X127180910Y-57098695D01*
X124619605Y-59660000D01*
X124260395Y-59660000D01*
X121699090Y-57098695D01*
X121203657Y-57465640D01*
X120610264Y-58871171D01*
X120599913Y-60396793D01*
X120150000Y-60396793D01*
X120150000Y-59691618D01*
X120220578Y-58900808D01*
X120421705Y-58165611D01*
X120749846Y-57477649D01*
X121151211Y-56919090D01*
X121878695Y-56919090D01*
X124440000Y-59480395D01*
X127001305Y-56919090D01*
X167878695Y-56919090D01*
X170440000Y-59480395D01*
X173001305Y-56919090D01*
X172634360Y-56423657D01*
X171228829Y-55830264D01*
X169703207Y-55819913D01*
X168289754Y-56394181D01*
X168245640Y-56423657D01*
X167878695Y-56919090D01*
X127001305Y-56919090D01*
X126634360Y-56423657D01*
X125228829Y-55830264D01*
X123703207Y-55819913D01*
X122289754Y-56394181D01*
X122245640Y-56423657D01*
X121878695Y-56919090D01*
X121151211Y-56919090D01*
X121194628Y-56858669D01*
X121741988Y-56328239D01*
X122374639Y-55903116D01*
X123072561Y-55596749D01*
X123819183Y-55417501D01*
X124466030Y-55370000D01*
X170408382Y-55370000D01*
X171199192Y-55440578D01*
M02*
