M48
;DRILL file {KiCad 5.0.2+dfsg1-1} date Sun 10 Apr 2022 03:47:12 AM PDT
;FORMAT={-:-/ absolute / metric / decimal}
FMAT,2
METRIC,TZ
T1C0.400
T2C0.500
T3C0.900
T4C1.000
T5C1.170
T6C1.500
T7C3.200
%
G90
G05
T1
X154.7Y-95.41
T2
X168.04Y-133.66
X168.743Y-131.963
X168.743Y-135.357
X170.44Y-131.26
X170.44Y-136.06
X172.137Y-131.963
X172.137Y-135.357
X172.84Y-133.66
X168.04Y-59.66
X168.743Y-57.963
X168.743Y-61.357
X170.44Y-57.26
X170.44Y-62.06
X172.137Y-57.963
X172.137Y-61.357
X172.84Y-59.66
X122.04Y-59.66
X122.743Y-57.963
X122.743Y-61.357
X124.44Y-57.26
X124.44Y-62.06
X126.137Y-57.963
X126.137Y-61.357
X126.84Y-59.66
X122.04Y-133.66
X122.743Y-131.963
X122.743Y-135.357
X124.44Y-131.26
X124.44Y-136.06
X126.137Y-131.963
X126.137Y-135.357
X126.84Y-133.66
T3
X167.44Y-82.46
X167.44Y-95.16
T4
X138.94Y-59.66
X141.48Y-59.66
X144.02Y-59.66
X146.56Y-59.66
X149.1Y-59.66
X151.64Y-59.66
X154.18Y-59.66
X156.72Y-59.66
X124.44Y-69.66
X124.44Y-72.2
X124.44Y-74.74
X124.44Y-77.28
X124.44Y-79.82
X124.44Y-82.36
X124.44Y-84.9
X124.44Y-87.44
T5
X136.62Y-83.14
X150.21Y-83.14
T6
X131.91Y-67.22
X131.91Y-74.1
X162.97Y-67.22
X162.97Y-74.1
T7
X124.44Y-133.66
X170.44Y-133.66
X170.44Y-59.66
X124.44Y-59.66
T0
M30
