%TF.GenerationSoftware,KiCad,Pcbnew,5.0.2+dfsg1-1*%
%TF.CreationDate,2022-04-10T01:54:42-07:00*%
%TF.ProjectId,keygame,6b657967-616d-4652-9e6b-696361645f70,rev?*%
%TF.SameCoordinates,Original*%
%TF.FileFunction,Paste,Top*%
%TF.FilePolarity,Positive*%
%FSLAX46Y46*%
G04 Gerber Fmt 4.6, Leading zero omitted, Abs format (unit mm)*
G04 Created by KiCad (PCBNEW 5.0.2+dfsg1-1) date Sun 10 Apr 2022 01:54:42 AM PDT*
%MOMM*%
%LPD*%
G01*
G04 APERTURE LIST*
%ADD10C,0.100000*%
%ADD11C,1.150000*%
G04 APERTURE END LIST*
D10*
G36*
X139324505Y-88301204D02*
X139348773Y-88304804D01*
X139372572Y-88310765D01*
X139395671Y-88319030D01*
X139417850Y-88329520D01*
X139438893Y-88342132D01*
X139458599Y-88356747D01*
X139476777Y-88373223D01*
X139493253Y-88391401D01*
X139507868Y-88411107D01*
X139520480Y-88432150D01*
X139530970Y-88454329D01*
X139539235Y-88477428D01*
X139545196Y-88501227D01*
X139548796Y-88525495D01*
X139550000Y-88549999D01*
X139550000Y-89450001D01*
X139548796Y-89474505D01*
X139545196Y-89498773D01*
X139539235Y-89522572D01*
X139530970Y-89545671D01*
X139520480Y-89567850D01*
X139507868Y-89588893D01*
X139493253Y-89608599D01*
X139476777Y-89626777D01*
X139458599Y-89643253D01*
X139438893Y-89657868D01*
X139417850Y-89670480D01*
X139395671Y-89680970D01*
X139372572Y-89689235D01*
X139348773Y-89695196D01*
X139324505Y-89698796D01*
X139300001Y-89700000D01*
X138649999Y-89700000D01*
X138625495Y-89698796D01*
X138601227Y-89695196D01*
X138577428Y-89689235D01*
X138554329Y-89680970D01*
X138532150Y-89670480D01*
X138511107Y-89657868D01*
X138491401Y-89643253D01*
X138473223Y-89626777D01*
X138456747Y-89608599D01*
X138442132Y-89588893D01*
X138429520Y-89567850D01*
X138419030Y-89545671D01*
X138410765Y-89522572D01*
X138404804Y-89498773D01*
X138401204Y-89474505D01*
X138400000Y-89450001D01*
X138400000Y-88549999D01*
X138401204Y-88525495D01*
X138404804Y-88501227D01*
X138410765Y-88477428D01*
X138419030Y-88454329D01*
X138429520Y-88432150D01*
X138442132Y-88411107D01*
X138456747Y-88391401D01*
X138473223Y-88373223D01*
X138491401Y-88356747D01*
X138511107Y-88342132D01*
X138532150Y-88329520D01*
X138554329Y-88319030D01*
X138577428Y-88310765D01*
X138601227Y-88304804D01*
X138625495Y-88301204D01*
X138649999Y-88300000D01*
X139300001Y-88300000D01*
X139324505Y-88301204D01*
X139324505Y-88301204D01*
G37*
D11*
X138975000Y-89000000D03*
D10*
G36*
X141374505Y-88301204D02*
X141398773Y-88304804D01*
X141422572Y-88310765D01*
X141445671Y-88319030D01*
X141467850Y-88329520D01*
X141488893Y-88342132D01*
X141508599Y-88356747D01*
X141526777Y-88373223D01*
X141543253Y-88391401D01*
X141557868Y-88411107D01*
X141570480Y-88432150D01*
X141580970Y-88454329D01*
X141589235Y-88477428D01*
X141595196Y-88501227D01*
X141598796Y-88525495D01*
X141600000Y-88549999D01*
X141600000Y-89450001D01*
X141598796Y-89474505D01*
X141595196Y-89498773D01*
X141589235Y-89522572D01*
X141580970Y-89545671D01*
X141570480Y-89567850D01*
X141557868Y-89588893D01*
X141543253Y-89608599D01*
X141526777Y-89626777D01*
X141508599Y-89643253D01*
X141488893Y-89657868D01*
X141467850Y-89670480D01*
X141445671Y-89680970D01*
X141422572Y-89689235D01*
X141398773Y-89695196D01*
X141374505Y-89698796D01*
X141350001Y-89700000D01*
X140699999Y-89700000D01*
X140675495Y-89698796D01*
X140651227Y-89695196D01*
X140627428Y-89689235D01*
X140604329Y-89680970D01*
X140582150Y-89670480D01*
X140561107Y-89657868D01*
X140541401Y-89643253D01*
X140523223Y-89626777D01*
X140506747Y-89608599D01*
X140492132Y-89588893D01*
X140479520Y-89567850D01*
X140469030Y-89545671D01*
X140460765Y-89522572D01*
X140454804Y-89498773D01*
X140451204Y-89474505D01*
X140450000Y-89450001D01*
X140450000Y-88549999D01*
X140451204Y-88525495D01*
X140454804Y-88501227D01*
X140460765Y-88477428D01*
X140469030Y-88454329D01*
X140479520Y-88432150D01*
X140492132Y-88411107D01*
X140506747Y-88391401D01*
X140523223Y-88373223D01*
X140541401Y-88356747D01*
X140561107Y-88342132D01*
X140582150Y-88329520D01*
X140604329Y-88319030D01*
X140627428Y-88310765D01*
X140651227Y-88304804D01*
X140675495Y-88301204D01*
X140699999Y-88300000D01*
X141350001Y-88300000D01*
X141374505Y-88301204D01*
X141374505Y-88301204D01*
G37*
D11*
X141025000Y-89000000D03*
D10*
G36*
X135324505Y-82301204D02*
X135348773Y-82304804D01*
X135372572Y-82310765D01*
X135395671Y-82319030D01*
X135417850Y-82329520D01*
X135438893Y-82342132D01*
X135458599Y-82356747D01*
X135476777Y-82373223D01*
X135493253Y-82391401D01*
X135507868Y-82411107D01*
X135520480Y-82432150D01*
X135530970Y-82454329D01*
X135539235Y-82477428D01*
X135545196Y-82501227D01*
X135548796Y-82525495D01*
X135550000Y-82549999D01*
X135550000Y-83450001D01*
X135548796Y-83474505D01*
X135545196Y-83498773D01*
X135539235Y-83522572D01*
X135530970Y-83545671D01*
X135520480Y-83567850D01*
X135507868Y-83588893D01*
X135493253Y-83608599D01*
X135476777Y-83626777D01*
X135458599Y-83643253D01*
X135438893Y-83657868D01*
X135417850Y-83670480D01*
X135395671Y-83680970D01*
X135372572Y-83689235D01*
X135348773Y-83695196D01*
X135324505Y-83698796D01*
X135300001Y-83700000D01*
X134649999Y-83700000D01*
X134625495Y-83698796D01*
X134601227Y-83695196D01*
X134577428Y-83689235D01*
X134554329Y-83680970D01*
X134532150Y-83670480D01*
X134511107Y-83657868D01*
X134491401Y-83643253D01*
X134473223Y-83626777D01*
X134456747Y-83608599D01*
X134442132Y-83588893D01*
X134429520Y-83567850D01*
X134419030Y-83545671D01*
X134410765Y-83522572D01*
X134404804Y-83498773D01*
X134401204Y-83474505D01*
X134400000Y-83450001D01*
X134400000Y-82549999D01*
X134401204Y-82525495D01*
X134404804Y-82501227D01*
X134410765Y-82477428D01*
X134419030Y-82454329D01*
X134429520Y-82432150D01*
X134442132Y-82411107D01*
X134456747Y-82391401D01*
X134473223Y-82373223D01*
X134491401Y-82356747D01*
X134511107Y-82342132D01*
X134532150Y-82329520D01*
X134554329Y-82319030D01*
X134577428Y-82310765D01*
X134601227Y-82304804D01*
X134625495Y-82301204D01*
X134649999Y-82300000D01*
X135300001Y-82300000D01*
X135324505Y-82301204D01*
X135324505Y-82301204D01*
G37*
D11*
X134975000Y-83000000D03*
D10*
G36*
X137374505Y-82301204D02*
X137398773Y-82304804D01*
X137422572Y-82310765D01*
X137445671Y-82319030D01*
X137467850Y-82329520D01*
X137488893Y-82342132D01*
X137508599Y-82356747D01*
X137526777Y-82373223D01*
X137543253Y-82391401D01*
X137557868Y-82411107D01*
X137570480Y-82432150D01*
X137580970Y-82454329D01*
X137589235Y-82477428D01*
X137595196Y-82501227D01*
X137598796Y-82525495D01*
X137600000Y-82549999D01*
X137600000Y-83450001D01*
X137598796Y-83474505D01*
X137595196Y-83498773D01*
X137589235Y-83522572D01*
X137580970Y-83545671D01*
X137570480Y-83567850D01*
X137557868Y-83588893D01*
X137543253Y-83608599D01*
X137526777Y-83626777D01*
X137508599Y-83643253D01*
X137488893Y-83657868D01*
X137467850Y-83670480D01*
X137445671Y-83680970D01*
X137422572Y-83689235D01*
X137398773Y-83695196D01*
X137374505Y-83698796D01*
X137350001Y-83700000D01*
X136699999Y-83700000D01*
X136675495Y-83698796D01*
X136651227Y-83695196D01*
X136627428Y-83689235D01*
X136604329Y-83680970D01*
X136582150Y-83670480D01*
X136561107Y-83657868D01*
X136541401Y-83643253D01*
X136523223Y-83626777D01*
X136506747Y-83608599D01*
X136492132Y-83588893D01*
X136479520Y-83567850D01*
X136469030Y-83545671D01*
X136460765Y-83522572D01*
X136454804Y-83498773D01*
X136451204Y-83474505D01*
X136450000Y-83450001D01*
X136450000Y-82549999D01*
X136451204Y-82525495D01*
X136454804Y-82501227D01*
X136460765Y-82477428D01*
X136469030Y-82454329D01*
X136479520Y-82432150D01*
X136492132Y-82411107D01*
X136506747Y-82391401D01*
X136523223Y-82373223D01*
X136541401Y-82356747D01*
X136561107Y-82342132D01*
X136582150Y-82329520D01*
X136604329Y-82319030D01*
X136627428Y-82310765D01*
X136651227Y-82304804D01*
X136675495Y-82301204D01*
X136699999Y-82300000D01*
X137350001Y-82300000D01*
X137374505Y-82301204D01*
X137374505Y-82301204D01*
G37*
D11*
X137025000Y-83000000D03*
D10*
G36*
X148299505Y-79301204D02*
X148323773Y-79304804D01*
X148347572Y-79310765D01*
X148370671Y-79319030D01*
X148392850Y-79329520D01*
X148413893Y-79342132D01*
X148433599Y-79356747D01*
X148451777Y-79373223D01*
X148468253Y-79391401D01*
X148482868Y-79411107D01*
X148495480Y-79432150D01*
X148505970Y-79454329D01*
X148514235Y-79477428D01*
X148520196Y-79501227D01*
X148523796Y-79525495D01*
X148525000Y-79549999D01*
X148525000Y-80450001D01*
X148523796Y-80474505D01*
X148520196Y-80498773D01*
X148514235Y-80522572D01*
X148505970Y-80545671D01*
X148495480Y-80567850D01*
X148482868Y-80588893D01*
X148468253Y-80608599D01*
X148451777Y-80626777D01*
X148433599Y-80643253D01*
X148413893Y-80657868D01*
X148392850Y-80670480D01*
X148370671Y-80680970D01*
X148347572Y-80689235D01*
X148323773Y-80695196D01*
X148299505Y-80698796D01*
X148275001Y-80700000D01*
X147624999Y-80700000D01*
X147600495Y-80698796D01*
X147576227Y-80695196D01*
X147552428Y-80689235D01*
X147529329Y-80680970D01*
X147507150Y-80670480D01*
X147486107Y-80657868D01*
X147466401Y-80643253D01*
X147448223Y-80626777D01*
X147431747Y-80608599D01*
X147417132Y-80588893D01*
X147404520Y-80567850D01*
X147394030Y-80545671D01*
X147385765Y-80522572D01*
X147379804Y-80498773D01*
X147376204Y-80474505D01*
X147375000Y-80450001D01*
X147375000Y-79549999D01*
X147376204Y-79525495D01*
X147379804Y-79501227D01*
X147385765Y-79477428D01*
X147394030Y-79454329D01*
X147404520Y-79432150D01*
X147417132Y-79411107D01*
X147431747Y-79391401D01*
X147448223Y-79373223D01*
X147466401Y-79356747D01*
X147486107Y-79342132D01*
X147507150Y-79329520D01*
X147529329Y-79319030D01*
X147552428Y-79310765D01*
X147576227Y-79304804D01*
X147600495Y-79301204D01*
X147624999Y-79300000D01*
X148275001Y-79300000D01*
X148299505Y-79301204D01*
X148299505Y-79301204D01*
G37*
D11*
X147950000Y-80000000D03*
D10*
G36*
X150349505Y-79301204D02*
X150373773Y-79304804D01*
X150397572Y-79310765D01*
X150420671Y-79319030D01*
X150442850Y-79329520D01*
X150463893Y-79342132D01*
X150483599Y-79356747D01*
X150501777Y-79373223D01*
X150518253Y-79391401D01*
X150532868Y-79411107D01*
X150545480Y-79432150D01*
X150555970Y-79454329D01*
X150564235Y-79477428D01*
X150570196Y-79501227D01*
X150573796Y-79525495D01*
X150575000Y-79549999D01*
X150575000Y-80450001D01*
X150573796Y-80474505D01*
X150570196Y-80498773D01*
X150564235Y-80522572D01*
X150555970Y-80545671D01*
X150545480Y-80567850D01*
X150532868Y-80588893D01*
X150518253Y-80608599D01*
X150501777Y-80626777D01*
X150483599Y-80643253D01*
X150463893Y-80657868D01*
X150442850Y-80670480D01*
X150420671Y-80680970D01*
X150397572Y-80689235D01*
X150373773Y-80695196D01*
X150349505Y-80698796D01*
X150325001Y-80700000D01*
X149674999Y-80700000D01*
X149650495Y-80698796D01*
X149626227Y-80695196D01*
X149602428Y-80689235D01*
X149579329Y-80680970D01*
X149557150Y-80670480D01*
X149536107Y-80657868D01*
X149516401Y-80643253D01*
X149498223Y-80626777D01*
X149481747Y-80608599D01*
X149467132Y-80588893D01*
X149454520Y-80567850D01*
X149444030Y-80545671D01*
X149435765Y-80522572D01*
X149429804Y-80498773D01*
X149426204Y-80474505D01*
X149425000Y-80450001D01*
X149425000Y-79549999D01*
X149426204Y-79525495D01*
X149429804Y-79501227D01*
X149435765Y-79477428D01*
X149444030Y-79454329D01*
X149454520Y-79432150D01*
X149467132Y-79411107D01*
X149481747Y-79391401D01*
X149498223Y-79373223D01*
X149516401Y-79356747D01*
X149536107Y-79342132D01*
X149557150Y-79329520D01*
X149579329Y-79319030D01*
X149602428Y-79310765D01*
X149626227Y-79304804D01*
X149650495Y-79301204D01*
X149674999Y-79300000D01*
X150325001Y-79300000D01*
X150349505Y-79301204D01*
X150349505Y-79301204D01*
G37*
D11*
X150000000Y-80000000D03*
D10*
G36*
X141374505Y-70301204D02*
X141398773Y-70304804D01*
X141422572Y-70310765D01*
X141445671Y-70319030D01*
X141467850Y-70329520D01*
X141488893Y-70342132D01*
X141508599Y-70356747D01*
X141526777Y-70373223D01*
X141543253Y-70391401D01*
X141557868Y-70411107D01*
X141570480Y-70432150D01*
X141580970Y-70454329D01*
X141589235Y-70477428D01*
X141595196Y-70501227D01*
X141598796Y-70525495D01*
X141600000Y-70549999D01*
X141600000Y-71450001D01*
X141598796Y-71474505D01*
X141595196Y-71498773D01*
X141589235Y-71522572D01*
X141580970Y-71545671D01*
X141570480Y-71567850D01*
X141557868Y-71588893D01*
X141543253Y-71608599D01*
X141526777Y-71626777D01*
X141508599Y-71643253D01*
X141488893Y-71657868D01*
X141467850Y-71670480D01*
X141445671Y-71680970D01*
X141422572Y-71689235D01*
X141398773Y-71695196D01*
X141374505Y-71698796D01*
X141350001Y-71700000D01*
X140699999Y-71700000D01*
X140675495Y-71698796D01*
X140651227Y-71695196D01*
X140627428Y-71689235D01*
X140604329Y-71680970D01*
X140582150Y-71670480D01*
X140561107Y-71657868D01*
X140541401Y-71643253D01*
X140523223Y-71626777D01*
X140506747Y-71608599D01*
X140492132Y-71588893D01*
X140479520Y-71567850D01*
X140469030Y-71545671D01*
X140460765Y-71522572D01*
X140454804Y-71498773D01*
X140451204Y-71474505D01*
X140450000Y-71450001D01*
X140450000Y-70549999D01*
X140451204Y-70525495D01*
X140454804Y-70501227D01*
X140460765Y-70477428D01*
X140469030Y-70454329D01*
X140479520Y-70432150D01*
X140492132Y-70411107D01*
X140506747Y-70391401D01*
X140523223Y-70373223D01*
X140541401Y-70356747D01*
X140561107Y-70342132D01*
X140582150Y-70329520D01*
X140604329Y-70319030D01*
X140627428Y-70310765D01*
X140651227Y-70304804D01*
X140675495Y-70301204D01*
X140699999Y-70300000D01*
X141350001Y-70300000D01*
X141374505Y-70301204D01*
X141374505Y-70301204D01*
G37*
D11*
X141025000Y-71000000D03*
D10*
G36*
X139324505Y-70301204D02*
X139348773Y-70304804D01*
X139372572Y-70310765D01*
X139395671Y-70319030D01*
X139417850Y-70329520D01*
X139438893Y-70342132D01*
X139458599Y-70356747D01*
X139476777Y-70373223D01*
X139493253Y-70391401D01*
X139507868Y-70411107D01*
X139520480Y-70432150D01*
X139530970Y-70454329D01*
X139539235Y-70477428D01*
X139545196Y-70501227D01*
X139548796Y-70525495D01*
X139550000Y-70549999D01*
X139550000Y-71450001D01*
X139548796Y-71474505D01*
X139545196Y-71498773D01*
X139539235Y-71522572D01*
X139530970Y-71545671D01*
X139520480Y-71567850D01*
X139507868Y-71588893D01*
X139493253Y-71608599D01*
X139476777Y-71626777D01*
X139458599Y-71643253D01*
X139438893Y-71657868D01*
X139417850Y-71670480D01*
X139395671Y-71680970D01*
X139372572Y-71689235D01*
X139348773Y-71695196D01*
X139324505Y-71698796D01*
X139300001Y-71700000D01*
X138649999Y-71700000D01*
X138625495Y-71698796D01*
X138601227Y-71695196D01*
X138577428Y-71689235D01*
X138554329Y-71680970D01*
X138532150Y-71670480D01*
X138511107Y-71657868D01*
X138491401Y-71643253D01*
X138473223Y-71626777D01*
X138456747Y-71608599D01*
X138442132Y-71588893D01*
X138429520Y-71567850D01*
X138419030Y-71545671D01*
X138410765Y-71522572D01*
X138404804Y-71498773D01*
X138401204Y-71474505D01*
X138400000Y-71450001D01*
X138400000Y-70549999D01*
X138401204Y-70525495D01*
X138404804Y-70501227D01*
X138410765Y-70477428D01*
X138419030Y-70454329D01*
X138429520Y-70432150D01*
X138442132Y-70411107D01*
X138456747Y-70391401D01*
X138473223Y-70373223D01*
X138491401Y-70356747D01*
X138511107Y-70342132D01*
X138532150Y-70329520D01*
X138554329Y-70319030D01*
X138577428Y-70310765D01*
X138601227Y-70304804D01*
X138625495Y-70301204D01*
X138649999Y-70300000D01*
X139300001Y-70300000D01*
X139324505Y-70301204D01*
X139324505Y-70301204D01*
G37*
D11*
X138975000Y-71000000D03*
D10*
G36*
X186374505Y-78301204D02*
X186398773Y-78304804D01*
X186422572Y-78310765D01*
X186445671Y-78319030D01*
X186467850Y-78329520D01*
X186488893Y-78342132D01*
X186508599Y-78356747D01*
X186526777Y-78373223D01*
X186543253Y-78391401D01*
X186557868Y-78411107D01*
X186570480Y-78432150D01*
X186580970Y-78454329D01*
X186589235Y-78477428D01*
X186595196Y-78501227D01*
X186598796Y-78525495D01*
X186600000Y-78549999D01*
X186600000Y-79450001D01*
X186598796Y-79474505D01*
X186595196Y-79498773D01*
X186589235Y-79522572D01*
X186580970Y-79545671D01*
X186570480Y-79567850D01*
X186557868Y-79588893D01*
X186543253Y-79608599D01*
X186526777Y-79626777D01*
X186508599Y-79643253D01*
X186488893Y-79657868D01*
X186467850Y-79670480D01*
X186445671Y-79680970D01*
X186422572Y-79689235D01*
X186398773Y-79695196D01*
X186374505Y-79698796D01*
X186350001Y-79700000D01*
X185699999Y-79700000D01*
X185675495Y-79698796D01*
X185651227Y-79695196D01*
X185627428Y-79689235D01*
X185604329Y-79680970D01*
X185582150Y-79670480D01*
X185561107Y-79657868D01*
X185541401Y-79643253D01*
X185523223Y-79626777D01*
X185506747Y-79608599D01*
X185492132Y-79588893D01*
X185479520Y-79567850D01*
X185469030Y-79545671D01*
X185460765Y-79522572D01*
X185454804Y-79498773D01*
X185451204Y-79474505D01*
X185450000Y-79450001D01*
X185450000Y-78549999D01*
X185451204Y-78525495D01*
X185454804Y-78501227D01*
X185460765Y-78477428D01*
X185469030Y-78454329D01*
X185479520Y-78432150D01*
X185492132Y-78411107D01*
X185506747Y-78391401D01*
X185523223Y-78373223D01*
X185541401Y-78356747D01*
X185561107Y-78342132D01*
X185582150Y-78329520D01*
X185604329Y-78319030D01*
X185627428Y-78310765D01*
X185651227Y-78304804D01*
X185675495Y-78301204D01*
X185699999Y-78300000D01*
X186350001Y-78300000D01*
X186374505Y-78301204D01*
X186374505Y-78301204D01*
G37*
D11*
X186025000Y-79000000D03*
D10*
G36*
X184324505Y-78301204D02*
X184348773Y-78304804D01*
X184372572Y-78310765D01*
X184395671Y-78319030D01*
X184417850Y-78329520D01*
X184438893Y-78342132D01*
X184458599Y-78356747D01*
X184476777Y-78373223D01*
X184493253Y-78391401D01*
X184507868Y-78411107D01*
X184520480Y-78432150D01*
X184530970Y-78454329D01*
X184539235Y-78477428D01*
X184545196Y-78501227D01*
X184548796Y-78525495D01*
X184550000Y-78549999D01*
X184550000Y-79450001D01*
X184548796Y-79474505D01*
X184545196Y-79498773D01*
X184539235Y-79522572D01*
X184530970Y-79545671D01*
X184520480Y-79567850D01*
X184507868Y-79588893D01*
X184493253Y-79608599D01*
X184476777Y-79626777D01*
X184458599Y-79643253D01*
X184438893Y-79657868D01*
X184417850Y-79670480D01*
X184395671Y-79680970D01*
X184372572Y-79689235D01*
X184348773Y-79695196D01*
X184324505Y-79698796D01*
X184300001Y-79700000D01*
X183649999Y-79700000D01*
X183625495Y-79698796D01*
X183601227Y-79695196D01*
X183577428Y-79689235D01*
X183554329Y-79680970D01*
X183532150Y-79670480D01*
X183511107Y-79657868D01*
X183491401Y-79643253D01*
X183473223Y-79626777D01*
X183456747Y-79608599D01*
X183442132Y-79588893D01*
X183429520Y-79567850D01*
X183419030Y-79545671D01*
X183410765Y-79522572D01*
X183404804Y-79498773D01*
X183401204Y-79474505D01*
X183400000Y-79450001D01*
X183400000Y-78549999D01*
X183401204Y-78525495D01*
X183404804Y-78501227D01*
X183410765Y-78477428D01*
X183419030Y-78454329D01*
X183429520Y-78432150D01*
X183442132Y-78411107D01*
X183456747Y-78391401D01*
X183473223Y-78373223D01*
X183491401Y-78356747D01*
X183511107Y-78342132D01*
X183532150Y-78329520D01*
X183554329Y-78319030D01*
X183577428Y-78310765D01*
X183601227Y-78304804D01*
X183625495Y-78301204D01*
X183649999Y-78300000D01*
X184300001Y-78300000D01*
X184324505Y-78301204D01*
X184324505Y-78301204D01*
G37*
D11*
X183975000Y-79000000D03*
D10*
G36*
X165324505Y-80301204D02*
X165348773Y-80304804D01*
X165372572Y-80310765D01*
X165395671Y-80319030D01*
X165417850Y-80329520D01*
X165438893Y-80342132D01*
X165458599Y-80356747D01*
X165476777Y-80373223D01*
X165493253Y-80391401D01*
X165507868Y-80411107D01*
X165520480Y-80432150D01*
X165530970Y-80454329D01*
X165539235Y-80477428D01*
X165545196Y-80501227D01*
X165548796Y-80525495D01*
X165550000Y-80549999D01*
X165550000Y-81450001D01*
X165548796Y-81474505D01*
X165545196Y-81498773D01*
X165539235Y-81522572D01*
X165530970Y-81545671D01*
X165520480Y-81567850D01*
X165507868Y-81588893D01*
X165493253Y-81608599D01*
X165476777Y-81626777D01*
X165458599Y-81643253D01*
X165438893Y-81657868D01*
X165417850Y-81670480D01*
X165395671Y-81680970D01*
X165372572Y-81689235D01*
X165348773Y-81695196D01*
X165324505Y-81698796D01*
X165300001Y-81700000D01*
X164649999Y-81700000D01*
X164625495Y-81698796D01*
X164601227Y-81695196D01*
X164577428Y-81689235D01*
X164554329Y-81680970D01*
X164532150Y-81670480D01*
X164511107Y-81657868D01*
X164491401Y-81643253D01*
X164473223Y-81626777D01*
X164456747Y-81608599D01*
X164442132Y-81588893D01*
X164429520Y-81567850D01*
X164419030Y-81545671D01*
X164410765Y-81522572D01*
X164404804Y-81498773D01*
X164401204Y-81474505D01*
X164400000Y-81450001D01*
X164400000Y-80549999D01*
X164401204Y-80525495D01*
X164404804Y-80501227D01*
X164410765Y-80477428D01*
X164419030Y-80454329D01*
X164429520Y-80432150D01*
X164442132Y-80411107D01*
X164456747Y-80391401D01*
X164473223Y-80373223D01*
X164491401Y-80356747D01*
X164511107Y-80342132D01*
X164532150Y-80329520D01*
X164554329Y-80319030D01*
X164577428Y-80310765D01*
X164601227Y-80304804D01*
X164625495Y-80301204D01*
X164649999Y-80300000D01*
X165300001Y-80300000D01*
X165324505Y-80301204D01*
X165324505Y-80301204D01*
G37*
D11*
X164975000Y-81000000D03*
D10*
G36*
X167374505Y-80301204D02*
X167398773Y-80304804D01*
X167422572Y-80310765D01*
X167445671Y-80319030D01*
X167467850Y-80329520D01*
X167488893Y-80342132D01*
X167508599Y-80356747D01*
X167526777Y-80373223D01*
X167543253Y-80391401D01*
X167557868Y-80411107D01*
X167570480Y-80432150D01*
X167580970Y-80454329D01*
X167589235Y-80477428D01*
X167595196Y-80501227D01*
X167598796Y-80525495D01*
X167600000Y-80549999D01*
X167600000Y-81450001D01*
X167598796Y-81474505D01*
X167595196Y-81498773D01*
X167589235Y-81522572D01*
X167580970Y-81545671D01*
X167570480Y-81567850D01*
X167557868Y-81588893D01*
X167543253Y-81608599D01*
X167526777Y-81626777D01*
X167508599Y-81643253D01*
X167488893Y-81657868D01*
X167467850Y-81670480D01*
X167445671Y-81680970D01*
X167422572Y-81689235D01*
X167398773Y-81695196D01*
X167374505Y-81698796D01*
X167350001Y-81700000D01*
X166699999Y-81700000D01*
X166675495Y-81698796D01*
X166651227Y-81695196D01*
X166627428Y-81689235D01*
X166604329Y-81680970D01*
X166582150Y-81670480D01*
X166561107Y-81657868D01*
X166541401Y-81643253D01*
X166523223Y-81626777D01*
X166506747Y-81608599D01*
X166492132Y-81588893D01*
X166479520Y-81567850D01*
X166469030Y-81545671D01*
X166460765Y-81522572D01*
X166454804Y-81498773D01*
X166451204Y-81474505D01*
X166450000Y-81450001D01*
X166450000Y-80549999D01*
X166451204Y-80525495D01*
X166454804Y-80501227D01*
X166460765Y-80477428D01*
X166469030Y-80454329D01*
X166479520Y-80432150D01*
X166492132Y-80411107D01*
X166506747Y-80391401D01*
X166523223Y-80373223D01*
X166541401Y-80356747D01*
X166561107Y-80342132D01*
X166582150Y-80329520D01*
X166604329Y-80319030D01*
X166627428Y-80310765D01*
X166651227Y-80304804D01*
X166675495Y-80301204D01*
X166699999Y-80300000D01*
X167350001Y-80300000D01*
X167374505Y-80301204D01*
X167374505Y-80301204D01*
G37*
D11*
X167025000Y-81000000D03*
D10*
G36*
X175364505Y-72001204D02*
X175388773Y-72004804D01*
X175412572Y-72010765D01*
X175435671Y-72019030D01*
X175457850Y-72029520D01*
X175478893Y-72042132D01*
X175498599Y-72056747D01*
X175516777Y-72073223D01*
X175533253Y-72091401D01*
X175547868Y-72111107D01*
X175560480Y-72132150D01*
X175570970Y-72154329D01*
X175579235Y-72177428D01*
X175585196Y-72201227D01*
X175588796Y-72225495D01*
X175590000Y-72249999D01*
X175590000Y-73150001D01*
X175588796Y-73174505D01*
X175585196Y-73198773D01*
X175579235Y-73222572D01*
X175570970Y-73245671D01*
X175560480Y-73267850D01*
X175547868Y-73288893D01*
X175533253Y-73308599D01*
X175516777Y-73326777D01*
X175498599Y-73343253D01*
X175478893Y-73357868D01*
X175457850Y-73370480D01*
X175435671Y-73380970D01*
X175412572Y-73389235D01*
X175388773Y-73395196D01*
X175364505Y-73398796D01*
X175340001Y-73400000D01*
X174689999Y-73400000D01*
X174665495Y-73398796D01*
X174641227Y-73395196D01*
X174617428Y-73389235D01*
X174594329Y-73380970D01*
X174572150Y-73370480D01*
X174551107Y-73357868D01*
X174531401Y-73343253D01*
X174513223Y-73326777D01*
X174496747Y-73308599D01*
X174482132Y-73288893D01*
X174469520Y-73267850D01*
X174459030Y-73245671D01*
X174450765Y-73222572D01*
X174444804Y-73198773D01*
X174441204Y-73174505D01*
X174440000Y-73150001D01*
X174440000Y-72249999D01*
X174441204Y-72225495D01*
X174444804Y-72201227D01*
X174450765Y-72177428D01*
X174459030Y-72154329D01*
X174469520Y-72132150D01*
X174482132Y-72111107D01*
X174496747Y-72091401D01*
X174513223Y-72073223D01*
X174531401Y-72056747D01*
X174551107Y-72042132D01*
X174572150Y-72029520D01*
X174594329Y-72019030D01*
X174617428Y-72010765D01*
X174641227Y-72004804D01*
X174665495Y-72001204D01*
X174689999Y-72000000D01*
X175340001Y-72000000D01*
X175364505Y-72001204D01*
X175364505Y-72001204D01*
G37*
D11*
X175015000Y-72700000D03*
D10*
G36*
X173314505Y-72001204D02*
X173338773Y-72004804D01*
X173362572Y-72010765D01*
X173385671Y-72019030D01*
X173407850Y-72029520D01*
X173428893Y-72042132D01*
X173448599Y-72056747D01*
X173466777Y-72073223D01*
X173483253Y-72091401D01*
X173497868Y-72111107D01*
X173510480Y-72132150D01*
X173520970Y-72154329D01*
X173529235Y-72177428D01*
X173535196Y-72201227D01*
X173538796Y-72225495D01*
X173540000Y-72249999D01*
X173540000Y-73150001D01*
X173538796Y-73174505D01*
X173535196Y-73198773D01*
X173529235Y-73222572D01*
X173520970Y-73245671D01*
X173510480Y-73267850D01*
X173497868Y-73288893D01*
X173483253Y-73308599D01*
X173466777Y-73326777D01*
X173448599Y-73343253D01*
X173428893Y-73357868D01*
X173407850Y-73370480D01*
X173385671Y-73380970D01*
X173362572Y-73389235D01*
X173338773Y-73395196D01*
X173314505Y-73398796D01*
X173290001Y-73400000D01*
X172639999Y-73400000D01*
X172615495Y-73398796D01*
X172591227Y-73395196D01*
X172567428Y-73389235D01*
X172544329Y-73380970D01*
X172522150Y-73370480D01*
X172501107Y-73357868D01*
X172481401Y-73343253D01*
X172463223Y-73326777D01*
X172446747Y-73308599D01*
X172432132Y-73288893D01*
X172419520Y-73267850D01*
X172409030Y-73245671D01*
X172400765Y-73222572D01*
X172394804Y-73198773D01*
X172391204Y-73174505D01*
X172390000Y-73150001D01*
X172390000Y-72249999D01*
X172391204Y-72225495D01*
X172394804Y-72201227D01*
X172400765Y-72177428D01*
X172409030Y-72154329D01*
X172419520Y-72132150D01*
X172432132Y-72111107D01*
X172446747Y-72091401D01*
X172463223Y-72073223D01*
X172481401Y-72056747D01*
X172501107Y-72042132D01*
X172522150Y-72029520D01*
X172544329Y-72019030D01*
X172567428Y-72010765D01*
X172591227Y-72004804D01*
X172615495Y-72001204D01*
X172639999Y-72000000D01*
X173290001Y-72000000D01*
X173314505Y-72001204D01*
X173314505Y-72001204D01*
G37*
D11*
X172965000Y-72700000D03*
D10*
G36*
X182324505Y-60301204D02*
X182348773Y-60304804D01*
X182372572Y-60310765D01*
X182395671Y-60319030D01*
X182417850Y-60329520D01*
X182438893Y-60342132D01*
X182458599Y-60356747D01*
X182476777Y-60373223D01*
X182493253Y-60391401D01*
X182507868Y-60411107D01*
X182520480Y-60432150D01*
X182530970Y-60454329D01*
X182539235Y-60477428D01*
X182545196Y-60501227D01*
X182548796Y-60525495D01*
X182550000Y-60549999D01*
X182550000Y-61450001D01*
X182548796Y-61474505D01*
X182545196Y-61498773D01*
X182539235Y-61522572D01*
X182530970Y-61545671D01*
X182520480Y-61567850D01*
X182507868Y-61588893D01*
X182493253Y-61608599D01*
X182476777Y-61626777D01*
X182458599Y-61643253D01*
X182438893Y-61657868D01*
X182417850Y-61670480D01*
X182395671Y-61680970D01*
X182372572Y-61689235D01*
X182348773Y-61695196D01*
X182324505Y-61698796D01*
X182300001Y-61700000D01*
X181649999Y-61700000D01*
X181625495Y-61698796D01*
X181601227Y-61695196D01*
X181577428Y-61689235D01*
X181554329Y-61680970D01*
X181532150Y-61670480D01*
X181511107Y-61657868D01*
X181491401Y-61643253D01*
X181473223Y-61626777D01*
X181456747Y-61608599D01*
X181442132Y-61588893D01*
X181429520Y-61567850D01*
X181419030Y-61545671D01*
X181410765Y-61522572D01*
X181404804Y-61498773D01*
X181401204Y-61474505D01*
X181400000Y-61450001D01*
X181400000Y-60549999D01*
X181401204Y-60525495D01*
X181404804Y-60501227D01*
X181410765Y-60477428D01*
X181419030Y-60454329D01*
X181429520Y-60432150D01*
X181442132Y-60411107D01*
X181456747Y-60391401D01*
X181473223Y-60373223D01*
X181491401Y-60356747D01*
X181511107Y-60342132D01*
X181532150Y-60329520D01*
X181554329Y-60319030D01*
X181577428Y-60310765D01*
X181601227Y-60304804D01*
X181625495Y-60301204D01*
X181649999Y-60300000D01*
X182300001Y-60300000D01*
X182324505Y-60301204D01*
X182324505Y-60301204D01*
G37*
D11*
X181975000Y-61000000D03*
D10*
G36*
X184374505Y-60301204D02*
X184398773Y-60304804D01*
X184422572Y-60310765D01*
X184445671Y-60319030D01*
X184467850Y-60329520D01*
X184488893Y-60342132D01*
X184508599Y-60356747D01*
X184526777Y-60373223D01*
X184543253Y-60391401D01*
X184557868Y-60411107D01*
X184570480Y-60432150D01*
X184580970Y-60454329D01*
X184589235Y-60477428D01*
X184595196Y-60501227D01*
X184598796Y-60525495D01*
X184600000Y-60549999D01*
X184600000Y-61450001D01*
X184598796Y-61474505D01*
X184595196Y-61498773D01*
X184589235Y-61522572D01*
X184580970Y-61545671D01*
X184570480Y-61567850D01*
X184557868Y-61588893D01*
X184543253Y-61608599D01*
X184526777Y-61626777D01*
X184508599Y-61643253D01*
X184488893Y-61657868D01*
X184467850Y-61670480D01*
X184445671Y-61680970D01*
X184422572Y-61689235D01*
X184398773Y-61695196D01*
X184374505Y-61698796D01*
X184350001Y-61700000D01*
X183699999Y-61700000D01*
X183675495Y-61698796D01*
X183651227Y-61695196D01*
X183627428Y-61689235D01*
X183604329Y-61680970D01*
X183582150Y-61670480D01*
X183561107Y-61657868D01*
X183541401Y-61643253D01*
X183523223Y-61626777D01*
X183506747Y-61608599D01*
X183492132Y-61588893D01*
X183479520Y-61567850D01*
X183469030Y-61545671D01*
X183460765Y-61522572D01*
X183454804Y-61498773D01*
X183451204Y-61474505D01*
X183450000Y-61450001D01*
X183450000Y-60549999D01*
X183451204Y-60525495D01*
X183454804Y-60501227D01*
X183460765Y-60477428D01*
X183469030Y-60454329D01*
X183479520Y-60432150D01*
X183492132Y-60411107D01*
X183506747Y-60391401D01*
X183523223Y-60373223D01*
X183541401Y-60356747D01*
X183561107Y-60342132D01*
X183582150Y-60329520D01*
X183604329Y-60319030D01*
X183627428Y-60310765D01*
X183651227Y-60304804D01*
X183675495Y-60301204D01*
X183699999Y-60300000D01*
X184350001Y-60300000D01*
X184374505Y-60301204D01*
X184374505Y-60301204D01*
G37*
D11*
X184025000Y-61000000D03*
D10*
G36*
X141374505Y-68301204D02*
X141398773Y-68304804D01*
X141422572Y-68310765D01*
X141445671Y-68319030D01*
X141467850Y-68329520D01*
X141488893Y-68342132D01*
X141508599Y-68356747D01*
X141526777Y-68373223D01*
X141543253Y-68391401D01*
X141557868Y-68411107D01*
X141570480Y-68432150D01*
X141580970Y-68454329D01*
X141589235Y-68477428D01*
X141595196Y-68501227D01*
X141598796Y-68525495D01*
X141600000Y-68549999D01*
X141600000Y-69450001D01*
X141598796Y-69474505D01*
X141595196Y-69498773D01*
X141589235Y-69522572D01*
X141580970Y-69545671D01*
X141570480Y-69567850D01*
X141557868Y-69588893D01*
X141543253Y-69608599D01*
X141526777Y-69626777D01*
X141508599Y-69643253D01*
X141488893Y-69657868D01*
X141467850Y-69670480D01*
X141445671Y-69680970D01*
X141422572Y-69689235D01*
X141398773Y-69695196D01*
X141374505Y-69698796D01*
X141350001Y-69700000D01*
X140699999Y-69700000D01*
X140675495Y-69698796D01*
X140651227Y-69695196D01*
X140627428Y-69689235D01*
X140604329Y-69680970D01*
X140582150Y-69670480D01*
X140561107Y-69657868D01*
X140541401Y-69643253D01*
X140523223Y-69626777D01*
X140506747Y-69608599D01*
X140492132Y-69588893D01*
X140479520Y-69567850D01*
X140469030Y-69545671D01*
X140460765Y-69522572D01*
X140454804Y-69498773D01*
X140451204Y-69474505D01*
X140450000Y-69450001D01*
X140450000Y-68549999D01*
X140451204Y-68525495D01*
X140454804Y-68501227D01*
X140460765Y-68477428D01*
X140469030Y-68454329D01*
X140479520Y-68432150D01*
X140492132Y-68411107D01*
X140506747Y-68391401D01*
X140523223Y-68373223D01*
X140541401Y-68356747D01*
X140561107Y-68342132D01*
X140582150Y-68329520D01*
X140604329Y-68319030D01*
X140627428Y-68310765D01*
X140651227Y-68304804D01*
X140675495Y-68301204D01*
X140699999Y-68300000D01*
X141350001Y-68300000D01*
X141374505Y-68301204D01*
X141374505Y-68301204D01*
G37*
D11*
X141025000Y-69000000D03*
D10*
G36*
X139324505Y-68301204D02*
X139348773Y-68304804D01*
X139372572Y-68310765D01*
X139395671Y-68319030D01*
X139417850Y-68329520D01*
X139438893Y-68342132D01*
X139458599Y-68356747D01*
X139476777Y-68373223D01*
X139493253Y-68391401D01*
X139507868Y-68411107D01*
X139520480Y-68432150D01*
X139530970Y-68454329D01*
X139539235Y-68477428D01*
X139545196Y-68501227D01*
X139548796Y-68525495D01*
X139550000Y-68549999D01*
X139550000Y-69450001D01*
X139548796Y-69474505D01*
X139545196Y-69498773D01*
X139539235Y-69522572D01*
X139530970Y-69545671D01*
X139520480Y-69567850D01*
X139507868Y-69588893D01*
X139493253Y-69608599D01*
X139476777Y-69626777D01*
X139458599Y-69643253D01*
X139438893Y-69657868D01*
X139417850Y-69670480D01*
X139395671Y-69680970D01*
X139372572Y-69689235D01*
X139348773Y-69695196D01*
X139324505Y-69698796D01*
X139300001Y-69700000D01*
X138649999Y-69700000D01*
X138625495Y-69698796D01*
X138601227Y-69695196D01*
X138577428Y-69689235D01*
X138554329Y-69680970D01*
X138532150Y-69670480D01*
X138511107Y-69657868D01*
X138491401Y-69643253D01*
X138473223Y-69626777D01*
X138456747Y-69608599D01*
X138442132Y-69588893D01*
X138429520Y-69567850D01*
X138419030Y-69545671D01*
X138410765Y-69522572D01*
X138404804Y-69498773D01*
X138401204Y-69474505D01*
X138400000Y-69450001D01*
X138400000Y-68549999D01*
X138401204Y-68525495D01*
X138404804Y-68501227D01*
X138410765Y-68477428D01*
X138419030Y-68454329D01*
X138429520Y-68432150D01*
X138442132Y-68411107D01*
X138456747Y-68391401D01*
X138473223Y-68373223D01*
X138491401Y-68356747D01*
X138511107Y-68342132D01*
X138532150Y-68329520D01*
X138554329Y-68319030D01*
X138577428Y-68310765D01*
X138601227Y-68304804D01*
X138625495Y-68301204D01*
X138649999Y-68300000D01*
X139300001Y-68300000D01*
X139324505Y-68301204D01*
X139324505Y-68301204D01*
G37*
D11*
X138975000Y-69000000D03*
D10*
G36*
X139324505Y-86301204D02*
X139348773Y-86304804D01*
X139372572Y-86310765D01*
X139395671Y-86319030D01*
X139417850Y-86329520D01*
X139438893Y-86342132D01*
X139458599Y-86356747D01*
X139476777Y-86373223D01*
X139493253Y-86391401D01*
X139507868Y-86411107D01*
X139520480Y-86432150D01*
X139530970Y-86454329D01*
X139539235Y-86477428D01*
X139545196Y-86501227D01*
X139548796Y-86525495D01*
X139550000Y-86549999D01*
X139550000Y-87450001D01*
X139548796Y-87474505D01*
X139545196Y-87498773D01*
X139539235Y-87522572D01*
X139530970Y-87545671D01*
X139520480Y-87567850D01*
X139507868Y-87588893D01*
X139493253Y-87608599D01*
X139476777Y-87626777D01*
X139458599Y-87643253D01*
X139438893Y-87657868D01*
X139417850Y-87670480D01*
X139395671Y-87680970D01*
X139372572Y-87689235D01*
X139348773Y-87695196D01*
X139324505Y-87698796D01*
X139300001Y-87700000D01*
X138649999Y-87700000D01*
X138625495Y-87698796D01*
X138601227Y-87695196D01*
X138577428Y-87689235D01*
X138554329Y-87680970D01*
X138532150Y-87670480D01*
X138511107Y-87657868D01*
X138491401Y-87643253D01*
X138473223Y-87626777D01*
X138456747Y-87608599D01*
X138442132Y-87588893D01*
X138429520Y-87567850D01*
X138419030Y-87545671D01*
X138410765Y-87522572D01*
X138404804Y-87498773D01*
X138401204Y-87474505D01*
X138400000Y-87450001D01*
X138400000Y-86549999D01*
X138401204Y-86525495D01*
X138404804Y-86501227D01*
X138410765Y-86477428D01*
X138419030Y-86454329D01*
X138429520Y-86432150D01*
X138442132Y-86411107D01*
X138456747Y-86391401D01*
X138473223Y-86373223D01*
X138491401Y-86356747D01*
X138511107Y-86342132D01*
X138532150Y-86329520D01*
X138554329Y-86319030D01*
X138577428Y-86310765D01*
X138601227Y-86304804D01*
X138625495Y-86301204D01*
X138649999Y-86300000D01*
X139300001Y-86300000D01*
X139324505Y-86301204D01*
X139324505Y-86301204D01*
G37*
D11*
X138975000Y-87000000D03*
D10*
G36*
X141374505Y-86301204D02*
X141398773Y-86304804D01*
X141422572Y-86310765D01*
X141445671Y-86319030D01*
X141467850Y-86329520D01*
X141488893Y-86342132D01*
X141508599Y-86356747D01*
X141526777Y-86373223D01*
X141543253Y-86391401D01*
X141557868Y-86411107D01*
X141570480Y-86432150D01*
X141580970Y-86454329D01*
X141589235Y-86477428D01*
X141595196Y-86501227D01*
X141598796Y-86525495D01*
X141600000Y-86549999D01*
X141600000Y-87450001D01*
X141598796Y-87474505D01*
X141595196Y-87498773D01*
X141589235Y-87522572D01*
X141580970Y-87545671D01*
X141570480Y-87567850D01*
X141557868Y-87588893D01*
X141543253Y-87608599D01*
X141526777Y-87626777D01*
X141508599Y-87643253D01*
X141488893Y-87657868D01*
X141467850Y-87670480D01*
X141445671Y-87680970D01*
X141422572Y-87689235D01*
X141398773Y-87695196D01*
X141374505Y-87698796D01*
X141350001Y-87700000D01*
X140699999Y-87700000D01*
X140675495Y-87698796D01*
X140651227Y-87695196D01*
X140627428Y-87689235D01*
X140604329Y-87680970D01*
X140582150Y-87670480D01*
X140561107Y-87657868D01*
X140541401Y-87643253D01*
X140523223Y-87626777D01*
X140506747Y-87608599D01*
X140492132Y-87588893D01*
X140479520Y-87567850D01*
X140469030Y-87545671D01*
X140460765Y-87522572D01*
X140454804Y-87498773D01*
X140451204Y-87474505D01*
X140450000Y-87450001D01*
X140450000Y-86549999D01*
X140451204Y-86525495D01*
X140454804Y-86501227D01*
X140460765Y-86477428D01*
X140469030Y-86454329D01*
X140479520Y-86432150D01*
X140492132Y-86411107D01*
X140506747Y-86391401D01*
X140523223Y-86373223D01*
X140541401Y-86356747D01*
X140561107Y-86342132D01*
X140582150Y-86329520D01*
X140604329Y-86319030D01*
X140627428Y-86310765D01*
X140651227Y-86304804D01*
X140675495Y-86301204D01*
X140699999Y-86300000D01*
X141350001Y-86300000D01*
X141374505Y-86301204D01*
X141374505Y-86301204D01*
G37*
D11*
X141025000Y-87000000D03*
D10*
G36*
X135324505Y-84301204D02*
X135348773Y-84304804D01*
X135372572Y-84310765D01*
X135395671Y-84319030D01*
X135417850Y-84329520D01*
X135438893Y-84342132D01*
X135458599Y-84356747D01*
X135476777Y-84373223D01*
X135493253Y-84391401D01*
X135507868Y-84411107D01*
X135520480Y-84432150D01*
X135530970Y-84454329D01*
X135539235Y-84477428D01*
X135545196Y-84501227D01*
X135548796Y-84525495D01*
X135550000Y-84549999D01*
X135550000Y-85450001D01*
X135548796Y-85474505D01*
X135545196Y-85498773D01*
X135539235Y-85522572D01*
X135530970Y-85545671D01*
X135520480Y-85567850D01*
X135507868Y-85588893D01*
X135493253Y-85608599D01*
X135476777Y-85626777D01*
X135458599Y-85643253D01*
X135438893Y-85657868D01*
X135417850Y-85670480D01*
X135395671Y-85680970D01*
X135372572Y-85689235D01*
X135348773Y-85695196D01*
X135324505Y-85698796D01*
X135300001Y-85700000D01*
X134649999Y-85700000D01*
X134625495Y-85698796D01*
X134601227Y-85695196D01*
X134577428Y-85689235D01*
X134554329Y-85680970D01*
X134532150Y-85670480D01*
X134511107Y-85657868D01*
X134491401Y-85643253D01*
X134473223Y-85626777D01*
X134456747Y-85608599D01*
X134442132Y-85588893D01*
X134429520Y-85567850D01*
X134419030Y-85545671D01*
X134410765Y-85522572D01*
X134404804Y-85498773D01*
X134401204Y-85474505D01*
X134400000Y-85450001D01*
X134400000Y-84549999D01*
X134401204Y-84525495D01*
X134404804Y-84501227D01*
X134410765Y-84477428D01*
X134419030Y-84454329D01*
X134429520Y-84432150D01*
X134442132Y-84411107D01*
X134456747Y-84391401D01*
X134473223Y-84373223D01*
X134491401Y-84356747D01*
X134511107Y-84342132D01*
X134532150Y-84329520D01*
X134554329Y-84319030D01*
X134577428Y-84310765D01*
X134601227Y-84304804D01*
X134625495Y-84301204D01*
X134649999Y-84300000D01*
X135300001Y-84300000D01*
X135324505Y-84301204D01*
X135324505Y-84301204D01*
G37*
D11*
X134975000Y-85000000D03*
D10*
G36*
X137374505Y-84301204D02*
X137398773Y-84304804D01*
X137422572Y-84310765D01*
X137445671Y-84319030D01*
X137467850Y-84329520D01*
X137488893Y-84342132D01*
X137508599Y-84356747D01*
X137526777Y-84373223D01*
X137543253Y-84391401D01*
X137557868Y-84411107D01*
X137570480Y-84432150D01*
X137580970Y-84454329D01*
X137589235Y-84477428D01*
X137595196Y-84501227D01*
X137598796Y-84525495D01*
X137600000Y-84549999D01*
X137600000Y-85450001D01*
X137598796Y-85474505D01*
X137595196Y-85498773D01*
X137589235Y-85522572D01*
X137580970Y-85545671D01*
X137570480Y-85567850D01*
X137557868Y-85588893D01*
X137543253Y-85608599D01*
X137526777Y-85626777D01*
X137508599Y-85643253D01*
X137488893Y-85657868D01*
X137467850Y-85670480D01*
X137445671Y-85680970D01*
X137422572Y-85689235D01*
X137398773Y-85695196D01*
X137374505Y-85698796D01*
X137350001Y-85700000D01*
X136699999Y-85700000D01*
X136675495Y-85698796D01*
X136651227Y-85695196D01*
X136627428Y-85689235D01*
X136604329Y-85680970D01*
X136582150Y-85670480D01*
X136561107Y-85657868D01*
X136541401Y-85643253D01*
X136523223Y-85626777D01*
X136506747Y-85608599D01*
X136492132Y-85588893D01*
X136479520Y-85567850D01*
X136469030Y-85545671D01*
X136460765Y-85522572D01*
X136454804Y-85498773D01*
X136451204Y-85474505D01*
X136450000Y-85450001D01*
X136450000Y-84549999D01*
X136451204Y-84525495D01*
X136454804Y-84501227D01*
X136460765Y-84477428D01*
X136469030Y-84454329D01*
X136479520Y-84432150D01*
X136492132Y-84411107D01*
X136506747Y-84391401D01*
X136523223Y-84373223D01*
X136541401Y-84356747D01*
X136561107Y-84342132D01*
X136582150Y-84329520D01*
X136604329Y-84319030D01*
X136627428Y-84310765D01*
X136651227Y-84304804D01*
X136675495Y-84301204D01*
X136699999Y-84300000D01*
X137350001Y-84300000D01*
X137374505Y-84301204D01*
X137374505Y-84301204D01*
G37*
D11*
X137025000Y-85000000D03*
D10*
G36*
X148324505Y-77301204D02*
X148348773Y-77304804D01*
X148372572Y-77310765D01*
X148395671Y-77319030D01*
X148417850Y-77329520D01*
X148438893Y-77342132D01*
X148458599Y-77356747D01*
X148476777Y-77373223D01*
X148493253Y-77391401D01*
X148507868Y-77411107D01*
X148520480Y-77432150D01*
X148530970Y-77454329D01*
X148539235Y-77477428D01*
X148545196Y-77501227D01*
X148548796Y-77525495D01*
X148550000Y-77549999D01*
X148550000Y-78450001D01*
X148548796Y-78474505D01*
X148545196Y-78498773D01*
X148539235Y-78522572D01*
X148530970Y-78545671D01*
X148520480Y-78567850D01*
X148507868Y-78588893D01*
X148493253Y-78608599D01*
X148476777Y-78626777D01*
X148458599Y-78643253D01*
X148438893Y-78657868D01*
X148417850Y-78670480D01*
X148395671Y-78680970D01*
X148372572Y-78689235D01*
X148348773Y-78695196D01*
X148324505Y-78698796D01*
X148300001Y-78700000D01*
X147649999Y-78700000D01*
X147625495Y-78698796D01*
X147601227Y-78695196D01*
X147577428Y-78689235D01*
X147554329Y-78680970D01*
X147532150Y-78670480D01*
X147511107Y-78657868D01*
X147491401Y-78643253D01*
X147473223Y-78626777D01*
X147456747Y-78608599D01*
X147442132Y-78588893D01*
X147429520Y-78567850D01*
X147419030Y-78545671D01*
X147410765Y-78522572D01*
X147404804Y-78498773D01*
X147401204Y-78474505D01*
X147400000Y-78450001D01*
X147400000Y-77549999D01*
X147401204Y-77525495D01*
X147404804Y-77501227D01*
X147410765Y-77477428D01*
X147419030Y-77454329D01*
X147429520Y-77432150D01*
X147442132Y-77411107D01*
X147456747Y-77391401D01*
X147473223Y-77373223D01*
X147491401Y-77356747D01*
X147511107Y-77342132D01*
X147532150Y-77329520D01*
X147554329Y-77319030D01*
X147577428Y-77310765D01*
X147601227Y-77304804D01*
X147625495Y-77301204D01*
X147649999Y-77300000D01*
X148300001Y-77300000D01*
X148324505Y-77301204D01*
X148324505Y-77301204D01*
G37*
D11*
X147975000Y-78000000D03*
D10*
G36*
X150374505Y-77301204D02*
X150398773Y-77304804D01*
X150422572Y-77310765D01*
X150445671Y-77319030D01*
X150467850Y-77329520D01*
X150488893Y-77342132D01*
X150508599Y-77356747D01*
X150526777Y-77373223D01*
X150543253Y-77391401D01*
X150557868Y-77411107D01*
X150570480Y-77432150D01*
X150580970Y-77454329D01*
X150589235Y-77477428D01*
X150595196Y-77501227D01*
X150598796Y-77525495D01*
X150600000Y-77549999D01*
X150600000Y-78450001D01*
X150598796Y-78474505D01*
X150595196Y-78498773D01*
X150589235Y-78522572D01*
X150580970Y-78545671D01*
X150570480Y-78567850D01*
X150557868Y-78588893D01*
X150543253Y-78608599D01*
X150526777Y-78626777D01*
X150508599Y-78643253D01*
X150488893Y-78657868D01*
X150467850Y-78670480D01*
X150445671Y-78680970D01*
X150422572Y-78689235D01*
X150398773Y-78695196D01*
X150374505Y-78698796D01*
X150350001Y-78700000D01*
X149699999Y-78700000D01*
X149675495Y-78698796D01*
X149651227Y-78695196D01*
X149627428Y-78689235D01*
X149604329Y-78680970D01*
X149582150Y-78670480D01*
X149561107Y-78657868D01*
X149541401Y-78643253D01*
X149523223Y-78626777D01*
X149506747Y-78608599D01*
X149492132Y-78588893D01*
X149479520Y-78567850D01*
X149469030Y-78545671D01*
X149460765Y-78522572D01*
X149454804Y-78498773D01*
X149451204Y-78474505D01*
X149450000Y-78450001D01*
X149450000Y-77549999D01*
X149451204Y-77525495D01*
X149454804Y-77501227D01*
X149460765Y-77477428D01*
X149469030Y-77454329D01*
X149479520Y-77432150D01*
X149492132Y-77411107D01*
X149506747Y-77391401D01*
X149523223Y-77373223D01*
X149541401Y-77356747D01*
X149561107Y-77342132D01*
X149582150Y-77329520D01*
X149604329Y-77319030D01*
X149627428Y-77310765D01*
X149651227Y-77304804D01*
X149675495Y-77301204D01*
X149699999Y-77300000D01*
X150350001Y-77300000D01*
X150374505Y-77301204D01*
X150374505Y-77301204D01*
G37*
D11*
X150025000Y-78000000D03*
D10*
G36*
X186374505Y-80301204D02*
X186398773Y-80304804D01*
X186422572Y-80310765D01*
X186445671Y-80319030D01*
X186467850Y-80329520D01*
X186488893Y-80342132D01*
X186508599Y-80356747D01*
X186526777Y-80373223D01*
X186543253Y-80391401D01*
X186557868Y-80411107D01*
X186570480Y-80432150D01*
X186580970Y-80454329D01*
X186589235Y-80477428D01*
X186595196Y-80501227D01*
X186598796Y-80525495D01*
X186600000Y-80549999D01*
X186600000Y-81450001D01*
X186598796Y-81474505D01*
X186595196Y-81498773D01*
X186589235Y-81522572D01*
X186580970Y-81545671D01*
X186570480Y-81567850D01*
X186557868Y-81588893D01*
X186543253Y-81608599D01*
X186526777Y-81626777D01*
X186508599Y-81643253D01*
X186488893Y-81657868D01*
X186467850Y-81670480D01*
X186445671Y-81680970D01*
X186422572Y-81689235D01*
X186398773Y-81695196D01*
X186374505Y-81698796D01*
X186350001Y-81700000D01*
X185699999Y-81700000D01*
X185675495Y-81698796D01*
X185651227Y-81695196D01*
X185627428Y-81689235D01*
X185604329Y-81680970D01*
X185582150Y-81670480D01*
X185561107Y-81657868D01*
X185541401Y-81643253D01*
X185523223Y-81626777D01*
X185506747Y-81608599D01*
X185492132Y-81588893D01*
X185479520Y-81567850D01*
X185469030Y-81545671D01*
X185460765Y-81522572D01*
X185454804Y-81498773D01*
X185451204Y-81474505D01*
X185450000Y-81450001D01*
X185450000Y-80549999D01*
X185451204Y-80525495D01*
X185454804Y-80501227D01*
X185460765Y-80477428D01*
X185469030Y-80454329D01*
X185479520Y-80432150D01*
X185492132Y-80411107D01*
X185506747Y-80391401D01*
X185523223Y-80373223D01*
X185541401Y-80356747D01*
X185561107Y-80342132D01*
X185582150Y-80329520D01*
X185604329Y-80319030D01*
X185627428Y-80310765D01*
X185651227Y-80304804D01*
X185675495Y-80301204D01*
X185699999Y-80300000D01*
X186350001Y-80300000D01*
X186374505Y-80301204D01*
X186374505Y-80301204D01*
G37*
D11*
X186025000Y-81000000D03*
D10*
G36*
X184324505Y-80301204D02*
X184348773Y-80304804D01*
X184372572Y-80310765D01*
X184395671Y-80319030D01*
X184417850Y-80329520D01*
X184438893Y-80342132D01*
X184458599Y-80356747D01*
X184476777Y-80373223D01*
X184493253Y-80391401D01*
X184507868Y-80411107D01*
X184520480Y-80432150D01*
X184530970Y-80454329D01*
X184539235Y-80477428D01*
X184545196Y-80501227D01*
X184548796Y-80525495D01*
X184550000Y-80549999D01*
X184550000Y-81450001D01*
X184548796Y-81474505D01*
X184545196Y-81498773D01*
X184539235Y-81522572D01*
X184530970Y-81545671D01*
X184520480Y-81567850D01*
X184507868Y-81588893D01*
X184493253Y-81608599D01*
X184476777Y-81626777D01*
X184458599Y-81643253D01*
X184438893Y-81657868D01*
X184417850Y-81670480D01*
X184395671Y-81680970D01*
X184372572Y-81689235D01*
X184348773Y-81695196D01*
X184324505Y-81698796D01*
X184300001Y-81700000D01*
X183649999Y-81700000D01*
X183625495Y-81698796D01*
X183601227Y-81695196D01*
X183577428Y-81689235D01*
X183554329Y-81680970D01*
X183532150Y-81670480D01*
X183511107Y-81657868D01*
X183491401Y-81643253D01*
X183473223Y-81626777D01*
X183456747Y-81608599D01*
X183442132Y-81588893D01*
X183429520Y-81567850D01*
X183419030Y-81545671D01*
X183410765Y-81522572D01*
X183404804Y-81498773D01*
X183401204Y-81474505D01*
X183400000Y-81450001D01*
X183400000Y-80549999D01*
X183401204Y-80525495D01*
X183404804Y-80501227D01*
X183410765Y-80477428D01*
X183419030Y-80454329D01*
X183429520Y-80432150D01*
X183442132Y-80411107D01*
X183456747Y-80391401D01*
X183473223Y-80373223D01*
X183491401Y-80356747D01*
X183511107Y-80342132D01*
X183532150Y-80329520D01*
X183554329Y-80319030D01*
X183577428Y-80310765D01*
X183601227Y-80304804D01*
X183625495Y-80301204D01*
X183649999Y-80300000D01*
X184300001Y-80300000D01*
X184324505Y-80301204D01*
X184324505Y-80301204D01*
G37*
D11*
X183975000Y-81000000D03*
D10*
G36*
X165299505Y-78301204D02*
X165323773Y-78304804D01*
X165347572Y-78310765D01*
X165370671Y-78319030D01*
X165392850Y-78329520D01*
X165413893Y-78342132D01*
X165433599Y-78356747D01*
X165451777Y-78373223D01*
X165468253Y-78391401D01*
X165482868Y-78411107D01*
X165495480Y-78432150D01*
X165505970Y-78454329D01*
X165514235Y-78477428D01*
X165520196Y-78501227D01*
X165523796Y-78525495D01*
X165525000Y-78549999D01*
X165525000Y-79450001D01*
X165523796Y-79474505D01*
X165520196Y-79498773D01*
X165514235Y-79522572D01*
X165505970Y-79545671D01*
X165495480Y-79567850D01*
X165482868Y-79588893D01*
X165468253Y-79608599D01*
X165451777Y-79626777D01*
X165433599Y-79643253D01*
X165413893Y-79657868D01*
X165392850Y-79670480D01*
X165370671Y-79680970D01*
X165347572Y-79689235D01*
X165323773Y-79695196D01*
X165299505Y-79698796D01*
X165275001Y-79700000D01*
X164624999Y-79700000D01*
X164600495Y-79698796D01*
X164576227Y-79695196D01*
X164552428Y-79689235D01*
X164529329Y-79680970D01*
X164507150Y-79670480D01*
X164486107Y-79657868D01*
X164466401Y-79643253D01*
X164448223Y-79626777D01*
X164431747Y-79608599D01*
X164417132Y-79588893D01*
X164404520Y-79567850D01*
X164394030Y-79545671D01*
X164385765Y-79522572D01*
X164379804Y-79498773D01*
X164376204Y-79474505D01*
X164375000Y-79450001D01*
X164375000Y-78549999D01*
X164376204Y-78525495D01*
X164379804Y-78501227D01*
X164385765Y-78477428D01*
X164394030Y-78454329D01*
X164404520Y-78432150D01*
X164417132Y-78411107D01*
X164431747Y-78391401D01*
X164448223Y-78373223D01*
X164466401Y-78356747D01*
X164486107Y-78342132D01*
X164507150Y-78329520D01*
X164529329Y-78319030D01*
X164552428Y-78310765D01*
X164576227Y-78304804D01*
X164600495Y-78301204D01*
X164624999Y-78300000D01*
X165275001Y-78300000D01*
X165299505Y-78301204D01*
X165299505Y-78301204D01*
G37*
D11*
X164950000Y-79000000D03*
D10*
G36*
X167349505Y-78301204D02*
X167373773Y-78304804D01*
X167397572Y-78310765D01*
X167420671Y-78319030D01*
X167442850Y-78329520D01*
X167463893Y-78342132D01*
X167483599Y-78356747D01*
X167501777Y-78373223D01*
X167518253Y-78391401D01*
X167532868Y-78411107D01*
X167545480Y-78432150D01*
X167555970Y-78454329D01*
X167564235Y-78477428D01*
X167570196Y-78501227D01*
X167573796Y-78525495D01*
X167575000Y-78549999D01*
X167575000Y-79450001D01*
X167573796Y-79474505D01*
X167570196Y-79498773D01*
X167564235Y-79522572D01*
X167555970Y-79545671D01*
X167545480Y-79567850D01*
X167532868Y-79588893D01*
X167518253Y-79608599D01*
X167501777Y-79626777D01*
X167483599Y-79643253D01*
X167463893Y-79657868D01*
X167442850Y-79670480D01*
X167420671Y-79680970D01*
X167397572Y-79689235D01*
X167373773Y-79695196D01*
X167349505Y-79698796D01*
X167325001Y-79700000D01*
X166674999Y-79700000D01*
X166650495Y-79698796D01*
X166626227Y-79695196D01*
X166602428Y-79689235D01*
X166579329Y-79680970D01*
X166557150Y-79670480D01*
X166536107Y-79657868D01*
X166516401Y-79643253D01*
X166498223Y-79626777D01*
X166481747Y-79608599D01*
X166467132Y-79588893D01*
X166454520Y-79567850D01*
X166444030Y-79545671D01*
X166435765Y-79522572D01*
X166429804Y-79498773D01*
X166426204Y-79474505D01*
X166425000Y-79450001D01*
X166425000Y-78549999D01*
X166426204Y-78525495D01*
X166429804Y-78501227D01*
X166435765Y-78477428D01*
X166444030Y-78454329D01*
X166454520Y-78432150D01*
X166467132Y-78411107D01*
X166481747Y-78391401D01*
X166498223Y-78373223D01*
X166516401Y-78356747D01*
X166536107Y-78342132D01*
X166557150Y-78329520D01*
X166579329Y-78319030D01*
X166602428Y-78310765D01*
X166626227Y-78304804D01*
X166650495Y-78301204D01*
X166674999Y-78300000D01*
X167325001Y-78300000D01*
X167349505Y-78301204D01*
X167349505Y-78301204D01*
G37*
D11*
X167000000Y-79000000D03*
D10*
G36*
X163474505Y-74451204D02*
X163498773Y-74454804D01*
X163522572Y-74460765D01*
X163545671Y-74469030D01*
X163567850Y-74479520D01*
X163588893Y-74492132D01*
X163608599Y-74506747D01*
X163626777Y-74523223D01*
X163643253Y-74541401D01*
X163657868Y-74561107D01*
X163670480Y-74582150D01*
X163680970Y-74604329D01*
X163689235Y-74627428D01*
X163695196Y-74651227D01*
X163698796Y-74675495D01*
X163700000Y-74699999D01*
X163700000Y-75350001D01*
X163698796Y-75374505D01*
X163695196Y-75398773D01*
X163689235Y-75422572D01*
X163680970Y-75445671D01*
X163670480Y-75467850D01*
X163657868Y-75488893D01*
X163643253Y-75508599D01*
X163626777Y-75526777D01*
X163608599Y-75543253D01*
X163588893Y-75557868D01*
X163567850Y-75570480D01*
X163545671Y-75580970D01*
X163522572Y-75589235D01*
X163498773Y-75595196D01*
X163474505Y-75598796D01*
X163450001Y-75600000D01*
X162549999Y-75600000D01*
X162525495Y-75598796D01*
X162501227Y-75595196D01*
X162477428Y-75589235D01*
X162454329Y-75580970D01*
X162432150Y-75570480D01*
X162411107Y-75557868D01*
X162391401Y-75543253D01*
X162373223Y-75526777D01*
X162356747Y-75508599D01*
X162342132Y-75488893D01*
X162329520Y-75467850D01*
X162319030Y-75445671D01*
X162310765Y-75422572D01*
X162304804Y-75398773D01*
X162301204Y-75374505D01*
X162300000Y-75350001D01*
X162300000Y-74699999D01*
X162301204Y-74675495D01*
X162304804Y-74651227D01*
X162310765Y-74627428D01*
X162319030Y-74604329D01*
X162329520Y-74582150D01*
X162342132Y-74561107D01*
X162356747Y-74541401D01*
X162373223Y-74523223D01*
X162391401Y-74506747D01*
X162411107Y-74492132D01*
X162432150Y-74479520D01*
X162454329Y-74469030D01*
X162477428Y-74460765D01*
X162501227Y-74454804D01*
X162525495Y-74451204D01*
X162549999Y-74450000D01*
X163450001Y-74450000D01*
X163474505Y-74451204D01*
X163474505Y-74451204D01*
G37*
D11*
X163000000Y-75025000D03*
D10*
G36*
X163474505Y-72401204D02*
X163498773Y-72404804D01*
X163522572Y-72410765D01*
X163545671Y-72419030D01*
X163567850Y-72429520D01*
X163588893Y-72442132D01*
X163608599Y-72456747D01*
X163626777Y-72473223D01*
X163643253Y-72491401D01*
X163657868Y-72511107D01*
X163670480Y-72532150D01*
X163680970Y-72554329D01*
X163689235Y-72577428D01*
X163695196Y-72601227D01*
X163698796Y-72625495D01*
X163700000Y-72649999D01*
X163700000Y-73300001D01*
X163698796Y-73324505D01*
X163695196Y-73348773D01*
X163689235Y-73372572D01*
X163680970Y-73395671D01*
X163670480Y-73417850D01*
X163657868Y-73438893D01*
X163643253Y-73458599D01*
X163626777Y-73476777D01*
X163608599Y-73493253D01*
X163588893Y-73507868D01*
X163567850Y-73520480D01*
X163545671Y-73530970D01*
X163522572Y-73539235D01*
X163498773Y-73545196D01*
X163474505Y-73548796D01*
X163450001Y-73550000D01*
X162549999Y-73550000D01*
X162525495Y-73548796D01*
X162501227Y-73545196D01*
X162477428Y-73539235D01*
X162454329Y-73530970D01*
X162432150Y-73520480D01*
X162411107Y-73507868D01*
X162391401Y-73493253D01*
X162373223Y-73476777D01*
X162356747Y-73458599D01*
X162342132Y-73438893D01*
X162329520Y-73417850D01*
X162319030Y-73395671D01*
X162310765Y-73372572D01*
X162304804Y-73348773D01*
X162301204Y-73324505D01*
X162300000Y-73300001D01*
X162300000Y-72649999D01*
X162301204Y-72625495D01*
X162304804Y-72601227D01*
X162310765Y-72577428D01*
X162319030Y-72554329D01*
X162329520Y-72532150D01*
X162342132Y-72511107D01*
X162356747Y-72491401D01*
X162373223Y-72473223D01*
X162391401Y-72456747D01*
X162411107Y-72442132D01*
X162432150Y-72429520D01*
X162454329Y-72419030D01*
X162477428Y-72410765D01*
X162501227Y-72404804D01*
X162525495Y-72401204D01*
X162549999Y-72400000D01*
X163450001Y-72400000D01*
X163474505Y-72401204D01*
X163474505Y-72401204D01*
G37*
D11*
X163000000Y-72975000D03*
D10*
G36*
X166474505Y-72401204D02*
X166498773Y-72404804D01*
X166522572Y-72410765D01*
X166545671Y-72419030D01*
X166567850Y-72429520D01*
X166588893Y-72442132D01*
X166608599Y-72456747D01*
X166626777Y-72473223D01*
X166643253Y-72491401D01*
X166657868Y-72511107D01*
X166670480Y-72532150D01*
X166680970Y-72554329D01*
X166689235Y-72577428D01*
X166695196Y-72601227D01*
X166698796Y-72625495D01*
X166700000Y-72649999D01*
X166700000Y-73300001D01*
X166698796Y-73324505D01*
X166695196Y-73348773D01*
X166689235Y-73372572D01*
X166680970Y-73395671D01*
X166670480Y-73417850D01*
X166657868Y-73438893D01*
X166643253Y-73458599D01*
X166626777Y-73476777D01*
X166608599Y-73493253D01*
X166588893Y-73507868D01*
X166567850Y-73520480D01*
X166545671Y-73530970D01*
X166522572Y-73539235D01*
X166498773Y-73545196D01*
X166474505Y-73548796D01*
X166450001Y-73550000D01*
X165549999Y-73550000D01*
X165525495Y-73548796D01*
X165501227Y-73545196D01*
X165477428Y-73539235D01*
X165454329Y-73530970D01*
X165432150Y-73520480D01*
X165411107Y-73507868D01*
X165391401Y-73493253D01*
X165373223Y-73476777D01*
X165356747Y-73458599D01*
X165342132Y-73438893D01*
X165329520Y-73417850D01*
X165319030Y-73395671D01*
X165310765Y-73372572D01*
X165304804Y-73348773D01*
X165301204Y-73324505D01*
X165300000Y-73300001D01*
X165300000Y-72649999D01*
X165301204Y-72625495D01*
X165304804Y-72601227D01*
X165310765Y-72577428D01*
X165319030Y-72554329D01*
X165329520Y-72532150D01*
X165342132Y-72511107D01*
X165356747Y-72491401D01*
X165373223Y-72473223D01*
X165391401Y-72456747D01*
X165411107Y-72442132D01*
X165432150Y-72429520D01*
X165454329Y-72419030D01*
X165477428Y-72410765D01*
X165501227Y-72404804D01*
X165525495Y-72401204D01*
X165549999Y-72400000D01*
X166450001Y-72400000D01*
X166474505Y-72401204D01*
X166474505Y-72401204D01*
G37*
D11*
X166000000Y-72975000D03*
D10*
G36*
X166474505Y-74451204D02*
X166498773Y-74454804D01*
X166522572Y-74460765D01*
X166545671Y-74469030D01*
X166567850Y-74479520D01*
X166588893Y-74492132D01*
X166608599Y-74506747D01*
X166626777Y-74523223D01*
X166643253Y-74541401D01*
X166657868Y-74561107D01*
X166670480Y-74582150D01*
X166680970Y-74604329D01*
X166689235Y-74627428D01*
X166695196Y-74651227D01*
X166698796Y-74675495D01*
X166700000Y-74699999D01*
X166700000Y-75350001D01*
X166698796Y-75374505D01*
X166695196Y-75398773D01*
X166689235Y-75422572D01*
X166680970Y-75445671D01*
X166670480Y-75467850D01*
X166657868Y-75488893D01*
X166643253Y-75508599D01*
X166626777Y-75526777D01*
X166608599Y-75543253D01*
X166588893Y-75557868D01*
X166567850Y-75570480D01*
X166545671Y-75580970D01*
X166522572Y-75589235D01*
X166498773Y-75595196D01*
X166474505Y-75598796D01*
X166450001Y-75600000D01*
X165549999Y-75600000D01*
X165525495Y-75598796D01*
X165501227Y-75595196D01*
X165477428Y-75589235D01*
X165454329Y-75580970D01*
X165432150Y-75570480D01*
X165411107Y-75557868D01*
X165391401Y-75543253D01*
X165373223Y-75526777D01*
X165356747Y-75508599D01*
X165342132Y-75488893D01*
X165329520Y-75467850D01*
X165319030Y-75445671D01*
X165310765Y-75422572D01*
X165304804Y-75398773D01*
X165301204Y-75374505D01*
X165300000Y-75350001D01*
X165300000Y-74699999D01*
X165301204Y-74675495D01*
X165304804Y-74651227D01*
X165310765Y-74627428D01*
X165319030Y-74604329D01*
X165329520Y-74582150D01*
X165342132Y-74561107D01*
X165356747Y-74541401D01*
X165373223Y-74523223D01*
X165391401Y-74506747D01*
X165411107Y-74492132D01*
X165432150Y-74479520D01*
X165454329Y-74469030D01*
X165477428Y-74460765D01*
X165501227Y-74454804D01*
X165525495Y-74451204D01*
X165549999Y-74450000D01*
X166450001Y-74450000D01*
X166474505Y-74451204D01*
X166474505Y-74451204D01*
G37*
D11*
X166000000Y-75025000D03*
M02*
