%TF.GenerationSoftware,KiCad,Pcbnew,5.0.2+dfsg1-1*%
%TF.CreationDate,2022-04-10T01:54:42-07:00*%
%TF.ProjectId,keygame,6b657967-616d-4652-9e6b-696361645f70,rev?*%
%TF.SameCoordinates,Original*%
%TF.FileFunction,Soldermask,Top*%
%TF.FilePolarity,Negative*%
%FSLAX46Y46*%
G04 Gerber Fmt 4.6, Leading zero omitted, Abs format (unit mm)*
G04 Created by KiCad (PCBNEW 5.0.2+dfsg1-1) date Sun 10 Apr 2022 01:54:42 AM PDT*
%MOMM*%
%LPD*%
G01*
G04 APERTURE LIST*
%ADD10C,0.100000*%
G04 APERTURE END LIST*
D10*
G36*
X184634239Y-91811467D02*
X184948282Y-91873934D01*
X185539926Y-92119001D01*
X186062910Y-92468448D01*
X186072395Y-92474786D01*
X186525214Y-92927605D01*
X186525216Y-92927608D01*
X186880999Y-93460074D01*
X187075022Y-93928487D01*
X187126066Y-94051719D01*
X187251000Y-94679803D01*
X187251000Y-95320197D01*
X187215582Y-95498255D01*
X187126066Y-95948282D01*
X186880999Y-96539926D01*
X186658993Y-96872181D01*
X186525214Y-97072395D01*
X186072395Y-97525214D01*
X186072392Y-97525216D01*
X185539926Y-97880999D01*
X184948282Y-98126066D01*
X184634239Y-98188533D01*
X184320197Y-98251000D01*
X183679803Y-98251000D01*
X183365761Y-98188533D01*
X183051718Y-98126066D01*
X182460074Y-97880999D01*
X181927608Y-97525216D01*
X181927605Y-97525214D01*
X181474786Y-97072395D01*
X181341007Y-96872181D01*
X181119001Y-96539926D01*
X180873934Y-95948282D01*
X180784418Y-95498255D01*
X180749000Y-95320197D01*
X180749000Y-94679803D01*
X180873934Y-94051719D01*
X180924978Y-93928487D01*
X181119001Y-93460074D01*
X181474784Y-92927608D01*
X181474786Y-92927605D01*
X181927605Y-92474786D01*
X181937090Y-92468448D01*
X182460074Y-92119001D01*
X183051718Y-91873934D01*
X183365761Y-91811467D01*
X183679803Y-91749000D01*
X184320197Y-91749000D01*
X184634239Y-91811467D01*
X184634239Y-91811467D01*
G37*
G36*
X138634239Y-91811467D02*
X138948282Y-91873934D01*
X139539926Y-92119001D01*
X140062910Y-92468448D01*
X140072395Y-92474786D01*
X140525214Y-92927605D01*
X140525216Y-92927608D01*
X140880999Y-93460074D01*
X141075022Y-93928487D01*
X141126066Y-94051719D01*
X141251000Y-94679803D01*
X141251000Y-95320197D01*
X141215582Y-95498255D01*
X141126066Y-95948282D01*
X140880999Y-96539926D01*
X140658993Y-96872181D01*
X140525214Y-97072395D01*
X140072395Y-97525214D01*
X140072392Y-97525216D01*
X139539926Y-97880999D01*
X138948282Y-98126066D01*
X138634239Y-98188533D01*
X138320197Y-98251000D01*
X137679803Y-98251000D01*
X137365761Y-98188533D01*
X137051718Y-98126066D01*
X136460074Y-97880999D01*
X135927608Y-97525216D01*
X135927605Y-97525214D01*
X135474786Y-97072395D01*
X135341007Y-96872181D01*
X135119001Y-96539926D01*
X134873934Y-95948282D01*
X134784418Y-95498255D01*
X134749000Y-95320197D01*
X134749000Y-94679803D01*
X134873934Y-94051719D01*
X134924978Y-93928487D01*
X135119001Y-93460074D01*
X135474784Y-92927608D01*
X135474786Y-92927605D01*
X135927605Y-92474786D01*
X135937090Y-92468448D01*
X136460074Y-92119001D01*
X137051718Y-91873934D01*
X137365761Y-91811467D01*
X137679803Y-91749000D01*
X138320197Y-91749000D01*
X138634239Y-91811467D01*
X138634239Y-91811467D01*
G37*
G36*
X164598252Y-92927818D02*
X164598254Y-92927819D01*
X164598255Y-92927819D01*
X164971513Y-93082427D01*
X165104658Y-93171392D01*
X165307439Y-93306886D01*
X165593114Y-93592561D01*
X165593116Y-93592564D01*
X165817573Y-93928487D01*
X165868617Y-94051719D01*
X165972182Y-94301748D01*
X166051000Y-94697993D01*
X166051000Y-95102007D01*
X165985029Y-95433668D01*
X165972181Y-95498255D01*
X165817573Y-95871513D01*
X165817572Y-95871514D01*
X165593114Y-96207439D01*
X165307439Y-96493114D01*
X165307436Y-96493116D01*
X164971513Y-96717573D01*
X164598255Y-96872181D01*
X164598254Y-96872181D01*
X164598252Y-96872182D01*
X164202007Y-96951000D01*
X163797993Y-96951000D01*
X163401748Y-96872182D01*
X163401746Y-96872181D01*
X163401745Y-96872181D01*
X163028487Y-96717573D01*
X162692564Y-96493116D01*
X162692561Y-96493114D01*
X162406886Y-96207439D01*
X162182428Y-95871514D01*
X162182427Y-95871513D01*
X162027819Y-95498255D01*
X162014972Y-95433668D01*
X161949000Y-95102007D01*
X161949000Y-94697993D01*
X162027818Y-94301748D01*
X162131383Y-94051719D01*
X162182427Y-93928487D01*
X162406884Y-93592564D01*
X162406886Y-93592561D01*
X162692561Y-93306886D01*
X162895342Y-93171392D01*
X163028487Y-93082427D01*
X163401745Y-92927819D01*
X163401746Y-92927819D01*
X163401748Y-92927818D01*
X163797993Y-92849000D01*
X164202007Y-92849000D01*
X164598252Y-92927818D01*
X164598252Y-92927818D01*
G37*
G36*
X157277396Y-92085546D02*
X157450466Y-92157234D01*
X157606230Y-92261312D01*
X157738688Y-92393770D01*
X157842766Y-92549534D01*
X157914454Y-92722604D01*
X157951000Y-92906333D01*
X157951000Y-93093667D01*
X157914454Y-93277396D01*
X157842766Y-93450466D01*
X157738688Y-93606230D01*
X157606230Y-93738688D01*
X157450466Y-93842766D01*
X157277396Y-93914454D01*
X157093667Y-93951000D01*
X156906333Y-93951000D01*
X156722604Y-93914454D01*
X156549534Y-93842766D01*
X156393770Y-93738688D01*
X156261312Y-93606230D01*
X156157234Y-93450466D01*
X156085546Y-93277396D01*
X156049000Y-93093667D01*
X156049000Y-92906333D01*
X156085546Y-92722604D01*
X156157234Y-92549534D01*
X156261312Y-92393770D01*
X156393770Y-92261312D01*
X156549534Y-92157234D01*
X156722604Y-92085546D01*
X156906333Y-92049000D01*
X157093667Y-92049000D01*
X157277396Y-92085546D01*
X157277396Y-92085546D01*
G37*
G36*
X157277396Y-89585546D02*
X157450466Y-89657234D01*
X157606230Y-89761312D01*
X157738688Y-89893770D01*
X157842766Y-90049534D01*
X157914454Y-90222604D01*
X157951000Y-90406333D01*
X157951000Y-90593667D01*
X157914454Y-90777396D01*
X157842766Y-90950466D01*
X157738688Y-91106230D01*
X157606230Y-91238688D01*
X157450466Y-91342766D01*
X157277396Y-91414454D01*
X157093667Y-91451000D01*
X156906333Y-91451000D01*
X156722604Y-91414454D01*
X156549534Y-91342766D01*
X156393770Y-91238688D01*
X156261312Y-91106230D01*
X156157234Y-90950466D01*
X156085546Y-90777396D01*
X156049000Y-90593667D01*
X156049000Y-90406333D01*
X156085546Y-90222604D01*
X156157234Y-90049534D01*
X156261312Y-89893770D01*
X156393770Y-89761312D01*
X156549534Y-89657234D01*
X156722604Y-89585546D01*
X156906333Y-89549000D01*
X157093667Y-89549000D01*
X157277396Y-89585546D01*
X157277396Y-89585546D01*
G37*
G36*
X139438677Y-88253465D02*
X139476364Y-88264898D01*
X139511103Y-88283466D01*
X139541548Y-88308452D01*
X139566534Y-88338897D01*
X139585102Y-88373636D01*
X139596535Y-88411323D01*
X139601000Y-88456661D01*
X139601000Y-89543339D01*
X139596535Y-89588677D01*
X139585102Y-89626364D01*
X139566534Y-89661103D01*
X139541548Y-89691548D01*
X139511103Y-89716534D01*
X139476364Y-89735102D01*
X139438677Y-89746535D01*
X139393339Y-89751000D01*
X138556661Y-89751000D01*
X138511323Y-89746535D01*
X138473636Y-89735102D01*
X138438897Y-89716534D01*
X138408452Y-89691548D01*
X138383466Y-89661103D01*
X138364898Y-89626364D01*
X138353465Y-89588677D01*
X138349000Y-89543339D01*
X138349000Y-88456661D01*
X138353465Y-88411323D01*
X138364898Y-88373636D01*
X138383466Y-88338897D01*
X138408452Y-88308452D01*
X138438897Y-88283466D01*
X138473636Y-88264898D01*
X138511323Y-88253465D01*
X138556661Y-88249000D01*
X139393339Y-88249000D01*
X139438677Y-88253465D01*
X139438677Y-88253465D01*
G37*
G36*
X141488677Y-88253465D02*
X141526364Y-88264898D01*
X141561103Y-88283466D01*
X141591548Y-88308452D01*
X141616534Y-88338897D01*
X141635102Y-88373636D01*
X141646535Y-88411323D01*
X141651000Y-88456661D01*
X141651000Y-89543339D01*
X141646535Y-89588677D01*
X141635102Y-89626364D01*
X141616534Y-89661103D01*
X141591548Y-89691548D01*
X141561103Y-89716534D01*
X141526364Y-89735102D01*
X141488677Y-89746535D01*
X141443339Y-89751000D01*
X140606661Y-89751000D01*
X140561323Y-89746535D01*
X140523636Y-89735102D01*
X140488897Y-89716534D01*
X140458452Y-89691548D01*
X140433466Y-89661103D01*
X140414898Y-89626364D01*
X140403465Y-89588677D01*
X140399000Y-89543339D01*
X140399000Y-88456661D01*
X140403465Y-88411323D01*
X140414898Y-88373636D01*
X140433466Y-88338897D01*
X140458452Y-88308452D01*
X140488897Y-88283466D01*
X140523636Y-88264898D01*
X140561323Y-88253465D01*
X140606661Y-88249000D01*
X141443339Y-88249000D01*
X141488677Y-88253465D01*
X141488677Y-88253465D01*
G37*
G36*
X150806565Y-87489389D02*
X150997834Y-87568615D01*
X151169976Y-87683637D01*
X151316363Y-87830024D01*
X151431385Y-88002166D01*
X151510611Y-88193435D01*
X151551000Y-88396484D01*
X151551000Y-88603516D01*
X151510611Y-88806565D01*
X151431385Y-88997834D01*
X151316363Y-89169976D01*
X151169976Y-89316363D01*
X150997834Y-89431385D01*
X150806565Y-89510611D01*
X150603516Y-89551000D01*
X150396484Y-89551000D01*
X150193435Y-89510611D01*
X150002166Y-89431385D01*
X149830024Y-89316363D01*
X149683637Y-89169976D01*
X149568615Y-88997834D01*
X149489389Y-88806565D01*
X149449000Y-88603516D01*
X149449000Y-88396484D01*
X149489389Y-88193435D01*
X149568615Y-88002166D01*
X149683637Y-87830024D01*
X149830024Y-87683637D01*
X150002166Y-87568615D01*
X150193435Y-87489389D01*
X150396484Y-87449000D01*
X150603516Y-87449000D01*
X150806565Y-87489389D01*
X150806565Y-87489389D01*
G37*
G36*
X144306565Y-87489389D02*
X144497834Y-87568615D01*
X144669976Y-87683637D01*
X144816363Y-87830024D01*
X144931385Y-88002166D01*
X145010611Y-88193435D01*
X145051000Y-88396484D01*
X145051000Y-88603516D01*
X145010611Y-88806565D01*
X144931385Y-88997834D01*
X144816363Y-89169976D01*
X144669976Y-89316363D01*
X144497834Y-89431385D01*
X144306565Y-89510611D01*
X144103516Y-89551000D01*
X143896484Y-89551000D01*
X143693435Y-89510611D01*
X143502166Y-89431385D01*
X143330024Y-89316363D01*
X143183637Y-89169976D01*
X143068615Y-88997834D01*
X142989389Y-88806565D01*
X142949000Y-88603516D01*
X142949000Y-88396484D01*
X142989389Y-88193435D01*
X143068615Y-88002166D01*
X143183637Y-87830024D01*
X143330024Y-87683637D01*
X143502166Y-87568615D01*
X143693435Y-87489389D01*
X143896484Y-87449000D01*
X144103516Y-87449000D01*
X144306565Y-87489389D01*
X144306565Y-87489389D01*
G37*
G36*
X157277396Y-87085546D02*
X157450466Y-87157234D01*
X157606230Y-87261312D01*
X157738688Y-87393770D01*
X157842766Y-87549534D01*
X157914454Y-87722604D01*
X157951000Y-87906333D01*
X157951000Y-88093667D01*
X157914454Y-88277396D01*
X157842766Y-88450466D01*
X157738688Y-88606230D01*
X157606230Y-88738688D01*
X157450466Y-88842766D01*
X157277396Y-88914454D01*
X157093667Y-88951000D01*
X156906333Y-88951000D01*
X156722604Y-88914454D01*
X156549534Y-88842766D01*
X156393770Y-88738688D01*
X156261312Y-88606230D01*
X156157234Y-88450466D01*
X156085546Y-88277396D01*
X156049000Y-88093667D01*
X156049000Y-87906333D01*
X156085546Y-87722604D01*
X156157234Y-87549534D01*
X156261312Y-87393770D01*
X156393770Y-87261312D01*
X156549534Y-87157234D01*
X156722604Y-87085546D01*
X156906333Y-87049000D01*
X157093667Y-87049000D01*
X157277396Y-87085546D01*
X157277396Y-87085546D01*
G37*
G36*
X164598252Y-84127818D02*
X164598254Y-84127819D01*
X164598255Y-84127819D01*
X164971513Y-84282427D01*
X165164419Y-84411323D01*
X165307439Y-84506886D01*
X165593114Y-84792561D01*
X165593116Y-84792564D01*
X165817573Y-85128487D01*
X165962688Y-85478827D01*
X165972182Y-85501748D01*
X166051000Y-85897993D01*
X166051000Y-86302007D01*
X166029256Y-86411323D01*
X165972181Y-86698255D01*
X165817573Y-87071513D01*
X165760296Y-87157234D01*
X165593114Y-87407439D01*
X165307439Y-87693114D01*
X165307436Y-87693116D01*
X164971513Y-87917573D01*
X164598255Y-88072181D01*
X164598254Y-88072181D01*
X164598252Y-88072182D01*
X164202007Y-88151000D01*
X163797993Y-88151000D01*
X163401748Y-88072182D01*
X163401746Y-88072181D01*
X163401745Y-88072181D01*
X163028487Y-87917573D01*
X162692564Y-87693116D01*
X162692561Y-87693114D01*
X162406886Y-87407439D01*
X162239704Y-87157234D01*
X162182427Y-87071513D01*
X162027819Y-86698255D01*
X161970745Y-86411323D01*
X161949000Y-86302007D01*
X161949000Y-85897993D01*
X162027818Y-85501748D01*
X162037312Y-85478827D01*
X162182427Y-85128487D01*
X162406884Y-84792564D01*
X162406886Y-84792561D01*
X162692561Y-84506886D01*
X162835581Y-84411323D01*
X163028487Y-84282427D01*
X163401745Y-84127819D01*
X163401746Y-84127819D01*
X163401748Y-84127818D01*
X163797993Y-84049000D01*
X164202007Y-84049000D01*
X164598252Y-84127818D01*
X164598252Y-84127818D01*
G37*
G36*
X141488677Y-86253465D02*
X141526364Y-86264898D01*
X141561103Y-86283466D01*
X141591548Y-86308452D01*
X141616534Y-86338897D01*
X141635102Y-86373636D01*
X141646535Y-86411323D01*
X141651000Y-86456661D01*
X141651000Y-87543339D01*
X141646535Y-87588677D01*
X141635102Y-87626364D01*
X141616534Y-87661103D01*
X141591548Y-87691548D01*
X141561103Y-87716534D01*
X141526364Y-87735102D01*
X141488677Y-87746535D01*
X141443339Y-87751000D01*
X140606661Y-87751000D01*
X140561323Y-87746535D01*
X140523636Y-87735102D01*
X140488897Y-87716534D01*
X140458452Y-87691548D01*
X140433466Y-87661103D01*
X140414898Y-87626364D01*
X140403465Y-87588677D01*
X140399000Y-87543339D01*
X140399000Y-86456661D01*
X140403465Y-86411323D01*
X140414898Y-86373636D01*
X140433466Y-86338897D01*
X140458452Y-86308452D01*
X140488897Y-86283466D01*
X140523636Y-86264898D01*
X140561323Y-86253465D01*
X140606661Y-86249000D01*
X141443339Y-86249000D01*
X141488677Y-86253465D01*
X141488677Y-86253465D01*
G37*
G36*
X139438677Y-86253465D02*
X139476364Y-86264898D01*
X139511103Y-86283466D01*
X139541548Y-86308452D01*
X139566534Y-86338897D01*
X139585102Y-86373636D01*
X139596535Y-86411323D01*
X139601000Y-86456661D01*
X139601000Y-87543339D01*
X139596535Y-87588677D01*
X139585102Y-87626364D01*
X139566534Y-87661103D01*
X139541548Y-87691548D01*
X139511103Y-87716534D01*
X139476364Y-87735102D01*
X139438677Y-87746535D01*
X139393339Y-87751000D01*
X138556661Y-87751000D01*
X138511323Y-87746535D01*
X138473636Y-87735102D01*
X138438897Y-87716534D01*
X138408452Y-87691548D01*
X138383466Y-87661103D01*
X138364898Y-87626364D01*
X138353465Y-87588677D01*
X138349000Y-87543339D01*
X138349000Y-86456661D01*
X138353465Y-86411323D01*
X138364898Y-86373636D01*
X138383466Y-86338897D01*
X138408452Y-86308452D01*
X138438897Y-86283466D01*
X138473636Y-86264898D01*
X138511323Y-86253465D01*
X138556661Y-86249000D01*
X139393339Y-86249000D01*
X139438677Y-86253465D01*
X139438677Y-86253465D01*
G37*
G36*
X137488677Y-84253465D02*
X137526364Y-84264898D01*
X137561103Y-84283466D01*
X137591548Y-84308452D01*
X137616534Y-84338897D01*
X137635102Y-84373636D01*
X137646535Y-84411323D01*
X137651000Y-84456661D01*
X137651000Y-85543339D01*
X137646535Y-85588677D01*
X137635102Y-85626364D01*
X137616534Y-85661103D01*
X137591548Y-85691548D01*
X137561103Y-85716534D01*
X137526364Y-85735102D01*
X137488677Y-85746535D01*
X137443339Y-85751000D01*
X136606661Y-85751000D01*
X136561323Y-85746535D01*
X136523636Y-85735102D01*
X136488897Y-85716534D01*
X136458452Y-85691548D01*
X136433466Y-85661103D01*
X136414898Y-85626364D01*
X136403465Y-85588677D01*
X136399000Y-85543339D01*
X136399000Y-84456661D01*
X136403465Y-84411323D01*
X136414898Y-84373636D01*
X136433466Y-84338897D01*
X136458452Y-84308452D01*
X136488897Y-84283466D01*
X136523636Y-84264898D01*
X136561323Y-84253465D01*
X136606661Y-84249000D01*
X137443339Y-84249000D01*
X137488677Y-84253465D01*
X137488677Y-84253465D01*
G37*
G36*
X135438677Y-84253465D02*
X135476364Y-84264898D01*
X135511103Y-84283466D01*
X135541548Y-84308452D01*
X135566534Y-84338897D01*
X135585102Y-84373636D01*
X135596535Y-84411323D01*
X135601000Y-84456661D01*
X135601000Y-85543339D01*
X135596535Y-85588677D01*
X135585102Y-85626364D01*
X135566534Y-85661103D01*
X135541548Y-85691548D01*
X135511103Y-85716534D01*
X135476364Y-85735102D01*
X135438677Y-85746535D01*
X135393339Y-85751000D01*
X134556661Y-85751000D01*
X134511323Y-85746535D01*
X134473636Y-85735102D01*
X134438897Y-85716534D01*
X134408452Y-85691548D01*
X134383466Y-85661103D01*
X134364898Y-85626364D01*
X134353465Y-85588677D01*
X134349000Y-85543339D01*
X134349000Y-84456661D01*
X134353465Y-84411323D01*
X134364898Y-84373636D01*
X134383466Y-84338897D01*
X134408452Y-84308452D01*
X134438897Y-84283466D01*
X134473636Y-84264898D01*
X134511323Y-84253465D01*
X134556661Y-84249000D01*
X135393339Y-84249000D01*
X135438677Y-84253465D01*
X135438677Y-84253465D01*
G37*
G36*
X150806565Y-82989389D02*
X150997834Y-83068615D01*
X151169976Y-83183637D01*
X151316363Y-83330024D01*
X151431385Y-83502166D01*
X151510611Y-83693435D01*
X151551000Y-83896484D01*
X151551000Y-84103516D01*
X151510611Y-84306565D01*
X151431385Y-84497834D01*
X151316363Y-84669976D01*
X151169976Y-84816363D01*
X150997834Y-84931385D01*
X150806565Y-85010611D01*
X150603516Y-85051000D01*
X150396484Y-85051000D01*
X150193435Y-85010611D01*
X150002166Y-84931385D01*
X149830024Y-84816363D01*
X149683637Y-84669976D01*
X149568615Y-84497834D01*
X149489389Y-84306565D01*
X149449000Y-84103516D01*
X149449000Y-83896484D01*
X149489389Y-83693435D01*
X149568615Y-83502166D01*
X149683637Y-83330024D01*
X149830024Y-83183637D01*
X150002166Y-83068615D01*
X150193435Y-82989389D01*
X150396484Y-82949000D01*
X150603516Y-82949000D01*
X150806565Y-82989389D01*
X150806565Y-82989389D01*
G37*
G36*
X144306565Y-82989389D02*
X144497834Y-83068615D01*
X144669976Y-83183637D01*
X144816363Y-83330024D01*
X144931385Y-83502166D01*
X145010611Y-83693435D01*
X145051000Y-83896484D01*
X145051000Y-84103516D01*
X145010611Y-84306565D01*
X144931385Y-84497834D01*
X144816363Y-84669976D01*
X144669976Y-84816363D01*
X144497834Y-84931385D01*
X144306565Y-85010611D01*
X144103516Y-85051000D01*
X143896484Y-85051000D01*
X143693435Y-85010611D01*
X143502166Y-84931385D01*
X143330024Y-84816363D01*
X143183637Y-84669976D01*
X143068615Y-84497834D01*
X142989389Y-84306565D01*
X142949000Y-84103516D01*
X142949000Y-83896484D01*
X142989389Y-83693435D01*
X143068615Y-83502166D01*
X143183637Y-83330024D01*
X143330024Y-83183637D01*
X143502166Y-83068615D01*
X143693435Y-82989389D01*
X143896484Y-82949000D01*
X144103516Y-82949000D01*
X144306565Y-82989389D01*
X144306565Y-82989389D01*
G37*
G36*
X135438677Y-82253465D02*
X135476364Y-82264898D01*
X135511103Y-82283466D01*
X135541548Y-82308452D01*
X135566534Y-82338897D01*
X135585102Y-82373636D01*
X135596535Y-82411323D01*
X135601000Y-82456661D01*
X135601000Y-83543339D01*
X135596535Y-83588677D01*
X135585102Y-83626364D01*
X135566534Y-83661103D01*
X135541548Y-83691548D01*
X135511103Y-83716534D01*
X135476364Y-83735102D01*
X135438677Y-83746535D01*
X135393339Y-83751000D01*
X134556661Y-83751000D01*
X134511323Y-83746535D01*
X134473636Y-83735102D01*
X134438897Y-83716534D01*
X134408452Y-83691548D01*
X134383466Y-83661103D01*
X134364898Y-83626364D01*
X134353465Y-83588677D01*
X134349000Y-83543339D01*
X134349000Y-82456661D01*
X134353465Y-82411323D01*
X134364898Y-82373636D01*
X134383466Y-82338897D01*
X134408452Y-82308452D01*
X134438897Y-82283466D01*
X134473636Y-82264898D01*
X134511323Y-82253465D01*
X134556661Y-82249000D01*
X135393339Y-82249000D01*
X135438677Y-82253465D01*
X135438677Y-82253465D01*
G37*
G36*
X137488677Y-82253465D02*
X137526364Y-82264898D01*
X137561103Y-82283466D01*
X137591548Y-82308452D01*
X137616534Y-82338897D01*
X137635102Y-82373636D01*
X137646535Y-82411323D01*
X137651000Y-82456661D01*
X137651000Y-83543339D01*
X137646535Y-83588677D01*
X137635102Y-83626364D01*
X137616534Y-83661103D01*
X137591548Y-83691548D01*
X137561103Y-83716534D01*
X137526364Y-83735102D01*
X137488677Y-83746535D01*
X137443339Y-83751000D01*
X136606661Y-83751000D01*
X136561323Y-83746535D01*
X136523636Y-83735102D01*
X136488897Y-83716534D01*
X136458452Y-83691548D01*
X136433466Y-83661103D01*
X136414898Y-83626364D01*
X136403465Y-83588677D01*
X136399000Y-83543339D01*
X136399000Y-82456661D01*
X136403465Y-82411323D01*
X136414898Y-82373636D01*
X136433466Y-82338897D01*
X136458452Y-82308452D01*
X136488897Y-82283466D01*
X136523636Y-82264898D01*
X136561323Y-82253465D01*
X136606661Y-82249000D01*
X137443339Y-82249000D01*
X137488677Y-82253465D01*
X137488677Y-82253465D01*
G37*
G36*
X165438677Y-80253465D02*
X165476364Y-80264898D01*
X165511103Y-80283466D01*
X165541548Y-80308452D01*
X165566534Y-80338897D01*
X165585102Y-80373636D01*
X165596535Y-80411323D01*
X165601000Y-80456661D01*
X165601000Y-81543339D01*
X165596535Y-81588677D01*
X165585102Y-81626364D01*
X165566534Y-81661103D01*
X165541548Y-81691548D01*
X165511103Y-81716534D01*
X165476364Y-81735102D01*
X165438677Y-81746535D01*
X165393339Y-81751000D01*
X164556661Y-81751000D01*
X164511323Y-81746535D01*
X164473636Y-81735102D01*
X164438897Y-81716534D01*
X164408452Y-81691548D01*
X164383466Y-81661103D01*
X164364898Y-81626364D01*
X164353465Y-81588677D01*
X164349000Y-81543339D01*
X164349000Y-80456661D01*
X164353465Y-80411323D01*
X164364898Y-80373636D01*
X164383466Y-80338897D01*
X164408452Y-80308452D01*
X164438897Y-80283466D01*
X164473636Y-80264898D01*
X164511323Y-80253465D01*
X164556661Y-80249000D01*
X165393339Y-80249000D01*
X165438677Y-80253465D01*
X165438677Y-80253465D01*
G37*
G36*
X167488677Y-80253465D02*
X167526364Y-80264898D01*
X167561103Y-80283466D01*
X167591548Y-80308452D01*
X167616534Y-80338897D01*
X167635102Y-80373636D01*
X167646535Y-80411323D01*
X167651000Y-80456661D01*
X167651000Y-81543339D01*
X167646535Y-81588677D01*
X167635102Y-81626364D01*
X167616534Y-81661103D01*
X167591548Y-81691548D01*
X167561103Y-81716534D01*
X167526364Y-81735102D01*
X167488677Y-81746535D01*
X167443339Y-81751000D01*
X166606661Y-81751000D01*
X166561323Y-81746535D01*
X166523636Y-81735102D01*
X166488897Y-81716534D01*
X166458452Y-81691548D01*
X166433466Y-81661103D01*
X166414898Y-81626364D01*
X166403465Y-81588677D01*
X166399000Y-81543339D01*
X166399000Y-80456661D01*
X166403465Y-80411323D01*
X166414898Y-80373636D01*
X166433466Y-80338897D01*
X166458452Y-80308452D01*
X166488897Y-80283466D01*
X166523636Y-80264898D01*
X166561323Y-80253465D01*
X166606661Y-80249000D01*
X167443339Y-80249000D01*
X167488677Y-80253465D01*
X167488677Y-80253465D01*
G37*
G36*
X184438677Y-80253465D02*
X184476364Y-80264898D01*
X184511103Y-80283466D01*
X184541548Y-80308452D01*
X184566534Y-80338897D01*
X184585102Y-80373636D01*
X184596535Y-80411323D01*
X184601000Y-80456661D01*
X184601000Y-81543339D01*
X184596535Y-81588677D01*
X184585102Y-81626364D01*
X184566534Y-81661103D01*
X184541548Y-81691548D01*
X184511103Y-81716534D01*
X184476364Y-81735102D01*
X184438677Y-81746535D01*
X184393339Y-81751000D01*
X183556661Y-81751000D01*
X183511323Y-81746535D01*
X183473636Y-81735102D01*
X183438897Y-81716534D01*
X183408452Y-81691548D01*
X183383466Y-81661103D01*
X183364898Y-81626364D01*
X183353465Y-81588677D01*
X183349000Y-81543339D01*
X183349000Y-80456661D01*
X183353465Y-80411323D01*
X183364898Y-80373636D01*
X183383466Y-80338897D01*
X183408452Y-80308452D01*
X183438897Y-80283466D01*
X183473636Y-80264898D01*
X183511323Y-80253465D01*
X183556661Y-80249000D01*
X184393339Y-80249000D01*
X184438677Y-80253465D01*
X184438677Y-80253465D01*
G37*
G36*
X186488677Y-80253465D02*
X186526364Y-80264898D01*
X186561103Y-80283466D01*
X186591548Y-80308452D01*
X186616534Y-80338897D01*
X186635102Y-80373636D01*
X186646535Y-80411323D01*
X186651000Y-80456661D01*
X186651000Y-81543339D01*
X186646535Y-81588677D01*
X186635102Y-81626364D01*
X186616534Y-81661103D01*
X186591548Y-81691548D01*
X186561103Y-81716534D01*
X186526364Y-81735102D01*
X186488677Y-81746535D01*
X186443339Y-81751000D01*
X185606661Y-81751000D01*
X185561323Y-81746535D01*
X185523636Y-81735102D01*
X185488897Y-81716534D01*
X185458452Y-81691548D01*
X185433466Y-81661103D01*
X185414898Y-81626364D01*
X185403465Y-81588677D01*
X185399000Y-81543339D01*
X185399000Y-80456661D01*
X185403465Y-80411323D01*
X185414898Y-80373636D01*
X185433466Y-80338897D01*
X185458452Y-80308452D01*
X185488897Y-80283466D01*
X185523636Y-80264898D01*
X185561323Y-80253465D01*
X185606661Y-80249000D01*
X186443339Y-80249000D01*
X186488677Y-80253465D01*
X186488677Y-80253465D01*
G37*
G36*
X176431566Y-79164390D02*
X176622835Y-79243616D01*
X176794977Y-79358638D01*
X176941364Y-79505025D01*
X177056386Y-79677167D01*
X177135612Y-79868436D01*
X177176001Y-80071485D01*
X177176001Y-80278517D01*
X177135612Y-80481566D01*
X177056386Y-80672835D01*
X176941364Y-80844977D01*
X176794977Y-80991364D01*
X176622835Y-81106386D01*
X176431566Y-81185612D01*
X176228517Y-81226001D01*
X176021485Y-81226001D01*
X175818436Y-81185612D01*
X175627167Y-81106386D01*
X175455025Y-80991364D01*
X175308638Y-80844977D01*
X175193616Y-80672835D01*
X175114390Y-80481566D01*
X175074001Y-80278517D01*
X175074001Y-80071485D01*
X175114390Y-79868436D01*
X175193616Y-79677167D01*
X175308638Y-79505025D01*
X175455025Y-79358638D01*
X175627167Y-79243616D01*
X175818436Y-79164390D01*
X176021485Y-79124001D01*
X176228517Y-79124001D01*
X176431566Y-79164390D01*
X176431566Y-79164390D01*
G37*
G36*
X169931566Y-79164390D02*
X170122835Y-79243616D01*
X170294977Y-79358638D01*
X170441364Y-79505025D01*
X170556386Y-79677167D01*
X170635612Y-79868436D01*
X170676001Y-80071485D01*
X170676001Y-80278517D01*
X170635612Y-80481566D01*
X170556386Y-80672835D01*
X170441364Y-80844977D01*
X170294977Y-80991364D01*
X170122835Y-81106386D01*
X169931566Y-81185612D01*
X169728517Y-81226001D01*
X169521485Y-81226001D01*
X169318436Y-81185612D01*
X169127167Y-81106386D01*
X168955025Y-80991364D01*
X168808638Y-80844977D01*
X168693616Y-80672835D01*
X168614390Y-80481566D01*
X168574001Y-80278517D01*
X168574001Y-80071485D01*
X168614390Y-79868436D01*
X168693616Y-79677167D01*
X168808638Y-79505025D01*
X168955025Y-79358638D01*
X169127167Y-79243616D01*
X169318436Y-79164390D01*
X169521485Y-79124001D01*
X169728517Y-79124001D01*
X169931566Y-79164390D01*
X169931566Y-79164390D01*
G37*
G36*
X148413677Y-79253465D02*
X148451364Y-79264898D01*
X148486103Y-79283466D01*
X148516548Y-79308452D01*
X148541534Y-79338897D01*
X148560102Y-79373636D01*
X148571535Y-79411323D01*
X148576000Y-79456661D01*
X148576000Y-80543339D01*
X148571535Y-80588677D01*
X148560102Y-80626364D01*
X148541534Y-80661103D01*
X148516548Y-80691548D01*
X148486103Y-80716534D01*
X148451364Y-80735102D01*
X148413677Y-80746535D01*
X148368339Y-80751000D01*
X147531661Y-80751000D01*
X147486323Y-80746535D01*
X147448636Y-80735102D01*
X147413897Y-80716534D01*
X147383452Y-80691548D01*
X147358466Y-80661103D01*
X147339898Y-80626364D01*
X147328465Y-80588677D01*
X147324000Y-80543339D01*
X147324000Y-79456661D01*
X147328465Y-79411323D01*
X147339898Y-79373636D01*
X147358466Y-79338897D01*
X147383452Y-79308452D01*
X147413897Y-79283466D01*
X147448636Y-79264898D01*
X147486323Y-79253465D01*
X147531661Y-79249000D01*
X148368339Y-79249000D01*
X148413677Y-79253465D01*
X148413677Y-79253465D01*
G37*
G36*
X150463677Y-79253465D02*
X150501364Y-79264898D01*
X150536103Y-79283466D01*
X150566548Y-79308452D01*
X150591534Y-79338897D01*
X150610102Y-79373636D01*
X150621535Y-79411323D01*
X150626000Y-79456661D01*
X150626000Y-80543339D01*
X150621535Y-80588677D01*
X150610102Y-80626364D01*
X150591534Y-80661103D01*
X150566548Y-80691548D01*
X150536103Y-80716534D01*
X150501364Y-80735102D01*
X150463677Y-80746535D01*
X150418339Y-80751000D01*
X149581661Y-80751000D01*
X149536323Y-80746535D01*
X149498636Y-80735102D01*
X149463897Y-80716534D01*
X149433452Y-80691548D01*
X149408466Y-80661103D01*
X149389898Y-80626364D01*
X149378465Y-80588677D01*
X149374000Y-80543339D01*
X149374000Y-79456661D01*
X149378465Y-79411323D01*
X149389898Y-79373636D01*
X149408466Y-79338897D01*
X149433452Y-79308452D01*
X149463897Y-79283466D01*
X149498636Y-79264898D01*
X149536323Y-79253465D01*
X149581661Y-79249000D01*
X150418339Y-79249000D01*
X150463677Y-79253465D01*
X150463677Y-79253465D01*
G37*
G36*
X135306565Y-78489389D02*
X135497834Y-78568615D01*
X135669976Y-78683637D01*
X135816363Y-78830024D01*
X135931385Y-79002166D01*
X136010611Y-79193435D01*
X136051000Y-79396484D01*
X136051000Y-79603516D01*
X136010611Y-79806565D01*
X135931385Y-79997834D01*
X135816363Y-80169976D01*
X135669976Y-80316363D01*
X135497834Y-80431385D01*
X135306565Y-80510611D01*
X135103516Y-80551000D01*
X134896484Y-80551000D01*
X134693435Y-80510611D01*
X134502166Y-80431385D01*
X134330024Y-80316363D01*
X134183637Y-80169976D01*
X134068615Y-79997834D01*
X133989389Y-79806565D01*
X133949000Y-79603516D01*
X133949000Y-79396484D01*
X133989389Y-79193435D01*
X134068615Y-79002166D01*
X134183637Y-78830024D01*
X134330024Y-78683637D01*
X134502166Y-78568615D01*
X134693435Y-78489389D01*
X134896484Y-78449000D01*
X135103516Y-78449000D01*
X135306565Y-78489389D01*
X135306565Y-78489389D01*
G37*
G36*
X159806565Y-78489389D02*
X159997834Y-78568615D01*
X160169976Y-78683637D01*
X160316363Y-78830024D01*
X160431385Y-79002166D01*
X160510611Y-79193435D01*
X160551000Y-79396484D01*
X160551000Y-79603516D01*
X160510611Y-79806565D01*
X160431385Y-79997834D01*
X160316363Y-80169976D01*
X160169976Y-80316363D01*
X159997834Y-80431385D01*
X159806565Y-80510611D01*
X159603516Y-80551000D01*
X159396484Y-80551000D01*
X159193435Y-80510611D01*
X159002166Y-80431385D01*
X158830024Y-80316363D01*
X158683637Y-80169976D01*
X158568615Y-79997834D01*
X158489389Y-79806565D01*
X158449000Y-79603516D01*
X158449000Y-79396484D01*
X158489389Y-79193435D01*
X158568615Y-79002166D01*
X158683637Y-78830024D01*
X158830024Y-78683637D01*
X159002166Y-78568615D01*
X159193435Y-78489389D01*
X159396484Y-78449000D01*
X159603516Y-78449000D01*
X159806565Y-78489389D01*
X159806565Y-78489389D01*
G37*
G36*
X141806565Y-78489389D02*
X141997834Y-78568615D01*
X142169976Y-78683637D01*
X142316363Y-78830024D01*
X142431385Y-79002166D01*
X142510611Y-79193435D01*
X142551000Y-79396484D01*
X142551000Y-79603516D01*
X142510611Y-79806565D01*
X142431385Y-79997834D01*
X142316363Y-80169976D01*
X142169976Y-80316363D01*
X141997834Y-80431385D01*
X141806565Y-80510611D01*
X141603516Y-80551000D01*
X141396484Y-80551000D01*
X141193435Y-80510611D01*
X141002166Y-80431385D01*
X140830024Y-80316363D01*
X140683637Y-80169976D01*
X140568615Y-79997834D01*
X140489389Y-79806565D01*
X140449000Y-79603516D01*
X140449000Y-79396484D01*
X140489389Y-79193435D01*
X140568615Y-79002166D01*
X140683637Y-78830024D01*
X140830024Y-78683637D01*
X141002166Y-78568615D01*
X141193435Y-78489389D01*
X141396484Y-78449000D01*
X141603516Y-78449000D01*
X141806565Y-78489389D01*
X141806565Y-78489389D01*
G37*
G36*
X153306565Y-78489389D02*
X153497834Y-78568615D01*
X153669976Y-78683637D01*
X153816363Y-78830024D01*
X153931385Y-79002166D01*
X154010611Y-79193435D01*
X154051000Y-79396484D01*
X154051000Y-79603516D01*
X154010611Y-79806565D01*
X153931385Y-79997834D01*
X153816363Y-80169976D01*
X153669976Y-80316363D01*
X153497834Y-80431385D01*
X153306565Y-80510611D01*
X153103516Y-80551000D01*
X152896484Y-80551000D01*
X152693435Y-80510611D01*
X152502166Y-80431385D01*
X152330024Y-80316363D01*
X152183637Y-80169976D01*
X152068615Y-79997834D01*
X151989389Y-79806565D01*
X151949000Y-79603516D01*
X151949000Y-79396484D01*
X151989389Y-79193435D01*
X152068615Y-79002166D01*
X152183637Y-78830024D01*
X152330024Y-78683637D01*
X152502166Y-78568615D01*
X152693435Y-78489389D01*
X152896484Y-78449000D01*
X153103516Y-78449000D01*
X153306565Y-78489389D01*
X153306565Y-78489389D01*
G37*
G36*
X165413677Y-78253465D02*
X165451364Y-78264898D01*
X165486103Y-78283466D01*
X165516548Y-78308452D01*
X165541534Y-78338897D01*
X165560102Y-78373636D01*
X165571535Y-78411323D01*
X165576000Y-78456661D01*
X165576000Y-79543339D01*
X165571535Y-79588677D01*
X165560102Y-79626364D01*
X165541534Y-79661103D01*
X165516548Y-79691548D01*
X165486103Y-79716534D01*
X165451364Y-79735102D01*
X165413677Y-79746535D01*
X165368339Y-79751000D01*
X164531661Y-79751000D01*
X164486323Y-79746535D01*
X164448636Y-79735102D01*
X164413897Y-79716534D01*
X164383452Y-79691548D01*
X164358466Y-79661103D01*
X164339898Y-79626364D01*
X164328465Y-79588677D01*
X164324000Y-79543339D01*
X164324000Y-78456661D01*
X164328465Y-78411323D01*
X164339898Y-78373636D01*
X164358466Y-78338897D01*
X164383452Y-78308452D01*
X164413897Y-78283466D01*
X164448636Y-78264898D01*
X164486323Y-78253465D01*
X164531661Y-78249000D01*
X165368339Y-78249000D01*
X165413677Y-78253465D01*
X165413677Y-78253465D01*
G37*
G36*
X167463677Y-78253465D02*
X167501364Y-78264898D01*
X167536103Y-78283466D01*
X167566548Y-78308452D01*
X167591534Y-78338897D01*
X167610102Y-78373636D01*
X167621535Y-78411323D01*
X167626000Y-78456661D01*
X167626000Y-79543339D01*
X167621535Y-79588677D01*
X167610102Y-79626364D01*
X167591534Y-79661103D01*
X167566548Y-79691548D01*
X167536103Y-79716534D01*
X167501364Y-79735102D01*
X167463677Y-79746535D01*
X167418339Y-79751000D01*
X166581661Y-79751000D01*
X166536323Y-79746535D01*
X166498636Y-79735102D01*
X166463897Y-79716534D01*
X166433452Y-79691548D01*
X166408466Y-79661103D01*
X166389898Y-79626364D01*
X166378465Y-79588677D01*
X166374000Y-79543339D01*
X166374000Y-78456661D01*
X166378465Y-78411323D01*
X166389898Y-78373636D01*
X166408466Y-78338897D01*
X166433452Y-78308452D01*
X166463897Y-78283466D01*
X166498636Y-78264898D01*
X166536323Y-78253465D01*
X166581661Y-78249000D01*
X167418339Y-78249000D01*
X167463677Y-78253465D01*
X167463677Y-78253465D01*
G37*
G36*
X186488677Y-78253465D02*
X186526364Y-78264898D01*
X186561103Y-78283466D01*
X186591548Y-78308452D01*
X186616534Y-78338897D01*
X186635102Y-78373636D01*
X186646535Y-78411323D01*
X186651000Y-78456661D01*
X186651000Y-79543339D01*
X186646535Y-79588677D01*
X186635102Y-79626364D01*
X186616534Y-79661103D01*
X186591548Y-79691548D01*
X186561103Y-79716534D01*
X186526364Y-79735102D01*
X186488677Y-79746535D01*
X186443339Y-79751000D01*
X185606661Y-79751000D01*
X185561323Y-79746535D01*
X185523636Y-79735102D01*
X185488897Y-79716534D01*
X185458452Y-79691548D01*
X185433466Y-79661103D01*
X185414898Y-79626364D01*
X185403465Y-79588677D01*
X185399000Y-79543339D01*
X185399000Y-78456661D01*
X185403465Y-78411323D01*
X185414898Y-78373636D01*
X185433466Y-78338897D01*
X185458452Y-78308452D01*
X185488897Y-78283466D01*
X185523636Y-78264898D01*
X185561323Y-78253465D01*
X185606661Y-78249000D01*
X186443339Y-78249000D01*
X186488677Y-78253465D01*
X186488677Y-78253465D01*
G37*
G36*
X184438677Y-78253465D02*
X184476364Y-78264898D01*
X184511103Y-78283466D01*
X184541548Y-78308452D01*
X184566534Y-78338897D01*
X184585102Y-78373636D01*
X184596535Y-78411323D01*
X184601000Y-78456661D01*
X184601000Y-79543339D01*
X184596535Y-79588677D01*
X184585102Y-79626364D01*
X184566534Y-79661103D01*
X184541548Y-79691548D01*
X184511103Y-79716534D01*
X184476364Y-79735102D01*
X184438677Y-79746535D01*
X184393339Y-79751000D01*
X183556661Y-79751000D01*
X183511323Y-79746535D01*
X183473636Y-79735102D01*
X183438897Y-79716534D01*
X183408452Y-79691548D01*
X183383466Y-79661103D01*
X183364898Y-79626364D01*
X183353465Y-79588677D01*
X183349000Y-79543339D01*
X183349000Y-78456661D01*
X183353465Y-78411323D01*
X183364898Y-78373636D01*
X183383466Y-78338897D01*
X183408452Y-78308452D01*
X183438897Y-78283466D01*
X183473636Y-78264898D01*
X183511323Y-78253465D01*
X183556661Y-78249000D01*
X184393339Y-78249000D01*
X184438677Y-78253465D01*
X184438677Y-78253465D01*
G37*
G36*
X150488677Y-77253465D02*
X150526364Y-77264898D01*
X150561103Y-77283466D01*
X150591548Y-77308452D01*
X150616534Y-77338897D01*
X150635102Y-77373636D01*
X150646535Y-77411323D01*
X150651000Y-77456661D01*
X150651000Y-78543339D01*
X150646535Y-78588677D01*
X150635102Y-78626364D01*
X150616534Y-78661103D01*
X150591548Y-78691548D01*
X150561103Y-78716534D01*
X150526364Y-78735102D01*
X150488677Y-78746535D01*
X150443339Y-78751000D01*
X149606661Y-78751000D01*
X149561323Y-78746535D01*
X149523636Y-78735102D01*
X149488897Y-78716534D01*
X149458452Y-78691548D01*
X149433466Y-78661103D01*
X149414898Y-78626364D01*
X149403465Y-78588677D01*
X149399000Y-78543339D01*
X149399000Y-77456661D01*
X149403465Y-77411323D01*
X149414898Y-77373636D01*
X149433466Y-77338897D01*
X149458452Y-77308452D01*
X149488897Y-77283466D01*
X149523636Y-77264898D01*
X149561323Y-77253465D01*
X149606661Y-77249000D01*
X150443339Y-77249000D01*
X150488677Y-77253465D01*
X150488677Y-77253465D01*
G37*
G36*
X148438677Y-77253465D02*
X148476364Y-77264898D01*
X148511103Y-77283466D01*
X148541548Y-77308452D01*
X148566534Y-77338897D01*
X148585102Y-77373636D01*
X148596535Y-77411323D01*
X148601000Y-77456661D01*
X148601000Y-78543339D01*
X148596535Y-78588677D01*
X148585102Y-78626364D01*
X148566534Y-78661103D01*
X148541548Y-78691548D01*
X148511103Y-78716534D01*
X148476364Y-78735102D01*
X148438677Y-78746535D01*
X148393339Y-78751000D01*
X147556661Y-78751000D01*
X147511323Y-78746535D01*
X147473636Y-78735102D01*
X147438897Y-78716534D01*
X147408452Y-78691548D01*
X147383466Y-78661103D01*
X147364898Y-78626364D01*
X147353465Y-78588677D01*
X147349000Y-78543339D01*
X147349000Y-77456661D01*
X147353465Y-77411323D01*
X147364898Y-77373636D01*
X147383466Y-77338897D01*
X147408452Y-77308452D01*
X147438897Y-77283466D01*
X147473636Y-77264898D01*
X147511323Y-77253465D01*
X147556661Y-77249000D01*
X148393339Y-77249000D01*
X148438677Y-77253465D01*
X148438677Y-77253465D01*
G37*
G36*
X176431566Y-74664390D02*
X176622835Y-74743616D01*
X176794977Y-74858638D01*
X176941364Y-75005025D01*
X177056386Y-75177167D01*
X177135612Y-75368436D01*
X177176001Y-75571485D01*
X177176001Y-75778517D01*
X177135612Y-75981566D01*
X177056386Y-76172835D01*
X176941364Y-76344977D01*
X176794977Y-76491364D01*
X176622835Y-76606386D01*
X176431566Y-76685612D01*
X176228517Y-76726001D01*
X176021485Y-76726001D01*
X175818436Y-76685612D01*
X175627167Y-76606386D01*
X175455025Y-76491364D01*
X175308638Y-76344977D01*
X175193616Y-76172835D01*
X175114390Y-75981566D01*
X175074001Y-75778517D01*
X175074001Y-75571485D01*
X175114390Y-75368436D01*
X175193616Y-75177167D01*
X175308638Y-75005025D01*
X175455025Y-74858638D01*
X175627167Y-74743616D01*
X175818436Y-74664390D01*
X176021485Y-74624001D01*
X176228517Y-74624001D01*
X176431566Y-74664390D01*
X176431566Y-74664390D01*
G37*
G36*
X169931566Y-74664390D02*
X170122835Y-74743616D01*
X170294977Y-74858638D01*
X170441364Y-75005025D01*
X170556386Y-75177167D01*
X170635612Y-75368436D01*
X170676001Y-75571485D01*
X170676001Y-75778517D01*
X170635612Y-75981566D01*
X170556386Y-76172835D01*
X170441364Y-76344977D01*
X170294977Y-76491364D01*
X170122835Y-76606386D01*
X169931566Y-76685612D01*
X169728517Y-76726001D01*
X169521485Y-76726001D01*
X169318436Y-76685612D01*
X169127167Y-76606386D01*
X168955025Y-76491364D01*
X168808638Y-76344977D01*
X168693616Y-76172835D01*
X168614390Y-75981566D01*
X168574001Y-75778517D01*
X168574001Y-75571485D01*
X168614390Y-75368436D01*
X168693616Y-75177167D01*
X168808638Y-75005025D01*
X168955025Y-74858638D01*
X169127167Y-74743616D01*
X169318436Y-74664390D01*
X169521485Y-74624001D01*
X169728517Y-74624001D01*
X169931566Y-74664390D01*
X169931566Y-74664390D01*
G37*
G36*
X186806565Y-74489389D02*
X186997834Y-74568615D01*
X187169976Y-74683637D01*
X187316363Y-74830024D01*
X187431385Y-75002166D01*
X187510611Y-75193435D01*
X187551000Y-75396484D01*
X187551000Y-75603516D01*
X187510611Y-75806565D01*
X187431385Y-75997834D01*
X187316363Y-76169976D01*
X187169976Y-76316363D01*
X186997834Y-76431385D01*
X186806565Y-76510611D01*
X186603516Y-76551000D01*
X186396484Y-76551000D01*
X186193435Y-76510611D01*
X186002166Y-76431385D01*
X185830024Y-76316363D01*
X185683637Y-76169976D01*
X185568615Y-75997834D01*
X185489389Y-75806565D01*
X185449000Y-75603516D01*
X185449000Y-75396484D01*
X185489389Y-75193435D01*
X185568615Y-75002166D01*
X185683637Y-74830024D01*
X185830024Y-74683637D01*
X186002166Y-74568615D01*
X186193435Y-74489389D01*
X186396484Y-74449000D01*
X186603516Y-74449000D01*
X186806565Y-74489389D01*
X186806565Y-74489389D01*
G37*
G36*
X180306565Y-74489389D02*
X180497834Y-74568615D01*
X180669976Y-74683637D01*
X180816363Y-74830024D01*
X180931385Y-75002166D01*
X181010611Y-75193435D01*
X181051000Y-75396484D01*
X181051000Y-75603516D01*
X181010611Y-75806565D01*
X180931385Y-75997834D01*
X180816363Y-76169976D01*
X180669976Y-76316363D01*
X180497834Y-76431385D01*
X180306565Y-76510611D01*
X180103516Y-76551000D01*
X179896484Y-76551000D01*
X179693435Y-76510611D01*
X179502166Y-76431385D01*
X179330024Y-76316363D01*
X179183637Y-76169976D01*
X179068615Y-75997834D01*
X178989389Y-75806565D01*
X178949000Y-75603516D01*
X178949000Y-75396484D01*
X178989389Y-75193435D01*
X179068615Y-75002166D01*
X179183637Y-74830024D01*
X179330024Y-74683637D01*
X179502166Y-74568615D01*
X179693435Y-74489389D01*
X179896484Y-74449000D01*
X180103516Y-74449000D01*
X180306565Y-74489389D01*
X180306565Y-74489389D01*
G37*
G36*
X153306565Y-73989389D02*
X153497834Y-74068615D01*
X153669976Y-74183637D01*
X153816363Y-74330024D01*
X153931385Y-74502166D01*
X154010611Y-74693435D01*
X154051000Y-74896484D01*
X154051000Y-75103516D01*
X154010611Y-75306565D01*
X153931385Y-75497834D01*
X153816363Y-75669976D01*
X153669976Y-75816363D01*
X153497834Y-75931385D01*
X153306565Y-76010611D01*
X153103516Y-76051000D01*
X152896484Y-76051000D01*
X152693435Y-76010611D01*
X152502166Y-75931385D01*
X152330024Y-75816363D01*
X152183637Y-75669976D01*
X152068615Y-75497834D01*
X151989389Y-75306565D01*
X151949000Y-75103516D01*
X151949000Y-74896484D01*
X151989389Y-74693435D01*
X152068615Y-74502166D01*
X152183637Y-74330024D01*
X152330024Y-74183637D01*
X152502166Y-74068615D01*
X152693435Y-73989389D01*
X152896484Y-73949000D01*
X153103516Y-73949000D01*
X153306565Y-73989389D01*
X153306565Y-73989389D01*
G37*
G36*
X159806565Y-73989389D02*
X159997834Y-74068615D01*
X160169976Y-74183637D01*
X160316363Y-74330024D01*
X160431385Y-74502166D01*
X160510611Y-74693435D01*
X160551000Y-74896484D01*
X160551000Y-75103516D01*
X160510611Y-75306565D01*
X160431385Y-75497834D01*
X160316363Y-75669976D01*
X160169976Y-75816363D01*
X159997834Y-75931385D01*
X159806565Y-76010611D01*
X159603516Y-76051000D01*
X159396484Y-76051000D01*
X159193435Y-76010611D01*
X159002166Y-75931385D01*
X158830024Y-75816363D01*
X158683637Y-75669976D01*
X158568615Y-75497834D01*
X158489389Y-75306565D01*
X158449000Y-75103516D01*
X158449000Y-74896484D01*
X158489389Y-74693435D01*
X158568615Y-74502166D01*
X158683637Y-74330024D01*
X158830024Y-74183637D01*
X159002166Y-74068615D01*
X159193435Y-73989389D01*
X159396484Y-73949000D01*
X159603516Y-73949000D01*
X159806565Y-73989389D01*
X159806565Y-73989389D01*
G37*
G36*
X141806565Y-73989389D02*
X141997834Y-74068615D01*
X142169976Y-74183637D01*
X142316363Y-74330024D01*
X142431385Y-74502166D01*
X142510611Y-74693435D01*
X142551000Y-74896484D01*
X142551000Y-75103516D01*
X142510611Y-75306565D01*
X142431385Y-75497834D01*
X142316363Y-75669976D01*
X142169976Y-75816363D01*
X141997834Y-75931385D01*
X141806565Y-76010611D01*
X141603516Y-76051000D01*
X141396484Y-76051000D01*
X141193435Y-76010611D01*
X141002166Y-75931385D01*
X140830024Y-75816363D01*
X140683637Y-75669976D01*
X140568615Y-75497834D01*
X140489389Y-75306565D01*
X140449000Y-75103516D01*
X140449000Y-74896484D01*
X140489389Y-74693435D01*
X140568615Y-74502166D01*
X140683637Y-74330024D01*
X140830024Y-74183637D01*
X141002166Y-74068615D01*
X141193435Y-73989389D01*
X141396484Y-73949000D01*
X141603516Y-73949000D01*
X141806565Y-73989389D01*
X141806565Y-73989389D01*
G37*
G36*
X135306565Y-73989389D02*
X135497834Y-74068615D01*
X135669976Y-74183637D01*
X135816363Y-74330024D01*
X135931385Y-74502166D01*
X136010611Y-74693435D01*
X136051000Y-74896484D01*
X136051000Y-75103516D01*
X136010611Y-75306565D01*
X135931385Y-75497834D01*
X135816363Y-75669976D01*
X135669976Y-75816363D01*
X135497834Y-75931385D01*
X135306565Y-76010611D01*
X135103516Y-76051000D01*
X134896484Y-76051000D01*
X134693435Y-76010611D01*
X134502166Y-75931385D01*
X134330024Y-75816363D01*
X134183637Y-75669976D01*
X134068615Y-75497834D01*
X133989389Y-75306565D01*
X133949000Y-75103516D01*
X133949000Y-74896484D01*
X133989389Y-74693435D01*
X134068615Y-74502166D01*
X134183637Y-74330024D01*
X134330024Y-74183637D01*
X134502166Y-74068615D01*
X134693435Y-73989389D01*
X134896484Y-73949000D01*
X135103516Y-73949000D01*
X135306565Y-73989389D01*
X135306565Y-73989389D01*
G37*
G36*
X166588677Y-74403465D02*
X166626364Y-74414898D01*
X166661103Y-74433466D01*
X166691548Y-74458452D01*
X166716534Y-74488897D01*
X166735102Y-74523636D01*
X166746535Y-74561323D01*
X166751000Y-74606661D01*
X166751000Y-75443339D01*
X166746535Y-75488677D01*
X166735102Y-75526364D01*
X166716534Y-75561103D01*
X166691548Y-75591548D01*
X166661103Y-75616534D01*
X166626364Y-75635102D01*
X166588677Y-75646535D01*
X166543339Y-75651000D01*
X165456661Y-75651000D01*
X165411323Y-75646535D01*
X165373636Y-75635102D01*
X165338897Y-75616534D01*
X165308452Y-75591548D01*
X165283466Y-75561103D01*
X165264898Y-75526364D01*
X165253465Y-75488677D01*
X165249000Y-75443339D01*
X165249000Y-74606661D01*
X165253465Y-74561323D01*
X165264898Y-74523636D01*
X165283466Y-74488897D01*
X165308452Y-74458452D01*
X165338897Y-74433466D01*
X165373636Y-74414898D01*
X165411323Y-74403465D01*
X165456661Y-74399000D01*
X166543339Y-74399000D01*
X166588677Y-74403465D01*
X166588677Y-74403465D01*
G37*
G36*
X163588677Y-74403465D02*
X163626364Y-74414898D01*
X163661103Y-74433466D01*
X163691548Y-74458452D01*
X163716534Y-74488897D01*
X163735102Y-74523636D01*
X163746535Y-74561323D01*
X163751000Y-74606661D01*
X163751000Y-75443339D01*
X163746535Y-75488677D01*
X163735102Y-75526364D01*
X163716534Y-75561103D01*
X163691548Y-75591548D01*
X163661103Y-75616534D01*
X163626364Y-75635102D01*
X163588677Y-75646535D01*
X163543339Y-75651000D01*
X162456661Y-75651000D01*
X162411323Y-75646535D01*
X162373636Y-75635102D01*
X162338897Y-75616534D01*
X162308452Y-75591548D01*
X162283466Y-75561103D01*
X162264898Y-75526364D01*
X162253465Y-75488677D01*
X162249000Y-75443339D01*
X162249000Y-74606661D01*
X162253465Y-74561323D01*
X162264898Y-74523636D01*
X162283466Y-74488897D01*
X162308452Y-74458452D01*
X162338897Y-74433466D01*
X162373636Y-74414898D01*
X162411323Y-74403465D01*
X162456661Y-74399000D01*
X163543339Y-74399000D01*
X163588677Y-74403465D01*
X163588677Y-74403465D01*
G37*
G36*
X163588677Y-72353465D02*
X163626364Y-72364898D01*
X163661103Y-72383466D01*
X163691548Y-72408452D01*
X163716534Y-72438897D01*
X163735102Y-72473636D01*
X163746535Y-72511323D01*
X163751000Y-72556661D01*
X163751000Y-73393339D01*
X163746535Y-73438677D01*
X163735102Y-73476364D01*
X163716534Y-73511103D01*
X163691548Y-73541548D01*
X163661103Y-73566534D01*
X163626364Y-73585102D01*
X163588677Y-73596535D01*
X163543339Y-73601000D01*
X162456661Y-73601000D01*
X162411323Y-73596535D01*
X162373636Y-73585102D01*
X162338897Y-73566534D01*
X162308452Y-73541548D01*
X162283466Y-73511103D01*
X162264898Y-73476364D01*
X162253465Y-73438677D01*
X162249000Y-73393339D01*
X162249000Y-72556661D01*
X162253465Y-72511323D01*
X162264898Y-72473636D01*
X162283466Y-72438897D01*
X162308452Y-72408452D01*
X162338897Y-72383466D01*
X162373636Y-72364898D01*
X162411323Y-72353465D01*
X162456661Y-72349000D01*
X163543339Y-72349000D01*
X163588677Y-72353465D01*
X163588677Y-72353465D01*
G37*
G36*
X166588677Y-72353465D02*
X166626364Y-72364898D01*
X166661103Y-72383466D01*
X166691548Y-72408452D01*
X166716534Y-72438897D01*
X166735102Y-72473636D01*
X166746535Y-72511323D01*
X166751000Y-72556661D01*
X166751000Y-73393339D01*
X166746535Y-73438677D01*
X166735102Y-73476364D01*
X166716534Y-73511103D01*
X166691548Y-73541548D01*
X166661103Y-73566534D01*
X166626364Y-73585102D01*
X166588677Y-73596535D01*
X166543339Y-73601000D01*
X165456661Y-73601000D01*
X165411323Y-73596535D01*
X165373636Y-73585102D01*
X165338897Y-73566534D01*
X165308452Y-73541548D01*
X165283466Y-73511103D01*
X165264898Y-73476364D01*
X165253465Y-73438677D01*
X165249000Y-73393339D01*
X165249000Y-72556661D01*
X165253465Y-72511323D01*
X165264898Y-72473636D01*
X165283466Y-72438897D01*
X165308452Y-72408452D01*
X165338897Y-72383466D01*
X165373636Y-72364898D01*
X165411323Y-72353465D01*
X165456661Y-72349000D01*
X166543339Y-72349000D01*
X166588677Y-72353465D01*
X166588677Y-72353465D01*
G37*
G36*
X175478677Y-71953465D02*
X175516364Y-71964898D01*
X175551103Y-71983466D01*
X175581548Y-72008452D01*
X175606534Y-72038897D01*
X175625102Y-72073636D01*
X175636535Y-72111323D01*
X175641000Y-72156661D01*
X175641000Y-73243339D01*
X175636535Y-73288677D01*
X175625102Y-73326364D01*
X175606534Y-73361103D01*
X175581548Y-73391548D01*
X175551103Y-73416534D01*
X175516364Y-73435102D01*
X175478677Y-73446535D01*
X175433339Y-73451000D01*
X174596661Y-73451000D01*
X174551323Y-73446535D01*
X174513636Y-73435102D01*
X174478897Y-73416534D01*
X174448452Y-73391548D01*
X174423466Y-73361103D01*
X174404898Y-73326364D01*
X174393465Y-73288677D01*
X174389000Y-73243339D01*
X174389000Y-72156661D01*
X174393465Y-72111323D01*
X174404898Y-72073636D01*
X174423466Y-72038897D01*
X174448452Y-72008452D01*
X174478897Y-71983466D01*
X174513636Y-71964898D01*
X174551323Y-71953465D01*
X174596661Y-71949000D01*
X175433339Y-71949000D01*
X175478677Y-71953465D01*
X175478677Y-71953465D01*
G37*
G36*
X173428677Y-71953465D02*
X173466364Y-71964898D01*
X173501103Y-71983466D01*
X173531548Y-72008452D01*
X173556534Y-72038897D01*
X173575102Y-72073636D01*
X173586535Y-72111323D01*
X173591000Y-72156661D01*
X173591000Y-73243339D01*
X173586535Y-73288677D01*
X173575102Y-73326364D01*
X173556534Y-73361103D01*
X173531548Y-73391548D01*
X173501103Y-73416534D01*
X173466364Y-73435102D01*
X173428677Y-73446535D01*
X173383339Y-73451000D01*
X172546661Y-73451000D01*
X172501323Y-73446535D01*
X172463636Y-73435102D01*
X172428897Y-73416534D01*
X172398452Y-73391548D01*
X172373466Y-73361103D01*
X172354898Y-73326364D01*
X172343465Y-73288677D01*
X172339000Y-73243339D01*
X172339000Y-72156661D01*
X172343465Y-72111323D01*
X172354898Y-72073636D01*
X172373466Y-72038897D01*
X172398452Y-72008452D01*
X172428897Y-71983466D01*
X172463636Y-71964898D01*
X172501323Y-71953465D01*
X172546661Y-71949000D01*
X173383339Y-71949000D01*
X173428677Y-71953465D01*
X173428677Y-71953465D01*
G37*
G36*
X186806565Y-69989389D02*
X186997834Y-70068615D01*
X187169976Y-70183637D01*
X187316363Y-70330024D01*
X187431385Y-70502166D01*
X187510611Y-70693435D01*
X187551000Y-70896484D01*
X187551000Y-71103516D01*
X187510611Y-71306565D01*
X187431385Y-71497834D01*
X187316363Y-71669976D01*
X187169976Y-71816363D01*
X186997834Y-71931385D01*
X186806565Y-72010611D01*
X186603516Y-72051000D01*
X186396484Y-72051000D01*
X186193435Y-72010611D01*
X186002166Y-71931385D01*
X185830024Y-71816363D01*
X185683637Y-71669976D01*
X185568615Y-71497834D01*
X185489389Y-71306565D01*
X185449000Y-71103516D01*
X185449000Y-70896484D01*
X185489389Y-70693435D01*
X185568615Y-70502166D01*
X185683637Y-70330024D01*
X185830024Y-70183637D01*
X186002166Y-70068615D01*
X186193435Y-69989389D01*
X186396484Y-69949000D01*
X186603516Y-69949000D01*
X186806565Y-69989389D01*
X186806565Y-69989389D01*
G37*
G36*
X180306565Y-69989389D02*
X180497834Y-70068615D01*
X180669976Y-70183637D01*
X180816363Y-70330024D01*
X180931385Y-70502166D01*
X181010611Y-70693435D01*
X181051000Y-70896484D01*
X181051000Y-71103516D01*
X181010611Y-71306565D01*
X180931385Y-71497834D01*
X180816363Y-71669976D01*
X180669976Y-71816363D01*
X180497834Y-71931385D01*
X180306565Y-72010611D01*
X180103516Y-72051000D01*
X179896484Y-72051000D01*
X179693435Y-72010611D01*
X179502166Y-71931385D01*
X179330024Y-71816363D01*
X179183637Y-71669976D01*
X179068615Y-71497834D01*
X178989389Y-71306565D01*
X178949000Y-71103516D01*
X178949000Y-70896484D01*
X178989389Y-70693435D01*
X179068615Y-70502166D01*
X179183637Y-70330024D01*
X179330024Y-70183637D01*
X179502166Y-70068615D01*
X179693435Y-69989389D01*
X179896484Y-69949000D01*
X180103516Y-69949000D01*
X180306565Y-69989389D01*
X180306565Y-69989389D01*
G37*
G36*
X139438677Y-70253465D02*
X139476364Y-70264898D01*
X139511103Y-70283466D01*
X139541548Y-70308452D01*
X139566534Y-70338897D01*
X139585102Y-70373636D01*
X139596535Y-70411323D01*
X139601000Y-70456661D01*
X139601000Y-71543339D01*
X139596535Y-71588677D01*
X139585102Y-71626364D01*
X139566534Y-71661103D01*
X139541548Y-71691548D01*
X139511103Y-71716534D01*
X139476364Y-71735102D01*
X139438677Y-71746535D01*
X139393339Y-71751000D01*
X138556661Y-71751000D01*
X138511323Y-71746535D01*
X138473636Y-71735102D01*
X138438897Y-71716534D01*
X138408452Y-71691548D01*
X138383466Y-71661103D01*
X138364898Y-71626364D01*
X138353465Y-71588677D01*
X138349000Y-71543339D01*
X138349000Y-70456661D01*
X138353465Y-70411323D01*
X138364898Y-70373636D01*
X138383466Y-70338897D01*
X138408452Y-70308452D01*
X138438897Y-70283466D01*
X138473636Y-70264898D01*
X138511323Y-70253465D01*
X138556661Y-70249000D01*
X139393339Y-70249000D01*
X139438677Y-70253465D01*
X139438677Y-70253465D01*
G37*
G36*
X141488677Y-70253465D02*
X141526364Y-70264898D01*
X141561103Y-70283466D01*
X141591548Y-70308452D01*
X141616534Y-70338897D01*
X141635102Y-70373636D01*
X141646535Y-70411323D01*
X141651000Y-70456661D01*
X141651000Y-71543339D01*
X141646535Y-71588677D01*
X141635102Y-71626364D01*
X141616534Y-71661103D01*
X141591548Y-71691548D01*
X141561103Y-71716534D01*
X141526364Y-71735102D01*
X141488677Y-71746535D01*
X141443339Y-71751000D01*
X140606661Y-71751000D01*
X140561323Y-71746535D01*
X140523636Y-71735102D01*
X140488897Y-71716534D01*
X140458452Y-71691548D01*
X140433466Y-71661103D01*
X140414898Y-71626364D01*
X140403465Y-71588677D01*
X140399000Y-71543339D01*
X140399000Y-70456661D01*
X140403465Y-70411323D01*
X140414898Y-70373636D01*
X140433466Y-70338897D01*
X140458452Y-70308452D01*
X140488897Y-70283466D01*
X140523636Y-70264898D01*
X140561323Y-70253465D01*
X140606661Y-70249000D01*
X141443339Y-70249000D01*
X141488677Y-70253465D01*
X141488677Y-70253465D01*
G37*
G36*
X150806565Y-69489389D02*
X150997834Y-69568615D01*
X151169976Y-69683637D01*
X151316363Y-69830024D01*
X151431385Y-70002166D01*
X151510611Y-70193435D01*
X151551000Y-70396484D01*
X151551000Y-70603516D01*
X151510611Y-70806565D01*
X151431385Y-70997834D01*
X151316363Y-71169976D01*
X151169976Y-71316363D01*
X150997834Y-71431385D01*
X150806565Y-71510611D01*
X150603516Y-71551000D01*
X150396484Y-71551000D01*
X150193435Y-71510611D01*
X150002166Y-71431385D01*
X149830024Y-71316363D01*
X149683637Y-71169976D01*
X149568615Y-70997834D01*
X149489389Y-70806565D01*
X149449000Y-70603516D01*
X149449000Y-70396484D01*
X149489389Y-70193435D01*
X149568615Y-70002166D01*
X149683637Y-69830024D01*
X149830024Y-69683637D01*
X150002166Y-69568615D01*
X150193435Y-69489389D01*
X150396484Y-69449000D01*
X150603516Y-69449000D01*
X150806565Y-69489389D01*
X150806565Y-69489389D01*
G37*
G36*
X144306565Y-69489389D02*
X144497834Y-69568615D01*
X144669976Y-69683637D01*
X144816363Y-69830024D01*
X144931385Y-70002166D01*
X145010611Y-70193435D01*
X145051000Y-70396484D01*
X145051000Y-70603516D01*
X145010611Y-70806565D01*
X144931385Y-70997834D01*
X144816363Y-71169976D01*
X144669976Y-71316363D01*
X144497834Y-71431385D01*
X144306565Y-71510611D01*
X144103516Y-71551000D01*
X143896484Y-71551000D01*
X143693435Y-71510611D01*
X143502166Y-71431385D01*
X143330024Y-71316363D01*
X143183637Y-71169976D01*
X143068615Y-70997834D01*
X142989389Y-70806565D01*
X142949000Y-70603516D01*
X142949000Y-70396484D01*
X142989389Y-70193435D01*
X143068615Y-70002166D01*
X143183637Y-69830024D01*
X143330024Y-69683637D01*
X143502166Y-69568615D01*
X143693435Y-69489389D01*
X143896484Y-69449000D01*
X144103516Y-69449000D01*
X144306565Y-69489389D01*
X144306565Y-69489389D01*
G37*
G36*
X165006821Y-68381313D02*
X165006824Y-68381314D01*
X165006825Y-68381314D01*
X165167239Y-68429975D01*
X165167241Y-68429976D01*
X165167244Y-68429977D01*
X165315078Y-68508995D01*
X165444659Y-68615341D01*
X165551005Y-68744922D01*
X165630023Y-68892756D01*
X165630024Y-68892759D01*
X165630025Y-68892761D01*
X165678686Y-69053175D01*
X165678686Y-69053178D01*
X165678687Y-69053180D01*
X165691000Y-69178197D01*
X165691000Y-70061804D01*
X165678687Y-70186821D01*
X165678686Y-70186824D01*
X165678686Y-70186825D01*
X165632556Y-70338897D01*
X165630023Y-70347244D01*
X165551005Y-70495078D01*
X165444659Y-70624659D01*
X165315078Y-70731005D01*
X165167243Y-70810023D01*
X165167240Y-70810024D01*
X165167238Y-70810025D01*
X165006824Y-70858686D01*
X165006823Y-70858686D01*
X165006820Y-70858687D01*
X164840000Y-70875117D01*
X164673179Y-70858687D01*
X164673176Y-70858686D01*
X164673175Y-70858686D01*
X164512761Y-70810025D01*
X164512759Y-70810024D01*
X164512756Y-70810023D01*
X164364922Y-70731005D01*
X164235341Y-70624659D01*
X164128995Y-70495078D01*
X164049977Y-70347243D01*
X164044755Y-70330027D01*
X164001314Y-70186824D01*
X164001314Y-70186823D01*
X164001313Y-70186820D01*
X163989000Y-70061803D01*
X163989000Y-69178197D01*
X164001314Y-69053179D01*
X164049978Y-68892756D01*
X164128996Y-68744922D01*
X164235342Y-68615341D01*
X164364923Y-68508995D01*
X164512757Y-68429977D01*
X164512760Y-68429976D01*
X164512762Y-68429975D01*
X164673176Y-68381314D01*
X164673177Y-68381314D01*
X164673180Y-68381313D01*
X164840000Y-68364883D01*
X165006821Y-68381313D01*
X165006821Y-68381313D01*
G37*
G36*
X162466821Y-68381313D02*
X162466824Y-68381314D01*
X162466825Y-68381314D01*
X162627239Y-68429975D01*
X162627241Y-68429976D01*
X162627244Y-68429977D01*
X162775078Y-68508995D01*
X162904659Y-68615341D01*
X163011005Y-68744922D01*
X163090023Y-68892756D01*
X163090024Y-68892759D01*
X163090025Y-68892761D01*
X163138686Y-69053175D01*
X163138686Y-69053178D01*
X163138687Y-69053180D01*
X163151000Y-69178197D01*
X163151000Y-70061804D01*
X163138687Y-70186821D01*
X163138686Y-70186824D01*
X163138686Y-70186825D01*
X163092556Y-70338897D01*
X163090023Y-70347244D01*
X163011005Y-70495078D01*
X162904659Y-70624659D01*
X162775078Y-70731005D01*
X162627243Y-70810023D01*
X162627240Y-70810024D01*
X162627238Y-70810025D01*
X162466824Y-70858686D01*
X162466823Y-70858686D01*
X162466820Y-70858687D01*
X162300000Y-70875117D01*
X162133179Y-70858687D01*
X162133176Y-70858686D01*
X162133175Y-70858686D01*
X161972761Y-70810025D01*
X161972759Y-70810024D01*
X161972756Y-70810023D01*
X161824922Y-70731005D01*
X161695341Y-70624659D01*
X161588995Y-70495078D01*
X161509977Y-70347243D01*
X161504755Y-70330027D01*
X161461314Y-70186824D01*
X161461314Y-70186823D01*
X161461313Y-70186820D01*
X161449000Y-70061803D01*
X161449000Y-69178197D01*
X161461314Y-69053179D01*
X161509978Y-68892756D01*
X161588996Y-68744922D01*
X161695342Y-68615341D01*
X161824923Y-68508995D01*
X161972757Y-68429977D01*
X161972760Y-68429976D01*
X161972762Y-68429975D01*
X162133176Y-68381314D01*
X162133177Y-68381314D01*
X162133180Y-68381313D01*
X162300000Y-68364883D01*
X162466821Y-68381313D01*
X162466821Y-68381313D01*
G37*
G36*
X167546821Y-68381313D02*
X167546824Y-68381314D01*
X167546825Y-68381314D01*
X167707239Y-68429975D01*
X167707241Y-68429976D01*
X167707244Y-68429977D01*
X167855078Y-68508995D01*
X167984659Y-68615341D01*
X168091005Y-68744922D01*
X168170023Y-68892756D01*
X168170024Y-68892759D01*
X168170025Y-68892761D01*
X168218686Y-69053175D01*
X168218686Y-69053178D01*
X168218687Y-69053180D01*
X168231000Y-69178197D01*
X168231000Y-70061804D01*
X168218687Y-70186821D01*
X168218686Y-70186824D01*
X168218686Y-70186825D01*
X168172556Y-70338897D01*
X168170023Y-70347244D01*
X168091005Y-70495078D01*
X167984659Y-70624659D01*
X167855078Y-70731005D01*
X167707243Y-70810023D01*
X167707240Y-70810024D01*
X167707238Y-70810025D01*
X167546824Y-70858686D01*
X167546823Y-70858686D01*
X167546820Y-70858687D01*
X167380000Y-70875117D01*
X167213179Y-70858687D01*
X167213176Y-70858686D01*
X167213175Y-70858686D01*
X167052761Y-70810025D01*
X167052759Y-70810024D01*
X167052756Y-70810023D01*
X166904922Y-70731005D01*
X166775341Y-70624659D01*
X166668995Y-70495078D01*
X166589977Y-70347243D01*
X166584755Y-70330027D01*
X166541314Y-70186824D01*
X166541314Y-70186823D01*
X166541313Y-70186820D01*
X166529000Y-70061803D01*
X166529000Y-69178197D01*
X166541314Y-69053179D01*
X166589978Y-68892756D01*
X166668996Y-68744922D01*
X166775342Y-68615341D01*
X166904923Y-68508995D01*
X167052757Y-68429977D01*
X167052760Y-68429976D01*
X167052762Y-68429975D01*
X167213176Y-68381314D01*
X167213177Y-68381314D01*
X167213180Y-68381313D01*
X167380000Y-68364883D01*
X167546821Y-68381313D01*
X167546821Y-68381313D01*
G37*
G36*
X159926821Y-68381313D02*
X159926824Y-68381314D01*
X159926825Y-68381314D01*
X160087239Y-68429975D01*
X160087241Y-68429976D01*
X160087244Y-68429977D01*
X160235078Y-68508995D01*
X160364659Y-68615341D01*
X160471005Y-68744922D01*
X160550023Y-68892756D01*
X160550024Y-68892759D01*
X160550025Y-68892761D01*
X160598686Y-69053175D01*
X160598686Y-69053178D01*
X160598687Y-69053180D01*
X160611000Y-69178197D01*
X160611000Y-70061804D01*
X160598687Y-70186821D01*
X160598686Y-70186824D01*
X160598686Y-70186825D01*
X160552556Y-70338897D01*
X160550023Y-70347244D01*
X160471005Y-70495078D01*
X160364659Y-70624659D01*
X160235078Y-70731005D01*
X160087243Y-70810023D01*
X160087240Y-70810024D01*
X160087238Y-70810025D01*
X159926824Y-70858686D01*
X159926823Y-70858686D01*
X159926820Y-70858687D01*
X159760000Y-70875117D01*
X159593179Y-70858687D01*
X159593176Y-70858686D01*
X159593175Y-70858686D01*
X159432761Y-70810025D01*
X159432759Y-70810024D01*
X159432756Y-70810023D01*
X159284922Y-70731005D01*
X159155341Y-70624659D01*
X159048995Y-70495078D01*
X158969977Y-70347243D01*
X158964755Y-70330027D01*
X158921314Y-70186824D01*
X158921314Y-70186823D01*
X158921313Y-70186820D01*
X158909000Y-70061803D01*
X158909000Y-69178197D01*
X158921314Y-69053179D01*
X158969978Y-68892756D01*
X159048996Y-68744922D01*
X159155342Y-68615341D01*
X159284923Y-68508995D01*
X159432757Y-68429977D01*
X159432760Y-68429976D01*
X159432762Y-68429975D01*
X159593176Y-68381314D01*
X159593177Y-68381314D01*
X159593180Y-68381313D01*
X159760000Y-68364883D01*
X159926821Y-68381313D01*
X159926821Y-68381313D01*
G37*
G36*
X170086821Y-68381313D02*
X170086824Y-68381314D01*
X170086825Y-68381314D01*
X170247239Y-68429975D01*
X170247241Y-68429976D01*
X170247244Y-68429977D01*
X170395078Y-68508995D01*
X170524659Y-68615341D01*
X170631005Y-68744922D01*
X170710023Y-68892756D01*
X170710024Y-68892759D01*
X170710025Y-68892761D01*
X170758686Y-69053175D01*
X170758686Y-69053178D01*
X170758687Y-69053180D01*
X170771000Y-69178197D01*
X170771000Y-70061804D01*
X170758687Y-70186821D01*
X170758686Y-70186824D01*
X170758686Y-70186825D01*
X170712556Y-70338897D01*
X170710023Y-70347244D01*
X170631005Y-70495078D01*
X170524659Y-70624659D01*
X170395078Y-70731005D01*
X170247243Y-70810023D01*
X170247240Y-70810024D01*
X170247238Y-70810025D01*
X170086824Y-70858686D01*
X170086823Y-70858686D01*
X170086820Y-70858687D01*
X169920000Y-70875117D01*
X169753179Y-70858687D01*
X169753176Y-70858686D01*
X169753175Y-70858686D01*
X169592761Y-70810025D01*
X169592759Y-70810024D01*
X169592756Y-70810023D01*
X169444922Y-70731005D01*
X169315341Y-70624659D01*
X169208995Y-70495078D01*
X169129977Y-70347243D01*
X169124755Y-70330027D01*
X169081314Y-70186824D01*
X169081314Y-70186823D01*
X169081313Y-70186820D01*
X169069000Y-70061803D01*
X169069000Y-69178197D01*
X169081314Y-69053179D01*
X169129978Y-68892756D01*
X169208996Y-68744922D01*
X169315342Y-68615341D01*
X169444923Y-68508995D01*
X169592757Y-68429977D01*
X169592760Y-68429976D01*
X169592762Y-68429975D01*
X169753176Y-68381314D01*
X169753177Y-68381314D01*
X169753180Y-68381313D01*
X169920000Y-68364883D01*
X170086821Y-68381313D01*
X170086821Y-68381313D01*
G37*
G36*
X172626821Y-68381313D02*
X172626824Y-68381314D01*
X172626825Y-68381314D01*
X172787239Y-68429975D01*
X172787241Y-68429976D01*
X172787244Y-68429977D01*
X172935078Y-68508995D01*
X173064659Y-68615341D01*
X173171005Y-68744922D01*
X173250023Y-68892756D01*
X173250024Y-68892759D01*
X173250025Y-68892761D01*
X173298686Y-69053175D01*
X173298686Y-69053178D01*
X173298687Y-69053180D01*
X173311000Y-69178197D01*
X173311000Y-70061804D01*
X173298687Y-70186821D01*
X173298686Y-70186824D01*
X173298686Y-70186825D01*
X173252556Y-70338897D01*
X173250023Y-70347244D01*
X173171005Y-70495078D01*
X173064659Y-70624659D01*
X172935078Y-70731005D01*
X172787243Y-70810023D01*
X172787240Y-70810024D01*
X172787238Y-70810025D01*
X172626824Y-70858686D01*
X172626823Y-70858686D01*
X172626820Y-70858687D01*
X172460000Y-70875117D01*
X172293179Y-70858687D01*
X172293176Y-70858686D01*
X172293175Y-70858686D01*
X172132761Y-70810025D01*
X172132759Y-70810024D01*
X172132756Y-70810023D01*
X171984922Y-70731005D01*
X171855341Y-70624659D01*
X171748995Y-70495078D01*
X171669977Y-70347243D01*
X171664755Y-70330027D01*
X171621314Y-70186824D01*
X171621314Y-70186823D01*
X171621313Y-70186820D01*
X171609000Y-70061803D01*
X171609000Y-69178197D01*
X171621314Y-69053179D01*
X171669978Y-68892756D01*
X171748996Y-68744922D01*
X171855342Y-68615341D01*
X171984923Y-68508995D01*
X172132757Y-68429977D01*
X172132760Y-68429976D01*
X172132762Y-68429975D01*
X172293176Y-68381314D01*
X172293177Y-68381314D01*
X172293180Y-68381313D01*
X172460000Y-68364883D01*
X172626821Y-68381313D01*
X172626821Y-68381313D01*
G37*
G36*
X175166821Y-68381313D02*
X175166824Y-68381314D01*
X175166825Y-68381314D01*
X175327239Y-68429975D01*
X175327241Y-68429976D01*
X175327244Y-68429977D01*
X175475078Y-68508995D01*
X175604659Y-68615341D01*
X175711005Y-68744922D01*
X175790023Y-68892756D01*
X175790024Y-68892759D01*
X175790025Y-68892761D01*
X175838686Y-69053175D01*
X175838686Y-69053178D01*
X175838687Y-69053180D01*
X175851000Y-69178197D01*
X175851000Y-70061804D01*
X175838687Y-70186821D01*
X175838686Y-70186824D01*
X175838686Y-70186825D01*
X175792556Y-70338897D01*
X175790023Y-70347244D01*
X175711005Y-70495078D01*
X175604659Y-70624659D01*
X175475078Y-70731005D01*
X175327243Y-70810023D01*
X175327240Y-70810024D01*
X175327238Y-70810025D01*
X175166824Y-70858686D01*
X175166823Y-70858686D01*
X175166820Y-70858687D01*
X175000000Y-70875117D01*
X174833179Y-70858687D01*
X174833176Y-70858686D01*
X174833175Y-70858686D01*
X174672761Y-70810025D01*
X174672759Y-70810024D01*
X174672756Y-70810023D01*
X174524922Y-70731005D01*
X174395341Y-70624659D01*
X174288995Y-70495078D01*
X174209977Y-70347243D01*
X174204755Y-70330027D01*
X174161314Y-70186824D01*
X174161314Y-70186823D01*
X174161313Y-70186820D01*
X174149000Y-70061803D01*
X174149000Y-69178197D01*
X174161314Y-69053179D01*
X174209978Y-68892756D01*
X174288996Y-68744922D01*
X174395342Y-68615341D01*
X174524923Y-68508995D01*
X174672757Y-68429977D01*
X174672760Y-68429976D01*
X174672762Y-68429975D01*
X174833176Y-68381314D01*
X174833177Y-68381314D01*
X174833180Y-68381313D01*
X175000000Y-68364883D01*
X175166821Y-68381313D01*
X175166821Y-68381313D01*
G37*
G36*
X157386821Y-68381313D02*
X157386824Y-68381314D01*
X157386825Y-68381314D01*
X157547239Y-68429975D01*
X157547241Y-68429976D01*
X157547244Y-68429977D01*
X157695078Y-68508995D01*
X157824659Y-68615341D01*
X157931005Y-68744922D01*
X158010023Y-68892756D01*
X158010024Y-68892759D01*
X158010025Y-68892761D01*
X158058686Y-69053175D01*
X158058686Y-69053178D01*
X158058687Y-69053180D01*
X158071000Y-69178197D01*
X158071000Y-70061804D01*
X158058687Y-70186821D01*
X158058686Y-70186824D01*
X158058686Y-70186825D01*
X158012556Y-70338897D01*
X158010023Y-70347244D01*
X157931005Y-70495078D01*
X157824659Y-70624659D01*
X157695078Y-70731005D01*
X157547243Y-70810023D01*
X157547240Y-70810024D01*
X157547238Y-70810025D01*
X157386824Y-70858686D01*
X157386823Y-70858686D01*
X157386820Y-70858687D01*
X157220000Y-70875117D01*
X157053179Y-70858687D01*
X157053176Y-70858686D01*
X157053175Y-70858686D01*
X156892761Y-70810025D01*
X156892759Y-70810024D01*
X156892756Y-70810023D01*
X156744922Y-70731005D01*
X156615341Y-70624659D01*
X156508995Y-70495078D01*
X156429977Y-70347243D01*
X156424755Y-70330027D01*
X156381314Y-70186824D01*
X156381314Y-70186823D01*
X156381313Y-70186820D01*
X156369000Y-70061803D01*
X156369000Y-69178197D01*
X156381314Y-69053179D01*
X156429978Y-68892756D01*
X156508996Y-68744922D01*
X156615342Y-68615341D01*
X156744923Y-68508995D01*
X156892757Y-68429977D01*
X156892760Y-68429976D01*
X156892762Y-68429975D01*
X157053176Y-68381314D01*
X157053177Y-68381314D01*
X157053180Y-68381313D01*
X157220000Y-68364883D01*
X157386821Y-68381313D01*
X157386821Y-68381313D01*
G37*
G36*
X139438677Y-68253465D02*
X139476364Y-68264898D01*
X139511103Y-68283466D01*
X139541548Y-68308452D01*
X139566534Y-68338897D01*
X139585102Y-68373636D01*
X139596535Y-68411323D01*
X139601000Y-68456661D01*
X139601000Y-69543339D01*
X139596535Y-69588677D01*
X139585102Y-69626364D01*
X139566534Y-69661103D01*
X139541548Y-69691548D01*
X139511103Y-69716534D01*
X139476364Y-69735102D01*
X139438677Y-69746535D01*
X139393339Y-69751000D01*
X138556661Y-69751000D01*
X138511323Y-69746535D01*
X138473636Y-69735102D01*
X138438897Y-69716534D01*
X138408452Y-69691548D01*
X138383466Y-69661103D01*
X138364898Y-69626364D01*
X138353465Y-69588677D01*
X138349000Y-69543339D01*
X138349000Y-68456661D01*
X138353465Y-68411323D01*
X138364898Y-68373636D01*
X138383466Y-68338897D01*
X138408452Y-68308452D01*
X138438897Y-68283466D01*
X138473636Y-68264898D01*
X138511323Y-68253465D01*
X138556661Y-68249000D01*
X139393339Y-68249000D01*
X139438677Y-68253465D01*
X139438677Y-68253465D01*
G37*
G36*
X141488677Y-68253465D02*
X141526364Y-68264898D01*
X141561103Y-68283466D01*
X141591548Y-68308452D01*
X141616534Y-68338897D01*
X141635102Y-68373636D01*
X141646535Y-68411323D01*
X141651000Y-68456661D01*
X141651000Y-69543339D01*
X141646535Y-69588677D01*
X141635102Y-69626364D01*
X141616534Y-69661103D01*
X141591548Y-69691548D01*
X141561103Y-69716534D01*
X141526364Y-69735102D01*
X141488677Y-69746535D01*
X141443339Y-69751000D01*
X140606661Y-69751000D01*
X140561323Y-69746535D01*
X140523636Y-69735102D01*
X140488897Y-69716534D01*
X140458452Y-69691548D01*
X140433466Y-69661103D01*
X140414898Y-69626364D01*
X140403465Y-69588677D01*
X140399000Y-69543339D01*
X140399000Y-68456661D01*
X140403465Y-68411323D01*
X140414898Y-68373636D01*
X140433466Y-68338897D01*
X140458452Y-68308452D01*
X140488897Y-68283466D01*
X140523636Y-68264898D01*
X140561323Y-68253465D01*
X140606661Y-68249000D01*
X141443339Y-68249000D01*
X141488677Y-68253465D01*
X141488677Y-68253465D01*
G37*
G36*
X150806565Y-64989389D02*
X150997834Y-65068615D01*
X151169976Y-65183637D01*
X151316363Y-65330024D01*
X151431385Y-65502166D01*
X151510611Y-65693435D01*
X151551000Y-65896484D01*
X151551000Y-66103516D01*
X151510611Y-66306565D01*
X151431385Y-66497834D01*
X151316363Y-66669976D01*
X151169976Y-66816363D01*
X150997834Y-66931385D01*
X150806565Y-67010611D01*
X150603516Y-67051000D01*
X150396484Y-67051000D01*
X150193435Y-67010611D01*
X150002166Y-66931385D01*
X149830024Y-66816363D01*
X149683637Y-66669976D01*
X149568615Y-66497834D01*
X149489389Y-66306565D01*
X149449000Y-66103516D01*
X149449000Y-65896484D01*
X149489389Y-65693435D01*
X149568615Y-65502166D01*
X149683637Y-65330024D01*
X149830024Y-65183637D01*
X150002166Y-65068615D01*
X150193435Y-64989389D01*
X150396484Y-64949000D01*
X150603516Y-64949000D01*
X150806565Y-64989389D01*
X150806565Y-64989389D01*
G37*
G36*
X144306565Y-64989389D02*
X144497834Y-65068615D01*
X144669976Y-65183637D01*
X144816363Y-65330024D01*
X144931385Y-65502166D01*
X145010611Y-65693435D01*
X145051000Y-65896484D01*
X145051000Y-66103516D01*
X145010611Y-66306565D01*
X144931385Y-66497834D01*
X144816363Y-66669976D01*
X144669976Y-66816363D01*
X144497834Y-66931385D01*
X144306565Y-67010611D01*
X144103516Y-67051000D01*
X143896484Y-67051000D01*
X143693435Y-67010611D01*
X143502166Y-66931385D01*
X143330024Y-66816363D01*
X143183637Y-66669976D01*
X143068615Y-66497834D01*
X142989389Y-66306565D01*
X142949000Y-66103516D01*
X142949000Y-65896484D01*
X142989389Y-65693435D01*
X143068615Y-65502166D01*
X143183637Y-65330024D01*
X143330024Y-65183637D01*
X143502166Y-65068615D01*
X143693435Y-64989389D01*
X143896484Y-64949000D01*
X144103516Y-64949000D01*
X144306565Y-64989389D01*
X144306565Y-64989389D01*
G37*
G36*
X184901000Y-65901000D02*
X183099000Y-65901000D01*
X183099000Y-64099000D01*
X184901000Y-64099000D01*
X184901000Y-65901000D01*
X184901000Y-65901000D01*
G37*
G36*
X181570443Y-64105519D02*
X181636627Y-64112037D01*
X181749853Y-64146384D01*
X181806467Y-64163557D01*
X181945087Y-64237652D01*
X181962991Y-64247222D01*
X181998729Y-64276552D01*
X182100186Y-64359814D01*
X182183448Y-64461271D01*
X182212778Y-64497009D01*
X182212779Y-64497011D01*
X182296443Y-64653533D01*
X182296443Y-64653534D01*
X182347963Y-64823373D01*
X182365359Y-65000000D01*
X182347963Y-65176627D01*
X182313616Y-65289853D01*
X182296443Y-65346467D01*
X182222348Y-65485087D01*
X182212778Y-65502991D01*
X182183448Y-65538729D01*
X182100186Y-65640186D01*
X181998729Y-65723448D01*
X181962991Y-65752778D01*
X181962989Y-65752779D01*
X181806467Y-65836443D01*
X181749853Y-65853616D01*
X181636627Y-65887963D01*
X181570442Y-65894482D01*
X181504260Y-65901000D01*
X181415740Y-65901000D01*
X181349558Y-65894482D01*
X181283373Y-65887963D01*
X181170147Y-65853616D01*
X181113533Y-65836443D01*
X180957011Y-65752779D01*
X180957009Y-65752778D01*
X180921271Y-65723448D01*
X180819814Y-65640186D01*
X180736552Y-65538729D01*
X180707222Y-65502991D01*
X180697652Y-65485087D01*
X180623557Y-65346467D01*
X180606384Y-65289853D01*
X180572037Y-65176627D01*
X180554641Y-65000000D01*
X180572037Y-64823373D01*
X180623557Y-64653534D01*
X180623557Y-64653533D01*
X180707221Y-64497011D01*
X180707222Y-64497009D01*
X180736552Y-64461271D01*
X180819814Y-64359814D01*
X180921271Y-64276552D01*
X180957009Y-64247222D01*
X180974913Y-64237652D01*
X181113533Y-64163557D01*
X181170147Y-64146384D01*
X181283373Y-64112037D01*
X181349557Y-64105519D01*
X181415740Y-64099000D01*
X181504260Y-64099000D01*
X181570443Y-64105519D01*
X181570443Y-64105519D01*
G37*
G36*
X172626821Y-60761313D02*
X172626824Y-60761314D01*
X172626825Y-60761314D01*
X172787239Y-60809975D01*
X172787241Y-60809976D01*
X172787244Y-60809977D01*
X172935078Y-60888995D01*
X173064659Y-60995341D01*
X173171005Y-61124922D01*
X173250023Y-61272756D01*
X173250024Y-61272759D01*
X173250025Y-61272761D01*
X173298686Y-61433175D01*
X173298686Y-61433178D01*
X173298687Y-61433180D01*
X173311000Y-61558197D01*
X173311000Y-62441804D01*
X173298687Y-62566821D01*
X173250023Y-62727244D01*
X173171005Y-62875078D01*
X173064659Y-63004659D01*
X172935078Y-63111005D01*
X172787243Y-63190023D01*
X172787240Y-63190024D01*
X172787238Y-63190025D01*
X172626824Y-63238686D01*
X172626823Y-63238686D01*
X172626820Y-63238687D01*
X172460000Y-63255117D01*
X172293179Y-63238687D01*
X172293176Y-63238686D01*
X172293175Y-63238686D01*
X172132761Y-63190025D01*
X172132759Y-63190024D01*
X172132756Y-63190023D01*
X171984922Y-63111005D01*
X171855341Y-63004659D01*
X171748995Y-62875078D01*
X171669977Y-62727243D01*
X171621315Y-62566825D01*
X171621314Y-62566824D01*
X171621314Y-62566823D01*
X171621313Y-62566820D01*
X171609000Y-62441803D01*
X171609000Y-61558197D01*
X171621314Y-61433179D01*
X171669978Y-61272756D01*
X171748996Y-61124922D01*
X171855342Y-60995341D01*
X171984923Y-60888995D01*
X172132757Y-60809977D01*
X172132760Y-60809976D01*
X172132762Y-60809975D01*
X172293176Y-60761314D01*
X172293177Y-60761314D01*
X172293180Y-60761313D01*
X172460000Y-60744883D01*
X172626821Y-60761313D01*
X172626821Y-60761313D01*
G37*
G36*
X159926821Y-60761313D02*
X159926824Y-60761314D01*
X159926825Y-60761314D01*
X160087239Y-60809975D01*
X160087241Y-60809976D01*
X160087244Y-60809977D01*
X160235078Y-60888995D01*
X160364659Y-60995341D01*
X160471005Y-61124922D01*
X160550023Y-61272756D01*
X160550024Y-61272759D01*
X160550025Y-61272761D01*
X160598686Y-61433175D01*
X160598686Y-61433178D01*
X160598687Y-61433180D01*
X160611000Y-61558197D01*
X160611000Y-62441804D01*
X160598687Y-62566821D01*
X160550023Y-62727244D01*
X160471005Y-62875078D01*
X160364659Y-63004659D01*
X160235078Y-63111005D01*
X160087243Y-63190023D01*
X160087240Y-63190024D01*
X160087238Y-63190025D01*
X159926824Y-63238686D01*
X159926823Y-63238686D01*
X159926820Y-63238687D01*
X159760000Y-63255117D01*
X159593179Y-63238687D01*
X159593176Y-63238686D01*
X159593175Y-63238686D01*
X159432761Y-63190025D01*
X159432759Y-63190024D01*
X159432756Y-63190023D01*
X159284922Y-63111005D01*
X159155341Y-63004659D01*
X159048995Y-62875078D01*
X158969977Y-62727243D01*
X158921315Y-62566825D01*
X158921314Y-62566824D01*
X158921314Y-62566823D01*
X158921313Y-62566820D01*
X158909000Y-62441803D01*
X158909000Y-61558197D01*
X158921314Y-61433179D01*
X158969978Y-61272756D01*
X159048996Y-61124922D01*
X159155342Y-60995341D01*
X159284923Y-60888995D01*
X159432757Y-60809977D01*
X159432760Y-60809976D01*
X159432762Y-60809975D01*
X159593176Y-60761314D01*
X159593177Y-60761314D01*
X159593180Y-60761313D01*
X159760000Y-60744883D01*
X159926821Y-60761313D01*
X159926821Y-60761313D01*
G37*
G36*
X162466821Y-60761313D02*
X162466824Y-60761314D01*
X162466825Y-60761314D01*
X162627239Y-60809975D01*
X162627241Y-60809976D01*
X162627244Y-60809977D01*
X162775078Y-60888995D01*
X162904659Y-60995341D01*
X163011005Y-61124922D01*
X163090023Y-61272756D01*
X163090024Y-61272759D01*
X163090025Y-61272761D01*
X163138686Y-61433175D01*
X163138686Y-61433178D01*
X163138687Y-61433180D01*
X163151000Y-61558197D01*
X163151000Y-62441804D01*
X163138687Y-62566821D01*
X163090023Y-62727244D01*
X163011005Y-62875078D01*
X162904659Y-63004659D01*
X162775078Y-63111005D01*
X162627243Y-63190023D01*
X162627240Y-63190024D01*
X162627238Y-63190025D01*
X162466824Y-63238686D01*
X162466823Y-63238686D01*
X162466820Y-63238687D01*
X162300000Y-63255117D01*
X162133179Y-63238687D01*
X162133176Y-63238686D01*
X162133175Y-63238686D01*
X161972761Y-63190025D01*
X161972759Y-63190024D01*
X161972756Y-63190023D01*
X161824922Y-63111005D01*
X161695341Y-63004659D01*
X161588995Y-62875078D01*
X161509977Y-62727243D01*
X161461315Y-62566825D01*
X161461314Y-62566824D01*
X161461314Y-62566823D01*
X161461313Y-62566820D01*
X161449000Y-62441803D01*
X161449000Y-61558197D01*
X161461314Y-61433179D01*
X161509978Y-61272756D01*
X161588996Y-61124922D01*
X161695342Y-60995341D01*
X161824923Y-60888995D01*
X161972757Y-60809977D01*
X161972760Y-60809976D01*
X161972762Y-60809975D01*
X162133176Y-60761314D01*
X162133177Y-60761314D01*
X162133180Y-60761313D01*
X162300000Y-60744883D01*
X162466821Y-60761313D01*
X162466821Y-60761313D01*
G37*
G36*
X165006821Y-60761313D02*
X165006824Y-60761314D01*
X165006825Y-60761314D01*
X165167239Y-60809975D01*
X165167241Y-60809976D01*
X165167244Y-60809977D01*
X165315078Y-60888995D01*
X165444659Y-60995341D01*
X165551005Y-61124922D01*
X165630023Y-61272756D01*
X165630024Y-61272759D01*
X165630025Y-61272761D01*
X165678686Y-61433175D01*
X165678686Y-61433178D01*
X165678687Y-61433180D01*
X165691000Y-61558197D01*
X165691000Y-62441804D01*
X165678687Y-62566821D01*
X165630023Y-62727244D01*
X165551005Y-62875078D01*
X165444659Y-63004659D01*
X165315078Y-63111005D01*
X165167243Y-63190023D01*
X165167240Y-63190024D01*
X165167238Y-63190025D01*
X165006824Y-63238686D01*
X165006823Y-63238686D01*
X165006820Y-63238687D01*
X164840000Y-63255117D01*
X164673179Y-63238687D01*
X164673176Y-63238686D01*
X164673175Y-63238686D01*
X164512761Y-63190025D01*
X164512759Y-63190024D01*
X164512756Y-63190023D01*
X164364922Y-63111005D01*
X164235341Y-63004659D01*
X164128995Y-62875078D01*
X164049977Y-62727243D01*
X164001315Y-62566825D01*
X164001314Y-62566824D01*
X164001314Y-62566823D01*
X164001313Y-62566820D01*
X163989000Y-62441803D01*
X163989000Y-61558197D01*
X164001314Y-61433179D01*
X164049978Y-61272756D01*
X164128996Y-61124922D01*
X164235342Y-60995341D01*
X164364923Y-60888995D01*
X164512757Y-60809977D01*
X164512760Y-60809976D01*
X164512762Y-60809975D01*
X164673176Y-60761314D01*
X164673177Y-60761314D01*
X164673180Y-60761313D01*
X164840000Y-60744883D01*
X165006821Y-60761313D01*
X165006821Y-60761313D01*
G37*
G36*
X167546821Y-60761313D02*
X167546824Y-60761314D01*
X167546825Y-60761314D01*
X167707239Y-60809975D01*
X167707241Y-60809976D01*
X167707244Y-60809977D01*
X167855078Y-60888995D01*
X167984659Y-60995341D01*
X168091005Y-61124922D01*
X168170023Y-61272756D01*
X168170024Y-61272759D01*
X168170025Y-61272761D01*
X168218686Y-61433175D01*
X168218686Y-61433178D01*
X168218687Y-61433180D01*
X168231000Y-61558197D01*
X168231000Y-62441804D01*
X168218687Y-62566821D01*
X168170023Y-62727244D01*
X168091005Y-62875078D01*
X167984659Y-63004659D01*
X167855078Y-63111005D01*
X167707243Y-63190023D01*
X167707240Y-63190024D01*
X167707238Y-63190025D01*
X167546824Y-63238686D01*
X167546823Y-63238686D01*
X167546820Y-63238687D01*
X167380000Y-63255117D01*
X167213179Y-63238687D01*
X167213176Y-63238686D01*
X167213175Y-63238686D01*
X167052761Y-63190025D01*
X167052759Y-63190024D01*
X167052756Y-63190023D01*
X166904922Y-63111005D01*
X166775341Y-63004659D01*
X166668995Y-62875078D01*
X166589977Y-62727243D01*
X166541315Y-62566825D01*
X166541314Y-62566824D01*
X166541314Y-62566823D01*
X166541313Y-62566820D01*
X166529000Y-62441803D01*
X166529000Y-61558197D01*
X166541314Y-61433179D01*
X166589978Y-61272756D01*
X166668996Y-61124922D01*
X166775342Y-60995341D01*
X166904923Y-60888995D01*
X167052757Y-60809977D01*
X167052760Y-60809976D01*
X167052762Y-60809975D01*
X167213176Y-60761314D01*
X167213177Y-60761314D01*
X167213180Y-60761313D01*
X167380000Y-60744883D01*
X167546821Y-60761313D01*
X167546821Y-60761313D01*
G37*
G36*
X170086821Y-60761313D02*
X170086824Y-60761314D01*
X170086825Y-60761314D01*
X170247239Y-60809975D01*
X170247241Y-60809976D01*
X170247244Y-60809977D01*
X170395078Y-60888995D01*
X170524659Y-60995341D01*
X170631005Y-61124922D01*
X170710023Y-61272756D01*
X170710024Y-61272759D01*
X170710025Y-61272761D01*
X170758686Y-61433175D01*
X170758686Y-61433178D01*
X170758687Y-61433180D01*
X170771000Y-61558197D01*
X170771000Y-62441804D01*
X170758687Y-62566821D01*
X170710023Y-62727244D01*
X170631005Y-62875078D01*
X170524659Y-63004659D01*
X170395078Y-63111005D01*
X170247243Y-63190023D01*
X170247240Y-63190024D01*
X170247238Y-63190025D01*
X170086824Y-63238686D01*
X170086823Y-63238686D01*
X170086820Y-63238687D01*
X169920000Y-63255117D01*
X169753179Y-63238687D01*
X169753176Y-63238686D01*
X169753175Y-63238686D01*
X169592761Y-63190025D01*
X169592759Y-63190024D01*
X169592756Y-63190023D01*
X169444922Y-63111005D01*
X169315341Y-63004659D01*
X169208995Y-62875078D01*
X169129977Y-62727243D01*
X169081315Y-62566825D01*
X169081314Y-62566824D01*
X169081314Y-62566823D01*
X169081313Y-62566820D01*
X169069000Y-62441803D01*
X169069000Y-61558197D01*
X169081314Y-61433179D01*
X169129978Y-61272756D01*
X169208996Y-61124922D01*
X169315342Y-60995341D01*
X169444923Y-60888995D01*
X169592757Y-60809977D01*
X169592760Y-60809976D01*
X169592762Y-60809975D01*
X169753176Y-60761314D01*
X169753177Y-60761314D01*
X169753180Y-60761313D01*
X169920000Y-60744883D01*
X170086821Y-60761313D01*
X170086821Y-60761313D01*
G37*
G36*
X157386821Y-60761313D02*
X157386824Y-60761314D01*
X157386825Y-60761314D01*
X157547239Y-60809975D01*
X157547241Y-60809976D01*
X157547244Y-60809977D01*
X157695078Y-60888995D01*
X157824659Y-60995341D01*
X157931005Y-61124922D01*
X158010023Y-61272756D01*
X158010024Y-61272759D01*
X158010025Y-61272761D01*
X158058686Y-61433175D01*
X158058686Y-61433178D01*
X158058687Y-61433180D01*
X158071000Y-61558197D01*
X158071000Y-62441804D01*
X158058687Y-62566821D01*
X158010023Y-62727244D01*
X157931005Y-62875078D01*
X157824659Y-63004659D01*
X157695078Y-63111005D01*
X157547243Y-63190023D01*
X157547240Y-63190024D01*
X157547238Y-63190025D01*
X157386824Y-63238686D01*
X157386823Y-63238686D01*
X157386820Y-63238687D01*
X157220000Y-63255117D01*
X157053179Y-63238687D01*
X157053176Y-63238686D01*
X157053175Y-63238686D01*
X156892761Y-63190025D01*
X156892759Y-63190024D01*
X156892756Y-63190023D01*
X156744922Y-63111005D01*
X156615341Y-63004659D01*
X156508995Y-62875078D01*
X156429977Y-62727243D01*
X156381315Y-62566825D01*
X156381314Y-62566824D01*
X156381314Y-62566823D01*
X156381313Y-62566820D01*
X156369000Y-62441803D01*
X156369000Y-61558197D01*
X156381314Y-61433179D01*
X156429978Y-61272756D01*
X156508996Y-61124922D01*
X156615342Y-60995341D01*
X156744923Y-60888995D01*
X156892757Y-60809977D01*
X156892760Y-60809976D01*
X156892762Y-60809975D01*
X157053176Y-60761314D01*
X157053177Y-60761314D01*
X157053180Y-60761313D01*
X157220000Y-60744883D01*
X157386821Y-60761313D01*
X157386821Y-60761313D01*
G37*
G36*
X175851000Y-63251000D02*
X174149000Y-63251000D01*
X174149000Y-60749000D01*
X175851000Y-60749000D01*
X175851000Y-63251000D01*
X175851000Y-63251000D01*
G37*
G36*
X184488677Y-60253465D02*
X184526364Y-60264898D01*
X184561103Y-60283466D01*
X184591548Y-60308452D01*
X184616534Y-60338897D01*
X184635102Y-60373636D01*
X184646535Y-60411323D01*
X184651000Y-60456661D01*
X184651000Y-61543339D01*
X184646535Y-61588677D01*
X184635102Y-61626364D01*
X184616534Y-61661103D01*
X184591548Y-61691548D01*
X184561103Y-61716534D01*
X184526364Y-61735102D01*
X184488677Y-61746535D01*
X184443339Y-61751000D01*
X183606661Y-61751000D01*
X183561323Y-61746535D01*
X183523636Y-61735102D01*
X183488897Y-61716534D01*
X183458452Y-61691548D01*
X183433466Y-61661103D01*
X183414898Y-61626364D01*
X183403465Y-61588677D01*
X183399000Y-61543339D01*
X183399000Y-60456661D01*
X183403465Y-60411323D01*
X183414898Y-60373636D01*
X183433466Y-60338897D01*
X183458452Y-60308452D01*
X183488897Y-60283466D01*
X183523636Y-60264898D01*
X183561323Y-60253465D01*
X183606661Y-60249000D01*
X184443339Y-60249000D01*
X184488677Y-60253465D01*
X184488677Y-60253465D01*
G37*
G36*
X182438677Y-60253465D02*
X182476364Y-60264898D01*
X182511103Y-60283466D01*
X182541548Y-60308452D01*
X182566534Y-60338897D01*
X182585102Y-60373636D01*
X182596535Y-60411323D01*
X182601000Y-60456661D01*
X182601000Y-61543339D01*
X182596535Y-61588677D01*
X182585102Y-61626364D01*
X182566534Y-61661103D01*
X182541548Y-61691548D01*
X182511103Y-61716534D01*
X182476364Y-61735102D01*
X182438677Y-61746535D01*
X182393339Y-61751000D01*
X181556661Y-61751000D01*
X181511323Y-61746535D01*
X181473636Y-61735102D01*
X181438897Y-61716534D01*
X181408452Y-61691548D01*
X181383466Y-61661103D01*
X181364898Y-61626364D01*
X181353465Y-61588677D01*
X181349000Y-61543339D01*
X181349000Y-60456661D01*
X181353465Y-60411323D01*
X181364898Y-60373636D01*
X181383466Y-60338897D01*
X181408452Y-60308452D01*
X181438897Y-60283466D01*
X181473636Y-60264898D01*
X181511323Y-60253465D01*
X181556661Y-60249000D01*
X182393339Y-60249000D01*
X182438677Y-60253465D01*
X182438677Y-60253465D01*
G37*
G36*
X177134239Y-51811467D02*
X177448282Y-51873934D01*
X178039926Y-52119001D01*
X178329523Y-52312504D01*
X178572395Y-52474786D01*
X179025214Y-52927605D01*
X179025216Y-52927608D01*
X179380999Y-53460074D01*
X179502724Y-53753944D01*
X179626066Y-54051719D01*
X179751000Y-54679803D01*
X179751000Y-55320197D01*
X179688533Y-55634239D01*
X179626066Y-55948282D01*
X179380999Y-56539926D01*
X179133265Y-56910685D01*
X179025214Y-57072395D01*
X178572395Y-57525214D01*
X178572392Y-57525216D01*
X178039926Y-57880999D01*
X177448282Y-58126066D01*
X177134239Y-58188533D01*
X176820197Y-58251000D01*
X176179803Y-58251000D01*
X175865761Y-58188533D01*
X175551718Y-58126066D01*
X174960074Y-57880999D01*
X174427608Y-57525216D01*
X174427605Y-57525214D01*
X173974786Y-57072395D01*
X173866735Y-56910685D01*
X173619001Y-56539926D01*
X173373934Y-55948282D01*
X173311467Y-55634239D01*
X173249000Y-55320197D01*
X173249000Y-54679803D01*
X173373934Y-54051719D01*
X173497276Y-53753944D01*
X173619001Y-53460074D01*
X173974784Y-52927608D01*
X173974786Y-52927605D01*
X174427605Y-52474786D01*
X174670477Y-52312504D01*
X174960074Y-52119001D01*
X175551718Y-51873934D01*
X175865761Y-51811467D01*
X176179803Y-51749000D01*
X176820197Y-51749000D01*
X177134239Y-51811467D01*
X177134239Y-51811467D01*
G37*
G36*
X146134239Y-51811467D02*
X146448282Y-51873934D01*
X147039926Y-52119001D01*
X147329523Y-52312504D01*
X147572395Y-52474786D01*
X148025214Y-52927605D01*
X148025216Y-52927608D01*
X148380999Y-53460074D01*
X148502724Y-53753944D01*
X148626066Y-54051719D01*
X148751000Y-54679803D01*
X148751000Y-55320197D01*
X148688533Y-55634239D01*
X148626066Y-55948282D01*
X148380999Y-56539926D01*
X148133265Y-56910685D01*
X148025214Y-57072395D01*
X147572395Y-57525214D01*
X147572392Y-57525216D01*
X147039926Y-57880999D01*
X146448282Y-58126066D01*
X146134239Y-58188533D01*
X145820197Y-58251000D01*
X145179803Y-58251000D01*
X144865761Y-58188533D01*
X144551718Y-58126066D01*
X143960074Y-57880999D01*
X143427608Y-57525216D01*
X143427605Y-57525214D01*
X142974786Y-57072395D01*
X142866735Y-56910685D01*
X142619001Y-56539926D01*
X142373934Y-55948282D01*
X142311467Y-55634239D01*
X142249000Y-55320197D01*
X142249000Y-54679803D01*
X142373934Y-54051719D01*
X142497276Y-53753944D01*
X142619001Y-53460074D01*
X142974784Y-52927608D01*
X142974786Y-52927605D01*
X143427605Y-52474786D01*
X143670477Y-52312504D01*
X143960074Y-52119001D01*
X144551718Y-51873934D01*
X144865761Y-51811467D01*
X145179803Y-51749000D01*
X145820197Y-51749000D01*
X146134239Y-51811467D01*
X146134239Y-51811467D01*
G37*
G36*
X138110443Y-47885519D02*
X138176627Y-47892037D01*
X138289853Y-47926384D01*
X138346467Y-47943557D01*
X138485087Y-48017652D01*
X138502991Y-48027222D01*
X138538729Y-48056552D01*
X138640186Y-48139814D01*
X138723448Y-48241271D01*
X138752778Y-48277009D01*
X138752779Y-48277011D01*
X138836443Y-48433533D01*
X138836443Y-48433534D01*
X138887963Y-48603373D01*
X138905359Y-48780000D01*
X138887963Y-48956627D01*
X138853616Y-49069853D01*
X138836443Y-49126467D01*
X138762348Y-49265087D01*
X138752778Y-49282991D01*
X138723448Y-49318729D01*
X138640186Y-49420186D01*
X138538729Y-49503448D01*
X138502991Y-49532778D01*
X138502989Y-49532779D01*
X138346467Y-49616443D01*
X138289853Y-49633616D01*
X138176627Y-49667963D01*
X138110443Y-49674481D01*
X138044260Y-49681000D01*
X137955740Y-49681000D01*
X137889557Y-49674481D01*
X137823373Y-49667963D01*
X137710147Y-49633616D01*
X137653533Y-49616443D01*
X137497011Y-49532779D01*
X137497009Y-49532778D01*
X137461271Y-49503448D01*
X137359814Y-49420186D01*
X137276552Y-49318729D01*
X137247222Y-49282991D01*
X137237652Y-49265087D01*
X137163557Y-49126467D01*
X137146384Y-49069853D01*
X137112037Y-48956627D01*
X137094641Y-48780000D01*
X137112037Y-48603373D01*
X137163557Y-48433534D01*
X137163557Y-48433533D01*
X137247221Y-48277011D01*
X137247222Y-48277009D01*
X137276552Y-48241271D01*
X137359814Y-48139814D01*
X137461271Y-48056552D01*
X137497009Y-48027222D01*
X137514913Y-48017652D01*
X137653533Y-47943557D01*
X137710147Y-47926384D01*
X137823373Y-47892037D01*
X137889558Y-47885518D01*
X137955740Y-47879000D01*
X138044260Y-47879000D01*
X138110443Y-47885519D01*
X138110443Y-47885519D01*
G37*
G36*
X138110443Y-45345519D02*
X138176627Y-45352037D01*
X138289853Y-45386384D01*
X138346467Y-45403557D01*
X138485087Y-45477652D01*
X138502991Y-45487222D01*
X138538729Y-45516552D01*
X138640186Y-45599814D01*
X138723448Y-45701271D01*
X138752778Y-45737009D01*
X138752779Y-45737011D01*
X138836443Y-45893533D01*
X138836443Y-45893534D01*
X138887963Y-46063373D01*
X138905359Y-46240000D01*
X138887963Y-46416627D01*
X138853616Y-46529853D01*
X138836443Y-46586467D01*
X138762348Y-46725087D01*
X138752778Y-46742991D01*
X138723448Y-46778729D01*
X138640186Y-46880186D01*
X138538729Y-46963448D01*
X138502991Y-46992778D01*
X138502989Y-46992779D01*
X138346467Y-47076443D01*
X138289853Y-47093616D01*
X138176627Y-47127963D01*
X138110442Y-47134482D01*
X138044260Y-47141000D01*
X137955740Y-47141000D01*
X137889558Y-47134482D01*
X137823373Y-47127963D01*
X137710147Y-47093616D01*
X137653533Y-47076443D01*
X137497011Y-46992779D01*
X137497009Y-46992778D01*
X137461271Y-46963448D01*
X137359814Y-46880186D01*
X137276552Y-46778729D01*
X137247222Y-46742991D01*
X137237652Y-46725087D01*
X137163557Y-46586467D01*
X137146384Y-46529853D01*
X137112037Y-46416627D01*
X137094641Y-46240000D01*
X137112037Y-46063373D01*
X137163557Y-45893534D01*
X137163557Y-45893533D01*
X137247221Y-45737011D01*
X137247222Y-45737009D01*
X137276552Y-45701271D01*
X137359814Y-45599814D01*
X137461271Y-45516552D01*
X137497009Y-45487222D01*
X137514913Y-45477652D01*
X137653533Y-45403557D01*
X137710147Y-45386384D01*
X137823373Y-45352037D01*
X137889557Y-45345519D01*
X137955740Y-45339000D01*
X138044260Y-45339000D01*
X138110443Y-45345519D01*
X138110443Y-45345519D01*
G37*
G36*
X138110442Y-42805518D02*
X138176627Y-42812037D01*
X138289853Y-42846384D01*
X138346467Y-42863557D01*
X138485087Y-42937652D01*
X138502991Y-42947222D01*
X138538729Y-42976552D01*
X138640186Y-43059814D01*
X138723448Y-43161271D01*
X138752778Y-43197009D01*
X138752779Y-43197011D01*
X138836443Y-43353533D01*
X138836443Y-43353534D01*
X138887963Y-43523373D01*
X138905359Y-43700000D01*
X138887963Y-43876627D01*
X138853616Y-43989853D01*
X138836443Y-44046467D01*
X138762348Y-44185087D01*
X138752778Y-44202991D01*
X138723448Y-44238729D01*
X138640186Y-44340186D01*
X138538729Y-44423448D01*
X138502991Y-44452778D01*
X138502989Y-44452779D01*
X138346467Y-44536443D01*
X138289853Y-44553616D01*
X138176627Y-44587963D01*
X138110443Y-44594481D01*
X138044260Y-44601000D01*
X137955740Y-44601000D01*
X137889557Y-44594481D01*
X137823373Y-44587963D01*
X137710147Y-44553616D01*
X137653533Y-44536443D01*
X137497011Y-44452779D01*
X137497009Y-44452778D01*
X137461271Y-44423448D01*
X137359814Y-44340186D01*
X137276552Y-44238729D01*
X137247222Y-44202991D01*
X137237652Y-44185087D01*
X137163557Y-44046467D01*
X137146384Y-43989853D01*
X137112037Y-43876627D01*
X137094641Y-43700000D01*
X137112037Y-43523373D01*
X137163557Y-43353534D01*
X137163557Y-43353533D01*
X137247221Y-43197011D01*
X137247222Y-43197009D01*
X137276552Y-43161271D01*
X137359814Y-43059814D01*
X137461271Y-42976552D01*
X137497009Y-42947222D01*
X137514913Y-42937652D01*
X137653533Y-42863557D01*
X137710147Y-42846384D01*
X137823373Y-42812037D01*
X137889558Y-42805518D01*
X137955740Y-42799000D01*
X138044260Y-42799000D01*
X138110442Y-42805518D01*
X138110442Y-42805518D01*
G37*
G36*
X138110443Y-40265519D02*
X138176627Y-40272037D01*
X138289853Y-40306384D01*
X138346467Y-40323557D01*
X138485087Y-40397652D01*
X138502991Y-40407222D01*
X138538729Y-40436552D01*
X138640186Y-40519814D01*
X138723448Y-40621271D01*
X138752778Y-40657009D01*
X138752779Y-40657011D01*
X138836443Y-40813533D01*
X138836443Y-40813534D01*
X138887963Y-40983373D01*
X138905359Y-41160000D01*
X138887963Y-41336627D01*
X138853616Y-41449853D01*
X138836443Y-41506467D01*
X138762348Y-41645087D01*
X138752778Y-41662991D01*
X138723448Y-41698729D01*
X138640186Y-41800186D01*
X138538729Y-41883448D01*
X138502991Y-41912778D01*
X138502989Y-41912779D01*
X138346467Y-41996443D01*
X138289853Y-42013616D01*
X138176627Y-42047963D01*
X138110443Y-42054481D01*
X138044260Y-42061000D01*
X137955740Y-42061000D01*
X137889558Y-42054482D01*
X137823373Y-42047963D01*
X137710147Y-42013616D01*
X137653533Y-41996443D01*
X137497011Y-41912779D01*
X137497009Y-41912778D01*
X137461271Y-41883448D01*
X137359814Y-41800186D01*
X137276552Y-41698729D01*
X137247222Y-41662991D01*
X137237652Y-41645087D01*
X137163557Y-41506467D01*
X137146384Y-41449853D01*
X137112037Y-41336627D01*
X137094641Y-41160000D01*
X137112037Y-40983373D01*
X137163557Y-40813534D01*
X137163557Y-40813533D01*
X137247221Y-40657011D01*
X137247222Y-40657009D01*
X137276552Y-40621271D01*
X137359814Y-40519814D01*
X137461271Y-40436552D01*
X137497009Y-40407222D01*
X137514913Y-40397652D01*
X137653533Y-40323557D01*
X137710147Y-40306384D01*
X137823373Y-40272037D01*
X137889558Y-40265518D01*
X137955740Y-40259000D01*
X138044260Y-40259000D01*
X138110443Y-40265519D01*
X138110443Y-40265519D01*
G37*
G36*
X138110442Y-37725518D02*
X138176627Y-37732037D01*
X138289853Y-37766384D01*
X138346467Y-37783557D01*
X138485087Y-37857652D01*
X138502991Y-37867222D01*
X138538729Y-37896552D01*
X138640186Y-37979814D01*
X138723448Y-38081271D01*
X138752778Y-38117009D01*
X138752779Y-38117011D01*
X138836443Y-38273533D01*
X138836443Y-38273534D01*
X138887963Y-38443373D01*
X138905359Y-38620000D01*
X138887963Y-38796627D01*
X138853616Y-38909853D01*
X138836443Y-38966467D01*
X138762348Y-39105087D01*
X138752778Y-39122991D01*
X138723448Y-39158729D01*
X138640186Y-39260186D01*
X138538729Y-39343448D01*
X138502991Y-39372778D01*
X138502989Y-39372779D01*
X138346467Y-39456443D01*
X138289853Y-39473616D01*
X138176627Y-39507963D01*
X138110442Y-39514482D01*
X138044260Y-39521000D01*
X137955740Y-39521000D01*
X137889557Y-39514481D01*
X137823373Y-39507963D01*
X137710147Y-39473616D01*
X137653533Y-39456443D01*
X137497011Y-39372779D01*
X137497009Y-39372778D01*
X137461271Y-39343448D01*
X137359814Y-39260186D01*
X137276552Y-39158729D01*
X137247222Y-39122991D01*
X137237652Y-39105087D01*
X137163557Y-38966467D01*
X137146384Y-38909853D01*
X137112037Y-38796627D01*
X137094641Y-38620000D01*
X137112037Y-38443373D01*
X137163557Y-38273534D01*
X137163557Y-38273533D01*
X137247221Y-38117011D01*
X137247222Y-38117009D01*
X137276552Y-38081271D01*
X137359814Y-37979814D01*
X137461271Y-37896552D01*
X137497009Y-37867222D01*
X137514913Y-37857652D01*
X137653533Y-37783557D01*
X137710147Y-37766384D01*
X137823373Y-37732037D01*
X137889558Y-37725518D01*
X137955740Y-37719000D01*
X138044260Y-37719000D01*
X138110442Y-37725518D01*
X138110442Y-37725518D01*
G37*
G36*
X138110443Y-35185519D02*
X138176627Y-35192037D01*
X138289853Y-35226384D01*
X138346467Y-35243557D01*
X138485087Y-35317652D01*
X138502991Y-35327222D01*
X138538729Y-35356552D01*
X138640186Y-35439814D01*
X138723448Y-35541271D01*
X138752778Y-35577009D01*
X138752779Y-35577011D01*
X138836443Y-35733533D01*
X138836443Y-35733534D01*
X138887963Y-35903373D01*
X138905359Y-36080000D01*
X138887963Y-36256627D01*
X138853616Y-36369853D01*
X138836443Y-36426467D01*
X138762348Y-36565087D01*
X138752778Y-36582991D01*
X138723448Y-36618729D01*
X138640186Y-36720186D01*
X138538729Y-36803448D01*
X138502991Y-36832778D01*
X138502989Y-36832779D01*
X138346467Y-36916443D01*
X138289853Y-36933616D01*
X138176627Y-36967963D01*
X138110443Y-36974481D01*
X138044260Y-36981000D01*
X137955740Y-36981000D01*
X137889557Y-36974481D01*
X137823373Y-36967963D01*
X137710147Y-36933616D01*
X137653533Y-36916443D01*
X137497011Y-36832779D01*
X137497009Y-36832778D01*
X137461271Y-36803448D01*
X137359814Y-36720186D01*
X137276552Y-36618729D01*
X137247222Y-36582991D01*
X137237652Y-36565087D01*
X137163557Y-36426467D01*
X137146384Y-36369853D01*
X137112037Y-36256627D01*
X137094641Y-36080000D01*
X137112037Y-35903373D01*
X137163557Y-35733534D01*
X137163557Y-35733533D01*
X137247221Y-35577011D01*
X137247222Y-35577009D01*
X137276552Y-35541271D01*
X137359814Y-35439814D01*
X137461271Y-35356552D01*
X137497009Y-35327222D01*
X137514913Y-35317652D01*
X137653533Y-35243557D01*
X137710147Y-35226384D01*
X137823373Y-35192037D01*
X137889557Y-35185519D01*
X137955740Y-35179000D01*
X138044260Y-35179000D01*
X138110443Y-35185519D01*
X138110443Y-35185519D01*
G37*
G36*
X138110442Y-32645518D02*
X138176627Y-32652037D01*
X138289853Y-32686384D01*
X138346467Y-32703557D01*
X138485087Y-32777652D01*
X138502991Y-32787222D01*
X138538729Y-32816552D01*
X138640186Y-32899814D01*
X138723448Y-33001271D01*
X138752778Y-33037009D01*
X138752779Y-33037011D01*
X138836443Y-33193533D01*
X138836443Y-33193534D01*
X138887963Y-33363373D01*
X138905359Y-33540000D01*
X138887963Y-33716627D01*
X138853616Y-33829853D01*
X138836443Y-33886467D01*
X138762348Y-34025087D01*
X138752778Y-34042991D01*
X138723448Y-34078729D01*
X138640186Y-34180186D01*
X138538729Y-34263448D01*
X138502991Y-34292778D01*
X138502989Y-34292779D01*
X138346467Y-34376443D01*
X138289853Y-34393616D01*
X138176627Y-34427963D01*
X138110443Y-34434481D01*
X138044260Y-34441000D01*
X137955740Y-34441000D01*
X137889557Y-34434481D01*
X137823373Y-34427963D01*
X137710147Y-34393616D01*
X137653533Y-34376443D01*
X137497011Y-34292779D01*
X137497009Y-34292778D01*
X137461271Y-34263448D01*
X137359814Y-34180186D01*
X137276552Y-34078729D01*
X137247222Y-34042991D01*
X137237652Y-34025087D01*
X137163557Y-33886467D01*
X137146384Y-33829853D01*
X137112037Y-33716627D01*
X137094641Y-33540000D01*
X137112037Y-33363373D01*
X137163557Y-33193534D01*
X137163557Y-33193533D01*
X137247221Y-33037011D01*
X137247222Y-33037009D01*
X137276552Y-33001271D01*
X137359814Y-32899814D01*
X137461271Y-32816552D01*
X137497009Y-32787222D01*
X137514913Y-32777652D01*
X137653533Y-32703557D01*
X137710147Y-32686384D01*
X137823373Y-32652037D01*
X137889558Y-32645518D01*
X137955740Y-32639000D01*
X138044260Y-32639000D01*
X138110442Y-32645518D01*
X138110442Y-32645518D01*
G37*
G36*
X138901000Y-31901000D02*
X137099000Y-31901000D01*
X137099000Y-30099000D01*
X138901000Y-30099000D01*
X138901000Y-31901000D01*
X138901000Y-31901000D01*
G37*
G36*
X177134239Y-22811467D02*
X177448282Y-22873934D01*
X178039926Y-23119001D01*
X178329523Y-23312504D01*
X178572395Y-23474786D01*
X179025214Y-23927605D01*
X179025216Y-23927608D01*
X179380999Y-24460074D01*
X179502724Y-24753944D01*
X179626066Y-25051719D01*
X179751000Y-25679803D01*
X179751000Y-26320197D01*
X179711603Y-26518257D01*
X179626066Y-26948282D01*
X179380999Y-27539926D01*
X179133265Y-27910685D01*
X179025214Y-28072395D01*
X178572395Y-28525214D01*
X178572392Y-28525216D01*
X178039926Y-28880999D01*
X177448282Y-29126066D01*
X177134239Y-29188533D01*
X176820197Y-29251000D01*
X176179803Y-29251000D01*
X175865761Y-29188533D01*
X175551718Y-29126066D01*
X174960074Y-28880999D01*
X174427608Y-28525216D01*
X174427605Y-28525214D01*
X173974786Y-28072395D01*
X173866735Y-27910685D01*
X173619001Y-27539926D01*
X173373934Y-26948282D01*
X173288397Y-26518257D01*
X173249000Y-26320197D01*
X173249000Y-25679803D01*
X173373934Y-25051719D01*
X173497276Y-24753944D01*
X173619001Y-24460074D01*
X173974784Y-23927608D01*
X173974786Y-23927605D01*
X174427605Y-23474786D01*
X174670477Y-23312504D01*
X174960074Y-23119001D01*
X175551718Y-22873934D01*
X175865761Y-22811467D01*
X176179803Y-22749000D01*
X176820197Y-22749000D01*
X177134239Y-22811467D01*
X177134239Y-22811467D01*
G37*
G36*
X146134239Y-22811467D02*
X146448282Y-22873934D01*
X147039926Y-23119001D01*
X147329523Y-23312504D01*
X147572395Y-23474786D01*
X148025214Y-23927605D01*
X148025216Y-23927608D01*
X148380999Y-24460074D01*
X148502724Y-24753944D01*
X148626066Y-25051719D01*
X148751000Y-25679803D01*
X148751000Y-26320197D01*
X148711603Y-26518257D01*
X148626066Y-26948282D01*
X148380999Y-27539926D01*
X148133265Y-27910685D01*
X148025214Y-28072395D01*
X147572395Y-28525214D01*
X147572392Y-28525216D01*
X147039926Y-28880999D01*
X146448282Y-29126066D01*
X146134239Y-29188533D01*
X145820197Y-29251000D01*
X145179803Y-29251000D01*
X144865761Y-29188533D01*
X144551718Y-29126066D01*
X143960074Y-28880999D01*
X143427608Y-28525216D01*
X143427605Y-28525214D01*
X142974786Y-28072395D01*
X142866735Y-27910685D01*
X142619001Y-27539926D01*
X142373934Y-26948282D01*
X142288397Y-26518257D01*
X142249000Y-26320197D01*
X142249000Y-25679803D01*
X142373934Y-25051719D01*
X142497276Y-24753944D01*
X142619001Y-24460074D01*
X142974784Y-23927608D01*
X142974786Y-23927605D01*
X143427605Y-23474786D01*
X143670477Y-23312504D01*
X143960074Y-23119001D01*
X144551718Y-22873934D01*
X144865761Y-22811467D01*
X145179803Y-22749000D01*
X145820197Y-22749000D01*
X146134239Y-22811467D01*
X146134239Y-22811467D01*
G37*
G36*
X166817142Y-25218242D02*
X166965102Y-25279530D01*
X167098258Y-25368502D01*
X167211498Y-25481742D01*
X167300470Y-25614898D01*
X167361758Y-25762858D01*
X167393000Y-25919925D01*
X167393000Y-26080075D01*
X167361758Y-26237142D01*
X167300470Y-26385102D01*
X167211498Y-26518258D01*
X167098258Y-26631498D01*
X166965102Y-26720470D01*
X166817142Y-26781758D01*
X166660075Y-26813000D01*
X166499925Y-26813000D01*
X166342858Y-26781758D01*
X166194898Y-26720470D01*
X166061742Y-26631498D01*
X165948502Y-26518258D01*
X165859530Y-26385102D01*
X165798242Y-26237142D01*
X165767000Y-26080075D01*
X165767000Y-25919925D01*
X165798242Y-25762858D01*
X165859530Y-25614898D01*
X165948502Y-25481742D01*
X166061742Y-25368502D01*
X166194898Y-25279530D01*
X166342858Y-25218242D01*
X166499925Y-25187000D01*
X166660075Y-25187000D01*
X166817142Y-25218242D01*
X166817142Y-25218242D01*
G37*
G36*
X161737142Y-25218242D02*
X161885102Y-25279530D01*
X162018258Y-25368502D01*
X162131498Y-25481742D01*
X162220470Y-25614898D01*
X162281758Y-25762858D01*
X162313000Y-25919925D01*
X162313000Y-26080075D01*
X162281758Y-26237142D01*
X162220470Y-26385102D01*
X162131498Y-26518258D01*
X162018258Y-26631498D01*
X161885102Y-26720470D01*
X161737142Y-26781758D01*
X161580075Y-26813000D01*
X161419925Y-26813000D01*
X161262858Y-26781758D01*
X161114898Y-26720470D01*
X160981742Y-26631498D01*
X160868502Y-26518258D01*
X160779530Y-26385102D01*
X160718242Y-26237142D01*
X160687000Y-26080075D01*
X160687000Y-25919925D01*
X160718242Y-25762858D01*
X160779530Y-25614898D01*
X160868502Y-25481742D01*
X160981742Y-25368502D01*
X161114898Y-25279530D01*
X161262858Y-25218242D01*
X161419925Y-25187000D01*
X161580075Y-25187000D01*
X161737142Y-25218242D01*
X161737142Y-25218242D01*
G37*
G36*
X164277142Y-25218242D02*
X164425102Y-25279530D01*
X164558258Y-25368502D01*
X164671498Y-25481742D01*
X164760470Y-25614898D01*
X164821758Y-25762858D01*
X164853000Y-25919925D01*
X164853000Y-26080075D01*
X164821758Y-26237142D01*
X164760470Y-26385102D01*
X164671498Y-26518258D01*
X164558258Y-26631498D01*
X164425102Y-26720470D01*
X164277142Y-26781758D01*
X164120075Y-26813000D01*
X163959925Y-26813000D01*
X163802858Y-26781758D01*
X163654898Y-26720470D01*
X163521742Y-26631498D01*
X163408502Y-26518258D01*
X163319530Y-26385102D01*
X163258242Y-26237142D01*
X163227000Y-26080075D01*
X163227000Y-25919925D01*
X163258242Y-25762858D01*
X163319530Y-25614898D01*
X163408502Y-25481742D01*
X163521742Y-25368502D01*
X163654898Y-25279530D01*
X163802858Y-25218242D01*
X163959925Y-25187000D01*
X164120075Y-25187000D01*
X164277142Y-25218242D01*
X164277142Y-25218242D01*
G37*
G36*
X169357142Y-25218242D02*
X169505102Y-25279530D01*
X169638258Y-25368502D01*
X169751498Y-25481742D01*
X169840470Y-25614898D01*
X169901758Y-25762858D01*
X169933000Y-25919925D01*
X169933000Y-26080075D01*
X169901758Y-26237142D01*
X169840470Y-26385102D01*
X169751498Y-26518258D01*
X169638258Y-26631498D01*
X169505102Y-26720470D01*
X169357142Y-26781758D01*
X169200075Y-26813000D01*
X169039925Y-26813000D01*
X168882858Y-26781758D01*
X168734898Y-26720470D01*
X168601742Y-26631498D01*
X168488502Y-26518258D01*
X168399530Y-26385102D01*
X168338242Y-26237142D01*
X168307000Y-26080075D01*
X168307000Y-25919925D01*
X168338242Y-25762858D01*
X168399530Y-25614898D01*
X168488502Y-25481742D01*
X168601742Y-25368502D01*
X168734898Y-25279530D01*
X168882858Y-25218242D01*
X169039925Y-25187000D01*
X169200075Y-25187000D01*
X169357142Y-25218242D01*
X169357142Y-25218242D01*
G37*
G36*
X159197142Y-25218242D02*
X159345102Y-25279530D01*
X159478258Y-25368502D01*
X159591498Y-25481742D01*
X159680470Y-25614898D01*
X159741758Y-25762858D01*
X159773000Y-25919925D01*
X159773000Y-26080075D01*
X159741758Y-26237142D01*
X159680470Y-26385102D01*
X159591498Y-26518258D01*
X159478258Y-26631498D01*
X159345102Y-26720470D01*
X159197142Y-26781758D01*
X159040075Y-26813000D01*
X158879925Y-26813000D01*
X158722858Y-26781758D01*
X158574898Y-26720470D01*
X158441742Y-26631498D01*
X158328502Y-26518258D01*
X158239530Y-26385102D01*
X158178242Y-26237142D01*
X158147000Y-26080075D01*
X158147000Y-25919925D01*
X158178242Y-25762858D01*
X158239530Y-25614898D01*
X158328502Y-25481742D01*
X158441742Y-25368502D01*
X158574898Y-25279530D01*
X158722858Y-25218242D01*
X158879925Y-25187000D01*
X159040075Y-25187000D01*
X159197142Y-25218242D01*
X159197142Y-25218242D01*
G37*
G36*
X156657142Y-25218242D02*
X156805102Y-25279530D01*
X156938258Y-25368502D01*
X157051498Y-25481742D01*
X157140470Y-25614898D01*
X157201758Y-25762858D01*
X157233000Y-25919925D01*
X157233000Y-26080075D01*
X157201758Y-26237142D01*
X157140470Y-26385102D01*
X157051498Y-26518258D01*
X156938258Y-26631498D01*
X156805102Y-26720470D01*
X156657142Y-26781758D01*
X156500075Y-26813000D01*
X156339925Y-26813000D01*
X156182858Y-26781758D01*
X156034898Y-26720470D01*
X155901742Y-26631498D01*
X155788502Y-26518258D01*
X155699530Y-26385102D01*
X155638242Y-26237142D01*
X155607000Y-26080075D01*
X155607000Y-25919925D01*
X155638242Y-25762858D01*
X155699530Y-25614898D01*
X155788502Y-25481742D01*
X155901742Y-25368502D01*
X156034898Y-25279530D01*
X156182858Y-25218242D01*
X156339925Y-25187000D01*
X156500075Y-25187000D01*
X156657142Y-25218242D01*
X156657142Y-25218242D01*
G37*
G36*
X154117142Y-25218242D02*
X154265102Y-25279530D01*
X154398258Y-25368502D01*
X154511498Y-25481742D01*
X154600470Y-25614898D01*
X154661758Y-25762858D01*
X154693000Y-25919925D01*
X154693000Y-26080075D01*
X154661758Y-26237142D01*
X154600470Y-26385102D01*
X154511498Y-26518258D01*
X154398258Y-26631498D01*
X154265102Y-26720470D01*
X154117142Y-26781758D01*
X153960075Y-26813000D01*
X153799925Y-26813000D01*
X153642858Y-26781758D01*
X153494898Y-26720470D01*
X153361742Y-26631498D01*
X153248502Y-26518258D01*
X153159530Y-26385102D01*
X153098242Y-26237142D01*
X153067000Y-26080075D01*
X153067000Y-25919925D01*
X153098242Y-25762858D01*
X153159530Y-25614898D01*
X153248502Y-25481742D01*
X153361742Y-25368502D01*
X153494898Y-25279530D01*
X153642858Y-25218242D01*
X153799925Y-25187000D01*
X153960075Y-25187000D01*
X154117142Y-25218242D01*
X154117142Y-25218242D01*
G37*
G36*
X138634239Y-17811467D02*
X138948282Y-17873934D01*
X139539926Y-18119001D01*
X139829523Y-18312504D01*
X140072395Y-18474786D01*
X140525214Y-18927605D01*
X140525216Y-18927608D01*
X140880999Y-19460074D01*
X141002724Y-19753944D01*
X141126066Y-20051719D01*
X141251000Y-20679803D01*
X141251000Y-21320197D01*
X141214640Y-21502989D01*
X141126066Y-21948282D01*
X140880999Y-22539926D01*
X140633265Y-22910685D01*
X140525214Y-23072395D01*
X140072395Y-23525214D01*
X140072392Y-23525216D01*
X139539926Y-23880999D01*
X138948282Y-24126066D01*
X138634239Y-24188533D01*
X138320197Y-24251000D01*
X137679803Y-24251000D01*
X137365761Y-24188533D01*
X137051718Y-24126066D01*
X136460074Y-23880999D01*
X135927608Y-23525216D01*
X135927605Y-23525214D01*
X135474786Y-23072395D01*
X135366735Y-22910685D01*
X135119001Y-22539926D01*
X134873934Y-21948282D01*
X134785360Y-21502989D01*
X134749000Y-21320197D01*
X134749000Y-20679803D01*
X134873934Y-20051719D01*
X134997276Y-19753944D01*
X135119001Y-19460074D01*
X135474784Y-18927608D01*
X135474786Y-18927605D01*
X135927605Y-18474786D01*
X136170477Y-18312504D01*
X136460074Y-18119001D01*
X137051718Y-17873934D01*
X137365761Y-17811467D01*
X137679803Y-17749000D01*
X138320197Y-17749000D01*
X138634239Y-17811467D01*
X138634239Y-17811467D01*
G37*
G36*
X184634239Y-17811467D02*
X184948282Y-17873934D01*
X185539926Y-18119001D01*
X185829523Y-18312504D01*
X186072395Y-18474786D01*
X186525214Y-18927605D01*
X186525216Y-18927608D01*
X186880999Y-19460074D01*
X187002724Y-19753944D01*
X187126066Y-20051719D01*
X187251000Y-20679803D01*
X187251000Y-21320197D01*
X187214640Y-21502989D01*
X187126066Y-21948282D01*
X186880999Y-22539926D01*
X186633265Y-22910685D01*
X186525214Y-23072395D01*
X186072395Y-23525214D01*
X186072392Y-23525216D01*
X185539926Y-23880999D01*
X184948282Y-24126066D01*
X184634239Y-24188533D01*
X184320197Y-24251000D01*
X183679803Y-24251000D01*
X183365761Y-24188533D01*
X183051718Y-24126066D01*
X182460074Y-23880999D01*
X181927608Y-23525216D01*
X181927605Y-23525214D01*
X181474786Y-23072395D01*
X181366735Y-22910685D01*
X181119001Y-22539926D01*
X180873934Y-21948282D01*
X180785360Y-21502989D01*
X180749000Y-21320197D01*
X180749000Y-20679803D01*
X180873934Y-20051719D01*
X180997276Y-19753944D01*
X181119001Y-19460074D01*
X181474784Y-18927608D01*
X181474786Y-18927605D01*
X181927605Y-18474786D01*
X182170477Y-18312504D01*
X182460074Y-18119001D01*
X183051718Y-17873934D01*
X183365761Y-17811467D01*
X183679803Y-17749000D01*
X184320197Y-17749000D01*
X184634239Y-17811467D01*
X184634239Y-17811467D01*
G37*
G36*
X157690442Y-20105518D02*
X157756627Y-20112037D01*
X157869853Y-20146384D01*
X157926467Y-20163557D01*
X158065087Y-20237652D01*
X158082991Y-20247222D01*
X158118729Y-20276552D01*
X158220186Y-20359814D01*
X158303448Y-20461271D01*
X158332778Y-20497009D01*
X158332779Y-20497011D01*
X158416443Y-20653533D01*
X158416443Y-20653534D01*
X158467963Y-20823373D01*
X158485359Y-21000000D01*
X158467963Y-21176627D01*
X158434331Y-21287496D01*
X158416443Y-21346467D01*
X158388004Y-21399671D01*
X158332778Y-21502991D01*
X158303448Y-21538729D01*
X158220186Y-21640186D01*
X158118729Y-21723448D01*
X158082991Y-21752778D01*
X158082989Y-21752779D01*
X157926467Y-21836443D01*
X157869853Y-21853616D01*
X157756627Y-21887963D01*
X157690442Y-21894482D01*
X157624260Y-21901000D01*
X157535740Y-21901000D01*
X157469558Y-21894482D01*
X157403373Y-21887963D01*
X157290147Y-21853616D01*
X157233533Y-21836443D01*
X157077011Y-21752779D01*
X157077009Y-21752778D01*
X157041271Y-21723448D01*
X156939814Y-21640186D01*
X156856552Y-21538729D01*
X156827222Y-21502991D01*
X156771996Y-21399671D01*
X156743557Y-21346467D01*
X156725669Y-21287496D01*
X156692037Y-21176627D01*
X156674641Y-21000000D01*
X156692037Y-20823373D01*
X156743557Y-20653534D01*
X156743557Y-20653533D01*
X156827221Y-20497011D01*
X156827222Y-20497009D01*
X156856552Y-20461271D01*
X156939814Y-20359814D01*
X157041271Y-20276552D01*
X157077009Y-20247222D01*
X157094913Y-20237652D01*
X157233533Y-20163557D01*
X157290147Y-20146384D01*
X157403373Y-20112037D01*
X157469558Y-20105518D01*
X157535740Y-20099000D01*
X157624260Y-20099000D01*
X157690442Y-20105518D01*
X157690442Y-20105518D01*
G37*
G36*
X153401000Y-21901000D02*
X151599000Y-21901000D01*
X151599000Y-20099000D01*
X153401000Y-20099000D01*
X153401000Y-21901000D01*
X153401000Y-21901000D01*
G37*
G36*
X170390442Y-20105518D02*
X170456627Y-20112037D01*
X170569853Y-20146384D01*
X170626467Y-20163557D01*
X170765087Y-20237652D01*
X170782991Y-20247222D01*
X170818729Y-20276552D01*
X170920186Y-20359814D01*
X171003448Y-20461271D01*
X171032778Y-20497009D01*
X171032779Y-20497011D01*
X171116443Y-20653533D01*
X171116443Y-20653534D01*
X171167963Y-20823373D01*
X171185359Y-21000000D01*
X171167963Y-21176627D01*
X171134331Y-21287496D01*
X171116443Y-21346467D01*
X171088004Y-21399671D01*
X171032778Y-21502991D01*
X171003448Y-21538729D01*
X170920186Y-21640186D01*
X170818729Y-21723448D01*
X170782991Y-21752778D01*
X170782989Y-21752779D01*
X170626467Y-21836443D01*
X170569853Y-21853616D01*
X170456627Y-21887963D01*
X170390442Y-21894482D01*
X170324260Y-21901000D01*
X170235740Y-21901000D01*
X170169558Y-21894482D01*
X170103373Y-21887963D01*
X169990147Y-21853616D01*
X169933533Y-21836443D01*
X169777011Y-21752779D01*
X169777009Y-21752778D01*
X169741271Y-21723448D01*
X169639814Y-21640186D01*
X169556552Y-21538729D01*
X169527222Y-21502991D01*
X169471996Y-21399671D01*
X169443557Y-21346467D01*
X169425669Y-21287496D01*
X169392037Y-21176627D01*
X169374641Y-21000000D01*
X169392037Y-20823373D01*
X169443557Y-20653534D01*
X169443557Y-20653533D01*
X169527221Y-20497011D01*
X169527222Y-20497009D01*
X169556552Y-20461271D01*
X169639814Y-20359814D01*
X169741271Y-20276552D01*
X169777009Y-20247222D01*
X169794913Y-20237652D01*
X169933533Y-20163557D01*
X169990147Y-20146384D01*
X170103373Y-20112037D01*
X170169558Y-20105518D01*
X170235740Y-20099000D01*
X170324260Y-20099000D01*
X170390442Y-20105518D01*
X170390442Y-20105518D01*
G37*
G36*
X167850442Y-20105518D02*
X167916627Y-20112037D01*
X168029853Y-20146384D01*
X168086467Y-20163557D01*
X168225087Y-20237652D01*
X168242991Y-20247222D01*
X168278729Y-20276552D01*
X168380186Y-20359814D01*
X168463448Y-20461271D01*
X168492778Y-20497009D01*
X168492779Y-20497011D01*
X168576443Y-20653533D01*
X168576443Y-20653534D01*
X168627963Y-20823373D01*
X168645359Y-21000000D01*
X168627963Y-21176627D01*
X168594331Y-21287496D01*
X168576443Y-21346467D01*
X168548004Y-21399671D01*
X168492778Y-21502991D01*
X168463448Y-21538729D01*
X168380186Y-21640186D01*
X168278729Y-21723448D01*
X168242991Y-21752778D01*
X168242989Y-21752779D01*
X168086467Y-21836443D01*
X168029853Y-21853616D01*
X167916627Y-21887963D01*
X167850442Y-21894482D01*
X167784260Y-21901000D01*
X167695740Y-21901000D01*
X167629558Y-21894482D01*
X167563373Y-21887963D01*
X167450147Y-21853616D01*
X167393533Y-21836443D01*
X167237011Y-21752779D01*
X167237009Y-21752778D01*
X167201271Y-21723448D01*
X167099814Y-21640186D01*
X167016552Y-21538729D01*
X166987222Y-21502991D01*
X166931996Y-21399671D01*
X166903557Y-21346467D01*
X166885669Y-21287496D01*
X166852037Y-21176627D01*
X166834641Y-21000000D01*
X166852037Y-20823373D01*
X166903557Y-20653534D01*
X166903557Y-20653533D01*
X166987221Y-20497011D01*
X166987222Y-20497009D01*
X167016552Y-20461271D01*
X167099814Y-20359814D01*
X167201271Y-20276552D01*
X167237009Y-20247222D01*
X167254913Y-20237652D01*
X167393533Y-20163557D01*
X167450147Y-20146384D01*
X167563373Y-20112037D01*
X167629558Y-20105518D01*
X167695740Y-20099000D01*
X167784260Y-20099000D01*
X167850442Y-20105518D01*
X167850442Y-20105518D01*
G37*
G36*
X165310442Y-20105518D02*
X165376627Y-20112037D01*
X165489853Y-20146384D01*
X165546467Y-20163557D01*
X165685087Y-20237652D01*
X165702991Y-20247222D01*
X165738729Y-20276552D01*
X165840186Y-20359814D01*
X165923448Y-20461271D01*
X165952778Y-20497009D01*
X165952779Y-20497011D01*
X166036443Y-20653533D01*
X166036443Y-20653534D01*
X166087963Y-20823373D01*
X166105359Y-21000000D01*
X166087963Y-21176627D01*
X166054331Y-21287496D01*
X166036443Y-21346467D01*
X166008004Y-21399671D01*
X165952778Y-21502991D01*
X165923448Y-21538729D01*
X165840186Y-21640186D01*
X165738729Y-21723448D01*
X165702991Y-21752778D01*
X165702989Y-21752779D01*
X165546467Y-21836443D01*
X165489853Y-21853616D01*
X165376627Y-21887963D01*
X165310442Y-21894482D01*
X165244260Y-21901000D01*
X165155740Y-21901000D01*
X165089558Y-21894482D01*
X165023373Y-21887963D01*
X164910147Y-21853616D01*
X164853533Y-21836443D01*
X164697011Y-21752779D01*
X164697009Y-21752778D01*
X164661271Y-21723448D01*
X164559814Y-21640186D01*
X164476552Y-21538729D01*
X164447222Y-21502991D01*
X164391996Y-21399671D01*
X164363557Y-21346467D01*
X164345669Y-21287496D01*
X164312037Y-21176627D01*
X164294641Y-21000000D01*
X164312037Y-20823373D01*
X164363557Y-20653534D01*
X164363557Y-20653533D01*
X164447221Y-20497011D01*
X164447222Y-20497009D01*
X164476552Y-20461271D01*
X164559814Y-20359814D01*
X164661271Y-20276552D01*
X164697009Y-20247222D01*
X164714913Y-20237652D01*
X164853533Y-20163557D01*
X164910147Y-20146384D01*
X165023373Y-20112037D01*
X165089558Y-20105518D01*
X165155740Y-20099000D01*
X165244260Y-20099000D01*
X165310442Y-20105518D01*
X165310442Y-20105518D01*
G37*
G36*
X162770442Y-20105518D02*
X162836627Y-20112037D01*
X162949853Y-20146384D01*
X163006467Y-20163557D01*
X163145087Y-20237652D01*
X163162991Y-20247222D01*
X163198729Y-20276552D01*
X163300186Y-20359814D01*
X163383448Y-20461271D01*
X163412778Y-20497009D01*
X163412779Y-20497011D01*
X163496443Y-20653533D01*
X163496443Y-20653534D01*
X163547963Y-20823373D01*
X163565359Y-21000000D01*
X163547963Y-21176627D01*
X163514331Y-21287496D01*
X163496443Y-21346467D01*
X163468004Y-21399671D01*
X163412778Y-21502991D01*
X163383448Y-21538729D01*
X163300186Y-21640186D01*
X163198729Y-21723448D01*
X163162991Y-21752778D01*
X163162989Y-21752779D01*
X163006467Y-21836443D01*
X162949853Y-21853616D01*
X162836627Y-21887963D01*
X162770442Y-21894482D01*
X162704260Y-21901000D01*
X162615740Y-21901000D01*
X162549558Y-21894482D01*
X162483373Y-21887963D01*
X162370147Y-21853616D01*
X162313533Y-21836443D01*
X162157011Y-21752779D01*
X162157009Y-21752778D01*
X162121271Y-21723448D01*
X162019814Y-21640186D01*
X161936552Y-21538729D01*
X161907222Y-21502991D01*
X161851996Y-21399671D01*
X161823557Y-21346467D01*
X161805669Y-21287496D01*
X161772037Y-21176627D01*
X161754641Y-21000000D01*
X161772037Y-20823373D01*
X161823557Y-20653534D01*
X161823557Y-20653533D01*
X161907221Y-20497011D01*
X161907222Y-20497009D01*
X161936552Y-20461271D01*
X162019814Y-20359814D01*
X162121271Y-20276552D01*
X162157009Y-20247222D01*
X162174913Y-20237652D01*
X162313533Y-20163557D01*
X162370147Y-20146384D01*
X162483373Y-20112037D01*
X162549558Y-20105518D01*
X162615740Y-20099000D01*
X162704260Y-20099000D01*
X162770442Y-20105518D01*
X162770442Y-20105518D01*
G37*
G36*
X160230442Y-20105518D02*
X160296627Y-20112037D01*
X160409853Y-20146384D01*
X160466467Y-20163557D01*
X160605087Y-20237652D01*
X160622991Y-20247222D01*
X160658729Y-20276552D01*
X160760186Y-20359814D01*
X160843448Y-20461271D01*
X160872778Y-20497009D01*
X160872779Y-20497011D01*
X160956443Y-20653533D01*
X160956443Y-20653534D01*
X161007963Y-20823373D01*
X161025359Y-21000000D01*
X161007963Y-21176627D01*
X160974331Y-21287496D01*
X160956443Y-21346467D01*
X160928004Y-21399671D01*
X160872778Y-21502991D01*
X160843448Y-21538729D01*
X160760186Y-21640186D01*
X160658729Y-21723448D01*
X160622991Y-21752778D01*
X160622989Y-21752779D01*
X160466467Y-21836443D01*
X160409853Y-21853616D01*
X160296627Y-21887963D01*
X160230442Y-21894482D01*
X160164260Y-21901000D01*
X160075740Y-21901000D01*
X160009558Y-21894482D01*
X159943373Y-21887963D01*
X159830147Y-21853616D01*
X159773533Y-21836443D01*
X159617011Y-21752779D01*
X159617009Y-21752778D01*
X159581271Y-21723448D01*
X159479814Y-21640186D01*
X159396552Y-21538729D01*
X159367222Y-21502991D01*
X159311996Y-21399671D01*
X159283557Y-21346467D01*
X159265669Y-21287496D01*
X159232037Y-21176627D01*
X159214641Y-21000000D01*
X159232037Y-20823373D01*
X159283557Y-20653534D01*
X159283557Y-20653533D01*
X159367221Y-20497011D01*
X159367222Y-20497009D01*
X159396552Y-20461271D01*
X159479814Y-20359814D01*
X159581271Y-20276552D01*
X159617009Y-20247222D01*
X159634913Y-20237652D01*
X159773533Y-20163557D01*
X159830147Y-20146384D01*
X159943373Y-20112037D01*
X160009558Y-20105518D01*
X160075740Y-20099000D01*
X160164260Y-20099000D01*
X160230442Y-20105518D01*
X160230442Y-20105518D01*
G37*
G36*
X155150442Y-20105518D02*
X155216627Y-20112037D01*
X155329853Y-20146384D01*
X155386467Y-20163557D01*
X155525087Y-20237652D01*
X155542991Y-20247222D01*
X155578729Y-20276552D01*
X155680186Y-20359814D01*
X155763448Y-20461271D01*
X155792778Y-20497009D01*
X155792779Y-20497011D01*
X155876443Y-20653533D01*
X155876443Y-20653534D01*
X155927963Y-20823373D01*
X155945359Y-21000000D01*
X155927963Y-21176627D01*
X155894331Y-21287496D01*
X155876443Y-21346467D01*
X155848004Y-21399671D01*
X155792778Y-21502991D01*
X155763448Y-21538729D01*
X155680186Y-21640186D01*
X155578729Y-21723448D01*
X155542991Y-21752778D01*
X155542989Y-21752779D01*
X155386467Y-21836443D01*
X155329853Y-21853616D01*
X155216627Y-21887963D01*
X155150442Y-21894482D01*
X155084260Y-21901000D01*
X154995740Y-21901000D01*
X154929558Y-21894482D01*
X154863373Y-21887963D01*
X154750147Y-21853616D01*
X154693533Y-21836443D01*
X154537011Y-21752779D01*
X154537009Y-21752778D01*
X154501271Y-21723448D01*
X154399814Y-21640186D01*
X154316552Y-21538729D01*
X154287222Y-21502991D01*
X154231996Y-21399671D01*
X154203557Y-21346467D01*
X154185669Y-21287496D01*
X154152037Y-21176627D01*
X154134641Y-21000000D01*
X154152037Y-20823373D01*
X154203557Y-20653534D01*
X154203557Y-20653533D01*
X154287221Y-20497011D01*
X154287222Y-20497009D01*
X154316552Y-20461271D01*
X154399814Y-20359814D01*
X154501271Y-20276552D01*
X154537009Y-20247222D01*
X154554913Y-20237652D01*
X154693533Y-20163557D01*
X154750147Y-20146384D01*
X154863373Y-20112037D01*
X154929558Y-20105518D01*
X154995740Y-20099000D01*
X155084260Y-20099000D01*
X155150442Y-20105518D01*
X155150442Y-20105518D01*
G37*
M02*
