M48
;DRILL file {KiCad 5.0.2+dfsg1-1} date Sun 10 Apr 2022 01:54:38 AM PDT
;FORMAT={-:-/ absolute / metric / decimal}
FMAT,2
METRIC,TZ
T1C0.400
T2C0.500
T3C0.762
T4C0.800
T5C1.000
T6C1.100
T7C3.200
%
G90
G05
T1
X138.08Y-77.36
X155.77Y-70.59
X155.96Y-75.92
X156.2Y-78.07
X158.41Y-24.23
X160.67Y-23.93
X161.532Y-29.668
X162.91Y-79.88
X163.15Y-23.75
X163.33Y-71.6
X164.57Y-30.1
X166.03Y-71.51
X167.53Y-28.62
X168.37Y-64.12
X168.37Y-72.96
X169.78Y-28.02
X170.028Y-38.092
X170.06Y-23.15
X171.31Y-72.79
X172.11Y-46.06
X172.26Y-43.38
X172.597Y-41.243
X173.24Y-51.22
X173.349Y-43.091
X174.54Y-46.06
X177.15Y-46.3
X177.25Y-67.
X178.17Y-44.37
X179.77Y-46.11
X180.31Y-50.84
X181.43Y-35.16
X181.49Y-67.82
X186.07Y-51.82
T2
X143.1Y-26.
X143.803Y-24.303
X143.803Y-27.697
X145.5Y-23.6
X145.5Y-28.4
X147.197Y-24.303
X147.197Y-27.697
X147.9Y-26.
X181.6Y-95.
X182.303Y-93.303
X182.303Y-96.697
X184.Y-92.6
X184.Y-97.4
X185.697Y-93.303
X185.697Y-96.697
X186.4Y-95.
X143.1Y-55.
X143.803Y-53.303
X143.803Y-56.697
X145.5Y-52.6
X145.5Y-57.4
X147.197Y-53.303
X147.197Y-56.697
X147.9Y-55.
X135.6Y-95.
X136.303Y-93.303
X136.303Y-96.697
X138.Y-92.6
X138.Y-97.4
X139.697Y-93.303
X139.697Y-96.697
X140.4Y-95.
X174.1Y-55.
X174.803Y-53.303
X174.803Y-56.697
X176.5Y-52.6
X176.5Y-57.4
X178.197Y-53.303
X178.197Y-56.697
X178.9Y-55.
X135.6Y-21.
X136.303Y-19.303
X136.303Y-22.697
X138.Y-18.6
X138.Y-23.4
X139.697Y-19.303
X139.697Y-22.697
X140.4Y-21.
X174.1Y-26.
X174.803Y-24.303
X174.803Y-27.697
X176.5Y-23.6
X176.5Y-28.4
X178.197Y-24.303
X178.197Y-27.697
X178.9Y-26.
X181.6Y-21.
X182.303Y-19.303
X182.303Y-22.697
X184.Y-18.6
X184.Y-23.4
X185.697Y-19.303
X185.697Y-22.697
X186.4Y-21.
T3
X153.88Y-26.
X156.42Y-26.
X158.96Y-26.
X161.5Y-26.
X164.04Y-26.
X166.58Y-26.
X169.12Y-26.
T4
X157.22Y-62.
X157.22Y-69.62
X159.76Y-62.
X159.76Y-69.62
X162.3Y-62.
X162.3Y-69.62
X164.84Y-62.
X164.84Y-69.62
X167.38Y-62.
X167.38Y-69.62
X169.92Y-62.
X169.92Y-69.62
X172.46Y-62.
X172.46Y-69.62
X175.Y-62.
X175.Y-69.62
T5
X157.Y-88.
X157.Y-90.5
X157.Y-93.
X181.46Y-65.
X184.Y-65.
X138.Y-31.
X138.Y-33.54
X138.Y-36.08
X138.Y-38.62
X138.Y-41.16
X138.Y-43.7
X138.Y-46.24
X138.Y-48.78
X152.5Y-21.
X155.04Y-21.
X157.58Y-21.
X160.12Y-21.
X162.66Y-21.
X165.2Y-21.
X167.74Y-21.
X170.28Y-21.
T6
X180.Y-71.
X180.Y-75.5
X186.5Y-71.
X186.5Y-75.5
X144.Y-66.
X144.Y-70.5
X150.5Y-66.
X150.5Y-70.5
X169.625Y-75.675
X169.625Y-80.175
X176.125Y-75.675
X176.125Y-80.175
X135.Y-75.
X135.Y-79.5
X141.5Y-75.
X141.5Y-79.5
X144.Y-84.
X144.Y-88.5
X150.5Y-84.
X150.5Y-88.5
X153.Y-75.
X153.Y-79.5
X159.5Y-75.
X159.5Y-79.5
T7
X145.5Y-26.
X184.Y-95.
X145.5Y-55.
X138.Y-95.
X176.5Y-55.
X138.Y-21.
X176.5Y-26.
X184.Y-21.
T0
M30
