%FSLAX45Y45*%
G04 Gerber Fmt 4.5, Leading zero omitted, Abs format (unit mm)*
G04 Created by KiCad (PCBNEW 5.0.2+dfsg1-1) date Sun 10 Apr 2022 01:54:58 AM PDT*
%MOMM*%
%LPD*%
G01*
G04 APERTURE LIST*
%ADD10C,0.150000*%
%ADD11C,0.200000*%
%ADD12C,0.300000*%
G04 APERTURE END LIST*
D10*
X13800000Y-1600000D02*
X18400000Y-1600000D01*
X13800000Y-10000000D02*
X18400000Y-10000000D01*
X18900000Y-9500000D02*
X18900000Y-2100000D01*
X13300000Y-2100000D02*
X13300000Y-9500000D01*
X18400000Y-1600000D02*
G75*
G02X18900000Y-2100000I0J-500000D01*
G01*
X18900000Y-9500000D02*
G75*
G02X18400000Y-10000000I-500000J0D01*
G01*
X13800000Y-10000000D02*
G75*
G02X13300000Y-9500000I0J500000D01*
G01*
X13300000Y-2100000D02*
G75*
G02X13800000Y-1600000I500000J0D01*
G01*
D11*
X13788000Y-7716000D02*
X13828000Y-7756000D01*
X13828000Y-7716000D02*
X13788000Y-7756000D01*
X15557000Y-7039000D02*
X15597000Y-7079000D01*
X15597000Y-7039000D02*
X15557000Y-7079000D01*
X15576000Y-7572000D02*
X15616000Y-7612000D01*
X15616000Y-7572000D02*
X15576000Y-7612000D01*
X15600000Y-7787000D02*
X15640000Y-7827000D01*
X15640000Y-7787000D02*
X15600000Y-7827000D01*
X15821000Y-2403000D02*
X15861000Y-2443000D01*
X15861000Y-2403000D02*
X15821000Y-2443000D01*
X16047000Y-2373000D02*
X16087000Y-2413000D01*
X16087000Y-2373000D02*
X16047000Y-2413000D01*
X16133199Y-2946801D02*
X16173199Y-2986801D01*
X16173199Y-2946801D02*
X16133199Y-2986801D01*
X16271000Y-7968000D02*
X16311000Y-8008000D01*
X16311000Y-7968000D02*
X16271000Y-8008000D01*
X16295000Y-2355000D02*
X16335000Y-2395000D01*
X16335000Y-2355000D02*
X16295000Y-2395000D01*
X16313000Y-7140000D02*
X16353000Y-7180000D01*
X16353000Y-7140000D02*
X16313000Y-7180000D01*
X16437000Y-2990000D02*
X16477000Y-3030000D01*
X16477000Y-2990000D02*
X16437000Y-3030000D01*
X16583000Y-7131000D02*
X16623000Y-7171000D01*
X16623000Y-7131000D02*
X16583000Y-7171000D01*
X16733000Y-2842000D02*
X16773000Y-2882000D01*
X16773000Y-2842000D02*
X16733000Y-2882000D01*
X16817000Y-6392000D02*
X16857000Y-6432000D01*
X16857000Y-6392000D02*
X16817000Y-6432000D01*
X16817000Y-7276000D02*
X16857000Y-7316000D01*
X16857000Y-7276000D02*
X16817000Y-7316000D01*
X16958000Y-2782000D02*
X16998000Y-2822000D01*
X16998000Y-2782000D02*
X16958000Y-2822000D01*
X16982775Y-3789200D02*
X17022775Y-3829200D01*
X17022775Y-3789200D02*
X16982775Y-3829200D01*
X16986000Y-2295000D02*
X17026000Y-2335000D01*
X17026000Y-2295000D02*
X16986000Y-2335000D01*
X17111000Y-7259000D02*
X17151000Y-7299000D01*
X17151000Y-7259000D02*
X17111000Y-7299000D01*
X17191000Y-4586000D02*
X17231000Y-4626000D01*
X17231000Y-4586000D02*
X17191000Y-4626000D01*
X17206000Y-4318000D02*
X17246000Y-4358000D01*
X17246000Y-4318000D02*
X17206000Y-4358000D01*
X17239699Y-4104301D02*
X17279699Y-4144301D01*
X17279699Y-4104301D02*
X17239699Y-4144301D01*
X17304000Y-5102000D02*
X17344000Y-5142000D01*
X17344000Y-5102000D02*
X17304000Y-5142000D01*
X17314898Y-4289102D02*
X17354898Y-4329102D01*
X17354898Y-4289102D02*
X17314898Y-4329102D01*
X17434000Y-4586000D02*
X17474000Y-4626000D01*
X17474000Y-4586000D02*
X17434000Y-4626000D01*
X17695000Y-4610000D02*
X17735000Y-4650000D01*
X17735000Y-4610000D02*
X17695000Y-4650000D01*
X17705000Y-6680000D02*
X17745000Y-6720000D01*
X17745000Y-6680000D02*
X17705000Y-6720000D01*
X17797000Y-4417000D02*
X17837000Y-4457000D01*
X17837000Y-4417000D02*
X17797000Y-4457000D01*
X17957000Y-4591000D02*
X17997000Y-4631000D01*
X17997000Y-4591000D02*
X17957000Y-4631000D01*
X18011000Y-5064000D02*
X18051000Y-5104000D01*
X18051000Y-5064000D02*
X18011000Y-5104000D01*
X18123000Y-3496000D02*
X18163000Y-3536000D01*
X18163000Y-3496000D02*
X18123000Y-3536000D01*
X18129000Y-6762000D02*
X18169000Y-6802000D01*
X18169000Y-6762000D02*
X18129000Y-6802000D01*
X18587000Y-5162000D02*
X18627000Y-5202000D01*
X18627000Y-5162000D02*
X18587000Y-5202000D01*
X14335000Y-2600000D02*
G75*
G03X14335000Y-2600000I-25000J0D01*
G01*
X14405294Y-2430294D02*
G75*
G03X14405294Y-2430294I-25000J0D01*
G01*
X14405294Y-2769706D02*
G75*
G03X14405294Y-2769706I-25000J0D01*
G01*
X14575000Y-2360000D02*
G75*
G03X14575000Y-2360000I-25000J0D01*
G01*
X14575000Y-2840000D02*
G75*
G03X14575000Y-2840000I-25000J0D01*
G01*
X14744706Y-2430294D02*
G75*
G03X14744706Y-2430294I-25000J0D01*
G01*
X14744706Y-2769706D02*
G75*
G03X14744706Y-2769706I-25000J0D01*
G01*
X14815000Y-2600000D02*
G75*
G03X14815000Y-2600000I-25000J0D01*
G01*
X18185000Y-9500000D02*
G75*
G03X18185000Y-9500000I-25000J0D01*
G01*
X18255294Y-9330294D02*
G75*
G03X18255294Y-9330294I-25000J0D01*
G01*
X18255294Y-9669706D02*
G75*
G03X18255294Y-9669706I-25000J0D01*
G01*
X18425000Y-9260000D02*
G75*
G03X18425000Y-9260000I-25000J0D01*
G01*
X18425000Y-9740000D02*
G75*
G03X18425000Y-9740000I-25000J0D01*
G01*
X18594706Y-9330294D02*
G75*
G03X18594706Y-9330294I-25000J0D01*
G01*
X18594706Y-9669706D02*
G75*
G03X18594706Y-9669706I-25000J0D01*
G01*
X18665000Y-9500000D02*
G75*
G03X18665000Y-9500000I-25000J0D01*
G01*
X14335000Y-5500000D02*
G75*
G03X14335000Y-5500000I-25000J0D01*
G01*
X14405294Y-5330294D02*
G75*
G03X14405294Y-5330294I-25000J0D01*
G01*
X14405294Y-5669706D02*
G75*
G03X14405294Y-5669706I-25000J0D01*
G01*
X14575000Y-5260000D02*
G75*
G03X14575000Y-5260000I-25000J0D01*
G01*
X14575000Y-5740000D02*
G75*
G03X14575000Y-5740000I-25000J0D01*
G01*
X14744706Y-5330294D02*
G75*
G03X14744706Y-5330294I-25000J0D01*
G01*
X14744706Y-5669706D02*
G75*
G03X14744706Y-5669706I-25000J0D01*
G01*
X14815000Y-5500000D02*
G75*
G03X14815000Y-5500000I-25000J0D01*
G01*
X13585000Y-9500000D02*
G75*
G03X13585000Y-9500000I-25000J0D01*
G01*
X13655294Y-9330294D02*
G75*
G03X13655294Y-9330294I-25000J0D01*
G01*
X13655294Y-9669706D02*
G75*
G03X13655294Y-9669706I-25000J0D01*
G01*
X13825000Y-9260000D02*
G75*
G03X13825000Y-9260000I-25000J0D01*
G01*
X13825000Y-9740000D02*
G75*
G03X13825000Y-9740000I-25000J0D01*
G01*
X13994706Y-9330294D02*
G75*
G03X13994706Y-9330294I-25000J0D01*
G01*
X13994706Y-9669706D02*
G75*
G03X13994706Y-9669706I-25000J0D01*
G01*
X14065000Y-9500000D02*
G75*
G03X14065000Y-9500000I-25000J0D01*
G01*
X17435000Y-5500000D02*
G75*
G03X17435000Y-5500000I-25000J0D01*
G01*
X17505294Y-5330294D02*
G75*
G03X17505294Y-5330294I-25000J0D01*
G01*
X17505294Y-5669706D02*
G75*
G03X17505294Y-5669706I-25000J0D01*
G01*
X17675000Y-5260000D02*
G75*
G03X17675000Y-5260000I-25000J0D01*
G01*
X17675000Y-5740000D02*
G75*
G03X17675000Y-5740000I-25000J0D01*
G01*
X17844706Y-5330294D02*
G75*
G03X17844706Y-5330294I-25000J0D01*
G01*
X17844706Y-5669706D02*
G75*
G03X17844706Y-5669706I-25000J0D01*
G01*
X17915000Y-5500000D02*
G75*
G03X17915000Y-5500000I-25000J0D01*
G01*
X13585000Y-2100000D02*
G75*
G03X13585000Y-2100000I-25000J0D01*
G01*
X13655294Y-1930294D02*
G75*
G03X13655294Y-1930294I-25000J0D01*
G01*
X13655294Y-2269706D02*
G75*
G03X13655294Y-2269706I-25000J0D01*
G01*
X13825000Y-1860000D02*
G75*
G03X13825000Y-1860000I-25000J0D01*
G01*
X13825000Y-2340000D02*
G75*
G03X13825000Y-2340000I-25000J0D01*
G01*
X13994706Y-1930294D02*
G75*
G03X13994706Y-1930294I-25000J0D01*
G01*
X13994706Y-2269706D02*
G75*
G03X13994706Y-2269706I-25000J0D01*
G01*
X14065000Y-2100000D02*
G75*
G03X14065000Y-2100000I-25000J0D01*
G01*
X17435000Y-2600000D02*
G75*
G03X17435000Y-2600000I-25000J0D01*
G01*
X17505294Y-2430294D02*
G75*
G03X17505294Y-2430294I-25000J0D01*
G01*
X17505294Y-2769706D02*
G75*
G03X17505294Y-2769706I-25000J0D01*
G01*
X17675000Y-2360000D02*
G75*
G03X17675000Y-2360000I-25000J0D01*
G01*
X17675000Y-2840000D02*
G75*
G03X17675000Y-2840000I-25000J0D01*
G01*
X17844706Y-2430294D02*
G75*
G03X17844706Y-2430294I-25000J0D01*
G01*
X17844706Y-2769706D02*
G75*
G03X17844706Y-2769706I-25000J0D01*
G01*
X17915000Y-2600000D02*
G75*
G03X17915000Y-2600000I-25000J0D01*
G01*
X18185000Y-2100000D02*
G75*
G03X18185000Y-2100000I-25000J0D01*
G01*
X18255294Y-1930294D02*
G75*
G03X18255294Y-1930294I-25000J0D01*
G01*
X18255294Y-2269706D02*
G75*
G03X18255294Y-2269706I-25000J0D01*
G01*
X18425000Y-1860000D02*
G75*
G03X18425000Y-1860000I-25000J0D01*
G01*
X18425000Y-2340000D02*
G75*
G03X18425000Y-2340000I-25000J0D01*
G01*
X18594706Y-1930294D02*
G75*
G03X18594706Y-1930294I-25000J0D01*
G01*
X18594706Y-2269706D02*
G75*
G03X18594706Y-2269706I-25000J0D01*
G01*
X18665000Y-2100000D02*
G75*
G03X18665000Y-2100000I-25000J0D01*
G01*
X15388000Y-2561900D02*
X15388000Y-2638100D01*
X15349900Y-2600000D02*
X15426100Y-2600000D01*
X15642000Y-2561900D02*
X15642000Y-2638100D01*
X15603900Y-2600000D02*
X15680100Y-2600000D01*
X15896000Y-2561900D02*
X15896000Y-2638100D01*
X15857900Y-2600000D02*
X15934100Y-2600000D01*
X16150000Y-2561900D02*
X16150000Y-2638100D01*
X16111900Y-2600000D02*
X16188100Y-2600000D01*
X16404000Y-2561900D02*
X16404000Y-2638100D01*
X16365900Y-2600000D02*
X16442100Y-2600000D01*
X16658000Y-2561900D02*
X16658000Y-2638100D01*
X16619900Y-2600000D02*
X16696100Y-2600000D01*
X16912000Y-2561900D02*
X16912000Y-2638100D01*
X16873900Y-2600000D02*
X16950100Y-2600000D01*
X15750284Y-6228284D02*
X15750284Y-6171715D01*
X15693715Y-6171715D01*
X15693715Y-6228284D01*
X15750284Y-6228284D01*
X15750284Y-6990284D02*
X15750284Y-6933715D01*
X15693715Y-6933715D01*
X15693715Y-6990284D01*
X15750284Y-6990284D01*
X16004284Y-6228284D02*
X16004284Y-6171715D01*
X15947715Y-6171715D01*
X15947715Y-6228284D01*
X16004284Y-6228284D01*
X16004284Y-6990284D02*
X16004284Y-6933715D01*
X15947715Y-6933715D01*
X15947715Y-6990284D01*
X16004284Y-6990284D01*
X16258284Y-6228284D02*
X16258284Y-6171715D01*
X16201715Y-6171715D01*
X16201715Y-6228284D01*
X16258284Y-6228284D01*
X16258284Y-6990284D02*
X16258284Y-6933715D01*
X16201715Y-6933715D01*
X16201715Y-6990284D01*
X16258284Y-6990284D01*
X16512284Y-6228284D02*
X16512284Y-6171715D01*
X16455715Y-6171715D01*
X16455715Y-6228284D01*
X16512284Y-6228284D01*
X16512284Y-6990284D02*
X16512284Y-6933715D01*
X16455715Y-6933715D01*
X16455715Y-6990284D01*
X16512284Y-6990284D01*
X16766284Y-6228284D02*
X16766284Y-6171715D01*
X16709715Y-6171715D01*
X16709715Y-6228284D01*
X16766284Y-6228284D01*
X16766284Y-6990284D02*
X16766284Y-6933715D01*
X16709715Y-6933715D01*
X16709715Y-6990284D01*
X16766284Y-6990284D01*
X17020285Y-6228284D02*
X17020285Y-6171715D01*
X16963716Y-6171715D01*
X16963716Y-6228284D01*
X17020285Y-6228284D01*
X17020285Y-6990284D02*
X17020285Y-6933715D01*
X16963716Y-6933715D01*
X16963716Y-6990284D01*
X17020285Y-6990284D01*
X17274285Y-6228284D02*
X17274285Y-6171715D01*
X17217716Y-6171715D01*
X17217716Y-6228284D01*
X17274285Y-6228284D01*
X17274285Y-6990284D02*
X17274285Y-6933715D01*
X17217716Y-6933715D01*
X17217716Y-6990284D01*
X17274285Y-6990284D01*
X17528285Y-6228284D02*
X17528285Y-6171715D01*
X17471716Y-6171715D01*
X17471716Y-6228284D01*
X17528285Y-6228284D01*
X17528285Y-6990284D02*
X17528285Y-6933715D01*
X17471716Y-6933715D01*
X17471716Y-6990284D01*
X17528285Y-6990284D01*
X15700000Y-8850000D02*
X15750000Y-8800000D01*
X15700000Y-8750000D01*
X15650000Y-8800000D01*
X15700000Y-8850000D01*
X15700000Y-9100000D02*
X15750000Y-9050000D01*
X15700000Y-9000000D01*
X15650000Y-9050000D01*
X15700000Y-9100000D01*
X15700000Y-9350000D02*
X15750000Y-9300000D01*
X15700000Y-9250000D01*
X15650000Y-9300000D01*
X15700000Y-9350000D01*
X18146000Y-6550000D02*
X18196000Y-6500000D01*
X18146000Y-6450000D01*
X18096000Y-6500000D01*
X18146000Y-6550000D01*
X18400000Y-6550000D02*
X18450000Y-6500000D01*
X18400000Y-6450000D01*
X18350000Y-6500000D01*
X18400000Y-6550000D01*
X13800000Y-3150000D02*
X13850000Y-3100000D01*
X13800000Y-3050000D01*
X13750000Y-3100000D01*
X13800000Y-3150000D01*
X13800000Y-3404000D02*
X13850000Y-3354000D01*
X13800000Y-3304000D01*
X13750000Y-3354000D01*
X13800000Y-3404000D01*
X13800000Y-3658000D02*
X13850000Y-3608000D01*
X13800000Y-3558000D01*
X13750000Y-3608000D01*
X13800000Y-3658000D01*
X13800000Y-3912000D02*
X13850000Y-3862000D01*
X13800000Y-3812000D01*
X13750000Y-3862000D01*
X13800000Y-3912000D01*
X13800000Y-4166000D02*
X13850000Y-4116000D01*
X13800000Y-4066000D01*
X13750000Y-4116000D01*
X13800000Y-4166000D01*
X13800000Y-4420000D02*
X13850000Y-4370000D01*
X13800000Y-4320000D01*
X13750000Y-4370000D01*
X13800000Y-4420000D01*
X13800000Y-4674000D02*
X13850000Y-4624000D01*
X13800000Y-4574000D01*
X13750000Y-4624000D01*
X13800000Y-4674000D01*
X13800000Y-4928000D02*
X13850000Y-4878000D01*
X13800000Y-4828000D01*
X13750000Y-4878000D01*
X13800000Y-4928000D01*
X15250000Y-2150000D02*
X15300000Y-2100000D01*
X15250000Y-2050000D01*
X15200000Y-2100000D01*
X15250000Y-2150000D01*
X15504000Y-2150000D02*
X15554000Y-2100000D01*
X15504000Y-2050000D01*
X15454000Y-2100000D01*
X15504000Y-2150000D01*
X15758000Y-2150000D02*
X15808000Y-2100000D01*
X15758000Y-2050000D01*
X15708000Y-2100000D01*
X15758000Y-2150000D01*
X16012000Y-2150000D02*
X16062000Y-2100000D01*
X16012000Y-2050000D01*
X15962000Y-2100000D01*
X16012000Y-2150000D01*
X16266000Y-2150000D02*
X16316000Y-2100000D01*
X16266000Y-2050000D01*
X16216000Y-2100000D01*
X16266000Y-2150000D01*
X16520000Y-2150000D02*
X16570000Y-2100000D01*
X16520000Y-2050000D01*
X16470000Y-2100000D01*
X16520000Y-2150000D01*
X16774000Y-2150000D02*
X16824000Y-2100000D01*
X16774000Y-2050000D01*
X16724000Y-2100000D01*
X16774000Y-2150000D01*
X17028000Y-2150000D02*
X17078000Y-2100000D01*
X17028000Y-2050000D01*
X16978000Y-2100000D01*
X17028000Y-2150000D01*
X17945000Y-7045000D02*
X18055000Y-7155000D01*
X18055000Y-7045000D02*
X17945000Y-7155000D01*
X18055000Y-7100000D02*
G75*
G03X18055000Y-7100000I-55000J0D01*
G01*
X17945000Y-7495000D02*
X18055000Y-7605000D01*
X18055000Y-7495000D02*
X17945000Y-7605000D01*
X18055000Y-7550000D02*
G75*
G03X18055000Y-7550000I-55000J0D01*
G01*
X18595000Y-7045000D02*
X18705000Y-7155000D01*
X18705000Y-7045000D02*
X18595000Y-7155000D01*
X18705000Y-7100000D02*
G75*
G03X18705000Y-7100000I-55000J0D01*
G01*
X18595000Y-7495000D02*
X18705000Y-7605000D01*
X18705000Y-7495000D02*
X18595000Y-7605000D01*
X18705000Y-7550000D02*
G75*
G03X18705000Y-7550000I-55000J0D01*
G01*
X14345000Y-6545000D02*
X14455000Y-6655000D01*
X14455000Y-6545000D02*
X14345000Y-6655000D01*
X14455000Y-6600000D02*
G75*
G03X14455000Y-6600000I-55000J0D01*
G01*
X14345000Y-6995000D02*
X14455000Y-7105000D01*
X14455000Y-6995000D02*
X14345000Y-7105000D01*
X14455000Y-7050000D02*
G75*
G03X14455000Y-7050000I-55000J0D01*
G01*
X14995000Y-6545000D02*
X15105000Y-6655000D01*
X15105000Y-6545000D02*
X14995000Y-6655000D01*
X15105000Y-6600000D02*
G75*
G03X15105000Y-6600000I-55000J0D01*
G01*
X14995000Y-6995000D02*
X15105000Y-7105000D01*
X15105000Y-6995000D02*
X14995000Y-7105000D01*
X15105000Y-7050000D02*
G75*
G03X15105000Y-7050000I-55000J0D01*
G01*
X16907500Y-7512500D02*
X17017500Y-7622500D01*
X17017500Y-7512500D02*
X16907500Y-7622500D01*
X17017500Y-7567500D02*
G75*
G03X17017500Y-7567500I-55000J0D01*
G01*
X16907500Y-7962500D02*
X17017500Y-8072500D01*
X17017500Y-7962500D02*
X16907500Y-8072500D01*
X17017500Y-8017500D02*
G75*
G03X17017500Y-8017500I-55000J0D01*
G01*
X17557500Y-7512500D02*
X17667500Y-7622500D01*
X17667500Y-7512500D02*
X17557500Y-7622500D01*
X17667500Y-7567500D02*
G75*
G03X17667500Y-7567500I-55000J0D01*
G01*
X17557500Y-7962500D02*
X17667500Y-8072500D01*
X17667500Y-7962500D02*
X17557500Y-8072500D01*
X17667500Y-8017500D02*
G75*
G03X17667500Y-8017500I-55000J0D01*
G01*
X13445000Y-7445000D02*
X13555000Y-7555000D01*
X13555000Y-7445000D02*
X13445000Y-7555000D01*
X13555000Y-7500000D02*
G75*
G03X13555000Y-7500000I-55000J0D01*
G01*
X13445000Y-7895000D02*
X13555000Y-8005000D01*
X13555000Y-7895000D02*
X13445000Y-8005000D01*
X13555000Y-7950000D02*
G75*
G03X13555000Y-7950000I-55000J0D01*
G01*
X14095000Y-7445000D02*
X14205000Y-7555000D01*
X14205000Y-7445000D02*
X14095000Y-7555000D01*
X14205000Y-7500000D02*
G75*
G03X14205000Y-7500000I-55000J0D01*
G01*
X14095000Y-7895000D02*
X14205000Y-8005000D01*
X14205000Y-7895000D02*
X14095000Y-8005000D01*
X14205000Y-7950000D02*
G75*
G03X14205000Y-7950000I-55000J0D01*
G01*
X14345000Y-8345000D02*
X14455000Y-8455000D01*
X14455000Y-8345000D02*
X14345000Y-8455000D01*
X14455000Y-8400000D02*
G75*
G03X14455000Y-8400000I-55000J0D01*
G01*
X14345000Y-8795000D02*
X14455000Y-8905000D01*
X14455000Y-8795000D02*
X14345000Y-8905000D01*
X14455000Y-8850000D02*
G75*
G03X14455000Y-8850000I-55000J0D01*
G01*
X14995000Y-8345000D02*
X15105000Y-8455000D01*
X15105000Y-8345000D02*
X14995000Y-8455000D01*
X15105000Y-8400000D02*
G75*
G03X15105000Y-8400000I-55000J0D01*
G01*
X14995000Y-8795000D02*
X15105000Y-8905000D01*
X15105000Y-8795000D02*
X14995000Y-8905000D01*
X15105000Y-8850000D02*
G75*
G03X15105000Y-8850000I-55000J0D01*
G01*
X15245000Y-7445000D02*
X15355000Y-7555000D01*
X15355000Y-7445000D02*
X15245000Y-7555000D01*
X15355000Y-7500000D02*
G75*
G03X15355000Y-7500000I-55000J0D01*
G01*
X15245000Y-7895000D02*
X15355000Y-8005000D01*
X15355000Y-7895000D02*
X15245000Y-8005000D01*
X15355000Y-7950000D02*
G75*
G03X15355000Y-7950000I-55000J0D01*
G01*
X15895000Y-7445000D02*
X16005000Y-7555000D01*
X16005000Y-7445000D02*
X15895000Y-7555000D01*
X16005000Y-7500000D02*
G75*
G03X16005000Y-7500000I-55000J0D01*
G01*
X15895000Y-7895000D02*
X16005000Y-8005000D01*
X16005000Y-7895000D02*
X15895000Y-8005000D01*
X16005000Y-7950000D02*
G75*
G03X16005000Y-7950000I-55000J0D01*
G01*
X14390000Y-2440000D02*
X14710000Y-2760000D01*
X14710000Y-2440000D02*
X14390000Y-2760000D01*
X14550000Y-2440000D02*
X14550000Y-2760000D01*
X14390000Y-2600000D02*
X14710000Y-2600000D01*
X18240000Y-9340000D02*
X18560000Y-9660000D01*
X18560000Y-9340000D02*
X18240000Y-9660000D01*
X18400000Y-9340000D02*
X18400000Y-9660000D01*
X18240000Y-9500000D02*
X18560000Y-9500000D01*
X14390000Y-5340000D02*
X14710000Y-5660000D01*
X14710000Y-5340000D02*
X14390000Y-5660000D01*
X14550000Y-5340000D02*
X14550000Y-5660000D01*
X14390000Y-5500000D02*
X14710000Y-5500000D01*
X13640000Y-9340000D02*
X13960000Y-9660000D01*
X13960000Y-9340000D02*
X13640000Y-9660000D01*
X13800000Y-9340000D02*
X13800000Y-9660000D01*
X13640000Y-9500000D02*
X13960000Y-9500000D01*
X17490000Y-5340000D02*
X17810000Y-5660000D01*
X17810000Y-5340000D02*
X17490000Y-5660000D01*
X17650000Y-5340000D02*
X17650000Y-5660000D01*
X17490000Y-5500000D02*
X17810000Y-5500000D01*
X13640000Y-1940000D02*
X13960000Y-2260000D01*
X13960000Y-1940000D02*
X13640000Y-2260000D01*
X13800000Y-1940000D02*
X13800000Y-2260000D01*
X13640000Y-2100000D02*
X13960000Y-2100000D01*
X17490000Y-2440000D02*
X17810000Y-2760000D01*
X17810000Y-2440000D02*
X17490000Y-2760000D01*
X17650000Y-2440000D02*
X17650000Y-2760000D01*
X17490000Y-2600000D02*
X17810000Y-2600000D01*
X18240000Y-1940000D02*
X18560000Y-2260000D01*
X18560000Y-1940000D02*
X18240000Y-2260000D01*
X18400000Y-1940000D02*
X18400000Y-2260000D01*
X18240000Y-2100000D02*
X18560000Y-2100000D01*
D12*
X13578928Y-10473214D02*
X13578928Y-10173214D01*
X13650357Y-10173214D01*
X13693214Y-10187500D01*
X13721786Y-10216072D01*
X13736071Y-10244643D01*
X13750357Y-10301786D01*
X13750357Y-10344643D01*
X13736071Y-10401786D01*
X13721786Y-10430357D01*
X13693214Y-10458929D01*
X13650357Y-10473214D01*
X13578928Y-10473214D01*
X13878928Y-10473214D02*
X13878928Y-10273214D01*
X13878928Y-10330357D02*
X13893214Y-10301786D01*
X13907500Y-10287500D01*
X13936071Y-10273214D01*
X13964643Y-10273214D01*
X14064643Y-10473214D02*
X14064643Y-10273214D01*
X14064643Y-10173214D02*
X14050357Y-10187500D01*
X14064643Y-10201786D01*
X14078928Y-10187500D01*
X14064643Y-10173214D01*
X14064643Y-10201786D01*
X14250357Y-10473214D02*
X14221786Y-10458929D01*
X14207500Y-10430357D01*
X14207500Y-10173214D01*
X14407500Y-10473214D02*
X14378928Y-10458929D01*
X14364643Y-10430357D01*
X14364643Y-10173214D01*
X14750357Y-10473214D02*
X14750357Y-10173214D01*
X14850357Y-10387500D01*
X14950357Y-10173214D01*
X14950357Y-10473214D01*
X15221786Y-10473214D02*
X15221786Y-10316072D01*
X15207500Y-10287500D01*
X15178928Y-10273214D01*
X15121786Y-10273214D01*
X15093214Y-10287500D01*
X15221786Y-10458929D02*
X15193214Y-10473214D01*
X15121786Y-10473214D01*
X15093214Y-10458929D01*
X15078928Y-10430357D01*
X15078928Y-10401786D01*
X15093214Y-10373214D01*
X15121786Y-10358929D01*
X15193214Y-10358929D01*
X15221786Y-10344643D01*
X15364643Y-10273214D02*
X15364643Y-10573214D01*
X15364643Y-10287500D02*
X15393214Y-10273214D01*
X15450357Y-10273214D01*
X15478928Y-10287500D01*
X15493214Y-10301786D01*
X15507500Y-10330357D01*
X15507500Y-10416072D01*
X15493214Y-10444643D01*
X15478928Y-10458929D01*
X15450357Y-10473214D01*
X15393214Y-10473214D01*
X15364643Y-10458929D01*
X15636071Y-10444643D02*
X15650357Y-10458929D01*
X15636071Y-10473214D01*
X15621786Y-10458929D01*
X15636071Y-10444643D01*
X15636071Y-10473214D01*
X15636071Y-10287500D02*
X15650357Y-10301786D01*
X15636071Y-10316072D01*
X15621786Y-10301786D01*
X15636071Y-10287500D01*
X15636071Y-10316072D01*
X13252500Y-10947500D02*
X13292500Y-10987500D01*
X13292500Y-10947500D02*
X13252500Y-10987500D01*
X13636071Y-10803214D02*
X13664643Y-10803214D01*
X13693214Y-10817500D01*
X13707500Y-10831786D01*
X13721786Y-10860357D01*
X13736071Y-10917500D01*
X13736071Y-10988929D01*
X13721786Y-11046072D01*
X13707500Y-11074643D01*
X13693214Y-11088929D01*
X13664643Y-11103214D01*
X13636071Y-11103214D01*
X13607500Y-11088929D01*
X13593214Y-11074643D01*
X13578928Y-11046072D01*
X13564643Y-10988929D01*
X13564643Y-10917500D01*
X13578928Y-10860357D01*
X13593214Y-10831786D01*
X13607500Y-10817500D01*
X13636071Y-10803214D01*
X13864643Y-11074643D02*
X13878928Y-11088929D01*
X13864643Y-11103214D01*
X13850357Y-11088929D01*
X13864643Y-11074643D01*
X13864643Y-11103214D01*
X14136071Y-10903214D02*
X14136071Y-11103214D01*
X14064643Y-10788929D02*
X13993214Y-11003214D01*
X14178928Y-11003214D01*
X14350357Y-10803214D02*
X14378928Y-10803214D01*
X14407500Y-10817500D01*
X14421786Y-10831786D01*
X14436071Y-10860357D01*
X14450357Y-10917500D01*
X14450357Y-10988929D01*
X14436071Y-11046072D01*
X14421786Y-11074643D01*
X14407500Y-11088929D01*
X14378928Y-11103214D01*
X14350357Y-11103214D01*
X14321786Y-11088929D01*
X14307500Y-11074643D01*
X14293214Y-11046072D01*
X14278928Y-10988929D01*
X14278928Y-10917500D01*
X14293214Y-10860357D01*
X14307500Y-10831786D01*
X14321786Y-10817500D01*
X14350357Y-10803214D01*
X14578928Y-11103214D02*
X14578928Y-10903214D01*
X14578928Y-10931786D02*
X14593214Y-10917500D01*
X14621786Y-10903214D01*
X14664643Y-10903214D01*
X14693214Y-10917500D01*
X14707500Y-10946072D01*
X14707500Y-11103214D01*
X14707500Y-10946072D02*
X14721786Y-10917500D01*
X14750357Y-10903214D01*
X14793214Y-10903214D01*
X14821786Y-10917500D01*
X14836071Y-10946072D01*
X14836071Y-11103214D01*
X14978928Y-11103214D02*
X14978928Y-10903214D01*
X14978928Y-10931786D02*
X14993214Y-10917500D01*
X15021786Y-10903214D01*
X15064643Y-10903214D01*
X15093214Y-10917500D01*
X15107500Y-10946072D01*
X15107500Y-11103214D01*
X15107500Y-10946072D02*
X15121786Y-10917500D01*
X15150357Y-10903214D01*
X15193214Y-10903214D01*
X15221786Y-10917500D01*
X15236071Y-10946072D01*
X15236071Y-11103214D01*
X15821786Y-10788929D02*
X15564643Y-11174643D01*
X16207500Y-10803214D02*
X16236071Y-10803214D01*
X16264643Y-10817500D01*
X16278928Y-10831786D01*
X16293214Y-10860357D01*
X16307500Y-10917500D01*
X16307500Y-10988929D01*
X16293214Y-11046072D01*
X16278928Y-11074643D01*
X16264643Y-11088929D01*
X16236071Y-11103214D01*
X16207500Y-11103214D01*
X16178928Y-11088929D01*
X16164643Y-11074643D01*
X16150357Y-11046072D01*
X16136071Y-10988929D01*
X16136071Y-10917500D01*
X16150357Y-10860357D01*
X16164643Y-10831786D01*
X16178928Y-10817500D01*
X16207500Y-10803214D01*
X16436071Y-11074643D02*
X16450357Y-11088929D01*
X16436071Y-11103214D01*
X16421786Y-11088929D01*
X16436071Y-11074643D01*
X16436071Y-11103214D01*
X16636071Y-10803214D02*
X16664643Y-10803214D01*
X16693214Y-10817500D01*
X16707500Y-10831786D01*
X16721786Y-10860357D01*
X16736071Y-10917500D01*
X16736071Y-10988929D01*
X16721786Y-11046072D01*
X16707500Y-11074643D01*
X16693214Y-11088929D01*
X16664643Y-11103214D01*
X16636071Y-11103214D01*
X16607500Y-11088929D01*
X16593214Y-11074643D01*
X16578928Y-11046072D01*
X16564643Y-10988929D01*
X16564643Y-10917500D01*
X16578928Y-10860357D01*
X16593214Y-10831786D01*
X16607500Y-10817500D01*
X16636071Y-10803214D01*
X17021786Y-11103214D02*
X16850357Y-11103214D01*
X16936071Y-11103214D02*
X16936071Y-10803214D01*
X16907500Y-10846072D01*
X16878928Y-10874643D01*
X16850357Y-10888929D01*
X17278928Y-10803214D02*
X17221786Y-10803214D01*
X17193214Y-10817500D01*
X17178928Y-10831786D01*
X17150357Y-10874643D01*
X17136071Y-10931786D01*
X17136071Y-11046072D01*
X17150357Y-11074643D01*
X17164643Y-11088929D01*
X17193214Y-11103214D01*
X17250357Y-11103214D01*
X17278928Y-11088929D01*
X17293214Y-11074643D01*
X17307500Y-11046072D01*
X17307500Y-10974643D01*
X17293214Y-10946072D01*
X17278928Y-10931786D01*
X17250357Y-10917500D01*
X17193214Y-10917500D01*
X17164643Y-10931786D01*
X17150357Y-10946072D01*
X17136071Y-10974643D01*
X17421786Y-10803214D02*
X17421786Y-10860357D01*
X17536071Y-10803214D02*
X17536071Y-10860357D01*
X17978928Y-11217500D02*
X17964643Y-11203214D01*
X17936071Y-11160357D01*
X17921786Y-11131786D01*
X17907500Y-11088929D01*
X17893214Y-11017500D01*
X17893214Y-10960357D01*
X17907500Y-10888929D01*
X17921786Y-10846072D01*
X17936071Y-10817500D01*
X17964643Y-10774643D01*
X17978928Y-10760357D01*
X18064643Y-10803214D02*
X18250357Y-10803214D01*
X18150357Y-10917500D01*
X18193214Y-10917500D01*
X18221786Y-10931786D01*
X18236071Y-10946072D01*
X18250357Y-10974643D01*
X18250357Y-11046072D01*
X18236071Y-11074643D01*
X18221786Y-11088929D01*
X18193214Y-11103214D01*
X18107500Y-11103214D01*
X18078928Y-11088929D01*
X18064643Y-11074643D01*
X18350357Y-10803214D02*
X18536071Y-10803214D01*
X18436071Y-10917500D01*
X18478928Y-10917500D01*
X18507500Y-10931786D01*
X18521786Y-10946072D01*
X18536071Y-10974643D01*
X18536071Y-11046072D01*
X18521786Y-11074643D01*
X18507500Y-11088929D01*
X18478928Y-11103214D01*
X18393214Y-11103214D01*
X18364643Y-11088929D01*
X18350357Y-11074643D01*
X18893214Y-11103214D02*
X18893214Y-10803214D01*
X19021786Y-11103214D02*
X19021786Y-10946072D01*
X19007500Y-10917500D01*
X18978928Y-10903214D01*
X18936071Y-10903214D01*
X18907500Y-10917500D01*
X18893214Y-10931786D01*
X19207500Y-11103214D02*
X19178928Y-11088929D01*
X19164643Y-11074643D01*
X19150357Y-11046072D01*
X19150357Y-10960357D01*
X19164643Y-10931786D01*
X19178928Y-10917500D01*
X19207500Y-10903214D01*
X19250357Y-10903214D01*
X19278928Y-10917500D01*
X19293214Y-10931786D01*
X19307500Y-10960357D01*
X19307500Y-11046072D01*
X19293214Y-11074643D01*
X19278928Y-11088929D01*
X19250357Y-11103214D01*
X19207500Y-11103214D01*
X19478928Y-11103214D02*
X19450357Y-11088929D01*
X19436071Y-11060357D01*
X19436071Y-10803214D01*
X19707500Y-11088929D02*
X19678928Y-11103214D01*
X19621786Y-11103214D01*
X19593214Y-11088929D01*
X19578928Y-11060357D01*
X19578928Y-10946072D01*
X19593214Y-10917500D01*
X19621786Y-10903214D01*
X19678928Y-10903214D01*
X19707500Y-10917500D01*
X19721786Y-10946072D01*
X19721786Y-10974643D01*
X19578928Y-11003214D01*
X19836071Y-11088929D02*
X19864643Y-11103214D01*
X19921786Y-11103214D01*
X19950357Y-11088929D01*
X19964643Y-11060357D01*
X19964643Y-11046072D01*
X19950357Y-11017500D01*
X19921786Y-11003214D01*
X19878928Y-11003214D01*
X19850357Y-10988929D01*
X19836071Y-10960357D01*
X19836071Y-10946072D01*
X19850357Y-10917500D01*
X19878928Y-10903214D01*
X19921786Y-10903214D01*
X19950357Y-10917500D01*
X20064643Y-11217500D02*
X20078928Y-11203214D01*
X20107500Y-11160357D01*
X20121786Y-11131786D01*
X20136071Y-11088929D01*
X20150357Y-11017500D01*
X20150357Y-10960357D01*
X20136071Y-10888929D01*
X20121786Y-10846072D01*
X20107500Y-10817500D01*
X20078928Y-10774643D01*
X20064643Y-10760357D01*
X13292500Y-11363500D02*
G75*
G03X13292500Y-11363500I-25000J0D01*
G01*
X13636071Y-11199214D02*
X13664643Y-11199214D01*
X13693214Y-11213500D01*
X13707500Y-11227786D01*
X13721786Y-11256357D01*
X13736071Y-11313500D01*
X13736071Y-11384929D01*
X13721786Y-11442071D01*
X13707500Y-11470643D01*
X13693214Y-11484929D01*
X13664643Y-11499214D01*
X13636071Y-11499214D01*
X13607500Y-11484929D01*
X13593214Y-11470643D01*
X13578928Y-11442071D01*
X13564643Y-11384929D01*
X13564643Y-11313500D01*
X13578928Y-11256357D01*
X13593214Y-11227786D01*
X13607500Y-11213500D01*
X13636071Y-11199214D01*
X13864643Y-11470643D02*
X13878928Y-11484929D01*
X13864643Y-11499214D01*
X13850357Y-11484929D01*
X13864643Y-11470643D01*
X13864643Y-11499214D01*
X14150357Y-11199214D02*
X14007500Y-11199214D01*
X13993214Y-11342071D01*
X14007500Y-11327786D01*
X14036071Y-11313500D01*
X14107500Y-11313500D01*
X14136071Y-11327786D01*
X14150357Y-11342071D01*
X14164643Y-11370643D01*
X14164643Y-11442071D01*
X14150357Y-11470643D01*
X14136071Y-11484929D01*
X14107500Y-11499214D01*
X14036071Y-11499214D01*
X14007500Y-11484929D01*
X13993214Y-11470643D01*
X14350357Y-11199214D02*
X14378928Y-11199214D01*
X14407500Y-11213500D01*
X14421786Y-11227786D01*
X14436071Y-11256357D01*
X14450357Y-11313500D01*
X14450357Y-11384929D01*
X14436071Y-11442071D01*
X14421786Y-11470643D01*
X14407500Y-11484929D01*
X14378928Y-11499214D01*
X14350357Y-11499214D01*
X14321786Y-11484929D01*
X14307500Y-11470643D01*
X14293214Y-11442071D01*
X14278928Y-11384929D01*
X14278928Y-11313500D01*
X14293214Y-11256357D01*
X14307500Y-11227786D01*
X14321786Y-11213500D01*
X14350357Y-11199214D01*
X14578928Y-11499214D02*
X14578928Y-11299214D01*
X14578928Y-11327786D02*
X14593214Y-11313500D01*
X14621786Y-11299214D01*
X14664643Y-11299214D01*
X14693214Y-11313500D01*
X14707500Y-11342071D01*
X14707500Y-11499214D01*
X14707500Y-11342071D02*
X14721786Y-11313500D01*
X14750357Y-11299214D01*
X14793214Y-11299214D01*
X14821786Y-11313500D01*
X14836071Y-11342071D01*
X14836071Y-11499214D01*
X14978928Y-11499214D02*
X14978928Y-11299214D01*
X14978928Y-11327786D02*
X14993214Y-11313500D01*
X15021786Y-11299214D01*
X15064643Y-11299214D01*
X15093214Y-11313500D01*
X15107500Y-11342071D01*
X15107500Y-11499214D01*
X15107500Y-11342071D02*
X15121786Y-11313500D01*
X15150357Y-11299214D01*
X15193214Y-11299214D01*
X15221786Y-11313500D01*
X15236071Y-11342071D01*
X15236071Y-11499214D01*
X15821786Y-11184929D02*
X15564643Y-11570643D01*
X16207500Y-11199214D02*
X16236071Y-11199214D01*
X16264643Y-11213500D01*
X16278928Y-11227786D01*
X16293214Y-11256357D01*
X16307500Y-11313500D01*
X16307500Y-11384929D01*
X16293214Y-11442071D01*
X16278928Y-11470643D01*
X16264643Y-11484929D01*
X16236071Y-11499214D01*
X16207500Y-11499214D01*
X16178928Y-11484929D01*
X16164643Y-11470643D01*
X16150357Y-11442071D01*
X16136071Y-11384929D01*
X16136071Y-11313500D01*
X16150357Y-11256357D01*
X16164643Y-11227786D01*
X16178928Y-11213500D01*
X16207500Y-11199214D01*
X16436071Y-11470643D02*
X16450357Y-11484929D01*
X16436071Y-11499214D01*
X16421786Y-11484929D01*
X16436071Y-11470643D01*
X16436071Y-11499214D01*
X16636071Y-11199214D02*
X16664643Y-11199214D01*
X16693214Y-11213500D01*
X16707500Y-11227786D01*
X16721786Y-11256357D01*
X16736071Y-11313500D01*
X16736071Y-11384929D01*
X16721786Y-11442071D01*
X16707500Y-11470643D01*
X16693214Y-11484929D01*
X16664643Y-11499214D01*
X16636071Y-11499214D01*
X16607500Y-11484929D01*
X16593214Y-11470643D01*
X16578928Y-11442071D01*
X16564643Y-11384929D01*
X16564643Y-11313500D01*
X16578928Y-11256357D01*
X16593214Y-11227786D01*
X16607500Y-11213500D01*
X16636071Y-11199214D01*
X16850357Y-11227786D02*
X16864643Y-11213500D01*
X16893214Y-11199214D01*
X16964643Y-11199214D01*
X16993214Y-11213500D01*
X17007500Y-11227786D01*
X17021786Y-11256357D01*
X17021786Y-11284929D01*
X17007500Y-11327786D01*
X16836071Y-11499214D01*
X17021786Y-11499214D01*
X17207500Y-11199214D02*
X17236071Y-11199214D01*
X17264643Y-11213500D01*
X17278928Y-11227786D01*
X17293214Y-11256357D01*
X17307500Y-11313500D01*
X17307500Y-11384929D01*
X17293214Y-11442071D01*
X17278928Y-11470643D01*
X17264643Y-11484929D01*
X17236071Y-11499214D01*
X17207500Y-11499214D01*
X17178928Y-11484929D01*
X17164643Y-11470643D01*
X17150357Y-11442071D01*
X17136071Y-11384929D01*
X17136071Y-11313500D01*
X17150357Y-11256357D01*
X17164643Y-11227786D01*
X17178928Y-11213500D01*
X17207500Y-11199214D01*
X17421786Y-11199214D02*
X17421786Y-11256357D01*
X17536071Y-11199214D02*
X17536071Y-11256357D01*
X17978928Y-11613500D02*
X17964643Y-11599214D01*
X17936071Y-11556357D01*
X17921786Y-11527786D01*
X17907500Y-11484929D01*
X17893214Y-11413500D01*
X17893214Y-11356357D01*
X17907500Y-11284929D01*
X17921786Y-11242071D01*
X17936071Y-11213500D01*
X17964643Y-11170643D01*
X17978928Y-11156357D01*
X18221786Y-11199214D02*
X18164643Y-11199214D01*
X18136071Y-11213500D01*
X18121786Y-11227786D01*
X18093214Y-11270643D01*
X18078928Y-11327786D01*
X18078928Y-11442071D01*
X18093214Y-11470643D01*
X18107500Y-11484929D01*
X18136071Y-11499214D01*
X18193214Y-11499214D01*
X18221786Y-11484929D01*
X18236071Y-11470643D01*
X18250357Y-11442071D01*
X18250357Y-11370643D01*
X18236071Y-11342071D01*
X18221786Y-11327786D01*
X18193214Y-11313500D01*
X18136071Y-11313500D01*
X18107500Y-11327786D01*
X18093214Y-11342071D01*
X18078928Y-11370643D01*
X18507500Y-11299214D02*
X18507500Y-11499214D01*
X18436071Y-11184929D02*
X18364643Y-11399214D01*
X18550357Y-11399214D01*
X18893214Y-11499214D02*
X18893214Y-11199214D01*
X19021786Y-11499214D02*
X19021786Y-11342071D01*
X19007500Y-11313500D01*
X18978928Y-11299214D01*
X18936071Y-11299214D01*
X18907500Y-11313500D01*
X18893214Y-11327786D01*
X19207500Y-11499214D02*
X19178928Y-11484929D01*
X19164643Y-11470643D01*
X19150357Y-11442071D01*
X19150357Y-11356357D01*
X19164643Y-11327786D01*
X19178928Y-11313500D01*
X19207500Y-11299214D01*
X19250357Y-11299214D01*
X19278928Y-11313500D01*
X19293214Y-11327786D01*
X19307500Y-11356357D01*
X19307500Y-11442071D01*
X19293214Y-11470643D01*
X19278928Y-11484929D01*
X19250357Y-11499214D01*
X19207500Y-11499214D01*
X19478928Y-11499214D02*
X19450357Y-11484929D01*
X19436071Y-11456357D01*
X19436071Y-11199214D01*
X19707500Y-11484929D02*
X19678928Y-11499214D01*
X19621786Y-11499214D01*
X19593214Y-11484929D01*
X19578928Y-11456357D01*
X19578928Y-11342071D01*
X19593214Y-11313500D01*
X19621786Y-11299214D01*
X19678928Y-11299214D01*
X19707500Y-11313500D01*
X19721786Y-11342071D01*
X19721786Y-11370643D01*
X19578928Y-11399214D01*
X19836071Y-11484929D02*
X19864643Y-11499214D01*
X19921786Y-11499214D01*
X19950357Y-11484929D01*
X19964643Y-11456357D01*
X19964643Y-11442071D01*
X19950357Y-11413500D01*
X19921786Y-11399214D01*
X19878928Y-11399214D01*
X19850357Y-11384929D01*
X19836071Y-11356357D01*
X19836071Y-11342071D01*
X19850357Y-11313500D01*
X19878928Y-11299214D01*
X19921786Y-11299214D01*
X19950357Y-11313500D01*
X20064643Y-11613500D02*
X20078928Y-11599214D01*
X20107500Y-11556357D01*
X20121786Y-11527786D01*
X20136071Y-11484929D01*
X20150357Y-11413500D01*
X20150357Y-11356357D01*
X20136071Y-11284929D01*
X20121786Y-11242071D01*
X20107500Y-11213500D01*
X20078928Y-11170643D01*
X20064643Y-11156357D01*
X13254400Y-11721400D02*
X13254400Y-11797600D01*
X13216300Y-11759500D02*
X13292500Y-11759500D01*
X13636071Y-11595214D02*
X13664643Y-11595214D01*
X13693214Y-11609500D01*
X13707500Y-11623786D01*
X13721786Y-11652357D01*
X13736071Y-11709500D01*
X13736071Y-11780929D01*
X13721786Y-11838071D01*
X13707500Y-11866643D01*
X13693214Y-11880929D01*
X13664643Y-11895214D01*
X13636071Y-11895214D01*
X13607500Y-11880929D01*
X13593214Y-11866643D01*
X13578928Y-11838071D01*
X13564643Y-11780929D01*
X13564643Y-11709500D01*
X13578928Y-11652357D01*
X13593214Y-11623786D01*
X13607500Y-11609500D01*
X13636071Y-11595214D01*
X13864643Y-11866643D02*
X13878928Y-11880929D01*
X13864643Y-11895214D01*
X13850357Y-11880929D01*
X13864643Y-11866643D01*
X13864643Y-11895214D01*
X13978928Y-11595214D02*
X14178928Y-11595214D01*
X14050357Y-11895214D01*
X14421786Y-11595214D02*
X14364643Y-11595214D01*
X14336071Y-11609500D01*
X14321786Y-11623786D01*
X14293214Y-11666643D01*
X14278928Y-11723786D01*
X14278928Y-11838071D01*
X14293214Y-11866643D01*
X14307500Y-11880929D01*
X14336071Y-11895214D01*
X14393214Y-11895214D01*
X14421786Y-11880929D01*
X14436071Y-11866643D01*
X14450357Y-11838071D01*
X14450357Y-11766643D01*
X14436071Y-11738071D01*
X14421786Y-11723786D01*
X14393214Y-11709500D01*
X14336071Y-11709500D01*
X14307500Y-11723786D01*
X14293214Y-11738071D01*
X14278928Y-11766643D01*
X14578928Y-11895214D02*
X14578928Y-11695214D01*
X14578928Y-11723786D02*
X14593214Y-11709500D01*
X14621786Y-11695214D01*
X14664643Y-11695214D01*
X14693214Y-11709500D01*
X14707500Y-11738071D01*
X14707500Y-11895214D01*
X14707500Y-11738071D02*
X14721786Y-11709500D01*
X14750357Y-11695214D01*
X14793214Y-11695214D01*
X14821786Y-11709500D01*
X14836071Y-11738071D01*
X14836071Y-11895214D01*
X14978928Y-11895214D02*
X14978928Y-11695214D01*
X14978928Y-11723786D02*
X14993214Y-11709500D01*
X15021786Y-11695214D01*
X15064643Y-11695214D01*
X15093214Y-11709500D01*
X15107500Y-11738071D01*
X15107500Y-11895214D01*
X15107500Y-11738071D02*
X15121786Y-11709500D01*
X15150357Y-11695214D01*
X15193214Y-11695214D01*
X15221786Y-11709500D01*
X15236071Y-11738071D01*
X15236071Y-11895214D01*
X15821786Y-11580929D02*
X15564643Y-11966643D01*
X16207500Y-11595214D02*
X16236071Y-11595214D01*
X16264643Y-11609500D01*
X16278928Y-11623786D01*
X16293214Y-11652357D01*
X16307500Y-11709500D01*
X16307500Y-11780929D01*
X16293214Y-11838071D01*
X16278928Y-11866643D01*
X16264643Y-11880929D01*
X16236071Y-11895214D01*
X16207500Y-11895214D01*
X16178928Y-11880929D01*
X16164643Y-11866643D01*
X16150357Y-11838071D01*
X16136071Y-11780929D01*
X16136071Y-11709500D01*
X16150357Y-11652357D01*
X16164643Y-11623786D01*
X16178928Y-11609500D01*
X16207500Y-11595214D01*
X16436071Y-11866643D02*
X16450357Y-11880929D01*
X16436071Y-11895214D01*
X16421786Y-11880929D01*
X16436071Y-11866643D01*
X16436071Y-11895214D01*
X16636071Y-11595214D02*
X16664643Y-11595214D01*
X16693214Y-11609500D01*
X16707500Y-11623786D01*
X16721786Y-11652357D01*
X16736071Y-11709500D01*
X16736071Y-11780929D01*
X16721786Y-11838071D01*
X16707500Y-11866643D01*
X16693214Y-11880929D01*
X16664643Y-11895214D01*
X16636071Y-11895214D01*
X16607500Y-11880929D01*
X16593214Y-11866643D01*
X16578928Y-11838071D01*
X16564643Y-11780929D01*
X16564643Y-11709500D01*
X16578928Y-11652357D01*
X16593214Y-11623786D01*
X16607500Y-11609500D01*
X16636071Y-11595214D01*
X16836071Y-11595214D02*
X17021786Y-11595214D01*
X16921786Y-11709500D01*
X16964643Y-11709500D01*
X16993214Y-11723786D01*
X17007500Y-11738071D01*
X17021786Y-11766643D01*
X17021786Y-11838071D01*
X17007500Y-11866643D01*
X16993214Y-11880929D01*
X16964643Y-11895214D01*
X16878928Y-11895214D01*
X16850357Y-11880929D01*
X16836071Y-11866643D01*
X17207500Y-11595214D02*
X17236071Y-11595214D01*
X17264643Y-11609500D01*
X17278928Y-11623786D01*
X17293214Y-11652357D01*
X17307500Y-11709500D01*
X17307500Y-11780929D01*
X17293214Y-11838071D01*
X17278928Y-11866643D01*
X17264643Y-11880929D01*
X17236071Y-11895214D01*
X17207500Y-11895214D01*
X17178928Y-11880929D01*
X17164643Y-11866643D01*
X17150357Y-11838071D01*
X17136071Y-11780929D01*
X17136071Y-11709500D01*
X17150357Y-11652357D01*
X17164643Y-11623786D01*
X17178928Y-11609500D01*
X17207500Y-11595214D01*
X17421786Y-11595214D02*
X17421786Y-11652357D01*
X17536071Y-11595214D02*
X17536071Y-11652357D01*
X17978928Y-12009500D02*
X17964643Y-11995214D01*
X17936071Y-11952357D01*
X17921786Y-11923786D01*
X17907500Y-11880929D01*
X17893214Y-11809500D01*
X17893214Y-11752357D01*
X17907500Y-11680929D01*
X17921786Y-11638071D01*
X17936071Y-11609500D01*
X17964643Y-11566643D01*
X17978928Y-11552357D01*
X18064643Y-11595214D02*
X18264643Y-11595214D01*
X18136071Y-11895214D01*
X18607500Y-11895214D02*
X18607500Y-11595214D01*
X18736071Y-11895214D02*
X18736071Y-11738071D01*
X18721786Y-11709500D01*
X18693214Y-11695214D01*
X18650357Y-11695214D01*
X18621786Y-11709500D01*
X18607500Y-11723786D01*
X18921786Y-11895214D02*
X18893214Y-11880929D01*
X18878928Y-11866643D01*
X18864643Y-11838071D01*
X18864643Y-11752357D01*
X18878928Y-11723786D01*
X18893214Y-11709500D01*
X18921786Y-11695214D01*
X18964643Y-11695214D01*
X18993214Y-11709500D01*
X19007500Y-11723786D01*
X19021786Y-11752357D01*
X19021786Y-11838071D01*
X19007500Y-11866643D01*
X18993214Y-11880929D01*
X18964643Y-11895214D01*
X18921786Y-11895214D01*
X19193214Y-11895214D02*
X19164643Y-11880929D01*
X19150357Y-11852357D01*
X19150357Y-11595214D01*
X19421786Y-11880929D02*
X19393214Y-11895214D01*
X19336071Y-11895214D01*
X19307500Y-11880929D01*
X19293214Y-11852357D01*
X19293214Y-11738071D01*
X19307500Y-11709500D01*
X19336071Y-11695214D01*
X19393214Y-11695214D01*
X19421786Y-11709500D01*
X19436071Y-11738071D01*
X19436071Y-11766643D01*
X19293214Y-11795214D01*
X19550357Y-11880929D02*
X19578928Y-11895214D01*
X19636071Y-11895214D01*
X19664643Y-11880929D01*
X19678928Y-11852357D01*
X19678928Y-11838071D01*
X19664643Y-11809500D01*
X19636071Y-11795214D01*
X19593214Y-11795214D01*
X19564643Y-11780929D01*
X19550357Y-11752357D01*
X19550357Y-11738071D01*
X19564643Y-11709500D01*
X19593214Y-11695214D01*
X19636071Y-11695214D01*
X19664643Y-11709500D01*
X19778928Y-12009500D02*
X19793214Y-11995214D01*
X19821786Y-11952357D01*
X19836071Y-11923786D01*
X19850357Y-11880929D01*
X19864643Y-11809500D01*
X19864643Y-11752357D01*
X19850357Y-11680929D01*
X19836071Y-11638071D01*
X19821786Y-11609500D01*
X19793214Y-11566643D01*
X19778928Y-11552357D01*
X13280784Y-12183785D02*
X13280784Y-12127216D01*
X13224215Y-12127216D01*
X13224215Y-12183785D01*
X13280784Y-12183785D01*
X13636071Y-11991214D02*
X13664643Y-11991214D01*
X13693214Y-12005500D01*
X13707500Y-12019786D01*
X13721786Y-12048357D01*
X13736071Y-12105500D01*
X13736071Y-12176929D01*
X13721786Y-12234071D01*
X13707500Y-12262643D01*
X13693214Y-12276929D01*
X13664643Y-12291214D01*
X13636071Y-12291214D01*
X13607500Y-12276929D01*
X13593214Y-12262643D01*
X13578928Y-12234071D01*
X13564643Y-12176929D01*
X13564643Y-12105500D01*
X13578928Y-12048357D01*
X13593214Y-12019786D01*
X13607500Y-12005500D01*
X13636071Y-11991214D01*
X13864643Y-12262643D02*
X13878928Y-12276929D01*
X13864643Y-12291214D01*
X13850357Y-12276929D01*
X13864643Y-12262643D01*
X13864643Y-12291214D01*
X14050357Y-12119786D02*
X14021786Y-12105500D01*
X14007500Y-12091214D01*
X13993214Y-12062643D01*
X13993214Y-12048357D01*
X14007500Y-12019786D01*
X14021786Y-12005500D01*
X14050357Y-11991214D01*
X14107500Y-11991214D01*
X14136071Y-12005500D01*
X14150357Y-12019786D01*
X14164643Y-12048357D01*
X14164643Y-12062643D01*
X14150357Y-12091214D01*
X14136071Y-12105500D01*
X14107500Y-12119786D01*
X14050357Y-12119786D01*
X14021786Y-12134071D01*
X14007500Y-12148357D01*
X13993214Y-12176929D01*
X13993214Y-12234071D01*
X14007500Y-12262643D01*
X14021786Y-12276929D01*
X14050357Y-12291214D01*
X14107500Y-12291214D01*
X14136071Y-12276929D01*
X14150357Y-12262643D01*
X14164643Y-12234071D01*
X14164643Y-12176929D01*
X14150357Y-12148357D01*
X14136071Y-12134071D01*
X14107500Y-12119786D01*
X14350357Y-11991214D02*
X14378928Y-11991214D01*
X14407500Y-12005500D01*
X14421786Y-12019786D01*
X14436071Y-12048357D01*
X14450357Y-12105500D01*
X14450357Y-12176929D01*
X14436071Y-12234071D01*
X14421786Y-12262643D01*
X14407500Y-12276929D01*
X14378928Y-12291214D01*
X14350357Y-12291214D01*
X14321786Y-12276929D01*
X14307500Y-12262643D01*
X14293214Y-12234071D01*
X14278928Y-12176929D01*
X14278928Y-12105500D01*
X14293214Y-12048357D01*
X14307500Y-12019786D01*
X14321786Y-12005500D01*
X14350357Y-11991214D01*
X14578928Y-12291214D02*
X14578928Y-12091214D01*
X14578928Y-12119786D02*
X14593214Y-12105500D01*
X14621786Y-12091214D01*
X14664643Y-12091214D01*
X14693214Y-12105500D01*
X14707500Y-12134071D01*
X14707500Y-12291214D01*
X14707500Y-12134071D02*
X14721786Y-12105500D01*
X14750357Y-12091214D01*
X14793214Y-12091214D01*
X14821786Y-12105500D01*
X14836071Y-12134071D01*
X14836071Y-12291214D01*
X14978928Y-12291214D02*
X14978928Y-12091214D01*
X14978928Y-12119786D02*
X14993214Y-12105500D01*
X15021786Y-12091214D01*
X15064643Y-12091214D01*
X15093214Y-12105500D01*
X15107500Y-12134071D01*
X15107500Y-12291214D01*
X15107500Y-12134071D02*
X15121786Y-12105500D01*
X15150357Y-12091214D01*
X15193214Y-12091214D01*
X15221786Y-12105500D01*
X15236071Y-12134071D01*
X15236071Y-12291214D01*
X15821786Y-11976929D02*
X15564643Y-12362643D01*
X16207500Y-11991214D02*
X16236071Y-11991214D01*
X16264643Y-12005500D01*
X16278928Y-12019786D01*
X16293214Y-12048357D01*
X16307500Y-12105500D01*
X16307500Y-12176929D01*
X16293214Y-12234071D01*
X16278928Y-12262643D01*
X16264643Y-12276929D01*
X16236071Y-12291214D01*
X16207500Y-12291214D01*
X16178928Y-12276929D01*
X16164643Y-12262643D01*
X16150357Y-12234071D01*
X16136071Y-12176929D01*
X16136071Y-12105500D01*
X16150357Y-12048357D01*
X16164643Y-12019786D01*
X16178928Y-12005500D01*
X16207500Y-11991214D01*
X16436071Y-12262643D02*
X16450357Y-12276929D01*
X16436071Y-12291214D01*
X16421786Y-12276929D01*
X16436071Y-12262643D01*
X16436071Y-12291214D01*
X16636071Y-11991214D02*
X16664643Y-11991214D01*
X16693214Y-12005500D01*
X16707500Y-12019786D01*
X16721786Y-12048357D01*
X16736071Y-12105500D01*
X16736071Y-12176929D01*
X16721786Y-12234071D01*
X16707500Y-12262643D01*
X16693214Y-12276929D01*
X16664643Y-12291214D01*
X16636071Y-12291214D01*
X16607500Y-12276929D01*
X16593214Y-12262643D01*
X16578928Y-12234071D01*
X16564643Y-12176929D01*
X16564643Y-12105500D01*
X16578928Y-12048357D01*
X16593214Y-12019786D01*
X16607500Y-12005500D01*
X16636071Y-11991214D01*
X16836071Y-11991214D02*
X17021786Y-11991214D01*
X16921786Y-12105500D01*
X16964643Y-12105500D01*
X16993214Y-12119786D01*
X17007500Y-12134071D01*
X17021786Y-12162643D01*
X17021786Y-12234071D01*
X17007500Y-12262643D01*
X16993214Y-12276929D01*
X16964643Y-12291214D01*
X16878928Y-12291214D01*
X16850357Y-12276929D01*
X16836071Y-12262643D01*
X17307500Y-12291214D02*
X17136071Y-12291214D01*
X17221786Y-12291214D02*
X17221786Y-11991214D01*
X17193214Y-12034071D01*
X17164643Y-12062643D01*
X17136071Y-12076929D01*
X17421786Y-11991214D02*
X17421786Y-12048357D01*
X17536071Y-11991214D02*
X17536071Y-12048357D01*
X17978928Y-12405500D02*
X17964643Y-12391214D01*
X17936071Y-12348357D01*
X17921786Y-12319786D01*
X17907500Y-12276929D01*
X17893214Y-12205500D01*
X17893214Y-12148357D01*
X17907500Y-12076929D01*
X17921786Y-12034071D01*
X17936071Y-12005500D01*
X17964643Y-11962643D01*
X17978928Y-11948357D01*
X18250357Y-12291214D02*
X18078928Y-12291214D01*
X18164643Y-12291214D02*
X18164643Y-11991214D01*
X18136071Y-12034071D01*
X18107500Y-12062643D01*
X18078928Y-12076929D01*
X18507500Y-11991214D02*
X18450357Y-11991214D01*
X18421786Y-12005500D01*
X18407500Y-12019786D01*
X18378928Y-12062643D01*
X18364643Y-12119786D01*
X18364643Y-12234071D01*
X18378928Y-12262643D01*
X18393214Y-12276929D01*
X18421786Y-12291214D01*
X18478928Y-12291214D01*
X18507500Y-12276929D01*
X18521786Y-12262643D01*
X18536071Y-12234071D01*
X18536071Y-12162643D01*
X18521786Y-12134071D01*
X18507500Y-12119786D01*
X18478928Y-12105500D01*
X18421786Y-12105500D01*
X18393214Y-12119786D01*
X18378928Y-12134071D01*
X18364643Y-12162643D01*
X18893214Y-12291214D02*
X18893214Y-11991214D01*
X19021786Y-12291214D02*
X19021786Y-12134071D01*
X19007500Y-12105500D01*
X18978928Y-12091214D01*
X18936071Y-12091214D01*
X18907500Y-12105500D01*
X18893214Y-12119786D01*
X19207500Y-12291214D02*
X19178928Y-12276929D01*
X19164643Y-12262643D01*
X19150357Y-12234071D01*
X19150357Y-12148357D01*
X19164643Y-12119786D01*
X19178928Y-12105500D01*
X19207500Y-12091214D01*
X19250357Y-12091214D01*
X19278928Y-12105500D01*
X19293214Y-12119786D01*
X19307500Y-12148357D01*
X19307500Y-12234071D01*
X19293214Y-12262643D01*
X19278928Y-12276929D01*
X19250357Y-12291214D01*
X19207500Y-12291214D01*
X19478928Y-12291214D02*
X19450357Y-12276929D01*
X19436071Y-12248357D01*
X19436071Y-11991214D01*
X19707500Y-12276929D02*
X19678928Y-12291214D01*
X19621786Y-12291214D01*
X19593214Y-12276929D01*
X19578928Y-12248357D01*
X19578928Y-12134071D01*
X19593214Y-12105500D01*
X19621786Y-12091214D01*
X19678928Y-12091214D01*
X19707500Y-12105500D01*
X19721786Y-12134071D01*
X19721786Y-12162643D01*
X19578928Y-12191214D01*
X19836071Y-12276929D02*
X19864643Y-12291214D01*
X19921786Y-12291214D01*
X19950357Y-12276929D01*
X19964643Y-12248357D01*
X19964643Y-12234071D01*
X19950357Y-12205500D01*
X19921786Y-12191214D01*
X19878928Y-12191214D01*
X19850357Y-12176929D01*
X19836071Y-12148357D01*
X19836071Y-12134071D01*
X19850357Y-12105500D01*
X19878928Y-12091214D01*
X19921786Y-12091214D01*
X19950357Y-12105500D01*
X20064643Y-12405500D02*
X20078928Y-12391214D01*
X20107500Y-12348357D01*
X20121786Y-12319786D01*
X20136071Y-12276929D01*
X20150357Y-12205500D01*
X20150357Y-12148357D01*
X20136071Y-12076929D01*
X20121786Y-12034071D01*
X20107500Y-12005500D01*
X20078928Y-11962643D01*
X20064643Y-11948357D01*
X13242500Y-12601500D02*
X13292500Y-12551500D01*
X13242500Y-12501500D01*
X13192500Y-12551500D01*
X13242500Y-12601500D01*
X13736071Y-12687214D02*
X13564643Y-12687214D01*
X13650357Y-12687214D02*
X13650357Y-12387214D01*
X13621786Y-12430071D01*
X13593214Y-12458643D01*
X13564643Y-12472929D01*
X13864643Y-12658643D02*
X13878928Y-12672929D01*
X13864643Y-12687214D01*
X13850357Y-12672929D01*
X13864643Y-12658643D01*
X13864643Y-12687214D01*
X14064643Y-12387214D02*
X14093214Y-12387214D01*
X14121786Y-12401500D01*
X14136071Y-12415786D01*
X14150357Y-12444357D01*
X14164643Y-12501500D01*
X14164643Y-12572929D01*
X14150357Y-12630071D01*
X14136071Y-12658643D01*
X14121786Y-12672929D01*
X14093214Y-12687214D01*
X14064643Y-12687214D01*
X14036071Y-12672929D01*
X14021786Y-12658643D01*
X14007500Y-12630071D01*
X13993214Y-12572929D01*
X13993214Y-12501500D01*
X14007500Y-12444357D01*
X14021786Y-12415786D01*
X14036071Y-12401500D01*
X14064643Y-12387214D01*
X14350357Y-12387214D02*
X14378928Y-12387214D01*
X14407500Y-12401500D01*
X14421786Y-12415786D01*
X14436071Y-12444357D01*
X14450357Y-12501500D01*
X14450357Y-12572929D01*
X14436071Y-12630071D01*
X14421786Y-12658643D01*
X14407500Y-12672929D01*
X14378928Y-12687214D01*
X14350357Y-12687214D01*
X14321786Y-12672929D01*
X14307500Y-12658643D01*
X14293214Y-12630071D01*
X14278928Y-12572929D01*
X14278928Y-12501500D01*
X14293214Y-12444357D01*
X14307500Y-12415786D01*
X14321786Y-12401500D01*
X14350357Y-12387214D01*
X14578928Y-12687214D02*
X14578928Y-12487214D01*
X14578928Y-12515786D02*
X14593214Y-12501500D01*
X14621786Y-12487214D01*
X14664643Y-12487214D01*
X14693214Y-12501500D01*
X14707500Y-12530071D01*
X14707500Y-12687214D01*
X14707500Y-12530071D02*
X14721786Y-12501500D01*
X14750357Y-12487214D01*
X14793214Y-12487214D01*
X14821786Y-12501500D01*
X14836071Y-12530071D01*
X14836071Y-12687214D01*
X14978928Y-12687214D02*
X14978928Y-12487214D01*
X14978928Y-12515786D02*
X14993214Y-12501500D01*
X15021786Y-12487214D01*
X15064643Y-12487214D01*
X15093214Y-12501500D01*
X15107500Y-12530071D01*
X15107500Y-12687214D01*
X15107500Y-12530071D02*
X15121786Y-12501500D01*
X15150357Y-12487214D01*
X15193214Y-12487214D01*
X15221786Y-12501500D01*
X15236071Y-12530071D01*
X15236071Y-12687214D01*
X15821786Y-12372929D02*
X15564643Y-12758643D01*
X16207500Y-12387214D02*
X16236071Y-12387214D01*
X16264643Y-12401500D01*
X16278928Y-12415786D01*
X16293214Y-12444357D01*
X16307500Y-12501500D01*
X16307500Y-12572929D01*
X16293214Y-12630071D01*
X16278928Y-12658643D01*
X16264643Y-12672929D01*
X16236071Y-12687214D01*
X16207500Y-12687214D01*
X16178928Y-12672929D01*
X16164643Y-12658643D01*
X16150357Y-12630071D01*
X16136071Y-12572929D01*
X16136071Y-12501500D01*
X16150357Y-12444357D01*
X16164643Y-12415786D01*
X16178928Y-12401500D01*
X16207500Y-12387214D01*
X16436071Y-12658643D02*
X16450357Y-12672929D01*
X16436071Y-12687214D01*
X16421786Y-12672929D01*
X16436071Y-12658643D01*
X16436071Y-12687214D01*
X16636071Y-12387214D02*
X16664643Y-12387214D01*
X16693214Y-12401500D01*
X16707500Y-12415786D01*
X16721786Y-12444357D01*
X16736071Y-12501500D01*
X16736071Y-12572929D01*
X16721786Y-12630071D01*
X16707500Y-12658643D01*
X16693214Y-12672929D01*
X16664643Y-12687214D01*
X16636071Y-12687214D01*
X16607500Y-12672929D01*
X16593214Y-12658643D01*
X16578928Y-12630071D01*
X16564643Y-12572929D01*
X16564643Y-12501500D01*
X16578928Y-12444357D01*
X16593214Y-12415786D01*
X16607500Y-12401500D01*
X16636071Y-12387214D01*
X16836071Y-12387214D02*
X17021786Y-12387214D01*
X16921786Y-12501500D01*
X16964643Y-12501500D01*
X16993214Y-12515786D01*
X17007500Y-12530071D01*
X17021786Y-12558643D01*
X17021786Y-12630071D01*
X17007500Y-12658643D01*
X16993214Y-12672929D01*
X16964643Y-12687214D01*
X16878928Y-12687214D01*
X16850357Y-12672929D01*
X16836071Y-12658643D01*
X17164643Y-12687214D02*
X17221786Y-12687214D01*
X17250357Y-12672929D01*
X17264643Y-12658643D01*
X17293214Y-12615786D01*
X17307500Y-12558643D01*
X17307500Y-12444357D01*
X17293214Y-12415786D01*
X17278928Y-12401500D01*
X17250357Y-12387214D01*
X17193214Y-12387214D01*
X17164643Y-12401500D01*
X17150357Y-12415786D01*
X17136071Y-12444357D01*
X17136071Y-12515786D01*
X17150357Y-12544357D01*
X17164643Y-12558643D01*
X17193214Y-12572929D01*
X17250357Y-12572929D01*
X17278928Y-12558643D01*
X17293214Y-12544357D01*
X17307500Y-12515786D01*
X17421786Y-12387214D02*
X17421786Y-12444357D01*
X17536071Y-12387214D02*
X17536071Y-12444357D01*
X17978928Y-12801500D02*
X17964643Y-12787214D01*
X17936071Y-12744357D01*
X17921786Y-12715786D01*
X17907500Y-12672929D01*
X17893214Y-12601500D01*
X17893214Y-12544357D01*
X17907500Y-12472929D01*
X17921786Y-12430071D01*
X17936071Y-12401500D01*
X17964643Y-12358643D01*
X17978928Y-12344357D01*
X18078928Y-12415786D02*
X18093214Y-12401500D01*
X18121786Y-12387214D01*
X18193214Y-12387214D01*
X18221786Y-12401500D01*
X18236071Y-12415786D01*
X18250357Y-12444357D01*
X18250357Y-12472929D01*
X18236071Y-12515786D01*
X18064643Y-12687214D01*
X18250357Y-12687214D01*
X18536071Y-12687214D02*
X18364643Y-12687214D01*
X18450357Y-12687214D02*
X18450357Y-12387214D01*
X18421786Y-12430071D01*
X18393214Y-12458643D01*
X18364643Y-12472929D01*
X18893214Y-12687214D02*
X18893214Y-12387214D01*
X19021786Y-12687214D02*
X19021786Y-12530071D01*
X19007500Y-12501500D01*
X18978928Y-12487214D01*
X18936071Y-12487214D01*
X18907500Y-12501500D01*
X18893214Y-12515786D01*
X19207500Y-12687214D02*
X19178928Y-12672929D01*
X19164643Y-12658643D01*
X19150357Y-12630071D01*
X19150357Y-12544357D01*
X19164643Y-12515786D01*
X19178928Y-12501500D01*
X19207500Y-12487214D01*
X19250357Y-12487214D01*
X19278928Y-12501500D01*
X19293214Y-12515786D01*
X19307500Y-12544357D01*
X19307500Y-12630071D01*
X19293214Y-12658643D01*
X19278928Y-12672929D01*
X19250357Y-12687214D01*
X19207500Y-12687214D01*
X19478928Y-12687214D02*
X19450357Y-12672929D01*
X19436071Y-12644357D01*
X19436071Y-12387214D01*
X19707500Y-12672929D02*
X19678928Y-12687214D01*
X19621786Y-12687214D01*
X19593214Y-12672929D01*
X19578928Y-12644357D01*
X19578928Y-12530071D01*
X19593214Y-12501500D01*
X19621786Y-12487214D01*
X19678928Y-12487214D01*
X19707500Y-12501500D01*
X19721786Y-12530071D01*
X19721786Y-12558643D01*
X19578928Y-12587214D01*
X19836071Y-12672929D02*
X19864643Y-12687214D01*
X19921786Y-12687214D01*
X19950357Y-12672929D01*
X19964643Y-12644357D01*
X19964643Y-12630071D01*
X19950357Y-12601500D01*
X19921786Y-12587214D01*
X19878928Y-12587214D01*
X19850357Y-12572929D01*
X19836071Y-12544357D01*
X19836071Y-12530071D01*
X19850357Y-12501500D01*
X19878928Y-12487214D01*
X19921786Y-12487214D01*
X19950357Y-12501500D01*
X20064643Y-12801500D02*
X20078928Y-12787214D01*
X20107500Y-12744357D01*
X20121786Y-12715786D01*
X20136071Y-12672929D01*
X20150357Y-12601500D01*
X20150357Y-12544357D01*
X20136071Y-12472929D01*
X20121786Y-12430071D01*
X20107500Y-12401500D01*
X20078928Y-12358643D01*
X20064643Y-12344357D01*
X13182500Y-12892500D02*
X13292500Y-13002500D01*
X13292500Y-12892500D02*
X13182500Y-13002500D01*
X13292500Y-12947500D02*
G75*
G03X13292500Y-12947500I-55000J0D01*
G01*
X13736071Y-13083214D02*
X13564643Y-13083214D01*
X13650357Y-13083214D02*
X13650357Y-12783214D01*
X13621786Y-12826071D01*
X13593214Y-12854643D01*
X13564643Y-12868929D01*
X13864643Y-13054643D02*
X13878928Y-13068929D01*
X13864643Y-13083214D01*
X13850357Y-13068929D01*
X13864643Y-13054643D01*
X13864643Y-13083214D01*
X14164643Y-13083214D02*
X13993214Y-13083214D01*
X14078928Y-13083214D02*
X14078928Y-12783214D01*
X14050357Y-12826071D01*
X14021786Y-12854643D01*
X13993214Y-12868929D01*
X14350357Y-12783214D02*
X14378928Y-12783214D01*
X14407500Y-12797500D01*
X14421786Y-12811786D01*
X14436071Y-12840357D01*
X14450357Y-12897500D01*
X14450357Y-12968929D01*
X14436071Y-13026071D01*
X14421786Y-13054643D01*
X14407500Y-13068929D01*
X14378928Y-13083214D01*
X14350357Y-13083214D01*
X14321786Y-13068929D01*
X14307500Y-13054643D01*
X14293214Y-13026071D01*
X14278928Y-12968929D01*
X14278928Y-12897500D01*
X14293214Y-12840357D01*
X14307500Y-12811786D01*
X14321786Y-12797500D01*
X14350357Y-12783214D01*
X14578928Y-13083214D02*
X14578928Y-12883214D01*
X14578928Y-12911786D02*
X14593214Y-12897500D01*
X14621786Y-12883214D01*
X14664643Y-12883214D01*
X14693214Y-12897500D01*
X14707500Y-12926071D01*
X14707500Y-13083214D01*
X14707500Y-12926071D02*
X14721786Y-12897500D01*
X14750357Y-12883214D01*
X14793214Y-12883214D01*
X14821786Y-12897500D01*
X14836071Y-12926071D01*
X14836071Y-13083214D01*
X14978928Y-13083214D02*
X14978928Y-12883214D01*
X14978928Y-12911786D02*
X14993214Y-12897500D01*
X15021786Y-12883214D01*
X15064643Y-12883214D01*
X15093214Y-12897500D01*
X15107500Y-12926071D01*
X15107500Y-13083214D01*
X15107500Y-12926071D02*
X15121786Y-12897500D01*
X15150357Y-12883214D01*
X15193214Y-12883214D01*
X15221786Y-12897500D01*
X15236071Y-12926071D01*
X15236071Y-13083214D01*
X15821786Y-12768929D02*
X15564643Y-13154643D01*
X16207500Y-12783214D02*
X16236071Y-12783214D01*
X16264643Y-12797500D01*
X16278928Y-12811786D01*
X16293214Y-12840357D01*
X16307500Y-12897500D01*
X16307500Y-12968929D01*
X16293214Y-13026071D01*
X16278928Y-13054643D01*
X16264643Y-13068929D01*
X16236071Y-13083214D01*
X16207500Y-13083214D01*
X16178928Y-13068929D01*
X16164643Y-13054643D01*
X16150357Y-13026071D01*
X16136071Y-12968929D01*
X16136071Y-12897500D01*
X16150357Y-12840357D01*
X16164643Y-12811786D01*
X16178928Y-12797500D01*
X16207500Y-12783214D01*
X16436071Y-13054643D02*
X16450357Y-13068929D01*
X16436071Y-13083214D01*
X16421786Y-13068929D01*
X16436071Y-13054643D01*
X16436071Y-13083214D01*
X16636071Y-12783214D02*
X16664643Y-12783214D01*
X16693214Y-12797500D01*
X16707500Y-12811786D01*
X16721786Y-12840357D01*
X16736071Y-12897500D01*
X16736071Y-12968929D01*
X16721786Y-13026071D01*
X16707500Y-13054643D01*
X16693214Y-13068929D01*
X16664643Y-13083214D01*
X16636071Y-13083214D01*
X16607500Y-13068929D01*
X16593214Y-13054643D01*
X16578928Y-13026071D01*
X16564643Y-12968929D01*
X16564643Y-12897500D01*
X16578928Y-12840357D01*
X16593214Y-12811786D01*
X16607500Y-12797500D01*
X16636071Y-12783214D01*
X16993214Y-12883214D02*
X16993214Y-13083214D01*
X16921786Y-12768929D02*
X16850357Y-12983214D01*
X17036071Y-12983214D01*
X17121786Y-12783214D02*
X17307500Y-12783214D01*
X17207500Y-12897500D01*
X17250357Y-12897500D01*
X17278928Y-12911786D01*
X17293214Y-12926071D01*
X17307500Y-12954643D01*
X17307500Y-13026071D01*
X17293214Y-13054643D01*
X17278928Y-13068929D01*
X17250357Y-13083214D01*
X17164643Y-13083214D01*
X17136071Y-13068929D01*
X17121786Y-13054643D01*
X17421786Y-12783214D02*
X17421786Y-12840357D01*
X17536071Y-12783214D02*
X17536071Y-12840357D01*
X17978928Y-13197500D02*
X17964643Y-13183214D01*
X17936071Y-13140357D01*
X17921786Y-13111786D01*
X17907500Y-13068929D01*
X17893214Y-12997500D01*
X17893214Y-12940357D01*
X17907500Y-12868929D01*
X17921786Y-12826071D01*
X17936071Y-12797500D01*
X17964643Y-12754643D01*
X17978928Y-12740357D01*
X18078928Y-12811786D02*
X18093214Y-12797500D01*
X18121786Y-12783214D01*
X18193214Y-12783214D01*
X18221786Y-12797500D01*
X18236071Y-12811786D01*
X18250357Y-12840357D01*
X18250357Y-12868929D01*
X18236071Y-12911786D01*
X18064643Y-13083214D01*
X18250357Y-13083214D01*
X18507500Y-12883214D02*
X18507500Y-13083214D01*
X18436071Y-12768929D02*
X18364643Y-12983214D01*
X18550357Y-12983214D01*
X18893214Y-13083214D02*
X18893214Y-12783214D01*
X19021786Y-13083214D02*
X19021786Y-12926071D01*
X19007500Y-12897500D01*
X18978928Y-12883214D01*
X18936071Y-12883214D01*
X18907500Y-12897500D01*
X18893214Y-12911786D01*
X19207500Y-13083214D02*
X19178928Y-13068929D01*
X19164643Y-13054643D01*
X19150357Y-13026071D01*
X19150357Y-12940357D01*
X19164643Y-12911786D01*
X19178928Y-12897500D01*
X19207500Y-12883214D01*
X19250357Y-12883214D01*
X19278928Y-12897500D01*
X19293214Y-12911786D01*
X19307500Y-12940357D01*
X19307500Y-13026071D01*
X19293214Y-13054643D01*
X19278928Y-13068929D01*
X19250357Y-13083214D01*
X19207500Y-13083214D01*
X19478928Y-13083214D02*
X19450357Y-13068929D01*
X19436071Y-13040357D01*
X19436071Y-12783214D01*
X19707500Y-13068929D02*
X19678928Y-13083214D01*
X19621786Y-13083214D01*
X19593214Y-13068929D01*
X19578928Y-13040357D01*
X19578928Y-12926071D01*
X19593214Y-12897500D01*
X19621786Y-12883214D01*
X19678928Y-12883214D01*
X19707500Y-12897500D01*
X19721786Y-12926071D01*
X19721786Y-12954643D01*
X19578928Y-12983214D01*
X19836071Y-13068929D02*
X19864643Y-13083214D01*
X19921786Y-13083214D01*
X19950357Y-13068929D01*
X19964643Y-13040357D01*
X19964643Y-13026071D01*
X19950357Y-12997500D01*
X19921786Y-12983214D01*
X19878928Y-12983214D01*
X19850357Y-12968929D01*
X19836071Y-12940357D01*
X19836071Y-12926071D01*
X19850357Y-12897500D01*
X19878928Y-12883214D01*
X19921786Y-12883214D01*
X19950357Y-12897500D01*
X20064643Y-13197500D02*
X20078928Y-13183214D01*
X20107500Y-13140357D01*
X20121786Y-13111786D01*
X20136071Y-13068929D01*
X20150357Y-12997500D01*
X20150357Y-12940357D01*
X20136071Y-12868929D01*
X20121786Y-12826071D01*
X20107500Y-12797500D01*
X20078928Y-12754643D01*
X20064643Y-12740357D01*
X12972500Y-13183500D02*
X13292500Y-13503500D01*
X13292500Y-13183500D02*
X12972500Y-13503500D01*
X13132500Y-13183500D02*
X13132500Y-13503500D01*
X12972500Y-13343500D02*
X13292500Y-13343500D01*
X13550357Y-13179214D02*
X13736071Y-13179214D01*
X13636071Y-13293500D01*
X13678928Y-13293500D01*
X13707500Y-13307786D01*
X13721786Y-13322071D01*
X13736071Y-13350643D01*
X13736071Y-13422071D01*
X13721786Y-13450643D01*
X13707500Y-13464929D01*
X13678928Y-13479214D01*
X13593214Y-13479214D01*
X13564643Y-13464929D01*
X13550357Y-13450643D01*
X13864643Y-13450643D02*
X13878928Y-13464929D01*
X13864643Y-13479214D01*
X13850357Y-13464929D01*
X13864643Y-13450643D01*
X13864643Y-13479214D01*
X13993214Y-13207786D02*
X14007500Y-13193500D01*
X14036071Y-13179214D01*
X14107500Y-13179214D01*
X14136071Y-13193500D01*
X14150357Y-13207786D01*
X14164643Y-13236357D01*
X14164643Y-13264929D01*
X14150357Y-13307786D01*
X13978928Y-13479214D01*
X14164643Y-13479214D01*
X14350357Y-13179214D02*
X14378928Y-13179214D01*
X14407500Y-13193500D01*
X14421786Y-13207786D01*
X14436071Y-13236357D01*
X14450357Y-13293500D01*
X14450357Y-13364929D01*
X14436071Y-13422071D01*
X14421786Y-13450643D01*
X14407500Y-13464929D01*
X14378928Y-13479214D01*
X14350357Y-13479214D01*
X14321786Y-13464929D01*
X14307500Y-13450643D01*
X14293214Y-13422071D01*
X14278928Y-13364929D01*
X14278928Y-13293500D01*
X14293214Y-13236357D01*
X14307500Y-13207786D01*
X14321786Y-13193500D01*
X14350357Y-13179214D01*
X14578928Y-13479214D02*
X14578928Y-13279214D01*
X14578928Y-13307786D02*
X14593214Y-13293500D01*
X14621786Y-13279214D01*
X14664643Y-13279214D01*
X14693214Y-13293500D01*
X14707500Y-13322071D01*
X14707500Y-13479214D01*
X14707500Y-13322071D02*
X14721786Y-13293500D01*
X14750357Y-13279214D01*
X14793214Y-13279214D01*
X14821786Y-13293500D01*
X14836071Y-13322071D01*
X14836071Y-13479214D01*
X14978928Y-13479214D02*
X14978928Y-13279214D01*
X14978928Y-13307786D02*
X14993214Y-13293500D01*
X15021786Y-13279214D01*
X15064643Y-13279214D01*
X15093214Y-13293500D01*
X15107500Y-13322071D01*
X15107500Y-13479214D01*
X15107500Y-13322071D02*
X15121786Y-13293500D01*
X15150357Y-13279214D01*
X15193214Y-13279214D01*
X15221786Y-13293500D01*
X15236071Y-13322071D01*
X15236071Y-13479214D01*
X15821786Y-13164929D02*
X15564643Y-13550643D01*
X16207500Y-13179214D02*
X16236071Y-13179214D01*
X16264643Y-13193500D01*
X16278928Y-13207786D01*
X16293214Y-13236357D01*
X16307500Y-13293500D01*
X16307500Y-13364929D01*
X16293214Y-13422071D01*
X16278928Y-13450643D01*
X16264643Y-13464929D01*
X16236071Y-13479214D01*
X16207500Y-13479214D01*
X16178928Y-13464929D01*
X16164643Y-13450643D01*
X16150357Y-13422071D01*
X16136071Y-13364929D01*
X16136071Y-13293500D01*
X16150357Y-13236357D01*
X16164643Y-13207786D01*
X16178928Y-13193500D01*
X16207500Y-13179214D01*
X16436071Y-13450643D02*
X16450357Y-13464929D01*
X16436071Y-13479214D01*
X16421786Y-13464929D01*
X16436071Y-13450643D01*
X16436071Y-13479214D01*
X16736071Y-13479214D02*
X16564643Y-13479214D01*
X16650357Y-13479214D02*
X16650357Y-13179214D01*
X16621786Y-13222071D01*
X16593214Y-13250643D01*
X16564643Y-13264929D01*
X16850357Y-13207786D02*
X16864643Y-13193500D01*
X16893214Y-13179214D01*
X16964643Y-13179214D01*
X16993214Y-13193500D01*
X17007500Y-13207786D01*
X17021786Y-13236357D01*
X17021786Y-13264929D01*
X17007500Y-13307786D01*
X16836071Y-13479214D01*
X17021786Y-13479214D01*
X17278928Y-13179214D02*
X17221786Y-13179214D01*
X17193214Y-13193500D01*
X17178928Y-13207786D01*
X17150357Y-13250643D01*
X17136071Y-13307786D01*
X17136071Y-13422071D01*
X17150357Y-13450643D01*
X17164643Y-13464929D01*
X17193214Y-13479214D01*
X17250357Y-13479214D01*
X17278928Y-13464929D01*
X17293214Y-13450643D01*
X17307500Y-13422071D01*
X17307500Y-13350643D01*
X17293214Y-13322071D01*
X17278928Y-13307786D01*
X17250357Y-13293500D01*
X17193214Y-13293500D01*
X17164643Y-13307786D01*
X17150357Y-13322071D01*
X17136071Y-13350643D01*
X17421786Y-13179214D02*
X17421786Y-13236357D01*
X17536071Y-13179214D02*
X17536071Y-13236357D01*
X17978928Y-13593500D02*
X17964643Y-13579214D01*
X17936071Y-13536357D01*
X17921786Y-13507786D01*
X17907500Y-13464929D01*
X17893214Y-13393500D01*
X17893214Y-13336357D01*
X17907500Y-13264929D01*
X17921786Y-13222071D01*
X17936071Y-13193500D01*
X17964643Y-13150643D01*
X17978928Y-13136357D01*
X18136071Y-13307786D02*
X18107500Y-13293500D01*
X18093214Y-13279214D01*
X18078928Y-13250643D01*
X18078928Y-13236357D01*
X18093214Y-13207786D01*
X18107500Y-13193500D01*
X18136071Y-13179214D01*
X18193214Y-13179214D01*
X18221786Y-13193500D01*
X18236071Y-13207786D01*
X18250357Y-13236357D01*
X18250357Y-13250643D01*
X18236071Y-13279214D01*
X18221786Y-13293500D01*
X18193214Y-13307786D01*
X18136071Y-13307786D01*
X18107500Y-13322071D01*
X18093214Y-13336357D01*
X18078928Y-13364929D01*
X18078928Y-13422071D01*
X18093214Y-13450643D01*
X18107500Y-13464929D01*
X18136071Y-13479214D01*
X18193214Y-13479214D01*
X18221786Y-13464929D01*
X18236071Y-13450643D01*
X18250357Y-13422071D01*
X18250357Y-13364929D01*
X18236071Y-13336357D01*
X18221786Y-13322071D01*
X18193214Y-13307786D01*
X18607500Y-13479214D02*
X18607500Y-13179214D01*
X18736071Y-13479214D02*
X18736071Y-13322071D01*
X18721786Y-13293500D01*
X18693214Y-13279214D01*
X18650357Y-13279214D01*
X18621786Y-13293500D01*
X18607500Y-13307786D01*
X18921786Y-13479214D02*
X18893214Y-13464929D01*
X18878928Y-13450643D01*
X18864643Y-13422071D01*
X18864643Y-13336357D01*
X18878928Y-13307786D01*
X18893214Y-13293500D01*
X18921786Y-13279214D01*
X18964643Y-13279214D01*
X18993214Y-13293500D01*
X19007500Y-13307786D01*
X19021786Y-13336357D01*
X19021786Y-13422071D01*
X19007500Y-13450643D01*
X18993214Y-13464929D01*
X18964643Y-13479214D01*
X18921786Y-13479214D01*
X19193214Y-13479214D02*
X19164643Y-13464929D01*
X19150357Y-13436357D01*
X19150357Y-13179214D01*
X19421786Y-13464929D02*
X19393214Y-13479214D01*
X19336071Y-13479214D01*
X19307500Y-13464929D01*
X19293214Y-13436357D01*
X19293214Y-13322071D01*
X19307500Y-13293500D01*
X19336071Y-13279214D01*
X19393214Y-13279214D01*
X19421786Y-13293500D01*
X19436071Y-13322071D01*
X19436071Y-13350643D01*
X19293214Y-13379214D01*
X19550357Y-13464929D02*
X19578928Y-13479214D01*
X19636071Y-13479214D01*
X19664643Y-13464929D01*
X19678928Y-13436357D01*
X19678928Y-13422071D01*
X19664643Y-13393500D01*
X19636071Y-13379214D01*
X19593214Y-13379214D01*
X19564643Y-13364929D01*
X19550357Y-13336357D01*
X19550357Y-13322071D01*
X19564643Y-13293500D01*
X19593214Y-13279214D01*
X19636071Y-13279214D01*
X19664643Y-13293500D01*
X19778928Y-13593500D02*
X19793214Y-13579214D01*
X19821786Y-13536357D01*
X19836071Y-13507786D01*
X19850357Y-13464929D01*
X19864643Y-13393500D01*
X19864643Y-13336357D01*
X19850357Y-13264929D01*
X19836071Y-13222071D01*
X19821786Y-13193500D01*
X19793214Y-13150643D01*
X19778928Y-13136357D01*
M02*
