%FSLAX45Y45*%
G04 Gerber Fmt 4.5, Leading zero omitted, Abs format (unit mm)*
G04 Created by KiCad (PCBNEW 5.0.2+dfsg1-1) date Sun 10 Apr 2022 01:54:58 AM PDT*
%MOMM*%
%LPD*%
G01*
G04 APERTURE LIST*
%ADD10C,0.150000*%
%ADD11C,0.200000*%
%ADD12C,0.300000*%
G04 APERTURE END LIST*
D10*
X13800000Y-1600000D02*
X18400000Y-1600000D01*
X13800000Y-10000000D02*
X18400000Y-10000000D01*
X18900000Y-9500000D02*
X18900000Y-2100000D01*
X13300000Y-2100000D02*
X13300000Y-9500000D01*
X18400000Y-1600000D02*
G75*
G02X18900000Y-2100000I0J-500000D01*
G01*
X18900000Y-9500000D02*
G75*
G02X18400000Y-10000000I-500000J0D01*
G01*
X13800000Y-10000000D02*
G75*
G02X13300000Y-9500000I0J500000D01*
G01*
X13300000Y-2100000D02*
G75*
G02X13800000Y-1600000I500000J0D01*
G01*
D11*
X16300000Y-8510000D02*
X16500000Y-8710000D01*
X16500000Y-8510000D02*
X16300000Y-8710000D01*
X16300000Y-9390000D02*
X16500000Y-9590000D01*
X16500000Y-9390000D02*
X16300000Y-9590000D01*
D12*
X13578928Y-10473214D02*
X13578928Y-10173214D01*
X13650357Y-10173214D01*
X13693214Y-10187500D01*
X13721786Y-10216072D01*
X13736071Y-10244643D01*
X13750357Y-10301786D01*
X13750357Y-10344643D01*
X13736071Y-10401786D01*
X13721786Y-10430357D01*
X13693214Y-10458929D01*
X13650357Y-10473214D01*
X13578928Y-10473214D01*
X13878928Y-10473214D02*
X13878928Y-10273214D01*
X13878928Y-10330357D02*
X13893214Y-10301786D01*
X13907500Y-10287500D01*
X13936071Y-10273214D01*
X13964643Y-10273214D01*
X14064643Y-10473214D02*
X14064643Y-10273214D01*
X14064643Y-10173214D02*
X14050357Y-10187500D01*
X14064643Y-10201786D01*
X14078928Y-10187500D01*
X14064643Y-10173214D01*
X14064643Y-10201786D01*
X14250357Y-10473214D02*
X14221786Y-10458929D01*
X14207500Y-10430357D01*
X14207500Y-10173214D01*
X14407500Y-10473214D02*
X14378928Y-10458929D01*
X14364643Y-10430357D01*
X14364643Y-10173214D01*
X14750357Y-10473214D02*
X14750357Y-10173214D01*
X14850357Y-10387500D01*
X14950357Y-10173214D01*
X14950357Y-10473214D01*
X15221786Y-10473214D02*
X15221786Y-10316072D01*
X15207500Y-10287500D01*
X15178928Y-10273214D01*
X15121786Y-10273214D01*
X15093214Y-10287500D01*
X15221786Y-10458929D02*
X15193214Y-10473214D01*
X15121786Y-10473214D01*
X15093214Y-10458929D01*
X15078928Y-10430357D01*
X15078928Y-10401786D01*
X15093214Y-10373214D01*
X15121786Y-10358929D01*
X15193214Y-10358929D01*
X15221786Y-10344643D01*
X15364643Y-10273214D02*
X15364643Y-10573214D01*
X15364643Y-10287500D02*
X15393214Y-10273214D01*
X15450357Y-10273214D01*
X15478928Y-10287500D01*
X15493214Y-10301786D01*
X15507500Y-10330357D01*
X15507500Y-10416072D01*
X15493214Y-10444643D01*
X15478928Y-10458929D01*
X15450357Y-10473214D01*
X15393214Y-10473214D01*
X15364643Y-10458929D01*
X15636071Y-10444643D02*
X15650357Y-10458929D01*
X15636071Y-10473214D01*
X15621786Y-10458929D01*
X15636071Y-10444643D01*
X15636071Y-10473214D01*
X15636071Y-10287500D02*
X15650357Y-10301786D01*
X15636071Y-10316072D01*
X15621786Y-10301786D01*
X15636071Y-10287500D01*
X15636071Y-10316072D01*
X13092500Y-10867500D02*
X13292500Y-11067500D01*
X13292500Y-10867500D02*
X13092500Y-11067500D01*
X13564643Y-10831786D02*
X13578928Y-10817500D01*
X13607500Y-10803214D01*
X13678928Y-10803214D01*
X13707500Y-10817500D01*
X13721786Y-10831786D01*
X13736071Y-10860357D01*
X13736071Y-10888929D01*
X13721786Y-10931786D01*
X13550357Y-11103214D01*
X13736071Y-11103214D01*
X13864643Y-11074643D02*
X13878928Y-11088929D01*
X13864643Y-11103214D01*
X13850357Y-11088929D01*
X13864643Y-11074643D01*
X13864643Y-11103214D01*
X14064643Y-10803214D02*
X14093214Y-10803214D01*
X14121786Y-10817500D01*
X14136071Y-10831786D01*
X14150357Y-10860357D01*
X14164643Y-10917500D01*
X14164643Y-10988929D01*
X14150357Y-11046072D01*
X14136071Y-11074643D01*
X14121786Y-11088929D01*
X14093214Y-11103214D01*
X14064643Y-11103214D01*
X14036071Y-11088929D01*
X14021786Y-11074643D01*
X14007500Y-11046072D01*
X13993214Y-10988929D01*
X13993214Y-10917500D01*
X14007500Y-10860357D01*
X14021786Y-10831786D01*
X14036071Y-10817500D01*
X14064643Y-10803214D01*
X14350357Y-10803214D02*
X14378928Y-10803214D01*
X14407500Y-10817500D01*
X14421786Y-10831786D01*
X14436071Y-10860357D01*
X14450357Y-10917500D01*
X14450357Y-10988929D01*
X14436071Y-11046072D01*
X14421786Y-11074643D01*
X14407500Y-11088929D01*
X14378928Y-11103214D01*
X14350357Y-11103214D01*
X14321786Y-11088929D01*
X14307500Y-11074643D01*
X14293214Y-11046072D01*
X14278928Y-10988929D01*
X14278928Y-10917500D01*
X14293214Y-10860357D01*
X14307500Y-10831786D01*
X14321786Y-10817500D01*
X14350357Y-10803214D01*
X14578928Y-11103214D02*
X14578928Y-10903214D01*
X14578928Y-10931786D02*
X14593214Y-10917500D01*
X14621786Y-10903214D01*
X14664643Y-10903214D01*
X14693214Y-10917500D01*
X14707500Y-10946072D01*
X14707500Y-11103214D01*
X14707500Y-10946072D02*
X14721786Y-10917500D01*
X14750357Y-10903214D01*
X14793214Y-10903214D01*
X14821786Y-10917500D01*
X14836071Y-10946072D01*
X14836071Y-11103214D01*
X14978928Y-11103214D02*
X14978928Y-10903214D01*
X14978928Y-10931786D02*
X14993214Y-10917500D01*
X15021786Y-10903214D01*
X15064643Y-10903214D01*
X15093214Y-10917500D01*
X15107500Y-10946072D01*
X15107500Y-11103214D01*
X15107500Y-10946072D02*
X15121786Y-10917500D01*
X15150357Y-10903214D01*
X15193214Y-10903214D01*
X15221786Y-10917500D01*
X15236071Y-10946072D01*
X15236071Y-11103214D01*
X15821786Y-10788929D02*
X15564643Y-11174643D01*
X16207500Y-10803214D02*
X16236071Y-10803214D01*
X16264643Y-10817500D01*
X16278928Y-10831786D01*
X16293214Y-10860357D01*
X16307500Y-10917500D01*
X16307500Y-10988929D01*
X16293214Y-11046072D01*
X16278928Y-11074643D01*
X16264643Y-11088929D01*
X16236071Y-11103214D01*
X16207500Y-11103214D01*
X16178928Y-11088929D01*
X16164643Y-11074643D01*
X16150357Y-11046072D01*
X16136071Y-10988929D01*
X16136071Y-10917500D01*
X16150357Y-10860357D01*
X16164643Y-10831786D01*
X16178928Y-10817500D01*
X16207500Y-10803214D01*
X16436071Y-11074643D02*
X16450357Y-11088929D01*
X16436071Y-11103214D01*
X16421786Y-11088929D01*
X16436071Y-11074643D01*
X16436071Y-11103214D01*
X16636071Y-10803214D02*
X16664643Y-10803214D01*
X16693214Y-10817500D01*
X16707500Y-10831786D01*
X16721786Y-10860357D01*
X16736071Y-10917500D01*
X16736071Y-10988929D01*
X16721786Y-11046072D01*
X16707500Y-11074643D01*
X16693214Y-11088929D01*
X16664643Y-11103214D01*
X16636071Y-11103214D01*
X16607500Y-11088929D01*
X16593214Y-11074643D01*
X16578928Y-11046072D01*
X16564643Y-10988929D01*
X16564643Y-10917500D01*
X16578928Y-10860357D01*
X16593214Y-10831786D01*
X16607500Y-10817500D01*
X16636071Y-10803214D01*
X16836071Y-10803214D02*
X17036071Y-10803214D01*
X16907500Y-11103214D01*
X17164643Y-11103214D02*
X17221786Y-11103214D01*
X17250357Y-11088929D01*
X17264643Y-11074643D01*
X17293214Y-11031786D01*
X17307500Y-10974643D01*
X17307500Y-10860357D01*
X17293214Y-10831786D01*
X17278928Y-10817500D01*
X17250357Y-10803214D01*
X17193214Y-10803214D01*
X17164643Y-10817500D01*
X17150357Y-10831786D01*
X17136071Y-10860357D01*
X17136071Y-10931786D01*
X17150357Y-10960357D01*
X17164643Y-10974643D01*
X17193214Y-10988929D01*
X17250357Y-10988929D01*
X17278928Y-10974643D01*
X17293214Y-10960357D01*
X17307500Y-10931786D01*
X17421786Y-10803214D02*
X17421786Y-10860357D01*
X17536071Y-10803214D02*
X17536071Y-10860357D01*
X17978928Y-11217500D02*
X17964643Y-11203214D01*
X17936071Y-11160357D01*
X17921786Y-11131786D01*
X17907500Y-11088929D01*
X17893214Y-11017500D01*
X17893214Y-10960357D01*
X17907500Y-10888929D01*
X17921786Y-10846072D01*
X17936071Y-10817500D01*
X17964643Y-10774643D01*
X17978928Y-10760357D01*
X18078928Y-10831786D02*
X18093214Y-10817500D01*
X18121786Y-10803214D01*
X18193214Y-10803214D01*
X18221786Y-10817500D01*
X18236071Y-10831786D01*
X18250357Y-10860357D01*
X18250357Y-10888929D01*
X18236071Y-10931786D01*
X18064643Y-11103214D01*
X18250357Y-11103214D01*
X18607500Y-11103214D02*
X18607500Y-10803214D01*
X18736071Y-11103214D02*
X18736071Y-10946072D01*
X18721786Y-10917500D01*
X18693214Y-10903214D01*
X18650357Y-10903214D01*
X18621786Y-10917500D01*
X18607500Y-10931786D01*
X18921786Y-11103214D02*
X18893214Y-11088929D01*
X18878928Y-11074643D01*
X18864643Y-11046072D01*
X18864643Y-10960357D01*
X18878928Y-10931786D01*
X18893214Y-10917500D01*
X18921786Y-10903214D01*
X18964643Y-10903214D01*
X18993214Y-10917500D01*
X19007500Y-10931786D01*
X19021786Y-10960357D01*
X19021786Y-11046072D01*
X19007500Y-11074643D01*
X18993214Y-11088929D01*
X18964643Y-11103214D01*
X18921786Y-11103214D01*
X19193214Y-11103214D02*
X19164643Y-11088929D01*
X19150357Y-11060357D01*
X19150357Y-10803214D01*
X19421786Y-11088929D02*
X19393214Y-11103214D01*
X19336071Y-11103214D01*
X19307500Y-11088929D01*
X19293214Y-11060357D01*
X19293214Y-10946072D01*
X19307500Y-10917500D01*
X19336071Y-10903214D01*
X19393214Y-10903214D01*
X19421786Y-10917500D01*
X19436071Y-10946072D01*
X19436071Y-10974643D01*
X19293214Y-11003214D01*
X19550357Y-11088929D02*
X19578928Y-11103214D01*
X19636071Y-11103214D01*
X19664643Y-11088929D01*
X19678928Y-11060357D01*
X19678928Y-11046072D01*
X19664643Y-11017500D01*
X19636071Y-11003214D01*
X19593214Y-11003214D01*
X19564643Y-10988929D01*
X19550357Y-10960357D01*
X19550357Y-10946072D01*
X19564643Y-10917500D01*
X19593214Y-10903214D01*
X19636071Y-10903214D01*
X19664643Y-10917500D01*
X19778928Y-11217500D02*
X19793214Y-11203214D01*
X19821786Y-11160357D01*
X19836071Y-11131786D01*
X19850357Y-11088929D01*
X19864643Y-11017500D01*
X19864643Y-10960357D01*
X19850357Y-10888929D01*
X19836071Y-10846072D01*
X19821786Y-10817500D01*
X19793214Y-10774643D01*
X19778928Y-10760357D01*
X20321786Y-11217500D02*
X20307500Y-11203214D01*
X20278928Y-11160357D01*
X20264643Y-11131786D01*
X20250357Y-11088929D01*
X20236071Y-11017500D01*
X20236071Y-10960357D01*
X20250357Y-10888929D01*
X20264643Y-10846072D01*
X20278928Y-10817500D01*
X20307500Y-10774643D01*
X20321786Y-10760357D01*
X20436071Y-10903214D02*
X20436071Y-11103214D01*
X20436071Y-10931786D02*
X20450357Y-10917500D01*
X20478928Y-10903214D01*
X20521786Y-10903214D01*
X20550357Y-10917500D01*
X20564643Y-10946072D01*
X20564643Y-11103214D01*
X20750357Y-11103214D02*
X20721786Y-11088929D01*
X20707500Y-11074643D01*
X20693214Y-11046072D01*
X20693214Y-10960357D01*
X20707500Y-10931786D01*
X20721786Y-10917500D01*
X20750357Y-10903214D01*
X20793214Y-10903214D01*
X20821786Y-10917500D01*
X20836071Y-10931786D01*
X20850357Y-10960357D01*
X20850357Y-11046072D01*
X20836071Y-11074643D01*
X20821786Y-11088929D01*
X20793214Y-11103214D01*
X20750357Y-11103214D01*
X20936071Y-10903214D02*
X21050357Y-10903214D01*
X20978928Y-10803214D02*
X20978928Y-11060357D01*
X20993214Y-11088929D01*
X21021786Y-11103214D01*
X21050357Y-11103214D01*
X21378928Y-10903214D02*
X21378928Y-11203214D01*
X21378928Y-10917500D02*
X21407500Y-10903214D01*
X21464643Y-10903214D01*
X21493214Y-10917500D01*
X21507500Y-10931786D01*
X21521786Y-10960357D01*
X21521786Y-11046072D01*
X21507500Y-11074643D01*
X21493214Y-11088929D01*
X21464643Y-11103214D01*
X21407500Y-11103214D01*
X21378928Y-11088929D01*
X21693214Y-11103214D02*
X21664643Y-11088929D01*
X21650357Y-11060357D01*
X21650357Y-10803214D01*
X21936071Y-11103214D02*
X21936071Y-10946072D01*
X21921786Y-10917500D01*
X21893214Y-10903214D01*
X21836071Y-10903214D01*
X21807500Y-10917500D01*
X21936071Y-11088929D02*
X21907500Y-11103214D01*
X21836071Y-11103214D01*
X21807500Y-11088929D01*
X21793214Y-11060357D01*
X21793214Y-11031786D01*
X21807500Y-11003214D01*
X21836071Y-10988929D01*
X21907500Y-10988929D01*
X21936071Y-10974643D01*
X22036071Y-10903214D02*
X22150357Y-10903214D01*
X22078928Y-10803214D02*
X22078928Y-11060357D01*
X22093214Y-11088929D01*
X22121786Y-11103214D01*
X22150357Y-11103214D01*
X22364643Y-11088929D02*
X22336071Y-11103214D01*
X22278928Y-11103214D01*
X22250357Y-11088929D01*
X22236071Y-11060357D01*
X22236071Y-10946072D01*
X22250357Y-10917500D01*
X22278928Y-10903214D01*
X22336071Y-10903214D01*
X22364643Y-10917500D01*
X22378928Y-10946072D01*
X22378928Y-10974643D01*
X22236071Y-11003214D01*
X22636071Y-11103214D02*
X22636071Y-10803214D01*
X22636071Y-11088929D02*
X22607500Y-11103214D01*
X22550357Y-11103214D01*
X22521786Y-11088929D01*
X22507500Y-11074643D01*
X22493214Y-11046072D01*
X22493214Y-10960357D01*
X22507500Y-10931786D01*
X22521786Y-10917500D01*
X22550357Y-10903214D01*
X22607500Y-10903214D01*
X22636071Y-10917500D01*
X22750357Y-11217500D02*
X22764643Y-11203214D01*
X22793214Y-11160357D01*
X22807500Y-11131786D01*
X22821786Y-11088929D01*
X22836071Y-11017500D01*
X22836071Y-10960357D01*
X22821786Y-10888929D01*
X22807500Y-10846072D01*
X22793214Y-10817500D01*
X22764643Y-10774643D01*
X22750357Y-10760357D01*
M02*
