G04 #@! TF.GenerationSoftware,KiCad,Pcbnew,5.1.9+dfsg1-1*
G04 #@! TF.CreationDate,2022-06-11T21:35:15-07:00*
G04 #@! TF.ProjectId,keygame,6b657967-616d-4652-9e6b-696361645f70,rev?*
G04 #@! TF.SameCoordinates,Original*
G04 #@! TF.FileFunction,Legend,Bot*
G04 #@! TF.FilePolarity,Positive*
%FSLAX46Y46*%
G04 Gerber Fmt 4.6, Leading zero omitted, Abs format (unit mm)*
G04 Created by KiCad (PCBNEW 5.1.9+dfsg1-1) date 2022-06-11 21:35:15*
%MOMM*%
%LPD*%
G01*
G04 APERTURE LIST*
%ADD10C,0.150000*%
%ADD11C,0.120000*%
%ADD12C,0.100000*%
%ADD13R,0.650000X1.050000*%
%ADD14C,0.800000*%
%ADD15C,6.400000*%
%ADD16R,1.700000X1.700000*%
%ADD17O,1.700000X1.700000*%
%ADD18C,2.000000*%
%ADD19C,1.524000*%
%ADD20C,1.800000*%
%ADD21C,4.000000*%
%ADD22R,2.000000X0.500000*%
%ADD23R,1.000000X1.500000*%
%ADD24R,2.000000X3.800000*%
%ADD25R,2.000000X1.500000*%
%ADD26C,1.500000*%
%ADD27O,1.600000X1.000000*%
%ADD28C,0.650000*%
%ADD29O,2.100000X1.000000*%
%ADD30R,1.450000X0.300000*%
%ADD31R,1.450000X0.600000*%
%ADD32C,0.254000*%
G04 APERTURE END LIST*
D10*
X179161904Y-57652380D02*
X179780952Y-57652380D01*
X179447619Y-58033333D01*
X179590476Y-58033333D01*
X179685714Y-58080952D01*
X179733333Y-58128571D01*
X179780952Y-58223809D01*
X179780952Y-58461904D01*
X179733333Y-58557142D01*
X179685714Y-58604761D01*
X179590476Y-58652380D01*
X179304761Y-58652380D01*
X179209523Y-58604761D01*
X179161904Y-58557142D01*
X180066666Y-57652380D02*
X180400000Y-58652380D01*
X180733333Y-57652380D01*
X180971428Y-57652380D02*
X181590476Y-57652380D01*
X181257142Y-58033333D01*
X181400000Y-58033333D01*
X181495238Y-58080952D01*
X181542857Y-58128571D01*
X181590476Y-58223809D01*
X181590476Y-58461904D01*
X181542857Y-58557142D01*
X181495238Y-58604761D01*
X181400000Y-58652380D01*
X181114285Y-58652380D01*
X181019047Y-58604761D01*
X180971428Y-58557142D01*
X182438095Y-51500000D02*
X182342857Y-51452380D01*
X182200000Y-51452380D01*
X182057142Y-51500000D01*
X181961904Y-51595238D01*
X181914285Y-51690476D01*
X181866666Y-51880952D01*
X181866666Y-52023809D01*
X181914285Y-52214285D01*
X181961904Y-52309523D01*
X182057142Y-52404761D01*
X182200000Y-52452380D01*
X182295238Y-52452380D01*
X182438095Y-52404761D01*
X182485714Y-52357142D01*
X182485714Y-52023809D01*
X182295238Y-52023809D01*
X182914285Y-52452380D02*
X182914285Y-51452380D01*
X183485714Y-52452380D01*
X183485714Y-51452380D01*
X183961904Y-52452380D02*
X183961904Y-51452380D01*
X184200000Y-51452380D01*
X184342857Y-51500000D01*
X184438095Y-51595238D01*
X184485714Y-51690476D01*
X184533333Y-51880952D01*
X184533333Y-52023809D01*
X184485714Y-52214285D01*
X184438095Y-52309523D01*
X184342857Y-52404761D01*
X184200000Y-52452380D01*
X183961904Y-52452380D01*
X186652380Y-52452380D02*
X186319047Y-51976190D01*
X186080952Y-52452380D02*
X186080952Y-51452380D01*
X186461904Y-51452380D01*
X186557142Y-51500000D01*
X186604761Y-51547619D01*
X186652380Y-51642857D01*
X186652380Y-51785714D01*
X186604761Y-51880952D01*
X186557142Y-51928571D01*
X186461904Y-51976190D01*
X186080952Y-51976190D01*
X187033333Y-52404761D02*
X187176190Y-52452380D01*
X187414285Y-52452380D01*
X187509523Y-52404761D01*
X187557142Y-52357142D01*
X187604761Y-52261904D01*
X187604761Y-52166666D01*
X187557142Y-52071428D01*
X187509523Y-52023809D01*
X187414285Y-51976190D01*
X187223809Y-51928571D01*
X187128571Y-51880952D01*
X187080952Y-51833333D01*
X187033333Y-51738095D01*
X187033333Y-51642857D01*
X187080952Y-51547619D01*
X187128571Y-51500000D01*
X187223809Y-51452380D01*
X187461904Y-51452380D01*
X187604761Y-51500000D01*
X187890476Y-51452380D02*
X188461904Y-51452380D01*
X188176190Y-52452380D02*
X188176190Y-51452380D01*
X188400000Y-58200000D02*
X188200000Y-58200000D01*
X188600000Y-57200000D02*
X188200000Y-57200000D01*
X188600000Y-61200000D02*
X188600000Y-57200000D01*
X188400000Y-61400000D02*
X188600000Y-61200000D01*
X188400000Y-59800000D02*
X188400000Y-58200000D01*
X188200000Y-60000000D02*
X188400000Y-59800000D01*
X186204761Y-61757142D02*
X186157142Y-61804761D01*
X186014285Y-61852380D01*
X185919047Y-61852380D01*
X185776190Y-61804761D01*
X185680952Y-61709523D01*
X185633333Y-61614285D01*
X185585714Y-61423809D01*
X185585714Y-61280952D01*
X185633333Y-61090476D01*
X185680952Y-60995238D01*
X185776190Y-60900000D01*
X185919047Y-60852380D01*
X186014285Y-60852380D01*
X186157142Y-60900000D01*
X186204761Y-60947619D01*
X187109523Y-61852380D02*
X186633333Y-61852380D01*
X186633333Y-60852380D01*
X187442857Y-61852380D02*
X187442857Y-60852380D01*
X188014285Y-61852380D02*
X187585714Y-61280952D01*
X188014285Y-60852380D02*
X187442857Y-61423809D01*
X186876190Y-60452380D02*
X186876190Y-59452380D01*
X187542857Y-59452380D02*
X187733333Y-59452380D01*
X187828571Y-59500000D01*
X187923809Y-59595238D01*
X187971428Y-59785714D01*
X187971428Y-60119047D01*
X187923809Y-60309523D01*
X187828571Y-60404761D01*
X187733333Y-60452380D01*
X187542857Y-60452380D01*
X187447619Y-60404761D01*
X187352380Y-60309523D01*
X187304761Y-60119047D01*
X187304761Y-59785714D01*
X187352380Y-59595238D01*
X187447619Y-59500000D01*
X187542857Y-59452380D01*
D11*
X137800000Y-61200000D02*
X137800000Y-56800000D01*
X137800000Y-56800000D02*
X137920000Y-56800000D01*
X138930000Y-56800000D02*
X140070000Y-56800000D01*
X141080000Y-56800000D02*
X141200000Y-56800000D01*
X141200000Y-56800000D02*
X141200000Y-61200000D01*
X141200000Y-61200000D02*
X141080000Y-61200000D01*
X140070000Y-61200000D02*
X138930000Y-61200000D01*
X137920000Y-61200000D02*
X137800000Y-61200000D01*
X137080000Y-56800000D02*
X137200000Y-56800000D01*
X134930000Y-56800000D02*
X136070000Y-56800000D01*
X133800000Y-56800000D02*
X133920000Y-56800000D01*
X133800000Y-61200000D02*
X133800000Y-56800000D01*
X133920000Y-61200000D02*
X133800000Y-61200000D01*
X136070000Y-61200000D02*
X134930000Y-61200000D01*
X137200000Y-61200000D02*
X137080000Y-61200000D01*
X137200000Y-56800000D02*
X137200000Y-61200000D01*
X141865835Y-89360000D02*
X141634165Y-89360000D01*
X141865835Y-88640000D02*
X141634165Y-88640000D01*
X136384165Y-84110000D02*
X136615835Y-84110000D01*
X136384165Y-83390000D02*
X136615835Y-83390000D01*
X149340835Y-81860000D02*
X149109165Y-81860000D01*
X149340835Y-81140000D02*
X149109165Y-81140000D01*
X141615835Y-74360000D02*
X141384165Y-74360000D01*
X141615835Y-73640000D02*
X141384165Y-73640000D01*
X186115835Y-78640000D02*
X185884165Y-78640000D01*
X186115835Y-79360000D02*
X185884165Y-79360000D01*
X166865835Y-81360000D02*
X166634165Y-81360000D01*
X166865835Y-80640000D02*
X166634165Y-80640000D01*
X155765835Y-60890000D02*
X155534165Y-60890000D01*
X155765835Y-61610000D02*
X155534165Y-61610000D01*
X171534165Y-62390000D02*
X171765835Y-62390000D01*
X171534165Y-63110000D02*
X171765835Y-63110000D01*
X155661252Y-64485000D02*
X155138748Y-64485000D01*
X155661252Y-63015000D02*
X155138748Y-63015000D01*
X155161252Y-66015000D02*
X154638748Y-66015000D01*
X155161252Y-67485000D02*
X154638748Y-67485000D01*
X155765835Y-62610000D02*
X155534165Y-62610000D01*
X155765835Y-61890000D02*
X155534165Y-61890000D01*
X171534165Y-62110000D02*
X171765835Y-62110000D01*
X171534165Y-61390000D02*
X171765835Y-61390000D01*
X164040000Y-54615835D02*
X164040000Y-54384165D01*
X164760000Y-54615835D02*
X164760000Y-54384165D01*
X161260000Y-54615835D02*
X161260000Y-54384165D01*
X160540000Y-54615835D02*
X160540000Y-54384165D01*
X159040000Y-69134165D02*
X159040000Y-69365835D01*
X159760000Y-69134165D02*
X159760000Y-69365835D01*
X158760000Y-69134165D02*
X158760000Y-69365835D01*
X158040000Y-69134165D02*
X158040000Y-69365835D01*
X155765835Y-64890000D02*
X155534165Y-64890000D01*
X155765835Y-65610000D02*
X155534165Y-65610000D01*
X164760000Y-69134165D02*
X164760000Y-69365835D01*
X164040000Y-69134165D02*
X164040000Y-69365835D01*
X152234165Y-63910000D02*
X152465835Y-63910000D01*
X152234165Y-63190000D02*
X152465835Y-63190000D01*
X186510000Y-53660000D02*
X186510000Y-53610000D01*
X184090000Y-53660000D02*
X184090000Y-53610000D01*
X186510000Y-58730000D02*
X186510000Y-58680000D01*
X184090000Y-58730000D02*
X184090000Y-58680000D01*
X182710000Y-58680000D02*
X184090000Y-58680000D01*
X184090000Y-53610000D02*
X186510000Y-53610000D01*
X184090000Y-58730000D02*
X186510000Y-58730000D01*
X167700000Y-29700000D02*
X170500000Y-29700000D01*
X171150000Y-29000000D02*
X171150000Y-28400000D01*
X170500000Y-27700000D02*
X167700000Y-27700000D01*
X167050000Y-28400000D02*
X167050000Y-29000000D01*
X167900000Y-27500000D02*
X167600000Y-27200000D01*
X167600000Y-27200000D02*
X168200000Y-27200000D01*
X167900000Y-27500000D02*
X168200000Y-27200000D01*
X170450000Y-29700000D02*
G75*
G03*
X171150000Y-29000000I0J700000D01*
G01*
X171150000Y-28400000D02*
G75*
G03*
X170450000Y-27700000I-700000J0D01*
G01*
X167750000Y-27700000D02*
G75*
G03*
X167050000Y-28400000I0J-700000D01*
G01*
X167050000Y-29000000D02*
G75*
G03*
X167750000Y-29700000I700000J0D01*
G01*
X182852936Y-66995000D02*
X183307064Y-66995000D01*
X182852936Y-68465000D02*
X183307064Y-68465000D01*
X141667621Y-73130000D02*
X141332379Y-73130000D01*
X141667621Y-72370000D02*
X141332379Y-72370000D01*
X141917621Y-88130000D02*
X141582379Y-88130000D01*
X141917621Y-87370000D02*
X141582379Y-87370000D01*
X136332379Y-84620000D02*
X136667621Y-84620000D01*
X136332379Y-85380000D02*
X136667621Y-85380000D01*
X149417621Y-80630000D02*
X149082379Y-80630000D01*
X149417621Y-79870000D02*
X149082379Y-79870000D01*
X186167621Y-77290000D02*
X185832379Y-77290000D01*
X186167621Y-78050000D02*
X185832379Y-78050000D01*
X166892621Y-80130000D02*
X166557379Y-80130000D01*
X166892621Y-79370000D02*
X166557379Y-79370000D01*
X134120000Y-63667621D02*
X134120000Y-63332379D01*
X134880000Y-63667621D02*
X134880000Y-63332379D01*
X141080000Y-63367621D02*
X141080000Y-63032379D01*
X140320000Y-63367621D02*
X140320000Y-63032379D01*
X171817621Y-60370000D02*
X171482379Y-60370000D01*
X171817621Y-61130000D02*
X171482379Y-61130000D01*
X171817621Y-58370000D02*
X171482379Y-58370000D01*
X171817621Y-59130000D02*
X171482379Y-59130000D01*
X171817621Y-59370000D02*
X171482379Y-59370000D01*
X171817621Y-60130000D02*
X171482379Y-60130000D01*
X179167621Y-31380000D02*
X178832379Y-31380000D01*
X179167621Y-30620000D02*
X178832379Y-30620000D01*
X139270000Y-63032379D02*
X139270000Y-63367621D01*
X140030000Y-63032379D02*
X140030000Y-63367621D01*
X159890000Y-59040000D02*
X159890000Y-58390000D01*
X167110000Y-65610000D02*
X166460000Y-65610000D01*
X167110000Y-64960000D02*
X167110000Y-65610000D01*
X167110000Y-58390000D02*
X166460000Y-58390000D01*
X167110000Y-59040000D02*
X167110000Y-58390000D01*
X159890000Y-65610000D02*
X160540000Y-65610000D01*
X159890000Y-64960000D02*
X159890000Y-65610000D01*
X143625000Y-64015000D02*
X141950000Y-64015000D01*
X143625000Y-64275000D02*
X143625000Y-64015000D01*
X146350000Y-64275000D02*
X143625000Y-64275000D01*
X149075000Y-64275000D02*
X149075000Y-64015000D01*
X146350000Y-64275000D02*
X149075000Y-64275000D01*
X143625000Y-58825000D02*
X143625000Y-59085000D01*
X146350000Y-58825000D02*
X143625000Y-58825000D01*
X149075000Y-58825000D02*
X149075000Y-59085000D01*
X146350000Y-58825000D02*
X149075000Y-58825000D01*
X187600000Y-39340000D02*
X181590000Y-39340000D01*
X185350000Y-46160000D02*
X181590000Y-46160000D01*
X181590000Y-39340000D02*
X181590000Y-40600000D01*
X181590000Y-46160000D02*
X181590000Y-44900000D01*
X175450000Y-69600000D02*
X170750000Y-69600000D01*
X175450000Y-65900000D02*
X170750000Y-65900000D01*
X175450000Y-69600000D02*
G75*
G03*
X175450000Y-65900000I0J1850000D01*
G01*
X170750000Y-69600000D02*
G75*
G02*
X170750000Y-65900000I0J1850000D01*
G01*
X170890000Y-64615835D02*
X170890000Y-64384165D01*
X171610000Y-64615835D02*
X171610000Y-64384165D01*
X175360000Y-64615835D02*
X175360000Y-64384165D01*
X174640000Y-64615835D02*
X174640000Y-64384165D01*
X190150000Y-25410000D02*
X190150000Y-34810000D01*
X184350000Y-34810000D02*
X186350000Y-34810000D01*
X188250000Y-34810000D02*
X190150000Y-34810000D01*
X184350000Y-25410000D02*
X186350000Y-25410000D01*
X188250000Y-25410000D02*
X190150000Y-25410000D01*
D12*
X175120000Y-21107500D02*
G75*
G03*
X175120000Y-21107500I-50000J0D01*
G01*
X176170000Y-21105000D02*
G75*
G03*
X176170000Y-21105000I-50000J0D01*
G01*
X176875000Y-18150000D02*
G75*
G03*
X176875000Y-18150000I-50000J0D01*
G01*
D11*
X173640000Y-20027621D02*
X173640000Y-19692379D01*
X174400000Y-20027621D02*
X174400000Y-19692379D01*
X177560000Y-20027621D02*
X177560000Y-19692379D01*
X176800000Y-20027621D02*
X176800000Y-19692379D01*
X175727621Y-17460000D02*
X175392379Y-17460000D01*
X175727621Y-16700000D02*
X175392379Y-16700000D01*
X186211252Y-47340000D02*
X184788748Y-47340000D01*
X186211252Y-49160000D02*
X184788748Y-49160000D01*
X185038748Y-36340000D02*
X186461252Y-36340000D01*
X185038748Y-38160000D02*
X186461252Y-38160000D01*
X178254724Y-31677500D02*
X177745276Y-31677500D01*
X178254724Y-32722500D02*
X177745276Y-32722500D01*
X178254724Y-34322500D02*
X177745276Y-34322500D01*
X178254724Y-33277500D02*
X177745276Y-33277500D01*
X173390000Y-40702064D02*
X173390000Y-39497936D01*
X175210000Y-40702064D02*
X175210000Y-39497936D01*
D10*
X137304761Y-57666666D02*
X137352380Y-57809523D01*
X137352380Y-58047619D01*
X137304761Y-58142857D01*
X137257142Y-58190476D01*
X137161904Y-58238095D01*
X137066666Y-58238095D01*
X136971428Y-58190476D01*
X136923809Y-58142857D01*
X136876190Y-58047619D01*
X136828571Y-57857142D01*
X136780952Y-57761904D01*
X136733333Y-57714285D01*
X136638095Y-57666666D01*
X136542857Y-57666666D01*
X136447619Y-57714285D01*
X136400000Y-57761904D01*
X136352380Y-57857142D01*
X136352380Y-58095238D01*
X136400000Y-58238095D01*
X136352380Y-58571428D02*
X137352380Y-58809523D01*
X136638095Y-59000000D01*
X137352380Y-59190476D01*
X136352380Y-59428571D01*
X137352380Y-59857142D02*
X137352380Y-60047619D01*
X137304761Y-60142857D01*
X137257142Y-60190476D01*
X137114285Y-60285714D01*
X136923809Y-60333333D01*
X136542857Y-60333333D01*
X136447619Y-60285714D01*
X136400000Y-60238095D01*
X136352380Y-60142857D01*
X136352380Y-59952380D01*
X136400000Y-59857142D01*
X136447619Y-59809523D01*
X136542857Y-59761904D01*
X136780952Y-59761904D01*
X136876190Y-59809523D01*
X136923809Y-59857142D01*
X136971428Y-59952380D01*
X136971428Y-60142857D01*
X136923809Y-60238095D01*
X136876190Y-60285714D01*
X136780952Y-60333333D01*
X138504761Y-57666666D02*
X138552380Y-57809523D01*
X138552380Y-58047619D01*
X138504761Y-58142857D01*
X138457142Y-58190476D01*
X138361904Y-58238095D01*
X138266666Y-58238095D01*
X138171428Y-58190476D01*
X138123809Y-58142857D01*
X138076190Y-58047619D01*
X138028571Y-57857142D01*
X137980952Y-57761904D01*
X137933333Y-57714285D01*
X137838095Y-57666666D01*
X137742857Y-57666666D01*
X137647619Y-57714285D01*
X137600000Y-57761904D01*
X137552380Y-57857142D01*
X137552380Y-58095238D01*
X137600000Y-58238095D01*
X137552380Y-58571428D02*
X138552380Y-58809523D01*
X137838095Y-59000000D01*
X138552380Y-59190476D01*
X137552380Y-59428571D01*
X137552380Y-59714285D02*
X137552380Y-60380952D01*
X138552380Y-59952380D01*
X139766666Y-89557142D02*
X139814285Y-89604761D01*
X139957142Y-89652380D01*
X140052380Y-89652380D01*
X140195238Y-89604761D01*
X140290476Y-89509523D01*
X140338095Y-89414285D01*
X140385714Y-89223809D01*
X140385714Y-89080952D01*
X140338095Y-88890476D01*
X140290476Y-88795238D01*
X140195238Y-88700000D01*
X140052380Y-88652380D01*
X139957142Y-88652380D01*
X139814285Y-88700000D01*
X139766666Y-88747619D01*
X138814285Y-89652380D02*
X139385714Y-89652380D01*
X139100000Y-89652380D02*
X139100000Y-88652380D01*
X139195238Y-88795238D01*
X139290476Y-88890476D01*
X139385714Y-88938095D01*
X134566666Y-84157142D02*
X134614285Y-84204761D01*
X134757142Y-84252380D01*
X134852380Y-84252380D01*
X134995238Y-84204761D01*
X135090476Y-84109523D01*
X135138095Y-84014285D01*
X135185714Y-83823809D01*
X135185714Y-83680952D01*
X135138095Y-83490476D01*
X135090476Y-83395238D01*
X134995238Y-83300000D01*
X134852380Y-83252380D01*
X134757142Y-83252380D01*
X134614285Y-83300000D01*
X134566666Y-83347619D01*
X134185714Y-83347619D02*
X134138095Y-83300000D01*
X134042857Y-83252380D01*
X133804761Y-83252380D01*
X133709523Y-83300000D01*
X133661904Y-83347619D01*
X133614285Y-83442857D01*
X133614285Y-83538095D01*
X133661904Y-83680952D01*
X134233333Y-84252380D01*
X133614285Y-84252380D01*
X147366666Y-81957142D02*
X147414285Y-82004761D01*
X147557142Y-82052380D01*
X147652380Y-82052380D01*
X147795238Y-82004761D01*
X147890476Y-81909523D01*
X147938095Y-81814285D01*
X147985714Y-81623809D01*
X147985714Y-81480952D01*
X147938095Y-81290476D01*
X147890476Y-81195238D01*
X147795238Y-81100000D01*
X147652380Y-81052380D01*
X147557142Y-81052380D01*
X147414285Y-81100000D01*
X147366666Y-81147619D01*
X147033333Y-81052380D02*
X146414285Y-81052380D01*
X146747619Y-81433333D01*
X146604761Y-81433333D01*
X146509523Y-81480952D01*
X146461904Y-81528571D01*
X146414285Y-81623809D01*
X146414285Y-81861904D01*
X146461904Y-81957142D01*
X146509523Y-82004761D01*
X146604761Y-82052380D01*
X146890476Y-82052380D01*
X146985714Y-82004761D01*
X147033333Y-81957142D01*
X139566666Y-74557142D02*
X139614285Y-74604761D01*
X139757142Y-74652380D01*
X139852380Y-74652380D01*
X139995238Y-74604761D01*
X140090476Y-74509523D01*
X140138095Y-74414285D01*
X140185714Y-74223809D01*
X140185714Y-74080952D01*
X140138095Y-73890476D01*
X140090476Y-73795238D01*
X139995238Y-73700000D01*
X139852380Y-73652380D01*
X139757142Y-73652380D01*
X139614285Y-73700000D01*
X139566666Y-73747619D01*
X138709523Y-73985714D02*
X138709523Y-74652380D01*
X138947619Y-73604761D02*
X139185714Y-74319047D01*
X138566666Y-74319047D01*
X184166666Y-79557142D02*
X184214285Y-79604761D01*
X184357142Y-79652380D01*
X184452380Y-79652380D01*
X184595238Y-79604761D01*
X184690476Y-79509523D01*
X184738095Y-79414285D01*
X184785714Y-79223809D01*
X184785714Y-79080952D01*
X184738095Y-78890476D01*
X184690476Y-78795238D01*
X184595238Y-78700000D01*
X184452380Y-78652380D01*
X184357142Y-78652380D01*
X184214285Y-78700000D01*
X184166666Y-78747619D01*
X183261904Y-78652380D02*
X183738095Y-78652380D01*
X183785714Y-79128571D01*
X183738095Y-79080952D01*
X183642857Y-79033333D01*
X183404761Y-79033333D01*
X183309523Y-79080952D01*
X183261904Y-79128571D01*
X183214285Y-79223809D01*
X183214285Y-79461904D01*
X183261904Y-79557142D01*
X183309523Y-79604761D01*
X183404761Y-79652380D01*
X183642857Y-79652380D01*
X183738095Y-79604761D01*
X183785714Y-79557142D01*
X164766666Y-81557142D02*
X164814285Y-81604761D01*
X164957142Y-81652380D01*
X165052380Y-81652380D01*
X165195238Y-81604761D01*
X165290476Y-81509523D01*
X165338095Y-81414285D01*
X165385714Y-81223809D01*
X165385714Y-81080952D01*
X165338095Y-80890476D01*
X165290476Y-80795238D01*
X165195238Y-80700000D01*
X165052380Y-80652380D01*
X164957142Y-80652380D01*
X164814285Y-80700000D01*
X164766666Y-80747619D01*
X163909523Y-80652380D02*
X164100000Y-80652380D01*
X164195238Y-80700000D01*
X164242857Y-80747619D01*
X164338095Y-80890476D01*
X164385714Y-81080952D01*
X164385714Y-81461904D01*
X164338095Y-81557142D01*
X164290476Y-81604761D01*
X164195238Y-81652380D01*
X164004761Y-81652380D01*
X163909523Y-81604761D01*
X163861904Y-81557142D01*
X163814285Y-81461904D01*
X163814285Y-81223809D01*
X163861904Y-81128571D01*
X163909523Y-81080952D01*
X164004761Y-81033333D01*
X164195238Y-81033333D01*
X164290476Y-81080952D01*
X164338095Y-81128571D01*
X164385714Y-81223809D01*
X153766666Y-61357142D02*
X153814285Y-61404761D01*
X153957142Y-61452380D01*
X154052380Y-61452380D01*
X154195238Y-61404761D01*
X154290476Y-61309523D01*
X154338095Y-61214285D01*
X154385714Y-61023809D01*
X154385714Y-60880952D01*
X154338095Y-60690476D01*
X154290476Y-60595238D01*
X154195238Y-60500000D01*
X154052380Y-60452380D01*
X153957142Y-60452380D01*
X153814285Y-60500000D01*
X153766666Y-60547619D01*
X153290476Y-61452380D02*
X153100000Y-61452380D01*
X153004761Y-61404761D01*
X152957142Y-61357142D01*
X152861904Y-61214285D01*
X152814285Y-61023809D01*
X152814285Y-60642857D01*
X152861904Y-60547619D01*
X152909523Y-60500000D01*
X153004761Y-60452380D01*
X153195238Y-60452380D01*
X153290476Y-60500000D01*
X153338095Y-60547619D01*
X153385714Y-60642857D01*
X153385714Y-60880952D01*
X153338095Y-60976190D01*
X153290476Y-61023809D01*
X153195238Y-61071428D01*
X153004761Y-61071428D01*
X152909523Y-61023809D01*
X152861904Y-60976190D01*
X152814285Y-60880952D01*
X169842857Y-63157142D02*
X169890476Y-63204761D01*
X170033333Y-63252380D01*
X170128571Y-63252380D01*
X170271428Y-63204761D01*
X170366666Y-63109523D01*
X170414285Y-63014285D01*
X170461904Y-62823809D01*
X170461904Y-62680952D01*
X170414285Y-62490476D01*
X170366666Y-62395238D01*
X170271428Y-62300000D01*
X170128571Y-62252380D01*
X170033333Y-62252380D01*
X169890476Y-62300000D01*
X169842857Y-62347619D01*
X168890476Y-63252380D02*
X169461904Y-63252380D01*
X169176190Y-63252380D02*
X169176190Y-62252380D01*
X169271428Y-62395238D01*
X169366666Y-62490476D01*
X169461904Y-62538095D01*
X168271428Y-62252380D02*
X168176190Y-62252380D01*
X168080952Y-62300000D01*
X168033333Y-62347619D01*
X167985714Y-62442857D01*
X167938095Y-62633333D01*
X167938095Y-62871428D01*
X167985714Y-63061904D01*
X168033333Y-63157142D01*
X168080952Y-63204761D01*
X168176190Y-63252380D01*
X168271428Y-63252380D01*
X168366666Y-63204761D01*
X168414285Y-63157142D01*
X168461904Y-63061904D01*
X168509523Y-62871428D01*
X168509523Y-62633333D01*
X168461904Y-62442857D01*
X168414285Y-62347619D01*
X168366666Y-62300000D01*
X168271428Y-62252380D01*
X158682142Y-64157142D02*
X158717857Y-64204761D01*
X158825000Y-64252380D01*
X158896428Y-64252380D01*
X159003571Y-64204761D01*
X159075000Y-64109523D01*
X159110714Y-64014285D01*
X159146428Y-63823809D01*
X159146428Y-63680952D01*
X159110714Y-63490476D01*
X159075000Y-63395238D01*
X159003571Y-63300000D01*
X158896428Y-63252380D01*
X158825000Y-63252380D01*
X158717857Y-63300000D01*
X158682142Y-63347619D01*
X157967857Y-64252380D02*
X158396428Y-64252380D01*
X158182142Y-64252380D02*
X158182142Y-63252380D01*
X158253571Y-63395238D01*
X158325000Y-63490476D01*
X158396428Y-63538095D01*
X157253571Y-64252380D02*
X157682142Y-64252380D01*
X157467857Y-64252380D02*
X157467857Y-63252380D01*
X157539285Y-63395238D01*
X157610714Y-63490476D01*
X157682142Y-63538095D01*
X152242857Y-67157142D02*
X152290476Y-67204761D01*
X152433333Y-67252380D01*
X152528571Y-67252380D01*
X152671428Y-67204761D01*
X152766666Y-67109523D01*
X152814285Y-67014285D01*
X152861904Y-66823809D01*
X152861904Y-66680952D01*
X152814285Y-66490476D01*
X152766666Y-66395238D01*
X152671428Y-66300000D01*
X152528571Y-66252380D01*
X152433333Y-66252380D01*
X152290476Y-66300000D01*
X152242857Y-66347619D01*
X151290476Y-67252380D02*
X151861904Y-67252380D01*
X151576190Y-67252380D02*
X151576190Y-66252380D01*
X151671428Y-66395238D01*
X151766666Y-66490476D01*
X151861904Y-66538095D01*
X150909523Y-66347619D02*
X150861904Y-66300000D01*
X150766666Y-66252380D01*
X150528571Y-66252380D01*
X150433333Y-66300000D01*
X150385714Y-66347619D01*
X150338095Y-66442857D01*
X150338095Y-66538095D01*
X150385714Y-66680952D01*
X150957142Y-67252380D01*
X150338095Y-67252380D01*
X158842857Y-62557142D02*
X158890476Y-62604761D01*
X159033333Y-62652380D01*
X159128571Y-62652380D01*
X159271428Y-62604761D01*
X159366666Y-62509523D01*
X159414285Y-62414285D01*
X159461904Y-62223809D01*
X159461904Y-62080952D01*
X159414285Y-61890476D01*
X159366666Y-61795238D01*
X159271428Y-61700000D01*
X159128571Y-61652380D01*
X159033333Y-61652380D01*
X158890476Y-61700000D01*
X158842857Y-61747619D01*
X157890476Y-62652380D02*
X158461904Y-62652380D01*
X158176190Y-62652380D02*
X158176190Y-61652380D01*
X158271428Y-61795238D01*
X158366666Y-61890476D01*
X158461904Y-61938095D01*
X157557142Y-61652380D02*
X156938095Y-61652380D01*
X157271428Y-62033333D01*
X157128571Y-62033333D01*
X157033333Y-62080952D01*
X156985714Y-62128571D01*
X156938095Y-62223809D01*
X156938095Y-62461904D01*
X156985714Y-62557142D01*
X157033333Y-62604761D01*
X157128571Y-62652380D01*
X157414285Y-62652380D01*
X157509523Y-62604761D01*
X157557142Y-62557142D01*
X169842857Y-61957142D02*
X169890476Y-62004761D01*
X170033333Y-62052380D01*
X170128571Y-62052380D01*
X170271428Y-62004761D01*
X170366666Y-61909523D01*
X170414285Y-61814285D01*
X170461904Y-61623809D01*
X170461904Y-61480952D01*
X170414285Y-61290476D01*
X170366666Y-61195238D01*
X170271428Y-61100000D01*
X170128571Y-61052380D01*
X170033333Y-61052380D01*
X169890476Y-61100000D01*
X169842857Y-61147619D01*
X168890476Y-62052380D02*
X169461904Y-62052380D01*
X169176190Y-62052380D02*
X169176190Y-61052380D01*
X169271428Y-61195238D01*
X169366666Y-61290476D01*
X169461904Y-61338095D01*
X168033333Y-61385714D02*
X168033333Y-62052380D01*
X168271428Y-61004761D02*
X168509523Y-61719047D01*
X167890476Y-61719047D01*
X165917142Y-53857142D02*
X165964761Y-53809523D01*
X166012380Y-53666666D01*
X166012380Y-53571428D01*
X165964761Y-53428571D01*
X165869523Y-53333333D01*
X165774285Y-53285714D01*
X165583809Y-53238095D01*
X165440952Y-53238095D01*
X165250476Y-53285714D01*
X165155238Y-53333333D01*
X165060000Y-53428571D01*
X165012380Y-53571428D01*
X165012380Y-53666666D01*
X165060000Y-53809523D01*
X165107619Y-53857142D01*
X166012380Y-54809523D02*
X166012380Y-54238095D01*
X166012380Y-54523809D02*
X165012380Y-54523809D01*
X165155238Y-54428571D01*
X165250476Y-54333333D01*
X165298095Y-54238095D01*
X165012380Y-55714285D02*
X165012380Y-55238095D01*
X165488571Y-55190476D01*
X165440952Y-55238095D01*
X165393333Y-55333333D01*
X165393333Y-55571428D01*
X165440952Y-55666666D01*
X165488571Y-55714285D01*
X165583809Y-55761904D01*
X165821904Y-55761904D01*
X165917142Y-55714285D01*
X165964761Y-55666666D01*
X166012380Y-55571428D01*
X166012380Y-55333333D01*
X165964761Y-55238095D01*
X165917142Y-55190476D01*
X162417142Y-53857142D02*
X162464761Y-53809523D01*
X162512380Y-53666666D01*
X162512380Y-53571428D01*
X162464761Y-53428571D01*
X162369523Y-53333333D01*
X162274285Y-53285714D01*
X162083809Y-53238095D01*
X161940952Y-53238095D01*
X161750476Y-53285714D01*
X161655238Y-53333333D01*
X161560000Y-53428571D01*
X161512380Y-53571428D01*
X161512380Y-53666666D01*
X161560000Y-53809523D01*
X161607619Y-53857142D01*
X162512380Y-54809523D02*
X162512380Y-54238095D01*
X162512380Y-54523809D02*
X161512380Y-54523809D01*
X161655238Y-54428571D01*
X161750476Y-54333333D01*
X161798095Y-54238095D01*
X161512380Y-55666666D02*
X161512380Y-55476190D01*
X161560000Y-55380952D01*
X161607619Y-55333333D01*
X161750476Y-55238095D01*
X161940952Y-55190476D01*
X162321904Y-55190476D01*
X162417142Y-55238095D01*
X162464761Y-55285714D01*
X162512380Y-55380952D01*
X162512380Y-55571428D01*
X162464761Y-55666666D01*
X162417142Y-55714285D01*
X162321904Y-55761904D01*
X162083809Y-55761904D01*
X161988571Y-55714285D01*
X161940952Y-55666666D01*
X161893333Y-55571428D01*
X161893333Y-55380952D01*
X161940952Y-55285714D01*
X161988571Y-55238095D01*
X162083809Y-55190476D01*
X160157142Y-71157142D02*
X160204761Y-71109523D01*
X160252380Y-70966666D01*
X160252380Y-70871428D01*
X160204761Y-70728571D01*
X160109523Y-70633333D01*
X160014285Y-70585714D01*
X159823809Y-70538095D01*
X159680952Y-70538095D01*
X159490476Y-70585714D01*
X159395238Y-70633333D01*
X159300000Y-70728571D01*
X159252380Y-70871428D01*
X159252380Y-70966666D01*
X159300000Y-71109523D01*
X159347619Y-71157142D01*
X160252380Y-72109523D02*
X160252380Y-71538095D01*
X160252380Y-71823809D02*
X159252380Y-71823809D01*
X159395238Y-71728571D01*
X159490476Y-71633333D01*
X159538095Y-71538095D01*
X159252380Y-72442857D02*
X159252380Y-73109523D01*
X160252380Y-72680952D01*
X158757142Y-71157142D02*
X158804761Y-71109523D01*
X158852380Y-70966666D01*
X158852380Y-70871428D01*
X158804761Y-70728571D01*
X158709523Y-70633333D01*
X158614285Y-70585714D01*
X158423809Y-70538095D01*
X158280952Y-70538095D01*
X158090476Y-70585714D01*
X157995238Y-70633333D01*
X157900000Y-70728571D01*
X157852380Y-70871428D01*
X157852380Y-70966666D01*
X157900000Y-71109523D01*
X157947619Y-71157142D01*
X158852380Y-72109523D02*
X158852380Y-71538095D01*
X158852380Y-71823809D02*
X157852380Y-71823809D01*
X157995238Y-71728571D01*
X158090476Y-71633333D01*
X158138095Y-71538095D01*
X158280952Y-72680952D02*
X158233333Y-72585714D01*
X158185714Y-72538095D01*
X158090476Y-72490476D01*
X158042857Y-72490476D01*
X157947619Y-72538095D01*
X157900000Y-72585714D01*
X157852380Y-72680952D01*
X157852380Y-72871428D01*
X157900000Y-72966666D01*
X157947619Y-73014285D01*
X158042857Y-73061904D01*
X158090476Y-73061904D01*
X158185714Y-73014285D01*
X158233333Y-72966666D01*
X158280952Y-72871428D01*
X158280952Y-72680952D01*
X158328571Y-72585714D01*
X158376190Y-72538095D01*
X158471428Y-72490476D01*
X158661904Y-72490476D01*
X158757142Y-72538095D01*
X158804761Y-72585714D01*
X158852380Y-72680952D01*
X158852380Y-72871428D01*
X158804761Y-72966666D01*
X158757142Y-73014285D01*
X158661904Y-73061904D01*
X158471428Y-73061904D01*
X158376190Y-73014285D01*
X158328571Y-72966666D01*
X158280952Y-72871428D01*
X158842857Y-65757142D02*
X158890476Y-65804761D01*
X159033333Y-65852380D01*
X159128571Y-65852380D01*
X159271428Y-65804761D01*
X159366666Y-65709523D01*
X159414285Y-65614285D01*
X159461904Y-65423809D01*
X159461904Y-65280952D01*
X159414285Y-65090476D01*
X159366666Y-64995238D01*
X159271428Y-64900000D01*
X159128571Y-64852380D01*
X159033333Y-64852380D01*
X158890476Y-64900000D01*
X158842857Y-64947619D01*
X157890476Y-65852380D02*
X158461904Y-65852380D01*
X158176190Y-65852380D02*
X158176190Y-64852380D01*
X158271428Y-64995238D01*
X158366666Y-65090476D01*
X158461904Y-65138095D01*
X157414285Y-65852380D02*
X157223809Y-65852380D01*
X157128571Y-65804761D01*
X157080952Y-65757142D01*
X156985714Y-65614285D01*
X156938095Y-65423809D01*
X156938095Y-65042857D01*
X156985714Y-64947619D01*
X157033333Y-64900000D01*
X157128571Y-64852380D01*
X157319047Y-64852380D01*
X157414285Y-64900000D01*
X157461904Y-64947619D01*
X157509523Y-65042857D01*
X157509523Y-65280952D01*
X157461904Y-65376190D01*
X157414285Y-65423809D01*
X157319047Y-65471428D01*
X157128571Y-65471428D01*
X157033333Y-65423809D01*
X156985714Y-65376190D01*
X156938095Y-65280952D01*
X163597142Y-68607142D02*
X163644761Y-68559523D01*
X163692380Y-68416666D01*
X163692380Y-68321428D01*
X163644761Y-68178571D01*
X163549523Y-68083333D01*
X163454285Y-68035714D01*
X163263809Y-67988095D01*
X163120952Y-67988095D01*
X162930476Y-68035714D01*
X162835238Y-68083333D01*
X162740000Y-68178571D01*
X162692380Y-68321428D01*
X162692380Y-68416666D01*
X162740000Y-68559523D01*
X162787619Y-68607142D01*
X162787619Y-68988095D02*
X162740000Y-69035714D01*
X162692380Y-69130952D01*
X162692380Y-69369047D01*
X162740000Y-69464285D01*
X162787619Y-69511904D01*
X162882857Y-69559523D01*
X162978095Y-69559523D01*
X163120952Y-69511904D01*
X163692380Y-68940476D01*
X163692380Y-69559523D01*
X162692380Y-70178571D02*
X162692380Y-70273809D01*
X162740000Y-70369047D01*
X162787619Y-70416666D01*
X162882857Y-70464285D01*
X163073333Y-70511904D01*
X163311428Y-70511904D01*
X163501904Y-70464285D01*
X163597142Y-70416666D01*
X163644761Y-70369047D01*
X163692380Y-70273809D01*
X163692380Y-70178571D01*
X163644761Y-70083333D01*
X163597142Y-70035714D01*
X163501904Y-69988095D01*
X163311428Y-69940476D01*
X163073333Y-69940476D01*
X162882857Y-69988095D01*
X162787619Y-70035714D01*
X162740000Y-70083333D01*
X162692380Y-70178571D01*
X152992857Y-65067142D02*
X153040476Y-65114761D01*
X153183333Y-65162380D01*
X153278571Y-65162380D01*
X153421428Y-65114761D01*
X153516666Y-65019523D01*
X153564285Y-64924285D01*
X153611904Y-64733809D01*
X153611904Y-64590952D01*
X153564285Y-64400476D01*
X153516666Y-64305238D01*
X153421428Y-64210000D01*
X153278571Y-64162380D01*
X153183333Y-64162380D01*
X153040476Y-64210000D01*
X152992857Y-64257619D01*
X152611904Y-64257619D02*
X152564285Y-64210000D01*
X152469047Y-64162380D01*
X152230952Y-64162380D01*
X152135714Y-64210000D01*
X152088095Y-64257619D01*
X152040476Y-64352857D01*
X152040476Y-64448095D01*
X152088095Y-64590952D01*
X152659523Y-65162380D01*
X152040476Y-65162380D01*
X151659523Y-64257619D02*
X151611904Y-64210000D01*
X151516666Y-64162380D01*
X151278571Y-64162380D01*
X151183333Y-64210000D01*
X151135714Y-64257619D01*
X151088095Y-64352857D01*
X151088095Y-64448095D01*
X151135714Y-64590952D01*
X151707142Y-65162380D01*
X151088095Y-65162380D01*
X183733333Y-59052380D02*
X183733333Y-59766666D01*
X183780952Y-59909523D01*
X183876190Y-60004761D01*
X184019047Y-60052380D01*
X184114285Y-60052380D01*
X182828571Y-59385714D02*
X182828571Y-60052380D01*
X183066666Y-59004761D02*
X183304761Y-59719047D01*
X182685714Y-59719047D01*
X169933333Y-29952380D02*
X169933333Y-30666666D01*
X169980952Y-30809523D01*
X170076190Y-30904761D01*
X170219047Y-30952380D01*
X170314285Y-30952380D01*
X169457142Y-30952380D02*
X169457142Y-29952380D01*
X169076190Y-29952380D01*
X168980952Y-30000000D01*
X168933333Y-30047619D01*
X168885714Y-30142857D01*
X168885714Y-30285714D01*
X168933333Y-30380952D01*
X168980952Y-30428571D01*
X169076190Y-30476190D01*
X169457142Y-30476190D01*
X167933333Y-30952380D02*
X168504761Y-30952380D01*
X168219047Y-30952380D02*
X168219047Y-29952380D01*
X168314285Y-30095238D01*
X168409523Y-30190476D01*
X168504761Y-30238095D01*
X180366666Y-68252380D02*
X180700000Y-67776190D01*
X180938095Y-68252380D02*
X180938095Y-67252380D01*
X180557142Y-67252380D01*
X180461904Y-67300000D01*
X180414285Y-67347619D01*
X180366666Y-67442857D01*
X180366666Y-67585714D01*
X180414285Y-67680952D01*
X180461904Y-67728571D01*
X180557142Y-67776190D01*
X180938095Y-67776190D01*
X179414285Y-68252380D02*
X179985714Y-68252380D01*
X179700000Y-68252380D02*
X179700000Y-67252380D01*
X179795238Y-67395238D01*
X179890476Y-67490476D01*
X179985714Y-67538095D01*
X139566666Y-73252380D02*
X139900000Y-72776190D01*
X140138095Y-73252380D02*
X140138095Y-72252380D01*
X139757142Y-72252380D01*
X139661904Y-72300000D01*
X139614285Y-72347619D01*
X139566666Y-72442857D01*
X139566666Y-72585714D01*
X139614285Y-72680952D01*
X139661904Y-72728571D01*
X139757142Y-72776190D01*
X140138095Y-72776190D01*
X139185714Y-72347619D02*
X139138095Y-72300000D01*
X139042857Y-72252380D01*
X138804761Y-72252380D01*
X138709523Y-72300000D01*
X138661904Y-72347619D01*
X138614285Y-72442857D01*
X138614285Y-72538095D01*
X138661904Y-72680952D01*
X139233333Y-73252380D01*
X138614285Y-73252380D01*
X139766666Y-88252380D02*
X140100000Y-87776190D01*
X140338095Y-88252380D02*
X140338095Y-87252380D01*
X139957142Y-87252380D01*
X139861904Y-87300000D01*
X139814285Y-87347619D01*
X139766666Y-87442857D01*
X139766666Y-87585714D01*
X139814285Y-87680952D01*
X139861904Y-87728571D01*
X139957142Y-87776190D01*
X140338095Y-87776190D01*
X139433333Y-87252380D02*
X138814285Y-87252380D01*
X139147619Y-87633333D01*
X139004761Y-87633333D01*
X138909523Y-87680952D01*
X138861904Y-87728571D01*
X138814285Y-87823809D01*
X138814285Y-88061904D01*
X138861904Y-88157142D01*
X138909523Y-88204761D01*
X139004761Y-88252380D01*
X139290476Y-88252380D01*
X139385714Y-88204761D01*
X139433333Y-88157142D01*
X134566666Y-85652380D02*
X134900000Y-85176190D01*
X135138095Y-85652380D02*
X135138095Y-84652380D01*
X134757142Y-84652380D01*
X134661904Y-84700000D01*
X134614285Y-84747619D01*
X134566666Y-84842857D01*
X134566666Y-84985714D01*
X134614285Y-85080952D01*
X134661904Y-85128571D01*
X134757142Y-85176190D01*
X135138095Y-85176190D01*
X133709523Y-84985714D02*
X133709523Y-85652380D01*
X133947619Y-84604761D02*
X134185714Y-85319047D01*
X133566666Y-85319047D01*
X147366666Y-80652380D02*
X147700000Y-80176190D01*
X147938095Y-80652380D02*
X147938095Y-79652380D01*
X147557142Y-79652380D01*
X147461904Y-79700000D01*
X147414285Y-79747619D01*
X147366666Y-79842857D01*
X147366666Y-79985714D01*
X147414285Y-80080952D01*
X147461904Y-80128571D01*
X147557142Y-80176190D01*
X147938095Y-80176190D01*
X146461904Y-79652380D02*
X146938095Y-79652380D01*
X146985714Y-80128571D01*
X146938095Y-80080952D01*
X146842857Y-80033333D01*
X146604761Y-80033333D01*
X146509523Y-80080952D01*
X146461904Y-80128571D01*
X146414285Y-80223809D01*
X146414285Y-80461904D01*
X146461904Y-80557142D01*
X146509523Y-80604761D01*
X146604761Y-80652380D01*
X146842857Y-80652380D01*
X146938095Y-80604761D01*
X146985714Y-80557142D01*
X184166666Y-78252380D02*
X184500000Y-77776190D01*
X184738095Y-78252380D02*
X184738095Y-77252380D01*
X184357142Y-77252380D01*
X184261904Y-77300000D01*
X184214285Y-77347619D01*
X184166666Y-77442857D01*
X184166666Y-77585714D01*
X184214285Y-77680952D01*
X184261904Y-77728571D01*
X184357142Y-77776190D01*
X184738095Y-77776190D01*
X183309523Y-77252380D02*
X183500000Y-77252380D01*
X183595238Y-77300000D01*
X183642857Y-77347619D01*
X183738095Y-77490476D01*
X183785714Y-77680952D01*
X183785714Y-78061904D01*
X183738095Y-78157142D01*
X183690476Y-78204761D01*
X183595238Y-78252380D01*
X183404761Y-78252380D01*
X183309523Y-78204761D01*
X183261904Y-78157142D01*
X183214285Y-78061904D01*
X183214285Y-77823809D01*
X183261904Y-77728571D01*
X183309523Y-77680952D01*
X183404761Y-77633333D01*
X183595238Y-77633333D01*
X183690476Y-77680952D01*
X183738095Y-77728571D01*
X183785714Y-77823809D01*
X164766666Y-80252380D02*
X165100000Y-79776190D01*
X165338095Y-80252380D02*
X165338095Y-79252380D01*
X164957142Y-79252380D01*
X164861904Y-79300000D01*
X164814285Y-79347619D01*
X164766666Y-79442857D01*
X164766666Y-79585714D01*
X164814285Y-79680952D01*
X164861904Y-79728571D01*
X164957142Y-79776190D01*
X165338095Y-79776190D01*
X164433333Y-79252380D02*
X163766666Y-79252380D01*
X164195238Y-80252380D01*
X135052380Y-65433333D02*
X134576190Y-65100000D01*
X135052380Y-64861904D02*
X134052380Y-64861904D01*
X134052380Y-65242857D01*
X134100000Y-65338095D01*
X134147619Y-65385714D01*
X134242857Y-65433333D01*
X134385714Y-65433333D01*
X134480952Y-65385714D01*
X134528571Y-65338095D01*
X134576190Y-65242857D01*
X134576190Y-64861904D01*
X134480952Y-66004761D02*
X134433333Y-65909523D01*
X134385714Y-65861904D01*
X134290476Y-65814285D01*
X134242857Y-65814285D01*
X134147619Y-65861904D01*
X134100000Y-65909523D01*
X134052380Y-66004761D01*
X134052380Y-66195238D01*
X134100000Y-66290476D01*
X134147619Y-66338095D01*
X134242857Y-66385714D01*
X134290476Y-66385714D01*
X134385714Y-66338095D01*
X134433333Y-66290476D01*
X134480952Y-66195238D01*
X134480952Y-66004761D01*
X134528571Y-65909523D01*
X134576190Y-65861904D01*
X134671428Y-65814285D01*
X134861904Y-65814285D01*
X134957142Y-65861904D01*
X135004761Y-65909523D01*
X135052380Y-66004761D01*
X135052380Y-66195238D01*
X135004761Y-66290476D01*
X134957142Y-66338095D01*
X134861904Y-66385714D01*
X134671428Y-66385714D01*
X134576190Y-66338095D01*
X134528571Y-66290476D01*
X134480952Y-66195238D01*
X141452380Y-65233333D02*
X140976190Y-64900000D01*
X141452380Y-64661904D02*
X140452380Y-64661904D01*
X140452380Y-65042857D01*
X140500000Y-65138095D01*
X140547619Y-65185714D01*
X140642857Y-65233333D01*
X140785714Y-65233333D01*
X140880952Y-65185714D01*
X140928571Y-65138095D01*
X140976190Y-65042857D01*
X140976190Y-64661904D01*
X141452380Y-65709523D02*
X141452380Y-65900000D01*
X141404761Y-65995238D01*
X141357142Y-66042857D01*
X141214285Y-66138095D01*
X141023809Y-66185714D01*
X140642857Y-66185714D01*
X140547619Y-66138095D01*
X140500000Y-66090476D01*
X140452380Y-65995238D01*
X140452380Y-65804761D01*
X140500000Y-65709523D01*
X140547619Y-65661904D01*
X140642857Y-65614285D01*
X140880952Y-65614285D01*
X140976190Y-65661904D01*
X141023809Y-65709523D01*
X141071428Y-65804761D01*
X141071428Y-65995238D01*
X141023809Y-66090476D01*
X140976190Y-66138095D01*
X140880952Y-66185714D01*
X174842857Y-61452380D02*
X175176190Y-60976190D01*
X175414285Y-61452380D02*
X175414285Y-60452380D01*
X175033333Y-60452380D01*
X174938095Y-60500000D01*
X174890476Y-60547619D01*
X174842857Y-60642857D01*
X174842857Y-60785714D01*
X174890476Y-60880952D01*
X174938095Y-60928571D01*
X175033333Y-60976190D01*
X175414285Y-60976190D01*
X173890476Y-61452380D02*
X174461904Y-61452380D01*
X174176190Y-61452380D02*
X174176190Y-60452380D01*
X174271428Y-60595238D01*
X174366666Y-60690476D01*
X174461904Y-60738095D01*
X173271428Y-60452380D02*
X173176190Y-60452380D01*
X173080952Y-60500000D01*
X173033333Y-60547619D01*
X172985714Y-60642857D01*
X172938095Y-60833333D01*
X172938095Y-61071428D01*
X172985714Y-61261904D01*
X173033333Y-61357142D01*
X173080952Y-61404761D01*
X173176190Y-61452380D01*
X173271428Y-61452380D01*
X173366666Y-61404761D01*
X173414285Y-61357142D01*
X173461904Y-61261904D01*
X173509523Y-61071428D01*
X173509523Y-60833333D01*
X173461904Y-60642857D01*
X173414285Y-60547619D01*
X173366666Y-60500000D01*
X173271428Y-60452380D01*
X174842857Y-59052380D02*
X175176190Y-58576190D01*
X175414285Y-59052380D02*
X175414285Y-58052380D01*
X175033333Y-58052380D01*
X174938095Y-58100000D01*
X174890476Y-58147619D01*
X174842857Y-58242857D01*
X174842857Y-58385714D01*
X174890476Y-58480952D01*
X174938095Y-58528571D01*
X175033333Y-58576190D01*
X175414285Y-58576190D01*
X173890476Y-59052380D02*
X174461904Y-59052380D01*
X174176190Y-59052380D02*
X174176190Y-58052380D01*
X174271428Y-58195238D01*
X174366666Y-58290476D01*
X174461904Y-58338095D01*
X173557142Y-58052380D02*
X172938095Y-58052380D01*
X173271428Y-58433333D01*
X173128571Y-58433333D01*
X173033333Y-58480952D01*
X172985714Y-58528571D01*
X172938095Y-58623809D01*
X172938095Y-58861904D01*
X172985714Y-58957142D01*
X173033333Y-59004761D01*
X173128571Y-59052380D01*
X173414285Y-59052380D01*
X173509523Y-59004761D01*
X173557142Y-58957142D01*
X174842857Y-60252380D02*
X175176190Y-59776190D01*
X175414285Y-60252380D02*
X175414285Y-59252380D01*
X175033333Y-59252380D01*
X174938095Y-59300000D01*
X174890476Y-59347619D01*
X174842857Y-59442857D01*
X174842857Y-59585714D01*
X174890476Y-59680952D01*
X174938095Y-59728571D01*
X175033333Y-59776190D01*
X175414285Y-59776190D01*
X173890476Y-60252380D02*
X174461904Y-60252380D01*
X174176190Y-60252380D02*
X174176190Y-59252380D01*
X174271428Y-59395238D01*
X174366666Y-59490476D01*
X174461904Y-59538095D01*
X172985714Y-59252380D02*
X173461904Y-59252380D01*
X173509523Y-59728571D01*
X173461904Y-59680952D01*
X173366666Y-59633333D01*
X173128571Y-59633333D01*
X173033333Y-59680952D01*
X172985714Y-59728571D01*
X172938095Y-59823809D01*
X172938095Y-60061904D01*
X172985714Y-60157142D01*
X173033333Y-60204761D01*
X173128571Y-60252380D01*
X173366666Y-60252380D01*
X173461904Y-60204761D01*
X173509523Y-60157142D01*
X177242857Y-31052380D02*
X177576190Y-30576190D01*
X177814285Y-31052380D02*
X177814285Y-30052380D01*
X177433333Y-30052380D01*
X177338095Y-30100000D01*
X177290476Y-30147619D01*
X177242857Y-30242857D01*
X177242857Y-30385714D01*
X177290476Y-30480952D01*
X177338095Y-30528571D01*
X177433333Y-30576190D01*
X177814285Y-30576190D01*
X176290476Y-31052380D02*
X176861904Y-31052380D01*
X176576190Y-31052380D02*
X176576190Y-30052380D01*
X176671428Y-30195238D01*
X176766666Y-30290476D01*
X176861904Y-30338095D01*
X175719047Y-30480952D02*
X175814285Y-30433333D01*
X175861904Y-30385714D01*
X175909523Y-30290476D01*
X175909523Y-30242857D01*
X175861904Y-30147619D01*
X175814285Y-30100000D01*
X175719047Y-30052380D01*
X175528571Y-30052380D01*
X175433333Y-30100000D01*
X175385714Y-30147619D01*
X175338095Y-30242857D01*
X175338095Y-30290476D01*
X175385714Y-30385714D01*
X175433333Y-30433333D01*
X175528571Y-30480952D01*
X175719047Y-30480952D01*
X175814285Y-30528571D01*
X175861904Y-30576190D01*
X175909523Y-30671428D01*
X175909523Y-30861904D01*
X175861904Y-30957142D01*
X175814285Y-31004761D01*
X175719047Y-31052380D01*
X175528571Y-31052380D01*
X175433333Y-31004761D01*
X175385714Y-30957142D01*
X175338095Y-30861904D01*
X175338095Y-30671428D01*
X175385714Y-30576190D01*
X175433333Y-30528571D01*
X175528571Y-30480952D01*
X140052380Y-65157142D02*
X139576190Y-64823809D01*
X140052380Y-64585714D02*
X139052380Y-64585714D01*
X139052380Y-64966666D01*
X139100000Y-65061904D01*
X139147619Y-65109523D01*
X139242857Y-65157142D01*
X139385714Y-65157142D01*
X139480952Y-65109523D01*
X139528571Y-65061904D01*
X139576190Y-64966666D01*
X139576190Y-64585714D01*
X140052380Y-66109523D02*
X140052380Y-65538095D01*
X140052380Y-65823809D02*
X139052380Y-65823809D01*
X139195238Y-65728571D01*
X139290476Y-65633333D01*
X139338095Y-65538095D01*
X140052380Y-66585714D02*
X140052380Y-66776190D01*
X140004761Y-66871428D01*
X139957142Y-66919047D01*
X139814285Y-67014285D01*
X139623809Y-67061904D01*
X139242857Y-67061904D01*
X139147619Y-67014285D01*
X139100000Y-66966666D01*
X139052380Y-66871428D01*
X139052380Y-66680952D01*
X139100000Y-66585714D01*
X139147619Y-66538095D01*
X139242857Y-66490476D01*
X139480952Y-66490476D01*
X139576190Y-66538095D01*
X139623809Y-66585714D01*
X139671428Y-66680952D01*
X139671428Y-66871428D01*
X139623809Y-66966666D01*
X139576190Y-67014285D01*
X139480952Y-67061904D01*
X159161904Y-58052380D02*
X159161904Y-58861904D01*
X159114285Y-58957142D01*
X159066666Y-59004761D01*
X158971428Y-59052380D01*
X158780952Y-59052380D01*
X158685714Y-59004761D01*
X158638095Y-58957142D01*
X158590476Y-58861904D01*
X158590476Y-58052380D01*
X157590476Y-59052380D02*
X158161904Y-59052380D01*
X157876190Y-59052380D02*
X157876190Y-58052380D01*
X157971428Y-58195238D01*
X158066666Y-58290476D01*
X158161904Y-58338095D01*
X147111904Y-64562380D02*
X147111904Y-65371904D01*
X147064285Y-65467142D01*
X147016666Y-65514761D01*
X146921428Y-65562380D01*
X146730952Y-65562380D01*
X146635714Y-65514761D01*
X146588095Y-65467142D01*
X146540476Y-65371904D01*
X146540476Y-64562380D01*
X146159523Y-64562380D02*
X145540476Y-64562380D01*
X145873809Y-64943333D01*
X145730952Y-64943333D01*
X145635714Y-64990952D01*
X145588095Y-65038571D01*
X145540476Y-65133809D01*
X145540476Y-65371904D01*
X145588095Y-65467142D01*
X145635714Y-65514761D01*
X145730952Y-65562380D01*
X146016666Y-65562380D01*
X146111904Y-65514761D01*
X146159523Y-65467142D01*
X181041904Y-39452380D02*
X181041904Y-40261904D01*
X180994285Y-40357142D01*
X180946666Y-40404761D01*
X180851428Y-40452380D01*
X180660952Y-40452380D01*
X180565714Y-40404761D01*
X180518095Y-40357142D01*
X180470476Y-40261904D01*
X180470476Y-39452380D01*
X179565714Y-39785714D02*
X179565714Y-40452380D01*
X179803809Y-39404761D02*
X180041904Y-40119047D01*
X179422857Y-40119047D01*
X177076190Y-70376190D02*
X177076190Y-70852380D01*
X177409523Y-69852380D02*
X177076190Y-70376190D01*
X176742857Y-69852380D01*
X175885714Y-70852380D02*
X176457142Y-70852380D01*
X176171428Y-70852380D02*
X176171428Y-69852380D01*
X176266666Y-69995238D01*
X176361904Y-70090476D01*
X176457142Y-70138095D01*
X170357142Y-64333333D02*
X170404761Y-64285714D01*
X170452380Y-64142857D01*
X170452380Y-64047619D01*
X170404761Y-63904761D01*
X170309523Y-63809523D01*
X170214285Y-63761904D01*
X170023809Y-63714285D01*
X169880952Y-63714285D01*
X169690476Y-63761904D01*
X169595238Y-63809523D01*
X169500000Y-63904761D01*
X169452380Y-64047619D01*
X169452380Y-64142857D01*
X169500000Y-64285714D01*
X169547619Y-64333333D01*
X169452380Y-64666666D02*
X169452380Y-65333333D01*
X170452380Y-64904761D01*
X176517142Y-64333333D02*
X176564761Y-64285714D01*
X176612380Y-64142857D01*
X176612380Y-64047619D01*
X176564761Y-63904761D01*
X176469523Y-63809523D01*
X176374285Y-63761904D01*
X176183809Y-63714285D01*
X176040952Y-63714285D01*
X175850476Y-63761904D01*
X175755238Y-63809523D01*
X175660000Y-63904761D01*
X175612380Y-64047619D01*
X175612380Y-64142857D01*
X175660000Y-64285714D01*
X175707619Y-64333333D01*
X176040952Y-64904761D02*
X175993333Y-64809523D01*
X175945714Y-64761904D01*
X175850476Y-64714285D01*
X175802857Y-64714285D01*
X175707619Y-64761904D01*
X175660000Y-64809523D01*
X175612380Y-64904761D01*
X175612380Y-65095238D01*
X175660000Y-65190476D01*
X175707619Y-65238095D01*
X175802857Y-65285714D01*
X175850476Y-65285714D01*
X175945714Y-65238095D01*
X175993333Y-65190476D01*
X176040952Y-65095238D01*
X176040952Y-64904761D01*
X176088571Y-64809523D01*
X176136190Y-64761904D01*
X176231428Y-64714285D01*
X176421904Y-64714285D01*
X176517142Y-64761904D01*
X176564761Y-64809523D01*
X176612380Y-64904761D01*
X176612380Y-65095238D01*
X176564761Y-65190476D01*
X176517142Y-65238095D01*
X176421904Y-65285714D01*
X176231428Y-65285714D01*
X176136190Y-65238095D01*
X176088571Y-65190476D01*
X176040952Y-65095238D01*
X188488095Y-24702380D02*
X188488095Y-23702380D01*
X188107142Y-23702380D01*
X188011904Y-23750000D01*
X187964285Y-23797619D01*
X187916666Y-23892857D01*
X187916666Y-24035714D01*
X187964285Y-24130952D01*
X188011904Y-24178571D01*
X188107142Y-24226190D01*
X188488095Y-24226190D01*
X186964285Y-24702380D02*
X187535714Y-24702380D01*
X187250000Y-24702380D02*
X187250000Y-23702380D01*
X187345238Y-23845238D01*
X187440476Y-23940476D01*
X187535714Y-23988095D01*
X175452380Y-21246428D02*
X174452380Y-21246428D01*
X174452380Y-21425000D01*
X174500000Y-21532142D01*
X174595238Y-21603571D01*
X174690476Y-21639285D01*
X174880952Y-21675000D01*
X175023809Y-21675000D01*
X175214285Y-21639285D01*
X175309523Y-21603571D01*
X175404761Y-21532142D01*
X175452380Y-21425000D01*
X175452380Y-21246428D01*
X175452380Y-22389285D02*
X175452380Y-21960714D01*
X175452380Y-22175000D02*
X174452380Y-22175000D01*
X174595238Y-22103571D01*
X174690476Y-22032142D01*
X174738095Y-21960714D01*
X176702380Y-21246428D02*
X175702380Y-21246428D01*
X175702380Y-21425000D01*
X175750000Y-21532142D01*
X175845238Y-21603571D01*
X175940476Y-21639285D01*
X176130952Y-21675000D01*
X176273809Y-21675000D01*
X176464285Y-21639285D01*
X176559523Y-21603571D01*
X176654761Y-21532142D01*
X176702380Y-21425000D01*
X176702380Y-21246428D01*
X175797619Y-21960714D02*
X175750000Y-21996428D01*
X175702380Y-22067857D01*
X175702380Y-22246428D01*
X175750000Y-22317857D01*
X175797619Y-22353571D01*
X175892857Y-22389285D01*
X175988095Y-22389285D01*
X176130952Y-22353571D01*
X176702380Y-21925000D01*
X176702380Y-22389285D01*
X178303571Y-18589285D02*
X178303571Y-17839285D01*
X178125000Y-17839285D01*
X178017857Y-17875000D01*
X177946428Y-17946428D01*
X177910714Y-18017857D01*
X177875000Y-18160714D01*
X177875000Y-18267857D01*
X177910714Y-18410714D01*
X177946428Y-18482142D01*
X178017857Y-18553571D01*
X178125000Y-18589285D01*
X178303571Y-18589285D01*
X177625000Y-17839285D02*
X177160714Y-17839285D01*
X177410714Y-18125000D01*
X177303571Y-18125000D01*
X177232142Y-18160714D01*
X177196428Y-18196428D01*
X177160714Y-18267857D01*
X177160714Y-18446428D01*
X177196428Y-18517857D01*
X177232142Y-18553571D01*
X177303571Y-18589285D01*
X177517857Y-18589285D01*
X177589285Y-18553571D01*
X177625000Y-18517857D01*
X173202380Y-19357142D02*
X172726190Y-19023809D01*
X173202380Y-18785714D02*
X172202380Y-18785714D01*
X172202380Y-19166666D01*
X172250000Y-19261904D01*
X172297619Y-19309523D01*
X172392857Y-19357142D01*
X172535714Y-19357142D01*
X172630952Y-19309523D01*
X172678571Y-19261904D01*
X172726190Y-19166666D01*
X172726190Y-18785714D01*
X173202380Y-20309523D02*
X173202380Y-19738095D01*
X173202380Y-20023809D02*
X172202380Y-20023809D01*
X172345238Y-19928571D01*
X172440476Y-19833333D01*
X172488095Y-19738095D01*
X172535714Y-21166666D02*
X173202380Y-21166666D01*
X172154761Y-20928571D02*
X172869047Y-20690476D01*
X172869047Y-21309523D01*
X178852380Y-19757142D02*
X178376190Y-19423809D01*
X178852380Y-19185714D02*
X177852380Y-19185714D01*
X177852380Y-19566666D01*
X177900000Y-19661904D01*
X177947619Y-19709523D01*
X178042857Y-19757142D01*
X178185714Y-19757142D01*
X178280952Y-19709523D01*
X178328571Y-19661904D01*
X178376190Y-19566666D01*
X178376190Y-19185714D01*
X178852380Y-20709523D02*
X178852380Y-20138095D01*
X178852380Y-20423809D02*
X177852380Y-20423809D01*
X177995238Y-20328571D01*
X178090476Y-20233333D01*
X178138095Y-20138095D01*
X177852380Y-21566666D02*
X177852380Y-21376190D01*
X177900000Y-21280952D01*
X177947619Y-21233333D01*
X178090476Y-21138095D01*
X178280952Y-21090476D01*
X178661904Y-21090476D01*
X178757142Y-21138095D01*
X178804761Y-21185714D01*
X178852380Y-21280952D01*
X178852380Y-21471428D01*
X178804761Y-21566666D01*
X178757142Y-21614285D01*
X178661904Y-21661904D01*
X178423809Y-21661904D01*
X178328571Y-21614285D01*
X178280952Y-21566666D01*
X178233333Y-21471428D01*
X178233333Y-21280952D01*
X178280952Y-21185714D01*
X178328571Y-21138095D01*
X178423809Y-21090476D01*
X178892857Y-17452380D02*
X179226190Y-16976190D01*
X179464285Y-17452380D02*
X179464285Y-16452380D01*
X179083333Y-16452380D01*
X178988095Y-16500000D01*
X178940476Y-16547619D01*
X178892857Y-16642857D01*
X178892857Y-16785714D01*
X178940476Y-16880952D01*
X178988095Y-16928571D01*
X179083333Y-16976190D01*
X179464285Y-16976190D01*
X177940476Y-17452380D02*
X178511904Y-17452380D01*
X178226190Y-17452380D02*
X178226190Y-16452380D01*
X178321428Y-16595238D01*
X178416666Y-16690476D01*
X178511904Y-16738095D01*
X177607142Y-16452380D02*
X176940476Y-16452380D01*
X177369047Y-17452380D01*
X182042857Y-48557142D02*
X182090476Y-48604761D01*
X182233333Y-48652380D01*
X182328571Y-48652380D01*
X182471428Y-48604761D01*
X182566666Y-48509523D01*
X182614285Y-48414285D01*
X182661904Y-48223809D01*
X182661904Y-48080952D01*
X182614285Y-47890476D01*
X182566666Y-47795238D01*
X182471428Y-47700000D01*
X182328571Y-47652380D01*
X182233333Y-47652380D01*
X182090476Y-47700000D01*
X182042857Y-47747619D01*
X181661904Y-47747619D02*
X181614285Y-47700000D01*
X181519047Y-47652380D01*
X181280952Y-47652380D01*
X181185714Y-47700000D01*
X181138095Y-47747619D01*
X181090476Y-47842857D01*
X181090476Y-47938095D01*
X181138095Y-48080952D01*
X181709523Y-48652380D01*
X181090476Y-48652380D01*
X180138095Y-48652380D02*
X180709523Y-48652380D01*
X180423809Y-48652380D02*
X180423809Y-47652380D01*
X180519047Y-47795238D01*
X180614285Y-47890476D01*
X180709523Y-47938095D01*
X182442857Y-37557142D02*
X182490476Y-37604761D01*
X182633333Y-37652380D01*
X182728571Y-37652380D01*
X182871428Y-37604761D01*
X182966666Y-37509523D01*
X183014285Y-37414285D01*
X183061904Y-37223809D01*
X183061904Y-37080952D01*
X183014285Y-36890476D01*
X182966666Y-36795238D01*
X182871428Y-36700000D01*
X182728571Y-36652380D01*
X182633333Y-36652380D01*
X182490476Y-36700000D01*
X182442857Y-36747619D01*
X182061904Y-36747619D02*
X182014285Y-36700000D01*
X181919047Y-36652380D01*
X181680952Y-36652380D01*
X181585714Y-36700000D01*
X181538095Y-36747619D01*
X181490476Y-36842857D01*
X181490476Y-36938095D01*
X181538095Y-37080952D01*
X182109523Y-37652380D01*
X181490476Y-37652380D01*
X181157142Y-36652380D02*
X180538095Y-36652380D01*
X180871428Y-37033333D01*
X180728571Y-37033333D01*
X180633333Y-37080952D01*
X180585714Y-37128571D01*
X180538095Y-37223809D01*
X180538095Y-37461904D01*
X180585714Y-37557142D01*
X180633333Y-37604761D01*
X180728571Y-37652380D01*
X181014285Y-37652380D01*
X181109523Y-37604761D01*
X181157142Y-37557142D01*
X175642857Y-32452380D02*
X175976190Y-31976190D01*
X176214285Y-32452380D02*
X176214285Y-31452380D01*
X175833333Y-31452380D01*
X175738095Y-31500000D01*
X175690476Y-31547619D01*
X175642857Y-31642857D01*
X175642857Y-31785714D01*
X175690476Y-31880952D01*
X175738095Y-31928571D01*
X175833333Y-31976190D01*
X176214285Y-31976190D01*
X174690476Y-32452380D02*
X175261904Y-32452380D01*
X174976190Y-32452380D02*
X174976190Y-31452380D01*
X175071428Y-31595238D01*
X175166666Y-31690476D01*
X175261904Y-31738095D01*
X173738095Y-32452380D02*
X174309523Y-32452380D01*
X174023809Y-32452380D02*
X174023809Y-31452380D01*
X174119047Y-31595238D01*
X174214285Y-31690476D01*
X174309523Y-31738095D01*
X175642857Y-33852380D02*
X175976190Y-33376190D01*
X176214285Y-33852380D02*
X176214285Y-32852380D01*
X175833333Y-32852380D01*
X175738095Y-32900000D01*
X175690476Y-32947619D01*
X175642857Y-33042857D01*
X175642857Y-33185714D01*
X175690476Y-33280952D01*
X175738095Y-33328571D01*
X175833333Y-33376190D01*
X176214285Y-33376190D01*
X174690476Y-33852380D02*
X175261904Y-33852380D01*
X174976190Y-33852380D02*
X174976190Y-32852380D01*
X175071428Y-32995238D01*
X175166666Y-33090476D01*
X175261904Y-33138095D01*
X174309523Y-32947619D02*
X174261904Y-32900000D01*
X174166666Y-32852380D01*
X173928571Y-32852380D01*
X173833333Y-32900000D01*
X173785714Y-32947619D01*
X173738095Y-33042857D01*
X173738095Y-33138095D01*
X173785714Y-33280952D01*
X174357142Y-33852380D01*
X173738095Y-33852380D01*
X176733333Y-40028571D02*
X177066666Y-40028571D01*
X177066666Y-40552380D02*
X177066666Y-39552380D01*
X176590476Y-39552380D01*
X175685714Y-40552380D02*
X176257142Y-40552380D01*
X175971428Y-40552380D02*
X175971428Y-39552380D01*
X176066666Y-39695238D01*
X176161904Y-39790476D01*
X176257142Y-39838095D01*
%LPC*%
D13*
X138425000Y-56925000D03*
X138425000Y-61075000D03*
X140575000Y-56925000D03*
X140575000Y-61075000D03*
X134425000Y-56925000D03*
X134425000Y-61075000D03*
X136575000Y-56925000D03*
X136575000Y-61075000D03*
D14*
X139697056Y-19302944D03*
X138000000Y-18600000D03*
X136302944Y-19302944D03*
X135600000Y-21000000D03*
X136302944Y-22697056D03*
X138000000Y-23400000D03*
X139697056Y-22697056D03*
X140400000Y-21000000D03*
D15*
X138000000Y-21000000D03*
X184000000Y-21000000D03*
D14*
X186400000Y-21000000D03*
X185697056Y-22697056D03*
X184000000Y-23400000D03*
X182302944Y-22697056D03*
X181600000Y-21000000D03*
X182302944Y-19302944D03*
X184000000Y-18600000D03*
X185697056Y-19302944D03*
X139697056Y-93302944D03*
X138000000Y-92600000D03*
X136302944Y-93302944D03*
X135600000Y-95000000D03*
X136302944Y-96697056D03*
X138000000Y-97400000D03*
X139697056Y-96697056D03*
X140400000Y-95000000D03*
D15*
X138000000Y-95000000D03*
X184000000Y-95000000D03*
D14*
X186400000Y-95000000D03*
X185697056Y-96697056D03*
X184000000Y-97400000D03*
X182302944Y-96697056D03*
X181600000Y-95000000D03*
X182302944Y-93302944D03*
X184000000Y-92600000D03*
X185697056Y-93302944D03*
D15*
X176500000Y-26000000D03*
D14*
X178900000Y-26000000D03*
X178197056Y-27697056D03*
X176500000Y-28400000D03*
X174802944Y-27697056D03*
X174100000Y-26000000D03*
X174802944Y-24302944D03*
X176500000Y-23600000D03*
X178197056Y-24302944D03*
X147197056Y-53302944D03*
X145500000Y-52600000D03*
X143802944Y-53302944D03*
X143100000Y-55000000D03*
X143802944Y-56697056D03*
X145500000Y-57400000D03*
X147197056Y-56697056D03*
X147900000Y-55000000D03*
D15*
X145500000Y-55000000D03*
X176500000Y-55000000D03*
D14*
X178900000Y-55000000D03*
X178197056Y-56697056D03*
X176500000Y-57400000D03*
X174802944Y-56697056D03*
X174100000Y-55000000D03*
X174802944Y-53302944D03*
X176500000Y-52600000D03*
X178197056Y-53302944D03*
D16*
X184000000Y-65000000D03*
D17*
X181460000Y-65000000D03*
D18*
X152000000Y-81500000D03*
X152000000Y-77000000D03*
X158500000Y-81500000D03*
X158500000Y-77000000D03*
X143500000Y-77000000D03*
X143500000Y-81500000D03*
X137000000Y-77000000D03*
X137000000Y-81500000D03*
X169625001Y-80175001D03*
X169625001Y-75675001D03*
X176125001Y-80175001D03*
X176125001Y-75675001D03*
X186500000Y-71000000D03*
X186500000Y-75500000D03*
X180000000Y-71000000D03*
X180000000Y-75500000D03*
X151000000Y-84500000D03*
X151000000Y-89000000D03*
X144500000Y-84500000D03*
X144500000Y-89000000D03*
X144500000Y-74000000D03*
X144500000Y-69500000D03*
X151000000Y-74000000D03*
X151000000Y-69500000D03*
D19*
X161500000Y-26000000D03*
X158960000Y-26000000D03*
X164040000Y-26000000D03*
X156420000Y-26000000D03*
X166580000Y-26000000D03*
X153880000Y-26000000D03*
X169120000Y-26000000D03*
D16*
X152500000Y-21000000D03*
D17*
X155040000Y-21000000D03*
X157580000Y-21000000D03*
X160120000Y-21000000D03*
X162660000Y-21000000D03*
X165200000Y-21000000D03*
X167740000Y-21000000D03*
X170280000Y-21000000D03*
D20*
X157000000Y-88000000D03*
X157000000Y-90500000D03*
X157000000Y-93000000D03*
D21*
X164000000Y-86100000D03*
X164000000Y-94900000D03*
D15*
X145500000Y-26000000D03*
D14*
X147900000Y-26000000D03*
X147197056Y-27697056D03*
X145500000Y-28400000D03*
X143802944Y-27697056D03*
X143100000Y-26000000D03*
X143802944Y-24302944D03*
X145500000Y-23600000D03*
X147197056Y-24302944D03*
D16*
X138000000Y-31000000D03*
D17*
X138000000Y-33540000D03*
X138000000Y-36080000D03*
X138000000Y-38620000D03*
X138000000Y-41160000D03*
X138000000Y-43700000D03*
X138000000Y-46240000D03*
X138000000Y-48780000D03*
G36*
G01*
X142685000Y-88845000D02*
X142685000Y-89155000D01*
G75*
G02*
X142530000Y-89310000I-155000J0D01*
G01*
X142105000Y-89310000D01*
G75*
G02*
X141950000Y-89155000I0J155000D01*
G01*
X141950000Y-88845000D01*
G75*
G02*
X142105000Y-88690000I155000J0D01*
G01*
X142530000Y-88690000D01*
G75*
G02*
X142685000Y-88845000I0J-155000D01*
G01*
G37*
G36*
G01*
X141550000Y-88845000D02*
X141550000Y-89155000D01*
G75*
G02*
X141395000Y-89310000I-155000J0D01*
G01*
X140970000Y-89310000D01*
G75*
G02*
X140815000Y-89155000I0J155000D01*
G01*
X140815000Y-88845000D01*
G75*
G02*
X140970000Y-88690000I155000J0D01*
G01*
X141395000Y-88690000D01*
G75*
G02*
X141550000Y-88845000I0J-155000D01*
G01*
G37*
G36*
G01*
X136700000Y-83905000D02*
X136700000Y-83595000D01*
G75*
G02*
X136855000Y-83440000I155000J0D01*
G01*
X137280000Y-83440000D01*
G75*
G02*
X137435000Y-83595000I0J-155000D01*
G01*
X137435000Y-83905000D01*
G75*
G02*
X137280000Y-84060000I-155000J0D01*
G01*
X136855000Y-84060000D01*
G75*
G02*
X136700000Y-83905000I0J155000D01*
G01*
G37*
G36*
G01*
X135565000Y-83905000D02*
X135565000Y-83595000D01*
G75*
G02*
X135720000Y-83440000I155000J0D01*
G01*
X136145000Y-83440000D01*
G75*
G02*
X136300000Y-83595000I0J-155000D01*
G01*
X136300000Y-83905000D01*
G75*
G02*
X136145000Y-84060000I-155000J0D01*
G01*
X135720000Y-84060000D01*
G75*
G02*
X135565000Y-83905000I0J155000D01*
G01*
G37*
G36*
G01*
X150160000Y-81345000D02*
X150160000Y-81655000D01*
G75*
G02*
X150005000Y-81810000I-155000J0D01*
G01*
X149580000Y-81810000D01*
G75*
G02*
X149425000Y-81655000I0J155000D01*
G01*
X149425000Y-81345000D01*
G75*
G02*
X149580000Y-81190000I155000J0D01*
G01*
X150005000Y-81190000D01*
G75*
G02*
X150160000Y-81345000I0J-155000D01*
G01*
G37*
G36*
G01*
X149025000Y-81345000D02*
X149025000Y-81655000D01*
G75*
G02*
X148870000Y-81810000I-155000J0D01*
G01*
X148445000Y-81810000D01*
G75*
G02*
X148290000Y-81655000I0J155000D01*
G01*
X148290000Y-81345000D01*
G75*
G02*
X148445000Y-81190000I155000J0D01*
G01*
X148870000Y-81190000D01*
G75*
G02*
X149025000Y-81345000I0J-155000D01*
G01*
G37*
G36*
G01*
X142435000Y-73845000D02*
X142435000Y-74155000D01*
G75*
G02*
X142280000Y-74310000I-155000J0D01*
G01*
X141855000Y-74310000D01*
G75*
G02*
X141700000Y-74155000I0J155000D01*
G01*
X141700000Y-73845000D01*
G75*
G02*
X141855000Y-73690000I155000J0D01*
G01*
X142280000Y-73690000D01*
G75*
G02*
X142435000Y-73845000I0J-155000D01*
G01*
G37*
G36*
G01*
X141300000Y-73845000D02*
X141300000Y-74155000D01*
G75*
G02*
X141145000Y-74310000I-155000J0D01*
G01*
X140720000Y-74310000D01*
G75*
G02*
X140565000Y-74155000I0J155000D01*
G01*
X140565000Y-73845000D01*
G75*
G02*
X140720000Y-73690000I155000J0D01*
G01*
X141145000Y-73690000D01*
G75*
G02*
X141300000Y-73845000I0J-155000D01*
G01*
G37*
G36*
G01*
X185800000Y-78845000D02*
X185800000Y-79155000D01*
G75*
G02*
X185645000Y-79310000I-155000J0D01*
G01*
X185220000Y-79310000D01*
G75*
G02*
X185065000Y-79155000I0J155000D01*
G01*
X185065000Y-78845000D01*
G75*
G02*
X185220000Y-78690000I155000J0D01*
G01*
X185645000Y-78690000D01*
G75*
G02*
X185800000Y-78845000I0J-155000D01*
G01*
G37*
G36*
G01*
X186935000Y-78845000D02*
X186935000Y-79155000D01*
G75*
G02*
X186780000Y-79310000I-155000J0D01*
G01*
X186355000Y-79310000D01*
G75*
G02*
X186200000Y-79155000I0J155000D01*
G01*
X186200000Y-78845000D01*
G75*
G02*
X186355000Y-78690000I155000J0D01*
G01*
X186780000Y-78690000D01*
G75*
G02*
X186935000Y-78845000I0J-155000D01*
G01*
G37*
G36*
G01*
X167685000Y-80845000D02*
X167685000Y-81155000D01*
G75*
G02*
X167530000Y-81310000I-155000J0D01*
G01*
X167105000Y-81310000D01*
G75*
G02*
X166950000Y-81155000I0J155000D01*
G01*
X166950000Y-80845000D01*
G75*
G02*
X167105000Y-80690000I155000J0D01*
G01*
X167530000Y-80690000D01*
G75*
G02*
X167685000Y-80845000I0J-155000D01*
G01*
G37*
G36*
G01*
X166550000Y-80845000D02*
X166550000Y-81155000D01*
G75*
G02*
X166395000Y-81310000I-155000J0D01*
G01*
X165970000Y-81310000D01*
G75*
G02*
X165815000Y-81155000I0J155000D01*
G01*
X165815000Y-80845000D01*
G75*
G02*
X165970000Y-80690000I155000J0D01*
G01*
X166395000Y-80690000D01*
G75*
G02*
X166550000Y-80845000I0J-155000D01*
G01*
G37*
G36*
G01*
X155450000Y-61095000D02*
X155450000Y-61405000D01*
G75*
G02*
X155295000Y-61560000I-155000J0D01*
G01*
X154870000Y-61560000D01*
G75*
G02*
X154715000Y-61405000I0J155000D01*
G01*
X154715000Y-61095000D01*
G75*
G02*
X154870000Y-60940000I155000J0D01*
G01*
X155295000Y-60940000D01*
G75*
G02*
X155450000Y-61095000I0J-155000D01*
G01*
G37*
G36*
G01*
X156585000Y-61095000D02*
X156585000Y-61405000D01*
G75*
G02*
X156430000Y-61560000I-155000J0D01*
G01*
X156005000Y-61560000D01*
G75*
G02*
X155850000Y-61405000I0J155000D01*
G01*
X155850000Y-61095000D01*
G75*
G02*
X156005000Y-60940000I155000J0D01*
G01*
X156430000Y-60940000D01*
G75*
G02*
X156585000Y-61095000I0J-155000D01*
G01*
G37*
G36*
G01*
X170715000Y-62905000D02*
X170715000Y-62595000D01*
G75*
G02*
X170870000Y-62440000I155000J0D01*
G01*
X171295000Y-62440000D01*
G75*
G02*
X171450000Y-62595000I0J-155000D01*
G01*
X171450000Y-62905000D01*
G75*
G02*
X171295000Y-63060000I-155000J0D01*
G01*
X170870000Y-63060000D01*
G75*
G02*
X170715000Y-62905000I0J155000D01*
G01*
G37*
G36*
G01*
X171850000Y-62905000D02*
X171850000Y-62595000D01*
G75*
G02*
X172005000Y-62440000I155000J0D01*
G01*
X172430000Y-62440000D01*
G75*
G02*
X172585000Y-62595000I0J-155000D01*
G01*
X172585000Y-62905000D01*
G75*
G02*
X172430000Y-63060000I-155000J0D01*
G01*
X172005000Y-63060000D01*
G75*
G02*
X171850000Y-62905000I0J155000D01*
G01*
G37*
G36*
G01*
X157025000Y-63275000D02*
X157025000Y-64225000D01*
G75*
G02*
X156775000Y-64475000I-250000J0D01*
G01*
X156100000Y-64475000D01*
G75*
G02*
X155850000Y-64225000I0J250000D01*
G01*
X155850000Y-63275000D01*
G75*
G02*
X156100000Y-63025000I250000J0D01*
G01*
X156775000Y-63025000D01*
G75*
G02*
X157025000Y-63275000I0J-250000D01*
G01*
G37*
G36*
G01*
X154950000Y-63275000D02*
X154950000Y-64225000D01*
G75*
G02*
X154700000Y-64475000I-250000J0D01*
G01*
X154025000Y-64475000D01*
G75*
G02*
X153775000Y-64225000I0J250000D01*
G01*
X153775000Y-63275000D01*
G75*
G02*
X154025000Y-63025000I250000J0D01*
G01*
X154700000Y-63025000D01*
G75*
G02*
X154950000Y-63275000I0J-250000D01*
G01*
G37*
G36*
G01*
X154450000Y-66275000D02*
X154450000Y-67225000D01*
G75*
G02*
X154200000Y-67475000I-250000J0D01*
G01*
X153525000Y-67475000D01*
G75*
G02*
X153275000Y-67225000I0J250000D01*
G01*
X153275000Y-66275000D01*
G75*
G02*
X153525000Y-66025000I250000J0D01*
G01*
X154200000Y-66025000D01*
G75*
G02*
X154450000Y-66275000I0J-250000D01*
G01*
G37*
G36*
G01*
X156525000Y-66275000D02*
X156525000Y-67225000D01*
G75*
G02*
X156275000Y-67475000I-250000J0D01*
G01*
X155600000Y-67475000D01*
G75*
G02*
X155350000Y-67225000I0J250000D01*
G01*
X155350000Y-66275000D01*
G75*
G02*
X155600000Y-66025000I250000J0D01*
G01*
X156275000Y-66025000D01*
G75*
G02*
X156525000Y-66275000I0J-250000D01*
G01*
G37*
G36*
G01*
X156585000Y-62095000D02*
X156585000Y-62405000D01*
G75*
G02*
X156430000Y-62560000I-155000J0D01*
G01*
X156005000Y-62560000D01*
G75*
G02*
X155850000Y-62405000I0J155000D01*
G01*
X155850000Y-62095000D01*
G75*
G02*
X156005000Y-61940000I155000J0D01*
G01*
X156430000Y-61940000D01*
G75*
G02*
X156585000Y-62095000I0J-155000D01*
G01*
G37*
G36*
G01*
X155450000Y-62095000D02*
X155450000Y-62405000D01*
G75*
G02*
X155295000Y-62560000I-155000J0D01*
G01*
X154870000Y-62560000D01*
G75*
G02*
X154715000Y-62405000I0J155000D01*
G01*
X154715000Y-62095000D01*
G75*
G02*
X154870000Y-61940000I155000J0D01*
G01*
X155295000Y-61940000D01*
G75*
G02*
X155450000Y-62095000I0J-155000D01*
G01*
G37*
G36*
G01*
X171850000Y-61905000D02*
X171850000Y-61595000D01*
G75*
G02*
X172005000Y-61440000I155000J0D01*
G01*
X172430000Y-61440000D01*
G75*
G02*
X172585000Y-61595000I0J-155000D01*
G01*
X172585000Y-61905000D01*
G75*
G02*
X172430000Y-62060000I-155000J0D01*
G01*
X172005000Y-62060000D01*
G75*
G02*
X171850000Y-61905000I0J155000D01*
G01*
G37*
G36*
G01*
X170715000Y-61905000D02*
X170715000Y-61595000D01*
G75*
G02*
X170870000Y-61440000I155000J0D01*
G01*
X171295000Y-61440000D01*
G75*
G02*
X171450000Y-61595000I0J-155000D01*
G01*
X171450000Y-61905000D01*
G75*
G02*
X171295000Y-62060000I-155000J0D01*
G01*
X170870000Y-62060000D01*
G75*
G02*
X170715000Y-61905000I0J155000D01*
G01*
G37*
G36*
G01*
X164555000Y-55435000D02*
X164245000Y-55435000D01*
G75*
G02*
X164090000Y-55280000I0J155000D01*
G01*
X164090000Y-54855000D01*
G75*
G02*
X164245000Y-54700000I155000J0D01*
G01*
X164555000Y-54700000D01*
G75*
G02*
X164710000Y-54855000I0J-155000D01*
G01*
X164710000Y-55280000D01*
G75*
G02*
X164555000Y-55435000I-155000J0D01*
G01*
G37*
G36*
G01*
X164555000Y-54300000D02*
X164245000Y-54300000D01*
G75*
G02*
X164090000Y-54145000I0J155000D01*
G01*
X164090000Y-53720000D01*
G75*
G02*
X164245000Y-53565000I155000J0D01*
G01*
X164555000Y-53565000D01*
G75*
G02*
X164710000Y-53720000I0J-155000D01*
G01*
X164710000Y-54145000D01*
G75*
G02*
X164555000Y-54300000I-155000J0D01*
G01*
G37*
G36*
G01*
X161055000Y-54300000D02*
X160745000Y-54300000D01*
G75*
G02*
X160590000Y-54145000I0J155000D01*
G01*
X160590000Y-53720000D01*
G75*
G02*
X160745000Y-53565000I155000J0D01*
G01*
X161055000Y-53565000D01*
G75*
G02*
X161210000Y-53720000I0J-155000D01*
G01*
X161210000Y-54145000D01*
G75*
G02*
X161055000Y-54300000I-155000J0D01*
G01*
G37*
G36*
G01*
X161055000Y-55435000D02*
X160745000Y-55435000D01*
G75*
G02*
X160590000Y-55280000I0J155000D01*
G01*
X160590000Y-54855000D01*
G75*
G02*
X160745000Y-54700000I155000J0D01*
G01*
X161055000Y-54700000D01*
G75*
G02*
X161210000Y-54855000I0J-155000D01*
G01*
X161210000Y-55280000D01*
G75*
G02*
X161055000Y-55435000I-155000J0D01*
G01*
G37*
G36*
G01*
X159245000Y-69450000D02*
X159555000Y-69450000D01*
G75*
G02*
X159710000Y-69605000I0J-155000D01*
G01*
X159710000Y-70030000D01*
G75*
G02*
X159555000Y-70185000I-155000J0D01*
G01*
X159245000Y-70185000D01*
G75*
G02*
X159090000Y-70030000I0J155000D01*
G01*
X159090000Y-69605000D01*
G75*
G02*
X159245000Y-69450000I155000J0D01*
G01*
G37*
G36*
G01*
X159245000Y-68315000D02*
X159555000Y-68315000D01*
G75*
G02*
X159710000Y-68470000I0J-155000D01*
G01*
X159710000Y-68895000D01*
G75*
G02*
X159555000Y-69050000I-155000J0D01*
G01*
X159245000Y-69050000D01*
G75*
G02*
X159090000Y-68895000I0J155000D01*
G01*
X159090000Y-68470000D01*
G75*
G02*
X159245000Y-68315000I155000J0D01*
G01*
G37*
G36*
G01*
X158245000Y-68315000D02*
X158555000Y-68315000D01*
G75*
G02*
X158710000Y-68470000I0J-155000D01*
G01*
X158710000Y-68895000D01*
G75*
G02*
X158555000Y-69050000I-155000J0D01*
G01*
X158245000Y-69050000D01*
G75*
G02*
X158090000Y-68895000I0J155000D01*
G01*
X158090000Y-68470000D01*
G75*
G02*
X158245000Y-68315000I155000J0D01*
G01*
G37*
G36*
G01*
X158245000Y-69450000D02*
X158555000Y-69450000D01*
G75*
G02*
X158710000Y-69605000I0J-155000D01*
G01*
X158710000Y-70030000D01*
G75*
G02*
X158555000Y-70185000I-155000J0D01*
G01*
X158245000Y-70185000D01*
G75*
G02*
X158090000Y-70030000I0J155000D01*
G01*
X158090000Y-69605000D01*
G75*
G02*
X158245000Y-69450000I155000J0D01*
G01*
G37*
G36*
G01*
X155450000Y-65095000D02*
X155450000Y-65405000D01*
G75*
G02*
X155295000Y-65560000I-155000J0D01*
G01*
X154870000Y-65560000D01*
G75*
G02*
X154715000Y-65405000I0J155000D01*
G01*
X154715000Y-65095000D01*
G75*
G02*
X154870000Y-64940000I155000J0D01*
G01*
X155295000Y-64940000D01*
G75*
G02*
X155450000Y-65095000I0J-155000D01*
G01*
G37*
G36*
G01*
X156585000Y-65095000D02*
X156585000Y-65405000D01*
G75*
G02*
X156430000Y-65560000I-155000J0D01*
G01*
X156005000Y-65560000D01*
G75*
G02*
X155850000Y-65405000I0J155000D01*
G01*
X155850000Y-65095000D01*
G75*
G02*
X156005000Y-64940000I155000J0D01*
G01*
X156430000Y-64940000D01*
G75*
G02*
X156585000Y-65095000I0J-155000D01*
G01*
G37*
G36*
G01*
X164245000Y-68315000D02*
X164555000Y-68315000D01*
G75*
G02*
X164710000Y-68470000I0J-155000D01*
G01*
X164710000Y-68895000D01*
G75*
G02*
X164555000Y-69050000I-155000J0D01*
G01*
X164245000Y-69050000D01*
G75*
G02*
X164090000Y-68895000I0J155000D01*
G01*
X164090000Y-68470000D01*
G75*
G02*
X164245000Y-68315000I155000J0D01*
G01*
G37*
G36*
G01*
X164245000Y-69450000D02*
X164555000Y-69450000D01*
G75*
G02*
X164710000Y-69605000I0J-155000D01*
G01*
X164710000Y-70030000D01*
G75*
G02*
X164555000Y-70185000I-155000J0D01*
G01*
X164245000Y-70185000D01*
G75*
G02*
X164090000Y-70030000I0J155000D01*
G01*
X164090000Y-69605000D01*
G75*
G02*
X164245000Y-69450000I155000J0D01*
G01*
G37*
G36*
G01*
X152550000Y-63705000D02*
X152550000Y-63395000D01*
G75*
G02*
X152705000Y-63240000I155000J0D01*
G01*
X153130000Y-63240000D01*
G75*
G02*
X153285000Y-63395000I0J-155000D01*
G01*
X153285000Y-63705000D01*
G75*
G02*
X153130000Y-63860000I-155000J0D01*
G01*
X152705000Y-63860000D01*
G75*
G02*
X152550000Y-63705000I0J155000D01*
G01*
G37*
G36*
G01*
X151415000Y-63705000D02*
X151415000Y-63395000D01*
G75*
G02*
X151570000Y-63240000I155000J0D01*
G01*
X151995000Y-63240000D01*
G75*
G02*
X152150000Y-63395000I0J-155000D01*
G01*
X152150000Y-63705000D01*
G75*
G02*
X151995000Y-63860000I-155000J0D01*
G01*
X151570000Y-63860000D01*
G75*
G02*
X151415000Y-63705000I0J155000D01*
G01*
G37*
D16*
X140540000Y-48780000D03*
D17*
X140540000Y-46240000D03*
X140540000Y-43700000D03*
X140540000Y-41160000D03*
D22*
X183650000Y-58170000D03*
X186950000Y-58170000D03*
X183650000Y-57170000D03*
X186950000Y-57170000D03*
X183650000Y-56170000D03*
X186950000Y-56170000D03*
X183650000Y-55170000D03*
X186950000Y-55170000D03*
X183650000Y-54170000D03*
X186950000Y-54170000D03*
D12*
G36*
X170400000Y-27950602D02*
G01*
X170424534Y-27950602D01*
X170473365Y-27955412D01*
X170521490Y-27964984D01*
X170568445Y-27979228D01*
X170613778Y-27998005D01*
X170657051Y-28021136D01*
X170697850Y-28048396D01*
X170735779Y-28079524D01*
X170770476Y-28114221D01*
X170801604Y-28152150D01*
X170828864Y-28192949D01*
X170851995Y-28236222D01*
X170870772Y-28281555D01*
X170885016Y-28328510D01*
X170894588Y-28376635D01*
X170899398Y-28425466D01*
X170899398Y-28450000D01*
X170900000Y-28450000D01*
X170900000Y-28950000D01*
X170899398Y-28950000D01*
X170899398Y-28974534D01*
X170894588Y-29023365D01*
X170885016Y-29071490D01*
X170870772Y-29118445D01*
X170851995Y-29163778D01*
X170828864Y-29207051D01*
X170801604Y-29247850D01*
X170770476Y-29285779D01*
X170735779Y-29320476D01*
X170697850Y-29351604D01*
X170657051Y-29378864D01*
X170613778Y-29401995D01*
X170568445Y-29420772D01*
X170521490Y-29435016D01*
X170473365Y-29444588D01*
X170424534Y-29449398D01*
X170400000Y-29449398D01*
X170400000Y-29450000D01*
X169850000Y-29450000D01*
X169850000Y-27950000D01*
X170400000Y-27950000D01*
X170400000Y-27950602D01*
G37*
D23*
X169100000Y-28700000D03*
D12*
G36*
X168350000Y-29450000D02*
G01*
X167800000Y-29450000D01*
X167800000Y-29449398D01*
X167775466Y-29449398D01*
X167726635Y-29444588D01*
X167678510Y-29435016D01*
X167631555Y-29420772D01*
X167586222Y-29401995D01*
X167542949Y-29378864D01*
X167502150Y-29351604D01*
X167464221Y-29320476D01*
X167429524Y-29285779D01*
X167398396Y-29247850D01*
X167371136Y-29207051D01*
X167348005Y-29163778D01*
X167329228Y-29118445D01*
X167314984Y-29071490D01*
X167305412Y-29023365D01*
X167300602Y-28974534D01*
X167300602Y-28950000D01*
X167300000Y-28950000D01*
X167300000Y-28450000D01*
X167300602Y-28450000D01*
X167300602Y-28425466D01*
X167305412Y-28376635D01*
X167314984Y-28328510D01*
X167329228Y-28281555D01*
X167348005Y-28236222D01*
X167371136Y-28192949D01*
X167398396Y-28152150D01*
X167429524Y-28114221D01*
X167464221Y-28079524D01*
X167502150Y-28048396D01*
X167542949Y-28021136D01*
X167586222Y-27998005D01*
X167631555Y-27979228D01*
X167678510Y-27964984D01*
X167726635Y-27955412D01*
X167775466Y-27950602D01*
X167800000Y-27950602D01*
X167800000Y-27950000D01*
X168350000Y-27950000D01*
X168350000Y-29450000D01*
G37*
G36*
G01*
X181480000Y-68180001D02*
X181480000Y-67279999D01*
G75*
G02*
X181729999Y-67030000I249999J0D01*
G01*
X182430001Y-67030000D01*
G75*
G02*
X182680000Y-67279999I0J-249999D01*
G01*
X182680000Y-68180001D01*
G75*
G02*
X182430001Y-68430000I-249999J0D01*
G01*
X181729999Y-68430000D01*
G75*
G02*
X181480000Y-68180001I0J249999D01*
G01*
G37*
G36*
G01*
X183480000Y-68180001D02*
X183480000Y-67279999D01*
G75*
G02*
X183729999Y-67030000I249999J0D01*
G01*
X184430001Y-67030000D01*
G75*
G02*
X184680000Y-67279999I0J-249999D01*
G01*
X184680000Y-68180001D01*
G75*
G02*
X184430001Y-68430000I-249999J0D01*
G01*
X183729999Y-68430000D01*
G75*
G02*
X183480000Y-68180001I0J249999D01*
G01*
G37*
G36*
G01*
X142455000Y-72590000D02*
X142455000Y-72910000D01*
G75*
G02*
X142295000Y-73070000I-160000J0D01*
G01*
X141900000Y-73070000D01*
G75*
G02*
X141740000Y-72910000I0J160000D01*
G01*
X141740000Y-72590000D01*
G75*
G02*
X141900000Y-72430000I160000J0D01*
G01*
X142295000Y-72430000D01*
G75*
G02*
X142455000Y-72590000I0J-160000D01*
G01*
G37*
G36*
G01*
X141260000Y-72590000D02*
X141260000Y-72910000D01*
G75*
G02*
X141100000Y-73070000I-160000J0D01*
G01*
X140705000Y-73070000D01*
G75*
G02*
X140545000Y-72910000I0J160000D01*
G01*
X140545000Y-72590000D01*
G75*
G02*
X140705000Y-72430000I160000J0D01*
G01*
X141100000Y-72430000D01*
G75*
G02*
X141260000Y-72590000I0J-160000D01*
G01*
G37*
G36*
G01*
X142705000Y-87590000D02*
X142705000Y-87910000D01*
G75*
G02*
X142545000Y-88070000I-160000J0D01*
G01*
X142150000Y-88070000D01*
G75*
G02*
X141990000Y-87910000I0J160000D01*
G01*
X141990000Y-87590000D01*
G75*
G02*
X142150000Y-87430000I160000J0D01*
G01*
X142545000Y-87430000D01*
G75*
G02*
X142705000Y-87590000I0J-160000D01*
G01*
G37*
G36*
G01*
X141510000Y-87590000D02*
X141510000Y-87910000D01*
G75*
G02*
X141350000Y-88070000I-160000J0D01*
G01*
X140955000Y-88070000D01*
G75*
G02*
X140795000Y-87910000I0J160000D01*
G01*
X140795000Y-87590000D01*
G75*
G02*
X140955000Y-87430000I160000J0D01*
G01*
X141350000Y-87430000D01*
G75*
G02*
X141510000Y-87590000I0J-160000D01*
G01*
G37*
G36*
G01*
X135545000Y-85160000D02*
X135545000Y-84840000D01*
G75*
G02*
X135705000Y-84680000I160000J0D01*
G01*
X136100000Y-84680000D01*
G75*
G02*
X136260000Y-84840000I0J-160000D01*
G01*
X136260000Y-85160000D01*
G75*
G02*
X136100000Y-85320000I-160000J0D01*
G01*
X135705000Y-85320000D01*
G75*
G02*
X135545000Y-85160000I0J160000D01*
G01*
G37*
G36*
G01*
X136740000Y-85160000D02*
X136740000Y-84840000D01*
G75*
G02*
X136900000Y-84680000I160000J0D01*
G01*
X137295000Y-84680000D01*
G75*
G02*
X137455000Y-84840000I0J-160000D01*
G01*
X137455000Y-85160000D01*
G75*
G02*
X137295000Y-85320000I-160000J0D01*
G01*
X136900000Y-85320000D01*
G75*
G02*
X136740000Y-85160000I0J160000D01*
G01*
G37*
G36*
G01*
X150205000Y-80090000D02*
X150205000Y-80410000D01*
G75*
G02*
X150045000Y-80570000I-160000J0D01*
G01*
X149650000Y-80570000D01*
G75*
G02*
X149490000Y-80410000I0J160000D01*
G01*
X149490000Y-80090000D01*
G75*
G02*
X149650000Y-79930000I160000J0D01*
G01*
X150045000Y-79930000D01*
G75*
G02*
X150205000Y-80090000I0J-160000D01*
G01*
G37*
G36*
G01*
X149010000Y-80090000D02*
X149010000Y-80410000D01*
G75*
G02*
X148850000Y-80570000I-160000J0D01*
G01*
X148455000Y-80570000D01*
G75*
G02*
X148295000Y-80410000I0J160000D01*
G01*
X148295000Y-80090000D01*
G75*
G02*
X148455000Y-79930000I160000J0D01*
G01*
X148850000Y-79930000D01*
G75*
G02*
X149010000Y-80090000I0J-160000D01*
G01*
G37*
G36*
G01*
X185760000Y-77510000D02*
X185760000Y-77830000D01*
G75*
G02*
X185600000Y-77990000I-160000J0D01*
G01*
X185205000Y-77990000D01*
G75*
G02*
X185045000Y-77830000I0J160000D01*
G01*
X185045000Y-77510000D01*
G75*
G02*
X185205000Y-77350000I160000J0D01*
G01*
X185600000Y-77350000D01*
G75*
G02*
X185760000Y-77510000I0J-160000D01*
G01*
G37*
G36*
G01*
X186955000Y-77510000D02*
X186955000Y-77830000D01*
G75*
G02*
X186795000Y-77990000I-160000J0D01*
G01*
X186400000Y-77990000D01*
G75*
G02*
X186240000Y-77830000I0J160000D01*
G01*
X186240000Y-77510000D01*
G75*
G02*
X186400000Y-77350000I160000J0D01*
G01*
X186795000Y-77350000D01*
G75*
G02*
X186955000Y-77510000I0J-160000D01*
G01*
G37*
G36*
G01*
X167680000Y-79590000D02*
X167680000Y-79910000D01*
G75*
G02*
X167520000Y-80070000I-160000J0D01*
G01*
X167125000Y-80070000D01*
G75*
G02*
X166965000Y-79910000I0J160000D01*
G01*
X166965000Y-79590000D01*
G75*
G02*
X167125000Y-79430000I160000J0D01*
G01*
X167520000Y-79430000D01*
G75*
G02*
X167680000Y-79590000I0J-160000D01*
G01*
G37*
G36*
G01*
X166485000Y-79590000D02*
X166485000Y-79910000D01*
G75*
G02*
X166325000Y-80070000I-160000J0D01*
G01*
X165930000Y-80070000D01*
G75*
G02*
X165770000Y-79910000I0J160000D01*
G01*
X165770000Y-79590000D01*
G75*
G02*
X165930000Y-79430000I160000J0D01*
G01*
X166325000Y-79430000D01*
G75*
G02*
X166485000Y-79590000I0J-160000D01*
G01*
G37*
G36*
G01*
X134660000Y-64455000D02*
X134340000Y-64455000D01*
G75*
G02*
X134180000Y-64295000I0J160000D01*
G01*
X134180000Y-63900000D01*
G75*
G02*
X134340000Y-63740000I160000J0D01*
G01*
X134660000Y-63740000D01*
G75*
G02*
X134820000Y-63900000I0J-160000D01*
G01*
X134820000Y-64295000D01*
G75*
G02*
X134660000Y-64455000I-160000J0D01*
G01*
G37*
G36*
G01*
X134660000Y-63260000D02*
X134340000Y-63260000D01*
G75*
G02*
X134180000Y-63100000I0J160000D01*
G01*
X134180000Y-62705000D01*
G75*
G02*
X134340000Y-62545000I160000J0D01*
G01*
X134660000Y-62545000D01*
G75*
G02*
X134820000Y-62705000I0J-160000D01*
G01*
X134820000Y-63100000D01*
G75*
G02*
X134660000Y-63260000I-160000J0D01*
G01*
G37*
G36*
G01*
X140860000Y-62960000D02*
X140540000Y-62960000D01*
G75*
G02*
X140380000Y-62800000I0J160000D01*
G01*
X140380000Y-62405000D01*
G75*
G02*
X140540000Y-62245000I160000J0D01*
G01*
X140860000Y-62245000D01*
G75*
G02*
X141020000Y-62405000I0J-160000D01*
G01*
X141020000Y-62800000D01*
G75*
G02*
X140860000Y-62960000I-160000J0D01*
G01*
G37*
G36*
G01*
X140860000Y-64155000D02*
X140540000Y-64155000D01*
G75*
G02*
X140380000Y-63995000I0J160000D01*
G01*
X140380000Y-63600000D01*
G75*
G02*
X140540000Y-63440000I160000J0D01*
G01*
X140860000Y-63440000D01*
G75*
G02*
X141020000Y-63600000I0J-160000D01*
G01*
X141020000Y-63995000D01*
G75*
G02*
X140860000Y-64155000I-160000J0D01*
G01*
G37*
G36*
G01*
X171410000Y-60590000D02*
X171410000Y-60910000D01*
G75*
G02*
X171250000Y-61070000I-160000J0D01*
G01*
X170855000Y-61070000D01*
G75*
G02*
X170695000Y-60910000I0J160000D01*
G01*
X170695000Y-60590000D01*
G75*
G02*
X170855000Y-60430000I160000J0D01*
G01*
X171250000Y-60430000D01*
G75*
G02*
X171410000Y-60590000I0J-160000D01*
G01*
G37*
G36*
G01*
X172605000Y-60590000D02*
X172605000Y-60910000D01*
G75*
G02*
X172445000Y-61070000I-160000J0D01*
G01*
X172050000Y-61070000D01*
G75*
G02*
X171890000Y-60910000I0J160000D01*
G01*
X171890000Y-60590000D01*
G75*
G02*
X172050000Y-60430000I160000J0D01*
G01*
X172445000Y-60430000D01*
G75*
G02*
X172605000Y-60590000I0J-160000D01*
G01*
G37*
G36*
G01*
X171410000Y-58590000D02*
X171410000Y-58910000D01*
G75*
G02*
X171250000Y-59070000I-160000J0D01*
G01*
X170855000Y-59070000D01*
G75*
G02*
X170695000Y-58910000I0J160000D01*
G01*
X170695000Y-58590000D01*
G75*
G02*
X170855000Y-58430000I160000J0D01*
G01*
X171250000Y-58430000D01*
G75*
G02*
X171410000Y-58590000I0J-160000D01*
G01*
G37*
G36*
G01*
X172605000Y-58590000D02*
X172605000Y-58910000D01*
G75*
G02*
X172445000Y-59070000I-160000J0D01*
G01*
X172050000Y-59070000D01*
G75*
G02*
X171890000Y-58910000I0J160000D01*
G01*
X171890000Y-58590000D01*
G75*
G02*
X172050000Y-58430000I160000J0D01*
G01*
X172445000Y-58430000D01*
G75*
G02*
X172605000Y-58590000I0J-160000D01*
G01*
G37*
G36*
G01*
X171410000Y-59590000D02*
X171410000Y-59910000D01*
G75*
G02*
X171250000Y-60070000I-160000J0D01*
G01*
X170855000Y-60070000D01*
G75*
G02*
X170695000Y-59910000I0J160000D01*
G01*
X170695000Y-59590000D01*
G75*
G02*
X170855000Y-59430000I160000J0D01*
G01*
X171250000Y-59430000D01*
G75*
G02*
X171410000Y-59590000I0J-160000D01*
G01*
G37*
G36*
G01*
X172605000Y-59590000D02*
X172605000Y-59910000D01*
G75*
G02*
X172445000Y-60070000I-160000J0D01*
G01*
X172050000Y-60070000D01*
G75*
G02*
X171890000Y-59910000I0J160000D01*
G01*
X171890000Y-59590000D01*
G75*
G02*
X172050000Y-59430000I160000J0D01*
G01*
X172445000Y-59430000D01*
G75*
G02*
X172605000Y-59590000I0J-160000D01*
G01*
G37*
G36*
G01*
X179955000Y-30840000D02*
X179955000Y-31160000D01*
G75*
G02*
X179795000Y-31320000I-160000J0D01*
G01*
X179400000Y-31320000D01*
G75*
G02*
X179240000Y-31160000I0J160000D01*
G01*
X179240000Y-30840000D01*
G75*
G02*
X179400000Y-30680000I160000J0D01*
G01*
X179795000Y-30680000D01*
G75*
G02*
X179955000Y-30840000I0J-160000D01*
G01*
G37*
G36*
G01*
X178760000Y-30840000D02*
X178760000Y-31160000D01*
G75*
G02*
X178600000Y-31320000I-160000J0D01*
G01*
X178205000Y-31320000D01*
G75*
G02*
X178045000Y-31160000I0J160000D01*
G01*
X178045000Y-30840000D01*
G75*
G02*
X178205000Y-30680000I160000J0D01*
G01*
X178600000Y-30680000D01*
G75*
G02*
X178760000Y-30840000I0J-160000D01*
G01*
G37*
G36*
G01*
X139490000Y-63440000D02*
X139810000Y-63440000D01*
G75*
G02*
X139970000Y-63600000I0J-160000D01*
G01*
X139970000Y-63995000D01*
G75*
G02*
X139810000Y-64155000I-160000J0D01*
G01*
X139490000Y-64155000D01*
G75*
G02*
X139330000Y-63995000I0J160000D01*
G01*
X139330000Y-63600000D01*
G75*
G02*
X139490000Y-63440000I160000J0D01*
G01*
G37*
G36*
G01*
X139490000Y-62245000D02*
X139810000Y-62245000D01*
G75*
G02*
X139970000Y-62405000I0J-160000D01*
G01*
X139970000Y-62800000D01*
G75*
G02*
X139810000Y-62960000I-160000J0D01*
G01*
X139490000Y-62960000D01*
G75*
G02*
X139330000Y-62800000I0J160000D01*
G01*
X139330000Y-62405000D01*
G75*
G02*
X139490000Y-62245000I160000J0D01*
G01*
G37*
G36*
G01*
X162044000Y-60400000D02*
X164956000Y-60400000D01*
G75*
G02*
X165100000Y-60544000I0J-144000D01*
G01*
X165100000Y-63456000D01*
G75*
G02*
X164956000Y-63600000I-144000J0D01*
G01*
X162044000Y-63600000D01*
G75*
G02*
X161900000Y-63456000I0J144000D01*
G01*
X161900000Y-60544000D01*
G75*
G02*
X162044000Y-60400000I144000J0D01*
G01*
G37*
G36*
G01*
X160850000Y-58125000D02*
X160950000Y-58125000D01*
G75*
G02*
X161000000Y-58175000I0J-50000D01*
G01*
X161000000Y-58950000D01*
G75*
G02*
X160950000Y-59000000I-50000J0D01*
G01*
X160850000Y-59000000D01*
G75*
G02*
X160800000Y-58950000I0J50000D01*
G01*
X160800000Y-58175000D01*
G75*
G02*
X160850000Y-58125000I50000J0D01*
G01*
G37*
G36*
G01*
X161250000Y-58125000D02*
X161350000Y-58125000D01*
G75*
G02*
X161400000Y-58175000I0J-50000D01*
G01*
X161400000Y-58950000D01*
G75*
G02*
X161350000Y-59000000I-50000J0D01*
G01*
X161250000Y-59000000D01*
G75*
G02*
X161200000Y-58950000I0J50000D01*
G01*
X161200000Y-58175000D01*
G75*
G02*
X161250000Y-58125000I50000J0D01*
G01*
G37*
G36*
G01*
X161650000Y-58125000D02*
X161750000Y-58125000D01*
G75*
G02*
X161800000Y-58175000I0J-50000D01*
G01*
X161800000Y-58950000D01*
G75*
G02*
X161750000Y-59000000I-50000J0D01*
G01*
X161650000Y-59000000D01*
G75*
G02*
X161600000Y-58950000I0J50000D01*
G01*
X161600000Y-58175000D01*
G75*
G02*
X161650000Y-58125000I50000J0D01*
G01*
G37*
G36*
G01*
X162050000Y-58125000D02*
X162150000Y-58125000D01*
G75*
G02*
X162200000Y-58175000I0J-50000D01*
G01*
X162200000Y-58950000D01*
G75*
G02*
X162150000Y-59000000I-50000J0D01*
G01*
X162050000Y-59000000D01*
G75*
G02*
X162000000Y-58950000I0J50000D01*
G01*
X162000000Y-58175000D01*
G75*
G02*
X162050000Y-58125000I50000J0D01*
G01*
G37*
G36*
G01*
X162450000Y-58125000D02*
X162550000Y-58125000D01*
G75*
G02*
X162600000Y-58175000I0J-50000D01*
G01*
X162600000Y-58950000D01*
G75*
G02*
X162550000Y-59000000I-50000J0D01*
G01*
X162450000Y-59000000D01*
G75*
G02*
X162400000Y-58950000I0J50000D01*
G01*
X162400000Y-58175000D01*
G75*
G02*
X162450000Y-58125000I50000J0D01*
G01*
G37*
G36*
G01*
X162850000Y-58125000D02*
X162950000Y-58125000D01*
G75*
G02*
X163000000Y-58175000I0J-50000D01*
G01*
X163000000Y-58950000D01*
G75*
G02*
X162950000Y-59000000I-50000J0D01*
G01*
X162850000Y-59000000D01*
G75*
G02*
X162800000Y-58950000I0J50000D01*
G01*
X162800000Y-58175000D01*
G75*
G02*
X162850000Y-58125000I50000J0D01*
G01*
G37*
G36*
G01*
X163250000Y-58125000D02*
X163350000Y-58125000D01*
G75*
G02*
X163400000Y-58175000I0J-50000D01*
G01*
X163400000Y-58950000D01*
G75*
G02*
X163350000Y-59000000I-50000J0D01*
G01*
X163250000Y-59000000D01*
G75*
G02*
X163200000Y-58950000I0J50000D01*
G01*
X163200000Y-58175000D01*
G75*
G02*
X163250000Y-58125000I50000J0D01*
G01*
G37*
G36*
G01*
X163650000Y-58125000D02*
X163750000Y-58125000D01*
G75*
G02*
X163800000Y-58175000I0J-50000D01*
G01*
X163800000Y-58950000D01*
G75*
G02*
X163750000Y-59000000I-50000J0D01*
G01*
X163650000Y-59000000D01*
G75*
G02*
X163600000Y-58950000I0J50000D01*
G01*
X163600000Y-58175000D01*
G75*
G02*
X163650000Y-58125000I50000J0D01*
G01*
G37*
G36*
G01*
X164050000Y-58125000D02*
X164150000Y-58125000D01*
G75*
G02*
X164200000Y-58175000I0J-50000D01*
G01*
X164200000Y-58950000D01*
G75*
G02*
X164150000Y-59000000I-50000J0D01*
G01*
X164050000Y-59000000D01*
G75*
G02*
X164000000Y-58950000I0J50000D01*
G01*
X164000000Y-58175000D01*
G75*
G02*
X164050000Y-58125000I50000J0D01*
G01*
G37*
G36*
G01*
X164450000Y-58125000D02*
X164550000Y-58125000D01*
G75*
G02*
X164600000Y-58175000I0J-50000D01*
G01*
X164600000Y-58950000D01*
G75*
G02*
X164550000Y-59000000I-50000J0D01*
G01*
X164450000Y-59000000D01*
G75*
G02*
X164400000Y-58950000I0J50000D01*
G01*
X164400000Y-58175000D01*
G75*
G02*
X164450000Y-58125000I50000J0D01*
G01*
G37*
G36*
G01*
X164850000Y-58125000D02*
X164950000Y-58125000D01*
G75*
G02*
X165000000Y-58175000I0J-50000D01*
G01*
X165000000Y-58950000D01*
G75*
G02*
X164950000Y-59000000I-50000J0D01*
G01*
X164850000Y-59000000D01*
G75*
G02*
X164800000Y-58950000I0J50000D01*
G01*
X164800000Y-58175000D01*
G75*
G02*
X164850000Y-58125000I50000J0D01*
G01*
G37*
G36*
G01*
X165250000Y-58125000D02*
X165350000Y-58125000D01*
G75*
G02*
X165400000Y-58175000I0J-50000D01*
G01*
X165400000Y-58950000D01*
G75*
G02*
X165350000Y-59000000I-50000J0D01*
G01*
X165250000Y-59000000D01*
G75*
G02*
X165200000Y-58950000I0J50000D01*
G01*
X165200000Y-58175000D01*
G75*
G02*
X165250000Y-58125000I50000J0D01*
G01*
G37*
G36*
G01*
X165650000Y-58125000D02*
X165750000Y-58125000D01*
G75*
G02*
X165800000Y-58175000I0J-50000D01*
G01*
X165800000Y-58950000D01*
G75*
G02*
X165750000Y-59000000I-50000J0D01*
G01*
X165650000Y-59000000D01*
G75*
G02*
X165600000Y-58950000I0J50000D01*
G01*
X165600000Y-58175000D01*
G75*
G02*
X165650000Y-58125000I50000J0D01*
G01*
G37*
G36*
G01*
X166050000Y-58125000D02*
X166150000Y-58125000D01*
G75*
G02*
X166200000Y-58175000I0J-50000D01*
G01*
X166200000Y-58950000D01*
G75*
G02*
X166150000Y-59000000I-50000J0D01*
G01*
X166050000Y-59000000D01*
G75*
G02*
X166000000Y-58950000I0J50000D01*
G01*
X166000000Y-58175000D01*
G75*
G02*
X166050000Y-58125000I50000J0D01*
G01*
G37*
G36*
G01*
X166550000Y-59300000D02*
X167325000Y-59300000D01*
G75*
G02*
X167375000Y-59350000I0J-50000D01*
G01*
X167375000Y-59450000D01*
G75*
G02*
X167325000Y-59500000I-50000J0D01*
G01*
X166550000Y-59500000D01*
G75*
G02*
X166500000Y-59450000I0J50000D01*
G01*
X166500000Y-59350000D01*
G75*
G02*
X166550000Y-59300000I50000J0D01*
G01*
G37*
G36*
G01*
X166550000Y-59700000D02*
X167325000Y-59700000D01*
G75*
G02*
X167375000Y-59750000I0J-50000D01*
G01*
X167375000Y-59850000D01*
G75*
G02*
X167325000Y-59900000I-50000J0D01*
G01*
X166550000Y-59900000D01*
G75*
G02*
X166500000Y-59850000I0J50000D01*
G01*
X166500000Y-59750000D01*
G75*
G02*
X166550000Y-59700000I50000J0D01*
G01*
G37*
G36*
G01*
X166550000Y-60100000D02*
X167325000Y-60100000D01*
G75*
G02*
X167375000Y-60150000I0J-50000D01*
G01*
X167375000Y-60250000D01*
G75*
G02*
X167325000Y-60300000I-50000J0D01*
G01*
X166550000Y-60300000D01*
G75*
G02*
X166500000Y-60250000I0J50000D01*
G01*
X166500000Y-60150000D01*
G75*
G02*
X166550000Y-60100000I50000J0D01*
G01*
G37*
G36*
G01*
X166550000Y-60500000D02*
X167325000Y-60500000D01*
G75*
G02*
X167375000Y-60550000I0J-50000D01*
G01*
X167375000Y-60650000D01*
G75*
G02*
X167325000Y-60700000I-50000J0D01*
G01*
X166550000Y-60700000D01*
G75*
G02*
X166500000Y-60650000I0J50000D01*
G01*
X166500000Y-60550000D01*
G75*
G02*
X166550000Y-60500000I50000J0D01*
G01*
G37*
G36*
G01*
X166550000Y-60900000D02*
X167325000Y-60900000D01*
G75*
G02*
X167375000Y-60950000I0J-50000D01*
G01*
X167375000Y-61050000D01*
G75*
G02*
X167325000Y-61100000I-50000J0D01*
G01*
X166550000Y-61100000D01*
G75*
G02*
X166500000Y-61050000I0J50000D01*
G01*
X166500000Y-60950000D01*
G75*
G02*
X166550000Y-60900000I50000J0D01*
G01*
G37*
G36*
G01*
X166550000Y-61300000D02*
X167325000Y-61300000D01*
G75*
G02*
X167375000Y-61350000I0J-50000D01*
G01*
X167375000Y-61450000D01*
G75*
G02*
X167325000Y-61500000I-50000J0D01*
G01*
X166550000Y-61500000D01*
G75*
G02*
X166500000Y-61450000I0J50000D01*
G01*
X166500000Y-61350000D01*
G75*
G02*
X166550000Y-61300000I50000J0D01*
G01*
G37*
G36*
G01*
X166550000Y-61700000D02*
X167325000Y-61700000D01*
G75*
G02*
X167375000Y-61750000I0J-50000D01*
G01*
X167375000Y-61850000D01*
G75*
G02*
X167325000Y-61900000I-50000J0D01*
G01*
X166550000Y-61900000D01*
G75*
G02*
X166500000Y-61850000I0J50000D01*
G01*
X166500000Y-61750000D01*
G75*
G02*
X166550000Y-61700000I50000J0D01*
G01*
G37*
G36*
G01*
X166550000Y-62100000D02*
X167325000Y-62100000D01*
G75*
G02*
X167375000Y-62150000I0J-50000D01*
G01*
X167375000Y-62250000D01*
G75*
G02*
X167325000Y-62300000I-50000J0D01*
G01*
X166550000Y-62300000D01*
G75*
G02*
X166500000Y-62250000I0J50000D01*
G01*
X166500000Y-62150000D01*
G75*
G02*
X166550000Y-62100000I50000J0D01*
G01*
G37*
G36*
G01*
X166550000Y-62500000D02*
X167325000Y-62500000D01*
G75*
G02*
X167375000Y-62550000I0J-50000D01*
G01*
X167375000Y-62650000D01*
G75*
G02*
X167325000Y-62700000I-50000J0D01*
G01*
X166550000Y-62700000D01*
G75*
G02*
X166500000Y-62650000I0J50000D01*
G01*
X166500000Y-62550000D01*
G75*
G02*
X166550000Y-62500000I50000J0D01*
G01*
G37*
G36*
G01*
X166550000Y-62900000D02*
X167325000Y-62900000D01*
G75*
G02*
X167375000Y-62950000I0J-50000D01*
G01*
X167375000Y-63050000D01*
G75*
G02*
X167325000Y-63100000I-50000J0D01*
G01*
X166550000Y-63100000D01*
G75*
G02*
X166500000Y-63050000I0J50000D01*
G01*
X166500000Y-62950000D01*
G75*
G02*
X166550000Y-62900000I50000J0D01*
G01*
G37*
G36*
G01*
X166550000Y-63300000D02*
X167325000Y-63300000D01*
G75*
G02*
X167375000Y-63350000I0J-50000D01*
G01*
X167375000Y-63450000D01*
G75*
G02*
X167325000Y-63500000I-50000J0D01*
G01*
X166550000Y-63500000D01*
G75*
G02*
X166500000Y-63450000I0J50000D01*
G01*
X166500000Y-63350000D01*
G75*
G02*
X166550000Y-63300000I50000J0D01*
G01*
G37*
G36*
G01*
X166550000Y-63700000D02*
X167325000Y-63700000D01*
G75*
G02*
X167375000Y-63750000I0J-50000D01*
G01*
X167375000Y-63850000D01*
G75*
G02*
X167325000Y-63900000I-50000J0D01*
G01*
X166550000Y-63900000D01*
G75*
G02*
X166500000Y-63850000I0J50000D01*
G01*
X166500000Y-63750000D01*
G75*
G02*
X166550000Y-63700000I50000J0D01*
G01*
G37*
G36*
G01*
X166550000Y-64100000D02*
X167325000Y-64100000D01*
G75*
G02*
X167375000Y-64150000I0J-50000D01*
G01*
X167375000Y-64250000D01*
G75*
G02*
X167325000Y-64300000I-50000J0D01*
G01*
X166550000Y-64300000D01*
G75*
G02*
X166500000Y-64250000I0J50000D01*
G01*
X166500000Y-64150000D01*
G75*
G02*
X166550000Y-64100000I50000J0D01*
G01*
G37*
G36*
G01*
X166550000Y-64500000D02*
X167325000Y-64500000D01*
G75*
G02*
X167375000Y-64550000I0J-50000D01*
G01*
X167375000Y-64650000D01*
G75*
G02*
X167325000Y-64700000I-50000J0D01*
G01*
X166550000Y-64700000D01*
G75*
G02*
X166500000Y-64650000I0J50000D01*
G01*
X166500000Y-64550000D01*
G75*
G02*
X166550000Y-64500000I50000J0D01*
G01*
G37*
G36*
G01*
X166050000Y-65000000D02*
X166150000Y-65000000D01*
G75*
G02*
X166200000Y-65050000I0J-50000D01*
G01*
X166200000Y-65825000D01*
G75*
G02*
X166150000Y-65875000I-50000J0D01*
G01*
X166050000Y-65875000D01*
G75*
G02*
X166000000Y-65825000I0J50000D01*
G01*
X166000000Y-65050000D01*
G75*
G02*
X166050000Y-65000000I50000J0D01*
G01*
G37*
G36*
G01*
X165650000Y-65000000D02*
X165750000Y-65000000D01*
G75*
G02*
X165800000Y-65050000I0J-50000D01*
G01*
X165800000Y-65825000D01*
G75*
G02*
X165750000Y-65875000I-50000J0D01*
G01*
X165650000Y-65875000D01*
G75*
G02*
X165600000Y-65825000I0J50000D01*
G01*
X165600000Y-65050000D01*
G75*
G02*
X165650000Y-65000000I50000J0D01*
G01*
G37*
G36*
G01*
X165250000Y-65000000D02*
X165350000Y-65000000D01*
G75*
G02*
X165400000Y-65050000I0J-50000D01*
G01*
X165400000Y-65825000D01*
G75*
G02*
X165350000Y-65875000I-50000J0D01*
G01*
X165250000Y-65875000D01*
G75*
G02*
X165200000Y-65825000I0J50000D01*
G01*
X165200000Y-65050000D01*
G75*
G02*
X165250000Y-65000000I50000J0D01*
G01*
G37*
G36*
G01*
X164850000Y-65000000D02*
X164950000Y-65000000D01*
G75*
G02*
X165000000Y-65050000I0J-50000D01*
G01*
X165000000Y-65825000D01*
G75*
G02*
X164950000Y-65875000I-50000J0D01*
G01*
X164850000Y-65875000D01*
G75*
G02*
X164800000Y-65825000I0J50000D01*
G01*
X164800000Y-65050000D01*
G75*
G02*
X164850000Y-65000000I50000J0D01*
G01*
G37*
G36*
G01*
X164450000Y-65000000D02*
X164550000Y-65000000D01*
G75*
G02*
X164600000Y-65050000I0J-50000D01*
G01*
X164600000Y-65825000D01*
G75*
G02*
X164550000Y-65875000I-50000J0D01*
G01*
X164450000Y-65875000D01*
G75*
G02*
X164400000Y-65825000I0J50000D01*
G01*
X164400000Y-65050000D01*
G75*
G02*
X164450000Y-65000000I50000J0D01*
G01*
G37*
G36*
G01*
X164050000Y-65000000D02*
X164150000Y-65000000D01*
G75*
G02*
X164200000Y-65050000I0J-50000D01*
G01*
X164200000Y-65825000D01*
G75*
G02*
X164150000Y-65875000I-50000J0D01*
G01*
X164050000Y-65875000D01*
G75*
G02*
X164000000Y-65825000I0J50000D01*
G01*
X164000000Y-65050000D01*
G75*
G02*
X164050000Y-65000000I50000J0D01*
G01*
G37*
G36*
G01*
X163650000Y-65000000D02*
X163750000Y-65000000D01*
G75*
G02*
X163800000Y-65050000I0J-50000D01*
G01*
X163800000Y-65825000D01*
G75*
G02*
X163750000Y-65875000I-50000J0D01*
G01*
X163650000Y-65875000D01*
G75*
G02*
X163600000Y-65825000I0J50000D01*
G01*
X163600000Y-65050000D01*
G75*
G02*
X163650000Y-65000000I50000J0D01*
G01*
G37*
G36*
G01*
X163250000Y-65000000D02*
X163350000Y-65000000D01*
G75*
G02*
X163400000Y-65050000I0J-50000D01*
G01*
X163400000Y-65825000D01*
G75*
G02*
X163350000Y-65875000I-50000J0D01*
G01*
X163250000Y-65875000D01*
G75*
G02*
X163200000Y-65825000I0J50000D01*
G01*
X163200000Y-65050000D01*
G75*
G02*
X163250000Y-65000000I50000J0D01*
G01*
G37*
G36*
G01*
X162850000Y-65000000D02*
X162950000Y-65000000D01*
G75*
G02*
X163000000Y-65050000I0J-50000D01*
G01*
X163000000Y-65825000D01*
G75*
G02*
X162950000Y-65875000I-50000J0D01*
G01*
X162850000Y-65875000D01*
G75*
G02*
X162800000Y-65825000I0J50000D01*
G01*
X162800000Y-65050000D01*
G75*
G02*
X162850000Y-65000000I50000J0D01*
G01*
G37*
G36*
G01*
X162450000Y-65000000D02*
X162550000Y-65000000D01*
G75*
G02*
X162600000Y-65050000I0J-50000D01*
G01*
X162600000Y-65825000D01*
G75*
G02*
X162550000Y-65875000I-50000J0D01*
G01*
X162450000Y-65875000D01*
G75*
G02*
X162400000Y-65825000I0J50000D01*
G01*
X162400000Y-65050000D01*
G75*
G02*
X162450000Y-65000000I50000J0D01*
G01*
G37*
G36*
G01*
X162050000Y-65000000D02*
X162150000Y-65000000D01*
G75*
G02*
X162200000Y-65050000I0J-50000D01*
G01*
X162200000Y-65825000D01*
G75*
G02*
X162150000Y-65875000I-50000J0D01*
G01*
X162050000Y-65875000D01*
G75*
G02*
X162000000Y-65825000I0J50000D01*
G01*
X162000000Y-65050000D01*
G75*
G02*
X162050000Y-65000000I50000J0D01*
G01*
G37*
G36*
G01*
X161650000Y-65000000D02*
X161750000Y-65000000D01*
G75*
G02*
X161800000Y-65050000I0J-50000D01*
G01*
X161800000Y-65825000D01*
G75*
G02*
X161750000Y-65875000I-50000J0D01*
G01*
X161650000Y-65875000D01*
G75*
G02*
X161600000Y-65825000I0J50000D01*
G01*
X161600000Y-65050000D01*
G75*
G02*
X161650000Y-65000000I50000J0D01*
G01*
G37*
G36*
G01*
X161250000Y-65000000D02*
X161350000Y-65000000D01*
G75*
G02*
X161400000Y-65050000I0J-50000D01*
G01*
X161400000Y-65825000D01*
G75*
G02*
X161350000Y-65875000I-50000J0D01*
G01*
X161250000Y-65875000D01*
G75*
G02*
X161200000Y-65825000I0J50000D01*
G01*
X161200000Y-65050000D01*
G75*
G02*
X161250000Y-65000000I50000J0D01*
G01*
G37*
G36*
G01*
X160850000Y-65000000D02*
X160950000Y-65000000D01*
G75*
G02*
X161000000Y-65050000I0J-50000D01*
G01*
X161000000Y-65825000D01*
G75*
G02*
X160950000Y-65875000I-50000J0D01*
G01*
X160850000Y-65875000D01*
G75*
G02*
X160800000Y-65825000I0J50000D01*
G01*
X160800000Y-65050000D01*
G75*
G02*
X160850000Y-65000000I50000J0D01*
G01*
G37*
G36*
G01*
X159675000Y-64500000D02*
X160450000Y-64500000D01*
G75*
G02*
X160500000Y-64550000I0J-50000D01*
G01*
X160500000Y-64650000D01*
G75*
G02*
X160450000Y-64700000I-50000J0D01*
G01*
X159675000Y-64700000D01*
G75*
G02*
X159625000Y-64650000I0J50000D01*
G01*
X159625000Y-64550000D01*
G75*
G02*
X159675000Y-64500000I50000J0D01*
G01*
G37*
G36*
G01*
X159675000Y-64100000D02*
X160450000Y-64100000D01*
G75*
G02*
X160500000Y-64150000I0J-50000D01*
G01*
X160500000Y-64250000D01*
G75*
G02*
X160450000Y-64300000I-50000J0D01*
G01*
X159675000Y-64300000D01*
G75*
G02*
X159625000Y-64250000I0J50000D01*
G01*
X159625000Y-64150000D01*
G75*
G02*
X159675000Y-64100000I50000J0D01*
G01*
G37*
G36*
G01*
X159675000Y-63700000D02*
X160450000Y-63700000D01*
G75*
G02*
X160500000Y-63750000I0J-50000D01*
G01*
X160500000Y-63850000D01*
G75*
G02*
X160450000Y-63900000I-50000J0D01*
G01*
X159675000Y-63900000D01*
G75*
G02*
X159625000Y-63850000I0J50000D01*
G01*
X159625000Y-63750000D01*
G75*
G02*
X159675000Y-63700000I50000J0D01*
G01*
G37*
G36*
G01*
X159675000Y-63300000D02*
X160450000Y-63300000D01*
G75*
G02*
X160500000Y-63350000I0J-50000D01*
G01*
X160500000Y-63450000D01*
G75*
G02*
X160450000Y-63500000I-50000J0D01*
G01*
X159675000Y-63500000D01*
G75*
G02*
X159625000Y-63450000I0J50000D01*
G01*
X159625000Y-63350000D01*
G75*
G02*
X159675000Y-63300000I50000J0D01*
G01*
G37*
G36*
G01*
X159675000Y-62900000D02*
X160450000Y-62900000D01*
G75*
G02*
X160500000Y-62950000I0J-50000D01*
G01*
X160500000Y-63050000D01*
G75*
G02*
X160450000Y-63100000I-50000J0D01*
G01*
X159675000Y-63100000D01*
G75*
G02*
X159625000Y-63050000I0J50000D01*
G01*
X159625000Y-62950000D01*
G75*
G02*
X159675000Y-62900000I50000J0D01*
G01*
G37*
G36*
G01*
X159675000Y-62500000D02*
X160450000Y-62500000D01*
G75*
G02*
X160500000Y-62550000I0J-50000D01*
G01*
X160500000Y-62650000D01*
G75*
G02*
X160450000Y-62700000I-50000J0D01*
G01*
X159675000Y-62700000D01*
G75*
G02*
X159625000Y-62650000I0J50000D01*
G01*
X159625000Y-62550000D01*
G75*
G02*
X159675000Y-62500000I50000J0D01*
G01*
G37*
G36*
G01*
X159675000Y-62100000D02*
X160450000Y-62100000D01*
G75*
G02*
X160500000Y-62150000I0J-50000D01*
G01*
X160500000Y-62250000D01*
G75*
G02*
X160450000Y-62300000I-50000J0D01*
G01*
X159675000Y-62300000D01*
G75*
G02*
X159625000Y-62250000I0J50000D01*
G01*
X159625000Y-62150000D01*
G75*
G02*
X159675000Y-62100000I50000J0D01*
G01*
G37*
G36*
G01*
X159675000Y-61700000D02*
X160450000Y-61700000D01*
G75*
G02*
X160500000Y-61750000I0J-50000D01*
G01*
X160500000Y-61850000D01*
G75*
G02*
X160450000Y-61900000I-50000J0D01*
G01*
X159675000Y-61900000D01*
G75*
G02*
X159625000Y-61850000I0J50000D01*
G01*
X159625000Y-61750000D01*
G75*
G02*
X159675000Y-61700000I50000J0D01*
G01*
G37*
G36*
G01*
X159675000Y-61300000D02*
X160450000Y-61300000D01*
G75*
G02*
X160500000Y-61350000I0J-50000D01*
G01*
X160500000Y-61450000D01*
G75*
G02*
X160450000Y-61500000I-50000J0D01*
G01*
X159675000Y-61500000D01*
G75*
G02*
X159625000Y-61450000I0J50000D01*
G01*
X159625000Y-61350000D01*
G75*
G02*
X159675000Y-61300000I50000J0D01*
G01*
G37*
G36*
G01*
X159675000Y-60900000D02*
X160450000Y-60900000D01*
G75*
G02*
X160500000Y-60950000I0J-50000D01*
G01*
X160500000Y-61050000D01*
G75*
G02*
X160450000Y-61100000I-50000J0D01*
G01*
X159675000Y-61100000D01*
G75*
G02*
X159625000Y-61050000I0J50000D01*
G01*
X159625000Y-60950000D01*
G75*
G02*
X159675000Y-60900000I50000J0D01*
G01*
G37*
G36*
G01*
X159675000Y-60500000D02*
X160450000Y-60500000D01*
G75*
G02*
X160500000Y-60550000I0J-50000D01*
G01*
X160500000Y-60650000D01*
G75*
G02*
X160450000Y-60700000I-50000J0D01*
G01*
X159675000Y-60700000D01*
G75*
G02*
X159625000Y-60650000I0J50000D01*
G01*
X159625000Y-60550000D01*
G75*
G02*
X159675000Y-60500000I50000J0D01*
G01*
G37*
G36*
G01*
X159675000Y-60100000D02*
X160450000Y-60100000D01*
G75*
G02*
X160500000Y-60150000I0J-50000D01*
G01*
X160500000Y-60250000D01*
G75*
G02*
X160450000Y-60300000I-50000J0D01*
G01*
X159675000Y-60300000D01*
G75*
G02*
X159625000Y-60250000I0J50000D01*
G01*
X159625000Y-60150000D01*
G75*
G02*
X159675000Y-60100000I50000J0D01*
G01*
G37*
G36*
G01*
X159675000Y-59700000D02*
X160450000Y-59700000D01*
G75*
G02*
X160500000Y-59750000I0J-50000D01*
G01*
X160500000Y-59850000D01*
G75*
G02*
X160450000Y-59900000I-50000J0D01*
G01*
X159675000Y-59900000D01*
G75*
G02*
X159625000Y-59850000I0J50000D01*
G01*
X159625000Y-59750000D01*
G75*
G02*
X159675000Y-59700000I50000J0D01*
G01*
G37*
G36*
G01*
X159675000Y-59300000D02*
X160450000Y-59300000D01*
G75*
G02*
X160500000Y-59350000I0J-50000D01*
G01*
X160500000Y-59450000D01*
G75*
G02*
X160450000Y-59500000I-50000J0D01*
G01*
X159675000Y-59500000D01*
G75*
G02*
X159625000Y-59450000I0J50000D01*
G01*
X159625000Y-59350000D01*
G75*
G02*
X159675000Y-59300000I50000J0D01*
G01*
G37*
G36*
G01*
X141950000Y-63605000D02*
X141950000Y-63305000D01*
G75*
G02*
X142100000Y-63155000I150000J0D01*
G01*
X143400000Y-63155000D01*
G75*
G02*
X143550000Y-63305000I0J-150000D01*
G01*
X143550000Y-63605000D01*
G75*
G02*
X143400000Y-63755000I-150000J0D01*
G01*
X142100000Y-63755000D01*
G75*
G02*
X141950000Y-63605000I0J150000D01*
G01*
G37*
G36*
G01*
X141950000Y-62335000D02*
X141950000Y-62035000D01*
G75*
G02*
X142100000Y-61885000I150000J0D01*
G01*
X143400000Y-61885000D01*
G75*
G02*
X143550000Y-62035000I0J-150000D01*
G01*
X143550000Y-62335000D01*
G75*
G02*
X143400000Y-62485000I-150000J0D01*
G01*
X142100000Y-62485000D01*
G75*
G02*
X141950000Y-62335000I0J150000D01*
G01*
G37*
G36*
G01*
X141950000Y-61065000D02*
X141950000Y-60765000D01*
G75*
G02*
X142100000Y-60615000I150000J0D01*
G01*
X143400000Y-60615000D01*
G75*
G02*
X143550000Y-60765000I0J-150000D01*
G01*
X143550000Y-61065000D01*
G75*
G02*
X143400000Y-61215000I-150000J0D01*
G01*
X142100000Y-61215000D01*
G75*
G02*
X141950000Y-61065000I0J150000D01*
G01*
G37*
G36*
G01*
X141950000Y-59795000D02*
X141950000Y-59495000D01*
G75*
G02*
X142100000Y-59345000I150000J0D01*
G01*
X143400000Y-59345000D01*
G75*
G02*
X143550000Y-59495000I0J-150000D01*
G01*
X143550000Y-59795000D01*
G75*
G02*
X143400000Y-59945000I-150000J0D01*
G01*
X142100000Y-59945000D01*
G75*
G02*
X141950000Y-59795000I0J150000D01*
G01*
G37*
G36*
G01*
X149150000Y-59795000D02*
X149150000Y-59495000D01*
G75*
G02*
X149300000Y-59345000I150000J0D01*
G01*
X150600000Y-59345000D01*
G75*
G02*
X150750000Y-59495000I0J-150000D01*
G01*
X150750000Y-59795000D01*
G75*
G02*
X150600000Y-59945000I-150000J0D01*
G01*
X149300000Y-59945000D01*
G75*
G02*
X149150000Y-59795000I0J150000D01*
G01*
G37*
G36*
G01*
X149150000Y-61065000D02*
X149150000Y-60765000D01*
G75*
G02*
X149300000Y-60615000I150000J0D01*
G01*
X150600000Y-60615000D01*
G75*
G02*
X150750000Y-60765000I0J-150000D01*
G01*
X150750000Y-61065000D01*
G75*
G02*
X150600000Y-61215000I-150000J0D01*
G01*
X149300000Y-61215000D01*
G75*
G02*
X149150000Y-61065000I0J150000D01*
G01*
G37*
G36*
G01*
X149150000Y-62335000D02*
X149150000Y-62035000D01*
G75*
G02*
X149300000Y-61885000I150000J0D01*
G01*
X150600000Y-61885000D01*
G75*
G02*
X150750000Y-62035000I0J-150000D01*
G01*
X150750000Y-62335000D01*
G75*
G02*
X150600000Y-62485000I-150000J0D01*
G01*
X149300000Y-62485000D01*
G75*
G02*
X149150000Y-62335000I0J150000D01*
G01*
G37*
G36*
G01*
X149150000Y-63605000D02*
X149150000Y-63305000D01*
G75*
G02*
X149300000Y-63155000I150000J0D01*
G01*
X150600000Y-63155000D01*
G75*
G02*
X150750000Y-63305000I0J-150000D01*
G01*
X150750000Y-63605000D01*
G75*
G02*
X150600000Y-63755000I-150000J0D01*
G01*
X149300000Y-63755000D01*
G75*
G02*
X149150000Y-63605000I0J150000D01*
G01*
G37*
D24*
X180350000Y-42750000D03*
D25*
X186650000Y-42750000D03*
X186650000Y-45050000D03*
X186650000Y-40450000D03*
D26*
X175000000Y-67750000D03*
X171200000Y-67750000D03*
G36*
G01*
X171405000Y-65435000D02*
X171095000Y-65435000D01*
G75*
G02*
X170940000Y-65280000I0J155000D01*
G01*
X170940000Y-64855000D01*
G75*
G02*
X171095000Y-64700000I155000J0D01*
G01*
X171405000Y-64700000D01*
G75*
G02*
X171560000Y-64855000I0J-155000D01*
G01*
X171560000Y-65280000D01*
G75*
G02*
X171405000Y-65435000I-155000J0D01*
G01*
G37*
G36*
G01*
X171405000Y-64300000D02*
X171095000Y-64300000D01*
G75*
G02*
X170940000Y-64145000I0J155000D01*
G01*
X170940000Y-63720000D01*
G75*
G02*
X171095000Y-63565000I155000J0D01*
G01*
X171405000Y-63565000D01*
G75*
G02*
X171560000Y-63720000I0J-155000D01*
G01*
X171560000Y-64145000D01*
G75*
G02*
X171405000Y-64300000I-155000J0D01*
G01*
G37*
G36*
G01*
X175155000Y-64300000D02*
X174845000Y-64300000D01*
G75*
G02*
X174690000Y-64145000I0J155000D01*
G01*
X174690000Y-63720000D01*
G75*
G02*
X174845000Y-63565000I155000J0D01*
G01*
X175155000Y-63565000D01*
G75*
G02*
X175310000Y-63720000I0J-155000D01*
G01*
X175310000Y-64145000D01*
G75*
G02*
X175155000Y-64300000I-155000J0D01*
G01*
G37*
G36*
G01*
X175155000Y-65435000D02*
X174845000Y-65435000D01*
G75*
G02*
X174690000Y-65280000I0J155000D01*
G01*
X174690000Y-64855000D01*
G75*
G02*
X174845000Y-64700000I155000J0D01*
G01*
X175155000Y-64700000D01*
G75*
G02*
X175310000Y-64855000I0J-155000D01*
G01*
X175310000Y-65280000D01*
G75*
G02*
X175155000Y-65435000I-155000J0D01*
G01*
G37*
D27*
X187300000Y-34430000D03*
D28*
X183650000Y-33000000D03*
D27*
X187300000Y-25790000D03*
D28*
X183650000Y-27220000D03*
D29*
X183120000Y-25790000D03*
X183120000Y-34430000D03*
D30*
X182205000Y-29860000D03*
X182205000Y-31860000D03*
X182205000Y-31360000D03*
X182205000Y-30860000D03*
X182205000Y-30360000D03*
X182205000Y-29360000D03*
X182205000Y-28860000D03*
X182205000Y-28360000D03*
D31*
X182205000Y-33360000D03*
X182205000Y-32560000D03*
X182205000Y-27660000D03*
X182205000Y-26860000D03*
X182205000Y-26860000D03*
X182205000Y-27660000D03*
X182205000Y-32560000D03*
X182205000Y-33360000D03*
G36*
G01*
X175230000Y-20797500D02*
X174910000Y-20797500D01*
G75*
G02*
X174750000Y-20637500I0J160000D01*
G01*
X174750000Y-20192500D01*
G75*
G02*
X174910000Y-20032500I160000J0D01*
G01*
X175230000Y-20032500D01*
G75*
G02*
X175390000Y-20192500I0J-160000D01*
G01*
X175390000Y-20637500D01*
G75*
G02*
X175230000Y-20797500I-160000J0D01*
G01*
G37*
G36*
G01*
X175230000Y-19652500D02*
X174910000Y-19652500D01*
G75*
G02*
X174750000Y-19492500I0J160000D01*
G01*
X174750000Y-19047500D01*
G75*
G02*
X174910000Y-18887500I160000J0D01*
G01*
X175230000Y-18887500D01*
G75*
G02*
X175390000Y-19047500I0J-160000D01*
G01*
X175390000Y-19492500D01*
G75*
G02*
X175230000Y-19652500I-160000J0D01*
G01*
G37*
G36*
G01*
X176280000Y-19650000D02*
X175960000Y-19650000D01*
G75*
G02*
X175800000Y-19490000I0J160000D01*
G01*
X175800000Y-19045000D01*
G75*
G02*
X175960000Y-18885000I160000J0D01*
G01*
X176280000Y-18885000D01*
G75*
G02*
X176440000Y-19045000I0J-160000D01*
G01*
X176440000Y-19490000D01*
G75*
G02*
X176280000Y-19650000I-160000J0D01*
G01*
G37*
G36*
G01*
X176280000Y-20795000D02*
X175960000Y-20795000D01*
G75*
G02*
X175800000Y-20635000I0J160000D01*
G01*
X175800000Y-20190000D01*
G75*
G02*
X175960000Y-20030000I160000J0D01*
G01*
X176280000Y-20030000D01*
G75*
G02*
X176440000Y-20190000I0J-160000D01*
G01*
X176440000Y-20635000D01*
G75*
G02*
X176280000Y-20795000I-160000J0D01*
G01*
G37*
G36*
G01*
X176515000Y-17990000D02*
X176515000Y-18310000D01*
G75*
G02*
X176355000Y-18470000I-160000J0D01*
G01*
X175910000Y-18470000D01*
G75*
G02*
X175750000Y-18310000I0J160000D01*
G01*
X175750000Y-17990000D01*
G75*
G02*
X175910000Y-17830000I160000J0D01*
G01*
X176355000Y-17830000D01*
G75*
G02*
X176515000Y-17990000I0J-160000D01*
G01*
G37*
G36*
G01*
X175370000Y-17990000D02*
X175370000Y-18310000D01*
G75*
G02*
X175210000Y-18470000I-160000J0D01*
G01*
X174765000Y-18470000D01*
G75*
G02*
X174605000Y-18310000I0J160000D01*
G01*
X174605000Y-17990000D01*
G75*
G02*
X174765000Y-17830000I160000J0D01*
G01*
X175210000Y-17830000D01*
G75*
G02*
X175370000Y-17990000I0J-160000D01*
G01*
G37*
G36*
G01*
X174180000Y-20815000D02*
X173860000Y-20815000D01*
G75*
G02*
X173700000Y-20655000I0J160000D01*
G01*
X173700000Y-20260000D01*
G75*
G02*
X173860000Y-20100000I160000J0D01*
G01*
X174180000Y-20100000D01*
G75*
G02*
X174340000Y-20260000I0J-160000D01*
G01*
X174340000Y-20655000D01*
G75*
G02*
X174180000Y-20815000I-160000J0D01*
G01*
G37*
G36*
G01*
X174180000Y-19620000D02*
X173860000Y-19620000D01*
G75*
G02*
X173700000Y-19460000I0J160000D01*
G01*
X173700000Y-19065000D01*
G75*
G02*
X173860000Y-18905000I160000J0D01*
G01*
X174180000Y-18905000D01*
G75*
G02*
X174340000Y-19065000I0J-160000D01*
G01*
X174340000Y-19460000D01*
G75*
G02*
X174180000Y-19620000I-160000J0D01*
G01*
G37*
G36*
G01*
X177340000Y-19620000D02*
X177020000Y-19620000D01*
G75*
G02*
X176860000Y-19460000I0J160000D01*
G01*
X176860000Y-19065000D01*
G75*
G02*
X177020000Y-18905000I160000J0D01*
G01*
X177340000Y-18905000D01*
G75*
G02*
X177500000Y-19065000I0J-160000D01*
G01*
X177500000Y-19460000D01*
G75*
G02*
X177340000Y-19620000I-160000J0D01*
G01*
G37*
G36*
G01*
X177340000Y-20815000D02*
X177020000Y-20815000D01*
G75*
G02*
X176860000Y-20655000I0J160000D01*
G01*
X176860000Y-20260000D01*
G75*
G02*
X177020000Y-20100000I160000J0D01*
G01*
X177340000Y-20100000D01*
G75*
G02*
X177500000Y-20260000I0J-160000D01*
G01*
X177500000Y-20655000D01*
G75*
G02*
X177340000Y-20815000I-160000J0D01*
G01*
G37*
G36*
G01*
X176515000Y-16920000D02*
X176515000Y-17240000D01*
G75*
G02*
X176355000Y-17400000I-160000J0D01*
G01*
X175960000Y-17400000D01*
G75*
G02*
X175800000Y-17240000I0J160000D01*
G01*
X175800000Y-16920000D01*
G75*
G02*
X175960000Y-16760000I160000J0D01*
G01*
X176355000Y-16760000D01*
G75*
G02*
X176515000Y-16920000I0J-160000D01*
G01*
G37*
G36*
G01*
X175320000Y-16920000D02*
X175320000Y-17240000D01*
G75*
G02*
X175160000Y-17400000I-160000J0D01*
G01*
X174765000Y-17400000D01*
G75*
G02*
X174605000Y-17240000I0J160000D01*
G01*
X174605000Y-16920000D01*
G75*
G02*
X174765000Y-16760000I160000J0D01*
G01*
X175160000Y-16760000D01*
G75*
G02*
X175320000Y-16920000I0J-160000D01*
G01*
G37*
G36*
G01*
X184600000Y-47599999D02*
X184600000Y-48900001D01*
G75*
G02*
X184350001Y-49150000I-249999J0D01*
G01*
X183524999Y-49150000D01*
G75*
G02*
X183275000Y-48900001I0J249999D01*
G01*
X183275000Y-47599999D01*
G75*
G02*
X183524999Y-47350000I249999J0D01*
G01*
X184350001Y-47350000D01*
G75*
G02*
X184600000Y-47599999I0J-249999D01*
G01*
G37*
G36*
G01*
X187725000Y-47599999D02*
X187725000Y-48900001D01*
G75*
G02*
X187475001Y-49150000I-249999J0D01*
G01*
X186649999Y-49150000D01*
G75*
G02*
X186400000Y-48900001I0J249999D01*
G01*
X186400000Y-47599999D01*
G75*
G02*
X186649999Y-47350000I249999J0D01*
G01*
X187475001Y-47350000D01*
G75*
G02*
X187725000Y-47599999I0J-249999D01*
G01*
G37*
G36*
G01*
X183525000Y-37900001D02*
X183525000Y-36599999D01*
G75*
G02*
X183774999Y-36350000I249999J0D01*
G01*
X184600001Y-36350000D01*
G75*
G02*
X184850000Y-36599999I0J-249999D01*
G01*
X184850000Y-37900001D01*
G75*
G02*
X184600001Y-38150000I-249999J0D01*
G01*
X183774999Y-38150000D01*
G75*
G02*
X183525000Y-37900001I0J249999D01*
G01*
G37*
G36*
G01*
X186650000Y-37900001D02*
X186650000Y-36599999D01*
G75*
G02*
X186899999Y-36350000I249999J0D01*
G01*
X187725001Y-36350000D01*
G75*
G02*
X187975000Y-36599999I0J-249999D01*
G01*
X187975000Y-37900001D01*
G75*
G02*
X187725001Y-38150000I-249999J0D01*
G01*
X186899999Y-38150000D01*
G75*
G02*
X186650000Y-37900001I0J249999D01*
G01*
G37*
G36*
G01*
X177575000Y-31962500D02*
X177575000Y-32437500D01*
G75*
G02*
X177337500Y-32675000I-237500J0D01*
G01*
X176837500Y-32675000D01*
G75*
G02*
X176600000Y-32437500I0J237500D01*
G01*
X176600000Y-31962500D01*
G75*
G02*
X176837500Y-31725000I237500J0D01*
G01*
X177337500Y-31725000D01*
G75*
G02*
X177575000Y-31962500I0J-237500D01*
G01*
G37*
G36*
G01*
X179400000Y-31962500D02*
X179400000Y-32437500D01*
G75*
G02*
X179162500Y-32675000I-237500J0D01*
G01*
X178662500Y-32675000D01*
G75*
G02*
X178425000Y-32437500I0J237500D01*
G01*
X178425000Y-31962500D01*
G75*
G02*
X178662500Y-31725000I237500J0D01*
G01*
X179162500Y-31725000D01*
G75*
G02*
X179400000Y-31962500I0J-237500D01*
G01*
G37*
G36*
G01*
X179400000Y-33562500D02*
X179400000Y-34037500D01*
G75*
G02*
X179162500Y-34275000I-237500J0D01*
G01*
X178662500Y-34275000D01*
G75*
G02*
X178425000Y-34037500I0J237500D01*
G01*
X178425000Y-33562500D01*
G75*
G02*
X178662500Y-33325000I237500J0D01*
G01*
X179162500Y-33325000D01*
G75*
G02*
X179400000Y-33562500I0J-237500D01*
G01*
G37*
G36*
G01*
X177575000Y-33562500D02*
X177575000Y-34037500D01*
G75*
G02*
X177337500Y-34275000I-237500J0D01*
G01*
X176837500Y-34275000D01*
G75*
G02*
X176600000Y-34037500I0J237500D01*
G01*
X176600000Y-33562500D01*
G75*
G02*
X176837500Y-33325000I237500J0D01*
G01*
X177337500Y-33325000D01*
G75*
G02*
X177575000Y-33562500I0J-237500D01*
G01*
G37*
G36*
G01*
X174925000Y-42300000D02*
X173675000Y-42300000D01*
G75*
G02*
X173425000Y-42050000I0J250000D01*
G01*
X173425000Y-41125000D01*
G75*
G02*
X173675000Y-40875000I250000J0D01*
G01*
X174925000Y-40875000D01*
G75*
G02*
X175175000Y-41125000I0J-250000D01*
G01*
X175175000Y-42050000D01*
G75*
G02*
X174925000Y-42300000I-250000J0D01*
G01*
G37*
G36*
G01*
X174925000Y-39325000D02*
X173675000Y-39325000D01*
G75*
G02*
X173425000Y-39075000I0J250000D01*
G01*
X173425000Y-38150000D01*
G75*
G02*
X173675000Y-37900000I250000J0D01*
G01*
X174925000Y-37900000D01*
G75*
G02*
X175175000Y-38150000I0J-250000D01*
G01*
X175175000Y-39075000D01*
G75*
G02*
X174925000Y-39325000I-250000J0D01*
G01*
G37*
D32*
X136773000Y-61973000D02*
X136327000Y-61973000D01*
X136327000Y-61727000D01*
X136773000Y-61727000D01*
X136773000Y-61973000D01*
D12*
G36*
X136773000Y-61973000D02*
G01*
X136327000Y-61973000D01*
X136327000Y-61727000D01*
X136773000Y-61727000D01*
X136773000Y-61973000D01*
G37*
D32*
X134673000Y-61973000D02*
X134227000Y-61973000D01*
X134227000Y-61727000D01*
X134673000Y-61727000D01*
X134673000Y-61973000D01*
D12*
G36*
X134673000Y-61973000D02*
G01*
X134227000Y-61973000D01*
X134227000Y-61727000D01*
X134673000Y-61727000D01*
X134673000Y-61973000D01*
G37*
D32*
X138573000Y-61973000D02*
X138227000Y-61973000D01*
X138227000Y-61727000D01*
X138573000Y-61727000D01*
X138573000Y-61973000D01*
D12*
G36*
X138573000Y-61973000D02*
G01*
X138227000Y-61973000D01*
X138227000Y-61727000D01*
X138573000Y-61727000D01*
X138573000Y-61973000D01*
G37*
D32*
X140773000Y-61773000D02*
X140427000Y-61773000D01*
X140427000Y-61727000D01*
X140773000Y-61727000D01*
X140773000Y-61773000D01*
D12*
G36*
X140773000Y-61773000D02*
G01*
X140427000Y-61773000D01*
X140427000Y-61727000D01*
X140773000Y-61727000D01*
X140773000Y-61773000D01*
G37*
D32*
X140773000Y-56273000D02*
X140427000Y-56273000D01*
X140427000Y-56127000D01*
X140773000Y-56127000D01*
X140773000Y-56273000D01*
D12*
G36*
X140773000Y-56273000D02*
G01*
X140427000Y-56273000D01*
X140427000Y-56127000D01*
X140773000Y-56127000D01*
X140773000Y-56273000D01*
G37*
D32*
X138573000Y-56373000D02*
X138227000Y-56373000D01*
X138227000Y-55927000D01*
X138573000Y-55927000D01*
X138573000Y-56373000D01*
D12*
G36*
X138573000Y-56373000D02*
G01*
X138227000Y-56373000D01*
X138227000Y-55927000D01*
X138573000Y-55927000D01*
X138573000Y-56373000D01*
G37*
D32*
X136773000Y-56273000D02*
X136427000Y-56273000D01*
X136427000Y-55927000D01*
X136773000Y-55927000D01*
X136773000Y-56273000D01*
D12*
G36*
X136773000Y-56273000D02*
G01*
X136427000Y-56273000D01*
X136427000Y-55927000D01*
X136773000Y-55927000D01*
X136773000Y-56273000D01*
G37*
D32*
X134573000Y-56273000D02*
X134227000Y-56273000D01*
X134227000Y-55927000D01*
X134573000Y-55927000D01*
X134573000Y-56273000D01*
D12*
G36*
X134573000Y-56273000D02*
G01*
X134227000Y-56273000D01*
X134227000Y-55927000D01*
X134573000Y-55927000D01*
X134573000Y-56273000D01*
G37*
M02*
